G75*
%MOIN*%
%OFA0B0*%
%FSLAX25Y25*%
%IPPOS*%
%LPD*%
%AMOC8*
5,1,8,0,0,1.08239X$1,22.5*
%
%ADD10C,0.00000*%
%ADD11R,0.03937X0.00984*%
%ADD12R,0.03937X0.03740*%
%ADD13R,0.03740X0.03937*%
%ADD14R,0.03150X0.01772*%
%ADD15R,0.05906X0.09449*%
%ADD16R,0.02323X0.02835*%
%ADD17R,0.02835X0.02323*%
%ADD18R,0.01200X0.03900*%
%ADD19R,0.03543X0.02362*%
%ADD20R,0.06890X0.17717*%
%ADD21C,0.01044*%
D10*
X0010374Y0002500D02*
X0191476Y0002500D01*
X0191666Y0002502D01*
X0191856Y0002509D01*
X0192046Y0002521D01*
X0192236Y0002537D01*
X0192425Y0002557D01*
X0192614Y0002583D01*
X0192802Y0002612D01*
X0192989Y0002647D01*
X0193175Y0002686D01*
X0193360Y0002729D01*
X0193545Y0002777D01*
X0193728Y0002829D01*
X0193909Y0002885D01*
X0194089Y0002946D01*
X0194268Y0003012D01*
X0194445Y0003081D01*
X0194621Y0003155D01*
X0194794Y0003233D01*
X0194966Y0003316D01*
X0195135Y0003402D01*
X0195303Y0003492D01*
X0195468Y0003587D01*
X0195631Y0003685D01*
X0195791Y0003788D01*
X0195949Y0003894D01*
X0196104Y0004004D01*
X0196257Y0004117D01*
X0196407Y0004235D01*
X0196553Y0004356D01*
X0196697Y0004480D01*
X0196838Y0004608D01*
X0196976Y0004739D01*
X0197111Y0004874D01*
X0197242Y0005012D01*
X0197370Y0005153D01*
X0197494Y0005297D01*
X0197615Y0005443D01*
X0197733Y0005593D01*
X0197846Y0005746D01*
X0197956Y0005901D01*
X0198062Y0006059D01*
X0198165Y0006219D01*
X0198263Y0006382D01*
X0198358Y0006547D01*
X0198448Y0006715D01*
X0198534Y0006884D01*
X0198617Y0007056D01*
X0198695Y0007229D01*
X0198769Y0007405D01*
X0198838Y0007582D01*
X0198904Y0007761D01*
X0198965Y0007941D01*
X0199021Y0008122D01*
X0199073Y0008305D01*
X0199121Y0008490D01*
X0199164Y0008675D01*
X0199203Y0008861D01*
X0199238Y0009048D01*
X0199267Y0009236D01*
X0199293Y0009425D01*
X0199313Y0009614D01*
X0199329Y0009804D01*
X0199341Y0009994D01*
X0199348Y0010184D01*
X0199350Y0010374D01*
X0199350Y0085177D01*
X0199348Y0085367D01*
X0199341Y0085557D01*
X0199329Y0085747D01*
X0199313Y0085937D01*
X0199293Y0086126D01*
X0199267Y0086315D01*
X0199238Y0086503D01*
X0199203Y0086690D01*
X0199164Y0086876D01*
X0199121Y0087061D01*
X0199073Y0087246D01*
X0199021Y0087429D01*
X0198965Y0087610D01*
X0198904Y0087790D01*
X0198838Y0087969D01*
X0198769Y0088146D01*
X0198695Y0088322D01*
X0198617Y0088495D01*
X0198534Y0088667D01*
X0198448Y0088836D01*
X0198358Y0089004D01*
X0198263Y0089169D01*
X0198165Y0089332D01*
X0198062Y0089492D01*
X0197956Y0089650D01*
X0197846Y0089805D01*
X0197733Y0089958D01*
X0197615Y0090108D01*
X0197494Y0090254D01*
X0197370Y0090398D01*
X0197242Y0090539D01*
X0197111Y0090677D01*
X0196976Y0090812D01*
X0196838Y0090943D01*
X0196697Y0091071D01*
X0196553Y0091195D01*
X0196407Y0091316D01*
X0196257Y0091434D01*
X0196104Y0091547D01*
X0195949Y0091657D01*
X0195791Y0091763D01*
X0195631Y0091866D01*
X0195468Y0091964D01*
X0195303Y0092059D01*
X0195135Y0092149D01*
X0194966Y0092235D01*
X0194794Y0092318D01*
X0194621Y0092396D01*
X0194445Y0092470D01*
X0194268Y0092539D01*
X0194089Y0092605D01*
X0193909Y0092666D01*
X0193728Y0092722D01*
X0193545Y0092774D01*
X0193360Y0092822D01*
X0193175Y0092865D01*
X0192989Y0092904D01*
X0192802Y0092939D01*
X0192614Y0092968D01*
X0192425Y0092994D01*
X0192236Y0093014D01*
X0192046Y0093030D01*
X0191856Y0093042D01*
X0191666Y0093049D01*
X0191476Y0093051D01*
X0010374Y0093051D01*
X0010184Y0093049D01*
X0009994Y0093042D01*
X0009804Y0093030D01*
X0009614Y0093014D01*
X0009425Y0092994D01*
X0009236Y0092968D01*
X0009048Y0092939D01*
X0008861Y0092904D01*
X0008675Y0092865D01*
X0008490Y0092822D01*
X0008305Y0092774D01*
X0008122Y0092722D01*
X0007941Y0092666D01*
X0007761Y0092605D01*
X0007582Y0092539D01*
X0007405Y0092470D01*
X0007229Y0092396D01*
X0007056Y0092318D01*
X0006884Y0092235D01*
X0006715Y0092149D01*
X0006547Y0092059D01*
X0006382Y0091964D01*
X0006219Y0091866D01*
X0006059Y0091763D01*
X0005901Y0091657D01*
X0005746Y0091547D01*
X0005593Y0091434D01*
X0005443Y0091316D01*
X0005297Y0091195D01*
X0005153Y0091071D01*
X0005012Y0090943D01*
X0004874Y0090812D01*
X0004739Y0090677D01*
X0004608Y0090539D01*
X0004480Y0090398D01*
X0004356Y0090254D01*
X0004235Y0090108D01*
X0004117Y0089958D01*
X0004004Y0089805D01*
X0003894Y0089650D01*
X0003788Y0089492D01*
X0003685Y0089332D01*
X0003587Y0089169D01*
X0003492Y0089004D01*
X0003402Y0088836D01*
X0003316Y0088667D01*
X0003233Y0088495D01*
X0003155Y0088322D01*
X0003081Y0088146D01*
X0003012Y0087969D01*
X0002946Y0087790D01*
X0002885Y0087610D01*
X0002829Y0087429D01*
X0002777Y0087246D01*
X0002729Y0087061D01*
X0002686Y0086876D01*
X0002647Y0086690D01*
X0002612Y0086503D01*
X0002583Y0086315D01*
X0002557Y0086126D01*
X0002537Y0085937D01*
X0002521Y0085747D01*
X0002509Y0085557D01*
X0002502Y0085367D01*
X0002500Y0085177D01*
X0002500Y0010374D01*
X0002502Y0010184D01*
X0002509Y0009994D01*
X0002521Y0009804D01*
X0002537Y0009614D01*
X0002557Y0009425D01*
X0002583Y0009236D01*
X0002612Y0009048D01*
X0002647Y0008861D01*
X0002686Y0008675D01*
X0002729Y0008490D01*
X0002777Y0008305D01*
X0002829Y0008122D01*
X0002885Y0007941D01*
X0002946Y0007761D01*
X0003012Y0007582D01*
X0003081Y0007405D01*
X0003155Y0007229D01*
X0003233Y0007056D01*
X0003316Y0006884D01*
X0003402Y0006715D01*
X0003492Y0006547D01*
X0003587Y0006382D01*
X0003685Y0006219D01*
X0003788Y0006059D01*
X0003894Y0005901D01*
X0004004Y0005746D01*
X0004117Y0005593D01*
X0004235Y0005443D01*
X0004356Y0005297D01*
X0004480Y0005153D01*
X0004608Y0005012D01*
X0004739Y0004874D01*
X0004874Y0004739D01*
X0005012Y0004608D01*
X0005153Y0004480D01*
X0005297Y0004356D01*
X0005443Y0004235D01*
X0005593Y0004117D01*
X0005746Y0004004D01*
X0005901Y0003894D01*
X0006059Y0003788D01*
X0006219Y0003685D01*
X0006382Y0003587D01*
X0006547Y0003492D01*
X0006715Y0003402D01*
X0006884Y0003316D01*
X0007056Y0003233D01*
X0007229Y0003155D01*
X0007405Y0003081D01*
X0007582Y0003012D01*
X0007761Y0002946D01*
X0007941Y0002885D01*
X0008122Y0002829D01*
X0008305Y0002777D01*
X0008490Y0002729D01*
X0008675Y0002686D01*
X0008861Y0002647D01*
X0009048Y0002612D01*
X0009236Y0002583D01*
X0009425Y0002557D01*
X0009614Y0002537D01*
X0009804Y0002521D01*
X0009994Y0002509D01*
X0010184Y0002502D01*
X0010374Y0002500D01*
D11*
X0054070Y0060862D03*
X0054070Y0062831D03*
X0054070Y0064799D03*
X0054070Y0066768D03*
X0054070Y0068736D03*
X0070709Y0068736D03*
X0070709Y0066768D03*
X0070709Y0064799D03*
X0070709Y0062831D03*
X0070709Y0060862D03*
D12*
X0070500Y0049650D03*
X0062500Y0049650D03*
X0054500Y0049650D03*
X0054500Y0043350D03*
X0062500Y0043350D03*
X0070500Y0043350D03*
X0070500Y0032650D03*
X0062500Y0032650D03*
X0054500Y0032650D03*
X0054500Y0026350D03*
X0062500Y0026350D03*
X0070500Y0026350D03*
X0083500Y0016650D03*
X0092500Y0016650D03*
X0101500Y0016650D03*
X0110500Y0016650D03*
X0110500Y0010350D03*
X0101500Y0010350D03*
X0092500Y0010350D03*
X0083500Y0010350D03*
X0118500Y0029350D03*
X0127500Y0029350D03*
X0136500Y0029350D03*
X0136500Y0035650D03*
X0127500Y0035650D03*
X0118500Y0035650D03*
X0117500Y0046350D03*
X0126500Y0046350D03*
X0136500Y0046350D03*
X0145500Y0046350D03*
X0155500Y0046350D03*
X0155500Y0052650D03*
X0145500Y0052650D03*
X0136500Y0052650D03*
X0126500Y0052650D03*
X0117500Y0052650D03*
X0049406Y0078650D03*
X0041390Y0078949D03*
X0049406Y0084949D03*
X0041390Y0072650D03*
X0034390Y0053849D03*
X0026390Y0053949D03*
X0026390Y0047650D03*
X0034390Y0047550D03*
X0138500Y0017650D03*
X0138500Y0011350D03*
D13*
X0041539Y0059799D03*
X0035240Y0059799D03*
D14*
X0055594Y0019437D03*
X0055594Y0015500D03*
X0055594Y0011563D03*
X0067406Y0011563D03*
X0067406Y0015500D03*
X0067406Y0019437D03*
D15*
X0061500Y0015500D03*
D16*
X0030280Y0060299D03*
X0026500Y0060299D03*
X0036500Y0065299D03*
X0040280Y0065299D03*
D17*
X0047500Y0063390D03*
X0047500Y0059610D03*
X0047500Y0067610D03*
X0047500Y0071390D03*
D18*
X0083984Y0048987D03*
X0086543Y0048987D03*
X0089102Y0048987D03*
X0091661Y0048987D03*
X0094220Y0048987D03*
X0096780Y0048987D03*
X0099339Y0048987D03*
X0101898Y0048987D03*
X0104457Y0048987D03*
X0107016Y0048987D03*
X0107016Y0026013D03*
X0104457Y0026013D03*
X0101898Y0026013D03*
X0099339Y0026013D03*
X0096780Y0026013D03*
X0094220Y0026013D03*
X0091661Y0026013D03*
X0089102Y0026013D03*
X0086543Y0026013D03*
X0083984Y0026013D03*
D19*
X0120972Y0018240D03*
X0120972Y0014500D03*
X0120972Y0010760D03*
X0130028Y0010760D03*
X0130028Y0014500D03*
X0130028Y0018240D03*
D20*
X0145102Y0031500D03*
X0157898Y0031500D03*
D21*
X0145778Y0062522D02*
X0145778Y0073478D01*
X0145778Y0062522D02*
X0143222Y0062522D01*
X0143222Y0073478D01*
X0145778Y0073478D01*
X0145778Y0063565D02*
X0143222Y0063565D01*
X0143222Y0064608D02*
X0145778Y0064608D01*
X0145778Y0065651D02*
X0143222Y0065651D01*
X0143222Y0066694D02*
X0145778Y0066694D01*
X0145778Y0067737D02*
X0143222Y0067737D01*
X0143222Y0068780D02*
X0145778Y0068780D01*
X0145778Y0069823D02*
X0143222Y0069823D01*
X0143222Y0070866D02*
X0145778Y0070866D01*
X0145778Y0071909D02*
X0143222Y0071909D01*
X0143222Y0072952D02*
X0145778Y0072952D01*
X0140778Y0073478D02*
X0140778Y0062522D01*
X0138222Y0062522D01*
X0138222Y0073478D01*
X0140778Y0073478D01*
X0140778Y0063565D02*
X0138222Y0063565D01*
X0138222Y0064608D02*
X0140778Y0064608D01*
X0140778Y0065651D02*
X0138222Y0065651D01*
X0138222Y0066694D02*
X0140778Y0066694D01*
X0140778Y0067737D02*
X0138222Y0067737D01*
X0138222Y0068780D02*
X0140778Y0068780D01*
X0140778Y0069823D02*
X0138222Y0069823D01*
X0138222Y0070866D02*
X0140778Y0070866D01*
X0140778Y0071909D02*
X0138222Y0071909D01*
X0138222Y0072952D02*
X0140778Y0072952D01*
X0135778Y0073478D02*
X0135778Y0062522D01*
X0133222Y0062522D01*
X0133222Y0073478D01*
X0135778Y0073478D01*
X0135778Y0063565D02*
X0133222Y0063565D01*
X0133222Y0064608D02*
X0135778Y0064608D01*
X0135778Y0065651D02*
X0133222Y0065651D01*
X0133222Y0066694D02*
X0135778Y0066694D01*
X0135778Y0067737D02*
X0133222Y0067737D01*
X0133222Y0068780D02*
X0135778Y0068780D01*
X0135778Y0069823D02*
X0133222Y0069823D01*
X0133222Y0070866D02*
X0135778Y0070866D01*
X0135778Y0071909D02*
X0133222Y0071909D01*
X0133222Y0072952D02*
X0135778Y0072952D01*
X0130778Y0073478D02*
X0130778Y0062522D01*
X0128222Y0062522D01*
X0128222Y0073478D01*
X0130778Y0073478D01*
X0130778Y0063565D02*
X0128222Y0063565D01*
X0128222Y0064608D02*
X0130778Y0064608D01*
X0130778Y0065651D02*
X0128222Y0065651D01*
X0128222Y0066694D02*
X0130778Y0066694D01*
X0130778Y0067737D02*
X0128222Y0067737D01*
X0128222Y0068780D02*
X0130778Y0068780D01*
X0130778Y0069823D02*
X0128222Y0069823D01*
X0128222Y0070866D02*
X0130778Y0070866D01*
X0130778Y0071909D02*
X0128222Y0071909D01*
X0128222Y0072952D02*
X0130778Y0072952D01*
X0125778Y0073478D02*
X0125778Y0062522D01*
X0123222Y0062522D01*
X0123222Y0073478D01*
X0125778Y0073478D01*
X0125778Y0063565D02*
X0123222Y0063565D01*
X0123222Y0064608D02*
X0125778Y0064608D01*
X0125778Y0065651D02*
X0123222Y0065651D01*
X0123222Y0066694D02*
X0125778Y0066694D01*
X0125778Y0067737D02*
X0123222Y0067737D01*
X0123222Y0068780D02*
X0125778Y0068780D01*
X0125778Y0069823D02*
X0123222Y0069823D01*
X0123222Y0070866D02*
X0125778Y0070866D01*
X0125778Y0071909D02*
X0123222Y0071909D01*
X0123222Y0072952D02*
X0125778Y0072952D01*
X0125778Y0077522D02*
X0125778Y0088478D01*
X0125778Y0077522D02*
X0123222Y0077522D01*
X0123222Y0088478D01*
X0125778Y0088478D01*
X0125778Y0078565D02*
X0123222Y0078565D01*
X0123222Y0079608D02*
X0125778Y0079608D01*
X0125778Y0080651D02*
X0123222Y0080651D01*
X0123222Y0081694D02*
X0125778Y0081694D01*
X0125778Y0082737D02*
X0123222Y0082737D01*
X0123222Y0083780D02*
X0125778Y0083780D01*
X0125778Y0084823D02*
X0123222Y0084823D01*
X0123222Y0085866D02*
X0125778Y0085866D01*
X0125778Y0086909D02*
X0123222Y0086909D01*
X0123222Y0087952D02*
X0125778Y0087952D01*
X0130778Y0088478D02*
X0130778Y0077522D01*
X0128222Y0077522D01*
X0128222Y0088478D01*
X0130778Y0088478D01*
X0130778Y0078565D02*
X0128222Y0078565D01*
X0128222Y0079608D02*
X0130778Y0079608D01*
X0130778Y0080651D02*
X0128222Y0080651D01*
X0128222Y0081694D02*
X0130778Y0081694D01*
X0130778Y0082737D02*
X0128222Y0082737D01*
X0128222Y0083780D02*
X0130778Y0083780D01*
X0130778Y0084823D02*
X0128222Y0084823D01*
X0128222Y0085866D02*
X0130778Y0085866D01*
X0130778Y0086909D02*
X0128222Y0086909D01*
X0128222Y0087952D02*
X0130778Y0087952D01*
X0135778Y0088478D02*
X0135778Y0077522D01*
X0133222Y0077522D01*
X0133222Y0088478D01*
X0135778Y0088478D01*
X0135778Y0078565D02*
X0133222Y0078565D01*
X0133222Y0079608D02*
X0135778Y0079608D01*
X0135778Y0080651D02*
X0133222Y0080651D01*
X0133222Y0081694D02*
X0135778Y0081694D01*
X0135778Y0082737D02*
X0133222Y0082737D01*
X0133222Y0083780D02*
X0135778Y0083780D01*
X0135778Y0084823D02*
X0133222Y0084823D01*
X0133222Y0085866D02*
X0135778Y0085866D01*
X0135778Y0086909D02*
X0133222Y0086909D01*
X0133222Y0087952D02*
X0135778Y0087952D01*
X0140778Y0088478D02*
X0140778Y0077522D01*
X0138222Y0077522D01*
X0138222Y0088478D01*
X0140778Y0088478D01*
X0140778Y0078565D02*
X0138222Y0078565D01*
X0138222Y0079608D02*
X0140778Y0079608D01*
X0140778Y0080651D02*
X0138222Y0080651D01*
X0138222Y0081694D02*
X0140778Y0081694D01*
X0140778Y0082737D02*
X0138222Y0082737D01*
X0138222Y0083780D02*
X0140778Y0083780D01*
X0140778Y0084823D02*
X0138222Y0084823D01*
X0138222Y0085866D02*
X0140778Y0085866D01*
X0140778Y0086909D02*
X0138222Y0086909D01*
X0138222Y0087952D02*
X0140778Y0087952D01*
X0145778Y0088478D02*
X0145778Y0077522D01*
X0143222Y0077522D01*
X0143222Y0088478D01*
X0145778Y0088478D01*
X0145778Y0078565D02*
X0143222Y0078565D01*
X0143222Y0079608D02*
X0145778Y0079608D01*
X0145778Y0080651D02*
X0143222Y0080651D01*
X0143222Y0081694D02*
X0145778Y0081694D01*
X0145778Y0082737D02*
X0143222Y0082737D01*
X0143222Y0083780D02*
X0145778Y0083780D01*
X0145778Y0084823D02*
X0143222Y0084823D01*
X0143222Y0085866D02*
X0145778Y0085866D01*
X0145778Y0086909D02*
X0143222Y0086909D01*
X0143222Y0087952D02*
X0145778Y0087952D01*
M02*
