G75*
%MOIN*%
%OFA0B0*%
%FSLAX25Y25*%
%IPPOS*%
%LPD*%
%AMOC8*
5,1,8,0,0,1.08239X$1,22.5*
%
%ADD10C,0.00000*%
%ADD11C,0.00800*%
%ADD12C,0.00394*%
%ADD13C,0.00400*%
%ADD14C,0.01600*%
%ADD15C,0.00600*%
%ADD16C,0.00787*%
%ADD17C,0.00500*%
%ADD18C,0.00200*%
%ADD19C,0.01000*%
%ADD20C,0.00787*%
D10*
X0010374Y0051000D02*
X0191476Y0051000D01*
X0191666Y0051002D01*
X0191856Y0051009D01*
X0192046Y0051021D01*
X0192236Y0051037D01*
X0192425Y0051057D01*
X0192614Y0051083D01*
X0192802Y0051112D01*
X0192989Y0051147D01*
X0193175Y0051186D01*
X0193360Y0051229D01*
X0193545Y0051277D01*
X0193728Y0051329D01*
X0193909Y0051385D01*
X0194089Y0051446D01*
X0194268Y0051512D01*
X0194445Y0051581D01*
X0194621Y0051655D01*
X0194794Y0051733D01*
X0194966Y0051816D01*
X0195135Y0051902D01*
X0195303Y0051992D01*
X0195468Y0052087D01*
X0195631Y0052185D01*
X0195791Y0052288D01*
X0195949Y0052394D01*
X0196104Y0052504D01*
X0196257Y0052617D01*
X0196407Y0052735D01*
X0196553Y0052856D01*
X0196697Y0052980D01*
X0196838Y0053108D01*
X0196976Y0053239D01*
X0197111Y0053374D01*
X0197242Y0053512D01*
X0197370Y0053653D01*
X0197494Y0053797D01*
X0197615Y0053943D01*
X0197733Y0054093D01*
X0197846Y0054246D01*
X0197956Y0054401D01*
X0198062Y0054559D01*
X0198165Y0054719D01*
X0198263Y0054882D01*
X0198358Y0055047D01*
X0198448Y0055215D01*
X0198534Y0055384D01*
X0198617Y0055556D01*
X0198695Y0055729D01*
X0198769Y0055905D01*
X0198838Y0056082D01*
X0198904Y0056261D01*
X0198965Y0056441D01*
X0199021Y0056622D01*
X0199073Y0056805D01*
X0199121Y0056990D01*
X0199164Y0057175D01*
X0199203Y0057361D01*
X0199238Y0057548D01*
X0199267Y0057736D01*
X0199293Y0057925D01*
X0199313Y0058114D01*
X0199329Y0058304D01*
X0199341Y0058494D01*
X0199348Y0058684D01*
X0199350Y0058874D01*
X0199350Y0133677D01*
X0199348Y0133867D01*
X0199341Y0134057D01*
X0199329Y0134247D01*
X0199313Y0134437D01*
X0199293Y0134626D01*
X0199267Y0134815D01*
X0199238Y0135003D01*
X0199203Y0135190D01*
X0199164Y0135376D01*
X0199121Y0135561D01*
X0199073Y0135746D01*
X0199021Y0135929D01*
X0198965Y0136110D01*
X0198904Y0136290D01*
X0198838Y0136469D01*
X0198769Y0136646D01*
X0198695Y0136822D01*
X0198617Y0136995D01*
X0198534Y0137167D01*
X0198448Y0137336D01*
X0198358Y0137504D01*
X0198263Y0137669D01*
X0198165Y0137832D01*
X0198062Y0137992D01*
X0197956Y0138150D01*
X0197846Y0138305D01*
X0197733Y0138458D01*
X0197615Y0138608D01*
X0197494Y0138754D01*
X0197370Y0138898D01*
X0197242Y0139039D01*
X0197111Y0139177D01*
X0196976Y0139312D01*
X0196838Y0139443D01*
X0196697Y0139571D01*
X0196553Y0139695D01*
X0196407Y0139816D01*
X0196257Y0139934D01*
X0196104Y0140047D01*
X0195949Y0140157D01*
X0195791Y0140263D01*
X0195631Y0140366D01*
X0195468Y0140464D01*
X0195303Y0140559D01*
X0195135Y0140649D01*
X0194966Y0140735D01*
X0194794Y0140818D01*
X0194621Y0140896D01*
X0194445Y0140970D01*
X0194268Y0141039D01*
X0194089Y0141105D01*
X0193909Y0141166D01*
X0193728Y0141222D01*
X0193545Y0141274D01*
X0193360Y0141322D01*
X0193175Y0141365D01*
X0192989Y0141404D01*
X0192802Y0141439D01*
X0192614Y0141468D01*
X0192425Y0141494D01*
X0192236Y0141514D01*
X0192046Y0141530D01*
X0191856Y0141542D01*
X0191666Y0141549D01*
X0191476Y0141551D01*
X0010374Y0141551D01*
X0010184Y0141549D01*
X0009994Y0141542D01*
X0009804Y0141530D01*
X0009614Y0141514D01*
X0009425Y0141494D01*
X0009236Y0141468D01*
X0009048Y0141439D01*
X0008861Y0141404D01*
X0008675Y0141365D01*
X0008490Y0141322D01*
X0008305Y0141274D01*
X0008122Y0141222D01*
X0007941Y0141166D01*
X0007761Y0141105D01*
X0007582Y0141039D01*
X0007405Y0140970D01*
X0007229Y0140896D01*
X0007056Y0140818D01*
X0006884Y0140735D01*
X0006715Y0140649D01*
X0006547Y0140559D01*
X0006382Y0140464D01*
X0006219Y0140366D01*
X0006059Y0140263D01*
X0005901Y0140157D01*
X0005746Y0140047D01*
X0005593Y0139934D01*
X0005443Y0139816D01*
X0005297Y0139695D01*
X0005153Y0139571D01*
X0005012Y0139443D01*
X0004874Y0139312D01*
X0004739Y0139177D01*
X0004608Y0139039D01*
X0004480Y0138898D01*
X0004356Y0138754D01*
X0004235Y0138608D01*
X0004117Y0138458D01*
X0004004Y0138305D01*
X0003894Y0138150D01*
X0003788Y0137992D01*
X0003685Y0137832D01*
X0003587Y0137669D01*
X0003492Y0137504D01*
X0003402Y0137336D01*
X0003316Y0137167D01*
X0003233Y0136995D01*
X0003155Y0136822D01*
X0003081Y0136646D01*
X0003012Y0136469D01*
X0002946Y0136290D01*
X0002885Y0136110D01*
X0002829Y0135929D01*
X0002777Y0135746D01*
X0002729Y0135561D01*
X0002686Y0135376D01*
X0002647Y0135190D01*
X0002612Y0135003D01*
X0002583Y0134815D01*
X0002557Y0134626D01*
X0002537Y0134437D01*
X0002521Y0134247D01*
X0002509Y0134057D01*
X0002502Y0133867D01*
X0002500Y0133677D01*
X0002500Y0058874D01*
X0002502Y0058684D01*
X0002509Y0058494D01*
X0002521Y0058304D01*
X0002537Y0058114D01*
X0002557Y0057925D01*
X0002583Y0057736D01*
X0002612Y0057548D01*
X0002647Y0057361D01*
X0002686Y0057175D01*
X0002729Y0056990D01*
X0002777Y0056805D01*
X0002829Y0056622D01*
X0002885Y0056441D01*
X0002946Y0056261D01*
X0003012Y0056082D01*
X0003081Y0055905D01*
X0003155Y0055729D01*
X0003233Y0055556D01*
X0003316Y0055384D01*
X0003402Y0055215D01*
X0003492Y0055047D01*
X0003587Y0054882D01*
X0003685Y0054719D01*
X0003788Y0054559D01*
X0003894Y0054401D01*
X0004004Y0054246D01*
X0004117Y0054093D01*
X0004235Y0053943D01*
X0004356Y0053797D01*
X0004480Y0053653D01*
X0004608Y0053512D01*
X0004739Y0053374D01*
X0004874Y0053239D01*
X0005012Y0053108D01*
X0005153Y0052980D01*
X0005297Y0052856D01*
X0005443Y0052735D01*
X0005593Y0052617D01*
X0005746Y0052504D01*
X0005901Y0052394D01*
X0006059Y0052288D01*
X0006219Y0052185D01*
X0006382Y0052087D01*
X0006547Y0051992D01*
X0006715Y0051902D01*
X0006884Y0051816D01*
X0007056Y0051733D01*
X0007229Y0051655D01*
X0007405Y0051581D01*
X0007582Y0051512D01*
X0007761Y0051446D01*
X0007941Y0051385D01*
X0008122Y0051329D01*
X0008305Y0051277D01*
X0008490Y0051229D01*
X0008675Y0051186D01*
X0008861Y0051147D01*
X0009048Y0051112D01*
X0009236Y0051083D01*
X0009425Y0051057D01*
X0009614Y0051037D01*
X0009804Y0051021D01*
X0009994Y0051009D01*
X0010184Y0051002D01*
X0010374Y0051000D01*
D11*
X0011949Y0066748D02*
X0011951Y0066906D01*
X0011957Y0067064D01*
X0011967Y0067222D01*
X0011981Y0067380D01*
X0011999Y0067537D01*
X0012020Y0067694D01*
X0012046Y0067850D01*
X0012076Y0068006D01*
X0012109Y0068161D01*
X0012147Y0068314D01*
X0012188Y0068467D01*
X0012233Y0068619D01*
X0012282Y0068770D01*
X0012335Y0068919D01*
X0012391Y0069067D01*
X0012451Y0069213D01*
X0012515Y0069358D01*
X0012583Y0069501D01*
X0012654Y0069643D01*
X0012728Y0069783D01*
X0012806Y0069920D01*
X0012888Y0070056D01*
X0012972Y0070190D01*
X0013061Y0070321D01*
X0013152Y0070450D01*
X0013247Y0070577D01*
X0013344Y0070702D01*
X0013445Y0070824D01*
X0013549Y0070943D01*
X0013656Y0071060D01*
X0013766Y0071174D01*
X0013879Y0071285D01*
X0013994Y0071394D01*
X0014112Y0071499D01*
X0014233Y0071601D01*
X0014356Y0071701D01*
X0014482Y0071797D01*
X0014610Y0071890D01*
X0014740Y0071980D01*
X0014873Y0072066D01*
X0015008Y0072150D01*
X0015144Y0072229D01*
X0015283Y0072306D01*
X0015424Y0072378D01*
X0015566Y0072448D01*
X0015710Y0072513D01*
X0015856Y0072575D01*
X0016003Y0072633D01*
X0016152Y0072688D01*
X0016302Y0072739D01*
X0016453Y0072786D01*
X0016605Y0072829D01*
X0016758Y0072868D01*
X0016913Y0072904D01*
X0017068Y0072935D01*
X0017224Y0072963D01*
X0017380Y0072987D01*
X0017537Y0073007D01*
X0017695Y0073023D01*
X0017852Y0073035D01*
X0018011Y0073043D01*
X0018169Y0073047D01*
X0018327Y0073047D01*
X0018485Y0073043D01*
X0018644Y0073035D01*
X0018801Y0073023D01*
X0018959Y0073007D01*
X0019116Y0072987D01*
X0019272Y0072963D01*
X0019428Y0072935D01*
X0019583Y0072904D01*
X0019738Y0072868D01*
X0019891Y0072829D01*
X0020043Y0072786D01*
X0020194Y0072739D01*
X0020344Y0072688D01*
X0020493Y0072633D01*
X0020640Y0072575D01*
X0020786Y0072513D01*
X0020930Y0072448D01*
X0021072Y0072378D01*
X0021213Y0072306D01*
X0021352Y0072229D01*
X0021488Y0072150D01*
X0021623Y0072066D01*
X0021756Y0071980D01*
X0021886Y0071890D01*
X0022014Y0071797D01*
X0022140Y0071701D01*
X0022263Y0071601D01*
X0022384Y0071499D01*
X0022502Y0071394D01*
X0022617Y0071285D01*
X0022730Y0071174D01*
X0022840Y0071060D01*
X0022947Y0070943D01*
X0023051Y0070824D01*
X0023152Y0070702D01*
X0023249Y0070577D01*
X0023344Y0070450D01*
X0023435Y0070321D01*
X0023524Y0070190D01*
X0023608Y0070056D01*
X0023690Y0069920D01*
X0023768Y0069783D01*
X0023842Y0069643D01*
X0023913Y0069501D01*
X0023981Y0069358D01*
X0024045Y0069213D01*
X0024105Y0069067D01*
X0024161Y0068919D01*
X0024214Y0068770D01*
X0024263Y0068619D01*
X0024308Y0068467D01*
X0024349Y0068314D01*
X0024387Y0068161D01*
X0024420Y0068006D01*
X0024450Y0067850D01*
X0024476Y0067694D01*
X0024497Y0067537D01*
X0024515Y0067380D01*
X0024529Y0067222D01*
X0024539Y0067064D01*
X0024545Y0066906D01*
X0024547Y0066748D01*
X0024545Y0066590D01*
X0024539Y0066432D01*
X0024529Y0066274D01*
X0024515Y0066116D01*
X0024497Y0065959D01*
X0024476Y0065802D01*
X0024450Y0065646D01*
X0024420Y0065490D01*
X0024387Y0065335D01*
X0024349Y0065182D01*
X0024308Y0065029D01*
X0024263Y0064877D01*
X0024214Y0064726D01*
X0024161Y0064577D01*
X0024105Y0064429D01*
X0024045Y0064283D01*
X0023981Y0064138D01*
X0023913Y0063995D01*
X0023842Y0063853D01*
X0023768Y0063713D01*
X0023690Y0063576D01*
X0023608Y0063440D01*
X0023524Y0063306D01*
X0023435Y0063175D01*
X0023344Y0063046D01*
X0023249Y0062919D01*
X0023152Y0062794D01*
X0023051Y0062672D01*
X0022947Y0062553D01*
X0022840Y0062436D01*
X0022730Y0062322D01*
X0022617Y0062211D01*
X0022502Y0062102D01*
X0022384Y0061997D01*
X0022263Y0061895D01*
X0022140Y0061795D01*
X0022014Y0061699D01*
X0021886Y0061606D01*
X0021756Y0061516D01*
X0021623Y0061430D01*
X0021488Y0061346D01*
X0021352Y0061267D01*
X0021213Y0061190D01*
X0021072Y0061118D01*
X0020930Y0061048D01*
X0020786Y0060983D01*
X0020640Y0060921D01*
X0020493Y0060863D01*
X0020344Y0060808D01*
X0020194Y0060757D01*
X0020043Y0060710D01*
X0019891Y0060667D01*
X0019738Y0060628D01*
X0019583Y0060592D01*
X0019428Y0060561D01*
X0019272Y0060533D01*
X0019116Y0060509D01*
X0018959Y0060489D01*
X0018801Y0060473D01*
X0018644Y0060461D01*
X0018485Y0060453D01*
X0018327Y0060449D01*
X0018169Y0060449D01*
X0018011Y0060453D01*
X0017852Y0060461D01*
X0017695Y0060473D01*
X0017537Y0060489D01*
X0017380Y0060509D01*
X0017224Y0060533D01*
X0017068Y0060561D01*
X0016913Y0060592D01*
X0016758Y0060628D01*
X0016605Y0060667D01*
X0016453Y0060710D01*
X0016302Y0060757D01*
X0016152Y0060808D01*
X0016003Y0060863D01*
X0015856Y0060921D01*
X0015710Y0060983D01*
X0015566Y0061048D01*
X0015424Y0061118D01*
X0015283Y0061190D01*
X0015144Y0061267D01*
X0015008Y0061346D01*
X0014873Y0061430D01*
X0014740Y0061516D01*
X0014610Y0061606D01*
X0014482Y0061699D01*
X0014356Y0061795D01*
X0014233Y0061895D01*
X0014112Y0061997D01*
X0013994Y0062102D01*
X0013879Y0062211D01*
X0013766Y0062322D01*
X0013656Y0062436D01*
X0013549Y0062553D01*
X0013445Y0062672D01*
X0013344Y0062794D01*
X0013247Y0062919D01*
X0013152Y0063046D01*
X0013061Y0063175D01*
X0012972Y0063306D01*
X0012888Y0063440D01*
X0012806Y0063576D01*
X0012728Y0063713D01*
X0012654Y0063853D01*
X0012583Y0063995D01*
X0012515Y0064138D01*
X0012451Y0064283D01*
X0012391Y0064429D01*
X0012335Y0064577D01*
X0012282Y0064726D01*
X0012233Y0064877D01*
X0012188Y0065029D01*
X0012147Y0065182D01*
X0012109Y0065335D01*
X0012076Y0065490D01*
X0012046Y0065646D01*
X0012020Y0065802D01*
X0011999Y0065959D01*
X0011981Y0066116D01*
X0011967Y0066274D01*
X0011957Y0066432D01*
X0011951Y0066590D01*
X0011949Y0066748D01*
X0033896Y0065410D02*
X0038100Y0065410D01*
X0038100Y0067212D02*
X0035298Y0067212D01*
X0033896Y0068613D01*
X0035298Y0070014D01*
X0038100Y0070014D01*
X0037399Y0071816D02*
X0038100Y0072516D01*
X0038100Y0073917D01*
X0037399Y0074618D01*
X0036699Y0074618D01*
X0035998Y0073917D01*
X0035998Y0072516D01*
X0035298Y0071816D01*
X0034597Y0071816D01*
X0033896Y0072516D01*
X0033896Y0073917D01*
X0034597Y0074618D01*
X0035298Y0076420D02*
X0035298Y0078521D01*
X0035998Y0079222D01*
X0038100Y0079222D01*
X0037399Y0081024D02*
X0035998Y0081024D01*
X0035298Y0081724D01*
X0035298Y0083125D01*
X0035998Y0083826D01*
X0036699Y0083826D01*
X0036699Y0081024D01*
X0037399Y0081024D02*
X0038100Y0081724D01*
X0038100Y0083125D01*
X0041896Y0080618D02*
X0046100Y0080618D01*
X0041896Y0077816D01*
X0046100Y0077816D01*
X0045399Y0076014D02*
X0046100Y0075314D01*
X0046100Y0073912D01*
X0045399Y0073212D01*
X0043998Y0073912D02*
X0043998Y0075314D01*
X0044699Y0076014D01*
X0045399Y0076014D01*
X0043998Y0073912D02*
X0043298Y0073212D01*
X0042597Y0073212D01*
X0041896Y0073912D01*
X0041896Y0075314D01*
X0042597Y0076014D01*
X0038100Y0076420D02*
X0035298Y0076420D01*
X0041896Y0071410D02*
X0041896Y0070009D01*
X0041896Y0070710D02*
X0045399Y0070710D01*
X0046100Y0070009D01*
X0046100Y0069308D01*
X0045399Y0068608D01*
X0045399Y0066806D02*
X0042597Y0066806D01*
X0045399Y0064004D01*
X0046100Y0064705D01*
X0046100Y0066106D01*
X0045399Y0066806D01*
X0042597Y0066806D02*
X0041896Y0066106D01*
X0041896Y0064705D01*
X0042597Y0064004D01*
X0045399Y0064004D01*
X0046100Y0062202D02*
X0041896Y0062202D01*
X0043298Y0060801D01*
X0041896Y0059400D01*
X0046100Y0059400D01*
X0038100Y0058004D02*
X0033896Y0058004D01*
X0033896Y0056202D02*
X0037399Y0056202D01*
X0038100Y0055502D01*
X0038100Y0054101D01*
X0037399Y0053400D01*
X0033896Y0053400D01*
X0036699Y0058004D02*
X0033896Y0060806D01*
X0033896Y0062608D02*
X0038100Y0062608D01*
X0038100Y0060806D02*
X0035998Y0058705D01*
X0035998Y0062608D02*
X0035998Y0065410D01*
X0035998Y0067212D02*
X0035998Y0070014D01*
X0035298Y0085627D02*
X0035298Y0087029D01*
X0034597Y0086328D02*
X0037399Y0086328D01*
X0038100Y0087029D01*
X0056878Y0107787D02*
X0056878Y0118811D01*
X0067902Y0118811D01*
X0067902Y0107787D01*
X0056878Y0107787D01*
X0058059Y0116449D02*
X0060421Y0116449D01*
X0060419Y0116516D01*
X0060413Y0116584D01*
X0060404Y0116650D01*
X0060390Y0116716D01*
X0060373Y0116782D01*
X0060352Y0116846D01*
X0060328Y0116909D01*
X0060300Y0116970D01*
X0060268Y0117030D01*
X0060234Y0117087D01*
X0060195Y0117143D01*
X0060154Y0117197D01*
X0060110Y0117248D01*
X0060063Y0117296D01*
X0060013Y0117342D01*
X0059961Y0117384D01*
X0059907Y0117424D01*
X0059850Y0117460D01*
X0059791Y0117494D01*
X0059731Y0117523D01*
X0059668Y0117550D01*
X0059605Y0117572D01*
X0059540Y0117591D01*
X0059475Y0117606D01*
X0059408Y0117618D01*
X0059341Y0117626D01*
X0059274Y0117630D01*
X0059206Y0117630D01*
X0059139Y0117626D01*
X0059072Y0117618D01*
X0059005Y0117606D01*
X0058940Y0117591D01*
X0058875Y0117572D01*
X0058812Y0117550D01*
X0058749Y0117523D01*
X0058689Y0117494D01*
X0058630Y0117460D01*
X0058573Y0117424D01*
X0058519Y0117384D01*
X0058467Y0117342D01*
X0058417Y0117296D01*
X0058370Y0117248D01*
X0058326Y0117197D01*
X0058285Y0117143D01*
X0058246Y0117087D01*
X0058212Y0117030D01*
X0058180Y0116970D01*
X0058152Y0116909D01*
X0058128Y0116846D01*
X0058107Y0116782D01*
X0058090Y0116716D01*
X0058076Y0116650D01*
X0058067Y0116584D01*
X0058061Y0116516D01*
X0058059Y0116449D01*
X0075900Y0104101D02*
X0076601Y0103400D01*
X0077301Y0103400D01*
X0078002Y0104101D01*
X0078002Y0107604D01*
X0078702Y0107604D02*
X0077301Y0107604D01*
X0079900Y0110101D02*
X0080601Y0109400D01*
X0082002Y0109400D01*
X0082702Y0110101D01*
X0082702Y0110801D01*
X0082002Y0111502D01*
X0080601Y0111502D01*
X0079900Y0112202D01*
X0079900Y0112903D01*
X0080601Y0113604D01*
X0082002Y0113604D01*
X0082702Y0112903D01*
X0084504Y0112903D02*
X0085205Y0113604D01*
X0086606Y0113604D01*
X0087306Y0112903D01*
X0087306Y0110101D01*
X0086606Y0109400D01*
X0085205Y0109400D01*
X0084504Y0110101D01*
X0084504Y0112903D01*
X0086601Y0116400D02*
X0087301Y0116400D01*
X0088002Y0117101D01*
X0088002Y0120604D01*
X0088702Y0120604D02*
X0087301Y0120604D01*
X0090504Y0119903D02*
X0090504Y0117101D01*
X0091205Y0116400D01*
X0092606Y0116400D01*
X0093306Y0117101D01*
X0093306Y0119903D01*
X0092606Y0120604D01*
X0091205Y0120604D01*
X0090504Y0119903D01*
X0095108Y0120604D02*
X0095108Y0116400D01*
X0097910Y0116400D02*
X0097910Y0120604D01*
X0095108Y0120604D02*
X0097910Y0116400D01*
X0096514Y0113604D02*
X0096514Y0109400D01*
X0096417Y0107604D02*
X0095016Y0107604D01*
X0094316Y0106903D01*
X0096417Y0107604D02*
X0097118Y0106903D01*
X0097118Y0106202D01*
X0094316Y0103400D01*
X0097118Y0103400D01*
X0098920Y0104101D02*
X0101722Y0106903D01*
X0101722Y0104101D01*
X0101021Y0103400D01*
X0099620Y0103400D01*
X0098920Y0104101D01*
X0098920Y0106903D01*
X0099620Y0107604D01*
X0101021Y0107604D01*
X0101722Y0106903D01*
X0103524Y0106202D02*
X0104925Y0107604D01*
X0104925Y0103400D01*
X0103524Y0103400D02*
X0106326Y0103400D01*
X0108127Y0104101D02*
X0108828Y0103400D01*
X0110229Y0103400D01*
X0110930Y0104101D01*
X0110930Y0104801D01*
X0110229Y0105502D01*
X0108127Y0105502D01*
X0108127Y0104101D01*
X0108127Y0105502D02*
X0109529Y0106903D01*
X0110930Y0107604D01*
X0105722Y0109400D02*
X0105722Y0113604D01*
X0102920Y0113604D02*
X0105722Y0109400D01*
X0102920Y0109400D02*
X0102920Y0113604D01*
X0101118Y0112202D02*
X0101118Y0109400D01*
X0101118Y0111502D02*
X0098316Y0111502D01*
X0098316Y0112202D02*
X0098316Y0109400D01*
X0098316Y0112202D02*
X0099717Y0113604D01*
X0101118Y0112202D01*
X0096514Y0113604D02*
X0095113Y0112202D01*
X0093712Y0113604D01*
X0093712Y0109400D01*
X0091910Y0109400D02*
X0091910Y0113604D01*
X0089108Y0113604D02*
X0089108Y0109400D01*
X0090509Y0110801D01*
X0091910Y0109400D01*
X0087910Y0105502D02*
X0087910Y0103400D01*
X0085108Y0103400D02*
X0085108Y0106202D01*
X0087210Y0106202D01*
X0087910Y0105502D01*
X0083306Y0105502D02*
X0083306Y0103400D01*
X0081205Y0103400D01*
X0080504Y0104101D01*
X0081205Y0104801D01*
X0083306Y0104801D01*
X0083306Y0105502D02*
X0082606Y0106202D01*
X0081205Y0106202D01*
X0086601Y0116400D02*
X0085900Y0117101D01*
X0011949Y0125803D02*
X0011951Y0125961D01*
X0011957Y0126119D01*
X0011967Y0126277D01*
X0011981Y0126435D01*
X0011999Y0126592D01*
X0012020Y0126749D01*
X0012046Y0126905D01*
X0012076Y0127061D01*
X0012109Y0127216D01*
X0012147Y0127369D01*
X0012188Y0127522D01*
X0012233Y0127674D01*
X0012282Y0127825D01*
X0012335Y0127974D01*
X0012391Y0128122D01*
X0012451Y0128268D01*
X0012515Y0128413D01*
X0012583Y0128556D01*
X0012654Y0128698D01*
X0012728Y0128838D01*
X0012806Y0128975D01*
X0012888Y0129111D01*
X0012972Y0129245D01*
X0013061Y0129376D01*
X0013152Y0129505D01*
X0013247Y0129632D01*
X0013344Y0129757D01*
X0013445Y0129879D01*
X0013549Y0129998D01*
X0013656Y0130115D01*
X0013766Y0130229D01*
X0013879Y0130340D01*
X0013994Y0130449D01*
X0014112Y0130554D01*
X0014233Y0130656D01*
X0014356Y0130756D01*
X0014482Y0130852D01*
X0014610Y0130945D01*
X0014740Y0131035D01*
X0014873Y0131121D01*
X0015008Y0131205D01*
X0015144Y0131284D01*
X0015283Y0131361D01*
X0015424Y0131433D01*
X0015566Y0131503D01*
X0015710Y0131568D01*
X0015856Y0131630D01*
X0016003Y0131688D01*
X0016152Y0131743D01*
X0016302Y0131794D01*
X0016453Y0131841D01*
X0016605Y0131884D01*
X0016758Y0131923D01*
X0016913Y0131959D01*
X0017068Y0131990D01*
X0017224Y0132018D01*
X0017380Y0132042D01*
X0017537Y0132062D01*
X0017695Y0132078D01*
X0017852Y0132090D01*
X0018011Y0132098D01*
X0018169Y0132102D01*
X0018327Y0132102D01*
X0018485Y0132098D01*
X0018644Y0132090D01*
X0018801Y0132078D01*
X0018959Y0132062D01*
X0019116Y0132042D01*
X0019272Y0132018D01*
X0019428Y0131990D01*
X0019583Y0131959D01*
X0019738Y0131923D01*
X0019891Y0131884D01*
X0020043Y0131841D01*
X0020194Y0131794D01*
X0020344Y0131743D01*
X0020493Y0131688D01*
X0020640Y0131630D01*
X0020786Y0131568D01*
X0020930Y0131503D01*
X0021072Y0131433D01*
X0021213Y0131361D01*
X0021352Y0131284D01*
X0021488Y0131205D01*
X0021623Y0131121D01*
X0021756Y0131035D01*
X0021886Y0130945D01*
X0022014Y0130852D01*
X0022140Y0130756D01*
X0022263Y0130656D01*
X0022384Y0130554D01*
X0022502Y0130449D01*
X0022617Y0130340D01*
X0022730Y0130229D01*
X0022840Y0130115D01*
X0022947Y0129998D01*
X0023051Y0129879D01*
X0023152Y0129757D01*
X0023249Y0129632D01*
X0023344Y0129505D01*
X0023435Y0129376D01*
X0023524Y0129245D01*
X0023608Y0129111D01*
X0023690Y0128975D01*
X0023768Y0128838D01*
X0023842Y0128698D01*
X0023913Y0128556D01*
X0023981Y0128413D01*
X0024045Y0128268D01*
X0024105Y0128122D01*
X0024161Y0127974D01*
X0024214Y0127825D01*
X0024263Y0127674D01*
X0024308Y0127522D01*
X0024349Y0127369D01*
X0024387Y0127216D01*
X0024420Y0127061D01*
X0024450Y0126905D01*
X0024476Y0126749D01*
X0024497Y0126592D01*
X0024515Y0126435D01*
X0024529Y0126277D01*
X0024539Y0126119D01*
X0024545Y0125961D01*
X0024547Y0125803D01*
X0024545Y0125645D01*
X0024539Y0125487D01*
X0024529Y0125329D01*
X0024515Y0125171D01*
X0024497Y0125014D01*
X0024476Y0124857D01*
X0024450Y0124701D01*
X0024420Y0124545D01*
X0024387Y0124390D01*
X0024349Y0124237D01*
X0024308Y0124084D01*
X0024263Y0123932D01*
X0024214Y0123781D01*
X0024161Y0123632D01*
X0024105Y0123484D01*
X0024045Y0123338D01*
X0023981Y0123193D01*
X0023913Y0123050D01*
X0023842Y0122908D01*
X0023768Y0122768D01*
X0023690Y0122631D01*
X0023608Y0122495D01*
X0023524Y0122361D01*
X0023435Y0122230D01*
X0023344Y0122101D01*
X0023249Y0121974D01*
X0023152Y0121849D01*
X0023051Y0121727D01*
X0022947Y0121608D01*
X0022840Y0121491D01*
X0022730Y0121377D01*
X0022617Y0121266D01*
X0022502Y0121157D01*
X0022384Y0121052D01*
X0022263Y0120950D01*
X0022140Y0120850D01*
X0022014Y0120754D01*
X0021886Y0120661D01*
X0021756Y0120571D01*
X0021623Y0120485D01*
X0021488Y0120401D01*
X0021352Y0120322D01*
X0021213Y0120245D01*
X0021072Y0120173D01*
X0020930Y0120103D01*
X0020786Y0120038D01*
X0020640Y0119976D01*
X0020493Y0119918D01*
X0020344Y0119863D01*
X0020194Y0119812D01*
X0020043Y0119765D01*
X0019891Y0119722D01*
X0019738Y0119683D01*
X0019583Y0119647D01*
X0019428Y0119616D01*
X0019272Y0119588D01*
X0019116Y0119564D01*
X0018959Y0119544D01*
X0018801Y0119528D01*
X0018644Y0119516D01*
X0018485Y0119508D01*
X0018327Y0119504D01*
X0018169Y0119504D01*
X0018011Y0119508D01*
X0017852Y0119516D01*
X0017695Y0119528D01*
X0017537Y0119544D01*
X0017380Y0119564D01*
X0017224Y0119588D01*
X0017068Y0119616D01*
X0016913Y0119647D01*
X0016758Y0119683D01*
X0016605Y0119722D01*
X0016453Y0119765D01*
X0016302Y0119812D01*
X0016152Y0119863D01*
X0016003Y0119918D01*
X0015856Y0119976D01*
X0015710Y0120038D01*
X0015566Y0120103D01*
X0015424Y0120173D01*
X0015283Y0120245D01*
X0015144Y0120322D01*
X0015008Y0120401D01*
X0014873Y0120485D01*
X0014740Y0120571D01*
X0014610Y0120661D01*
X0014482Y0120754D01*
X0014356Y0120850D01*
X0014233Y0120950D01*
X0014112Y0121052D01*
X0013994Y0121157D01*
X0013879Y0121266D01*
X0013766Y0121377D01*
X0013656Y0121491D01*
X0013549Y0121608D01*
X0013445Y0121727D01*
X0013344Y0121849D01*
X0013247Y0121974D01*
X0013152Y0122101D01*
X0013061Y0122230D01*
X0012972Y0122361D01*
X0012888Y0122495D01*
X0012806Y0122631D01*
X0012728Y0122768D01*
X0012654Y0122908D01*
X0012583Y0123050D01*
X0012515Y0123193D01*
X0012451Y0123338D01*
X0012391Y0123484D01*
X0012335Y0123632D01*
X0012282Y0123781D01*
X0012233Y0123932D01*
X0012188Y0124084D01*
X0012147Y0124237D01*
X0012109Y0124390D01*
X0012076Y0124545D01*
X0012046Y0124701D01*
X0012020Y0124857D01*
X0011999Y0125014D01*
X0011981Y0125171D01*
X0011967Y0125329D01*
X0011957Y0125487D01*
X0011951Y0125645D01*
X0011949Y0125803D01*
X0124500Y0062500D02*
X0124500Y0057500D01*
X0127000Y0055000D01*
X0132000Y0055000D01*
X0134500Y0057500D01*
X0137000Y0055000D01*
X0142000Y0055000D01*
X0144500Y0057500D01*
X0144500Y0062500D01*
X0142000Y0065000D01*
X0137000Y0065000D01*
X0134500Y0062500D01*
X0132000Y0065000D01*
X0127000Y0065000D01*
X0124500Y0062500D01*
X0157900Y0039202D02*
X0157900Y0037101D01*
X0158601Y0036400D01*
X0160702Y0036400D01*
X0160702Y0039202D01*
X0162504Y0037801D02*
X0164606Y0039202D01*
X0166341Y0038502D02*
X0167041Y0039202D01*
X0168442Y0039202D01*
X0169143Y0038502D01*
X0169143Y0036400D01*
X0170944Y0037101D02*
X0171645Y0037801D01*
X0173747Y0037801D01*
X0173747Y0038502D02*
X0173747Y0036400D01*
X0171645Y0036400D01*
X0170944Y0037101D01*
X0171645Y0039202D02*
X0173046Y0039202D01*
X0173747Y0038502D01*
X0175548Y0038502D02*
X0176249Y0037801D01*
X0177650Y0037801D01*
X0178351Y0037101D01*
X0177650Y0036400D01*
X0175548Y0036400D01*
X0175548Y0038502D02*
X0176249Y0039202D01*
X0178351Y0039202D01*
X0180152Y0037101D02*
X0180853Y0037101D01*
X0180853Y0036400D01*
X0180152Y0036400D01*
X0180152Y0037101D01*
X0182454Y0036400D02*
X0182454Y0039202D01*
X0184556Y0039202D01*
X0185257Y0038502D01*
X0185257Y0036400D01*
X0187058Y0037101D02*
X0187058Y0038502D01*
X0187759Y0039202D01*
X0189160Y0039202D01*
X0189861Y0038502D01*
X0189861Y0037801D01*
X0187058Y0037801D01*
X0187058Y0037101D02*
X0187759Y0036400D01*
X0189160Y0036400D01*
X0192363Y0037101D02*
X0192363Y0039903D01*
X0193063Y0039202D02*
X0191662Y0039202D01*
X0192363Y0037101D02*
X0193063Y0036400D01*
X0166341Y0036400D02*
X0166341Y0040604D01*
X0162504Y0040604D02*
X0162504Y0036400D01*
X0162504Y0037801D02*
X0164606Y0036400D01*
X0177303Y0066748D02*
X0177305Y0066906D01*
X0177311Y0067064D01*
X0177321Y0067222D01*
X0177335Y0067380D01*
X0177353Y0067537D01*
X0177374Y0067694D01*
X0177400Y0067850D01*
X0177430Y0068006D01*
X0177463Y0068161D01*
X0177501Y0068314D01*
X0177542Y0068467D01*
X0177587Y0068619D01*
X0177636Y0068770D01*
X0177689Y0068919D01*
X0177745Y0069067D01*
X0177805Y0069213D01*
X0177869Y0069358D01*
X0177937Y0069501D01*
X0178008Y0069643D01*
X0178082Y0069783D01*
X0178160Y0069920D01*
X0178242Y0070056D01*
X0178326Y0070190D01*
X0178415Y0070321D01*
X0178506Y0070450D01*
X0178601Y0070577D01*
X0178698Y0070702D01*
X0178799Y0070824D01*
X0178903Y0070943D01*
X0179010Y0071060D01*
X0179120Y0071174D01*
X0179233Y0071285D01*
X0179348Y0071394D01*
X0179466Y0071499D01*
X0179587Y0071601D01*
X0179710Y0071701D01*
X0179836Y0071797D01*
X0179964Y0071890D01*
X0180094Y0071980D01*
X0180227Y0072066D01*
X0180362Y0072150D01*
X0180498Y0072229D01*
X0180637Y0072306D01*
X0180778Y0072378D01*
X0180920Y0072448D01*
X0181064Y0072513D01*
X0181210Y0072575D01*
X0181357Y0072633D01*
X0181506Y0072688D01*
X0181656Y0072739D01*
X0181807Y0072786D01*
X0181959Y0072829D01*
X0182112Y0072868D01*
X0182267Y0072904D01*
X0182422Y0072935D01*
X0182578Y0072963D01*
X0182734Y0072987D01*
X0182891Y0073007D01*
X0183049Y0073023D01*
X0183206Y0073035D01*
X0183365Y0073043D01*
X0183523Y0073047D01*
X0183681Y0073047D01*
X0183839Y0073043D01*
X0183998Y0073035D01*
X0184155Y0073023D01*
X0184313Y0073007D01*
X0184470Y0072987D01*
X0184626Y0072963D01*
X0184782Y0072935D01*
X0184937Y0072904D01*
X0185092Y0072868D01*
X0185245Y0072829D01*
X0185397Y0072786D01*
X0185548Y0072739D01*
X0185698Y0072688D01*
X0185847Y0072633D01*
X0185994Y0072575D01*
X0186140Y0072513D01*
X0186284Y0072448D01*
X0186426Y0072378D01*
X0186567Y0072306D01*
X0186706Y0072229D01*
X0186842Y0072150D01*
X0186977Y0072066D01*
X0187110Y0071980D01*
X0187240Y0071890D01*
X0187368Y0071797D01*
X0187494Y0071701D01*
X0187617Y0071601D01*
X0187738Y0071499D01*
X0187856Y0071394D01*
X0187971Y0071285D01*
X0188084Y0071174D01*
X0188194Y0071060D01*
X0188301Y0070943D01*
X0188405Y0070824D01*
X0188506Y0070702D01*
X0188603Y0070577D01*
X0188698Y0070450D01*
X0188789Y0070321D01*
X0188878Y0070190D01*
X0188962Y0070056D01*
X0189044Y0069920D01*
X0189122Y0069783D01*
X0189196Y0069643D01*
X0189267Y0069501D01*
X0189335Y0069358D01*
X0189399Y0069213D01*
X0189459Y0069067D01*
X0189515Y0068919D01*
X0189568Y0068770D01*
X0189617Y0068619D01*
X0189662Y0068467D01*
X0189703Y0068314D01*
X0189741Y0068161D01*
X0189774Y0068006D01*
X0189804Y0067850D01*
X0189830Y0067694D01*
X0189851Y0067537D01*
X0189869Y0067380D01*
X0189883Y0067222D01*
X0189893Y0067064D01*
X0189899Y0066906D01*
X0189901Y0066748D01*
X0189899Y0066590D01*
X0189893Y0066432D01*
X0189883Y0066274D01*
X0189869Y0066116D01*
X0189851Y0065959D01*
X0189830Y0065802D01*
X0189804Y0065646D01*
X0189774Y0065490D01*
X0189741Y0065335D01*
X0189703Y0065182D01*
X0189662Y0065029D01*
X0189617Y0064877D01*
X0189568Y0064726D01*
X0189515Y0064577D01*
X0189459Y0064429D01*
X0189399Y0064283D01*
X0189335Y0064138D01*
X0189267Y0063995D01*
X0189196Y0063853D01*
X0189122Y0063713D01*
X0189044Y0063576D01*
X0188962Y0063440D01*
X0188878Y0063306D01*
X0188789Y0063175D01*
X0188698Y0063046D01*
X0188603Y0062919D01*
X0188506Y0062794D01*
X0188405Y0062672D01*
X0188301Y0062553D01*
X0188194Y0062436D01*
X0188084Y0062322D01*
X0187971Y0062211D01*
X0187856Y0062102D01*
X0187738Y0061997D01*
X0187617Y0061895D01*
X0187494Y0061795D01*
X0187368Y0061699D01*
X0187240Y0061606D01*
X0187110Y0061516D01*
X0186977Y0061430D01*
X0186842Y0061346D01*
X0186706Y0061267D01*
X0186567Y0061190D01*
X0186426Y0061118D01*
X0186284Y0061048D01*
X0186140Y0060983D01*
X0185994Y0060921D01*
X0185847Y0060863D01*
X0185698Y0060808D01*
X0185548Y0060757D01*
X0185397Y0060710D01*
X0185245Y0060667D01*
X0185092Y0060628D01*
X0184937Y0060592D01*
X0184782Y0060561D01*
X0184626Y0060533D01*
X0184470Y0060509D01*
X0184313Y0060489D01*
X0184155Y0060473D01*
X0183998Y0060461D01*
X0183839Y0060453D01*
X0183681Y0060449D01*
X0183523Y0060449D01*
X0183365Y0060453D01*
X0183206Y0060461D01*
X0183049Y0060473D01*
X0182891Y0060489D01*
X0182734Y0060509D01*
X0182578Y0060533D01*
X0182422Y0060561D01*
X0182267Y0060592D01*
X0182112Y0060628D01*
X0181959Y0060667D01*
X0181807Y0060710D01*
X0181656Y0060757D01*
X0181506Y0060808D01*
X0181357Y0060863D01*
X0181210Y0060921D01*
X0181064Y0060983D01*
X0180920Y0061048D01*
X0180778Y0061118D01*
X0180637Y0061190D01*
X0180498Y0061267D01*
X0180362Y0061346D01*
X0180227Y0061430D01*
X0180094Y0061516D01*
X0179964Y0061606D01*
X0179836Y0061699D01*
X0179710Y0061795D01*
X0179587Y0061895D01*
X0179466Y0061997D01*
X0179348Y0062102D01*
X0179233Y0062211D01*
X0179120Y0062322D01*
X0179010Y0062436D01*
X0178903Y0062553D01*
X0178799Y0062672D01*
X0178698Y0062794D01*
X0178601Y0062919D01*
X0178506Y0063046D01*
X0178415Y0063175D01*
X0178326Y0063306D01*
X0178242Y0063440D01*
X0178160Y0063576D01*
X0178082Y0063713D01*
X0178008Y0063853D01*
X0177937Y0063995D01*
X0177869Y0064138D01*
X0177805Y0064283D01*
X0177745Y0064429D01*
X0177689Y0064577D01*
X0177636Y0064726D01*
X0177587Y0064877D01*
X0177542Y0065029D01*
X0177501Y0065182D01*
X0177463Y0065335D01*
X0177430Y0065490D01*
X0177400Y0065646D01*
X0177374Y0065802D01*
X0177353Y0065959D01*
X0177335Y0066116D01*
X0177321Y0066274D01*
X0177311Y0066432D01*
X0177305Y0066590D01*
X0177303Y0066748D01*
X0168657Y0085157D02*
X0199465Y0085157D01*
X0199465Y0104843D01*
X0183618Y0104843D01*
X0172988Y0104843D02*
X0168657Y0104843D01*
X0168657Y0103661D01*
X0177303Y0125803D02*
X0177305Y0125961D01*
X0177311Y0126119D01*
X0177321Y0126277D01*
X0177335Y0126435D01*
X0177353Y0126592D01*
X0177374Y0126749D01*
X0177400Y0126905D01*
X0177430Y0127061D01*
X0177463Y0127216D01*
X0177501Y0127369D01*
X0177542Y0127522D01*
X0177587Y0127674D01*
X0177636Y0127825D01*
X0177689Y0127974D01*
X0177745Y0128122D01*
X0177805Y0128268D01*
X0177869Y0128413D01*
X0177937Y0128556D01*
X0178008Y0128698D01*
X0178082Y0128838D01*
X0178160Y0128975D01*
X0178242Y0129111D01*
X0178326Y0129245D01*
X0178415Y0129376D01*
X0178506Y0129505D01*
X0178601Y0129632D01*
X0178698Y0129757D01*
X0178799Y0129879D01*
X0178903Y0129998D01*
X0179010Y0130115D01*
X0179120Y0130229D01*
X0179233Y0130340D01*
X0179348Y0130449D01*
X0179466Y0130554D01*
X0179587Y0130656D01*
X0179710Y0130756D01*
X0179836Y0130852D01*
X0179964Y0130945D01*
X0180094Y0131035D01*
X0180227Y0131121D01*
X0180362Y0131205D01*
X0180498Y0131284D01*
X0180637Y0131361D01*
X0180778Y0131433D01*
X0180920Y0131503D01*
X0181064Y0131568D01*
X0181210Y0131630D01*
X0181357Y0131688D01*
X0181506Y0131743D01*
X0181656Y0131794D01*
X0181807Y0131841D01*
X0181959Y0131884D01*
X0182112Y0131923D01*
X0182267Y0131959D01*
X0182422Y0131990D01*
X0182578Y0132018D01*
X0182734Y0132042D01*
X0182891Y0132062D01*
X0183049Y0132078D01*
X0183206Y0132090D01*
X0183365Y0132098D01*
X0183523Y0132102D01*
X0183681Y0132102D01*
X0183839Y0132098D01*
X0183998Y0132090D01*
X0184155Y0132078D01*
X0184313Y0132062D01*
X0184470Y0132042D01*
X0184626Y0132018D01*
X0184782Y0131990D01*
X0184937Y0131959D01*
X0185092Y0131923D01*
X0185245Y0131884D01*
X0185397Y0131841D01*
X0185548Y0131794D01*
X0185698Y0131743D01*
X0185847Y0131688D01*
X0185994Y0131630D01*
X0186140Y0131568D01*
X0186284Y0131503D01*
X0186426Y0131433D01*
X0186567Y0131361D01*
X0186706Y0131284D01*
X0186842Y0131205D01*
X0186977Y0131121D01*
X0187110Y0131035D01*
X0187240Y0130945D01*
X0187368Y0130852D01*
X0187494Y0130756D01*
X0187617Y0130656D01*
X0187738Y0130554D01*
X0187856Y0130449D01*
X0187971Y0130340D01*
X0188084Y0130229D01*
X0188194Y0130115D01*
X0188301Y0129998D01*
X0188405Y0129879D01*
X0188506Y0129757D01*
X0188603Y0129632D01*
X0188698Y0129505D01*
X0188789Y0129376D01*
X0188878Y0129245D01*
X0188962Y0129111D01*
X0189044Y0128975D01*
X0189122Y0128838D01*
X0189196Y0128698D01*
X0189267Y0128556D01*
X0189335Y0128413D01*
X0189399Y0128268D01*
X0189459Y0128122D01*
X0189515Y0127974D01*
X0189568Y0127825D01*
X0189617Y0127674D01*
X0189662Y0127522D01*
X0189703Y0127369D01*
X0189741Y0127216D01*
X0189774Y0127061D01*
X0189804Y0126905D01*
X0189830Y0126749D01*
X0189851Y0126592D01*
X0189869Y0126435D01*
X0189883Y0126277D01*
X0189893Y0126119D01*
X0189899Y0125961D01*
X0189901Y0125803D01*
X0189899Y0125645D01*
X0189893Y0125487D01*
X0189883Y0125329D01*
X0189869Y0125171D01*
X0189851Y0125014D01*
X0189830Y0124857D01*
X0189804Y0124701D01*
X0189774Y0124545D01*
X0189741Y0124390D01*
X0189703Y0124237D01*
X0189662Y0124084D01*
X0189617Y0123932D01*
X0189568Y0123781D01*
X0189515Y0123632D01*
X0189459Y0123484D01*
X0189399Y0123338D01*
X0189335Y0123193D01*
X0189267Y0123050D01*
X0189196Y0122908D01*
X0189122Y0122768D01*
X0189044Y0122631D01*
X0188962Y0122495D01*
X0188878Y0122361D01*
X0188789Y0122230D01*
X0188698Y0122101D01*
X0188603Y0121974D01*
X0188506Y0121849D01*
X0188405Y0121727D01*
X0188301Y0121608D01*
X0188194Y0121491D01*
X0188084Y0121377D01*
X0187971Y0121266D01*
X0187856Y0121157D01*
X0187738Y0121052D01*
X0187617Y0120950D01*
X0187494Y0120850D01*
X0187368Y0120754D01*
X0187240Y0120661D01*
X0187110Y0120571D01*
X0186977Y0120485D01*
X0186842Y0120401D01*
X0186706Y0120322D01*
X0186567Y0120245D01*
X0186426Y0120173D01*
X0186284Y0120103D01*
X0186140Y0120038D01*
X0185994Y0119976D01*
X0185847Y0119918D01*
X0185698Y0119863D01*
X0185548Y0119812D01*
X0185397Y0119765D01*
X0185245Y0119722D01*
X0185092Y0119683D01*
X0184937Y0119647D01*
X0184782Y0119616D01*
X0184626Y0119588D01*
X0184470Y0119564D01*
X0184313Y0119544D01*
X0184155Y0119528D01*
X0183998Y0119516D01*
X0183839Y0119508D01*
X0183681Y0119504D01*
X0183523Y0119504D01*
X0183365Y0119508D01*
X0183206Y0119516D01*
X0183049Y0119528D01*
X0182891Y0119544D01*
X0182734Y0119564D01*
X0182578Y0119588D01*
X0182422Y0119616D01*
X0182267Y0119647D01*
X0182112Y0119683D01*
X0181959Y0119722D01*
X0181807Y0119765D01*
X0181656Y0119812D01*
X0181506Y0119863D01*
X0181357Y0119918D01*
X0181210Y0119976D01*
X0181064Y0120038D01*
X0180920Y0120103D01*
X0180778Y0120173D01*
X0180637Y0120245D01*
X0180498Y0120322D01*
X0180362Y0120401D01*
X0180227Y0120485D01*
X0180094Y0120571D01*
X0179964Y0120661D01*
X0179836Y0120754D01*
X0179710Y0120850D01*
X0179587Y0120950D01*
X0179466Y0121052D01*
X0179348Y0121157D01*
X0179233Y0121266D01*
X0179120Y0121377D01*
X0179010Y0121491D01*
X0178903Y0121608D01*
X0178799Y0121727D01*
X0178698Y0121849D01*
X0178601Y0121974D01*
X0178506Y0122101D01*
X0178415Y0122230D01*
X0178326Y0122361D01*
X0178242Y0122495D01*
X0178160Y0122631D01*
X0178082Y0122768D01*
X0178008Y0122908D01*
X0177937Y0123050D01*
X0177869Y0123193D01*
X0177805Y0123338D01*
X0177745Y0123484D01*
X0177689Y0123632D01*
X0177636Y0123781D01*
X0177587Y0123932D01*
X0177542Y0124084D01*
X0177501Y0124237D01*
X0177463Y0124390D01*
X0177430Y0124545D01*
X0177400Y0124701D01*
X0177374Y0124857D01*
X0177353Y0125014D01*
X0177335Y0125171D01*
X0177321Y0125329D01*
X0177311Y0125487D01*
X0177305Y0125645D01*
X0177303Y0125803D01*
D12*
X0015406Y0002047D02*
X0003594Y0002047D01*
X0003594Y0007953D01*
X0015406Y0007953D01*
X0015406Y0002047D01*
X0015406Y0014047D02*
X0003594Y0014047D01*
X0003594Y0019953D01*
X0015406Y0019953D01*
X0015406Y0014047D01*
X0015406Y0026047D02*
X0003594Y0026047D01*
X0003594Y0031953D01*
X0015406Y0031953D01*
X0015406Y0026047D01*
X0015406Y0038047D02*
X0003594Y0038047D01*
X0003594Y0043953D01*
X0015406Y0043953D01*
X0015406Y0038047D01*
X0051547Y0072094D02*
X0057453Y0072094D01*
X0057453Y0083906D01*
X0051547Y0083906D01*
X0051547Y0072094D01*
X0059547Y0072094D02*
X0065453Y0072094D01*
X0065453Y0083906D01*
X0059547Y0083906D01*
X0059547Y0072094D01*
X0067547Y0072094D02*
X0073453Y0072094D01*
X0073453Y0083906D01*
X0067547Y0083906D01*
X0067547Y0072094D01*
X0080547Y0066906D02*
X0080547Y0055094D01*
X0086453Y0055094D01*
X0086453Y0066906D01*
X0080547Y0066906D01*
X0073453Y0089094D02*
X0067547Y0089094D01*
X0067547Y0100906D01*
X0073453Y0100906D01*
X0073453Y0089094D01*
X0065374Y0088976D02*
X0059626Y0088976D01*
X0059626Y0101024D01*
X0065374Y0101024D01*
X0065374Y0088976D01*
X0057453Y0089094D02*
X0057453Y0100906D01*
X0051547Y0100906D01*
X0051547Y0089094D01*
X0057453Y0089094D01*
X0037343Y0093294D02*
X0037343Y0105105D01*
X0031437Y0105105D01*
X0031437Y0093294D01*
X0037343Y0093294D01*
X0029343Y0093394D02*
X0023437Y0093394D01*
X0023437Y0105205D01*
X0029343Y0105205D01*
X0029343Y0093394D01*
X0032484Y0105346D02*
X0044295Y0105346D01*
X0044295Y0111252D01*
X0032484Y0111252D01*
X0032484Y0105346D01*
X0038437Y0118394D02*
X0044343Y0118394D01*
X0044343Y0130205D01*
X0038437Y0130205D01*
X0038437Y0118394D01*
X0046453Y0124394D02*
X0052358Y0124394D01*
X0052358Y0136205D01*
X0046453Y0136205D01*
X0046453Y0124394D01*
X0113547Y0109906D02*
X0113547Y0098094D01*
X0119453Y0098094D01*
X0119453Y0109906D01*
X0113547Y0109906D01*
X0123547Y0109906D02*
X0123547Y0098094D01*
X0129453Y0098094D01*
X0129453Y0109906D01*
X0123547Y0109906D01*
X0133547Y0109906D02*
X0139453Y0109906D01*
X0139453Y0098094D01*
X0133547Y0098094D01*
X0133547Y0109906D01*
X0143547Y0109906D02*
X0149453Y0109906D01*
X0149453Y0098094D01*
X0143547Y0098094D01*
X0143547Y0109906D01*
X0153547Y0109906D02*
X0153547Y0098094D01*
X0159453Y0098094D01*
X0159453Y0109906D01*
X0153547Y0109906D01*
X0141453Y0086906D02*
X0135547Y0086906D01*
X0135547Y0075094D01*
X0141453Y0075094D01*
X0141453Y0086906D01*
X0132453Y0086906D02*
X0126547Y0086906D01*
X0126547Y0075094D01*
X0132453Y0075094D01*
X0132453Y0086906D01*
X0123453Y0086906D02*
X0117547Y0086906D01*
X0117547Y0075094D01*
X0123453Y0075094D01*
X0123453Y0086906D01*
D13*
X0122759Y0087927D02*
X0122292Y0087460D01*
X0121358Y0087460D01*
X0120891Y0087927D01*
X0120891Y0088394D01*
X0121358Y0088862D01*
X0122292Y0088862D01*
X0122759Y0088394D01*
X0122759Y0087927D01*
X0122292Y0088862D02*
X0122759Y0089329D01*
X0122759Y0089796D01*
X0122292Y0090263D01*
X0121358Y0090263D01*
X0120891Y0089796D01*
X0120891Y0089329D01*
X0121358Y0088862D01*
X0119813Y0088862D02*
X0119346Y0088394D01*
X0117944Y0088394D01*
X0117944Y0087460D02*
X0117944Y0090263D01*
X0119346Y0090263D01*
X0119813Y0089796D01*
X0119813Y0088862D01*
X0118879Y0088394D02*
X0119813Y0087460D01*
X0126944Y0087460D02*
X0126944Y0090263D01*
X0128346Y0090263D01*
X0128813Y0089796D01*
X0128813Y0088862D01*
X0128346Y0088394D01*
X0126944Y0088394D01*
X0127879Y0088394D02*
X0128813Y0087460D01*
X0129891Y0087460D02*
X0129891Y0087927D01*
X0131759Y0089796D01*
X0131759Y0090263D01*
X0129891Y0090263D01*
X0134998Y0089796D02*
X0134998Y0087927D01*
X0135465Y0087460D01*
X0136399Y0087460D01*
X0136866Y0087927D01*
X0137944Y0087460D02*
X0139813Y0087460D01*
X0138879Y0087460D02*
X0138879Y0090263D01*
X0137944Y0089329D01*
X0136866Y0089796D02*
X0136399Y0090263D01*
X0135465Y0090263D01*
X0134998Y0089796D01*
X0140891Y0089796D02*
X0141358Y0090263D01*
X0142292Y0090263D01*
X0142759Y0089796D01*
X0142759Y0089329D01*
X0142292Y0088862D01*
X0142759Y0088394D01*
X0142759Y0087927D01*
X0142292Y0087460D01*
X0141358Y0087460D01*
X0140891Y0087927D01*
X0141825Y0088862D02*
X0142292Y0088862D01*
X0144411Y0110460D02*
X0145346Y0110460D01*
X0145813Y0110927D01*
X0146891Y0110460D02*
X0148759Y0110460D01*
X0147825Y0110460D02*
X0147825Y0113263D01*
X0146891Y0112329D01*
X0145813Y0112796D02*
X0145346Y0113263D01*
X0144411Y0113263D01*
X0143944Y0112796D01*
X0143944Y0110927D01*
X0144411Y0110460D01*
X0138759Y0110927D02*
X0138759Y0111394D01*
X0138292Y0111862D01*
X0136891Y0111862D01*
X0136891Y0110927D01*
X0137358Y0110460D01*
X0138292Y0110460D01*
X0138759Y0110927D01*
X0136891Y0111862D02*
X0137825Y0112796D01*
X0138759Y0113263D01*
X0135813Y0112796D02*
X0135813Y0111862D01*
X0135346Y0111394D01*
X0133944Y0111394D01*
X0133944Y0110460D02*
X0133944Y0113263D01*
X0135346Y0113263D01*
X0135813Y0112796D01*
X0134879Y0111394D02*
X0135813Y0110460D01*
X0128759Y0110927D02*
X0128292Y0110460D01*
X0127358Y0110460D01*
X0126891Y0110927D01*
X0125813Y0110460D02*
X0124879Y0111394D01*
X0125346Y0111394D02*
X0123944Y0111394D01*
X0123944Y0110460D02*
X0123944Y0113263D01*
X0125346Y0113263D01*
X0125813Y0112796D01*
X0125813Y0111862D01*
X0125346Y0111394D01*
X0126891Y0112796D02*
X0127358Y0113263D01*
X0128292Y0113263D01*
X0128759Y0112796D01*
X0128759Y0112329D01*
X0128292Y0111862D01*
X0128759Y0111394D01*
X0128759Y0110927D01*
X0128292Y0111862D02*
X0127825Y0111862D01*
X0118759Y0112329D02*
X0118759Y0112796D01*
X0118292Y0113263D01*
X0117358Y0113263D01*
X0116891Y0112796D01*
X0115813Y0112796D02*
X0115813Y0111862D01*
X0115346Y0111394D01*
X0113944Y0111394D01*
X0113944Y0110460D02*
X0113944Y0113263D01*
X0115346Y0113263D01*
X0115813Y0112796D01*
X0114879Y0111394D02*
X0115813Y0110460D01*
X0116891Y0110460D02*
X0118759Y0112329D01*
X0118759Y0110460D02*
X0116891Y0110460D01*
X0153944Y0110460D02*
X0153944Y0113263D01*
X0155346Y0113263D01*
X0155813Y0112796D01*
X0155813Y0111862D01*
X0155346Y0111394D01*
X0153944Y0111394D01*
X0154879Y0111394D02*
X0155813Y0110460D01*
X0156891Y0110460D02*
X0158759Y0110460D01*
X0157825Y0110460D02*
X0157825Y0113263D01*
X0156891Y0112329D01*
X0211084Y0160300D02*
X0211084Y0165104D01*
X0210484Y0164504D02*
X0211685Y0164504D01*
X0212285Y0163903D01*
X0213566Y0163903D02*
X0214167Y0164504D01*
X0215368Y0164504D01*
X0215968Y0163903D01*
X0215968Y0163303D01*
X0213566Y0160901D01*
X0215968Y0160901D01*
X0212285Y0161501D02*
X0212285Y0162102D01*
X0211685Y0162702D01*
X0210484Y0162702D01*
X0209883Y0163303D01*
X0209883Y0163903D01*
X0210484Y0164504D01*
X0208602Y0164504D02*
X0208602Y0161501D01*
X0208002Y0160901D01*
X0206801Y0160901D01*
X0206200Y0161501D01*
X0206200Y0164504D01*
X0209883Y0161501D02*
X0210484Y0160901D01*
X0211685Y0160901D01*
X0212285Y0161501D01*
X0085759Y0069796D02*
X0085292Y0070263D01*
X0084358Y0070263D01*
X0083891Y0069796D01*
X0082813Y0069796D02*
X0082346Y0070263D01*
X0081411Y0070263D01*
X0080944Y0069796D01*
X0080944Y0067927D01*
X0081411Y0067460D01*
X0082346Y0067460D01*
X0082813Y0067927D01*
X0083891Y0067460D02*
X0085759Y0069329D01*
X0085759Y0069796D01*
X0085759Y0067460D02*
X0083891Y0067460D01*
X0072292Y0084460D02*
X0071358Y0084460D01*
X0070891Y0084927D01*
X0070891Y0085862D02*
X0071825Y0086329D01*
X0072292Y0086329D01*
X0072759Y0085862D01*
X0072759Y0084927D01*
X0072292Y0084460D01*
X0070891Y0085862D02*
X0070891Y0087263D01*
X0072759Y0087263D01*
X0069813Y0086796D02*
X0069813Y0085862D01*
X0069346Y0085394D01*
X0067944Y0085394D01*
X0067944Y0084460D02*
X0067944Y0087263D01*
X0069346Y0087263D01*
X0069813Y0086796D01*
X0068879Y0085394D02*
X0069813Y0084460D01*
X0064759Y0085862D02*
X0062891Y0085862D01*
X0064292Y0087263D01*
X0064292Y0084460D01*
X0061813Y0084460D02*
X0060879Y0085394D01*
X0061346Y0085394D02*
X0059944Y0085394D01*
X0059944Y0084460D02*
X0059944Y0087263D01*
X0061346Y0087263D01*
X0061813Y0086796D01*
X0061813Y0085862D01*
X0061346Y0085394D01*
X0056759Y0085862D02*
X0054891Y0085862D01*
X0056292Y0087263D01*
X0056292Y0084460D01*
X0053813Y0084927D02*
X0053346Y0084460D01*
X0052411Y0084460D01*
X0051944Y0084927D01*
X0051944Y0086796D01*
X0052411Y0087263D01*
X0053346Y0087263D01*
X0053813Y0086796D01*
X0037058Y0090038D02*
X0037058Y0090505D01*
X0036591Y0090972D01*
X0035190Y0090972D01*
X0035190Y0090038D01*
X0035657Y0089571D01*
X0036591Y0089571D01*
X0037058Y0090038D01*
X0036124Y0091906D02*
X0035190Y0090972D01*
X0036124Y0091906D02*
X0037058Y0092373D01*
X0034112Y0091906D02*
X0033645Y0092373D01*
X0032711Y0092373D01*
X0032244Y0091906D01*
X0032244Y0090038D01*
X0032711Y0089571D01*
X0033645Y0089571D01*
X0034112Y0090038D01*
X0028560Y0089817D02*
X0028093Y0089350D01*
X0027159Y0089350D01*
X0026692Y0089817D01*
X0026692Y0090751D02*
X0027626Y0091218D01*
X0028093Y0091218D01*
X0028560Y0090751D01*
X0028560Y0089817D01*
X0026692Y0090751D02*
X0026692Y0092152D01*
X0028560Y0092152D01*
X0025613Y0091685D02*
X0025146Y0092152D01*
X0024212Y0092152D01*
X0023745Y0091685D01*
X0023745Y0089817D01*
X0024212Y0089350D01*
X0025146Y0089350D01*
X0025613Y0089817D01*
X0039452Y0102506D02*
X0039919Y0102039D01*
X0040854Y0102039D01*
X0041321Y0102506D01*
X0042399Y0102506D02*
X0042866Y0102039D01*
X0043800Y0102039D01*
X0044267Y0102506D01*
X0044267Y0104374D01*
X0043800Y0104841D01*
X0042866Y0104841D01*
X0042399Y0104374D01*
X0042399Y0103907D01*
X0042866Y0103440D01*
X0044267Y0103440D01*
X0046700Y0102700D02*
X0048568Y0102700D01*
X0049647Y0102700D02*
X0051515Y0104568D01*
X0051515Y0105035D01*
X0051048Y0105502D01*
X0050114Y0105502D01*
X0049647Y0105035D01*
X0049647Y0102700D02*
X0051515Y0102700D01*
X0052944Y0101927D02*
X0053411Y0101460D01*
X0054346Y0101460D01*
X0054813Y0101927D01*
X0055891Y0101927D02*
X0055891Y0101460D01*
X0055891Y0101927D02*
X0057759Y0103796D01*
X0057759Y0104263D01*
X0055891Y0104263D01*
X0054813Y0103796D02*
X0054346Y0104263D01*
X0053411Y0104263D01*
X0052944Y0103796D01*
X0052944Y0101927D01*
X0046700Y0102700D02*
X0046700Y0105502D01*
X0041321Y0104374D02*
X0040854Y0104841D01*
X0039919Y0104841D01*
X0039452Y0104374D01*
X0039452Y0102506D01*
X0030512Y0111766D02*
X0030044Y0111299D01*
X0029110Y0111299D01*
X0028643Y0111766D01*
X0027565Y0111299D02*
X0025697Y0111299D01*
X0025697Y0114102D01*
X0028643Y0113635D02*
X0029110Y0114102D01*
X0030044Y0114102D01*
X0030512Y0113635D01*
X0030512Y0113167D01*
X0030044Y0112700D01*
X0030512Y0112233D01*
X0030512Y0111766D01*
X0030044Y0112700D02*
X0029577Y0112700D01*
X0031697Y0116299D02*
X0033565Y0116299D01*
X0034643Y0117700D02*
X0036512Y0117700D01*
X0036044Y0116299D02*
X0036044Y0119102D01*
X0034643Y0117700D01*
X0031697Y0119102D02*
X0031697Y0116299D01*
X0034594Y0123797D02*
X0036462Y0123797D01*
X0036929Y0124264D01*
X0036929Y0125198D01*
X0036462Y0125665D01*
X0036929Y0126744D02*
X0036929Y0128612D01*
X0036929Y0127678D02*
X0034127Y0127678D01*
X0035061Y0126744D01*
X0034594Y0125665D02*
X0034127Y0125198D01*
X0034127Y0124264D01*
X0034594Y0123797D01*
X0035061Y0129690D02*
X0034127Y0130624D01*
X0036929Y0130624D01*
X0036929Y0129690D02*
X0036929Y0131558D01*
X0043763Y0137612D02*
X0044230Y0137145D01*
X0045165Y0137145D01*
X0045632Y0137612D01*
X0046710Y0137145D02*
X0048578Y0137145D01*
X0047644Y0137145D02*
X0047644Y0139948D01*
X0046710Y0139013D01*
X0045632Y0139481D02*
X0045165Y0139948D01*
X0044230Y0139948D01*
X0043763Y0139481D01*
X0043763Y0137612D01*
X0049656Y0137145D02*
X0051525Y0139013D01*
X0051525Y0139481D01*
X0051058Y0139948D01*
X0050123Y0139948D01*
X0049656Y0139481D01*
X0049656Y0137145D02*
X0051525Y0137145D01*
X0050807Y0122302D02*
X0050807Y0119500D01*
X0052675Y0119500D01*
X0053753Y0119967D02*
X0054221Y0119500D01*
X0055155Y0119500D01*
X0055622Y0119967D01*
X0055622Y0120901D01*
X0055155Y0121368D01*
X0054688Y0121368D01*
X0053753Y0120901D01*
X0053753Y0122302D01*
X0055622Y0122302D01*
X0060565Y0104376D02*
X0060565Y0101574D01*
X0062433Y0101574D01*
X0063512Y0101574D02*
X0065380Y0101574D01*
X0064446Y0101574D02*
X0064446Y0104376D01*
X0063512Y0103442D01*
X0068944Y0103796D02*
X0068944Y0101927D01*
X0069411Y0101460D01*
X0070346Y0101460D01*
X0070813Y0101927D01*
X0071891Y0101927D02*
X0071891Y0102394D01*
X0072358Y0102862D01*
X0073292Y0102862D01*
X0073759Y0102394D01*
X0073759Y0101927D01*
X0073292Y0101460D01*
X0072358Y0101460D01*
X0071891Y0101927D01*
X0072358Y0102862D02*
X0071891Y0103329D01*
X0071891Y0103796D01*
X0072358Y0104263D01*
X0073292Y0104263D01*
X0073759Y0103796D01*
X0073759Y0103329D01*
X0073292Y0102862D01*
X0070813Y0103796D02*
X0070346Y0104263D01*
X0069411Y0104263D01*
X0068944Y0103796D01*
X0008377Y0047075D02*
X0007910Y0047542D01*
X0006976Y0047542D01*
X0006509Y0047075D01*
X0006509Y0046608D01*
X0006976Y0046141D01*
X0008377Y0046141D01*
X0008377Y0045207D02*
X0008377Y0047075D01*
X0008377Y0045207D02*
X0007910Y0044740D01*
X0006976Y0044740D01*
X0006509Y0045207D01*
X0005431Y0044740D02*
X0004497Y0045674D01*
X0004964Y0045674D02*
X0003563Y0045674D01*
X0003563Y0044740D02*
X0003563Y0047542D01*
X0004964Y0047542D01*
X0005431Y0047075D01*
X0005431Y0046141D01*
X0004964Y0045674D01*
X0004964Y0035542D02*
X0003563Y0035542D01*
X0003563Y0032740D01*
X0003563Y0033674D02*
X0004964Y0033674D01*
X0005431Y0034141D01*
X0005431Y0035075D01*
X0004964Y0035542D01*
X0006509Y0034608D02*
X0007443Y0035542D01*
X0007443Y0032740D01*
X0006509Y0032740D02*
X0008377Y0032740D01*
X0009456Y0033207D02*
X0011324Y0035075D01*
X0011324Y0033207D01*
X0010857Y0032740D01*
X0009923Y0032740D01*
X0009456Y0033207D01*
X0009456Y0035075D01*
X0009923Y0035542D01*
X0010857Y0035542D01*
X0011324Y0035075D01*
X0005431Y0032740D02*
X0004497Y0033674D01*
X0004964Y0023542D02*
X0004030Y0023542D01*
X0003563Y0023075D01*
X0003563Y0021207D01*
X0004030Y0020740D01*
X0004964Y0020740D01*
X0005431Y0021207D01*
X0006509Y0021207D02*
X0006976Y0020740D01*
X0007910Y0020740D01*
X0008377Y0021207D01*
X0008377Y0021674D01*
X0007910Y0022141D01*
X0007443Y0022141D01*
X0007910Y0022141D02*
X0008377Y0022608D01*
X0008377Y0023075D01*
X0007910Y0023542D01*
X0006976Y0023542D01*
X0006509Y0023075D01*
X0005431Y0023075D02*
X0004964Y0023542D01*
X0004964Y0011542D02*
X0004030Y0011542D01*
X0003563Y0011075D01*
X0003563Y0009207D01*
X0004030Y0008740D01*
X0004964Y0008740D01*
X0005431Y0009207D01*
X0006509Y0008740D02*
X0008377Y0008740D01*
X0007443Y0008740D02*
X0007443Y0011542D01*
X0006509Y0010608D01*
X0005431Y0011075D02*
X0004964Y0011542D01*
X0009456Y0011075D02*
X0009456Y0009207D01*
X0011324Y0011075D01*
X0011324Y0009207D01*
X0010857Y0008740D01*
X0009923Y0008740D01*
X0009456Y0009207D01*
X0009456Y0011075D02*
X0009923Y0011542D01*
X0010857Y0011542D01*
X0011324Y0011075D01*
D14*
X0054898Y0071874D02*
X0054900Y0071927D01*
X0054906Y0071979D01*
X0054916Y0072031D01*
X0054930Y0072082D01*
X0054947Y0072131D01*
X0054969Y0072179D01*
X0054993Y0072226D01*
X0055022Y0072270D01*
X0055053Y0072312D01*
X0055088Y0072352D01*
X0055126Y0072389D01*
X0055166Y0072423D01*
X0055209Y0072454D01*
X0055254Y0072481D01*
X0055301Y0072505D01*
X0055349Y0072525D01*
X0055399Y0072542D01*
X0055450Y0072555D01*
X0055502Y0072564D01*
X0055555Y0072569D01*
X0055607Y0072570D01*
X0055660Y0072567D01*
X0055712Y0072560D01*
X0055764Y0072549D01*
X0055814Y0072534D01*
X0055863Y0072516D01*
X0055911Y0072494D01*
X0055957Y0072468D01*
X0056001Y0072439D01*
X0056043Y0072406D01*
X0056081Y0072371D01*
X0056118Y0072332D01*
X0056151Y0072292D01*
X0056181Y0072248D01*
X0056207Y0072203D01*
X0056231Y0072155D01*
X0056250Y0072107D01*
X0056266Y0072056D01*
X0056278Y0072005D01*
X0056286Y0071953D01*
X0056290Y0071900D01*
X0056290Y0071848D01*
X0056286Y0071795D01*
X0056278Y0071743D01*
X0056266Y0071692D01*
X0056250Y0071641D01*
X0056231Y0071593D01*
X0056207Y0071545D01*
X0056181Y0071500D01*
X0056151Y0071456D01*
X0056118Y0071416D01*
X0056081Y0071377D01*
X0056043Y0071342D01*
X0056001Y0071309D01*
X0055957Y0071280D01*
X0055911Y0071254D01*
X0055863Y0071232D01*
X0055814Y0071214D01*
X0055764Y0071199D01*
X0055712Y0071188D01*
X0055660Y0071181D01*
X0055607Y0071178D01*
X0055555Y0071179D01*
X0055502Y0071184D01*
X0055450Y0071193D01*
X0055399Y0071206D01*
X0055349Y0071223D01*
X0055301Y0071243D01*
X0055254Y0071267D01*
X0055209Y0071294D01*
X0055166Y0071325D01*
X0055126Y0071359D01*
X0055088Y0071396D01*
X0055053Y0071436D01*
X0055022Y0071478D01*
X0054993Y0071522D01*
X0054969Y0071569D01*
X0054947Y0071617D01*
X0054930Y0071666D01*
X0054916Y0071717D01*
X0054906Y0071769D01*
X0054900Y0071821D01*
X0054898Y0071874D01*
X0063500Y0123500D02*
X0087500Y0123500D01*
X0087707Y0123503D01*
X0087914Y0123510D01*
X0088120Y0123523D01*
X0088327Y0123540D01*
X0088532Y0123563D01*
X0088738Y0123591D01*
X0088942Y0123623D01*
X0089146Y0123661D01*
X0089348Y0123703D01*
X0089550Y0123751D01*
X0089750Y0123803D01*
X0089949Y0123860D01*
X0090146Y0123922D01*
X0090342Y0123989D01*
X0090536Y0124061D01*
X0090729Y0124137D01*
X0090919Y0124218D01*
X0091108Y0124304D01*
X0091294Y0124394D01*
X0091478Y0124488D01*
X0091660Y0124588D01*
X0091839Y0124691D01*
X0092016Y0124799D01*
X0092190Y0124911D01*
X0092361Y0125027D01*
X0092530Y0125148D01*
X0092695Y0125272D01*
X0092857Y0125401D01*
X0093016Y0125533D01*
X0093172Y0125669D01*
X0093325Y0125809D01*
X0093474Y0125953D01*
X0093619Y0126100D01*
X0093761Y0126251D01*
X0093899Y0126405D01*
X0094034Y0126563D01*
X0094164Y0126723D01*
X0094290Y0126887D01*
X0094413Y0127054D01*
X0094531Y0127224D01*
X0094646Y0127397D01*
X0094756Y0127572D01*
X0094861Y0127750D01*
X0094963Y0127931D01*
X0095059Y0128113D01*
X0095152Y0128299D01*
X0095240Y0128486D01*
X0095323Y0128676D01*
X0095402Y0128867D01*
X0095476Y0129060D01*
X0095545Y0129256D01*
X0095609Y0129452D01*
X0095669Y0129650D01*
X0095724Y0129850D01*
X0095774Y0130051D01*
X0095819Y0130253D01*
X0095859Y0130456D01*
X0095894Y0130660D01*
X0095924Y0130865D01*
X0095949Y0131070D01*
X0095969Y0131276D01*
X0095984Y0131483D01*
X0095994Y0131690D01*
X0095999Y0131897D01*
X0095999Y0132103D01*
X0095994Y0132310D01*
X0095984Y0132517D01*
X0095969Y0132724D01*
X0095949Y0132930D01*
X0095924Y0133135D01*
X0095894Y0133340D01*
X0095859Y0133544D01*
X0095819Y0133747D01*
X0095774Y0133949D01*
X0095724Y0134150D01*
X0095669Y0134350D01*
X0095609Y0134548D01*
X0095545Y0134744D01*
X0095476Y0134940D01*
X0095402Y0135133D01*
X0095323Y0135324D01*
X0095240Y0135514D01*
X0095152Y0135701D01*
X0095059Y0135887D01*
X0094963Y0136069D01*
X0094861Y0136250D01*
X0094756Y0136428D01*
X0094646Y0136603D01*
X0094531Y0136776D01*
X0094413Y0136946D01*
X0094290Y0137113D01*
X0094164Y0137277D01*
X0094034Y0137437D01*
X0093899Y0137595D01*
X0093761Y0137749D01*
X0093619Y0137900D01*
X0093474Y0138047D01*
X0093325Y0138191D01*
X0093172Y0138331D01*
X0093016Y0138467D01*
X0092857Y0138599D01*
X0092695Y0138728D01*
X0092530Y0138852D01*
X0092361Y0138973D01*
X0092190Y0139089D01*
X0092016Y0139201D01*
X0091839Y0139309D01*
X0091660Y0139412D01*
X0091478Y0139512D01*
X0091294Y0139606D01*
X0091108Y0139696D01*
X0090919Y0139782D01*
X0090729Y0139863D01*
X0090536Y0139939D01*
X0090342Y0140011D01*
X0090146Y0140078D01*
X0089949Y0140140D01*
X0089750Y0140197D01*
X0089550Y0140249D01*
X0089348Y0140297D01*
X0089146Y0140339D01*
X0088942Y0140377D01*
X0088738Y0140409D01*
X0088532Y0140437D01*
X0088327Y0140460D01*
X0088120Y0140477D01*
X0087914Y0140490D01*
X0087707Y0140497D01*
X0087500Y0140500D01*
X0063500Y0140500D01*
X0063293Y0140497D01*
X0063086Y0140490D01*
X0062880Y0140477D01*
X0062673Y0140460D01*
X0062468Y0140437D01*
X0062262Y0140409D01*
X0062058Y0140377D01*
X0061854Y0140339D01*
X0061652Y0140297D01*
X0061450Y0140249D01*
X0061250Y0140197D01*
X0061051Y0140140D01*
X0060854Y0140078D01*
X0060658Y0140011D01*
X0060464Y0139939D01*
X0060271Y0139863D01*
X0060081Y0139782D01*
X0059892Y0139696D01*
X0059706Y0139606D01*
X0059522Y0139512D01*
X0059340Y0139412D01*
X0059161Y0139309D01*
X0058984Y0139201D01*
X0058810Y0139089D01*
X0058639Y0138973D01*
X0058470Y0138852D01*
X0058305Y0138728D01*
X0058143Y0138599D01*
X0057984Y0138467D01*
X0057828Y0138331D01*
X0057675Y0138191D01*
X0057526Y0138047D01*
X0057381Y0137900D01*
X0057239Y0137749D01*
X0057101Y0137595D01*
X0056966Y0137437D01*
X0056836Y0137277D01*
X0056710Y0137113D01*
X0056587Y0136946D01*
X0056469Y0136776D01*
X0056354Y0136603D01*
X0056244Y0136428D01*
X0056139Y0136250D01*
X0056037Y0136069D01*
X0055941Y0135887D01*
X0055848Y0135701D01*
X0055760Y0135514D01*
X0055677Y0135324D01*
X0055598Y0135133D01*
X0055524Y0134940D01*
X0055455Y0134744D01*
X0055391Y0134548D01*
X0055331Y0134350D01*
X0055276Y0134150D01*
X0055226Y0133949D01*
X0055181Y0133747D01*
X0055141Y0133544D01*
X0055106Y0133340D01*
X0055076Y0133135D01*
X0055051Y0132930D01*
X0055031Y0132724D01*
X0055016Y0132517D01*
X0055006Y0132310D01*
X0055001Y0132103D01*
X0055001Y0131897D01*
X0055006Y0131690D01*
X0055016Y0131483D01*
X0055031Y0131276D01*
X0055051Y0131070D01*
X0055076Y0130865D01*
X0055106Y0130660D01*
X0055141Y0130456D01*
X0055181Y0130253D01*
X0055226Y0130051D01*
X0055276Y0129850D01*
X0055331Y0129650D01*
X0055391Y0129452D01*
X0055455Y0129256D01*
X0055524Y0129060D01*
X0055598Y0128867D01*
X0055677Y0128676D01*
X0055760Y0128486D01*
X0055848Y0128299D01*
X0055941Y0128113D01*
X0056037Y0127931D01*
X0056139Y0127750D01*
X0056244Y0127572D01*
X0056354Y0127397D01*
X0056469Y0127224D01*
X0056587Y0127054D01*
X0056710Y0126887D01*
X0056836Y0126723D01*
X0056966Y0126563D01*
X0057101Y0126405D01*
X0057239Y0126251D01*
X0057381Y0126100D01*
X0057526Y0125953D01*
X0057675Y0125809D01*
X0057828Y0125669D01*
X0057984Y0125533D01*
X0058143Y0125401D01*
X0058305Y0125272D01*
X0058470Y0125148D01*
X0058639Y0125027D01*
X0058810Y0124911D01*
X0058984Y0124799D01*
X0059161Y0124691D01*
X0059340Y0124588D01*
X0059522Y0124488D01*
X0059706Y0124394D01*
X0059892Y0124304D01*
X0060081Y0124218D01*
X0060271Y0124137D01*
X0060464Y0124061D01*
X0060658Y0123989D01*
X0060854Y0123922D01*
X0061051Y0123860D01*
X0061250Y0123803D01*
X0061450Y0123751D01*
X0061652Y0123703D01*
X0061854Y0123661D01*
X0062058Y0123623D01*
X0062262Y0123591D01*
X0062468Y0123563D01*
X0062673Y0123540D01*
X0062880Y0123523D01*
X0063086Y0123510D01*
X0063293Y0123503D01*
X0063500Y0123500D01*
D15*
X0063500Y0125500D02*
X0087500Y0125500D01*
X0087660Y0125502D01*
X0087819Y0125508D01*
X0087978Y0125518D01*
X0088137Y0125531D01*
X0088296Y0125549D01*
X0088454Y0125570D01*
X0088611Y0125596D01*
X0088768Y0125625D01*
X0088924Y0125658D01*
X0089079Y0125695D01*
X0089234Y0125735D01*
X0089387Y0125780D01*
X0089539Y0125828D01*
X0089690Y0125880D01*
X0089839Y0125936D01*
X0089987Y0125995D01*
X0090134Y0126058D01*
X0090279Y0126124D01*
X0090422Y0126194D01*
X0090564Y0126268D01*
X0090704Y0126344D01*
X0090842Y0126425D01*
X0090977Y0126508D01*
X0091111Y0126595D01*
X0091243Y0126686D01*
X0091372Y0126779D01*
X0091499Y0126876D01*
X0091624Y0126975D01*
X0091746Y0127078D01*
X0091865Y0127184D01*
X0091982Y0127292D01*
X0092096Y0127404D01*
X0092208Y0127518D01*
X0092316Y0127635D01*
X0092422Y0127754D01*
X0092525Y0127876D01*
X0092624Y0128001D01*
X0092721Y0128128D01*
X0092814Y0128257D01*
X0092905Y0128389D01*
X0092992Y0128523D01*
X0093075Y0128658D01*
X0093156Y0128796D01*
X0093232Y0128936D01*
X0093306Y0129078D01*
X0093376Y0129221D01*
X0093442Y0129366D01*
X0093505Y0129513D01*
X0093564Y0129661D01*
X0093620Y0129810D01*
X0093672Y0129961D01*
X0093720Y0130113D01*
X0093765Y0130266D01*
X0093805Y0130421D01*
X0093842Y0130576D01*
X0093875Y0130732D01*
X0093904Y0130889D01*
X0093930Y0131046D01*
X0093951Y0131204D01*
X0093969Y0131363D01*
X0093982Y0131522D01*
X0093992Y0131681D01*
X0093998Y0131840D01*
X0094000Y0132000D01*
X0093998Y0132160D01*
X0093992Y0132319D01*
X0093982Y0132478D01*
X0093969Y0132637D01*
X0093951Y0132796D01*
X0093930Y0132954D01*
X0093904Y0133111D01*
X0093875Y0133268D01*
X0093842Y0133424D01*
X0093805Y0133579D01*
X0093765Y0133734D01*
X0093720Y0133887D01*
X0093672Y0134039D01*
X0093620Y0134190D01*
X0093564Y0134339D01*
X0093505Y0134487D01*
X0093442Y0134634D01*
X0093376Y0134779D01*
X0093306Y0134922D01*
X0093232Y0135064D01*
X0093156Y0135204D01*
X0093075Y0135342D01*
X0092992Y0135477D01*
X0092905Y0135611D01*
X0092814Y0135743D01*
X0092721Y0135872D01*
X0092624Y0135999D01*
X0092525Y0136124D01*
X0092422Y0136246D01*
X0092316Y0136365D01*
X0092208Y0136482D01*
X0092096Y0136596D01*
X0091982Y0136708D01*
X0091865Y0136816D01*
X0091746Y0136922D01*
X0091624Y0137025D01*
X0091499Y0137124D01*
X0091372Y0137221D01*
X0091243Y0137314D01*
X0091111Y0137405D01*
X0090977Y0137492D01*
X0090842Y0137575D01*
X0090704Y0137656D01*
X0090564Y0137732D01*
X0090422Y0137806D01*
X0090279Y0137876D01*
X0090134Y0137942D01*
X0089987Y0138005D01*
X0089839Y0138064D01*
X0089690Y0138120D01*
X0089539Y0138172D01*
X0089387Y0138220D01*
X0089234Y0138265D01*
X0089079Y0138305D01*
X0088924Y0138342D01*
X0088768Y0138375D01*
X0088611Y0138404D01*
X0088454Y0138430D01*
X0088296Y0138451D01*
X0088137Y0138469D01*
X0087978Y0138482D01*
X0087819Y0138492D01*
X0087660Y0138498D01*
X0087500Y0138500D01*
X0063500Y0138500D01*
X0063340Y0138498D01*
X0063181Y0138492D01*
X0063022Y0138482D01*
X0062863Y0138469D01*
X0062704Y0138451D01*
X0062546Y0138430D01*
X0062389Y0138404D01*
X0062232Y0138375D01*
X0062076Y0138342D01*
X0061921Y0138305D01*
X0061766Y0138265D01*
X0061613Y0138220D01*
X0061461Y0138172D01*
X0061310Y0138120D01*
X0061161Y0138064D01*
X0061013Y0138005D01*
X0060866Y0137942D01*
X0060721Y0137876D01*
X0060578Y0137806D01*
X0060436Y0137732D01*
X0060296Y0137656D01*
X0060158Y0137575D01*
X0060023Y0137492D01*
X0059889Y0137405D01*
X0059757Y0137314D01*
X0059628Y0137221D01*
X0059501Y0137124D01*
X0059376Y0137025D01*
X0059254Y0136922D01*
X0059135Y0136816D01*
X0059018Y0136708D01*
X0058904Y0136596D01*
X0058792Y0136482D01*
X0058684Y0136365D01*
X0058578Y0136246D01*
X0058475Y0136124D01*
X0058376Y0135999D01*
X0058279Y0135872D01*
X0058186Y0135743D01*
X0058095Y0135611D01*
X0058008Y0135477D01*
X0057925Y0135342D01*
X0057844Y0135204D01*
X0057768Y0135064D01*
X0057694Y0134922D01*
X0057624Y0134779D01*
X0057558Y0134634D01*
X0057495Y0134487D01*
X0057436Y0134339D01*
X0057380Y0134190D01*
X0057328Y0134039D01*
X0057280Y0133887D01*
X0057235Y0133734D01*
X0057195Y0133579D01*
X0057158Y0133424D01*
X0057125Y0133268D01*
X0057096Y0133111D01*
X0057070Y0132954D01*
X0057049Y0132796D01*
X0057031Y0132637D01*
X0057018Y0132478D01*
X0057008Y0132319D01*
X0057002Y0132160D01*
X0057000Y0132000D01*
X0057002Y0131840D01*
X0057008Y0131681D01*
X0057018Y0131522D01*
X0057031Y0131363D01*
X0057049Y0131204D01*
X0057070Y0131046D01*
X0057096Y0130889D01*
X0057125Y0130732D01*
X0057158Y0130576D01*
X0057195Y0130421D01*
X0057235Y0130266D01*
X0057280Y0130113D01*
X0057328Y0129961D01*
X0057380Y0129810D01*
X0057436Y0129661D01*
X0057495Y0129513D01*
X0057558Y0129366D01*
X0057624Y0129221D01*
X0057694Y0129078D01*
X0057768Y0128936D01*
X0057844Y0128796D01*
X0057925Y0128658D01*
X0058008Y0128523D01*
X0058095Y0128389D01*
X0058186Y0128257D01*
X0058279Y0128128D01*
X0058376Y0128001D01*
X0058475Y0127876D01*
X0058578Y0127754D01*
X0058684Y0127635D01*
X0058792Y0127518D01*
X0058904Y0127404D01*
X0059018Y0127292D01*
X0059135Y0127184D01*
X0059254Y0127078D01*
X0059376Y0126975D01*
X0059501Y0126876D01*
X0059628Y0126779D01*
X0059757Y0126686D01*
X0059889Y0126595D01*
X0060023Y0126508D01*
X0060158Y0126425D01*
X0060296Y0126344D01*
X0060436Y0126268D01*
X0060578Y0126194D01*
X0060721Y0126124D01*
X0060866Y0126058D01*
X0061013Y0125995D01*
X0061161Y0125936D01*
X0061310Y0125880D01*
X0061461Y0125828D01*
X0061613Y0125780D01*
X0061766Y0125735D01*
X0061921Y0125695D01*
X0062076Y0125658D01*
X0062232Y0125625D01*
X0062389Y0125596D01*
X0062546Y0125570D01*
X0062704Y0125549D01*
X0062863Y0125531D01*
X0063022Y0125518D01*
X0063181Y0125508D01*
X0063340Y0125502D01*
X0063500Y0125500D01*
X0070500Y0132000D02*
X0073000Y0132000D01*
X0073000Y0135000D01*
X0074500Y0135000D02*
X0076500Y0135000D01*
X0076500Y0129000D01*
X0074500Y0129000D01*
X0074500Y0135000D01*
X0073000Y0132000D02*
X0073000Y0129000D01*
X0078000Y0129000D02*
X0078000Y0132000D01*
X0080500Y0132000D01*
X0078000Y0132000D02*
X0078000Y0135000D01*
X0083041Y0094987D02*
X0083041Y0077013D01*
X0107959Y0077013D01*
X0107959Y0094987D01*
X0083041Y0094987D01*
X0084741Y0081200D02*
X0084743Y0081284D01*
X0084749Y0081369D01*
X0084759Y0081452D01*
X0084773Y0081536D01*
X0084790Y0081618D01*
X0084812Y0081700D01*
X0084837Y0081780D01*
X0084866Y0081859D01*
X0084899Y0081937D01*
X0084935Y0082013D01*
X0084975Y0082088D01*
X0085019Y0082160D01*
X0085065Y0082231D01*
X0085115Y0082299D01*
X0085168Y0082364D01*
X0085224Y0082427D01*
X0085283Y0082488D01*
X0085345Y0082545D01*
X0085409Y0082600D01*
X0085476Y0082651D01*
X0085545Y0082700D01*
X0085617Y0082745D01*
X0085690Y0082786D01*
X0085765Y0082824D01*
X0085842Y0082859D01*
X0085921Y0082890D01*
X0086001Y0082917D01*
X0086082Y0082940D01*
X0086164Y0082960D01*
X0086247Y0082976D01*
X0086330Y0082988D01*
X0086415Y0082996D01*
X0086499Y0083000D01*
X0086583Y0083000D01*
X0086667Y0082996D01*
X0086752Y0082988D01*
X0086835Y0082976D01*
X0086918Y0082960D01*
X0087000Y0082940D01*
X0087081Y0082917D01*
X0087161Y0082890D01*
X0087240Y0082859D01*
X0087317Y0082824D01*
X0087392Y0082786D01*
X0087465Y0082745D01*
X0087537Y0082700D01*
X0087606Y0082651D01*
X0087673Y0082600D01*
X0087737Y0082545D01*
X0087799Y0082488D01*
X0087858Y0082427D01*
X0087914Y0082364D01*
X0087967Y0082299D01*
X0088017Y0082231D01*
X0088063Y0082160D01*
X0088107Y0082088D01*
X0088147Y0082013D01*
X0088183Y0081937D01*
X0088216Y0081859D01*
X0088245Y0081780D01*
X0088270Y0081700D01*
X0088292Y0081618D01*
X0088309Y0081536D01*
X0088323Y0081452D01*
X0088333Y0081369D01*
X0088339Y0081284D01*
X0088341Y0081200D01*
X0088339Y0081116D01*
X0088333Y0081031D01*
X0088323Y0080948D01*
X0088309Y0080864D01*
X0088292Y0080782D01*
X0088270Y0080700D01*
X0088245Y0080620D01*
X0088216Y0080541D01*
X0088183Y0080463D01*
X0088147Y0080387D01*
X0088107Y0080312D01*
X0088063Y0080240D01*
X0088017Y0080169D01*
X0087967Y0080101D01*
X0087914Y0080036D01*
X0087858Y0079973D01*
X0087799Y0079912D01*
X0087737Y0079855D01*
X0087673Y0079800D01*
X0087606Y0079749D01*
X0087537Y0079700D01*
X0087465Y0079655D01*
X0087392Y0079614D01*
X0087317Y0079576D01*
X0087240Y0079541D01*
X0087161Y0079510D01*
X0087081Y0079483D01*
X0087000Y0079460D01*
X0086918Y0079440D01*
X0086835Y0079424D01*
X0086752Y0079412D01*
X0086667Y0079404D01*
X0086583Y0079400D01*
X0086499Y0079400D01*
X0086415Y0079404D01*
X0086330Y0079412D01*
X0086247Y0079424D01*
X0086164Y0079440D01*
X0086082Y0079460D01*
X0086001Y0079483D01*
X0085921Y0079510D01*
X0085842Y0079541D01*
X0085765Y0079576D01*
X0085690Y0079614D01*
X0085617Y0079655D01*
X0085545Y0079700D01*
X0085476Y0079749D01*
X0085409Y0079800D01*
X0085345Y0079855D01*
X0085283Y0079912D01*
X0085224Y0079973D01*
X0085168Y0080036D01*
X0085115Y0080101D01*
X0085065Y0080169D01*
X0085019Y0080240D01*
X0084975Y0080312D01*
X0084935Y0080387D01*
X0084899Y0080463D01*
X0084866Y0080541D01*
X0084837Y0080620D01*
X0084812Y0080700D01*
X0084790Y0080782D01*
X0084773Y0080864D01*
X0084759Y0080948D01*
X0084749Y0081031D01*
X0084743Y0081116D01*
X0084741Y0081200D01*
X0004748Y0066748D02*
X0004752Y0067079D01*
X0004764Y0067410D01*
X0004785Y0067741D01*
X0004813Y0068071D01*
X0004850Y0068401D01*
X0004894Y0068729D01*
X0004947Y0069056D01*
X0005007Y0069382D01*
X0005076Y0069706D01*
X0005153Y0070028D01*
X0005237Y0070349D01*
X0005329Y0070667D01*
X0005429Y0070983D01*
X0005537Y0071296D01*
X0005653Y0071607D01*
X0005776Y0071914D01*
X0005906Y0072219D01*
X0006044Y0072520D01*
X0006189Y0072818D01*
X0006342Y0073112D01*
X0006502Y0073402D01*
X0006669Y0073688D01*
X0006842Y0073970D01*
X0007023Y0074248D01*
X0007211Y0074521D01*
X0007405Y0074790D01*
X0007605Y0075054D01*
X0007812Y0075312D01*
X0008026Y0075566D01*
X0008245Y0075814D01*
X0008471Y0076057D01*
X0008702Y0076294D01*
X0008939Y0076525D01*
X0009182Y0076751D01*
X0009430Y0076970D01*
X0009684Y0077184D01*
X0009942Y0077391D01*
X0010206Y0077591D01*
X0010475Y0077785D01*
X0010748Y0077973D01*
X0011026Y0078154D01*
X0011308Y0078327D01*
X0011594Y0078494D01*
X0011884Y0078654D01*
X0012178Y0078807D01*
X0012476Y0078952D01*
X0012777Y0079090D01*
X0013082Y0079220D01*
X0013389Y0079343D01*
X0013700Y0079459D01*
X0014013Y0079567D01*
X0014329Y0079667D01*
X0014647Y0079759D01*
X0014968Y0079843D01*
X0015290Y0079920D01*
X0015614Y0079989D01*
X0015940Y0080049D01*
X0016267Y0080102D01*
X0016595Y0080146D01*
X0016925Y0080183D01*
X0017255Y0080211D01*
X0017586Y0080232D01*
X0017917Y0080244D01*
X0018248Y0080248D01*
X0018579Y0080244D01*
X0018910Y0080232D01*
X0019241Y0080211D01*
X0019571Y0080183D01*
X0019901Y0080146D01*
X0020229Y0080102D01*
X0020556Y0080049D01*
X0020882Y0079989D01*
X0021206Y0079920D01*
X0021528Y0079843D01*
X0021849Y0079759D01*
X0022167Y0079667D01*
X0022483Y0079567D01*
X0022796Y0079459D01*
X0023107Y0079343D01*
X0023414Y0079220D01*
X0023719Y0079090D01*
X0024020Y0078952D01*
X0024318Y0078807D01*
X0024612Y0078654D01*
X0024902Y0078494D01*
X0025188Y0078327D01*
X0025470Y0078154D01*
X0025748Y0077973D01*
X0026021Y0077785D01*
X0026290Y0077591D01*
X0026554Y0077391D01*
X0026812Y0077184D01*
X0027066Y0076970D01*
X0027314Y0076751D01*
X0027557Y0076525D01*
X0027794Y0076294D01*
X0028025Y0076057D01*
X0028251Y0075814D01*
X0028470Y0075566D01*
X0028684Y0075312D01*
X0028891Y0075054D01*
X0029091Y0074790D01*
X0029285Y0074521D01*
X0029473Y0074248D01*
X0029654Y0073970D01*
X0029827Y0073688D01*
X0029994Y0073402D01*
X0030154Y0073112D01*
X0030307Y0072818D01*
X0030452Y0072520D01*
X0030590Y0072219D01*
X0030720Y0071914D01*
X0030843Y0071607D01*
X0030959Y0071296D01*
X0031067Y0070983D01*
X0031167Y0070667D01*
X0031259Y0070349D01*
X0031343Y0070028D01*
X0031420Y0069706D01*
X0031489Y0069382D01*
X0031549Y0069056D01*
X0031602Y0068729D01*
X0031646Y0068401D01*
X0031683Y0068071D01*
X0031711Y0067741D01*
X0031732Y0067410D01*
X0031744Y0067079D01*
X0031748Y0066748D01*
X0031744Y0066417D01*
X0031732Y0066086D01*
X0031711Y0065755D01*
X0031683Y0065425D01*
X0031646Y0065095D01*
X0031602Y0064767D01*
X0031549Y0064440D01*
X0031489Y0064114D01*
X0031420Y0063790D01*
X0031343Y0063468D01*
X0031259Y0063147D01*
X0031167Y0062829D01*
X0031067Y0062513D01*
X0030959Y0062200D01*
X0030843Y0061889D01*
X0030720Y0061582D01*
X0030590Y0061277D01*
X0030452Y0060976D01*
X0030307Y0060678D01*
X0030154Y0060384D01*
X0029994Y0060094D01*
X0029827Y0059808D01*
X0029654Y0059526D01*
X0029473Y0059248D01*
X0029285Y0058975D01*
X0029091Y0058706D01*
X0028891Y0058442D01*
X0028684Y0058184D01*
X0028470Y0057930D01*
X0028251Y0057682D01*
X0028025Y0057439D01*
X0027794Y0057202D01*
X0027557Y0056971D01*
X0027314Y0056745D01*
X0027066Y0056526D01*
X0026812Y0056312D01*
X0026554Y0056105D01*
X0026290Y0055905D01*
X0026021Y0055711D01*
X0025748Y0055523D01*
X0025470Y0055342D01*
X0025188Y0055169D01*
X0024902Y0055002D01*
X0024612Y0054842D01*
X0024318Y0054689D01*
X0024020Y0054544D01*
X0023719Y0054406D01*
X0023414Y0054276D01*
X0023107Y0054153D01*
X0022796Y0054037D01*
X0022483Y0053929D01*
X0022167Y0053829D01*
X0021849Y0053737D01*
X0021528Y0053653D01*
X0021206Y0053576D01*
X0020882Y0053507D01*
X0020556Y0053447D01*
X0020229Y0053394D01*
X0019901Y0053350D01*
X0019571Y0053313D01*
X0019241Y0053285D01*
X0018910Y0053264D01*
X0018579Y0053252D01*
X0018248Y0053248D01*
X0017917Y0053252D01*
X0017586Y0053264D01*
X0017255Y0053285D01*
X0016925Y0053313D01*
X0016595Y0053350D01*
X0016267Y0053394D01*
X0015940Y0053447D01*
X0015614Y0053507D01*
X0015290Y0053576D01*
X0014968Y0053653D01*
X0014647Y0053737D01*
X0014329Y0053829D01*
X0014013Y0053929D01*
X0013700Y0054037D01*
X0013389Y0054153D01*
X0013082Y0054276D01*
X0012777Y0054406D01*
X0012476Y0054544D01*
X0012178Y0054689D01*
X0011884Y0054842D01*
X0011594Y0055002D01*
X0011308Y0055169D01*
X0011026Y0055342D01*
X0010748Y0055523D01*
X0010475Y0055711D01*
X0010206Y0055905D01*
X0009942Y0056105D01*
X0009684Y0056312D01*
X0009430Y0056526D01*
X0009182Y0056745D01*
X0008939Y0056971D01*
X0008702Y0057202D01*
X0008471Y0057439D01*
X0008245Y0057682D01*
X0008026Y0057930D01*
X0007812Y0058184D01*
X0007605Y0058442D01*
X0007405Y0058706D01*
X0007211Y0058975D01*
X0007023Y0059248D01*
X0006842Y0059526D01*
X0006669Y0059808D01*
X0006502Y0060094D01*
X0006342Y0060384D01*
X0006189Y0060678D01*
X0006044Y0060976D01*
X0005906Y0061277D01*
X0005776Y0061582D01*
X0005653Y0061889D01*
X0005537Y0062200D01*
X0005429Y0062513D01*
X0005329Y0062829D01*
X0005237Y0063147D01*
X0005153Y0063468D01*
X0005076Y0063790D01*
X0005007Y0064114D01*
X0004947Y0064440D01*
X0004894Y0064767D01*
X0004850Y0065095D01*
X0004813Y0065425D01*
X0004785Y0065755D01*
X0004764Y0066086D01*
X0004752Y0066417D01*
X0004748Y0066748D01*
X0004748Y0125803D02*
X0004752Y0126134D01*
X0004764Y0126465D01*
X0004785Y0126796D01*
X0004813Y0127126D01*
X0004850Y0127456D01*
X0004894Y0127784D01*
X0004947Y0128111D01*
X0005007Y0128437D01*
X0005076Y0128761D01*
X0005153Y0129083D01*
X0005237Y0129404D01*
X0005329Y0129722D01*
X0005429Y0130038D01*
X0005537Y0130351D01*
X0005653Y0130662D01*
X0005776Y0130969D01*
X0005906Y0131274D01*
X0006044Y0131575D01*
X0006189Y0131873D01*
X0006342Y0132167D01*
X0006502Y0132457D01*
X0006669Y0132743D01*
X0006842Y0133025D01*
X0007023Y0133303D01*
X0007211Y0133576D01*
X0007405Y0133845D01*
X0007605Y0134109D01*
X0007812Y0134367D01*
X0008026Y0134621D01*
X0008245Y0134869D01*
X0008471Y0135112D01*
X0008702Y0135349D01*
X0008939Y0135580D01*
X0009182Y0135806D01*
X0009430Y0136025D01*
X0009684Y0136239D01*
X0009942Y0136446D01*
X0010206Y0136646D01*
X0010475Y0136840D01*
X0010748Y0137028D01*
X0011026Y0137209D01*
X0011308Y0137382D01*
X0011594Y0137549D01*
X0011884Y0137709D01*
X0012178Y0137862D01*
X0012476Y0138007D01*
X0012777Y0138145D01*
X0013082Y0138275D01*
X0013389Y0138398D01*
X0013700Y0138514D01*
X0014013Y0138622D01*
X0014329Y0138722D01*
X0014647Y0138814D01*
X0014968Y0138898D01*
X0015290Y0138975D01*
X0015614Y0139044D01*
X0015940Y0139104D01*
X0016267Y0139157D01*
X0016595Y0139201D01*
X0016925Y0139238D01*
X0017255Y0139266D01*
X0017586Y0139287D01*
X0017917Y0139299D01*
X0018248Y0139303D01*
X0018579Y0139299D01*
X0018910Y0139287D01*
X0019241Y0139266D01*
X0019571Y0139238D01*
X0019901Y0139201D01*
X0020229Y0139157D01*
X0020556Y0139104D01*
X0020882Y0139044D01*
X0021206Y0138975D01*
X0021528Y0138898D01*
X0021849Y0138814D01*
X0022167Y0138722D01*
X0022483Y0138622D01*
X0022796Y0138514D01*
X0023107Y0138398D01*
X0023414Y0138275D01*
X0023719Y0138145D01*
X0024020Y0138007D01*
X0024318Y0137862D01*
X0024612Y0137709D01*
X0024902Y0137549D01*
X0025188Y0137382D01*
X0025470Y0137209D01*
X0025748Y0137028D01*
X0026021Y0136840D01*
X0026290Y0136646D01*
X0026554Y0136446D01*
X0026812Y0136239D01*
X0027066Y0136025D01*
X0027314Y0135806D01*
X0027557Y0135580D01*
X0027794Y0135349D01*
X0028025Y0135112D01*
X0028251Y0134869D01*
X0028470Y0134621D01*
X0028684Y0134367D01*
X0028891Y0134109D01*
X0029091Y0133845D01*
X0029285Y0133576D01*
X0029473Y0133303D01*
X0029654Y0133025D01*
X0029827Y0132743D01*
X0029994Y0132457D01*
X0030154Y0132167D01*
X0030307Y0131873D01*
X0030452Y0131575D01*
X0030590Y0131274D01*
X0030720Y0130969D01*
X0030843Y0130662D01*
X0030959Y0130351D01*
X0031067Y0130038D01*
X0031167Y0129722D01*
X0031259Y0129404D01*
X0031343Y0129083D01*
X0031420Y0128761D01*
X0031489Y0128437D01*
X0031549Y0128111D01*
X0031602Y0127784D01*
X0031646Y0127456D01*
X0031683Y0127126D01*
X0031711Y0126796D01*
X0031732Y0126465D01*
X0031744Y0126134D01*
X0031748Y0125803D01*
X0031744Y0125472D01*
X0031732Y0125141D01*
X0031711Y0124810D01*
X0031683Y0124480D01*
X0031646Y0124150D01*
X0031602Y0123822D01*
X0031549Y0123495D01*
X0031489Y0123169D01*
X0031420Y0122845D01*
X0031343Y0122523D01*
X0031259Y0122202D01*
X0031167Y0121884D01*
X0031067Y0121568D01*
X0030959Y0121255D01*
X0030843Y0120944D01*
X0030720Y0120637D01*
X0030590Y0120332D01*
X0030452Y0120031D01*
X0030307Y0119733D01*
X0030154Y0119439D01*
X0029994Y0119149D01*
X0029827Y0118863D01*
X0029654Y0118581D01*
X0029473Y0118303D01*
X0029285Y0118030D01*
X0029091Y0117761D01*
X0028891Y0117497D01*
X0028684Y0117239D01*
X0028470Y0116985D01*
X0028251Y0116737D01*
X0028025Y0116494D01*
X0027794Y0116257D01*
X0027557Y0116026D01*
X0027314Y0115800D01*
X0027066Y0115581D01*
X0026812Y0115367D01*
X0026554Y0115160D01*
X0026290Y0114960D01*
X0026021Y0114766D01*
X0025748Y0114578D01*
X0025470Y0114397D01*
X0025188Y0114224D01*
X0024902Y0114057D01*
X0024612Y0113897D01*
X0024318Y0113744D01*
X0024020Y0113599D01*
X0023719Y0113461D01*
X0023414Y0113331D01*
X0023107Y0113208D01*
X0022796Y0113092D01*
X0022483Y0112984D01*
X0022167Y0112884D01*
X0021849Y0112792D01*
X0021528Y0112708D01*
X0021206Y0112631D01*
X0020882Y0112562D01*
X0020556Y0112502D01*
X0020229Y0112449D01*
X0019901Y0112405D01*
X0019571Y0112368D01*
X0019241Y0112340D01*
X0018910Y0112319D01*
X0018579Y0112307D01*
X0018248Y0112303D01*
X0017917Y0112307D01*
X0017586Y0112319D01*
X0017255Y0112340D01*
X0016925Y0112368D01*
X0016595Y0112405D01*
X0016267Y0112449D01*
X0015940Y0112502D01*
X0015614Y0112562D01*
X0015290Y0112631D01*
X0014968Y0112708D01*
X0014647Y0112792D01*
X0014329Y0112884D01*
X0014013Y0112984D01*
X0013700Y0113092D01*
X0013389Y0113208D01*
X0013082Y0113331D01*
X0012777Y0113461D01*
X0012476Y0113599D01*
X0012178Y0113744D01*
X0011884Y0113897D01*
X0011594Y0114057D01*
X0011308Y0114224D01*
X0011026Y0114397D01*
X0010748Y0114578D01*
X0010475Y0114766D01*
X0010206Y0114960D01*
X0009942Y0115160D01*
X0009684Y0115367D01*
X0009430Y0115581D01*
X0009182Y0115800D01*
X0008939Y0116026D01*
X0008702Y0116257D01*
X0008471Y0116494D01*
X0008245Y0116737D01*
X0008026Y0116985D01*
X0007812Y0117239D01*
X0007605Y0117497D01*
X0007405Y0117761D01*
X0007211Y0118030D01*
X0007023Y0118303D01*
X0006842Y0118581D01*
X0006669Y0118863D01*
X0006502Y0119149D01*
X0006342Y0119439D01*
X0006189Y0119733D01*
X0006044Y0120031D01*
X0005906Y0120332D01*
X0005776Y0120637D01*
X0005653Y0120944D01*
X0005537Y0121255D01*
X0005429Y0121568D01*
X0005329Y0121884D01*
X0005237Y0122202D01*
X0005153Y0122523D01*
X0005076Y0122845D01*
X0005007Y0123169D01*
X0004947Y0123495D01*
X0004894Y0123822D01*
X0004850Y0124150D01*
X0004813Y0124480D01*
X0004785Y0124810D01*
X0004764Y0125141D01*
X0004752Y0125472D01*
X0004748Y0125803D01*
X0170102Y0125803D02*
X0170106Y0126134D01*
X0170118Y0126465D01*
X0170139Y0126796D01*
X0170167Y0127126D01*
X0170204Y0127456D01*
X0170248Y0127784D01*
X0170301Y0128111D01*
X0170361Y0128437D01*
X0170430Y0128761D01*
X0170507Y0129083D01*
X0170591Y0129404D01*
X0170683Y0129722D01*
X0170783Y0130038D01*
X0170891Y0130351D01*
X0171007Y0130662D01*
X0171130Y0130969D01*
X0171260Y0131274D01*
X0171398Y0131575D01*
X0171543Y0131873D01*
X0171696Y0132167D01*
X0171856Y0132457D01*
X0172023Y0132743D01*
X0172196Y0133025D01*
X0172377Y0133303D01*
X0172565Y0133576D01*
X0172759Y0133845D01*
X0172959Y0134109D01*
X0173166Y0134367D01*
X0173380Y0134621D01*
X0173599Y0134869D01*
X0173825Y0135112D01*
X0174056Y0135349D01*
X0174293Y0135580D01*
X0174536Y0135806D01*
X0174784Y0136025D01*
X0175038Y0136239D01*
X0175296Y0136446D01*
X0175560Y0136646D01*
X0175829Y0136840D01*
X0176102Y0137028D01*
X0176380Y0137209D01*
X0176662Y0137382D01*
X0176948Y0137549D01*
X0177238Y0137709D01*
X0177532Y0137862D01*
X0177830Y0138007D01*
X0178131Y0138145D01*
X0178436Y0138275D01*
X0178743Y0138398D01*
X0179054Y0138514D01*
X0179367Y0138622D01*
X0179683Y0138722D01*
X0180001Y0138814D01*
X0180322Y0138898D01*
X0180644Y0138975D01*
X0180968Y0139044D01*
X0181294Y0139104D01*
X0181621Y0139157D01*
X0181949Y0139201D01*
X0182279Y0139238D01*
X0182609Y0139266D01*
X0182940Y0139287D01*
X0183271Y0139299D01*
X0183602Y0139303D01*
X0183933Y0139299D01*
X0184264Y0139287D01*
X0184595Y0139266D01*
X0184925Y0139238D01*
X0185255Y0139201D01*
X0185583Y0139157D01*
X0185910Y0139104D01*
X0186236Y0139044D01*
X0186560Y0138975D01*
X0186882Y0138898D01*
X0187203Y0138814D01*
X0187521Y0138722D01*
X0187837Y0138622D01*
X0188150Y0138514D01*
X0188461Y0138398D01*
X0188768Y0138275D01*
X0189073Y0138145D01*
X0189374Y0138007D01*
X0189672Y0137862D01*
X0189966Y0137709D01*
X0190256Y0137549D01*
X0190542Y0137382D01*
X0190824Y0137209D01*
X0191102Y0137028D01*
X0191375Y0136840D01*
X0191644Y0136646D01*
X0191908Y0136446D01*
X0192166Y0136239D01*
X0192420Y0136025D01*
X0192668Y0135806D01*
X0192911Y0135580D01*
X0193148Y0135349D01*
X0193379Y0135112D01*
X0193605Y0134869D01*
X0193824Y0134621D01*
X0194038Y0134367D01*
X0194245Y0134109D01*
X0194445Y0133845D01*
X0194639Y0133576D01*
X0194827Y0133303D01*
X0195008Y0133025D01*
X0195181Y0132743D01*
X0195348Y0132457D01*
X0195508Y0132167D01*
X0195661Y0131873D01*
X0195806Y0131575D01*
X0195944Y0131274D01*
X0196074Y0130969D01*
X0196197Y0130662D01*
X0196313Y0130351D01*
X0196421Y0130038D01*
X0196521Y0129722D01*
X0196613Y0129404D01*
X0196697Y0129083D01*
X0196774Y0128761D01*
X0196843Y0128437D01*
X0196903Y0128111D01*
X0196956Y0127784D01*
X0197000Y0127456D01*
X0197037Y0127126D01*
X0197065Y0126796D01*
X0197086Y0126465D01*
X0197098Y0126134D01*
X0197102Y0125803D01*
X0197098Y0125472D01*
X0197086Y0125141D01*
X0197065Y0124810D01*
X0197037Y0124480D01*
X0197000Y0124150D01*
X0196956Y0123822D01*
X0196903Y0123495D01*
X0196843Y0123169D01*
X0196774Y0122845D01*
X0196697Y0122523D01*
X0196613Y0122202D01*
X0196521Y0121884D01*
X0196421Y0121568D01*
X0196313Y0121255D01*
X0196197Y0120944D01*
X0196074Y0120637D01*
X0195944Y0120332D01*
X0195806Y0120031D01*
X0195661Y0119733D01*
X0195508Y0119439D01*
X0195348Y0119149D01*
X0195181Y0118863D01*
X0195008Y0118581D01*
X0194827Y0118303D01*
X0194639Y0118030D01*
X0194445Y0117761D01*
X0194245Y0117497D01*
X0194038Y0117239D01*
X0193824Y0116985D01*
X0193605Y0116737D01*
X0193379Y0116494D01*
X0193148Y0116257D01*
X0192911Y0116026D01*
X0192668Y0115800D01*
X0192420Y0115581D01*
X0192166Y0115367D01*
X0191908Y0115160D01*
X0191644Y0114960D01*
X0191375Y0114766D01*
X0191102Y0114578D01*
X0190824Y0114397D01*
X0190542Y0114224D01*
X0190256Y0114057D01*
X0189966Y0113897D01*
X0189672Y0113744D01*
X0189374Y0113599D01*
X0189073Y0113461D01*
X0188768Y0113331D01*
X0188461Y0113208D01*
X0188150Y0113092D01*
X0187837Y0112984D01*
X0187521Y0112884D01*
X0187203Y0112792D01*
X0186882Y0112708D01*
X0186560Y0112631D01*
X0186236Y0112562D01*
X0185910Y0112502D01*
X0185583Y0112449D01*
X0185255Y0112405D01*
X0184925Y0112368D01*
X0184595Y0112340D01*
X0184264Y0112319D01*
X0183933Y0112307D01*
X0183602Y0112303D01*
X0183271Y0112307D01*
X0182940Y0112319D01*
X0182609Y0112340D01*
X0182279Y0112368D01*
X0181949Y0112405D01*
X0181621Y0112449D01*
X0181294Y0112502D01*
X0180968Y0112562D01*
X0180644Y0112631D01*
X0180322Y0112708D01*
X0180001Y0112792D01*
X0179683Y0112884D01*
X0179367Y0112984D01*
X0179054Y0113092D01*
X0178743Y0113208D01*
X0178436Y0113331D01*
X0178131Y0113461D01*
X0177830Y0113599D01*
X0177532Y0113744D01*
X0177238Y0113897D01*
X0176948Y0114057D01*
X0176662Y0114224D01*
X0176380Y0114397D01*
X0176102Y0114578D01*
X0175829Y0114766D01*
X0175560Y0114960D01*
X0175296Y0115160D01*
X0175038Y0115367D01*
X0174784Y0115581D01*
X0174536Y0115800D01*
X0174293Y0116026D01*
X0174056Y0116257D01*
X0173825Y0116494D01*
X0173599Y0116737D01*
X0173380Y0116985D01*
X0173166Y0117239D01*
X0172959Y0117497D01*
X0172759Y0117761D01*
X0172565Y0118030D01*
X0172377Y0118303D01*
X0172196Y0118581D01*
X0172023Y0118863D01*
X0171856Y0119149D01*
X0171696Y0119439D01*
X0171543Y0119733D01*
X0171398Y0120031D01*
X0171260Y0120332D01*
X0171130Y0120637D01*
X0171007Y0120944D01*
X0170891Y0121255D01*
X0170783Y0121568D01*
X0170683Y0121884D01*
X0170591Y0122202D01*
X0170507Y0122523D01*
X0170430Y0122845D01*
X0170361Y0123169D01*
X0170301Y0123495D01*
X0170248Y0123822D01*
X0170204Y0124150D01*
X0170167Y0124480D01*
X0170139Y0124810D01*
X0170118Y0125141D01*
X0170106Y0125472D01*
X0170102Y0125803D01*
X0205898Y0150925D02*
X0205898Y0157075D01*
X0217098Y0157075D02*
X0217098Y0150925D01*
X0170102Y0066748D02*
X0170106Y0067079D01*
X0170118Y0067410D01*
X0170139Y0067741D01*
X0170167Y0068071D01*
X0170204Y0068401D01*
X0170248Y0068729D01*
X0170301Y0069056D01*
X0170361Y0069382D01*
X0170430Y0069706D01*
X0170507Y0070028D01*
X0170591Y0070349D01*
X0170683Y0070667D01*
X0170783Y0070983D01*
X0170891Y0071296D01*
X0171007Y0071607D01*
X0171130Y0071914D01*
X0171260Y0072219D01*
X0171398Y0072520D01*
X0171543Y0072818D01*
X0171696Y0073112D01*
X0171856Y0073402D01*
X0172023Y0073688D01*
X0172196Y0073970D01*
X0172377Y0074248D01*
X0172565Y0074521D01*
X0172759Y0074790D01*
X0172959Y0075054D01*
X0173166Y0075312D01*
X0173380Y0075566D01*
X0173599Y0075814D01*
X0173825Y0076057D01*
X0174056Y0076294D01*
X0174293Y0076525D01*
X0174536Y0076751D01*
X0174784Y0076970D01*
X0175038Y0077184D01*
X0175296Y0077391D01*
X0175560Y0077591D01*
X0175829Y0077785D01*
X0176102Y0077973D01*
X0176380Y0078154D01*
X0176662Y0078327D01*
X0176948Y0078494D01*
X0177238Y0078654D01*
X0177532Y0078807D01*
X0177830Y0078952D01*
X0178131Y0079090D01*
X0178436Y0079220D01*
X0178743Y0079343D01*
X0179054Y0079459D01*
X0179367Y0079567D01*
X0179683Y0079667D01*
X0180001Y0079759D01*
X0180322Y0079843D01*
X0180644Y0079920D01*
X0180968Y0079989D01*
X0181294Y0080049D01*
X0181621Y0080102D01*
X0181949Y0080146D01*
X0182279Y0080183D01*
X0182609Y0080211D01*
X0182940Y0080232D01*
X0183271Y0080244D01*
X0183602Y0080248D01*
X0183933Y0080244D01*
X0184264Y0080232D01*
X0184595Y0080211D01*
X0184925Y0080183D01*
X0185255Y0080146D01*
X0185583Y0080102D01*
X0185910Y0080049D01*
X0186236Y0079989D01*
X0186560Y0079920D01*
X0186882Y0079843D01*
X0187203Y0079759D01*
X0187521Y0079667D01*
X0187837Y0079567D01*
X0188150Y0079459D01*
X0188461Y0079343D01*
X0188768Y0079220D01*
X0189073Y0079090D01*
X0189374Y0078952D01*
X0189672Y0078807D01*
X0189966Y0078654D01*
X0190256Y0078494D01*
X0190542Y0078327D01*
X0190824Y0078154D01*
X0191102Y0077973D01*
X0191375Y0077785D01*
X0191644Y0077591D01*
X0191908Y0077391D01*
X0192166Y0077184D01*
X0192420Y0076970D01*
X0192668Y0076751D01*
X0192911Y0076525D01*
X0193148Y0076294D01*
X0193379Y0076057D01*
X0193605Y0075814D01*
X0193824Y0075566D01*
X0194038Y0075312D01*
X0194245Y0075054D01*
X0194445Y0074790D01*
X0194639Y0074521D01*
X0194827Y0074248D01*
X0195008Y0073970D01*
X0195181Y0073688D01*
X0195348Y0073402D01*
X0195508Y0073112D01*
X0195661Y0072818D01*
X0195806Y0072520D01*
X0195944Y0072219D01*
X0196074Y0071914D01*
X0196197Y0071607D01*
X0196313Y0071296D01*
X0196421Y0070983D01*
X0196521Y0070667D01*
X0196613Y0070349D01*
X0196697Y0070028D01*
X0196774Y0069706D01*
X0196843Y0069382D01*
X0196903Y0069056D01*
X0196956Y0068729D01*
X0197000Y0068401D01*
X0197037Y0068071D01*
X0197065Y0067741D01*
X0197086Y0067410D01*
X0197098Y0067079D01*
X0197102Y0066748D01*
X0197098Y0066417D01*
X0197086Y0066086D01*
X0197065Y0065755D01*
X0197037Y0065425D01*
X0197000Y0065095D01*
X0196956Y0064767D01*
X0196903Y0064440D01*
X0196843Y0064114D01*
X0196774Y0063790D01*
X0196697Y0063468D01*
X0196613Y0063147D01*
X0196521Y0062829D01*
X0196421Y0062513D01*
X0196313Y0062200D01*
X0196197Y0061889D01*
X0196074Y0061582D01*
X0195944Y0061277D01*
X0195806Y0060976D01*
X0195661Y0060678D01*
X0195508Y0060384D01*
X0195348Y0060094D01*
X0195181Y0059808D01*
X0195008Y0059526D01*
X0194827Y0059248D01*
X0194639Y0058975D01*
X0194445Y0058706D01*
X0194245Y0058442D01*
X0194038Y0058184D01*
X0193824Y0057930D01*
X0193605Y0057682D01*
X0193379Y0057439D01*
X0193148Y0057202D01*
X0192911Y0056971D01*
X0192668Y0056745D01*
X0192420Y0056526D01*
X0192166Y0056312D01*
X0191908Y0056105D01*
X0191644Y0055905D01*
X0191375Y0055711D01*
X0191102Y0055523D01*
X0190824Y0055342D01*
X0190542Y0055169D01*
X0190256Y0055002D01*
X0189966Y0054842D01*
X0189672Y0054689D01*
X0189374Y0054544D01*
X0189073Y0054406D01*
X0188768Y0054276D01*
X0188461Y0054153D01*
X0188150Y0054037D01*
X0187837Y0053929D01*
X0187521Y0053829D01*
X0187203Y0053737D01*
X0186882Y0053653D01*
X0186560Y0053576D01*
X0186236Y0053507D01*
X0185910Y0053447D01*
X0185583Y0053394D01*
X0185255Y0053350D01*
X0184925Y0053313D01*
X0184595Y0053285D01*
X0184264Y0053264D01*
X0183933Y0053252D01*
X0183602Y0053248D01*
X0183271Y0053252D01*
X0182940Y0053264D01*
X0182609Y0053285D01*
X0182279Y0053313D01*
X0181949Y0053350D01*
X0181621Y0053394D01*
X0181294Y0053447D01*
X0180968Y0053507D01*
X0180644Y0053576D01*
X0180322Y0053653D01*
X0180001Y0053737D01*
X0179683Y0053829D01*
X0179367Y0053929D01*
X0179054Y0054037D01*
X0178743Y0054153D01*
X0178436Y0054276D01*
X0178131Y0054406D01*
X0177830Y0054544D01*
X0177532Y0054689D01*
X0177238Y0054842D01*
X0176948Y0055002D01*
X0176662Y0055169D01*
X0176380Y0055342D01*
X0176102Y0055523D01*
X0175829Y0055711D01*
X0175560Y0055905D01*
X0175296Y0056105D01*
X0175038Y0056312D01*
X0174784Y0056526D01*
X0174536Y0056745D01*
X0174293Y0056971D01*
X0174056Y0057202D01*
X0173825Y0057439D01*
X0173599Y0057682D01*
X0173380Y0057930D01*
X0173166Y0058184D01*
X0172959Y0058442D01*
X0172759Y0058706D01*
X0172565Y0058975D01*
X0172377Y0059248D01*
X0172196Y0059526D01*
X0172023Y0059808D01*
X0171856Y0060094D01*
X0171696Y0060384D01*
X0171543Y0060678D01*
X0171398Y0060976D01*
X0171260Y0061277D01*
X0171130Y0061582D01*
X0171007Y0061889D01*
X0170891Y0062200D01*
X0170783Y0062513D01*
X0170683Y0062829D01*
X0170591Y0063147D01*
X0170507Y0063468D01*
X0170430Y0063790D01*
X0170361Y0064114D01*
X0170301Y0064440D01*
X0170248Y0064767D01*
X0170204Y0065095D01*
X0170167Y0065425D01*
X0170139Y0065755D01*
X0170118Y0066086D01*
X0170106Y0066417D01*
X0170102Y0066748D01*
D16*
X0067406Y0069906D02*
X0055594Y0069906D01*
X0055594Y0058094D02*
X0067406Y0058094D01*
D17*
X0028390Y0107799D02*
X0028390Y0109799D01*
X0038390Y0112799D02*
X0038390Y0114799D01*
X0046500Y0118000D02*
X0048500Y0118000D01*
X0048500Y0110000D02*
X0046500Y0110000D01*
X0120098Y0124110D02*
X0122461Y0124110D01*
X0122461Y0120961D01*
X0128957Y0120961D01*
X0128957Y0122732D01*
X0136043Y0122732D01*
X0136043Y0120961D01*
X0142539Y0120961D01*
X0142539Y0124110D01*
X0144902Y0124110D01*
X0144902Y0137890D01*
X0142736Y0137890D01*
X0142736Y0141039D01*
X0122264Y0141039D01*
X0122264Y0137890D01*
X0120098Y0137890D01*
X0120098Y0124110D01*
X0128957Y0120961D02*
X0136043Y0120961D01*
D18*
X0107059Y0094087D02*
X0083941Y0094087D01*
X0083941Y0077913D01*
X0107059Y0077913D01*
X0107059Y0094087D01*
D19*
X0168657Y0085945D02*
X0168657Y0085157D01*
D20*
X0206972Y0152031D03*
M02*
