G75*
%MOIN*%
%OFA0B0*%
%FSLAX25Y25*%
%IPPOS*%
%LPD*%
%AMOC8*
5,1,8,0,0,1.08239X$1,22.5*
%
%ADD10C,0.00000*%
%ADD11R,0.03937X0.00984*%
%ADD12R,0.03937X0.03740*%
%ADD13C,0.05200*%
%ADD14R,0.03740X0.03937*%
%ADD15R,0.03150X0.01772*%
%ADD16R,0.05906X0.09449*%
%ADD17R,0.02323X0.02835*%
%ADD18R,0.02835X0.02323*%
%ADD19R,0.01200X0.03900*%
%ADD20OC8,0.04362*%
%ADD21C,0.15024*%
%ADD22R,0.08268X0.08268*%
%ADD23R,0.16000X0.06000*%
%ADD24C,0.23000*%
%ADD25R,0.03543X0.02362*%
%ADD26C,0.07400*%
%ADD27R,0.06890X0.17717*%
%ADD28C,0.01600*%
%ADD29C,0.01000*%
%ADD30C,0.02700*%
%ADD31C,0.01200*%
D10*
X0010374Y0002500D02*
X0191476Y0002500D01*
X0191666Y0002502D01*
X0191856Y0002509D01*
X0192046Y0002521D01*
X0192236Y0002537D01*
X0192425Y0002557D01*
X0192614Y0002583D01*
X0192802Y0002612D01*
X0192989Y0002647D01*
X0193175Y0002686D01*
X0193360Y0002729D01*
X0193545Y0002777D01*
X0193728Y0002829D01*
X0193909Y0002885D01*
X0194089Y0002946D01*
X0194268Y0003012D01*
X0194445Y0003081D01*
X0194621Y0003155D01*
X0194794Y0003233D01*
X0194966Y0003316D01*
X0195135Y0003402D01*
X0195303Y0003492D01*
X0195468Y0003587D01*
X0195631Y0003685D01*
X0195791Y0003788D01*
X0195949Y0003894D01*
X0196104Y0004004D01*
X0196257Y0004117D01*
X0196407Y0004235D01*
X0196553Y0004356D01*
X0196697Y0004480D01*
X0196838Y0004608D01*
X0196976Y0004739D01*
X0197111Y0004874D01*
X0197242Y0005012D01*
X0197370Y0005153D01*
X0197494Y0005297D01*
X0197615Y0005443D01*
X0197733Y0005593D01*
X0197846Y0005746D01*
X0197956Y0005901D01*
X0198062Y0006059D01*
X0198165Y0006219D01*
X0198263Y0006382D01*
X0198358Y0006547D01*
X0198448Y0006715D01*
X0198534Y0006884D01*
X0198617Y0007056D01*
X0198695Y0007229D01*
X0198769Y0007405D01*
X0198838Y0007582D01*
X0198904Y0007761D01*
X0198965Y0007941D01*
X0199021Y0008122D01*
X0199073Y0008305D01*
X0199121Y0008490D01*
X0199164Y0008675D01*
X0199203Y0008861D01*
X0199238Y0009048D01*
X0199267Y0009236D01*
X0199293Y0009425D01*
X0199313Y0009614D01*
X0199329Y0009804D01*
X0199341Y0009994D01*
X0199348Y0010184D01*
X0199350Y0010374D01*
X0199350Y0085177D01*
X0199348Y0085367D01*
X0199341Y0085557D01*
X0199329Y0085747D01*
X0199313Y0085937D01*
X0199293Y0086126D01*
X0199267Y0086315D01*
X0199238Y0086503D01*
X0199203Y0086690D01*
X0199164Y0086876D01*
X0199121Y0087061D01*
X0199073Y0087246D01*
X0199021Y0087429D01*
X0198965Y0087610D01*
X0198904Y0087790D01*
X0198838Y0087969D01*
X0198769Y0088146D01*
X0198695Y0088322D01*
X0198617Y0088495D01*
X0198534Y0088667D01*
X0198448Y0088836D01*
X0198358Y0089004D01*
X0198263Y0089169D01*
X0198165Y0089332D01*
X0198062Y0089492D01*
X0197956Y0089650D01*
X0197846Y0089805D01*
X0197733Y0089958D01*
X0197615Y0090108D01*
X0197494Y0090254D01*
X0197370Y0090398D01*
X0197242Y0090539D01*
X0197111Y0090677D01*
X0196976Y0090812D01*
X0196838Y0090943D01*
X0196697Y0091071D01*
X0196553Y0091195D01*
X0196407Y0091316D01*
X0196257Y0091434D01*
X0196104Y0091547D01*
X0195949Y0091657D01*
X0195791Y0091763D01*
X0195631Y0091866D01*
X0195468Y0091964D01*
X0195303Y0092059D01*
X0195135Y0092149D01*
X0194966Y0092235D01*
X0194794Y0092318D01*
X0194621Y0092396D01*
X0194445Y0092470D01*
X0194268Y0092539D01*
X0194089Y0092605D01*
X0193909Y0092666D01*
X0193728Y0092722D01*
X0193545Y0092774D01*
X0193360Y0092822D01*
X0193175Y0092865D01*
X0192989Y0092904D01*
X0192802Y0092939D01*
X0192614Y0092968D01*
X0192425Y0092994D01*
X0192236Y0093014D01*
X0192046Y0093030D01*
X0191856Y0093042D01*
X0191666Y0093049D01*
X0191476Y0093051D01*
X0010374Y0093051D01*
X0010184Y0093049D01*
X0009994Y0093042D01*
X0009804Y0093030D01*
X0009614Y0093014D01*
X0009425Y0092994D01*
X0009236Y0092968D01*
X0009048Y0092939D01*
X0008861Y0092904D01*
X0008675Y0092865D01*
X0008490Y0092822D01*
X0008305Y0092774D01*
X0008122Y0092722D01*
X0007941Y0092666D01*
X0007761Y0092605D01*
X0007582Y0092539D01*
X0007405Y0092470D01*
X0007229Y0092396D01*
X0007056Y0092318D01*
X0006884Y0092235D01*
X0006715Y0092149D01*
X0006547Y0092059D01*
X0006382Y0091964D01*
X0006219Y0091866D01*
X0006059Y0091763D01*
X0005901Y0091657D01*
X0005746Y0091547D01*
X0005593Y0091434D01*
X0005443Y0091316D01*
X0005297Y0091195D01*
X0005153Y0091071D01*
X0005012Y0090943D01*
X0004874Y0090812D01*
X0004739Y0090677D01*
X0004608Y0090539D01*
X0004480Y0090398D01*
X0004356Y0090254D01*
X0004235Y0090108D01*
X0004117Y0089958D01*
X0004004Y0089805D01*
X0003894Y0089650D01*
X0003788Y0089492D01*
X0003685Y0089332D01*
X0003587Y0089169D01*
X0003492Y0089004D01*
X0003402Y0088836D01*
X0003316Y0088667D01*
X0003233Y0088495D01*
X0003155Y0088322D01*
X0003081Y0088146D01*
X0003012Y0087969D01*
X0002946Y0087790D01*
X0002885Y0087610D01*
X0002829Y0087429D01*
X0002777Y0087246D01*
X0002729Y0087061D01*
X0002686Y0086876D01*
X0002647Y0086690D01*
X0002612Y0086503D01*
X0002583Y0086315D01*
X0002557Y0086126D01*
X0002537Y0085937D01*
X0002521Y0085747D01*
X0002509Y0085557D01*
X0002502Y0085367D01*
X0002500Y0085177D01*
X0002500Y0010374D01*
X0002502Y0010184D01*
X0002509Y0009994D01*
X0002521Y0009804D01*
X0002537Y0009614D01*
X0002557Y0009425D01*
X0002583Y0009236D01*
X0002612Y0009048D01*
X0002647Y0008861D01*
X0002686Y0008675D01*
X0002729Y0008490D01*
X0002777Y0008305D01*
X0002829Y0008122D01*
X0002885Y0007941D01*
X0002946Y0007761D01*
X0003012Y0007582D01*
X0003081Y0007405D01*
X0003155Y0007229D01*
X0003233Y0007056D01*
X0003316Y0006884D01*
X0003402Y0006715D01*
X0003492Y0006547D01*
X0003587Y0006382D01*
X0003685Y0006219D01*
X0003788Y0006059D01*
X0003894Y0005901D01*
X0004004Y0005746D01*
X0004117Y0005593D01*
X0004235Y0005443D01*
X0004356Y0005297D01*
X0004480Y0005153D01*
X0004608Y0005012D01*
X0004739Y0004874D01*
X0004874Y0004739D01*
X0005012Y0004608D01*
X0005153Y0004480D01*
X0005297Y0004356D01*
X0005443Y0004235D01*
X0005593Y0004117D01*
X0005746Y0004004D01*
X0005901Y0003894D01*
X0006059Y0003788D01*
X0006219Y0003685D01*
X0006382Y0003587D01*
X0006547Y0003492D01*
X0006715Y0003402D01*
X0006884Y0003316D01*
X0007056Y0003233D01*
X0007229Y0003155D01*
X0007405Y0003081D01*
X0007582Y0003012D01*
X0007761Y0002946D01*
X0007941Y0002885D01*
X0008122Y0002829D01*
X0008305Y0002777D01*
X0008490Y0002729D01*
X0008675Y0002686D01*
X0008861Y0002647D01*
X0009048Y0002612D01*
X0009236Y0002583D01*
X0009425Y0002557D01*
X0009614Y0002537D01*
X0009804Y0002521D01*
X0009994Y0002509D01*
X0010184Y0002502D01*
X0010374Y0002500D01*
D11*
X0054070Y0060862D03*
X0054070Y0062831D03*
X0054070Y0064799D03*
X0054070Y0066768D03*
X0054070Y0068736D03*
X0070709Y0068736D03*
X0070709Y0066768D03*
X0070709Y0064799D03*
X0070709Y0062831D03*
X0070709Y0060862D03*
D12*
X0070500Y0049650D03*
X0062500Y0049650D03*
X0054500Y0049650D03*
X0054500Y0043350D03*
X0062500Y0043350D03*
X0070500Y0043350D03*
X0070500Y0032650D03*
X0062500Y0032650D03*
X0054500Y0032650D03*
X0054500Y0026350D03*
X0062500Y0026350D03*
X0070500Y0026350D03*
X0083500Y0016650D03*
X0092500Y0016650D03*
X0101500Y0016650D03*
X0110500Y0016650D03*
X0110500Y0010350D03*
X0101500Y0010350D03*
X0092500Y0010350D03*
X0083500Y0010350D03*
X0118500Y0029350D03*
X0127500Y0029350D03*
X0136500Y0029350D03*
X0136500Y0035650D03*
X0127500Y0035650D03*
X0118500Y0035650D03*
X0116500Y0052350D03*
X0126500Y0052350D03*
X0136500Y0052350D03*
X0146500Y0052350D03*
X0156500Y0052350D03*
X0156500Y0058650D03*
X0146500Y0058650D03*
X0136500Y0058650D03*
X0126500Y0058650D03*
X0116500Y0058650D03*
X0049406Y0078650D03*
X0041390Y0078949D03*
X0049406Y0084949D03*
X0041390Y0072650D03*
X0034390Y0053849D03*
X0026390Y0053949D03*
X0026390Y0047650D03*
X0034390Y0047550D03*
X0138500Y0017650D03*
X0138500Y0011350D03*
D13*
X0085000Y0083500D03*
X0066000Y0083500D03*
D14*
X0041539Y0059799D03*
X0035240Y0059799D03*
D15*
X0055594Y0019437D03*
X0055594Y0015500D03*
X0055594Y0011563D03*
X0067406Y0011563D03*
X0067406Y0015500D03*
X0067406Y0019437D03*
D16*
X0061500Y0015500D03*
D17*
X0030280Y0060299D03*
X0026500Y0060299D03*
X0036500Y0065299D03*
X0040280Y0065299D03*
D18*
X0047500Y0063390D03*
X0047500Y0059610D03*
X0047500Y0067610D03*
X0047500Y0071390D03*
D19*
X0083984Y0048987D03*
X0086543Y0048987D03*
X0089102Y0048987D03*
X0091661Y0048987D03*
X0094220Y0048987D03*
X0096780Y0048987D03*
X0099339Y0048987D03*
X0101898Y0048987D03*
X0104457Y0048987D03*
X0107016Y0048987D03*
X0107016Y0026013D03*
X0104457Y0026013D03*
X0101898Y0026013D03*
X0099339Y0026013D03*
X0096780Y0026013D03*
X0094220Y0026013D03*
X0091661Y0026013D03*
X0089102Y0026013D03*
X0086543Y0026013D03*
X0083984Y0026013D03*
D20*
X0122500Y0080000D03*
X0127500Y0080000D03*
X0132500Y0080000D03*
X0137500Y0080000D03*
X0142500Y0080000D03*
X0142500Y0085000D03*
X0137500Y0085000D03*
X0132500Y0085000D03*
X0127500Y0085000D03*
X0122500Y0085000D03*
D21*
X0168657Y0046500D03*
X0188343Y0046500D03*
D22*
X0178500Y0057524D03*
D23*
X0011500Y0057500D03*
X0011500Y0047500D03*
X0011500Y0037500D03*
D24*
X0018248Y0018248D03*
X0018248Y0077303D03*
X0183602Y0077303D03*
X0183602Y0018248D03*
D25*
X0130028Y0018240D03*
X0130028Y0014500D03*
X0130028Y0010760D03*
X0120972Y0010760D03*
X0120972Y0014500D03*
X0120972Y0018240D03*
D26*
X0149500Y0014500D03*
X0159500Y0014500D03*
D27*
X0157898Y0031500D03*
X0145102Y0031500D03*
D28*
X0145102Y0024252D01*
X0138500Y0017650D01*
X0138500Y0017898D01*
X0144102Y0017898D01*
X0146102Y0017898D01*
X0149500Y0014500D01*
X0154500Y0015563D02*
X0154500Y0020500D01*
X0157898Y0030500D02*
X0166500Y0021898D01*
X0166500Y0008500D01*
X0164500Y0006500D01*
X0147500Y0006500D01*
X0133500Y0006500D01*
X0130028Y0009972D01*
X0130028Y0010760D01*
X0125500Y0011500D02*
X0125500Y0017500D01*
X0126500Y0018500D01*
X0127500Y0018500D01*
X0127500Y0029350D01*
X0127500Y0035650D02*
X0118500Y0035650D01*
X0127500Y0035650D02*
X0136500Y0035650D01*
X0157898Y0031500D02*
X0157898Y0030500D01*
X0138500Y0017650D02*
X0137909Y0018240D01*
X0130028Y0018240D01*
X0129768Y0018500D01*
X0127500Y0018500D01*
X0120972Y0018240D02*
X0116091Y0018240D01*
X0112091Y0018240D01*
X0110500Y0016650D01*
X0101500Y0016650D01*
X0097000Y0014500D02*
X0097000Y0010500D01*
X0098000Y0009500D01*
X0101350Y0009500D01*
X0101350Y0010201D01*
X0101500Y0010350D01*
X0101500Y0008500D01*
X0103500Y0006500D01*
X0114500Y0006500D01*
X0116500Y0008500D01*
X0116500Y0013500D01*
X0117500Y0014500D01*
X0120972Y0014500D01*
X0120972Y0010760D02*
X0124760Y0010760D01*
X0125500Y0011500D01*
X0097000Y0014500D02*
X0094850Y0016650D01*
X0092500Y0016650D01*
X0092500Y0021780D01*
X0085780Y0021780D01*
X0083500Y0019500D01*
X0083500Y0016650D01*
X0079650Y0020500D01*
X0078650Y0020500D01*
X0073650Y0015500D01*
X0070500Y0015500D01*
X0070500Y0008500D01*
X0069500Y0007500D01*
X0047500Y0007500D01*
X0045500Y0009500D01*
X0045500Y0036500D01*
X0048500Y0039500D01*
X0066350Y0039500D01*
X0062500Y0043350D01*
X0054500Y0043350D01*
X0061350Y0049650D02*
X0056000Y0055000D01*
X0049000Y0055000D01*
X0047500Y0056500D01*
X0047500Y0059610D01*
X0049890Y0059610D01*
X0051000Y0058500D01*
X0054070Y0060862D02*
X0060433Y0054500D01*
X0072500Y0054500D01*
X0074500Y0052500D01*
X0074500Y0041500D01*
X0072500Y0039500D01*
X0066350Y0039500D01*
X0062500Y0049650D02*
X0061350Y0049650D01*
X0062500Y0049650D02*
X0070500Y0049650D01*
X0094220Y0048987D02*
X0094220Y0039500D01*
X0097500Y0039500D01*
X0094220Y0026013D02*
X0094220Y0021780D01*
X0092500Y0021780D01*
X0078650Y0020500D02*
X0078650Y0023350D01*
X0075500Y0026500D01*
X0070650Y0026500D01*
X0070500Y0026350D02*
X0062500Y0026350D01*
X0054500Y0026350D01*
X0067406Y0015500D02*
X0070500Y0015500D01*
X0023949Y0053949D02*
X0017500Y0047500D01*
X0011500Y0047500D01*
X0023949Y0053949D02*
X0026390Y0053949D01*
X0026500Y0054059D01*
X0026500Y0060299D01*
X0030280Y0060299D02*
X0034740Y0060299D01*
X0035240Y0059799D01*
X0034390Y0058949D01*
X0034390Y0053849D01*
X0035240Y0059799D02*
X0035240Y0064039D01*
X0036500Y0065299D01*
X0040280Y0065299D02*
X0041390Y0066409D01*
X0041390Y0067500D01*
X0041390Y0072650D01*
X0047500Y0071390D02*
X0051390Y0071390D01*
X0054070Y0073985D02*
X0054070Y0068736D01*
X0048390Y0067610D02*
X0047500Y0067610D01*
X0047500Y0063390D02*
X0045130Y0063390D01*
X0041539Y0059799D01*
X0054070Y0073985D02*
X0049406Y0078650D01*
X0061150Y0078650D01*
X0066000Y0083500D01*
X0049406Y0084949D02*
X0047390Y0084949D01*
X0041390Y0078949D01*
X0101500Y0076500D02*
X0101500Y0068500D01*
X0105500Y0064500D01*
X0101500Y0076500D02*
X0109500Y0084500D01*
X0116500Y0084500D01*
X0121000Y0080000D01*
X0122500Y0080000D01*
X0165807Y0049350D02*
X0168657Y0046500D01*
D29*
X0007480Y0004695D02*
X0005867Y0005867D01*
X0004695Y0007480D01*
X0004078Y0009377D01*
X0004000Y0010374D01*
X0004000Y0033000D01*
X0011000Y0033000D01*
X0011000Y0037000D01*
X0012000Y0037000D01*
X0012000Y0038000D01*
X0011000Y0038000D01*
X0011000Y0042000D01*
X0004000Y0042000D01*
X0004000Y0043000D01*
X0020121Y0043000D01*
X0021000Y0043879D01*
X0021000Y0047747D01*
X0022921Y0049669D01*
X0022921Y0048085D01*
X0025955Y0048085D01*
X0025955Y0047215D01*
X0022921Y0047215D01*
X0022921Y0045582D01*
X0023023Y0045201D01*
X0023221Y0044859D01*
X0023500Y0044579D01*
X0023842Y0044382D01*
X0024224Y0044280D01*
X0025955Y0044280D01*
X0025955Y0047214D01*
X0026825Y0047214D01*
X0026825Y0044280D01*
X0028556Y0044280D01*
X0028937Y0044382D01*
X0029279Y0044579D01*
X0029559Y0044859D01*
X0029756Y0045201D01*
X0029858Y0045582D01*
X0029858Y0047215D01*
X0026825Y0047215D01*
X0026825Y0048085D01*
X0029858Y0048085D01*
X0029858Y0049717D01*
X0029756Y0050099D01*
X0029559Y0050441D01*
X0029279Y0050720D01*
X0029179Y0050778D01*
X0029858Y0051457D01*
X0029858Y0056440D01*
X0028980Y0057319D01*
X0028800Y0057319D01*
X0028800Y0057382D01*
X0031870Y0057382D01*
X0031870Y0057219D01*
X0031800Y0057219D01*
X0030921Y0056340D01*
X0030921Y0051357D01*
X0031601Y0050678D01*
X0031500Y0050620D01*
X0031221Y0050341D01*
X0031023Y0049999D01*
X0030921Y0049617D01*
X0030921Y0047985D01*
X0033955Y0047985D01*
X0033955Y0047115D01*
X0030921Y0047115D01*
X0030921Y0045482D01*
X0031023Y0045101D01*
X0031221Y0044759D01*
X0031500Y0044479D01*
X0031842Y0044282D01*
X0032224Y0044180D01*
X0033955Y0044180D01*
X0033955Y0047114D01*
X0034825Y0047114D01*
X0034825Y0044180D01*
X0036556Y0044180D01*
X0036937Y0044282D01*
X0037279Y0044479D01*
X0037559Y0044759D01*
X0037756Y0045101D01*
X0037858Y0045482D01*
X0037858Y0047115D01*
X0034825Y0047115D01*
X0034825Y0047985D01*
X0037858Y0047985D01*
X0037858Y0049617D01*
X0037756Y0049999D01*
X0037559Y0050341D01*
X0037279Y0050620D01*
X0037179Y0050678D01*
X0037858Y0051357D01*
X0037858Y0056340D01*
X0037800Y0056399D01*
X0038390Y0056989D01*
X0039048Y0056331D01*
X0044031Y0056331D01*
X0044909Y0057209D01*
X0044909Y0057501D01*
X0045200Y0057210D01*
X0045200Y0055547D01*
X0046547Y0054200D01*
X0048047Y0052700D01*
X0051591Y0052700D01*
X0051331Y0052441D01*
X0051134Y0052099D01*
X0051031Y0051717D01*
X0051031Y0050085D01*
X0054065Y0050085D01*
X0054065Y0049215D01*
X0051031Y0049215D01*
X0051031Y0047582D01*
X0051134Y0047201D01*
X0051331Y0046859D01*
X0051610Y0046579D01*
X0051711Y0046521D01*
X0051031Y0045842D01*
X0051031Y0041800D01*
X0047547Y0041800D01*
X0044547Y0038800D01*
X0043200Y0037453D01*
X0043200Y0008547D01*
X0045200Y0006547D01*
X0046547Y0005200D01*
X0070453Y0005200D01*
X0071453Y0006200D01*
X0072800Y0007547D01*
X0072800Y0013200D01*
X0074602Y0013200D01*
X0079150Y0017747D01*
X0080031Y0016865D01*
X0080031Y0014158D01*
X0080711Y0013479D01*
X0080610Y0013421D01*
X0080331Y0013141D01*
X0080134Y0012799D01*
X0080031Y0012418D01*
X0080031Y0010785D01*
X0083065Y0010785D01*
X0083065Y0009915D01*
X0083935Y0009915D01*
X0083935Y0006980D01*
X0085666Y0006980D01*
X0086047Y0007083D01*
X0086390Y0007280D01*
X0086669Y0007559D01*
X0086866Y0007901D01*
X0086968Y0008283D01*
X0086968Y0009915D01*
X0083935Y0009915D01*
X0083935Y0010785D01*
X0086968Y0010785D01*
X0086968Y0012418D01*
X0086866Y0012799D01*
X0086669Y0013141D01*
X0086390Y0013421D01*
X0086289Y0013479D01*
X0086968Y0014158D01*
X0086968Y0019141D01*
X0086681Y0019428D01*
X0086732Y0019480D01*
X0089370Y0019480D01*
X0089031Y0019141D01*
X0089031Y0014158D01*
X0089711Y0013479D01*
X0089610Y0013421D01*
X0089331Y0013141D01*
X0089134Y0012799D01*
X0089031Y0012418D01*
X0089031Y0010785D01*
X0092065Y0010785D01*
X0092065Y0009915D01*
X0092935Y0009915D01*
X0092935Y0006980D01*
X0094666Y0006980D01*
X0095047Y0007083D01*
X0095390Y0007280D01*
X0095669Y0007559D01*
X0095866Y0007901D01*
X0095968Y0008280D01*
X0097047Y0007200D01*
X0098690Y0007200D01*
X0098910Y0006980D01*
X0099767Y0006980D01*
X0101200Y0005547D01*
X0102547Y0004200D01*
X0115453Y0004200D01*
X0117453Y0006200D01*
X0118800Y0007547D01*
X0118800Y0008079D01*
X0123365Y0008079D01*
X0123747Y0008460D01*
X0125713Y0008460D01*
X0126453Y0009200D01*
X0126756Y0009503D01*
X0126756Y0008957D01*
X0127635Y0008079D01*
X0128669Y0008079D01*
X0131200Y0005547D01*
X0132547Y0004200D01*
X0165453Y0004200D01*
X0167453Y0006200D01*
X0168800Y0007547D01*
X0168800Y0022850D01*
X0162843Y0028808D01*
X0162843Y0039570D01*
X0163553Y0038860D01*
X0166865Y0037488D01*
X0170450Y0037488D01*
X0173762Y0038860D01*
X0176297Y0041395D01*
X0177669Y0044707D01*
X0177669Y0048293D01*
X0176297Y0051605D01*
X0176012Y0051890D01*
X0180988Y0051890D01*
X0180703Y0051605D01*
X0179331Y0048293D01*
X0179331Y0044707D01*
X0180703Y0041395D01*
X0183238Y0038860D01*
X0186550Y0037488D01*
X0190135Y0037488D01*
X0193447Y0038860D01*
X0195982Y0041395D01*
X0197354Y0044707D01*
X0197354Y0048293D01*
X0195982Y0051605D01*
X0193447Y0054140D01*
X0190135Y0055512D01*
X0186550Y0055512D01*
X0184380Y0054613D01*
X0184134Y0054860D01*
X0184134Y0062279D01*
X0183255Y0063157D01*
X0173745Y0063157D01*
X0172866Y0062279D01*
X0172866Y0060624D01*
X0159968Y0060624D01*
X0159968Y0061141D01*
X0159090Y0062020D01*
X0156100Y0062020D01*
X0152519Y0065600D01*
X0147570Y0065600D01*
X0148600Y0066630D01*
X0148600Y0083370D01*
X0147370Y0084600D01*
X0146181Y0085789D01*
X0146181Y0086525D01*
X0144025Y0088681D01*
X0140975Y0088681D01*
X0140000Y0087706D01*
X0139025Y0088681D01*
X0135975Y0088681D01*
X0135000Y0087706D01*
X0134025Y0088681D01*
X0130975Y0088681D01*
X0130000Y0087706D01*
X0129025Y0088681D01*
X0128289Y0088681D01*
X0126370Y0090600D01*
X0106630Y0090600D01*
X0105400Y0089370D01*
X0095400Y0079370D01*
X0095400Y0067430D01*
X0095084Y0067114D01*
X0094650Y0066067D01*
X0094650Y0064933D01*
X0095084Y0063886D01*
X0093370Y0065600D01*
X0088430Y0065600D01*
X0088114Y0065916D01*
X0087067Y0066350D01*
X0085933Y0066350D01*
X0084886Y0065916D01*
X0084084Y0065114D01*
X0084017Y0064953D01*
X0080102Y0068868D01*
X0074178Y0068868D01*
X0074178Y0069850D01*
X0073299Y0070728D01*
X0071687Y0070728D01*
X0071579Y0070836D01*
X0066866Y0070836D01*
X0065630Y0069600D01*
X0064400Y0068370D01*
X0064400Y0058630D01*
X0065400Y0057630D01*
X0066230Y0056800D01*
X0061385Y0056800D01*
X0057539Y0060646D01*
X0057539Y0065913D01*
X0057504Y0065948D01*
X0057539Y0066078D01*
X0057539Y0066768D01*
X0057539Y0067457D01*
X0057504Y0067588D01*
X0057539Y0067623D01*
X0057539Y0069850D01*
X0056660Y0070728D01*
X0056370Y0070728D01*
X0056370Y0074937D01*
X0054958Y0076350D01*
X0062102Y0076350D01*
X0065162Y0079409D01*
X0065184Y0079400D01*
X0066816Y0079400D01*
X0068322Y0080024D01*
X0069476Y0081178D01*
X0070100Y0082684D01*
X0070100Y0084316D01*
X0069476Y0085822D01*
X0068322Y0086976D01*
X0066816Y0087600D01*
X0065184Y0087600D01*
X0063678Y0086976D01*
X0062524Y0085822D01*
X0061900Y0084316D01*
X0061900Y0082684D01*
X0061909Y0082662D01*
X0060197Y0080950D01*
X0052874Y0080950D01*
X0052874Y0081141D01*
X0052195Y0081820D01*
X0052295Y0081878D01*
X0052574Y0082158D01*
X0052772Y0082500D01*
X0052874Y0082881D01*
X0052874Y0084514D01*
X0049841Y0084514D01*
X0049841Y0085384D01*
X0052874Y0085384D01*
X0052874Y0087016D01*
X0052772Y0087398D01*
X0052574Y0087740D01*
X0052295Y0088019D01*
X0051953Y0088217D01*
X0051571Y0088319D01*
X0049841Y0088319D01*
X0049841Y0085384D01*
X0048970Y0085384D01*
X0048970Y0084514D01*
X0045937Y0084514D01*
X0045937Y0082881D01*
X0046039Y0082500D01*
X0046237Y0082158D01*
X0046516Y0081878D01*
X0046616Y0081820D01*
X0045937Y0081141D01*
X0045937Y0076158D01*
X0046816Y0075280D01*
X0049523Y0075280D01*
X0050452Y0074350D01*
X0050433Y0074350D01*
X0049589Y0074000D01*
X0049539Y0074051D01*
X0045461Y0074051D01*
X0044858Y0073448D01*
X0044858Y0075141D01*
X0044179Y0075820D01*
X0044279Y0075878D01*
X0044559Y0076158D01*
X0044756Y0076500D01*
X0044858Y0076881D01*
X0044858Y0078514D01*
X0041825Y0078514D01*
X0041825Y0079384D01*
X0044858Y0079384D01*
X0044858Y0081016D01*
X0044756Y0081398D01*
X0044559Y0081740D01*
X0044279Y0082019D01*
X0043937Y0082217D01*
X0043556Y0082319D01*
X0041825Y0082319D01*
X0041825Y0079384D01*
X0040955Y0079384D01*
X0040955Y0082319D01*
X0039224Y0082319D01*
X0038842Y0082217D01*
X0038500Y0082019D01*
X0038221Y0081740D01*
X0038023Y0081398D01*
X0037921Y0081016D01*
X0037921Y0079384D01*
X0040955Y0079384D01*
X0040955Y0078514D01*
X0037921Y0078514D01*
X0037921Y0076881D01*
X0038023Y0076500D01*
X0038221Y0076158D01*
X0038500Y0075878D01*
X0038601Y0075820D01*
X0037921Y0075141D01*
X0037921Y0070158D01*
X0038800Y0069280D01*
X0039090Y0069280D01*
X0039090Y0068217D01*
X0038497Y0068217D01*
X0038390Y0068109D01*
X0038283Y0068217D01*
X0034717Y0068217D01*
X0033839Y0067338D01*
X0033839Y0065890D01*
X0032940Y0064992D01*
X0032940Y0063268D01*
X0032749Y0063268D01*
X0032380Y0062899D01*
X0032062Y0063217D01*
X0028497Y0063217D01*
X0028390Y0063109D01*
X0028283Y0063217D01*
X0024717Y0063217D01*
X0023839Y0062338D01*
X0023839Y0058261D01*
X0024200Y0057899D01*
X0024200Y0057319D01*
X0023800Y0057319D01*
X0022921Y0056440D01*
X0022921Y0056174D01*
X0021649Y0054902D01*
X0020982Y0054234D01*
X0021000Y0054303D01*
X0021000Y0057000D01*
X0012000Y0057000D01*
X0012000Y0058000D01*
X0011000Y0058000D01*
X0011000Y0062000D01*
X0004000Y0062000D01*
X0004000Y0085177D01*
X0004078Y0086174D01*
X0004695Y0088071D01*
X0005867Y0089684D01*
X0007480Y0090856D01*
X0009377Y0091473D01*
X0010374Y0091551D01*
X0191476Y0091551D01*
X0192473Y0091473D01*
X0194370Y0090856D01*
X0195983Y0089684D01*
X0197156Y0088071D01*
X0197772Y0086174D01*
X0197850Y0085177D01*
X0197850Y0010374D01*
X0197772Y0009377D01*
X0197156Y0007480D01*
X0195983Y0005867D01*
X0194370Y0004695D01*
X0192473Y0004078D01*
X0191476Y0004000D01*
X0010374Y0004000D01*
X0009377Y0004078D01*
X0007480Y0004695D01*
X0008089Y0004497D02*
X0102250Y0004497D01*
X0101252Y0005496D02*
X0070748Y0005496D01*
X0071747Y0006494D02*
X0100253Y0006494D01*
X0096755Y0007493D02*
X0095602Y0007493D01*
X0092935Y0007493D02*
X0092065Y0007493D01*
X0092065Y0006980D02*
X0092065Y0009915D01*
X0089031Y0009915D01*
X0089031Y0008283D01*
X0089134Y0007901D01*
X0089331Y0007559D01*
X0089610Y0007280D01*
X0089953Y0007083D01*
X0090334Y0006980D01*
X0092065Y0006980D01*
X0092065Y0008491D02*
X0092935Y0008491D01*
X0092935Y0009490D02*
X0092065Y0009490D01*
X0092065Y0010488D02*
X0083935Y0010488D01*
X0083065Y0010488D02*
X0072800Y0010488D01*
X0072800Y0009490D02*
X0080031Y0009490D01*
X0080031Y0009915D02*
X0080031Y0008283D01*
X0080134Y0007901D01*
X0080331Y0007559D01*
X0080610Y0007280D01*
X0080953Y0007083D01*
X0081334Y0006980D01*
X0083065Y0006980D01*
X0083065Y0009915D01*
X0080031Y0009915D01*
X0080031Y0011487D02*
X0072800Y0011487D01*
X0072800Y0012485D02*
X0080049Y0012485D01*
X0080706Y0013484D02*
X0074886Y0013484D01*
X0075884Y0014482D02*
X0080031Y0014482D01*
X0080031Y0015481D02*
X0076883Y0015481D01*
X0077881Y0016479D02*
X0080031Y0016479D01*
X0079419Y0017478D02*
X0078880Y0017478D01*
X0082075Y0021327D02*
X0080950Y0022453D01*
X0080950Y0024303D01*
X0080142Y0025111D01*
X0080916Y0025886D01*
X0081350Y0026933D01*
X0081350Y0028067D01*
X0080916Y0029114D01*
X0080600Y0029430D01*
X0080600Y0030630D01*
X0088017Y0038047D01*
X0088084Y0037886D01*
X0088886Y0037084D01*
X0089400Y0036871D01*
X0089400Y0029463D01*
X0087881Y0029463D01*
X0087823Y0029404D01*
X0087765Y0029463D01*
X0085322Y0029463D01*
X0085199Y0029340D01*
X0085163Y0029360D01*
X0084782Y0029463D01*
X0083984Y0029463D01*
X0083187Y0029463D01*
X0082805Y0029360D01*
X0082463Y0029163D01*
X0082184Y0028884D01*
X0081986Y0028542D01*
X0081884Y0028160D01*
X0081884Y0026013D01*
X0083984Y0026013D01*
X0083984Y0029463D01*
X0083984Y0026013D01*
X0083984Y0026013D01*
X0083984Y0026013D01*
X0081884Y0026013D01*
X0081884Y0023865D01*
X0081986Y0023484D01*
X0082184Y0023142D01*
X0082463Y0022862D01*
X0082805Y0022665D01*
X0083187Y0022563D01*
X0083310Y0022563D01*
X0082547Y0021800D01*
X0082075Y0021327D01*
X0081931Y0021472D02*
X0082219Y0021472D01*
X0083218Y0022470D02*
X0080950Y0022470D01*
X0080950Y0023469D02*
X0081995Y0023469D01*
X0081884Y0024467D02*
X0080785Y0024467D01*
X0080496Y0025466D02*
X0081884Y0025466D01*
X0081884Y0026464D02*
X0081156Y0026464D01*
X0081350Y0027463D02*
X0081884Y0027463D01*
X0081965Y0028461D02*
X0081187Y0028461D01*
X0080600Y0029460D02*
X0083176Y0029460D01*
X0083984Y0029460D02*
X0083984Y0029460D01*
X0084792Y0029460D02*
X0085319Y0029460D01*
X0083984Y0028461D02*
X0083984Y0028461D01*
X0083984Y0027463D02*
X0083984Y0027463D01*
X0083984Y0026464D02*
X0083984Y0026464D01*
X0087767Y0029460D02*
X0087878Y0029460D01*
X0089400Y0030458D02*
X0080600Y0030458D01*
X0081427Y0031457D02*
X0089400Y0031457D01*
X0089400Y0032455D02*
X0082425Y0032455D01*
X0083424Y0033454D02*
X0089400Y0033454D01*
X0089400Y0034452D02*
X0084422Y0034452D01*
X0085421Y0035451D02*
X0089400Y0035451D01*
X0089400Y0036449D02*
X0086419Y0036449D01*
X0087418Y0037448D02*
X0088522Y0037448D01*
X0081474Y0040443D02*
X0076696Y0040443D01*
X0076800Y0040547D02*
X0076800Y0053453D01*
X0075453Y0054800D01*
X0073853Y0056400D01*
X0074370Y0056400D01*
X0076370Y0058400D01*
X0081630Y0058400D01*
X0083047Y0056983D01*
X0082886Y0056916D01*
X0082258Y0056289D01*
X0081916Y0057114D01*
X0081114Y0057916D01*
X0080067Y0058350D01*
X0078933Y0058350D01*
X0077886Y0057916D01*
X0077084Y0057114D01*
X0076650Y0056067D01*
X0076650Y0054933D01*
X0077084Y0053886D01*
X0077886Y0053084D01*
X0078933Y0052650D01*
X0079380Y0052650D01*
X0081884Y0050146D01*
X0081884Y0046416D01*
X0082763Y0045537D01*
X0085206Y0045537D01*
X0085264Y0045596D01*
X0085322Y0045537D01*
X0086568Y0045537D01*
X0080130Y0039100D01*
X0075353Y0039100D01*
X0076800Y0040547D01*
X0076800Y0041442D02*
X0082472Y0041442D01*
X0083471Y0042440D02*
X0076800Y0042440D01*
X0076800Y0043439D02*
X0084469Y0043439D01*
X0085468Y0044437D02*
X0076800Y0044437D01*
X0076800Y0045436D02*
X0086466Y0045436D01*
X0081884Y0046434D02*
X0076800Y0046434D01*
X0076800Y0047433D02*
X0081884Y0047433D01*
X0081884Y0048432D02*
X0076800Y0048432D01*
X0076800Y0049430D02*
X0081884Y0049430D01*
X0081602Y0050429D02*
X0076800Y0050429D01*
X0076800Y0051427D02*
X0080603Y0051427D01*
X0079605Y0052426D02*
X0076800Y0052426D01*
X0076800Y0053424D02*
X0077545Y0053424D01*
X0076861Y0054423D02*
X0075830Y0054423D01*
X0076650Y0055421D02*
X0074832Y0055421D01*
X0074389Y0056420D02*
X0076796Y0056420D01*
X0077388Y0057418D02*
X0075388Y0057418D01*
X0081612Y0057418D02*
X0082612Y0057418D01*
X0082389Y0056420D02*
X0082204Y0056420D01*
X0089555Y0059415D02*
X0093615Y0059415D01*
X0094614Y0058417D02*
X0090553Y0058417D01*
X0091552Y0057418D02*
X0095612Y0057418D01*
X0096611Y0056420D02*
X0092550Y0056420D01*
X0092370Y0056600D02*
X0087953Y0061017D01*
X0088114Y0061084D01*
X0088430Y0061400D01*
X0091630Y0061400D01*
X0099798Y0053233D01*
X0099798Y0052437D01*
X0098117Y0052437D01*
X0097994Y0052314D01*
X0097959Y0052335D01*
X0097577Y0052437D01*
X0096780Y0052437D01*
X0096780Y0048988D01*
X0096779Y0048988D01*
X0096779Y0052437D01*
X0095982Y0052437D01*
X0095601Y0052335D01*
X0095565Y0052314D01*
X0095442Y0052437D01*
X0093600Y0052437D01*
X0093600Y0055370D01*
X0092370Y0056600D01*
X0093549Y0055421D02*
X0097609Y0055421D01*
X0098608Y0054423D02*
X0093600Y0054423D01*
X0093600Y0053424D02*
X0099606Y0053424D01*
X0098105Y0052426D02*
X0097621Y0052426D01*
X0096780Y0052426D02*
X0096779Y0052426D01*
X0095938Y0052426D02*
X0095454Y0052426D01*
X0096779Y0051427D02*
X0096780Y0051427D01*
X0096779Y0050429D02*
X0096780Y0050429D01*
X0096779Y0049430D02*
X0096780Y0049430D01*
X0096780Y0048987D02*
X0096780Y0045537D01*
X0097577Y0045537D01*
X0097959Y0045640D01*
X0097994Y0045660D01*
X0098117Y0045537D01*
X0100560Y0045537D01*
X0100618Y0045596D01*
X0100676Y0045537D01*
X0103119Y0045537D01*
X0103177Y0045596D01*
X0103235Y0045537D01*
X0105678Y0045537D01*
X0105736Y0045596D01*
X0105794Y0045537D01*
X0108237Y0045537D01*
X0109116Y0046416D01*
X0109116Y0051400D01*
X0113031Y0051400D01*
X0113031Y0049859D01*
X0113910Y0048980D01*
X0119090Y0048980D01*
X0119968Y0049859D01*
X0119968Y0054842D01*
X0119310Y0055500D01*
X0119968Y0056158D01*
X0119968Y0056550D01*
X0123031Y0056550D01*
X0123031Y0056158D01*
X0123711Y0055479D01*
X0123610Y0055421D01*
X0123331Y0055141D01*
X0123134Y0054799D01*
X0123031Y0054418D01*
X0123031Y0052785D01*
X0126065Y0052785D01*
X0126065Y0051915D01*
X0126935Y0051915D01*
X0126935Y0048980D01*
X0128666Y0048980D01*
X0129047Y0049083D01*
X0129390Y0049280D01*
X0129669Y0049559D01*
X0129866Y0049901D01*
X0129968Y0050283D01*
X0129968Y0051915D01*
X0126935Y0051915D01*
X0126935Y0052785D01*
X0129968Y0052785D01*
X0129968Y0054418D01*
X0129866Y0054799D01*
X0129669Y0055141D01*
X0129390Y0055421D01*
X0129289Y0055479D01*
X0129968Y0056158D01*
X0129968Y0057999D01*
X0133031Y0061062D01*
X0133031Y0056158D01*
X0133690Y0055500D01*
X0133031Y0054842D01*
X0133031Y0052001D01*
X0129630Y0048600D01*
X0112630Y0048600D01*
X0111400Y0047370D01*
X0111400Y0047370D01*
X0108630Y0044600D01*
X0107400Y0043370D01*
X0107400Y0035370D01*
X0105630Y0033600D01*
X0097630Y0033600D01*
X0096400Y0032370D01*
X0096320Y0032290D01*
X0096320Y0036904D01*
X0096933Y0036650D01*
X0098067Y0036650D01*
X0099114Y0037084D01*
X0099916Y0037886D01*
X0100350Y0038933D01*
X0100350Y0040067D01*
X0099916Y0041114D01*
X0099114Y0041916D01*
X0098067Y0042350D01*
X0096933Y0042350D01*
X0096520Y0042179D01*
X0096520Y0045537D01*
X0096779Y0045537D01*
X0096779Y0048987D01*
X0096780Y0048987D01*
X0096779Y0048432D02*
X0096780Y0048432D01*
X0096779Y0047433D02*
X0096780Y0047433D01*
X0096779Y0046434D02*
X0096780Y0046434D01*
X0096520Y0045436D02*
X0109466Y0045436D01*
X0109116Y0046434D02*
X0110465Y0046434D01*
X0111463Y0047433D02*
X0109116Y0047433D01*
X0109116Y0048432D02*
X0112462Y0048432D01*
X0113460Y0049430D02*
X0109116Y0049430D01*
X0109116Y0050429D02*
X0113031Y0050429D01*
X0115350Y0053500D02*
X0116500Y0052350D01*
X0119968Y0052426D02*
X0126065Y0052426D01*
X0126065Y0051915D02*
X0123031Y0051915D01*
X0123031Y0050283D01*
X0123134Y0049901D01*
X0123331Y0049559D01*
X0123610Y0049280D01*
X0123953Y0049083D01*
X0124334Y0048980D01*
X0126065Y0048980D01*
X0126065Y0051915D01*
X0126065Y0051427D02*
X0126935Y0051427D01*
X0126935Y0050429D02*
X0126065Y0050429D01*
X0126065Y0049430D02*
X0126935Y0049430D01*
X0129540Y0049430D02*
X0130460Y0049430D01*
X0129968Y0050429D02*
X0131459Y0050429D01*
X0132457Y0051427D02*
X0129968Y0051427D01*
X0126935Y0052426D02*
X0133031Y0052426D01*
X0133031Y0053424D02*
X0129968Y0053424D01*
X0129967Y0054423D02*
X0133031Y0054423D01*
X0133611Y0055421D02*
X0129389Y0055421D01*
X0129968Y0056420D02*
X0133031Y0056420D01*
X0133031Y0057418D02*
X0129968Y0057418D01*
X0130386Y0058417D02*
X0133031Y0058417D01*
X0133031Y0059415D02*
X0131385Y0059415D01*
X0132383Y0060414D02*
X0133031Y0060414D01*
X0127650Y0058650D02*
X0126500Y0058650D01*
X0123031Y0056420D02*
X0119968Y0056420D01*
X0119389Y0055421D02*
X0123611Y0055421D01*
X0123033Y0054423D02*
X0119968Y0054423D01*
X0119968Y0053424D02*
X0123031Y0053424D01*
X0123031Y0051427D02*
X0119968Y0051427D01*
X0119968Y0050429D02*
X0123031Y0050429D01*
X0123460Y0049430D02*
X0119540Y0049430D01*
X0114370Y0044400D02*
X0131370Y0044400D01*
X0132600Y0045630D01*
X0135950Y0048980D01*
X0139090Y0048980D01*
X0139968Y0049859D01*
X0139968Y0050250D01*
X0143031Y0050250D01*
X0143031Y0049859D01*
X0143910Y0048980D01*
X0149090Y0048980D01*
X0149968Y0049859D01*
X0149968Y0053062D01*
X0152780Y0050250D01*
X0153031Y0050250D01*
X0153031Y0049859D01*
X0153910Y0048980D01*
X0156900Y0048980D01*
X0158630Y0047250D01*
X0159646Y0047250D01*
X0159646Y0044707D01*
X0160826Y0041858D01*
X0153831Y0041858D01*
X0152953Y0040980D01*
X0152953Y0022020D01*
X0153831Y0021142D01*
X0161964Y0021142D01*
X0162843Y0022020D01*
X0162843Y0022302D01*
X0164200Y0020945D01*
X0164200Y0016730D01*
X0163947Y0017225D01*
X0163466Y0017888D01*
X0162888Y0018466D01*
X0162225Y0018947D01*
X0161496Y0019319D01*
X0160718Y0019572D01*
X0160000Y0019686D01*
X0160000Y0015000D01*
X0159000Y0015000D01*
X0159000Y0019686D01*
X0158282Y0019572D01*
X0157504Y0019319D01*
X0156775Y0018947D01*
X0156112Y0018466D01*
X0155534Y0017888D01*
X0155053Y0017225D01*
X0154681Y0016496D01*
X0154514Y0015983D01*
X0153908Y0017446D01*
X0152446Y0018908D01*
X0150534Y0019700D01*
X0148466Y0019700D01*
X0147820Y0019433D01*
X0147055Y0020198D01*
X0144301Y0020198D01*
X0145245Y0021142D01*
X0149169Y0021142D01*
X0150047Y0022020D01*
X0150047Y0040980D01*
X0149169Y0041858D01*
X0141036Y0041858D01*
X0140157Y0040980D01*
X0140157Y0022560D01*
X0138617Y0021020D01*
X0135910Y0021020D01*
X0135431Y0020540D01*
X0132802Y0020540D01*
X0132421Y0020921D01*
X0129800Y0020921D01*
X0129800Y0025980D01*
X0130090Y0025980D01*
X0130968Y0026859D01*
X0130968Y0031842D01*
X0130310Y0032500D01*
X0130968Y0033158D01*
X0130968Y0033350D01*
X0133031Y0033350D01*
X0133031Y0033158D01*
X0133711Y0032479D01*
X0133610Y0032421D01*
X0133331Y0032141D01*
X0133134Y0031799D01*
X0133031Y0031418D01*
X0133031Y0029785D01*
X0136065Y0029785D01*
X0136065Y0028915D01*
X0136935Y0028915D01*
X0136935Y0025980D01*
X0138666Y0025980D01*
X0139047Y0026083D01*
X0139390Y0026280D01*
X0139669Y0026559D01*
X0139866Y0026901D01*
X0139968Y0027283D01*
X0139968Y0028915D01*
X0136935Y0028915D01*
X0136935Y0029785D01*
X0139968Y0029785D01*
X0139968Y0031418D01*
X0139866Y0031799D01*
X0139669Y0032141D01*
X0139390Y0032421D01*
X0139289Y0032479D01*
X0139968Y0033158D01*
X0139968Y0038141D01*
X0139090Y0039020D01*
X0133910Y0039020D01*
X0133031Y0038141D01*
X0133031Y0037950D01*
X0130968Y0037950D01*
X0130968Y0038141D01*
X0130090Y0039020D01*
X0124910Y0039020D01*
X0124031Y0038141D01*
X0124031Y0037950D01*
X0121968Y0037950D01*
X0121968Y0038141D01*
X0121090Y0039020D01*
X0115910Y0039020D01*
X0115031Y0038141D01*
X0115031Y0037750D01*
X0112780Y0037750D01*
X0111600Y0036570D01*
X0111600Y0041630D01*
X0114370Y0044400D01*
X0113409Y0043439D02*
X0160171Y0043439D01*
X0159757Y0044437D02*
X0131407Y0044437D01*
X0132406Y0045436D02*
X0159646Y0045436D01*
X0159646Y0046434D02*
X0133404Y0046434D01*
X0134403Y0047433D02*
X0158448Y0047433D01*
X0157449Y0048432D02*
X0135401Y0048432D01*
X0139540Y0049430D02*
X0143460Y0049430D01*
X0149540Y0049430D02*
X0153460Y0049430D01*
X0152602Y0050429D02*
X0149968Y0050429D01*
X0149968Y0051427D02*
X0151603Y0051427D01*
X0150605Y0052426D02*
X0149968Y0052426D01*
X0153549Y0055421D02*
X0153611Y0055421D01*
X0153580Y0055390D02*
X0152600Y0056370D01*
X0151370Y0057600D01*
X0149968Y0057600D01*
X0149968Y0058215D01*
X0146935Y0058215D01*
X0146935Y0059085D01*
X0149968Y0059085D01*
X0149968Y0060717D01*
X0149866Y0061099D01*
X0149692Y0061400D01*
X0150780Y0061400D01*
X0153031Y0059148D01*
X0153031Y0056158D01*
X0153690Y0055500D01*
X0153580Y0055390D01*
X0153031Y0056420D02*
X0152550Y0056420D01*
X0153031Y0057418D02*
X0151552Y0057418D01*
X0153031Y0058417D02*
X0146935Y0058417D01*
X0146065Y0058417D02*
X0139968Y0058417D01*
X0139968Y0058151D02*
X0139968Y0061141D01*
X0139709Y0061400D01*
X0143308Y0061400D01*
X0143134Y0061099D01*
X0143031Y0060717D01*
X0143031Y0059085D01*
X0146065Y0059085D01*
X0146065Y0058215D01*
X0143031Y0058215D01*
X0143031Y0057600D01*
X0140519Y0057600D01*
X0139968Y0058151D01*
X0139968Y0059415D02*
X0143031Y0059415D01*
X0143031Y0060414D02*
X0139968Y0060414D01*
X0149968Y0060414D02*
X0151766Y0060414D01*
X0152765Y0059415D02*
X0149968Y0059415D01*
X0156500Y0058650D02*
X0156626Y0058524D01*
X0159968Y0056424D02*
X0172866Y0056424D01*
X0172866Y0054511D01*
X0170450Y0055512D01*
X0166865Y0055512D01*
X0163553Y0054140D01*
X0161018Y0051605D01*
X0160954Y0051450D01*
X0160370Y0051450D01*
X0159968Y0051852D01*
X0159968Y0054842D01*
X0159310Y0055500D01*
X0159968Y0056158D01*
X0159968Y0056424D01*
X0159968Y0056420D02*
X0172866Y0056420D01*
X0172866Y0055421D02*
X0170669Y0055421D01*
X0166646Y0055421D02*
X0159389Y0055421D01*
X0159968Y0054423D02*
X0164235Y0054423D01*
X0162837Y0053424D02*
X0159968Y0053424D01*
X0159968Y0052426D02*
X0161838Y0052426D01*
X0176371Y0051427D02*
X0180629Y0051427D01*
X0180215Y0050429D02*
X0176785Y0050429D01*
X0177198Y0049430D02*
X0179802Y0049430D01*
X0179388Y0048432D02*
X0177612Y0048432D01*
X0177669Y0047433D02*
X0179331Y0047433D01*
X0179331Y0046434D02*
X0177669Y0046434D01*
X0177669Y0045436D02*
X0179331Y0045436D01*
X0179443Y0044437D02*
X0177557Y0044437D01*
X0177144Y0043439D02*
X0179856Y0043439D01*
X0180270Y0042440D02*
X0176730Y0042440D01*
X0176317Y0041442D02*
X0180683Y0041442D01*
X0181654Y0040443D02*
X0175346Y0040443D01*
X0174347Y0039445D02*
X0182653Y0039445D01*
X0184237Y0038446D02*
X0172763Y0038446D01*
X0164552Y0038446D02*
X0162843Y0038446D01*
X0162843Y0037448D02*
X0197850Y0037448D01*
X0197850Y0038446D02*
X0192448Y0038446D01*
X0194032Y0039445D02*
X0197850Y0039445D01*
X0197850Y0040443D02*
X0195031Y0040443D01*
X0196002Y0041442D02*
X0197850Y0041442D01*
X0197850Y0042440D02*
X0196415Y0042440D01*
X0196829Y0043439D02*
X0197850Y0043439D01*
X0197850Y0044437D02*
X0197242Y0044437D01*
X0197354Y0045436D02*
X0197850Y0045436D01*
X0197850Y0046434D02*
X0197354Y0046434D01*
X0197354Y0047433D02*
X0197850Y0047433D01*
X0197850Y0048432D02*
X0197297Y0048432D01*
X0196883Y0049430D02*
X0197850Y0049430D01*
X0197850Y0050429D02*
X0196470Y0050429D01*
X0196056Y0051427D02*
X0197850Y0051427D01*
X0197850Y0052426D02*
X0195162Y0052426D01*
X0194163Y0053424D02*
X0197850Y0053424D01*
X0197850Y0054423D02*
X0192765Y0054423D01*
X0190354Y0055421D02*
X0197850Y0055421D01*
X0197850Y0056420D02*
X0184134Y0056420D01*
X0184134Y0057418D02*
X0197850Y0057418D01*
X0197850Y0058417D02*
X0184134Y0058417D01*
X0184134Y0059415D02*
X0197850Y0059415D01*
X0197850Y0060414D02*
X0184134Y0060414D01*
X0184134Y0061412D02*
X0197850Y0061412D01*
X0197850Y0062411D02*
X0184002Y0062411D01*
X0185314Y0064303D02*
X0181891Y0064303D01*
X0178585Y0065189D01*
X0175620Y0066901D01*
X0173200Y0069321D01*
X0171488Y0072285D01*
X0170602Y0075592D01*
X0170602Y0079015D01*
X0171488Y0082321D01*
X0173200Y0085285D01*
X0175620Y0087706D01*
X0178585Y0089417D01*
X0181891Y0090303D01*
X0185314Y0090303D01*
X0188620Y0089417D01*
X0191585Y0087706D01*
X0194005Y0085285D01*
X0195716Y0082321D01*
X0196602Y0079015D01*
X0196602Y0075592D01*
X0195716Y0072285D01*
X0194005Y0069321D01*
X0191585Y0066901D01*
X0188620Y0065189D01*
X0185314Y0064303D01*
X0185704Y0064408D02*
X0197850Y0064408D01*
X0197850Y0065406D02*
X0188996Y0065406D01*
X0190726Y0066405D02*
X0197850Y0066405D01*
X0197850Y0067403D02*
X0192087Y0067403D01*
X0193086Y0068402D02*
X0197850Y0068402D01*
X0197850Y0069400D02*
X0194051Y0069400D01*
X0194627Y0070399D02*
X0197850Y0070399D01*
X0197850Y0071397D02*
X0195204Y0071397D01*
X0195746Y0072396D02*
X0197850Y0072396D01*
X0197850Y0073394D02*
X0196014Y0073394D01*
X0196281Y0074393D02*
X0197850Y0074393D01*
X0197850Y0075391D02*
X0196549Y0075391D01*
X0196602Y0076390D02*
X0197850Y0076390D01*
X0197850Y0077388D02*
X0196602Y0077388D01*
X0196602Y0078387D02*
X0197850Y0078387D01*
X0197850Y0079385D02*
X0196503Y0079385D01*
X0196235Y0080384D02*
X0197850Y0080384D01*
X0197850Y0081382D02*
X0195968Y0081382D01*
X0195682Y0082381D02*
X0197850Y0082381D01*
X0197850Y0083379D02*
X0195105Y0083379D01*
X0194529Y0084378D02*
X0197850Y0084378D01*
X0197835Y0085376D02*
X0193914Y0085376D01*
X0192915Y0086375D02*
X0197707Y0086375D01*
X0197382Y0087373D02*
X0191917Y0087373D01*
X0190431Y0088372D02*
X0196937Y0088372D01*
X0196211Y0089370D02*
X0188701Y0089370D01*
X0192797Y0091368D02*
X0009053Y0091368D01*
X0006809Y0090369D02*
X0106399Y0090369D01*
X0105401Y0089370D02*
X0023347Y0089370D01*
X0023266Y0089417D02*
X0019960Y0090303D01*
X0016537Y0090303D01*
X0013230Y0089417D01*
X0010266Y0087706D01*
X0007845Y0085285D01*
X0006134Y0082321D01*
X0005248Y0079015D01*
X0005248Y0075592D01*
X0006134Y0072285D01*
X0007845Y0069321D01*
X0010266Y0066901D01*
X0013230Y0065189D01*
X0016537Y0064303D01*
X0019960Y0064303D01*
X0023266Y0065189D01*
X0026230Y0066901D01*
X0028651Y0069321D01*
X0030362Y0072285D01*
X0031248Y0075592D01*
X0031248Y0079015D01*
X0030362Y0082321D01*
X0028651Y0085285D01*
X0026230Y0087706D01*
X0023266Y0089417D01*
X0025076Y0088372D02*
X0104402Y0088372D01*
X0103404Y0087373D02*
X0086347Y0087373D01*
X0086574Y0087300D02*
X0085960Y0087499D01*
X0085323Y0087600D01*
X0085300Y0087600D01*
X0085300Y0083800D01*
X0089100Y0083800D01*
X0089100Y0083823D01*
X0088999Y0084460D01*
X0088800Y0085074D01*
X0088507Y0085649D01*
X0088127Y0086171D01*
X0087671Y0086627D01*
X0087149Y0087007D01*
X0086574Y0087300D01*
X0085300Y0087373D02*
X0084700Y0087373D01*
X0084700Y0087600D02*
X0084677Y0087600D01*
X0084040Y0087499D01*
X0083426Y0087300D01*
X0082851Y0087007D01*
X0082329Y0086627D01*
X0081873Y0086171D01*
X0081493Y0085649D01*
X0081200Y0085074D01*
X0081001Y0084460D01*
X0080900Y0083823D01*
X0080900Y0083800D01*
X0084700Y0083800D01*
X0084700Y0087600D01*
X0083653Y0087373D02*
X0067362Y0087373D01*
X0064638Y0087373D02*
X0052778Y0087373D01*
X0049841Y0087373D02*
X0048970Y0087373D01*
X0048970Y0088319D02*
X0047240Y0088319D01*
X0046858Y0088217D01*
X0046516Y0088019D01*
X0046237Y0087740D01*
X0046039Y0087398D01*
X0045937Y0087016D01*
X0045937Y0085384D01*
X0048970Y0085384D01*
X0048970Y0088319D01*
X0046033Y0087373D02*
X0026562Y0087373D01*
X0027561Y0086375D02*
X0045937Y0086375D01*
X0048970Y0086375D02*
X0049841Y0086375D01*
X0049841Y0085376D02*
X0062339Y0085376D01*
X0061926Y0084378D02*
X0052874Y0084378D01*
X0052874Y0083379D02*
X0061900Y0083379D01*
X0061628Y0082381D02*
X0052703Y0082381D01*
X0052633Y0081382D02*
X0060630Y0081382D01*
X0065138Y0079385D02*
X0095416Y0079385D01*
X0095400Y0078387D02*
X0064140Y0078387D01*
X0063141Y0077388D02*
X0095400Y0077388D01*
X0095400Y0076390D02*
X0062143Y0076390D01*
X0056370Y0074393D02*
X0095400Y0074393D01*
X0095400Y0075391D02*
X0055916Y0075391D01*
X0056370Y0073394D02*
X0095400Y0073394D01*
X0095400Y0072396D02*
X0056370Y0072396D01*
X0056370Y0071397D02*
X0095400Y0071397D01*
X0095400Y0070399D02*
X0073628Y0070399D01*
X0074178Y0069400D02*
X0095400Y0069400D01*
X0095400Y0068402D02*
X0080568Y0068402D01*
X0081567Y0067403D02*
X0095373Y0067403D01*
X0094790Y0066405D02*
X0082565Y0066405D01*
X0083564Y0065406D02*
X0084376Y0065406D01*
X0093564Y0065406D02*
X0094650Y0065406D01*
X0094562Y0064408D02*
X0094868Y0064408D01*
X0092616Y0060414D02*
X0088556Y0060414D01*
X0102886Y0056084D02*
X0103933Y0055650D01*
X0105067Y0055650D01*
X0106114Y0056084D01*
X0106916Y0056886D01*
X0107350Y0057933D01*
X0107350Y0058380D01*
X0109370Y0060400D01*
X0113031Y0060400D01*
X0113031Y0056158D01*
X0113590Y0055600D01*
X0104630Y0055600D01*
X0103998Y0054967D01*
X0103998Y0054972D01*
X0102886Y0056084D01*
X0103549Y0055421D02*
X0104451Y0055421D01*
X0106450Y0056420D02*
X0113031Y0056420D01*
X0113031Y0057418D02*
X0107137Y0057418D01*
X0107386Y0058417D02*
X0113031Y0058417D01*
X0113031Y0059415D02*
X0108385Y0059415D01*
X0108350Y0064600D02*
X0108350Y0065067D01*
X0107916Y0066114D01*
X0107114Y0066916D01*
X0106067Y0067350D01*
X0105903Y0067350D01*
X0103800Y0069453D01*
X0103800Y0075547D01*
X0110453Y0082200D01*
X0115547Y0082200D01*
X0118819Y0078928D01*
X0118819Y0078475D01*
X0120975Y0076319D01*
X0124025Y0076319D01*
X0125000Y0077294D01*
X0125975Y0076319D01*
X0127409Y0076319D01*
X0127409Y0079909D01*
X0127591Y0079909D01*
X0127591Y0080091D01*
X0131181Y0080091D01*
X0132409Y0080091D01*
X0132409Y0079909D01*
X0127591Y0079909D01*
X0127591Y0076319D01*
X0129025Y0076319D01*
X0130000Y0077294D01*
X0130975Y0076319D01*
X0132409Y0076319D01*
X0132409Y0079909D01*
X0132591Y0079909D01*
X0132591Y0080091D01*
X0137409Y0080091D01*
X0137409Y0079909D01*
X0137591Y0079909D01*
X0137591Y0080091D01*
X0142409Y0080091D01*
X0142409Y0079909D01*
X0138819Y0079909D01*
X0137591Y0079909D01*
X0137591Y0076319D01*
X0139025Y0076319D01*
X0140000Y0077294D01*
X0140975Y0076319D01*
X0142409Y0076319D01*
X0142409Y0079909D01*
X0142591Y0079909D01*
X0142591Y0076319D01*
X0144025Y0076319D01*
X0144400Y0076694D01*
X0144400Y0068370D01*
X0143630Y0067600D01*
X0129630Y0067600D01*
X0126630Y0064600D01*
X0108350Y0064600D01*
X0108209Y0065406D02*
X0127436Y0065406D01*
X0128435Y0066405D02*
X0107626Y0066405D01*
X0105849Y0067403D02*
X0129433Y0067403D01*
X0144400Y0068402D02*
X0104851Y0068402D01*
X0103852Y0069400D02*
X0144400Y0069400D01*
X0144400Y0070399D02*
X0103800Y0070399D01*
X0103800Y0071397D02*
X0144400Y0071397D01*
X0144400Y0072396D02*
X0103800Y0072396D01*
X0103800Y0073394D02*
X0144400Y0073394D01*
X0144400Y0074393D02*
X0103800Y0074393D01*
X0103800Y0075391D02*
X0144400Y0075391D01*
X0144400Y0076390D02*
X0144096Y0076390D01*
X0142591Y0076390D02*
X0142409Y0076390D01*
X0142409Y0077388D02*
X0142591Y0077388D01*
X0142591Y0078387D02*
X0142409Y0078387D01*
X0142409Y0079385D02*
X0142591Y0079385D01*
X0137591Y0079385D02*
X0137409Y0079385D01*
X0137409Y0079909D02*
X0137409Y0076319D01*
X0135975Y0076319D01*
X0135000Y0077294D01*
X0134025Y0076319D01*
X0132591Y0076319D01*
X0132591Y0079909D01*
X0133819Y0079909D01*
X0137409Y0079909D01*
X0137409Y0078387D02*
X0137591Y0078387D01*
X0137591Y0077388D02*
X0137409Y0077388D01*
X0137409Y0076390D02*
X0137591Y0076390D01*
X0139096Y0076390D02*
X0140904Y0076390D01*
X0135904Y0076390D02*
X0134096Y0076390D01*
X0132591Y0076390D02*
X0132409Y0076390D01*
X0132409Y0077388D02*
X0132591Y0077388D01*
X0132591Y0078387D02*
X0132409Y0078387D01*
X0132409Y0079385D02*
X0132591Y0079385D01*
X0130904Y0076390D02*
X0129096Y0076390D01*
X0127591Y0076390D02*
X0127409Y0076390D01*
X0127409Y0077388D02*
X0127591Y0077388D01*
X0127591Y0078387D02*
X0127409Y0078387D01*
X0127409Y0079385D02*
X0127591Y0079385D01*
X0125904Y0076390D02*
X0124096Y0076390D01*
X0120904Y0076390D02*
X0104643Y0076390D01*
X0105641Y0077388D02*
X0119906Y0077388D01*
X0118907Y0078387D02*
X0106640Y0078387D01*
X0107638Y0079385D02*
X0118362Y0079385D01*
X0117363Y0080384D02*
X0108637Y0080384D01*
X0109635Y0081382D02*
X0116365Y0081382D01*
X0102405Y0086375D02*
X0087923Y0086375D01*
X0088645Y0085376D02*
X0101407Y0085376D01*
X0100408Y0084378D02*
X0089012Y0084378D01*
X0089100Y0083200D02*
X0085300Y0083200D01*
X0085300Y0083800D01*
X0084700Y0083800D01*
X0084700Y0083200D01*
X0085300Y0083200D01*
X0085300Y0079400D01*
X0085323Y0079400D01*
X0085960Y0079501D01*
X0086574Y0079700D01*
X0087149Y0079993D01*
X0087671Y0080373D01*
X0088127Y0080829D01*
X0088507Y0081351D01*
X0088800Y0081926D01*
X0088999Y0082540D01*
X0089100Y0083177D01*
X0089100Y0083200D01*
X0088947Y0082381D02*
X0098411Y0082381D01*
X0099410Y0083379D02*
X0085300Y0083379D01*
X0084700Y0083379D02*
X0070100Y0083379D01*
X0070074Y0084378D02*
X0080988Y0084378D01*
X0081355Y0085376D02*
X0069661Y0085376D01*
X0068923Y0086375D02*
X0082077Y0086375D01*
X0084700Y0086375D02*
X0085300Y0086375D01*
X0085300Y0085376D02*
X0084700Y0085376D01*
X0084700Y0084378D02*
X0085300Y0084378D01*
X0084700Y0083200D02*
X0080900Y0083200D01*
X0080900Y0083177D01*
X0081001Y0082540D01*
X0081200Y0081926D01*
X0081493Y0081351D01*
X0081873Y0080829D01*
X0082329Y0080373D01*
X0082851Y0079993D01*
X0083426Y0079700D01*
X0084040Y0079501D01*
X0084677Y0079400D01*
X0084700Y0079400D01*
X0084700Y0083200D01*
X0084700Y0082381D02*
X0085300Y0082381D01*
X0085300Y0081382D02*
X0084700Y0081382D01*
X0084700Y0080384D02*
X0085300Y0080384D01*
X0082318Y0080384D02*
X0068682Y0080384D01*
X0069561Y0081382D02*
X0081477Y0081382D01*
X0081053Y0082381D02*
X0069974Y0082381D01*
X0063077Y0086375D02*
X0052874Y0086375D01*
X0048970Y0085376D02*
X0028560Y0085376D01*
X0029175Y0084378D02*
X0045937Y0084378D01*
X0045937Y0083379D02*
X0029751Y0083379D01*
X0030327Y0082381D02*
X0046108Y0082381D01*
X0046178Y0081382D02*
X0044760Y0081382D01*
X0044858Y0080384D02*
X0045937Y0080384D01*
X0045937Y0079385D02*
X0044858Y0079385D01*
X0044858Y0078387D02*
X0045937Y0078387D01*
X0045937Y0077388D02*
X0044858Y0077388D01*
X0044693Y0076390D02*
X0045937Y0076390D01*
X0046704Y0075391D02*
X0044608Y0075391D01*
X0044858Y0074393D02*
X0050410Y0074393D01*
X0056990Y0070399D02*
X0066429Y0070399D01*
X0065630Y0069600D02*
X0065630Y0069600D01*
X0065430Y0069400D02*
X0057539Y0069400D01*
X0057539Y0068402D02*
X0064432Y0068402D01*
X0064400Y0067403D02*
X0057539Y0067403D01*
X0057539Y0066768D02*
X0056684Y0066768D01*
X0056684Y0066768D01*
X0056684Y0066768D01*
X0057539Y0066768D01*
X0057539Y0066405D02*
X0064400Y0066405D01*
X0064400Y0065406D02*
X0057539Y0065406D01*
X0057539Y0064408D02*
X0064400Y0064408D01*
X0064400Y0063409D02*
X0057539Y0063409D01*
X0057539Y0062411D02*
X0064400Y0062411D01*
X0064400Y0061412D02*
X0057539Y0061412D01*
X0057772Y0060414D02*
X0064400Y0060414D01*
X0064400Y0059415D02*
X0058770Y0059415D01*
X0059769Y0058417D02*
X0064614Y0058417D01*
X0065400Y0057630D02*
X0065400Y0057630D01*
X0065612Y0057418D02*
X0060767Y0057418D01*
X0054070Y0060862D02*
X0053138Y0060862D01*
X0048059Y0062831D02*
X0047500Y0063390D01*
X0054070Y0066768D02*
X0061768Y0066768D01*
X0062500Y0067500D01*
X0044992Y0057418D02*
X0044909Y0057418D01*
X0045200Y0056420D02*
X0044120Y0056420D01*
X0045326Y0055421D02*
X0037858Y0055421D01*
X0037858Y0054423D02*
X0046325Y0054423D01*
X0047323Y0053424D02*
X0037858Y0053424D01*
X0037858Y0052426D02*
X0051322Y0052426D01*
X0051031Y0051427D02*
X0037858Y0051427D01*
X0037471Y0050429D02*
X0051031Y0050429D01*
X0051031Y0048432D02*
X0037858Y0048432D01*
X0037858Y0049430D02*
X0054065Y0049430D01*
X0054500Y0049650D02*
X0056850Y0049650D01*
X0060000Y0046500D01*
X0067350Y0046500D01*
X0070500Y0043350D01*
X0070065Y0043439D02*
X0065968Y0043439D01*
X0065968Y0043135D02*
X0065968Y0045842D01*
X0065310Y0046500D01*
X0065968Y0047158D01*
X0065968Y0047350D01*
X0067031Y0047350D01*
X0067031Y0047158D01*
X0067711Y0046479D01*
X0067610Y0046421D01*
X0067331Y0046141D01*
X0067134Y0045799D01*
X0067031Y0045418D01*
X0067031Y0043785D01*
X0070065Y0043785D01*
X0070065Y0042915D01*
X0067031Y0042915D01*
X0067031Y0042072D01*
X0065968Y0043135D01*
X0066663Y0042440D02*
X0067031Y0042440D01*
X0067031Y0044437D02*
X0065968Y0044437D01*
X0065968Y0045436D02*
X0067036Y0045436D01*
X0067634Y0046434D02*
X0065376Y0046434D01*
X0059690Y0046500D02*
X0059031Y0045842D01*
X0059031Y0045650D01*
X0057968Y0045650D01*
X0057968Y0045842D01*
X0057289Y0046521D01*
X0057390Y0046579D01*
X0057669Y0046859D01*
X0057866Y0047201D01*
X0057968Y0047582D01*
X0057968Y0049215D01*
X0054935Y0049215D01*
X0054935Y0050085D01*
X0057663Y0050085D01*
X0059031Y0048716D01*
X0059031Y0047158D01*
X0059690Y0046500D01*
X0059624Y0046434D02*
X0057376Y0046434D01*
X0057929Y0047433D02*
X0059031Y0047433D01*
X0059031Y0048432D02*
X0057968Y0048432D01*
X0058317Y0049430D02*
X0054935Y0049430D01*
X0051071Y0047433D02*
X0034825Y0047433D01*
X0034390Y0047550D02*
X0026490Y0047550D01*
X0026390Y0047650D01*
X0026825Y0047433D02*
X0033955Y0047433D01*
X0033955Y0046434D02*
X0034825Y0046434D01*
X0034825Y0045436D02*
X0033955Y0045436D01*
X0033955Y0044437D02*
X0034825Y0044437D01*
X0037207Y0044437D02*
X0051031Y0044437D01*
X0051031Y0043439D02*
X0020560Y0043439D01*
X0021000Y0044437D02*
X0023746Y0044437D01*
X0022960Y0045436D02*
X0021000Y0045436D01*
X0021000Y0046434D02*
X0022921Y0046434D01*
X0021000Y0047433D02*
X0025955Y0047433D01*
X0025955Y0046434D02*
X0026825Y0046434D01*
X0026825Y0045436D02*
X0025955Y0045436D01*
X0025955Y0044437D02*
X0026825Y0044437D01*
X0029034Y0044437D02*
X0031573Y0044437D01*
X0030934Y0045436D02*
X0029819Y0045436D01*
X0029858Y0046434D02*
X0030921Y0046434D01*
X0030921Y0048432D02*
X0029858Y0048432D01*
X0029858Y0049430D02*
X0030921Y0049430D01*
X0031309Y0050429D02*
X0029566Y0050429D01*
X0029828Y0051427D02*
X0030921Y0051427D01*
X0030921Y0052426D02*
X0029858Y0052426D01*
X0029858Y0053424D02*
X0030921Y0053424D01*
X0030921Y0054423D02*
X0029858Y0054423D01*
X0029858Y0055421D02*
X0030921Y0055421D01*
X0031001Y0056420D02*
X0029858Y0056420D01*
X0024200Y0057418D02*
X0012000Y0057418D01*
X0012000Y0057000D02*
X0012000Y0053000D01*
X0019697Y0053000D01*
X0019766Y0053018D01*
X0018747Y0052000D01*
X0004000Y0052000D01*
X0004000Y0053000D01*
X0011000Y0053000D01*
X0011000Y0057000D01*
X0012000Y0057000D01*
X0012000Y0056420D02*
X0011000Y0056420D01*
X0011000Y0055421D02*
X0012000Y0055421D01*
X0012000Y0054423D02*
X0011000Y0054423D01*
X0011000Y0053424D02*
X0012000Y0053424D01*
X0019173Y0052426D02*
X0004000Y0052426D01*
X0011000Y0058417D02*
X0012000Y0058417D01*
X0012000Y0058000D02*
X0012000Y0062000D01*
X0019697Y0062000D01*
X0020079Y0061898D01*
X0020421Y0061700D01*
X0020700Y0061421D01*
X0020898Y0061079D01*
X0021000Y0060697D01*
X0021000Y0058000D01*
X0012000Y0058000D01*
X0012000Y0059415D02*
X0011000Y0059415D01*
X0011000Y0060414D02*
X0012000Y0060414D01*
X0012000Y0061412D02*
X0011000Y0061412D01*
X0016146Y0064408D02*
X0004000Y0064408D01*
X0004000Y0065406D02*
X0012854Y0065406D01*
X0011125Y0066405D02*
X0004000Y0066405D01*
X0004000Y0067403D02*
X0009763Y0067403D01*
X0008765Y0068402D02*
X0004000Y0068402D01*
X0004000Y0069400D02*
X0007800Y0069400D01*
X0007223Y0070399D02*
X0004000Y0070399D01*
X0004000Y0071397D02*
X0006647Y0071397D01*
X0006104Y0072396D02*
X0004000Y0072396D01*
X0004000Y0073394D02*
X0005837Y0073394D01*
X0005569Y0074393D02*
X0004000Y0074393D01*
X0004000Y0075391D02*
X0005302Y0075391D01*
X0005248Y0076390D02*
X0004000Y0076390D01*
X0004000Y0077388D02*
X0005248Y0077388D01*
X0005248Y0078387D02*
X0004000Y0078387D01*
X0004000Y0079385D02*
X0005347Y0079385D01*
X0005615Y0080384D02*
X0004000Y0080384D01*
X0004000Y0081382D02*
X0005882Y0081382D01*
X0006169Y0082381D02*
X0004000Y0082381D01*
X0004000Y0083379D02*
X0006745Y0083379D01*
X0007322Y0084378D02*
X0004000Y0084378D01*
X0004016Y0085376D02*
X0007937Y0085376D01*
X0008935Y0086375D02*
X0004144Y0086375D01*
X0004468Y0087373D02*
X0009934Y0087373D01*
X0011420Y0088372D02*
X0004913Y0088372D01*
X0005639Y0089370D02*
X0013149Y0089370D01*
X0030614Y0081382D02*
X0038019Y0081382D01*
X0037921Y0080384D02*
X0030881Y0080384D01*
X0031149Y0079385D02*
X0037921Y0079385D01*
X0037921Y0078387D02*
X0031248Y0078387D01*
X0031248Y0077388D02*
X0037921Y0077388D01*
X0038087Y0076390D02*
X0031248Y0076390D01*
X0031194Y0075391D02*
X0038172Y0075391D01*
X0037921Y0074393D02*
X0030927Y0074393D01*
X0030659Y0073394D02*
X0037921Y0073394D01*
X0037921Y0072396D02*
X0030392Y0072396D01*
X0029849Y0071397D02*
X0037921Y0071397D01*
X0037921Y0070399D02*
X0029273Y0070399D01*
X0028696Y0069400D02*
X0038679Y0069400D01*
X0039090Y0068402D02*
X0027731Y0068402D01*
X0026733Y0067403D02*
X0033904Y0067403D01*
X0033839Y0066405D02*
X0025371Y0066405D01*
X0023642Y0065406D02*
X0033354Y0065406D01*
X0032940Y0064408D02*
X0020350Y0064408D01*
X0023911Y0062411D02*
X0004000Y0062411D01*
X0004000Y0063409D02*
X0032940Y0063409D01*
X0023839Y0061412D02*
X0020705Y0061412D01*
X0021000Y0060414D02*
X0023839Y0060414D01*
X0023839Y0059415D02*
X0021000Y0059415D01*
X0021000Y0058417D02*
X0023839Y0058417D01*
X0022921Y0056420D02*
X0021000Y0056420D01*
X0021000Y0055421D02*
X0022168Y0055421D01*
X0021170Y0054423D02*
X0021000Y0054423D01*
X0022683Y0049430D02*
X0022921Y0049430D01*
X0022921Y0048432D02*
X0021684Y0048432D01*
X0020079Y0041898D02*
X0019697Y0042000D01*
X0012000Y0042000D01*
X0012000Y0038000D01*
X0021000Y0038000D01*
X0021000Y0040697D01*
X0020898Y0041079D01*
X0020700Y0041421D01*
X0020421Y0041700D01*
X0020079Y0041898D01*
X0020679Y0041442D02*
X0047189Y0041442D01*
X0046191Y0040443D02*
X0021000Y0040443D01*
X0021000Y0039445D02*
X0045192Y0039445D01*
X0044194Y0038446D02*
X0021000Y0038446D01*
X0021000Y0037000D02*
X0012000Y0037000D01*
X0012000Y0033000D01*
X0019697Y0033000D01*
X0020079Y0033102D01*
X0020421Y0033300D01*
X0020700Y0033579D01*
X0020898Y0033921D01*
X0021000Y0034303D01*
X0021000Y0037000D01*
X0021000Y0036449D02*
X0043200Y0036449D01*
X0043200Y0035451D02*
X0021000Y0035451D01*
X0021000Y0034452D02*
X0043200Y0034452D01*
X0043200Y0033454D02*
X0020575Y0033454D01*
X0019960Y0031248D02*
X0016537Y0031248D01*
X0013230Y0030362D01*
X0010266Y0028651D01*
X0007845Y0026230D01*
X0006134Y0023266D01*
X0005248Y0019960D01*
X0005248Y0016537D01*
X0006134Y0013230D01*
X0007845Y0010266D01*
X0010266Y0007845D01*
X0013230Y0006134D01*
X0016537Y0005248D01*
X0019960Y0005248D01*
X0023266Y0006134D01*
X0026230Y0007845D01*
X0028651Y0010266D01*
X0030362Y0013230D01*
X0031248Y0016537D01*
X0031248Y0019960D01*
X0030362Y0023266D01*
X0028651Y0026230D01*
X0026230Y0028651D01*
X0023266Y0030362D01*
X0019960Y0031248D01*
X0022907Y0030458D02*
X0043200Y0030458D01*
X0043200Y0029460D02*
X0024829Y0029460D01*
X0026420Y0028461D02*
X0043200Y0028461D01*
X0043200Y0027463D02*
X0027418Y0027463D01*
X0028417Y0026464D02*
X0043200Y0026464D01*
X0043200Y0025466D02*
X0029092Y0025466D01*
X0029668Y0024467D02*
X0043200Y0024467D01*
X0043200Y0023469D02*
X0030245Y0023469D01*
X0030575Y0022470D02*
X0043200Y0022470D01*
X0043200Y0021472D02*
X0030843Y0021472D01*
X0031110Y0020473D02*
X0043200Y0020473D01*
X0043200Y0019475D02*
X0031248Y0019475D01*
X0031248Y0018476D02*
X0043200Y0018476D01*
X0043200Y0017478D02*
X0031248Y0017478D01*
X0031233Y0016479D02*
X0043200Y0016479D01*
X0043200Y0015481D02*
X0030965Y0015481D01*
X0030698Y0014482D02*
X0043200Y0014482D01*
X0043200Y0013484D02*
X0030430Y0013484D01*
X0029932Y0012485D02*
X0043200Y0012485D01*
X0043200Y0011487D02*
X0029355Y0011487D01*
X0028779Y0010488D02*
X0043200Y0010488D01*
X0043200Y0009490D02*
X0027874Y0009490D01*
X0026876Y0008491D02*
X0043256Y0008491D01*
X0044255Y0007493D02*
X0025619Y0007493D01*
X0023890Y0006494D02*
X0045253Y0006494D01*
X0046252Y0005496D02*
X0020883Y0005496D01*
X0015613Y0005496D02*
X0006378Y0005496D01*
X0005411Y0006494D02*
X0012607Y0006494D01*
X0010877Y0007493D02*
X0004691Y0007493D01*
X0004366Y0008491D02*
X0009620Y0008491D01*
X0008622Y0009490D02*
X0004070Y0009490D01*
X0004000Y0010488D02*
X0007717Y0010488D01*
X0007141Y0011487D02*
X0004000Y0011487D01*
X0004000Y0012485D02*
X0006564Y0012485D01*
X0006066Y0013484D02*
X0004000Y0013484D01*
X0004000Y0014482D02*
X0005798Y0014482D01*
X0005531Y0015481D02*
X0004000Y0015481D01*
X0004000Y0016479D02*
X0005263Y0016479D01*
X0005248Y0017478D02*
X0004000Y0017478D01*
X0004000Y0018476D02*
X0005248Y0018476D01*
X0005248Y0019475D02*
X0004000Y0019475D01*
X0004000Y0020473D02*
X0005386Y0020473D01*
X0005653Y0021472D02*
X0004000Y0021472D01*
X0004000Y0022470D02*
X0005921Y0022470D01*
X0006251Y0023469D02*
X0004000Y0023469D01*
X0004000Y0024467D02*
X0006828Y0024467D01*
X0007404Y0025466D02*
X0004000Y0025466D01*
X0004000Y0026464D02*
X0008079Y0026464D01*
X0009078Y0027463D02*
X0004000Y0027463D01*
X0004000Y0028461D02*
X0010077Y0028461D01*
X0011667Y0029460D02*
X0004000Y0029460D01*
X0004000Y0030458D02*
X0013589Y0030458D01*
X0012000Y0033454D02*
X0011000Y0033454D01*
X0011000Y0034452D02*
X0012000Y0034452D01*
X0012000Y0035451D02*
X0011000Y0035451D01*
X0011000Y0036449D02*
X0012000Y0036449D01*
X0012000Y0037448D02*
X0043200Y0037448D01*
X0047800Y0035547D02*
X0049453Y0037200D01*
X0064230Y0037200D01*
X0063050Y0036020D01*
X0059910Y0036020D01*
X0059031Y0035141D01*
X0059031Y0034001D01*
X0057245Y0032215D01*
X0054935Y0032215D01*
X0054935Y0033085D01*
X0054065Y0033085D01*
X0054065Y0036020D01*
X0052334Y0036020D01*
X0051953Y0035917D01*
X0051610Y0035720D01*
X0051331Y0035441D01*
X0051134Y0035099D01*
X0051031Y0034717D01*
X0051031Y0033085D01*
X0054065Y0033085D01*
X0054065Y0032215D01*
X0051031Y0032215D01*
X0051031Y0031501D01*
X0050130Y0030600D01*
X0048900Y0029370D01*
X0048900Y0021130D01*
X0052630Y0017400D01*
X0052913Y0017400D01*
X0052819Y0017307D01*
X0052622Y0016965D01*
X0052520Y0016583D01*
X0052520Y0015500D01*
X0052520Y0014417D01*
X0052622Y0014035D01*
X0052819Y0013693D01*
X0052981Y0013531D01*
X0052520Y0013070D01*
X0052520Y0010056D01*
X0052776Y0009800D01*
X0048453Y0009800D01*
X0047800Y0010453D01*
X0047800Y0035547D01*
X0047800Y0035451D02*
X0051341Y0035451D01*
X0051031Y0034452D02*
X0047800Y0034452D01*
X0047800Y0033454D02*
X0051031Y0033454D01*
X0054065Y0032455D02*
X0047800Y0032455D01*
X0047800Y0031457D02*
X0050987Y0031457D01*
X0049988Y0030458D02*
X0047800Y0030458D01*
X0047800Y0029460D02*
X0048990Y0029460D01*
X0048900Y0028461D02*
X0047800Y0028461D01*
X0047800Y0027463D02*
X0048900Y0027463D01*
X0048900Y0026464D02*
X0047800Y0026464D01*
X0047800Y0025466D02*
X0048900Y0025466D01*
X0048900Y0024467D02*
X0047800Y0024467D01*
X0047800Y0023469D02*
X0048900Y0023469D01*
X0048900Y0022470D02*
X0047800Y0022470D01*
X0047800Y0021472D02*
X0048900Y0021472D01*
X0049557Y0020473D02*
X0047800Y0020473D01*
X0047800Y0019475D02*
X0050555Y0019475D01*
X0051554Y0018476D02*
X0047800Y0018476D01*
X0047800Y0017478D02*
X0052552Y0017478D01*
X0052520Y0016479D02*
X0047800Y0016479D01*
X0047800Y0015481D02*
X0052520Y0015481D01*
X0052520Y0015500D02*
X0055594Y0015500D01*
X0055594Y0015500D01*
X0052520Y0015500D01*
X0052520Y0014482D02*
X0047800Y0014482D01*
X0047800Y0013484D02*
X0052933Y0013484D01*
X0052520Y0012485D02*
X0047800Y0012485D01*
X0047800Y0011487D02*
X0052520Y0011487D01*
X0052520Y0010488D02*
X0047800Y0010488D01*
X0072800Y0008491D02*
X0080031Y0008491D01*
X0080398Y0007493D02*
X0072745Y0007493D01*
X0083065Y0007493D02*
X0083935Y0007493D01*
X0083935Y0008491D02*
X0083065Y0008491D01*
X0083065Y0009490D02*
X0083935Y0009490D01*
X0086968Y0009490D02*
X0089031Y0009490D01*
X0089031Y0008491D02*
X0086968Y0008491D01*
X0086602Y0007493D02*
X0089398Y0007493D01*
X0089031Y0011487D02*
X0086968Y0011487D01*
X0086951Y0012485D02*
X0089049Y0012485D01*
X0089706Y0013484D02*
X0086294Y0013484D01*
X0086968Y0014482D02*
X0089031Y0014482D01*
X0089031Y0015481D02*
X0086968Y0015481D01*
X0086968Y0016479D02*
X0089031Y0016479D01*
X0089031Y0017478D02*
X0086968Y0017478D01*
X0086968Y0018476D02*
X0089031Y0018476D01*
X0089365Y0019475D02*
X0086727Y0019475D01*
X0099500Y0022500D02*
X0099500Y0025851D01*
X0099339Y0026013D01*
X0099500Y0022500D02*
X0100500Y0021500D01*
X0108500Y0021500D01*
X0109500Y0022500D01*
X0111600Y0022470D02*
X0125200Y0022470D01*
X0125200Y0021472D02*
X0111442Y0021472D01*
X0111600Y0021630D02*
X0111600Y0030630D01*
X0114519Y0033550D01*
X0115031Y0033550D01*
X0115031Y0033158D01*
X0115711Y0032479D01*
X0115610Y0032421D01*
X0115331Y0032141D01*
X0115134Y0031799D01*
X0115031Y0031418D01*
X0115031Y0029785D01*
X0118065Y0029785D01*
X0118065Y0028915D01*
X0118935Y0028915D01*
X0118935Y0025980D01*
X0120666Y0025980D01*
X0121047Y0026083D01*
X0121390Y0026280D01*
X0121669Y0026559D01*
X0121866Y0026901D01*
X0121968Y0027283D01*
X0121968Y0028915D01*
X0118935Y0028915D01*
X0118935Y0029785D01*
X0121968Y0029785D01*
X0121968Y0031418D01*
X0121866Y0031799D01*
X0121669Y0032141D01*
X0121390Y0032421D01*
X0121289Y0032479D01*
X0121968Y0033158D01*
X0121968Y0033350D01*
X0124031Y0033350D01*
X0124031Y0033158D01*
X0124690Y0032500D01*
X0124031Y0031842D01*
X0124031Y0026859D01*
X0124910Y0025980D01*
X0125200Y0025980D01*
X0125200Y0020453D01*
X0124244Y0019497D01*
X0124244Y0020043D01*
X0123365Y0020921D01*
X0118579Y0020921D01*
X0118198Y0020540D01*
X0111138Y0020540D01*
X0110617Y0020020D01*
X0109848Y0020020D01*
X0110228Y0020400D01*
X0110370Y0020400D01*
X0111600Y0021630D01*
X0111071Y0020473D02*
X0110443Y0020473D01*
X0111600Y0023469D02*
X0125200Y0023469D01*
X0125200Y0024467D02*
X0111600Y0024467D01*
X0111600Y0025466D02*
X0125200Y0025466D01*
X0124426Y0026464D02*
X0121574Y0026464D01*
X0121968Y0027463D02*
X0124031Y0027463D01*
X0124031Y0028461D02*
X0121968Y0028461D01*
X0124031Y0029460D02*
X0118935Y0029460D01*
X0118065Y0029460D02*
X0111600Y0029460D01*
X0111600Y0030458D02*
X0115031Y0030458D01*
X0115042Y0031457D02*
X0112427Y0031457D01*
X0113425Y0032455D02*
X0115670Y0032455D01*
X0115031Y0033454D02*
X0114424Y0033454D01*
X0121330Y0032455D02*
X0124645Y0032455D01*
X0124031Y0031457D02*
X0121958Y0031457D01*
X0121968Y0030458D02*
X0124031Y0030458D01*
X0118935Y0028461D02*
X0118065Y0028461D01*
X0118065Y0028915D02*
X0118065Y0025980D01*
X0116334Y0025980D01*
X0115953Y0026083D01*
X0115610Y0026280D01*
X0115331Y0026559D01*
X0115134Y0026901D01*
X0115031Y0027283D01*
X0115031Y0028915D01*
X0118065Y0028915D01*
X0118065Y0027463D02*
X0118935Y0027463D01*
X0118935Y0026464D02*
X0118065Y0026464D01*
X0115426Y0026464D02*
X0111600Y0026464D01*
X0111600Y0027463D02*
X0115031Y0027463D01*
X0115031Y0028461D02*
X0111600Y0028461D01*
X0106483Y0034452D02*
X0096320Y0034452D01*
X0096320Y0033454D02*
X0097484Y0033454D01*
X0096485Y0032455D02*
X0096320Y0032455D01*
X0096320Y0035451D02*
X0107400Y0035451D01*
X0107400Y0036449D02*
X0096320Y0036449D01*
X0099478Y0037448D02*
X0107400Y0037448D01*
X0107400Y0038446D02*
X0100148Y0038446D01*
X0100350Y0039445D02*
X0107400Y0039445D01*
X0107400Y0040443D02*
X0100194Y0040443D01*
X0099589Y0041442D02*
X0107400Y0041442D01*
X0107400Y0042440D02*
X0096520Y0042440D01*
X0096520Y0043439D02*
X0107469Y0043439D01*
X0108468Y0044437D02*
X0096520Y0044437D01*
X0091661Y0048987D02*
X0091500Y0048826D01*
X0091661Y0048987D02*
X0091500Y0049149D01*
X0089102Y0048987D02*
X0089000Y0048885D01*
X0080475Y0039445D02*
X0075698Y0039445D01*
X0063480Y0036449D02*
X0048702Y0036449D01*
X0054065Y0035451D02*
X0054935Y0035451D01*
X0054935Y0036020D02*
X0054935Y0033085D01*
X0057968Y0033085D01*
X0057968Y0034717D01*
X0057866Y0035099D01*
X0057669Y0035441D01*
X0057390Y0035720D01*
X0057047Y0035917D01*
X0056666Y0036020D01*
X0054935Y0036020D01*
X0054935Y0034452D02*
X0054065Y0034452D01*
X0054065Y0033454D02*
X0054935Y0033454D01*
X0054935Y0032455D02*
X0057485Y0032455D01*
X0057968Y0033454D02*
X0058484Y0033454D01*
X0057968Y0034452D02*
X0059031Y0034452D01*
X0059341Y0035451D02*
X0057659Y0035451D01*
X0043200Y0032455D02*
X0004000Y0032455D01*
X0004000Y0031457D02*
X0043200Y0031457D01*
X0051031Y0042440D02*
X0004000Y0042440D01*
X0011000Y0041442D02*
X0012000Y0041442D01*
X0012000Y0040443D02*
X0011000Y0040443D01*
X0011000Y0039445D02*
X0012000Y0039445D01*
X0012000Y0038446D02*
X0011000Y0038446D01*
X0037846Y0045436D02*
X0051031Y0045436D01*
X0051624Y0046434D02*
X0037858Y0046434D01*
X0037820Y0056420D02*
X0038959Y0056420D01*
X0040955Y0079385D02*
X0041825Y0079385D01*
X0041825Y0080384D02*
X0040955Y0080384D01*
X0040955Y0081382D02*
X0041825Y0081382D01*
X0087682Y0080384D02*
X0096414Y0080384D01*
X0097413Y0081382D02*
X0088523Y0081382D01*
X0126601Y0090369D02*
X0195041Y0090369D01*
X0178504Y0089370D02*
X0127599Y0089370D01*
X0129334Y0088372D02*
X0130666Y0088372D01*
X0134334Y0088372D02*
X0135666Y0088372D01*
X0139334Y0088372D02*
X0140666Y0088372D01*
X0144334Y0088372D02*
X0176774Y0088372D01*
X0175288Y0087373D02*
X0145332Y0087373D01*
X0146181Y0086375D02*
X0174289Y0086375D01*
X0173291Y0085376D02*
X0146593Y0085376D01*
X0147592Y0084378D02*
X0172676Y0084378D01*
X0172099Y0083379D02*
X0148590Y0083379D01*
X0148600Y0082381D02*
X0171523Y0082381D01*
X0171237Y0081382D02*
X0148600Y0081382D01*
X0148600Y0080384D02*
X0170969Y0080384D01*
X0170702Y0079385D02*
X0148600Y0079385D01*
X0148600Y0078387D02*
X0170602Y0078387D01*
X0170602Y0077388D02*
X0148600Y0077388D01*
X0148600Y0076390D02*
X0170602Y0076390D01*
X0170656Y0075391D02*
X0148600Y0075391D01*
X0148600Y0074393D02*
X0170924Y0074393D01*
X0171191Y0073394D02*
X0148600Y0073394D01*
X0148600Y0072396D02*
X0171459Y0072396D01*
X0172001Y0071397D02*
X0148600Y0071397D01*
X0148600Y0070399D02*
X0172577Y0070399D01*
X0173154Y0069400D02*
X0148600Y0069400D01*
X0148600Y0068402D02*
X0174119Y0068402D01*
X0175117Y0067403D02*
X0148600Y0067403D01*
X0148375Y0066405D02*
X0176479Y0066405D01*
X0178208Y0065406D02*
X0152713Y0065406D01*
X0153712Y0064408D02*
X0181501Y0064408D01*
X0172998Y0062411D02*
X0155709Y0062411D01*
X0154710Y0063409D02*
X0197850Y0063409D01*
X0186331Y0055421D02*
X0184134Y0055421D01*
X0172866Y0061412D02*
X0159697Y0061412D01*
X0136500Y0052350D02*
X0136350Y0052350D01*
X0140620Y0041442D02*
X0111600Y0041442D01*
X0111600Y0040443D02*
X0140157Y0040443D01*
X0140157Y0039445D02*
X0111600Y0039445D01*
X0111600Y0038446D02*
X0115337Y0038446D01*
X0112478Y0037448D02*
X0111600Y0037448D01*
X0112410Y0042440D02*
X0160585Y0042440D01*
X0162843Y0039445D02*
X0162968Y0039445D01*
X0162843Y0036449D02*
X0197850Y0036449D01*
X0197850Y0035451D02*
X0162843Y0035451D01*
X0162843Y0034452D02*
X0197850Y0034452D01*
X0197850Y0033454D02*
X0162843Y0033454D01*
X0162843Y0032455D02*
X0197850Y0032455D01*
X0197850Y0031457D02*
X0162843Y0031457D01*
X0162843Y0030458D02*
X0178944Y0030458D01*
X0178585Y0030362D02*
X0175620Y0028651D01*
X0173200Y0026230D01*
X0171488Y0023266D01*
X0170602Y0019960D01*
X0170602Y0016537D01*
X0171488Y0013230D01*
X0173200Y0010266D01*
X0175620Y0007845D01*
X0178585Y0006134D01*
X0181891Y0005248D01*
X0185314Y0005248D01*
X0188620Y0006134D01*
X0191585Y0007845D01*
X0194005Y0010266D01*
X0195716Y0013230D01*
X0196602Y0016537D01*
X0196602Y0019960D01*
X0195716Y0023266D01*
X0194005Y0026230D01*
X0191585Y0028651D01*
X0188620Y0030362D01*
X0185314Y0031248D01*
X0181891Y0031248D01*
X0178585Y0030362D01*
X0177022Y0029460D02*
X0162843Y0029460D01*
X0163189Y0028461D02*
X0175431Y0028461D01*
X0174432Y0027463D02*
X0164188Y0027463D01*
X0165186Y0026464D02*
X0173434Y0026464D01*
X0172758Y0025466D02*
X0166185Y0025466D01*
X0167183Y0024467D02*
X0172182Y0024467D01*
X0171605Y0023469D02*
X0168182Y0023469D01*
X0168800Y0022470D02*
X0171275Y0022470D01*
X0171008Y0021472D02*
X0168800Y0021472D01*
X0168800Y0020473D02*
X0170740Y0020473D01*
X0170602Y0019475D02*
X0168800Y0019475D01*
X0168800Y0018476D02*
X0170602Y0018476D01*
X0170602Y0017478D02*
X0168800Y0017478D01*
X0168800Y0016479D02*
X0170618Y0016479D01*
X0170885Y0015481D02*
X0168800Y0015481D01*
X0168800Y0014482D02*
X0171153Y0014482D01*
X0171420Y0013484D02*
X0168800Y0013484D01*
X0168800Y0012485D02*
X0171918Y0012485D01*
X0172495Y0011487D02*
X0168800Y0011487D01*
X0168800Y0010488D02*
X0173071Y0010488D01*
X0173976Y0009490D02*
X0168800Y0009490D01*
X0168800Y0008491D02*
X0174975Y0008491D01*
X0176231Y0007493D02*
X0168745Y0007493D01*
X0167747Y0006494D02*
X0177961Y0006494D01*
X0180967Y0005496D02*
X0166748Y0005496D01*
X0165750Y0004497D02*
X0193762Y0004497D01*
X0195472Y0005496D02*
X0186238Y0005496D01*
X0189244Y0006494D02*
X0196439Y0006494D01*
X0197160Y0007493D02*
X0190973Y0007493D01*
X0192230Y0008491D02*
X0197484Y0008491D01*
X0197781Y0009490D02*
X0193229Y0009490D01*
X0194133Y0010488D02*
X0197850Y0010488D01*
X0197850Y0011487D02*
X0194710Y0011487D01*
X0195286Y0012485D02*
X0197850Y0012485D01*
X0197850Y0013484D02*
X0195784Y0013484D01*
X0196052Y0014482D02*
X0197850Y0014482D01*
X0197850Y0015481D02*
X0196319Y0015481D01*
X0196587Y0016479D02*
X0197850Y0016479D01*
X0197850Y0017478D02*
X0196602Y0017478D01*
X0196602Y0018476D02*
X0197850Y0018476D01*
X0197850Y0019475D02*
X0196602Y0019475D01*
X0196465Y0020473D02*
X0197850Y0020473D01*
X0197850Y0021472D02*
X0196197Y0021472D01*
X0195930Y0022470D02*
X0197850Y0022470D01*
X0197850Y0023469D02*
X0195599Y0023469D01*
X0195023Y0024467D02*
X0197850Y0024467D01*
X0197850Y0025466D02*
X0194446Y0025466D01*
X0193771Y0026464D02*
X0197850Y0026464D01*
X0197850Y0027463D02*
X0192772Y0027463D01*
X0191774Y0028461D02*
X0197850Y0028461D01*
X0197850Y0029460D02*
X0190183Y0029460D01*
X0188261Y0030458D02*
X0197850Y0030458D01*
X0164200Y0020473D02*
X0144576Y0020473D01*
X0147778Y0019475D02*
X0147922Y0019475D01*
X0151078Y0019475D02*
X0157983Y0019475D01*
X0159000Y0019475D02*
X0160000Y0019475D01*
X0160000Y0018476D02*
X0159000Y0018476D01*
X0159000Y0017478D02*
X0160000Y0017478D01*
X0160000Y0016479D02*
X0159000Y0016479D01*
X0159000Y0015481D02*
X0160000Y0015481D01*
X0160000Y0014000D02*
X0160000Y0009314D01*
X0160718Y0009428D01*
X0161496Y0009681D01*
X0162225Y0010053D01*
X0162888Y0010534D01*
X0163466Y0011112D01*
X0163947Y0011775D01*
X0164200Y0012270D01*
X0164200Y0009453D01*
X0163547Y0008800D01*
X0141808Y0008800D01*
X0141866Y0008901D01*
X0141968Y0009283D01*
X0141968Y0010915D01*
X0138935Y0010915D01*
X0138935Y0011785D01*
X0141968Y0011785D01*
X0141968Y0013418D01*
X0141866Y0013799D01*
X0141669Y0014141D01*
X0141390Y0014421D01*
X0141289Y0014479D01*
X0141968Y0015158D01*
X0141968Y0015598D01*
X0144326Y0015598D01*
X0144300Y0015534D01*
X0144300Y0013466D01*
X0145092Y0011554D01*
X0146554Y0010092D01*
X0148466Y0009300D01*
X0150534Y0009300D01*
X0152446Y0010092D01*
X0153908Y0011554D01*
X0154514Y0013017D01*
X0154681Y0012504D01*
X0155053Y0011775D01*
X0155534Y0011112D01*
X0156112Y0010534D01*
X0156775Y0010053D01*
X0157504Y0009681D01*
X0158282Y0009428D01*
X0159000Y0009314D01*
X0159000Y0014000D01*
X0160000Y0014000D01*
X0160000Y0013484D02*
X0159000Y0013484D01*
X0159000Y0012485D02*
X0160000Y0012485D01*
X0160000Y0011487D02*
X0159000Y0011487D01*
X0159000Y0010488D02*
X0160000Y0010488D01*
X0160000Y0009490D02*
X0159000Y0009490D01*
X0158093Y0009490D02*
X0150992Y0009490D01*
X0152842Y0010488D02*
X0156175Y0010488D01*
X0155262Y0011487D02*
X0153841Y0011487D01*
X0154294Y0012485D02*
X0154691Y0012485D01*
X0154675Y0016479D02*
X0154309Y0016479D01*
X0153876Y0017478D02*
X0155236Y0017478D01*
X0156126Y0018476D02*
X0152878Y0018476D01*
X0153501Y0021472D02*
X0149499Y0021472D01*
X0150047Y0022470D02*
X0152953Y0022470D01*
X0152953Y0023469D02*
X0150047Y0023469D01*
X0150047Y0024467D02*
X0152953Y0024467D01*
X0152953Y0025466D02*
X0150047Y0025466D01*
X0150047Y0026464D02*
X0152953Y0026464D01*
X0152953Y0027463D02*
X0150047Y0027463D01*
X0150047Y0028461D02*
X0152953Y0028461D01*
X0152953Y0029460D02*
X0150047Y0029460D01*
X0150047Y0030458D02*
X0152953Y0030458D01*
X0152953Y0031457D02*
X0150047Y0031457D01*
X0150047Y0032455D02*
X0152953Y0032455D01*
X0152953Y0033454D02*
X0150047Y0033454D01*
X0150047Y0034452D02*
X0152953Y0034452D01*
X0152953Y0035451D02*
X0150047Y0035451D01*
X0150047Y0036449D02*
X0152953Y0036449D01*
X0152953Y0037448D02*
X0150047Y0037448D01*
X0150047Y0038446D02*
X0152953Y0038446D01*
X0152953Y0039445D02*
X0150047Y0039445D01*
X0150047Y0040443D02*
X0152953Y0040443D01*
X0153415Y0041442D02*
X0149585Y0041442D01*
X0140157Y0038446D02*
X0139663Y0038446D01*
X0139968Y0037448D02*
X0140157Y0037448D01*
X0140157Y0036449D02*
X0139968Y0036449D01*
X0139968Y0035451D02*
X0140157Y0035451D01*
X0140157Y0034452D02*
X0139968Y0034452D01*
X0139968Y0033454D02*
X0140157Y0033454D01*
X0140157Y0032455D02*
X0139330Y0032455D01*
X0139958Y0031457D02*
X0140157Y0031457D01*
X0140157Y0030458D02*
X0139968Y0030458D01*
X0140157Y0029460D02*
X0136935Y0029460D01*
X0136065Y0029460D02*
X0130968Y0029460D01*
X0130968Y0030458D02*
X0133031Y0030458D01*
X0133042Y0031457D02*
X0130968Y0031457D01*
X0130355Y0032455D02*
X0133670Y0032455D01*
X0133031Y0028915D02*
X0133031Y0027283D01*
X0133134Y0026901D01*
X0133331Y0026559D01*
X0133610Y0026280D01*
X0133953Y0026083D01*
X0134334Y0025980D01*
X0136065Y0025980D01*
X0136065Y0028915D01*
X0133031Y0028915D01*
X0133031Y0028461D02*
X0130968Y0028461D01*
X0130968Y0027463D02*
X0133031Y0027463D01*
X0133426Y0026464D02*
X0130574Y0026464D01*
X0129800Y0025466D02*
X0140157Y0025466D01*
X0140157Y0026464D02*
X0139574Y0026464D01*
X0139968Y0027463D02*
X0140157Y0027463D01*
X0140157Y0028461D02*
X0139968Y0028461D01*
X0136935Y0028461D02*
X0136065Y0028461D01*
X0136065Y0027463D02*
X0136935Y0027463D01*
X0136935Y0026464D02*
X0136065Y0026464D01*
X0140157Y0024467D02*
X0129800Y0024467D01*
X0129800Y0023469D02*
X0140157Y0023469D01*
X0140068Y0022470D02*
X0129800Y0022470D01*
X0129800Y0021472D02*
X0139069Y0021472D01*
X0141968Y0015481D02*
X0144300Y0015481D01*
X0144300Y0014482D02*
X0141292Y0014482D01*
X0141951Y0013484D02*
X0144300Y0013484D01*
X0144706Y0012485D02*
X0141968Y0012485D01*
X0138935Y0011487D02*
X0145159Y0011487D01*
X0146158Y0010488D02*
X0141968Y0010488D01*
X0141968Y0009490D02*
X0148008Y0009490D01*
X0138065Y0010915D02*
X0135031Y0010915D01*
X0135031Y0009283D01*
X0135134Y0008901D01*
X0135192Y0008800D01*
X0134453Y0008800D01*
X0133299Y0009953D01*
X0133299Y0012562D01*
X0133169Y0012692D01*
X0133197Y0012740D01*
X0133299Y0013121D01*
X0133299Y0014409D01*
X0130118Y0014409D01*
X0130118Y0014591D01*
X0133299Y0014591D01*
X0133299Y0015879D01*
X0133283Y0015940D01*
X0135031Y0015940D01*
X0135031Y0015158D01*
X0135711Y0014479D01*
X0135610Y0014421D01*
X0135331Y0014141D01*
X0135134Y0013799D01*
X0135031Y0013418D01*
X0135031Y0011785D01*
X0138065Y0011785D01*
X0138065Y0010915D01*
X0138065Y0011487D02*
X0133299Y0011487D01*
X0133299Y0010488D02*
X0135031Y0010488D01*
X0135031Y0009490D02*
X0133763Y0009490D01*
X0129255Y0007493D02*
X0118745Y0007493D01*
X0117747Y0006494D02*
X0130253Y0006494D01*
X0131252Y0005496D02*
X0116748Y0005496D01*
X0115750Y0004497D02*
X0132250Y0004497D01*
X0127222Y0008491D02*
X0125744Y0008491D01*
X0126742Y0009490D02*
X0126756Y0009490D01*
X0133299Y0012485D02*
X0135031Y0012485D01*
X0135049Y0013484D02*
X0133299Y0013484D01*
X0135708Y0014482D02*
X0130118Y0014482D01*
X0133299Y0015481D02*
X0135031Y0015481D01*
X0125200Y0020473D02*
X0123813Y0020473D01*
X0115687Y0015940D02*
X0113968Y0015940D01*
X0113968Y0014158D01*
X0113289Y0013479D01*
X0113390Y0013421D01*
X0113669Y0013141D01*
X0113866Y0012799D01*
X0113968Y0012418D01*
X0113968Y0010785D01*
X0110935Y0010785D01*
X0110935Y0009915D01*
X0113968Y0009915D01*
X0113968Y0009221D01*
X0114200Y0009453D01*
X0114200Y0014453D01*
X0115547Y0015800D01*
X0115547Y0015800D01*
X0115687Y0015940D01*
X0115228Y0015481D02*
X0113968Y0015481D01*
X0113968Y0014482D02*
X0114229Y0014482D01*
X0114200Y0013484D02*
X0113294Y0013484D01*
X0113951Y0012485D02*
X0114200Y0012485D01*
X0114200Y0011487D02*
X0113968Y0011487D01*
X0114200Y0010488D02*
X0110935Y0010488D01*
X0110065Y0010488D02*
X0104968Y0010488D01*
X0104968Y0009490D02*
X0107031Y0009490D01*
X0107031Y0009915D02*
X0107031Y0008800D01*
X0104968Y0008800D01*
X0104968Y0012842D01*
X0104310Y0013500D01*
X0104968Y0014158D01*
X0104968Y0014350D01*
X0107031Y0014350D01*
X0107031Y0014158D01*
X0107711Y0013479D01*
X0107610Y0013421D01*
X0107331Y0013141D01*
X0107134Y0012799D01*
X0107031Y0012418D01*
X0107031Y0010785D01*
X0110065Y0010785D01*
X0110065Y0009915D01*
X0107031Y0009915D01*
X0107031Y0011487D02*
X0104968Y0011487D01*
X0104968Y0012485D02*
X0107049Y0012485D01*
X0107706Y0013484D02*
X0104327Y0013484D01*
X0113968Y0009490D02*
X0114200Y0009490D01*
X0091661Y0026013D02*
X0091500Y0026174D01*
X0070650Y0026500D02*
X0070500Y0026350D01*
X0108630Y0044600D02*
X0108630Y0044600D01*
X0121663Y0038446D02*
X0124337Y0038446D01*
X0130663Y0038446D02*
X0133337Y0038446D01*
X0162294Y0021472D02*
X0163673Y0021472D01*
X0164200Y0019475D02*
X0161017Y0019475D01*
X0162874Y0018476D02*
X0164200Y0018476D01*
X0164200Y0017478D02*
X0163764Y0017478D01*
X0163738Y0011487D02*
X0164200Y0011487D01*
X0164200Y0010488D02*
X0162825Y0010488D01*
X0164200Y0009490D02*
X0160907Y0009490D01*
D30*
X0113500Y0030000D03*
X0104500Y0036500D03*
X0097500Y0039500D03*
X0090500Y0039500D03*
X0079500Y0041500D03*
X0079500Y0048500D03*
X0084500Y0054500D03*
X0079500Y0055500D03*
X0090500Y0060500D03*
X0086500Y0063500D03*
X0078500Y0063500D03*
X0062500Y0062500D03*
X0062500Y0067500D03*
X0051000Y0071500D03*
X0058500Y0074500D03*
X0043500Y0084500D03*
X0053500Y0089500D03*
X0035500Y0072500D03*
X0032500Y0065500D03*
X0021500Y0062500D03*
X0009500Y0063500D03*
X0005500Y0063500D03*
X0040500Y0051500D03*
X0049500Y0051500D03*
X0040500Y0045500D03*
X0030500Y0042500D03*
X0021500Y0042500D03*
X0021500Y0032500D03*
X0009500Y0031500D03*
X0005500Y0031500D03*
X0049500Y0033500D03*
X0049500Y0043500D03*
X0051000Y0058500D03*
X0097500Y0065500D03*
X0101500Y0062500D03*
X0105500Y0064500D03*
X0110500Y0066500D03*
X0125500Y0066500D03*
X0141500Y0059500D03*
X0131500Y0057500D03*
X0121500Y0055500D03*
X0111500Y0058500D03*
X0104500Y0058500D03*
X0121500Y0050500D03*
X0110500Y0049500D03*
X0104500Y0042500D03*
X0113500Y0039500D03*
X0086500Y0032500D03*
X0078500Y0027500D03*
X0075500Y0022500D03*
X0078500Y0015500D03*
X0074500Y0011500D03*
X0074500Y0005500D03*
X0049500Y0011500D03*
X0049500Y0018500D03*
X0106000Y0013000D03*
X0167500Y0034500D03*
X0158000Y0046000D03*
X0151500Y0049500D03*
X0141500Y0048500D03*
X0161500Y0054500D03*
X0161500Y0062000D03*
X0170500Y0062000D03*
X0114500Y0080500D03*
X0105500Y0074500D03*
D31*
X0099500Y0077500D02*
X0108500Y0086500D01*
X0121000Y0086500D01*
X0122500Y0085000D01*
X0125500Y0088500D02*
X0127500Y0086500D01*
X0127500Y0085000D01*
X0125500Y0088500D02*
X0107500Y0088500D01*
X0097500Y0078500D01*
X0097500Y0065500D01*
X0099500Y0067500D02*
X0099500Y0077500D01*
X0099500Y0067500D02*
X0101500Y0065500D01*
X0101500Y0062500D01*
X0104500Y0058500D02*
X0108500Y0062500D01*
X0127500Y0062500D01*
X0130500Y0065500D01*
X0144500Y0065500D01*
X0146500Y0067500D01*
X0146500Y0082500D01*
X0144000Y0085000D01*
X0142500Y0085000D01*
X0151650Y0063500D02*
X0132500Y0063500D01*
X0127650Y0058650D01*
X0126500Y0058650D02*
X0116500Y0058650D01*
X0115350Y0053500D02*
X0105500Y0053500D01*
X0104457Y0052457D01*
X0104457Y0048987D01*
X0101898Y0048987D02*
X0101898Y0054102D01*
X0092500Y0063500D01*
X0086500Y0063500D01*
X0082500Y0060500D02*
X0084500Y0058500D01*
X0089102Y0053898D01*
X0089102Y0048987D01*
X0089000Y0048885D02*
X0089000Y0045000D01*
X0081000Y0037000D01*
X0067000Y0037000D01*
X0062650Y0032650D01*
X0062500Y0032650D01*
X0060650Y0032650D01*
X0057500Y0029500D01*
X0052000Y0029500D01*
X0051000Y0028500D01*
X0051000Y0022000D01*
X0053500Y0019500D01*
X0055531Y0019500D01*
X0055594Y0019437D01*
X0067406Y0019437D02*
X0072437Y0019437D01*
X0075500Y0022500D01*
X0078500Y0027500D02*
X0078500Y0032650D01*
X0079650Y0032650D01*
X0091500Y0044500D01*
X0091500Y0048826D01*
X0091500Y0049149D02*
X0091500Y0054500D01*
X0079232Y0066768D01*
X0070709Y0066768D01*
X0070709Y0068736D02*
X0067736Y0068736D01*
X0066500Y0067500D01*
X0066500Y0059500D01*
X0067500Y0058500D01*
X0073500Y0058500D01*
X0075500Y0060500D01*
X0082500Y0060500D01*
X0078500Y0063500D02*
X0077201Y0064799D01*
X0070709Y0064799D01*
X0054070Y0064799D02*
X0051201Y0064799D01*
X0049500Y0066500D01*
X0048390Y0067610D01*
X0047500Y0067610D02*
X0041500Y0067610D01*
X0041390Y0067500D01*
X0051000Y0071500D02*
X0051280Y0071500D01*
X0051390Y0071390D01*
X0054070Y0062831D02*
X0048059Y0062831D01*
X0079500Y0055500D02*
X0083984Y0051016D01*
X0083984Y0048987D01*
X0086543Y0048987D02*
X0086543Y0052457D01*
X0084500Y0054500D01*
X0109500Y0042500D02*
X0109500Y0034500D01*
X0106500Y0031500D01*
X0098500Y0031500D01*
X0096780Y0029780D01*
X0096780Y0026013D01*
X0094220Y0026013D02*
X0094220Y0039500D01*
X0091500Y0038500D02*
X0091500Y0026174D01*
X0078500Y0032650D02*
X0070500Y0032650D01*
X0090500Y0039500D02*
X0091500Y0038500D01*
X0109500Y0042500D02*
X0113500Y0046500D01*
X0130500Y0046500D01*
X0136350Y0052350D01*
X0136500Y0052350D02*
X0146500Y0052350D01*
X0150500Y0055500D02*
X0139650Y0055500D01*
X0136500Y0058650D01*
X0150500Y0055500D02*
X0153650Y0052350D01*
X0156500Y0052350D01*
X0159500Y0049350D01*
X0165807Y0049350D01*
X0177500Y0058524D02*
X0178500Y0057524D01*
X0188343Y0047681D01*
X0188343Y0046500D01*
X0177500Y0058524D02*
X0156626Y0058524D01*
X0156500Y0058650D02*
X0151650Y0063500D01*
X0118500Y0035650D02*
X0113650Y0035650D01*
X0109500Y0031500D01*
X0109500Y0022500D01*
M02*
