G75*
%MOIN*%
%OFA0B0*%
%FSLAX25Y25*%
%IPPOS*%
%LPD*%
%AMOC8*
5,1,8,0,0,1.08239X$1,22.5*
%
%ADD10C,0.00000*%
%ADD11R,0.03937X0.00984*%
%ADD12R,0.03937X0.03740*%
%ADD13R,0.03740X0.03937*%
%ADD14R,0.03150X0.01772*%
%ADD15R,0.05906X0.09449*%
%ADD16R,0.02323X0.02835*%
%ADD17R,0.02835X0.02323*%
%ADD18R,0.01200X0.03900*%
%ADD19R,0.02362X0.03543*%
D10*
X0010374Y0051000D02*
X0191476Y0051000D01*
X0191666Y0051002D01*
X0191856Y0051009D01*
X0192046Y0051021D01*
X0192236Y0051037D01*
X0192425Y0051057D01*
X0192614Y0051083D01*
X0192802Y0051112D01*
X0192989Y0051147D01*
X0193175Y0051186D01*
X0193360Y0051229D01*
X0193545Y0051277D01*
X0193728Y0051329D01*
X0193909Y0051385D01*
X0194089Y0051446D01*
X0194268Y0051512D01*
X0194445Y0051581D01*
X0194621Y0051655D01*
X0194794Y0051733D01*
X0194966Y0051816D01*
X0195135Y0051902D01*
X0195303Y0051992D01*
X0195468Y0052087D01*
X0195631Y0052185D01*
X0195791Y0052288D01*
X0195949Y0052394D01*
X0196104Y0052504D01*
X0196257Y0052617D01*
X0196407Y0052735D01*
X0196553Y0052856D01*
X0196697Y0052980D01*
X0196838Y0053108D01*
X0196976Y0053239D01*
X0197111Y0053374D01*
X0197242Y0053512D01*
X0197370Y0053653D01*
X0197494Y0053797D01*
X0197615Y0053943D01*
X0197733Y0054093D01*
X0197846Y0054246D01*
X0197956Y0054401D01*
X0198062Y0054559D01*
X0198165Y0054719D01*
X0198263Y0054882D01*
X0198358Y0055047D01*
X0198448Y0055215D01*
X0198534Y0055384D01*
X0198617Y0055556D01*
X0198695Y0055729D01*
X0198769Y0055905D01*
X0198838Y0056082D01*
X0198904Y0056261D01*
X0198965Y0056441D01*
X0199021Y0056622D01*
X0199073Y0056805D01*
X0199121Y0056990D01*
X0199164Y0057175D01*
X0199203Y0057361D01*
X0199238Y0057548D01*
X0199267Y0057736D01*
X0199293Y0057925D01*
X0199313Y0058114D01*
X0199329Y0058304D01*
X0199341Y0058494D01*
X0199348Y0058684D01*
X0199350Y0058874D01*
X0199350Y0133677D01*
X0199348Y0133867D01*
X0199341Y0134057D01*
X0199329Y0134247D01*
X0199313Y0134437D01*
X0199293Y0134626D01*
X0199267Y0134815D01*
X0199238Y0135003D01*
X0199203Y0135190D01*
X0199164Y0135376D01*
X0199121Y0135561D01*
X0199073Y0135746D01*
X0199021Y0135929D01*
X0198965Y0136110D01*
X0198904Y0136290D01*
X0198838Y0136469D01*
X0198769Y0136646D01*
X0198695Y0136822D01*
X0198617Y0136995D01*
X0198534Y0137167D01*
X0198448Y0137336D01*
X0198358Y0137504D01*
X0198263Y0137669D01*
X0198165Y0137832D01*
X0198062Y0137992D01*
X0197956Y0138150D01*
X0197846Y0138305D01*
X0197733Y0138458D01*
X0197615Y0138608D01*
X0197494Y0138754D01*
X0197370Y0138898D01*
X0197242Y0139039D01*
X0197111Y0139177D01*
X0196976Y0139312D01*
X0196838Y0139443D01*
X0196697Y0139571D01*
X0196553Y0139695D01*
X0196407Y0139816D01*
X0196257Y0139934D01*
X0196104Y0140047D01*
X0195949Y0140157D01*
X0195791Y0140263D01*
X0195631Y0140366D01*
X0195468Y0140464D01*
X0195303Y0140559D01*
X0195135Y0140649D01*
X0194966Y0140735D01*
X0194794Y0140818D01*
X0194621Y0140896D01*
X0194445Y0140970D01*
X0194268Y0141039D01*
X0194089Y0141105D01*
X0193909Y0141166D01*
X0193728Y0141222D01*
X0193545Y0141274D01*
X0193360Y0141322D01*
X0193175Y0141365D01*
X0192989Y0141404D01*
X0192802Y0141439D01*
X0192614Y0141468D01*
X0192425Y0141494D01*
X0192236Y0141514D01*
X0192046Y0141530D01*
X0191856Y0141542D01*
X0191666Y0141549D01*
X0191476Y0141551D01*
X0010374Y0141551D01*
X0010184Y0141549D01*
X0009994Y0141542D01*
X0009804Y0141530D01*
X0009614Y0141514D01*
X0009425Y0141494D01*
X0009236Y0141468D01*
X0009048Y0141439D01*
X0008861Y0141404D01*
X0008675Y0141365D01*
X0008490Y0141322D01*
X0008305Y0141274D01*
X0008122Y0141222D01*
X0007941Y0141166D01*
X0007761Y0141105D01*
X0007582Y0141039D01*
X0007405Y0140970D01*
X0007229Y0140896D01*
X0007056Y0140818D01*
X0006884Y0140735D01*
X0006715Y0140649D01*
X0006547Y0140559D01*
X0006382Y0140464D01*
X0006219Y0140366D01*
X0006059Y0140263D01*
X0005901Y0140157D01*
X0005746Y0140047D01*
X0005593Y0139934D01*
X0005443Y0139816D01*
X0005297Y0139695D01*
X0005153Y0139571D01*
X0005012Y0139443D01*
X0004874Y0139312D01*
X0004739Y0139177D01*
X0004608Y0139039D01*
X0004480Y0138898D01*
X0004356Y0138754D01*
X0004235Y0138608D01*
X0004117Y0138458D01*
X0004004Y0138305D01*
X0003894Y0138150D01*
X0003788Y0137992D01*
X0003685Y0137832D01*
X0003587Y0137669D01*
X0003492Y0137504D01*
X0003402Y0137336D01*
X0003316Y0137167D01*
X0003233Y0136995D01*
X0003155Y0136822D01*
X0003081Y0136646D01*
X0003012Y0136469D01*
X0002946Y0136290D01*
X0002885Y0136110D01*
X0002829Y0135929D01*
X0002777Y0135746D01*
X0002729Y0135561D01*
X0002686Y0135376D01*
X0002647Y0135190D01*
X0002612Y0135003D01*
X0002583Y0134815D01*
X0002557Y0134626D01*
X0002537Y0134437D01*
X0002521Y0134247D01*
X0002509Y0134057D01*
X0002502Y0133867D01*
X0002500Y0133677D01*
X0002500Y0058874D01*
X0002502Y0058684D01*
X0002509Y0058494D01*
X0002521Y0058304D01*
X0002537Y0058114D01*
X0002557Y0057925D01*
X0002583Y0057736D01*
X0002612Y0057548D01*
X0002647Y0057361D01*
X0002686Y0057175D01*
X0002729Y0056990D01*
X0002777Y0056805D01*
X0002829Y0056622D01*
X0002885Y0056441D01*
X0002946Y0056261D01*
X0003012Y0056082D01*
X0003081Y0055905D01*
X0003155Y0055729D01*
X0003233Y0055556D01*
X0003316Y0055384D01*
X0003402Y0055215D01*
X0003492Y0055047D01*
X0003587Y0054882D01*
X0003685Y0054719D01*
X0003788Y0054559D01*
X0003894Y0054401D01*
X0004004Y0054246D01*
X0004117Y0054093D01*
X0004235Y0053943D01*
X0004356Y0053797D01*
X0004480Y0053653D01*
X0004608Y0053512D01*
X0004739Y0053374D01*
X0004874Y0053239D01*
X0005012Y0053108D01*
X0005153Y0052980D01*
X0005297Y0052856D01*
X0005443Y0052735D01*
X0005593Y0052617D01*
X0005746Y0052504D01*
X0005901Y0052394D01*
X0006059Y0052288D01*
X0006219Y0052185D01*
X0006382Y0052087D01*
X0006547Y0051992D01*
X0006715Y0051902D01*
X0006884Y0051816D01*
X0007056Y0051733D01*
X0007229Y0051655D01*
X0007405Y0051581D01*
X0007582Y0051512D01*
X0007761Y0051446D01*
X0007941Y0051385D01*
X0008122Y0051329D01*
X0008305Y0051277D01*
X0008490Y0051229D01*
X0008675Y0051186D01*
X0008861Y0051147D01*
X0009048Y0051112D01*
X0009236Y0051083D01*
X0009425Y0051057D01*
X0009614Y0051037D01*
X0009804Y0051021D01*
X0009994Y0051009D01*
X0010184Y0051002D01*
X0010374Y0051000D01*
D11*
X0054070Y0109362D03*
X0054070Y0111331D03*
X0054070Y0113299D03*
X0054070Y0115268D03*
X0054070Y0117236D03*
X0070709Y0117236D03*
X0070709Y0115268D03*
X0070709Y0113299D03*
X0070709Y0111331D03*
X0070709Y0109362D03*
D12*
X0070500Y0098150D03*
X0070500Y0091850D03*
X0062500Y0091850D03*
X0054500Y0091850D03*
X0054500Y0098150D03*
X0062500Y0098150D03*
X0062500Y0081150D03*
X0054500Y0081150D03*
X0054500Y0074850D03*
X0062500Y0074850D03*
X0070500Y0074850D03*
X0070500Y0081150D03*
X0083500Y0064150D03*
X0083500Y0057850D03*
X0120500Y0077850D03*
X0120500Y0084150D03*
X0129500Y0084150D03*
X0129500Y0077850D03*
X0138500Y0077850D03*
X0138500Y0084150D03*
X0136500Y0100850D03*
X0136500Y0107150D03*
X0126500Y0107150D03*
X0126500Y0100850D03*
X0116500Y0100850D03*
X0116500Y0107150D03*
X0146500Y0107150D03*
X0146500Y0100850D03*
X0156500Y0100850D03*
X0156500Y0107150D03*
X0049406Y0127150D03*
X0049406Y0133449D03*
X0041390Y0127449D03*
X0041390Y0121150D03*
X0034390Y0102349D03*
X0026390Y0102449D03*
X0026390Y0096150D03*
X0034390Y0096050D03*
D13*
X0006350Y0005000D03*
X0012650Y0005000D03*
X0012650Y0017000D03*
X0006350Y0017000D03*
X0006350Y0029000D03*
X0012650Y0029000D03*
X0012650Y0041000D03*
X0006350Y0041000D03*
X0035240Y0108299D03*
X0041539Y0108299D03*
D14*
X0055594Y0067937D03*
X0055594Y0064000D03*
X0055594Y0060063D03*
X0067406Y0060063D03*
X0067406Y0064000D03*
X0067406Y0067937D03*
D15*
X0061500Y0064000D03*
D16*
X0030280Y0108799D03*
X0026500Y0108799D03*
X0036500Y0113799D03*
X0040280Y0113799D03*
D17*
X0047500Y0111890D03*
X0047500Y0108110D03*
X0047500Y0116110D03*
X0047500Y0119890D03*
D18*
X0083984Y0097487D03*
X0086543Y0097487D03*
X0089102Y0097487D03*
X0091661Y0097487D03*
X0094220Y0097487D03*
X0096780Y0097487D03*
X0099339Y0097487D03*
X0101898Y0097487D03*
X0104457Y0097487D03*
X0107016Y0097487D03*
X0107016Y0074513D03*
X0104457Y0074513D03*
X0101898Y0074513D03*
X0099339Y0074513D03*
X0096780Y0074513D03*
X0094220Y0074513D03*
X0091661Y0074513D03*
X0089102Y0074513D03*
X0086543Y0074513D03*
X0083984Y0074513D03*
D19*
X0207760Y0149472D03*
X0211500Y0149472D03*
X0215240Y0149472D03*
X0215240Y0158528D03*
X0211500Y0158528D03*
X0207760Y0158528D03*
M02*
