G75*
%MOIN*%
%OFA0B0*%
%FSLAX25Y25*%
%IPPOS*%
%LPD*%
%AMOC8*
5,1,8,0,0,1.08239X$1,22.5*
%
%ADD10C,0.00000*%
%ADD11R,0.03937X0.00984*%
%ADD12R,0.03937X0.03740*%
%ADD13C,0.05200*%
%ADD14R,0.03740X0.03937*%
%ADD15R,0.03150X0.01772*%
%ADD16R,0.05906X0.09449*%
%ADD17R,0.02323X0.02835*%
%ADD18R,0.02835X0.02323*%
%ADD19R,0.01200X0.03900*%
%ADD20OC8,0.04362*%
%ADD21C,0.15024*%
%ADD22R,0.08268X0.08268*%
%ADD23R,0.16000X0.06000*%
%ADD24C,0.23000*%
%ADD25R,0.02362X0.03543*%
%ADD26C,0.07400*%
%ADD27C,0.01600*%
%ADD28C,0.01000*%
%ADD29C,0.02700*%
%ADD30C,0.01200*%
D10*
X0010374Y0051000D02*
X0191476Y0051000D01*
X0191666Y0051002D01*
X0191856Y0051009D01*
X0192046Y0051021D01*
X0192236Y0051037D01*
X0192425Y0051057D01*
X0192614Y0051083D01*
X0192802Y0051112D01*
X0192989Y0051147D01*
X0193175Y0051186D01*
X0193360Y0051229D01*
X0193545Y0051277D01*
X0193728Y0051329D01*
X0193909Y0051385D01*
X0194089Y0051446D01*
X0194268Y0051512D01*
X0194445Y0051581D01*
X0194621Y0051655D01*
X0194794Y0051733D01*
X0194966Y0051816D01*
X0195135Y0051902D01*
X0195303Y0051992D01*
X0195468Y0052087D01*
X0195631Y0052185D01*
X0195791Y0052288D01*
X0195949Y0052394D01*
X0196104Y0052504D01*
X0196257Y0052617D01*
X0196407Y0052735D01*
X0196553Y0052856D01*
X0196697Y0052980D01*
X0196838Y0053108D01*
X0196976Y0053239D01*
X0197111Y0053374D01*
X0197242Y0053512D01*
X0197370Y0053653D01*
X0197494Y0053797D01*
X0197615Y0053943D01*
X0197733Y0054093D01*
X0197846Y0054246D01*
X0197956Y0054401D01*
X0198062Y0054559D01*
X0198165Y0054719D01*
X0198263Y0054882D01*
X0198358Y0055047D01*
X0198448Y0055215D01*
X0198534Y0055384D01*
X0198617Y0055556D01*
X0198695Y0055729D01*
X0198769Y0055905D01*
X0198838Y0056082D01*
X0198904Y0056261D01*
X0198965Y0056441D01*
X0199021Y0056622D01*
X0199073Y0056805D01*
X0199121Y0056990D01*
X0199164Y0057175D01*
X0199203Y0057361D01*
X0199238Y0057548D01*
X0199267Y0057736D01*
X0199293Y0057925D01*
X0199313Y0058114D01*
X0199329Y0058304D01*
X0199341Y0058494D01*
X0199348Y0058684D01*
X0199350Y0058874D01*
X0199350Y0133677D01*
X0199348Y0133867D01*
X0199341Y0134057D01*
X0199329Y0134247D01*
X0199313Y0134437D01*
X0199293Y0134626D01*
X0199267Y0134815D01*
X0199238Y0135003D01*
X0199203Y0135190D01*
X0199164Y0135376D01*
X0199121Y0135561D01*
X0199073Y0135746D01*
X0199021Y0135929D01*
X0198965Y0136110D01*
X0198904Y0136290D01*
X0198838Y0136469D01*
X0198769Y0136646D01*
X0198695Y0136822D01*
X0198617Y0136995D01*
X0198534Y0137167D01*
X0198448Y0137336D01*
X0198358Y0137504D01*
X0198263Y0137669D01*
X0198165Y0137832D01*
X0198062Y0137992D01*
X0197956Y0138150D01*
X0197846Y0138305D01*
X0197733Y0138458D01*
X0197615Y0138608D01*
X0197494Y0138754D01*
X0197370Y0138898D01*
X0197242Y0139039D01*
X0197111Y0139177D01*
X0196976Y0139312D01*
X0196838Y0139443D01*
X0196697Y0139571D01*
X0196553Y0139695D01*
X0196407Y0139816D01*
X0196257Y0139934D01*
X0196104Y0140047D01*
X0195949Y0140157D01*
X0195791Y0140263D01*
X0195631Y0140366D01*
X0195468Y0140464D01*
X0195303Y0140559D01*
X0195135Y0140649D01*
X0194966Y0140735D01*
X0194794Y0140818D01*
X0194621Y0140896D01*
X0194445Y0140970D01*
X0194268Y0141039D01*
X0194089Y0141105D01*
X0193909Y0141166D01*
X0193728Y0141222D01*
X0193545Y0141274D01*
X0193360Y0141322D01*
X0193175Y0141365D01*
X0192989Y0141404D01*
X0192802Y0141439D01*
X0192614Y0141468D01*
X0192425Y0141494D01*
X0192236Y0141514D01*
X0192046Y0141530D01*
X0191856Y0141542D01*
X0191666Y0141549D01*
X0191476Y0141551D01*
X0010374Y0141551D01*
X0010184Y0141549D01*
X0009994Y0141542D01*
X0009804Y0141530D01*
X0009614Y0141514D01*
X0009425Y0141494D01*
X0009236Y0141468D01*
X0009048Y0141439D01*
X0008861Y0141404D01*
X0008675Y0141365D01*
X0008490Y0141322D01*
X0008305Y0141274D01*
X0008122Y0141222D01*
X0007941Y0141166D01*
X0007761Y0141105D01*
X0007582Y0141039D01*
X0007405Y0140970D01*
X0007229Y0140896D01*
X0007056Y0140818D01*
X0006884Y0140735D01*
X0006715Y0140649D01*
X0006547Y0140559D01*
X0006382Y0140464D01*
X0006219Y0140366D01*
X0006059Y0140263D01*
X0005901Y0140157D01*
X0005746Y0140047D01*
X0005593Y0139934D01*
X0005443Y0139816D01*
X0005297Y0139695D01*
X0005153Y0139571D01*
X0005012Y0139443D01*
X0004874Y0139312D01*
X0004739Y0139177D01*
X0004608Y0139039D01*
X0004480Y0138898D01*
X0004356Y0138754D01*
X0004235Y0138608D01*
X0004117Y0138458D01*
X0004004Y0138305D01*
X0003894Y0138150D01*
X0003788Y0137992D01*
X0003685Y0137832D01*
X0003587Y0137669D01*
X0003492Y0137504D01*
X0003402Y0137336D01*
X0003316Y0137167D01*
X0003233Y0136995D01*
X0003155Y0136822D01*
X0003081Y0136646D01*
X0003012Y0136469D01*
X0002946Y0136290D01*
X0002885Y0136110D01*
X0002829Y0135929D01*
X0002777Y0135746D01*
X0002729Y0135561D01*
X0002686Y0135376D01*
X0002647Y0135190D01*
X0002612Y0135003D01*
X0002583Y0134815D01*
X0002557Y0134626D01*
X0002537Y0134437D01*
X0002521Y0134247D01*
X0002509Y0134057D01*
X0002502Y0133867D01*
X0002500Y0133677D01*
X0002500Y0058874D01*
X0002502Y0058684D01*
X0002509Y0058494D01*
X0002521Y0058304D01*
X0002537Y0058114D01*
X0002557Y0057925D01*
X0002583Y0057736D01*
X0002612Y0057548D01*
X0002647Y0057361D01*
X0002686Y0057175D01*
X0002729Y0056990D01*
X0002777Y0056805D01*
X0002829Y0056622D01*
X0002885Y0056441D01*
X0002946Y0056261D01*
X0003012Y0056082D01*
X0003081Y0055905D01*
X0003155Y0055729D01*
X0003233Y0055556D01*
X0003316Y0055384D01*
X0003402Y0055215D01*
X0003492Y0055047D01*
X0003587Y0054882D01*
X0003685Y0054719D01*
X0003788Y0054559D01*
X0003894Y0054401D01*
X0004004Y0054246D01*
X0004117Y0054093D01*
X0004235Y0053943D01*
X0004356Y0053797D01*
X0004480Y0053653D01*
X0004608Y0053512D01*
X0004739Y0053374D01*
X0004874Y0053239D01*
X0005012Y0053108D01*
X0005153Y0052980D01*
X0005297Y0052856D01*
X0005443Y0052735D01*
X0005593Y0052617D01*
X0005746Y0052504D01*
X0005901Y0052394D01*
X0006059Y0052288D01*
X0006219Y0052185D01*
X0006382Y0052087D01*
X0006547Y0051992D01*
X0006715Y0051902D01*
X0006884Y0051816D01*
X0007056Y0051733D01*
X0007229Y0051655D01*
X0007405Y0051581D01*
X0007582Y0051512D01*
X0007761Y0051446D01*
X0007941Y0051385D01*
X0008122Y0051329D01*
X0008305Y0051277D01*
X0008490Y0051229D01*
X0008675Y0051186D01*
X0008861Y0051147D01*
X0009048Y0051112D01*
X0009236Y0051083D01*
X0009425Y0051057D01*
X0009614Y0051037D01*
X0009804Y0051021D01*
X0009994Y0051009D01*
X0010184Y0051002D01*
X0010374Y0051000D01*
D11*
X0054070Y0109362D03*
X0054070Y0111331D03*
X0054070Y0113299D03*
X0054070Y0115268D03*
X0054070Y0117236D03*
X0070709Y0117236D03*
X0070709Y0115268D03*
X0070709Y0113299D03*
X0070709Y0111331D03*
X0070709Y0109362D03*
D12*
X0070500Y0098150D03*
X0070500Y0091850D03*
X0062500Y0091850D03*
X0054500Y0091850D03*
X0054500Y0098150D03*
X0062500Y0098150D03*
X0062500Y0081150D03*
X0054500Y0081150D03*
X0054500Y0074850D03*
X0062500Y0074850D03*
X0070500Y0074850D03*
X0070500Y0081150D03*
X0083500Y0064150D03*
X0083500Y0057850D03*
X0120500Y0077850D03*
X0120500Y0084150D03*
X0129500Y0084150D03*
X0129500Y0077850D03*
X0138500Y0077850D03*
X0138500Y0084150D03*
X0136500Y0100850D03*
X0136500Y0107150D03*
X0126500Y0107150D03*
X0126500Y0100850D03*
X0116500Y0100850D03*
X0116500Y0107150D03*
X0146500Y0107150D03*
X0146500Y0100850D03*
X0156500Y0100850D03*
X0156500Y0107150D03*
X0049406Y0127150D03*
X0049406Y0133449D03*
X0041390Y0127449D03*
X0041390Y0121150D03*
X0034390Y0102349D03*
X0026390Y0102449D03*
X0026390Y0096150D03*
X0034390Y0096050D03*
D13*
X0066000Y0132000D03*
X0085000Y0132000D03*
D14*
X0006350Y0005000D03*
X0012650Y0005000D03*
X0012650Y0017000D03*
X0006350Y0017000D03*
X0006350Y0029000D03*
X0012650Y0029000D03*
X0012650Y0041000D03*
X0006350Y0041000D03*
X0035240Y0108299D03*
X0041539Y0108299D03*
D15*
X0055594Y0067937D03*
X0055594Y0064000D03*
X0055594Y0060063D03*
X0067406Y0060063D03*
X0067406Y0064000D03*
X0067406Y0067937D03*
D16*
X0061500Y0064000D03*
D17*
X0030280Y0108799D03*
X0026500Y0108799D03*
X0036500Y0113799D03*
X0040280Y0113799D03*
D18*
X0047500Y0111890D03*
X0047500Y0108110D03*
X0047500Y0116110D03*
X0047500Y0119890D03*
D19*
X0083984Y0097487D03*
X0086543Y0097487D03*
X0089102Y0097487D03*
X0091661Y0097487D03*
X0094220Y0097487D03*
X0096780Y0097487D03*
X0099339Y0097487D03*
X0101898Y0097487D03*
X0104457Y0097487D03*
X0107016Y0097487D03*
X0107016Y0074513D03*
X0104457Y0074513D03*
X0101898Y0074513D03*
X0099339Y0074513D03*
X0096780Y0074513D03*
X0094220Y0074513D03*
X0091661Y0074513D03*
X0089102Y0074513D03*
X0086543Y0074513D03*
X0083984Y0074513D03*
D20*
X0122500Y0128500D03*
X0127500Y0128500D03*
X0132500Y0128500D03*
X0137500Y0128500D03*
X0142500Y0128500D03*
X0142500Y0133500D03*
X0137500Y0133500D03*
X0132500Y0133500D03*
X0127500Y0133500D03*
X0122500Y0133500D03*
D21*
X0168657Y0095000D03*
X0188343Y0095000D03*
D22*
X0178500Y0106024D03*
D23*
X0011500Y0106000D03*
X0011500Y0096000D03*
X0011500Y0086000D03*
D24*
X0018248Y0066748D03*
X0018248Y0125803D03*
X0183602Y0125803D03*
X0183602Y0066748D03*
D25*
X0207760Y0149472D03*
X0211500Y0149472D03*
X0215240Y0149472D03*
X0215240Y0158528D03*
X0211500Y0158528D03*
X0207760Y0158528D03*
D26*
X0139500Y0060000D03*
X0129500Y0060000D03*
D27*
X0129500Y0077850D02*
X0129831Y0077850D01*
X0129500Y0084150D02*
X0120500Y0084150D01*
X0129500Y0084150D02*
X0138500Y0084150D01*
X0138500Y0077850D02*
X0145650Y0077850D01*
X0154500Y0069000D01*
X0154500Y0064063D01*
X0168657Y0095000D02*
X0165807Y0097850D01*
X0122500Y0128500D02*
X0121000Y0128500D01*
X0116500Y0133000D01*
X0109500Y0133000D01*
X0101500Y0125000D01*
X0101500Y0117000D01*
X0105500Y0113000D01*
X0094220Y0097487D02*
X0094220Y0088000D01*
X0097500Y0088000D01*
X0094220Y0074513D02*
X0094220Y0070280D01*
X0085780Y0070280D01*
X0083500Y0068000D01*
X0083500Y0064150D01*
X0078650Y0069000D01*
X0073650Y0064000D01*
X0070500Y0064000D01*
X0070500Y0057000D01*
X0069500Y0056000D01*
X0047500Y0056000D01*
X0045500Y0058000D01*
X0045500Y0085000D01*
X0048500Y0088000D01*
X0066350Y0088000D01*
X0062500Y0091850D01*
X0054500Y0091850D01*
X0061350Y0098150D02*
X0056000Y0103500D01*
X0049000Y0103500D01*
X0047500Y0105000D01*
X0047500Y0108110D01*
X0049890Y0108110D01*
X0051000Y0107000D01*
X0054070Y0109362D02*
X0060433Y0103000D01*
X0072500Y0103000D01*
X0074500Y0101000D01*
X0074500Y0090000D01*
X0072500Y0088000D01*
X0066350Y0088000D01*
X0062500Y0098150D02*
X0061350Y0098150D01*
X0062500Y0098150D02*
X0070500Y0098150D01*
X0047500Y0111890D02*
X0045130Y0111890D01*
X0041539Y0108299D01*
X0035240Y0108299D02*
X0034390Y0107449D01*
X0034390Y0102349D01*
X0035240Y0108299D02*
X0035240Y0112539D01*
X0036500Y0113799D01*
X0040280Y0113799D02*
X0041390Y0114909D01*
X0041390Y0116000D01*
X0041390Y0121150D01*
X0047500Y0119890D02*
X0051390Y0119890D01*
X0051000Y0120000D01*
X0054070Y0122485D02*
X0049406Y0127150D01*
X0061150Y0127150D01*
X0066000Y0132000D01*
X0054070Y0122485D02*
X0054070Y0117236D01*
X0048390Y0116110D02*
X0047500Y0116110D01*
X0035240Y0108299D02*
X0034740Y0108799D01*
X0030280Y0108799D01*
X0026500Y0108799D02*
X0026500Y0102559D01*
X0026390Y0102449D01*
X0023949Y0102449D01*
X0017500Y0096000D01*
X0011500Y0096000D01*
X0041390Y0127449D02*
X0047390Y0133449D01*
X0049406Y0133449D01*
X0054500Y0074850D02*
X0062500Y0074850D01*
X0070500Y0074850D01*
X0070650Y0075000D02*
X0075500Y0075000D01*
X0078650Y0071850D01*
X0078650Y0069000D01*
X0070500Y0064000D02*
X0067406Y0064000D01*
X0094220Y0070280D02*
X0099500Y0065000D01*
D28*
X0101800Y0064979D02*
X0127933Y0064979D01*
X0128466Y0065200D02*
X0126554Y0064408D01*
X0125092Y0062946D01*
X0124300Y0061034D01*
X0124300Y0058966D01*
X0125092Y0057054D01*
X0126554Y0055592D01*
X0128466Y0054800D01*
X0130534Y0054800D01*
X0132446Y0055592D01*
X0133908Y0057054D01*
X0134500Y0058483D01*
X0135092Y0057054D01*
X0136554Y0055592D01*
X0138466Y0054800D01*
X0140534Y0054800D01*
X0142446Y0055592D01*
X0143908Y0057054D01*
X0144700Y0058966D01*
X0144700Y0061034D01*
X0143908Y0062946D01*
X0142446Y0064408D01*
X0140534Y0065200D01*
X0138466Y0065200D01*
X0136554Y0064408D01*
X0135092Y0062946D01*
X0134500Y0061517D01*
X0133908Y0062946D01*
X0132446Y0064408D01*
X0130534Y0065200D01*
X0128466Y0065200D01*
X0126127Y0063981D02*
X0101733Y0063981D01*
X0101800Y0064047D02*
X0101800Y0065953D01*
X0099753Y0068000D01*
X0109328Y0068000D01*
X0110228Y0068900D01*
X0110370Y0068900D01*
X0111600Y0070130D01*
X0111600Y0079130D01*
X0114519Y0082050D01*
X0117031Y0082050D01*
X0117031Y0081658D01*
X0117711Y0080979D01*
X0117610Y0080921D01*
X0117331Y0080641D01*
X0117134Y0080299D01*
X0117031Y0079918D01*
X0117031Y0078285D01*
X0120065Y0078285D01*
X0120065Y0077415D01*
X0120935Y0077415D01*
X0120935Y0074480D01*
X0122666Y0074480D01*
X0123047Y0074583D01*
X0123390Y0074780D01*
X0123669Y0075059D01*
X0123866Y0075401D01*
X0123968Y0075783D01*
X0123968Y0077415D01*
X0120935Y0077415D01*
X0120935Y0078285D01*
X0123968Y0078285D01*
X0123968Y0079918D01*
X0123866Y0080299D01*
X0123669Y0080641D01*
X0123390Y0080921D01*
X0123289Y0080979D01*
X0123968Y0081658D01*
X0123968Y0081850D01*
X0126031Y0081850D01*
X0126031Y0081658D01*
X0126690Y0081000D01*
X0126031Y0080342D01*
X0126031Y0075359D01*
X0126910Y0074480D01*
X0132090Y0074480D01*
X0132968Y0075359D01*
X0132968Y0080342D01*
X0132310Y0081000D01*
X0132968Y0081658D01*
X0132968Y0081850D01*
X0135031Y0081850D01*
X0135031Y0081658D01*
X0135711Y0080979D01*
X0135610Y0080921D01*
X0135331Y0080641D01*
X0135134Y0080299D01*
X0135031Y0079918D01*
X0135031Y0078285D01*
X0138065Y0078285D01*
X0138065Y0077415D01*
X0138935Y0077415D01*
X0138935Y0074480D01*
X0140666Y0074480D01*
X0141047Y0074583D01*
X0141390Y0074780D01*
X0141669Y0075059D01*
X0141866Y0075401D01*
X0141968Y0075783D01*
X0141968Y0077415D01*
X0138935Y0077415D01*
X0138935Y0078285D01*
X0141968Y0078285D01*
X0141968Y0079918D01*
X0141866Y0080299D01*
X0141669Y0080641D01*
X0141390Y0080921D01*
X0141289Y0080979D01*
X0141968Y0081658D01*
X0141968Y0086641D01*
X0141090Y0087520D01*
X0135910Y0087520D01*
X0135031Y0086641D01*
X0135031Y0086450D01*
X0132968Y0086450D01*
X0132968Y0086641D01*
X0132090Y0087520D01*
X0126910Y0087520D01*
X0126031Y0086641D01*
X0126031Y0086450D01*
X0123968Y0086450D01*
X0123968Y0086641D01*
X0123090Y0087520D01*
X0117910Y0087520D01*
X0117031Y0086641D01*
X0117031Y0086250D01*
X0112780Y0086250D01*
X0111600Y0085070D01*
X0111600Y0090130D01*
X0114370Y0092900D01*
X0131370Y0092900D01*
X0132600Y0094130D01*
X0135950Y0097480D01*
X0139090Y0097480D01*
X0139968Y0098359D01*
X0139968Y0098750D01*
X0143031Y0098750D01*
X0143031Y0098359D01*
X0143910Y0097480D01*
X0149090Y0097480D01*
X0149968Y0098359D01*
X0149968Y0101562D01*
X0152780Y0098750D01*
X0153031Y0098750D01*
X0153031Y0098359D01*
X0153910Y0097480D01*
X0156900Y0097480D01*
X0158630Y0095750D01*
X0159646Y0095750D01*
X0159646Y0093207D01*
X0161018Y0089895D01*
X0163553Y0087360D01*
X0166865Y0085988D01*
X0170450Y0085988D01*
X0173762Y0087360D01*
X0176297Y0089895D01*
X0177669Y0093207D01*
X0177669Y0096793D01*
X0176297Y0100105D01*
X0176012Y0100390D01*
X0180988Y0100390D01*
X0180703Y0100105D01*
X0179331Y0096793D01*
X0179331Y0093207D01*
X0180703Y0089895D01*
X0183238Y0087360D01*
X0186550Y0085988D01*
X0190135Y0085988D01*
X0193447Y0087360D01*
X0195982Y0089895D01*
X0197354Y0093207D01*
X0197354Y0096793D01*
X0195982Y0100105D01*
X0193447Y0102640D01*
X0190135Y0104012D01*
X0186550Y0104012D01*
X0184724Y0103255D01*
X0184134Y0103785D01*
X0184134Y0110779D01*
X0183255Y0111657D01*
X0173745Y0111657D01*
X0172866Y0110779D01*
X0172866Y0109124D01*
X0159968Y0109124D01*
X0159968Y0109641D01*
X0159090Y0110520D01*
X0156100Y0110520D01*
X0152519Y0114100D01*
X0147570Y0114100D01*
X0148600Y0115130D01*
X0148600Y0131870D01*
X0147370Y0133100D01*
X0146181Y0134289D01*
X0146181Y0135025D01*
X0144025Y0137181D01*
X0140975Y0137181D01*
X0140000Y0136206D01*
X0139025Y0137181D01*
X0135975Y0137181D01*
X0135000Y0136206D01*
X0134025Y0137181D01*
X0130975Y0137181D01*
X0130000Y0136206D01*
X0129025Y0137181D01*
X0128289Y0137181D01*
X0126370Y0139100D01*
X0106630Y0139100D01*
X0105400Y0137870D01*
X0095400Y0127870D01*
X0095400Y0115930D01*
X0095084Y0115614D01*
X0094650Y0114567D01*
X0094650Y0113433D01*
X0095084Y0112386D01*
X0093370Y0114100D01*
X0088430Y0114100D01*
X0088114Y0114416D01*
X0087067Y0114850D01*
X0085933Y0114850D01*
X0084886Y0114416D01*
X0084084Y0113614D01*
X0084017Y0113453D01*
X0080102Y0117368D01*
X0074178Y0117368D01*
X0074178Y0118350D01*
X0073299Y0119228D01*
X0071687Y0119228D01*
X0071579Y0119336D01*
X0066866Y0119336D01*
X0065630Y0118100D01*
X0064400Y0116870D01*
X0064400Y0107130D01*
X0065400Y0106130D01*
X0066230Y0105300D01*
X0061385Y0105300D01*
X0057539Y0109146D01*
X0057539Y0114413D01*
X0057504Y0114448D01*
X0057539Y0114578D01*
X0057539Y0115268D01*
X0057539Y0115957D01*
X0057504Y0116088D01*
X0057539Y0116123D01*
X0057539Y0118350D01*
X0056660Y0119228D01*
X0056370Y0119228D01*
X0056370Y0123437D01*
X0054958Y0124850D01*
X0062102Y0124850D01*
X0065162Y0127909D01*
X0065184Y0127900D01*
X0066816Y0127900D01*
X0068322Y0128524D01*
X0069476Y0129678D01*
X0070100Y0131184D01*
X0070100Y0132816D01*
X0069476Y0134322D01*
X0068322Y0135476D01*
X0066816Y0136100D01*
X0065184Y0136100D01*
X0063678Y0135476D01*
X0062524Y0134322D01*
X0061900Y0132816D01*
X0061900Y0131184D01*
X0061909Y0131162D01*
X0060197Y0129450D01*
X0052874Y0129450D01*
X0052874Y0129641D01*
X0052195Y0130320D01*
X0052295Y0130378D01*
X0052574Y0130658D01*
X0052772Y0131000D01*
X0052874Y0131381D01*
X0052874Y0133014D01*
X0049841Y0133014D01*
X0049841Y0133884D01*
X0052874Y0133884D01*
X0052874Y0135516D01*
X0052772Y0135898D01*
X0052574Y0136240D01*
X0052295Y0136519D01*
X0051953Y0136717D01*
X0051571Y0136819D01*
X0049841Y0136819D01*
X0049841Y0133884D01*
X0048970Y0133884D01*
X0048970Y0133014D01*
X0045937Y0133014D01*
X0045937Y0131381D01*
X0046039Y0131000D01*
X0046237Y0130658D01*
X0046516Y0130378D01*
X0046616Y0130320D01*
X0045937Y0129641D01*
X0045937Y0124658D01*
X0046816Y0123780D01*
X0049523Y0123780D01*
X0050452Y0122850D01*
X0050433Y0122850D01*
X0049589Y0122500D01*
X0049539Y0122551D01*
X0045461Y0122551D01*
X0044858Y0121948D01*
X0044858Y0123641D01*
X0044179Y0124320D01*
X0044279Y0124378D01*
X0044559Y0124658D01*
X0044756Y0125000D01*
X0044858Y0125381D01*
X0044858Y0127014D01*
X0041825Y0127014D01*
X0041825Y0127884D01*
X0044858Y0127884D01*
X0044858Y0129516D01*
X0044756Y0129898D01*
X0044559Y0130240D01*
X0044279Y0130519D01*
X0043937Y0130717D01*
X0043556Y0130819D01*
X0041825Y0130819D01*
X0041825Y0127884D01*
X0040955Y0127884D01*
X0040955Y0130819D01*
X0039224Y0130819D01*
X0038842Y0130717D01*
X0038500Y0130519D01*
X0038221Y0130240D01*
X0038023Y0129898D01*
X0037921Y0129516D01*
X0037921Y0127884D01*
X0040955Y0127884D01*
X0040955Y0127014D01*
X0037921Y0127014D01*
X0037921Y0125381D01*
X0038023Y0125000D01*
X0038221Y0124658D01*
X0038500Y0124378D01*
X0038601Y0124320D01*
X0037921Y0123641D01*
X0037921Y0118658D01*
X0038800Y0117780D01*
X0039090Y0117780D01*
X0039090Y0116717D01*
X0038497Y0116717D01*
X0038390Y0116609D01*
X0038283Y0116717D01*
X0034717Y0116717D01*
X0033839Y0115838D01*
X0033839Y0114390D01*
X0032940Y0113492D01*
X0032940Y0111768D01*
X0032749Y0111768D01*
X0032380Y0111399D01*
X0032062Y0111717D01*
X0028497Y0111717D01*
X0028390Y0111609D01*
X0028283Y0111717D01*
X0024717Y0111717D01*
X0023839Y0110838D01*
X0023839Y0106761D01*
X0024200Y0106399D01*
X0024200Y0105819D01*
X0023800Y0105819D01*
X0022921Y0104940D01*
X0022921Y0104674D01*
X0021649Y0103402D01*
X0020982Y0102734D01*
X0021000Y0102803D01*
X0021000Y0105500D01*
X0012000Y0105500D01*
X0012000Y0106500D01*
X0011000Y0106500D01*
X0011000Y0110500D01*
X0004000Y0110500D01*
X0004000Y0133677D01*
X0004078Y0134674D01*
X0004695Y0136571D01*
X0005867Y0138184D01*
X0007480Y0139356D01*
X0009377Y0139973D01*
X0010374Y0140051D01*
X0191476Y0140051D01*
X0192473Y0139973D01*
X0194370Y0139356D01*
X0195983Y0138184D01*
X0197156Y0136571D01*
X0197772Y0134674D01*
X0197850Y0133677D01*
X0197850Y0058874D01*
X0197772Y0057877D01*
X0197156Y0055980D01*
X0195983Y0054367D01*
X0194370Y0053195D01*
X0192473Y0052578D01*
X0191476Y0052500D01*
X0010374Y0052500D01*
X0009377Y0052578D01*
X0007480Y0053195D01*
X0005867Y0054367D01*
X0004695Y0055980D01*
X0004078Y0057877D01*
X0004000Y0058874D01*
X0004000Y0081500D01*
X0011000Y0081500D01*
X0011000Y0085500D01*
X0012000Y0085500D01*
X0012000Y0086500D01*
X0011000Y0086500D01*
X0011000Y0090500D01*
X0004000Y0090500D01*
X0004000Y0091500D01*
X0020121Y0091500D01*
X0021000Y0092379D01*
X0021000Y0096247D01*
X0022921Y0098169D01*
X0022921Y0096585D01*
X0025955Y0096585D01*
X0025955Y0095715D01*
X0022921Y0095715D01*
X0022921Y0094082D01*
X0023023Y0093701D01*
X0023221Y0093359D01*
X0023500Y0093079D01*
X0023842Y0092882D01*
X0024224Y0092780D01*
X0025955Y0092780D01*
X0025955Y0095714D01*
X0026825Y0095714D01*
X0026825Y0092780D01*
X0028556Y0092780D01*
X0028937Y0092882D01*
X0029279Y0093079D01*
X0029559Y0093359D01*
X0029756Y0093701D01*
X0029858Y0094082D01*
X0029858Y0095715D01*
X0026825Y0095715D01*
X0026825Y0096585D01*
X0029858Y0096585D01*
X0029858Y0098217D01*
X0029756Y0098599D01*
X0029559Y0098941D01*
X0029279Y0099220D01*
X0029179Y0099278D01*
X0029858Y0099957D01*
X0029858Y0104940D01*
X0028980Y0105819D01*
X0028800Y0105819D01*
X0028800Y0105882D01*
X0031870Y0105882D01*
X0031870Y0105719D01*
X0031800Y0105719D01*
X0030921Y0104840D01*
X0030921Y0099857D01*
X0031601Y0099178D01*
X0031500Y0099120D01*
X0031221Y0098841D01*
X0031023Y0098499D01*
X0030921Y0098117D01*
X0030921Y0096485D01*
X0033955Y0096485D01*
X0033955Y0095615D01*
X0030921Y0095615D01*
X0030921Y0093982D01*
X0031023Y0093601D01*
X0031221Y0093259D01*
X0031500Y0092979D01*
X0031842Y0092782D01*
X0032224Y0092680D01*
X0033955Y0092680D01*
X0033955Y0095614D01*
X0034825Y0095614D01*
X0034825Y0092680D01*
X0036556Y0092680D01*
X0036937Y0092782D01*
X0037279Y0092979D01*
X0037559Y0093259D01*
X0037756Y0093601D01*
X0037858Y0093982D01*
X0037858Y0095615D01*
X0034825Y0095615D01*
X0034825Y0096485D01*
X0037858Y0096485D01*
X0037858Y0098117D01*
X0037756Y0098499D01*
X0037559Y0098841D01*
X0037279Y0099120D01*
X0037179Y0099178D01*
X0037858Y0099857D01*
X0037858Y0104840D01*
X0037800Y0104899D01*
X0038390Y0105489D01*
X0039048Y0104831D01*
X0044031Y0104831D01*
X0044909Y0105709D01*
X0044909Y0106001D01*
X0045200Y0105710D01*
X0045200Y0104047D01*
X0046547Y0102700D01*
X0046547Y0102700D01*
X0046700Y0102547D01*
X0048047Y0101200D01*
X0051591Y0101200D01*
X0051331Y0100941D01*
X0051134Y0100599D01*
X0051031Y0100217D01*
X0051031Y0098585D01*
X0054065Y0098585D01*
X0054065Y0097715D01*
X0051031Y0097715D01*
X0051031Y0096082D01*
X0051134Y0095701D01*
X0051331Y0095359D01*
X0051610Y0095079D01*
X0051711Y0095021D01*
X0051031Y0094342D01*
X0051031Y0090300D01*
X0047547Y0090300D01*
X0044547Y0087300D01*
X0043200Y0085953D01*
X0043200Y0057047D01*
X0046547Y0053700D01*
X0070453Y0053700D01*
X0071453Y0054700D01*
X0072800Y0056047D01*
X0072800Y0061700D01*
X0074602Y0061700D01*
X0078650Y0065747D01*
X0080031Y0064365D01*
X0080031Y0061658D01*
X0080711Y0060979D01*
X0080610Y0060921D01*
X0080331Y0060641D01*
X0080134Y0060299D01*
X0080031Y0059918D01*
X0080031Y0058285D01*
X0083065Y0058285D01*
X0083065Y0057415D01*
X0083935Y0057415D01*
X0083935Y0054480D01*
X0085666Y0054480D01*
X0086047Y0054583D01*
X0086390Y0054780D01*
X0086669Y0055059D01*
X0086866Y0055401D01*
X0086968Y0055783D01*
X0086968Y0057415D01*
X0083935Y0057415D01*
X0083935Y0058285D01*
X0086968Y0058285D01*
X0086968Y0059918D01*
X0086866Y0060299D01*
X0086669Y0060641D01*
X0086390Y0060921D01*
X0086289Y0060979D01*
X0086968Y0061658D01*
X0086968Y0066641D01*
X0086181Y0067428D01*
X0086732Y0067980D01*
X0093268Y0067980D01*
X0098547Y0062700D01*
X0100453Y0062700D01*
X0101800Y0064047D01*
X0100735Y0062982D02*
X0125128Y0062982D01*
X0124693Y0061984D02*
X0086968Y0061984D01*
X0086968Y0062982D02*
X0098265Y0062982D01*
X0097267Y0063981D02*
X0086968Y0063981D01*
X0086968Y0064979D02*
X0096268Y0064979D01*
X0095270Y0065978D02*
X0086968Y0065978D01*
X0086633Y0066976D02*
X0094271Y0066976D01*
X0093273Y0067975D02*
X0086727Y0067975D01*
X0083310Y0071063D02*
X0082547Y0070300D01*
X0081575Y0069327D01*
X0080950Y0069953D01*
X0080950Y0072803D01*
X0080142Y0073611D01*
X0080916Y0074386D01*
X0081350Y0075433D01*
X0081350Y0076567D01*
X0080916Y0077614D01*
X0080600Y0077930D01*
X0080600Y0079130D01*
X0088017Y0086547D01*
X0088084Y0086386D01*
X0088886Y0085584D01*
X0089400Y0085371D01*
X0089400Y0077963D01*
X0087881Y0077963D01*
X0087823Y0077904D01*
X0087765Y0077963D01*
X0085322Y0077963D01*
X0085199Y0077840D01*
X0085163Y0077860D01*
X0084782Y0077963D01*
X0083984Y0077963D01*
X0083187Y0077963D01*
X0082805Y0077860D01*
X0082463Y0077663D01*
X0082184Y0077384D01*
X0081986Y0077042D01*
X0081884Y0076660D01*
X0081884Y0074513D01*
X0083984Y0074513D01*
X0083984Y0077963D01*
X0083984Y0074513D01*
X0083984Y0074513D01*
X0083984Y0074513D01*
X0081884Y0074513D01*
X0081884Y0072365D01*
X0081986Y0071984D01*
X0082184Y0071642D01*
X0082463Y0071362D01*
X0082805Y0071165D01*
X0083187Y0071063D01*
X0083310Y0071063D01*
X0083218Y0070970D02*
X0080950Y0070970D01*
X0080950Y0069972D02*
X0082219Y0069972D01*
X0081995Y0071969D02*
X0080950Y0071969D01*
X0080785Y0072967D02*
X0081884Y0072967D01*
X0081884Y0073966D02*
X0080496Y0073966D01*
X0081156Y0074964D02*
X0081884Y0074964D01*
X0081884Y0075963D02*
X0081350Y0075963D01*
X0081187Y0076961D02*
X0081965Y0076961D01*
X0083176Y0077960D02*
X0080600Y0077960D01*
X0080600Y0078958D02*
X0089400Y0078958D01*
X0089400Y0079957D02*
X0081427Y0079957D01*
X0082425Y0080955D02*
X0089400Y0080955D01*
X0089400Y0081954D02*
X0083424Y0081954D01*
X0084422Y0082952D02*
X0089400Y0082952D01*
X0089400Y0083951D02*
X0085421Y0083951D01*
X0086419Y0084949D02*
X0089400Y0084949D01*
X0088522Y0085948D02*
X0087418Y0085948D01*
X0082472Y0089942D02*
X0076800Y0089942D01*
X0076800Y0089047D02*
X0075353Y0087600D01*
X0080130Y0087600D01*
X0086568Y0094037D01*
X0085322Y0094037D01*
X0085264Y0094096D01*
X0085206Y0094037D01*
X0082763Y0094037D01*
X0081884Y0094916D01*
X0081884Y0098646D01*
X0079380Y0101150D01*
X0078933Y0101150D01*
X0077886Y0101584D01*
X0077084Y0102386D01*
X0076650Y0103433D01*
X0076650Y0104567D01*
X0077084Y0105614D01*
X0077886Y0106416D01*
X0078933Y0106850D01*
X0080067Y0106850D01*
X0081114Y0106416D01*
X0081916Y0105614D01*
X0082258Y0104789D01*
X0082886Y0105416D01*
X0083047Y0105483D01*
X0081630Y0106900D01*
X0076370Y0106900D01*
X0074370Y0104900D01*
X0073853Y0104900D01*
X0075453Y0103300D01*
X0076800Y0101953D01*
X0076800Y0089047D01*
X0076696Y0088943D02*
X0081474Y0088943D01*
X0080475Y0087945D02*
X0075698Y0087945D01*
X0076800Y0090940D02*
X0083471Y0090940D01*
X0084469Y0091939D02*
X0076800Y0091939D01*
X0076800Y0092937D02*
X0085468Y0092937D01*
X0086466Y0093936D02*
X0076800Y0093936D01*
X0076800Y0094934D02*
X0081884Y0094934D01*
X0081884Y0095933D02*
X0076800Y0095933D01*
X0076800Y0096932D02*
X0081884Y0096932D01*
X0081884Y0097930D02*
X0076800Y0097930D01*
X0076800Y0098929D02*
X0081602Y0098929D01*
X0080603Y0099927D02*
X0076800Y0099927D01*
X0076800Y0100926D02*
X0079605Y0100926D01*
X0077545Y0101924D02*
X0076800Y0101924D01*
X0076861Y0102923D02*
X0075830Y0102923D01*
X0076650Y0103921D02*
X0074832Y0103921D01*
X0074389Y0104920D02*
X0076796Y0104920D01*
X0077388Y0105918D02*
X0075388Y0105918D01*
X0081612Y0105918D02*
X0082612Y0105918D01*
X0082389Y0104920D02*
X0082204Y0104920D01*
X0087953Y0109517D02*
X0088114Y0109584D01*
X0088430Y0109900D01*
X0091630Y0109900D01*
X0099798Y0101733D01*
X0099798Y0100937D01*
X0098117Y0100937D01*
X0097994Y0100814D01*
X0097959Y0100835D01*
X0097577Y0100937D01*
X0096780Y0100937D01*
X0096780Y0097488D01*
X0096779Y0097488D01*
X0096779Y0100937D01*
X0095982Y0100937D01*
X0095601Y0100835D01*
X0095565Y0100814D01*
X0095442Y0100937D01*
X0093600Y0100937D01*
X0093600Y0103870D01*
X0092370Y0105100D01*
X0087953Y0109517D01*
X0088556Y0108914D02*
X0092616Y0108914D01*
X0093615Y0107915D02*
X0089555Y0107915D01*
X0090553Y0106917D02*
X0094614Y0106917D01*
X0095612Y0105918D02*
X0091552Y0105918D01*
X0092550Y0104920D02*
X0096611Y0104920D01*
X0097609Y0103921D02*
X0093549Y0103921D01*
X0093600Y0102923D02*
X0098608Y0102923D01*
X0099606Y0101924D02*
X0093600Y0101924D01*
X0095454Y0100926D02*
X0095938Y0100926D01*
X0096779Y0100926D02*
X0096780Y0100926D01*
X0097621Y0100926D02*
X0098105Y0100926D01*
X0096780Y0099927D02*
X0096779Y0099927D01*
X0096779Y0098929D02*
X0096780Y0098929D01*
X0096779Y0097930D02*
X0096780Y0097930D01*
X0096780Y0097487D02*
X0096780Y0094037D01*
X0097577Y0094037D01*
X0097959Y0094140D01*
X0097994Y0094160D01*
X0098117Y0094037D01*
X0100560Y0094037D01*
X0100618Y0094096D01*
X0100676Y0094037D01*
X0103119Y0094037D01*
X0103177Y0094096D01*
X0103235Y0094037D01*
X0105678Y0094037D01*
X0105736Y0094096D01*
X0105794Y0094037D01*
X0108237Y0094037D01*
X0109116Y0094916D01*
X0109116Y0099900D01*
X0113031Y0099900D01*
X0113031Y0098359D01*
X0113910Y0097480D01*
X0119090Y0097480D01*
X0119968Y0098359D01*
X0119968Y0103342D01*
X0119310Y0104000D01*
X0119968Y0104658D01*
X0119968Y0105050D01*
X0123031Y0105050D01*
X0123031Y0104658D01*
X0123711Y0103979D01*
X0123610Y0103921D01*
X0123331Y0103641D01*
X0123134Y0103299D01*
X0123031Y0102918D01*
X0123031Y0101285D01*
X0126065Y0101285D01*
X0126065Y0100415D01*
X0126935Y0100415D01*
X0126935Y0097480D01*
X0128666Y0097480D01*
X0129047Y0097583D01*
X0129390Y0097780D01*
X0129669Y0098059D01*
X0129866Y0098401D01*
X0129968Y0098783D01*
X0129968Y0100415D01*
X0126935Y0100415D01*
X0126935Y0101285D01*
X0129968Y0101285D01*
X0129968Y0102918D01*
X0129866Y0103299D01*
X0129669Y0103641D01*
X0129390Y0103921D01*
X0129289Y0103979D01*
X0129968Y0104658D01*
X0129968Y0106499D01*
X0133031Y0109562D01*
X0133031Y0104658D01*
X0133690Y0104000D01*
X0133031Y0103342D01*
X0133031Y0100501D01*
X0129630Y0097100D01*
X0112630Y0097100D01*
X0108630Y0093100D01*
X0107400Y0091870D01*
X0107400Y0083870D01*
X0105630Y0082100D01*
X0097630Y0082100D01*
X0096400Y0080870D01*
X0096320Y0080790D01*
X0096320Y0085404D01*
X0096933Y0085150D01*
X0098067Y0085150D01*
X0099114Y0085584D01*
X0099916Y0086386D01*
X0100350Y0087433D01*
X0100350Y0088567D01*
X0099916Y0089614D01*
X0099114Y0090416D01*
X0098067Y0090850D01*
X0096933Y0090850D01*
X0096520Y0090679D01*
X0096520Y0094037D01*
X0096779Y0094037D01*
X0096779Y0097487D01*
X0096780Y0097487D01*
X0096779Y0096932D02*
X0096780Y0096932D01*
X0096779Y0095933D02*
X0096780Y0095933D01*
X0096779Y0094934D02*
X0096780Y0094934D01*
X0096520Y0093936D02*
X0109466Y0093936D01*
X0109116Y0094934D02*
X0110465Y0094934D01*
X0111463Y0095933D02*
X0109116Y0095933D01*
X0109116Y0096932D02*
X0112462Y0096932D01*
X0113460Y0097930D02*
X0109116Y0097930D01*
X0109116Y0098929D02*
X0113031Y0098929D01*
X0115350Y0102000D02*
X0116500Y0100850D01*
X0119968Y0100926D02*
X0126065Y0100926D01*
X0126065Y0100415D02*
X0123031Y0100415D01*
X0123031Y0098783D01*
X0123134Y0098401D01*
X0123331Y0098059D01*
X0123610Y0097780D01*
X0123953Y0097583D01*
X0124334Y0097480D01*
X0126065Y0097480D01*
X0126065Y0100415D01*
X0126065Y0099927D02*
X0126935Y0099927D01*
X0126935Y0098929D02*
X0126065Y0098929D01*
X0126065Y0097930D02*
X0126935Y0097930D01*
X0129540Y0097930D02*
X0130460Y0097930D01*
X0129968Y0098929D02*
X0131459Y0098929D01*
X0132457Y0099927D02*
X0129968Y0099927D01*
X0126935Y0100926D02*
X0133031Y0100926D01*
X0133031Y0101924D02*
X0129968Y0101924D01*
X0129967Y0102923D02*
X0133031Y0102923D01*
X0133611Y0103921D02*
X0129389Y0103921D01*
X0129968Y0104920D02*
X0133031Y0104920D01*
X0133031Y0105918D02*
X0129968Y0105918D01*
X0130386Y0106917D02*
X0133031Y0106917D01*
X0133031Y0107915D02*
X0131385Y0107915D01*
X0132383Y0108914D02*
X0133031Y0108914D01*
X0127650Y0107150D02*
X0126500Y0107150D01*
X0123031Y0104920D02*
X0119968Y0104920D01*
X0119389Y0103921D02*
X0123611Y0103921D01*
X0123033Y0102923D02*
X0119968Y0102923D01*
X0119968Y0101924D02*
X0123031Y0101924D01*
X0123031Y0099927D02*
X0119968Y0099927D01*
X0119968Y0098929D02*
X0123031Y0098929D01*
X0123460Y0097930D02*
X0119540Y0097930D01*
X0113409Y0091939D02*
X0160171Y0091939D01*
X0159757Y0092937D02*
X0131407Y0092937D01*
X0132406Y0093936D02*
X0159646Y0093936D01*
X0159646Y0094934D02*
X0133404Y0094934D01*
X0134403Y0095933D02*
X0158448Y0095933D01*
X0157449Y0096932D02*
X0135401Y0096932D01*
X0136350Y0100850D02*
X0136500Y0100850D01*
X0139540Y0097930D02*
X0143460Y0097930D01*
X0149540Y0097930D02*
X0153460Y0097930D01*
X0152602Y0098929D02*
X0149968Y0098929D01*
X0149968Y0099927D02*
X0151603Y0099927D01*
X0150605Y0100926D02*
X0149968Y0100926D01*
X0153549Y0103921D02*
X0153611Y0103921D01*
X0153580Y0103890D02*
X0152600Y0104870D01*
X0151370Y0106100D01*
X0149968Y0106100D01*
X0149968Y0106715D01*
X0146935Y0106715D01*
X0146935Y0107585D01*
X0149968Y0107585D01*
X0149968Y0109217D01*
X0149866Y0109599D01*
X0149692Y0109900D01*
X0150780Y0109900D01*
X0153031Y0107648D01*
X0153031Y0104658D01*
X0153690Y0104000D01*
X0153580Y0103890D01*
X0153031Y0104920D02*
X0152550Y0104920D01*
X0153031Y0105918D02*
X0151552Y0105918D01*
X0153031Y0106917D02*
X0146935Y0106917D01*
X0146065Y0106917D02*
X0139968Y0106917D01*
X0139968Y0106651D02*
X0139968Y0109641D01*
X0139709Y0109900D01*
X0143308Y0109900D01*
X0143134Y0109599D01*
X0143031Y0109217D01*
X0143031Y0107585D01*
X0146065Y0107585D01*
X0146065Y0106715D01*
X0143031Y0106715D01*
X0143031Y0106100D01*
X0140519Y0106100D01*
X0139968Y0106651D01*
X0139968Y0107915D02*
X0143031Y0107915D01*
X0143031Y0108914D02*
X0139968Y0108914D01*
X0143630Y0116100D02*
X0129630Y0116100D01*
X0126630Y0113100D01*
X0108350Y0113100D01*
X0108350Y0113567D01*
X0107916Y0114614D01*
X0107114Y0115416D01*
X0106067Y0115850D01*
X0105903Y0115850D01*
X0103800Y0117953D01*
X0103800Y0124047D01*
X0110453Y0130700D01*
X0115547Y0130700D01*
X0118819Y0127428D01*
X0118819Y0126975D01*
X0120975Y0124819D01*
X0124025Y0124819D01*
X0125000Y0125794D01*
X0125975Y0124819D01*
X0127409Y0124819D01*
X0127409Y0128409D01*
X0127591Y0128409D01*
X0127591Y0128591D01*
X0131181Y0128591D01*
X0132409Y0128591D01*
X0132409Y0128409D01*
X0132591Y0128409D01*
X0132591Y0128591D01*
X0137409Y0128591D01*
X0137409Y0128409D01*
X0133819Y0128409D01*
X0132591Y0128409D01*
X0132591Y0124819D01*
X0134025Y0124819D01*
X0135000Y0125794D01*
X0135975Y0124819D01*
X0137409Y0124819D01*
X0137409Y0128409D01*
X0137591Y0128409D01*
X0137591Y0128591D01*
X0142409Y0128591D01*
X0142409Y0128409D01*
X0142591Y0128409D01*
X0142591Y0124819D01*
X0144025Y0124819D01*
X0144400Y0125194D01*
X0144400Y0116870D01*
X0143630Y0116100D01*
X0144400Y0116902D02*
X0104851Y0116902D01*
X0103852Y0117900D02*
X0144400Y0117900D01*
X0144400Y0118899D02*
X0103800Y0118899D01*
X0103800Y0119897D02*
X0144400Y0119897D01*
X0144400Y0120896D02*
X0103800Y0120896D01*
X0103800Y0121894D02*
X0144400Y0121894D01*
X0144400Y0122893D02*
X0103800Y0122893D01*
X0103800Y0123891D02*
X0144400Y0123891D01*
X0144400Y0124890D02*
X0144096Y0124890D01*
X0142591Y0124890D02*
X0142409Y0124890D01*
X0142409Y0124819D02*
X0142409Y0128409D01*
X0138819Y0128409D01*
X0137591Y0128409D01*
X0137591Y0124819D01*
X0139025Y0124819D01*
X0140000Y0125794D01*
X0140975Y0124819D01*
X0142409Y0124819D01*
X0142409Y0125888D02*
X0142591Y0125888D01*
X0142591Y0126887D02*
X0142409Y0126887D01*
X0142409Y0127885D02*
X0142591Y0127885D01*
X0140904Y0124890D02*
X0139096Y0124890D01*
X0137591Y0124890D02*
X0137409Y0124890D01*
X0137409Y0125888D02*
X0137591Y0125888D01*
X0137591Y0126887D02*
X0137409Y0126887D01*
X0137409Y0127885D02*
X0137591Y0127885D01*
X0135904Y0124890D02*
X0134096Y0124890D01*
X0132591Y0124890D02*
X0132409Y0124890D01*
X0132409Y0124819D02*
X0132409Y0128409D01*
X0127591Y0128409D01*
X0127591Y0124819D01*
X0129025Y0124819D01*
X0130000Y0125794D01*
X0130975Y0124819D01*
X0132409Y0124819D01*
X0132409Y0125888D02*
X0132591Y0125888D01*
X0132591Y0126887D02*
X0132409Y0126887D01*
X0132409Y0127885D02*
X0132591Y0127885D01*
X0130904Y0124890D02*
X0129096Y0124890D01*
X0127591Y0124890D02*
X0127409Y0124890D01*
X0127409Y0125888D02*
X0127591Y0125888D01*
X0127591Y0126887D02*
X0127409Y0126887D01*
X0127409Y0127885D02*
X0127591Y0127885D01*
X0125904Y0124890D02*
X0124096Y0124890D01*
X0120904Y0124890D02*
X0104643Y0124890D01*
X0105641Y0125888D02*
X0119906Y0125888D01*
X0118907Y0126887D02*
X0106640Y0126887D01*
X0107638Y0127885D02*
X0118362Y0127885D01*
X0117363Y0128884D02*
X0108637Y0128884D01*
X0109635Y0129882D02*
X0116365Y0129882D01*
X0105401Y0137870D02*
X0023347Y0137870D01*
X0023266Y0137917D02*
X0019960Y0138803D01*
X0016537Y0138803D01*
X0013230Y0137917D01*
X0010266Y0136206D01*
X0007845Y0133785D01*
X0006134Y0130821D01*
X0005248Y0127515D01*
X0005248Y0124092D01*
X0006134Y0120785D01*
X0007845Y0117821D01*
X0010266Y0115401D01*
X0013230Y0113689D01*
X0016537Y0112803D01*
X0019960Y0112803D01*
X0023266Y0113689D01*
X0026230Y0115401D01*
X0028651Y0117821D01*
X0030362Y0120785D01*
X0031248Y0124092D01*
X0031248Y0127515D01*
X0030362Y0130821D01*
X0028651Y0133785D01*
X0026230Y0136206D01*
X0023266Y0137917D01*
X0025076Y0136872D02*
X0104402Y0136872D01*
X0103404Y0135873D02*
X0086347Y0135873D01*
X0086574Y0135800D02*
X0085960Y0135999D01*
X0085323Y0136100D01*
X0085300Y0136100D01*
X0085300Y0132300D01*
X0089100Y0132300D01*
X0089100Y0132323D01*
X0088999Y0132960D01*
X0088800Y0133574D01*
X0088507Y0134149D01*
X0088127Y0134671D01*
X0087671Y0135127D01*
X0087149Y0135507D01*
X0086574Y0135800D01*
X0085300Y0135873D02*
X0084700Y0135873D01*
X0084700Y0136100D02*
X0084677Y0136100D01*
X0084040Y0135999D01*
X0083426Y0135800D01*
X0082851Y0135507D01*
X0082329Y0135127D01*
X0081873Y0134671D01*
X0081493Y0134149D01*
X0081200Y0133574D01*
X0081001Y0132960D01*
X0080900Y0132323D01*
X0080900Y0132300D01*
X0084700Y0132300D01*
X0084700Y0136100D01*
X0083653Y0135873D02*
X0067362Y0135873D01*
X0068923Y0134875D02*
X0082077Y0134875D01*
X0081355Y0133876D02*
X0069661Y0133876D01*
X0070074Y0132878D02*
X0080988Y0132878D01*
X0080900Y0131700D02*
X0080900Y0131677D01*
X0081001Y0131040D01*
X0081200Y0130426D01*
X0081493Y0129851D01*
X0081873Y0129329D01*
X0082329Y0128873D01*
X0082851Y0128493D01*
X0083426Y0128200D01*
X0084040Y0128001D01*
X0084677Y0127900D01*
X0084700Y0127900D01*
X0084700Y0131700D01*
X0085300Y0131700D01*
X0085300Y0132300D01*
X0084700Y0132300D01*
X0084700Y0131700D01*
X0080900Y0131700D01*
X0081053Y0130881D02*
X0069974Y0130881D01*
X0070100Y0131879D02*
X0084700Y0131879D01*
X0085300Y0131879D02*
X0099410Y0131879D01*
X0100408Y0132878D02*
X0089012Y0132878D01*
X0088645Y0133876D02*
X0101407Y0133876D01*
X0102405Y0134875D02*
X0087923Y0134875D01*
X0085300Y0134875D02*
X0084700Y0134875D01*
X0084700Y0133876D02*
X0085300Y0133876D01*
X0085300Y0132878D02*
X0084700Y0132878D01*
X0085300Y0131700D02*
X0089100Y0131700D01*
X0089100Y0131677D01*
X0088999Y0131040D01*
X0088800Y0130426D01*
X0088507Y0129851D01*
X0088127Y0129329D01*
X0087671Y0128873D01*
X0087149Y0128493D01*
X0086574Y0128200D01*
X0085960Y0128001D01*
X0085323Y0127900D01*
X0085300Y0127900D01*
X0085300Y0131700D01*
X0085300Y0130881D02*
X0084700Y0130881D01*
X0084700Y0129882D02*
X0085300Y0129882D01*
X0085300Y0128884D02*
X0084700Y0128884D01*
X0082318Y0128884D02*
X0068682Y0128884D01*
X0069561Y0129882D02*
X0081477Y0129882D01*
X0087682Y0128884D02*
X0096414Y0128884D01*
X0097413Y0129882D02*
X0088523Y0129882D01*
X0088947Y0130881D02*
X0098411Y0130881D01*
X0095416Y0127885D02*
X0065138Y0127885D01*
X0064140Y0126887D02*
X0095400Y0126887D01*
X0095400Y0125888D02*
X0063141Y0125888D01*
X0062143Y0124890D02*
X0095400Y0124890D01*
X0095400Y0123891D02*
X0055916Y0123891D01*
X0056370Y0122893D02*
X0095400Y0122893D01*
X0095400Y0121894D02*
X0056370Y0121894D01*
X0056370Y0120896D02*
X0095400Y0120896D01*
X0095400Y0119897D02*
X0056370Y0119897D01*
X0056990Y0118899D02*
X0066429Y0118899D01*
X0065430Y0117900D02*
X0057539Y0117900D01*
X0057539Y0116902D02*
X0064432Y0116902D01*
X0064400Y0115903D02*
X0057539Y0115903D01*
X0057539Y0115268D02*
X0056684Y0115268D01*
X0056684Y0115268D01*
X0056684Y0115268D01*
X0057539Y0115268D01*
X0057539Y0114905D02*
X0064400Y0114905D01*
X0064400Y0113906D02*
X0057539Y0113906D01*
X0057539Y0112908D02*
X0064400Y0112908D01*
X0064400Y0111909D02*
X0057539Y0111909D01*
X0057539Y0110911D02*
X0064400Y0110911D01*
X0064400Y0109912D02*
X0057539Y0109912D01*
X0057772Y0108914D02*
X0064400Y0108914D01*
X0064400Y0107915D02*
X0058770Y0107915D01*
X0059769Y0106917D02*
X0064614Y0106917D01*
X0065612Y0105918D02*
X0060767Y0105918D01*
X0054070Y0109362D02*
X0053138Y0109362D01*
X0048059Y0111331D02*
X0047500Y0111890D01*
X0044992Y0105918D02*
X0044909Y0105918D01*
X0045200Y0104920D02*
X0044120Y0104920D01*
X0045326Y0103921D02*
X0037858Y0103921D01*
X0037858Y0102923D02*
X0046325Y0102923D01*
X0046700Y0102547D02*
X0046700Y0102547D01*
X0047323Y0101924D02*
X0037858Y0101924D01*
X0037858Y0100926D02*
X0051322Y0100926D01*
X0051031Y0099927D02*
X0037858Y0099927D01*
X0037471Y0098929D02*
X0051031Y0098929D01*
X0051031Y0096932D02*
X0037858Y0096932D01*
X0037858Y0097930D02*
X0054065Y0097930D01*
X0054500Y0098150D02*
X0056850Y0098150D01*
X0060000Y0095000D01*
X0067350Y0095000D01*
X0070500Y0091850D01*
X0070065Y0091939D02*
X0065968Y0091939D01*
X0065968Y0091635D02*
X0065968Y0094342D01*
X0065310Y0095000D01*
X0065968Y0095658D01*
X0065968Y0095850D01*
X0067031Y0095850D01*
X0067031Y0095658D01*
X0067711Y0094979D01*
X0067610Y0094921D01*
X0067331Y0094641D01*
X0067134Y0094299D01*
X0067031Y0093918D01*
X0067031Y0092285D01*
X0070065Y0092285D01*
X0070065Y0091415D01*
X0067031Y0091415D01*
X0067031Y0090572D01*
X0065968Y0091635D01*
X0066663Y0090940D02*
X0067031Y0090940D01*
X0067031Y0092937D02*
X0065968Y0092937D01*
X0065968Y0093936D02*
X0067036Y0093936D01*
X0067634Y0094934D02*
X0065376Y0094934D01*
X0059690Y0095000D02*
X0059031Y0094342D01*
X0059031Y0094150D01*
X0057968Y0094150D01*
X0057968Y0094342D01*
X0057289Y0095021D01*
X0057390Y0095079D01*
X0057669Y0095359D01*
X0057866Y0095701D01*
X0057968Y0096082D01*
X0057968Y0097715D01*
X0054935Y0097715D01*
X0054935Y0098585D01*
X0057663Y0098585D01*
X0059031Y0097216D01*
X0059031Y0095658D01*
X0059690Y0095000D01*
X0059624Y0094934D02*
X0057376Y0094934D01*
X0057929Y0095933D02*
X0059031Y0095933D01*
X0059031Y0096932D02*
X0057968Y0096932D01*
X0058317Y0097930D02*
X0054935Y0097930D01*
X0051071Y0095933D02*
X0034825Y0095933D01*
X0034390Y0096050D02*
X0026490Y0096050D01*
X0026390Y0096150D01*
X0026825Y0095933D02*
X0033955Y0095933D01*
X0033955Y0094934D02*
X0034825Y0094934D01*
X0034825Y0093936D02*
X0033955Y0093936D01*
X0033955Y0092937D02*
X0034825Y0092937D01*
X0037207Y0092937D02*
X0051031Y0092937D01*
X0051031Y0091939D02*
X0020560Y0091939D01*
X0021000Y0092937D02*
X0023746Y0092937D01*
X0022960Y0093936D02*
X0021000Y0093936D01*
X0021000Y0094934D02*
X0022921Y0094934D01*
X0021000Y0095933D02*
X0025955Y0095933D01*
X0025955Y0094934D02*
X0026825Y0094934D01*
X0026825Y0093936D02*
X0025955Y0093936D01*
X0025955Y0092937D02*
X0026825Y0092937D01*
X0029034Y0092937D02*
X0031573Y0092937D01*
X0030934Y0093936D02*
X0029819Y0093936D01*
X0029858Y0094934D02*
X0030921Y0094934D01*
X0030921Y0096932D02*
X0029858Y0096932D01*
X0029858Y0097930D02*
X0030921Y0097930D01*
X0031309Y0098929D02*
X0029566Y0098929D01*
X0029828Y0099927D02*
X0030921Y0099927D01*
X0030921Y0100926D02*
X0029858Y0100926D01*
X0029858Y0101924D02*
X0030921Y0101924D01*
X0030921Y0102923D02*
X0029858Y0102923D01*
X0029858Y0103921D02*
X0030921Y0103921D01*
X0031001Y0104920D02*
X0029858Y0104920D01*
X0024200Y0105918D02*
X0012000Y0105918D01*
X0012000Y0105500D02*
X0012000Y0101500D01*
X0019697Y0101500D01*
X0019766Y0101518D01*
X0018747Y0100500D01*
X0004000Y0100500D01*
X0004000Y0101500D01*
X0011000Y0101500D01*
X0011000Y0105500D01*
X0012000Y0105500D01*
X0012000Y0104920D02*
X0011000Y0104920D01*
X0011000Y0103921D02*
X0012000Y0103921D01*
X0012000Y0102923D02*
X0011000Y0102923D01*
X0011000Y0101924D02*
X0012000Y0101924D01*
X0012000Y0106500D02*
X0021000Y0106500D01*
X0021000Y0109197D01*
X0020898Y0109579D01*
X0020700Y0109921D01*
X0020421Y0110200D01*
X0020079Y0110398D01*
X0019697Y0110500D01*
X0012000Y0110500D01*
X0012000Y0106500D01*
X0012000Y0106917D02*
X0011000Y0106917D01*
X0011000Y0107915D02*
X0012000Y0107915D01*
X0012000Y0108914D02*
X0011000Y0108914D01*
X0011000Y0109912D02*
X0012000Y0109912D01*
X0016146Y0112908D02*
X0004000Y0112908D01*
X0004000Y0113906D02*
X0012854Y0113906D01*
X0011125Y0114905D02*
X0004000Y0114905D01*
X0004000Y0115903D02*
X0009763Y0115903D01*
X0008765Y0116902D02*
X0004000Y0116902D01*
X0004000Y0117900D02*
X0007800Y0117900D01*
X0007223Y0118899D02*
X0004000Y0118899D01*
X0004000Y0119897D02*
X0006647Y0119897D01*
X0006104Y0120896D02*
X0004000Y0120896D01*
X0004000Y0121894D02*
X0005837Y0121894D01*
X0005569Y0122893D02*
X0004000Y0122893D01*
X0004000Y0123891D02*
X0005302Y0123891D01*
X0005248Y0124890D02*
X0004000Y0124890D01*
X0004000Y0125888D02*
X0005248Y0125888D01*
X0005248Y0126887D02*
X0004000Y0126887D01*
X0004000Y0127885D02*
X0005347Y0127885D01*
X0005615Y0128884D02*
X0004000Y0128884D01*
X0004000Y0129882D02*
X0005882Y0129882D01*
X0006169Y0130881D02*
X0004000Y0130881D01*
X0004000Y0131879D02*
X0006745Y0131879D01*
X0007322Y0132878D02*
X0004000Y0132878D01*
X0004016Y0133876D02*
X0007937Y0133876D01*
X0008935Y0134875D02*
X0004144Y0134875D01*
X0004468Y0135873D02*
X0009934Y0135873D01*
X0011420Y0136872D02*
X0004913Y0136872D01*
X0005639Y0137870D02*
X0013149Y0137870D01*
X0009053Y0139868D02*
X0192797Y0139868D01*
X0195041Y0138869D02*
X0126601Y0138869D01*
X0127599Y0137870D02*
X0178504Y0137870D01*
X0178585Y0137917D02*
X0175620Y0136206D01*
X0173200Y0133785D01*
X0171488Y0130821D01*
X0170602Y0127515D01*
X0170602Y0124092D01*
X0171488Y0120785D01*
X0173200Y0117821D01*
X0175620Y0115401D01*
X0178585Y0113689D01*
X0181891Y0112803D01*
X0185314Y0112803D01*
X0188620Y0113689D01*
X0191585Y0115401D01*
X0194005Y0117821D01*
X0195716Y0120785D01*
X0196602Y0124092D01*
X0196602Y0127515D01*
X0195716Y0130821D01*
X0194005Y0133785D01*
X0191585Y0136206D01*
X0188620Y0137917D01*
X0185314Y0138803D01*
X0181891Y0138803D01*
X0178585Y0137917D01*
X0176774Y0136872D02*
X0144334Y0136872D01*
X0145332Y0135873D02*
X0175288Y0135873D01*
X0174289Y0134875D02*
X0146181Y0134875D01*
X0146593Y0133876D02*
X0173291Y0133876D01*
X0172676Y0132878D02*
X0147592Y0132878D01*
X0148590Y0131879D02*
X0172099Y0131879D01*
X0171523Y0130881D02*
X0148600Y0130881D01*
X0148600Y0129882D02*
X0171237Y0129882D01*
X0170969Y0128884D02*
X0148600Y0128884D01*
X0148600Y0127885D02*
X0170702Y0127885D01*
X0170602Y0126887D02*
X0148600Y0126887D01*
X0148600Y0125888D02*
X0170602Y0125888D01*
X0170602Y0124890D02*
X0148600Y0124890D01*
X0148600Y0123891D02*
X0170656Y0123891D01*
X0170924Y0122893D02*
X0148600Y0122893D01*
X0148600Y0121894D02*
X0171191Y0121894D01*
X0171459Y0120896D02*
X0148600Y0120896D01*
X0148600Y0119897D02*
X0172001Y0119897D01*
X0172577Y0118899D02*
X0148600Y0118899D01*
X0148600Y0117900D02*
X0173154Y0117900D01*
X0174119Y0116902D02*
X0148600Y0116902D01*
X0148600Y0115903D02*
X0175117Y0115903D01*
X0176479Y0114905D02*
X0148375Y0114905D01*
X0152713Y0113906D02*
X0178208Y0113906D01*
X0181501Y0112908D02*
X0153712Y0112908D01*
X0154710Y0111909D02*
X0197850Y0111909D01*
X0197850Y0110911D02*
X0184002Y0110911D01*
X0184134Y0109912D02*
X0197850Y0109912D01*
X0197850Y0108914D02*
X0184134Y0108914D01*
X0184134Y0107915D02*
X0197850Y0107915D01*
X0197850Y0106917D02*
X0184134Y0106917D01*
X0184134Y0105918D02*
X0197850Y0105918D01*
X0197850Y0104920D02*
X0184134Y0104920D01*
X0184134Y0103921D02*
X0186331Y0103921D01*
X0190354Y0103921D02*
X0197850Y0103921D01*
X0197850Y0102923D02*
X0192765Y0102923D01*
X0194163Y0101924D02*
X0197850Y0101924D01*
X0197850Y0100926D02*
X0195162Y0100926D01*
X0196056Y0099927D02*
X0197850Y0099927D01*
X0197850Y0098929D02*
X0196470Y0098929D01*
X0196883Y0097930D02*
X0197850Y0097930D01*
X0197850Y0096932D02*
X0197297Y0096932D01*
X0197354Y0095933D02*
X0197850Y0095933D01*
X0197850Y0094934D02*
X0197354Y0094934D01*
X0197354Y0093936D02*
X0197850Y0093936D01*
X0197850Y0092937D02*
X0197242Y0092937D01*
X0196829Y0091939D02*
X0197850Y0091939D01*
X0197850Y0090940D02*
X0196415Y0090940D01*
X0196002Y0089942D02*
X0197850Y0089942D01*
X0197850Y0088943D02*
X0195031Y0088943D01*
X0194032Y0087945D02*
X0197850Y0087945D01*
X0197850Y0086946D02*
X0192448Y0086946D01*
X0197850Y0085948D02*
X0141968Y0085948D01*
X0141968Y0084949D02*
X0197850Y0084949D01*
X0197850Y0083951D02*
X0141968Y0083951D01*
X0141968Y0082952D02*
X0197850Y0082952D01*
X0197850Y0081954D02*
X0141968Y0081954D01*
X0141330Y0080955D02*
X0197850Y0080955D01*
X0197850Y0079957D02*
X0141958Y0079957D01*
X0141968Y0078958D02*
X0178944Y0078958D01*
X0178585Y0078862D02*
X0175620Y0077151D01*
X0173200Y0074730D01*
X0171488Y0071766D01*
X0170602Y0068460D01*
X0170602Y0065037D01*
X0171488Y0061730D01*
X0173200Y0058766D01*
X0175620Y0056345D01*
X0178585Y0054634D01*
X0181891Y0053748D01*
X0185314Y0053748D01*
X0188620Y0054634D01*
X0191585Y0056345D01*
X0194005Y0058766D01*
X0195716Y0061730D01*
X0196602Y0065037D01*
X0196602Y0068460D01*
X0195716Y0071766D01*
X0194005Y0074730D01*
X0191585Y0077151D01*
X0188620Y0078862D01*
X0185314Y0079748D01*
X0181891Y0079748D01*
X0178585Y0078862D01*
X0177022Y0077960D02*
X0138935Y0077960D01*
X0138065Y0077960D02*
X0132968Y0077960D01*
X0132968Y0078958D02*
X0135031Y0078958D01*
X0135042Y0079957D02*
X0132968Y0079957D01*
X0132355Y0080955D02*
X0135670Y0080955D01*
X0135031Y0077415D02*
X0135031Y0075783D01*
X0135134Y0075401D01*
X0135331Y0075059D01*
X0135610Y0074780D01*
X0135953Y0074583D01*
X0136334Y0074480D01*
X0138065Y0074480D01*
X0138065Y0077415D01*
X0135031Y0077415D01*
X0135031Y0076961D02*
X0132968Y0076961D01*
X0132968Y0075963D02*
X0135031Y0075963D01*
X0135426Y0074964D02*
X0132574Y0074964D01*
X0126426Y0074964D02*
X0123574Y0074964D01*
X0123968Y0075963D02*
X0126031Y0075963D01*
X0126031Y0076961D02*
X0123968Y0076961D01*
X0123968Y0078958D02*
X0126031Y0078958D01*
X0126031Y0077960D02*
X0120935Y0077960D01*
X0120065Y0077960D02*
X0111600Y0077960D01*
X0111600Y0078958D02*
X0117031Y0078958D01*
X0117042Y0079957D02*
X0112427Y0079957D01*
X0113425Y0080955D02*
X0117670Y0080955D01*
X0117031Y0081954D02*
X0114424Y0081954D01*
X0112478Y0085948D02*
X0111600Y0085948D01*
X0111600Y0086946D02*
X0117337Y0086946D01*
X0123663Y0086946D02*
X0126337Y0086946D01*
X0132663Y0086946D02*
X0135337Y0086946D01*
X0141663Y0086946D02*
X0164552Y0086946D01*
X0162968Y0087945D02*
X0111600Y0087945D01*
X0111600Y0088943D02*
X0161969Y0088943D01*
X0160998Y0089942D02*
X0111600Y0089942D01*
X0112410Y0090940D02*
X0160585Y0090940D01*
X0160370Y0099950D02*
X0159968Y0100352D01*
X0159968Y0103342D01*
X0159310Y0104000D01*
X0159968Y0104658D01*
X0159968Y0104924D01*
X0172866Y0104924D01*
X0172866Y0103011D01*
X0170450Y0104012D01*
X0166865Y0104012D01*
X0163553Y0102640D01*
X0161018Y0100105D01*
X0160954Y0099950D01*
X0160370Y0099950D01*
X0159968Y0100926D02*
X0161838Y0100926D01*
X0162837Y0101924D02*
X0159968Y0101924D01*
X0159968Y0102923D02*
X0164235Y0102923D01*
X0166646Y0103921D02*
X0159389Y0103921D01*
X0159968Y0104920D02*
X0172866Y0104920D01*
X0172866Y0103921D02*
X0170669Y0103921D01*
X0172866Y0109912D02*
X0159697Y0109912D01*
X0155709Y0110911D02*
X0172998Y0110911D01*
X0185704Y0112908D02*
X0197850Y0112908D01*
X0197850Y0113906D02*
X0188996Y0113906D01*
X0190726Y0114905D02*
X0197850Y0114905D01*
X0197850Y0115903D02*
X0192087Y0115903D01*
X0193086Y0116902D02*
X0197850Y0116902D01*
X0197850Y0117900D02*
X0194051Y0117900D01*
X0194627Y0118899D02*
X0197850Y0118899D01*
X0197850Y0119897D02*
X0195204Y0119897D01*
X0195746Y0120896D02*
X0197850Y0120896D01*
X0197850Y0121894D02*
X0196014Y0121894D01*
X0196281Y0122893D02*
X0197850Y0122893D01*
X0197850Y0123891D02*
X0196549Y0123891D01*
X0196602Y0124890D02*
X0197850Y0124890D01*
X0197850Y0125888D02*
X0196602Y0125888D01*
X0196602Y0126887D02*
X0197850Y0126887D01*
X0197850Y0127885D02*
X0196503Y0127885D01*
X0196235Y0128884D02*
X0197850Y0128884D01*
X0197850Y0129882D02*
X0195968Y0129882D01*
X0195682Y0130881D02*
X0197850Y0130881D01*
X0197850Y0131879D02*
X0195105Y0131879D01*
X0194529Y0132878D02*
X0197850Y0132878D01*
X0197835Y0133876D02*
X0193914Y0133876D01*
X0192915Y0134875D02*
X0197707Y0134875D01*
X0197382Y0135873D02*
X0191917Y0135873D01*
X0190431Y0136872D02*
X0196937Y0136872D01*
X0196211Y0137870D02*
X0188701Y0137870D01*
X0151766Y0108914D02*
X0149968Y0108914D01*
X0149968Y0107915D02*
X0152765Y0107915D01*
X0156500Y0107150D02*
X0156626Y0107024D01*
X0176371Y0099927D02*
X0180629Y0099927D01*
X0180215Y0098929D02*
X0176785Y0098929D01*
X0177198Y0097930D02*
X0179802Y0097930D01*
X0179388Y0096932D02*
X0177612Y0096932D01*
X0177669Y0095933D02*
X0179331Y0095933D01*
X0179331Y0094934D02*
X0177669Y0094934D01*
X0177669Y0093936D02*
X0179331Y0093936D01*
X0179443Y0092937D02*
X0177557Y0092937D01*
X0177144Y0091939D02*
X0179856Y0091939D01*
X0180270Y0090940D02*
X0176730Y0090940D01*
X0176317Y0089942D02*
X0180683Y0089942D01*
X0181654Y0088943D02*
X0175346Y0088943D01*
X0174347Y0087945D02*
X0182653Y0087945D01*
X0184237Y0086946D02*
X0172763Y0086946D01*
X0175431Y0076961D02*
X0141968Y0076961D01*
X0141968Y0075963D02*
X0174432Y0075963D01*
X0173434Y0074964D02*
X0141574Y0074964D01*
X0138935Y0074964D02*
X0138065Y0074964D01*
X0138065Y0075963D02*
X0138935Y0075963D01*
X0138935Y0076961D02*
X0138065Y0076961D01*
X0126645Y0080955D02*
X0123330Y0080955D01*
X0123958Y0079957D02*
X0126031Y0079957D01*
X0120935Y0076961D02*
X0120065Y0076961D01*
X0120065Y0077415D02*
X0120065Y0074480D01*
X0118334Y0074480D01*
X0117953Y0074583D01*
X0117610Y0074780D01*
X0117331Y0075059D01*
X0117134Y0075401D01*
X0117031Y0075783D01*
X0117031Y0077415D01*
X0120065Y0077415D01*
X0120065Y0075963D02*
X0120935Y0075963D01*
X0120935Y0074964D02*
X0120065Y0074964D01*
X0117426Y0074964D02*
X0111600Y0074964D01*
X0111600Y0073966D02*
X0172758Y0073966D01*
X0172182Y0072967D02*
X0111600Y0072967D01*
X0111600Y0071969D02*
X0171605Y0071969D01*
X0171275Y0070970D02*
X0111600Y0070970D01*
X0111442Y0069972D02*
X0171008Y0069972D01*
X0170740Y0068973D02*
X0110443Y0068973D01*
X0108500Y0070000D02*
X0109500Y0071000D01*
X0108500Y0070000D02*
X0100500Y0070000D01*
X0099500Y0071000D01*
X0099500Y0074351D01*
X0099339Y0074513D01*
X0091661Y0074513D02*
X0091500Y0074674D01*
X0087878Y0077960D02*
X0087767Y0077960D01*
X0085319Y0077960D02*
X0084792Y0077960D01*
X0083984Y0077960D02*
X0083984Y0077960D01*
X0083984Y0076961D02*
X0083984Y0076961D01*
X0083984Y0075963D02*
X0083984Y0075963D01*
X0083984Y0074964D02*
X0083984Y0074964D01*
X0070650Y0075000D02*
X0070500Y0074850D01*
X0059031Y0082501D02*
X0057245Y0080715D01*
X0054935Y0080715D01*
X0054935Y0081585D01*
X0054065Y0081585D01*
X0054065Y0084520D01*
X0052334Y0084520D01*
X0051953Y0084417D01*
X0051610Y0084220D01*
X0051331Y0083941D01*
X0051134Y0083599D01*
X0051031Y0083217D01*
X0051031Y0081585D01*
X0054065Y0081585D01*
X0054065Y0080715D01*
X0051031Y0080715D01*
X0051031Y0080001D01*
X0050130Y0079100D01*
X0048900Y0077870D01*
X0048900Y0069630D01*
X0052630Y0065900D01*
X0052913Y0065900D01*
X0052819Y0065807D01*
X0052622Y0065465D01*
X0052520Y0065083D01*
X0052520Y0064000D01*
X0052520Y0062917D01*
X0052622Y0062535D01*
X0052819Y0062193D01*
X0052981Y0062031D01*
X0052520Y0061570D01*
X0052520Y0058556D01*
X0052776Y0058300D01*
X0048453Y0058300D01*
X0047800Y0058953D01*
X0047800Y0084047D01*
X0049453Y0085700D01*
X0064230Y0085700D01*
X0063050Y0084520D01*
X0059910Y0084520D01*
X0059031Y0083641D01*
X0059031Y0082501D01*
X0059031Y0082952D02*
X0057968Y0082952D01*
X0057968Y0083217D02*
X0057866Y0083599D01*
X0057669Y0083941D01*
X0057390Y0084220D01*
X0057047Y0084417D01*
X0056666Y0084520D01*
X0054935Y0084520D01*
X0054935Y0081585D01*
X0057968Y0081585D01*
X0057968Y0083217D01*
X0057659Y0083951D02*
X0059341Y0083951D01*
X0058484Y0081954D02*
X0057968Y0081954D01*
X0057486Y0080955D02*
X0054935Y0080955D01*
X0054065Y0080955D02*
X0047800Y0080955D01*
X0047800Y0079957D02*
X0050987Y0079957D01*
X0049988Y0078958D02*
X0047800Y0078958D01*
X0047800Y0077960D02*
X0048990Y0077960D01*
X0048900Y0076961D02*
X0047800Y0076961D01*
X0047800Y0075963D02*
X0048900Y0075963D01*
X0048900Y0074964D02*
X0047800Y0074964D01*
X0047800Y0073966D02*
X0048900Y0073966D01*
X0048900Y0072967D02*
X0047800Y0072967D01*
X0047800Y0071969D02*
X0048900Y0071969D01*
X0048900Y0070970D02*
X0047800Y0070970D01*
X0047800Y0069972D02*
X0048900Y0069972D01*
X0049557Y0068973D02*
X0047800Y0068973D01*
X0047800Y0067975D02*
X0050555Y0067975D01*
X0051554Y0066976D02*
X0047800Y0066976D01*
X0047800Y0065978D02*
X0052552Y0065978D01*
X0052520Y0064979D02*
X0047800Y0064979D01*
X0047800Y0063981D02*
X0052520Y0063981D01*
X0052520Y0064000D02*
X0055594Y0064000D01*
X0055594Y0064000D01*
X0052520Y0064000D01*
X0052520Y0062982D02*
X0047800Y0062982D01*
X0047800Y0061984D02*
X0052933Y0061984D01*
X0052520Y0060985D02*
X0047800Y0060985D01*
X0047800Y0059987D02*
X0052520Y0059987D01*
X0052520Y0058988D02*
X0047800Y0058988D01*
X0043200Y0058988D02*
X0028779Y0058988D01*
X0028651Y0058766D02*
X0030362Y0061730D01*
X0031248Y0065037D01*
X0031248Y0068460D01*
X0030362Y0071766D01*
X0028651Y0074730D01*
X0026230Y0077151D01*
X0023266Y0078862D01*
X0019960Y0079748D01*
X0016537Y0079748D01*
X0013230Y0078862D01*
X0010266Y0077151D01*
X0007845Y0074730D01*
X0006134Y0071766D01*
X0005248Y0068460D01*
X0005248Y0065037D01*
X0006134Y0061730D01*
X0007845Y0058766D01*
X0010266Y0056345D01*
X0013230Y0054634D01*
X0016537Y0053748D01*
X0019960Y0053748D01*
X0023266Y0054634D01*
X0026230Y0056345D01*
X0028651Y0058766D01*
X0027874Y0057990D02*
X0043200Y0057990D01*
X0043256Y0056991D02*
X0026876Y0056991D01*
X0025619Y0055993D02*
X0044255Y0055993D01*
X0045253Y0054994D02*
X0023890Y0054994D01*
X0020883Y0053996D02*
X0046252Y0053996D01*
X0043200Y0059987D02*
X0029355Y0059987D01*
X0029932Y0060985D02*
X0043200Y0060985D01*
X0043200Y0061984D02*
X0030430Y0061984D01*
X0030698Y0062982D02*
X0043200Y0062982D01*
X0043200Y0063981D02*
X0030965Y0063981D01*
X0031233Y0064979D02*
X0043200Y0064979D01*
X0043200Y0065978D02*
X0031248Y0065978D01*
X0031248Y0066976D02*
X0043200Y0066976D01*
X0043200Y0067975D02*
X0031248Y0067975D01*
X0031110Y0068973D02*
X0043200Y0068973D01*
X0043200Y0069972D02*
X0030843Y0069972D01*
X0030575Y0070970D02*
X0043200Y0070970D01*
X0043200Y0071969D02*
X0030245Y0071969D01*
X0029668Y0072967D02*
X0043200Y0072967D01*
X0043200Y0073966D02*
X0029092Y0073966D01*
X0028417Y0074964D02*
X0043200Y0074964D01*
X0043200Y0075963D02*
X0027418Y0075963D01*
X0026420Y0076961D02*
X0043200Y0076961D01*
X0043200Y0077960D02*
X0024829Y0077960D01*
X0022907Y0078958D02*
X0043200Y0078958D01*
X0043200Y0079957D02*
X0004000Y0079957D01*
X0004000Y0080955D02*
X0043200Y0080955D01*
X0043200Y0081954D02*
X0020575Y0081954D01*
X0020700Y0082079D02*
X0020898Y0082421D01*
X0021000Y0082803D01*
X0021000Y0085500D01*
X0012000Y0085500D01*
X0012000Y0081500D01*
X0019697Y0081500D01*
X0020079Y0081602D01*
X0020421Y0081800D01*
X0020700Y0082079D01*
X0021000Y0082952D02*
X0043200Y0082952D01*
X0043200Y0083951D02*
X0021000Y0083951D01*
X0021000Y0084949D02*
X0043200Y0084949D01*
X0043200Y0085948D02*
X0012000Y0085948D01*
X0012000Y0086500D02*
X0021000Y0086500D01*
X0021000Y0089197D01*
X0020898Y0089579D01*
X0020700Y0089921D01*
X0020421Y0090200D01*
X0020079Y0090398D01*
X0019697Y0090500D01*
X0012000Y0090500D01*
X0012000Y0086500D01*
X0012000Y0086946D02*
X0011000Y0086946D01*
X0011000Y0087945D02*
X0012000Y0087945D01*
X0012000Y0088943D02*
X0011000Y0088943D01*
X0011000Y0089942D02*
X0012000Y0089942D01*
X0012000Y0084949D02*
X0011000Y0084949D01*
X0011000Y0083951D02*
X0012000Y0083951D01*
X0012000Y0082952D02*
X0011000Y0082952D01*
X0011000Y0081954D02*
X0012000Y0081954D01*
X0013589Y0078958D02*
X0004000Y0078958D01*
X0004000Y0077960D02*
X0011667Y0077960D01*
X0010077Y0076961D02*
X0004000Y0076961D01*
X0004000Y0075963D02*
X0009078Y0075963D01*
X0008079Y0074964D02*
X0004000Y0074964D01*
X0004000Y0073966D02*
X0007404Y0073966D01*
X0006828Y0072967D02*
X0004000Y0072967D01*
X0004000Y0071969D02*
X0006251Y0071969D01*
X0005921Y0070970D02*
X0004000Y0070970D01*
X0004000Y0069972D02*
X0005653Y0069972D01*
X0005386Y0068973D02*
X0004000Y0068973D01*
X0004000Y0067975D02*
X0005248Y0067975D01*
X0005248Y0066976D02*
X0004000Y0066976D01*
X0004000Y0065978D02*
X0005248Y0065978D01*
X0005263Y0064979D02*
X0004000Y0064979D01*
X0004000Y0063981D02*
X0005531Y0063981D01*
X0005798Y0062982D02*
X0004000Y0062982D01*
X0004000Y0061984D02*
X0006066Y0061984D01*
X0006564Y0060985D02*
X0004000Y0060985D01*
X0004000Y0059987D02*
X0007141Y0059987D01*
X0007717Y0058988D02*
X0004000Y0058988D01*
X0004070Y0057990D02*
X0008622Y0057990D01*
X0009620Y0056991D02*
X0004366Y0056991D01*
X0004691Y0055993D02*
X0010877Y0055993D01*
X0012607Y0054994D02*
X0005411Y0054994D01*
X0006378Y0053996D02*
X0015613Y0053996D01*
X0008089Y0052997D02*
X0193762Y0052997D01*
X0195472Y0053996D02*
X0186238Y0053996D01*
X0189244Y0054994D02*
X0196439Y0054994D01*
X0197160Y0055993D02*
X0190973Y0055993D01*
X0192230Y0056991D02*
X0197484Y0056991D01*
X0197781Y0057990D02*
X0193229Y0057990D01*
X0194133Y0058988D02*
X0197850Y0058988D01*
X0197850Y0059987D02*
X0194710Y0059987D01*
X0195286Y0060985D02*
X0197850Y0060985D01*
X0197850Y0061984D02*
X0195784Y0061984D01*
X0196052Y0062982D02*
X0197850Y0062982D01*
X0197850Y0063981D02*
X0196319Y0063981D01*
X0196587Y0064979D02*
X0197850Y0064979D01*
X0197850Y0065978D02*
X0196602Y0065978D01*
X0196602Y0066976D02*
X0197850Y0066976D01*
X0197850Y0067975D02*
X0196602Y0067975D01*
X0196465Y0068973D02*
X0197850Y0068973D01*
X0197850Y0069972D02*
X0196197Y0069972D01*
X0195930Y0070970D02*
X0197850Y0070970D01*
X0197850Y0071969D02*
X0195599Y0071969D01*
X0195023Y0072967D02*
X0197850Y0072967D01*
X0197850Y0073966D02*
X0194446Y0073966D01*
X0193771Y0074964D02*
X0197850Y0074964D01*
X0197850Y0075963D02*
X0192772Y0075963D01*
X0191774Y0076961D02*
X0197850Y0076961D01*
X0197850Y0077960D02*
X0190183Y0077960D01*
X0188261Y0078958D02*
X0197850Y0078958D01*
X0170885Y0063981D02*
X0142873Y0063981D01*
X0143872Y0062982D02*
X0171153Y0062982D01*
X0171420Y0061984D02*
X0144307Y0061984D01*
X0144700Y0060985D02*
X0171918Y0060985D01*
X0172495Y0059987D02*
X0144700Y0059987D01*
X0144700Y0058988D02*
X0173071Y0058988D01*
X0173976Y0057990D02*
X0144296Y0057990D01*
X0143845Y0056991D02*
X0174975Y0056991D01*
X0176231Y0055993D02*
X0142846Y0055993D01*
X0141003Y0054994D02*
X0177961Y0054994D01*
X0180967Y0053996D02*
X0070748Y0053996D01*
X0071747Y0054994D02*
X0080396Y0054994D01*
X0080331Y0055059D02*
X0080610Y0054780D01*
X0080953Y0054583D01*
X0081334Y0054480D01*
X0083065Y0054480D01*
X0083065Y0057415D01*
X0080031Y0057415D01*
X0080031Y0055783D01*
X0080134Y0055401D01*
X0080331Y0055059D01*
X0080031Y0055993D02*
X0072745Y0055993D01*
X0072800Y0056991D02*
X0080031Y0056991D01*
X0080031Y0058988D02*
X0072800Y0058988D01*
X0072800Y0057990D02*
X0083065Y0057990D01*
X0083935Y0057990D02*
X0124704Y0057990D01*
X0124300Y0058988D02*
X0086968Y0058988D01*
X0086950Y0059987D02*
X0124300Y0059987D01*
X0124300Y0060985D02*
X0086295Y0060985D01*
X0086968Y0056991D02*
X0125155Y0056991D01*
X0126154Y0055993D02*
X0086968Y0055993D01*
X0086604Y0054994D02*
X0127997Y0054994D01*
X0131003Y0054994D02*
X0137997Y0054994D01*
X0136154Y0055993D02*
X0132846Y0055993D01*
X0133845Y0056991D02*
X0135155Y0056991D01*
X0134704Y0057990D02*
X0134296Y0057990D01*
X0134307Y0061984D02*
X0134693Y0061984D01*
X0135128Y0062982D02*
X0133872Y0062982D01*
X0132873Y0063981D02*
X0136127Y0063981D01*
X0137933Y0064979D02*
X0131067Y0064979D01*
X0141067Y0064979D02*
X0170618Y0064979D01*
X0170602Y0065978D02*
X0101775Y0065978D01*
X0100776Y0066976D02*
X0170602Y0066976D01*
X0170602Y0067975D02*
X0099778Y0067975D01*
X0111600Y0075963D02*
X0117031Y0075963D01*
X0117031Y0076961D02*
X0111600Y0076961D01*
X0106483Y0082952D02*
X0096320Y0082952D01*
X0096320Y0081954D02*
X0097484Y0081954D01*
X0096485Y0080955D02*
X0096320Y0080955D01*
X0096320Y0083951D02*
X0107400Y0083951D01*
X0107400Y0084949D02*
X0096320Y0084949D01*
X0099478Y0085948D02*
X0107400Y0085948D01*
X0107400Y0086946D02*
X0100148Y0086946D01*
X0100350Y0087945D02*
X0107400Y0087945D01*
X0107400Y0088943D02*
X0100194Y0088943D01*
X0099589Y0089942D02*
X0107400Y0089942D01*
X0107400Y0090940D02*
X0096520Y0090940D01*
X0096520Y0091939D02*
X0107469Y0091939D01*
X0108468Y0092937D02*
X0096520Y0092937D01*
X0091661Y0097487D02*
X0091500Y0097649D01*
X0091661Y0097487D02*
X0091500Y0097326D01*
X0089102Y0097487D02*
X0089000Y0097385D01*
X0102886Y0104584D02*
X0103998Y0103472D01*
X0103998Y0103467D01*
X0104630Y0104100D01*
X0113590Y0104100D01*
X0113031Y0104658D01*
X0113031Y0108900D01*
X0109370Y0108900D01*
X0107350Y0106880D01*
X0107350Y0106433D01*
X0106916Y0105386D01*
X0106114Y0104584D01*
X0105067Y0104150D01*
X0103933Y0104150D01*
X0102886Y0104584D01*
X0103549Y0103921D02*
X0104451Y0103921D01*
X0106450Y0104920D02*
X0113031Y0104920D01*
X0113031Y0105918D02*
X0107137Y0105918D01*
X0107386Y0106917D02*
X0113031Y0106917D01*
X0113031Y0107915D02*
X0108385Y0107915D01*
X0108209Y0113906D02*
X0127436Y0113906D01*
X0128435Y0114905D02*
X0107626Y0114905D01*
X0105849Y0115903D02*
X0129433Y0115903D01*
X0129334Y0136872D02*
X0130666Y0136872D01*
X0134334Y0136872D02*
X0135666Y0136872D01*
X0139334Y0136872D02*
X0140666Y0136872D01*
X0106399Y0138869D02*
X0006809Y0138869D01*
X0026562Y0135873D02*
X0046033Y0135873D01*
X0046039Y0135898D02*
X0045937Y0135516D01*
X0045937Y0133884D01*
X0048970Y0133884D01*
X0048970Y0136819D01*
X0047240Y0136819D01*
X0046858Y0136717D01*
X0046516Y0136519D01*
X0046237Y0136240D01*
X0046039Y0135898D01*
X0045937Y0134875D02*
X0027561Y0134875D01*
X0028560Y0133876D02*
X0048970Y0133876D01*
X0049841Y0133876D02*
X0062339Y0133876D01*
X0061926Y0132878D02*
X0052874Y0132878D01*
X0052874Y0131879D02*
X0061900Y0131879D01*
X0061628Y0130881D02*
X0052703Y0130881D01*
X0052633Y0129882D02*
X0060630Y0129882D01*
X0063077Y0134875D02*
X0052874Y0134875D01*
X0052778Y0135873D02*
X0064638Y0135873D01*
X0049841Y0135873D02*
X0048970Y0135873D01*
X0048970Y0134875D02*
X0049841Y0134875D01*
X0045937Y0132878D02*
X0029175Y0132878D01*
X0029751Y0131879D02*
X0045937Y0131879D01*
X0046108Y0130881D02*
X0030327Y0130881D01*
X0030614Y0129882D02*
X0038019Y0129882D01*
X0037921Y0128884D02*
X0030881Y0128884D01*
X0031149Y0127885D02*
X0037921Y0127885D01*
X0037921Y0126887D02*
X0031248Y0126887D01*
X0031248Y0125888D02*
X0037921Y0125888D01*
X0038087Y0124890D02*
X0031248Y0124890D01*
X0031194Y0123891D02*
X0038172Y0123891D01*
X0037921Y0122893D02*
X0030927Y0122893D01*
X0030659Y0121894D02*
X0037921Y0121894D01*
X0037921Y0120896D02*
X0030392Y0120896D01*
X0029849Y0119897D02*
X0037921Y0119897D01*
X0037921Y0118899D02*
X0029273Y0118899D01*
X0028696Y0117900D02*
X0038679Y0117900D01*
X0039090Y0116902D02*
X0027731Y0116902D01*
X0026733Y0115903D02*
X0033904Y0115903D01*
X0033839Y0114905D02*
X0025371Y0114905D01*
X0023642Y0113906D02*
X0033354Y0113906D01*
X0032940Y0112908D02*
X0020350Y0112908D01*
X0020705Y0109912D02*
X0023839Y0109912D01*
X0023839Y0108914D02*
X0021000Y0108914D01*
X0021000Y0107915D02*
X0023839Y0107915D01*
X0023839Y0106917D02*
X0021000Y0106917D01*
X0021000Y0104920D02*
X0022921Y0104920D01*
X0022168Y0103921D02*
X0021000Y0103921D01*
X0021000Y0102923D02*
X0021170Y0102923D01*
X0019173Y0100926D02*
X0004000Y0100926D01*
X0004000Y0110911D02*
X0023911Y0110911D01*
X0032940Y0111909D02*
X0004000Y0111909D01*
X0021684Y0096932D02*
X0022921Y0096932D01*
X0022921Y0097930D02*
X0022683Y0097930D01*
X0020679Y0089942D02*
X0047189Y0089942D01*
X0046191Y0088943D02*
X0021000Y0088943D01*
X0021000Y0087945D02*
X0045192Y0087945D01*
X0044194Y0086946D02*
X0021000Y0086946D01*
X0004000Y0090940D02*
X0051031Y0090940D01*
X0051031Y0093936D02*
X0037846Y0093936D01*
X0037858Y0094934D02*
X0051624Y0094934D01*
X0048702Y0084949D02*
X0063480Y0084949D01*
X0054935Y0083951D02*
X0054065Y0083951D01*
X0054065Y0082952D02*
X0054935Y0082952D01*
X0054935Y0081954D02*
X0054065Y0081954D01*
X0051031Y0081954D02*
X0047800Y0081954D01*
X0047800Y0082952D02*
X0051031Y0082952D01*
X0051341Y0083951D02*
X0047800Y0083951D01*
X0053500Y0068000D02*
X0054531Y0068000D01*
X0072800Y0060985D02*
X0080705Y0060985D01*
X0080050Y0059987D02*
X0072800Y0059987D01*
X0074886Y0061984D02*
X0080031Y0061984D01*
X0080031Y0062982D02*
X0075884Y0062982D01*
X0076883Y0063981D02*
X0080031Y0063981D01*
X0079418Y0064979D02*
X0077881Y0064979D01*
X0083065Y0056991D02*
X0083935Y0056991D01*
X0083935Y0055993D02*
X0083065Y0055993D01*
X0083065Y0054994D02*
X0083935Y0054994D01*
X0038959Y0104920D02*
X0037820Y0104920D01*
X0054070Y0115268D02*
X0061768Y0115268D01*
X0062500Y0116000D01*
X0073628Y0118899D02*
X0095400Y0118899D01*
X0095400Y0117900D02*
X0074178Y0117900D01*
X0080568Y0116902D02*
X0095400Y0116902D01*
X0095373Y0115903D02*
X0081567Y0115903D01*
X0082565Y0114905D02*
X0094790Y0114905D01*
X0094650Y0113906D02*
X0093564Y0113906D01*
X0094562Y0112908D02*
X0094868Y0112908D01*
X0084376Y0113906D02*
X0083564Y0113906D01*
X0050410Y0122893D02*
X0044858Y0122893D01*
X0044608Y0123891D02*
X0046704Y0123891D01*
X0045937Y0124890D02*
X0044693Y0124890D01*
X0044858Y0125888D02*
X0045937Y0125888D01*
X0045937Y0126887D02*
X0044858Y0126887D01*
X0044858Y0127885D02*
X0045937Y0127885D01*
X0045937Y0128884D02*
X0044858Y0128884D01*
X0044760Y0129882D02*
X0046178Y0129882D01*
X0041825Y0129882D02*
X0040955Y0129882D01*
X0040955Y0128884D02*
X0041825Y0128884D01*
X0041825Y0127885D02*
X0040955Y0127885D01*
D29*
X0043500Y0133000D03*
X0053500Y0138000D03*
X0058500Y0123000D03*
X0062500Y0116000D03*
X0062500Y0111000D03*
X0051000Y0107000D03*
X0049500Y0100000D03*
X0049500Y0092000D03*
X0040500Y0094000D03*
X0040500Y0100000D03*
X0030500Y0091000D03*
X0021500Y0091000D03*
X0021500Y0081000D03*
X0009500Y0080000D03*
X0005500Y0080000D03*
X0021500Y0111000D03*
X0032500Y0114000D03*
X0035500Y0121000D03*
X0051000Y0120000D03*
X0078500Y0112000D03*
X0086500Y0112000D03*
X0090500Y0109000D03*
X0097500Y0114000D03*
X0101500Y0111000D03*
X0105500Y0113000D03*
X0110500Y0115000D03*
X0111500Y0107000D03*
X0104500Y0107000D03*
X0110500Y0098000D03*
X0104500Y0091000D03*
X0097500Y0088000D03*
X0090500Y0088000D03*
X0086500Y0081000D03*
X0078500Y0076000D03*
X0075500Y0071000D03*
X0078500Y0064000D03*
X0074500Y0060000D03*
X0074500Y0054000D03*
X0049500Y0060000D03*
X0049500Y0067000D03*
X0049500Y0082000D03*
X0079500Y0090000D03*
X0079500Y0097000D03*
X0084500Y0103000D03*
X0079500Y0104000D03*
X0105500Y0123000D03*
X0114500Y0129000D03*
X0125500Y0115000D03*
X0131500Y0106000D03*
X0141500Y0108000D03*
X0141500Y0097000D03*
X0151500Y0098000D03*
X0158000Y0094500D03*
X0161500Y0103000D03*
X0161500Y0110500D03*
X0170500Y0110500D03*
X0165500Y0085000D03*
X0121500Y0099000D03*
X0121500Y0104000D03*
X0113500Y0088000D03*
X0104500Y0085000D03*
X0114500Y0079500D03*
X0009500Y0112000D03*
X0005500Y0112000D03*
D30*
X0041390Y0116000D02*
X0041500Y0116110D01*
X0047500Y0116110D01*
X0048390Y0116110D02*
X0049500Y0115000D01*
X0051201Y0113299D01*
X0054070Y0113299D01*
X0054070Y0111331D02*
X0048059Y0111331D01*
X0066500Y0108000D02*
X0067500Y0107000D01*
X0073500Y0107000D01*
X0075500Y0109000D01*
X0082500Y0109000D01*
X0084500Y0107000D01*
X0089102Y0102398D01*
X0089102Y0097487D01*
X0089000Y0097385D02*
X0089000Y0093500D01*
X0081000Y0085500D01*
X0067000Y0085500D01*
X0062650Y0081150D01*
X0062500Y0081150D01*
X0060650Y0081150D01*
X0057500Y0078000D01*
X0052000Y0078000D01*
X0051000Y0077000D01*
X0051000Y0070500D01*
X0053500Y0068000D01*
X0054531Y0068000D02*
X0055594Y0067937D01*
X0067406Y0067937D02*
X0072437Y0067937D01*
X0075500Y0071000D01*
X0078500Y0076000D02*
X0078500Y0081150D01*
X0079650Y0081150D01*
X0091500Y0093000D01*
X0091500Y0097326D01*
X0091500Y0097649D02*
X0091500Y0103000D01*
X0079232Y0115268D01*
X0070709Y0115268D01*
X0070709Y0117236D02*
X0067736Y0117236D01*
X0066500Y0116000D01*
X0066500Y0108000D01*
X0070709Y0113299D02*
X0077201Y0113299D01*
X0078500Y0112000D01*
X0086500Y0112000D02*
X0092500Y0112000D01*
X0101898Y0102602D01*
X0101898Y0097487D01*
X0104457Y0097487D02*
X0104457Y0100957D01*
X0105500Y0102000D01*
X0115350Y0102000D01*
X0116500Y0107150D02*
X0126500Y0107150D01*
X0127650Y0107150D02*
X0132500Y0112000D01*
X0151650Y0112000D01*
X0156500Y0107150D01*
X0156626Y0107024D02*
X0177500Y0107024D01*
X0178500Y0106024D01*
X0188343Y0097181D01*
X0188343Y0095000D01*
X0165807Y0097850D02*
X0159500Y0097850D01*
X0156500Y0100850D01*
X0153650Y0100850D01*
X0150500Y0104000D01*
X0139650Y0104000D01*
X0136500Y0107150D01*
X0136500Y0100850D02*
X0146500Y0100850D01*
X0136350Y0100850D02*
X0130500Y0095000D01*
X0113500Y0095000D01*
X0109500Y0091000D01*
X0109500Y0083000D01*
X0106500Y0080000D01*
X0098500Y0080000D01*
X0096780Y0078280D01*
X0096780Y0074513D01*
X0094220Y0074513D02*
X0094220Y0088000D01*
X0091500Y0087000D02*
X0091500Y0074674D01*
X0078500Y0081150D02*
X0070500Y0081150D01*
X0090500Y0088000D02*
X0091500Y0087000D01*
X0086543Y0097487D02*
X0086543Y0100957D01*
X0084500Y0103000D01*
X0083984Y0099516D02*
X0079500Y0104000D01*
X0083984Y0099516D02*
X0083984Y0097487D01*
X0101500Y0111000D02*
X0101500Y0114000D01*
X0099500Y0116000D01*
X0099500Y0126000D01*
X0108500Y0135000D01*
X0121000Y0135000D01*
X0122500Y0133500D01*
X0125500Y0137000D02*
X0127500Y0135000D01*
X0127500Y0133500D01*
X0125500Y0137000D02*
X0107500Y0137000D01*
X0097500Y0127000D01*
X0097500Y0114000D01*
X0104500Y0107000D02*
X0108500Y0111000D01*
X0127500Y0111000D01*
X0130500Y0114000D01*
X0144500Y0114000D01*
X0146500Y0116000D01*
X0146500Y0131000D01*
X0144000Y0133500D01*
X0142500Y0133500D01*
X0120500Y0084150D02*
X0113650Y0084150D01*
X0109500Y0080000D01*
X0109500Y0071000D01*
M02*
