G75*
%MOIN*%
%OFA0B0*%
%FSLAX25Y25*%
%IPPOS*%
%LPD*%
%AMOC8*
5,1,8,0,0,1.08239X$1,22.5*
%
%ADD10C,0.00000*%
%ADD11C,0.05200*%
%ADD12OC8,0.04362*%
%ADD13C,0.15024*%
%ADD14R,0.08268X0.08268*%
%ADD15R,0.16000X0.06000*%
%ADD16C,0.23000*%
%ADD17C,0.07400*%
%ADD18C,0.01000*%
%ADD19C,0.02700*%
%ADD20C,0.01600*%
%ADD21C,0.01200*%
D10*
X0010374Y0051000D02*
X0191476Y0051000D01*
X0191666Y0051002D01*
X0191856Y0051009D01*
X0192046Y0051021D01*
X0192236Y0051037D01*
X0192425Y0051057D01*
X0192614Y0051083D01*
X0192802Y0051112D01*
X0192989Y0051147D01*
X0193175Y0051186D01*
X0193360Y0051229D01*
X0193545Y0051277D01*
X0193728Y0051329D01*
X0193909Y0051385D01*
X0194089Y0051446D01*
X0194268Y0051512D01*
X0194445Y0051581D01*
X0194621Y0051655D01*
X0194794Y0051733D01*
X0194966Y0051816D01*
X0195135Y0051902D01*
X0195303Y0051992D01*
X0195468Y0052087D01*
X0195631Y0052185D01*
X0195791Y0052288D01*
X0195949Y0052394D01*
X0196104Y0052504D01*
X0196257Y0052617D01*
X0196407Y0052735D01*
X0196553Y0052856D01*
X0196697Y0052980D01*
X0196838Y0053108D01*
X0196976Y0053239D01*
X0197111Y0053374D01*
X0197242Y0053512D01*
X0197370Y0053653D01*
X0197494Y0053797D01*
X0197615Y0053943D01*
X0197733Y0054093D01*
X0197846Y0054246D01*
X0197956Y0054401D01*
X0198062Y0054559D01*
X0198165Y0054719D01*
X0198263Y0054882D01*
X0198358Y0055047D01*
X0198448Y0055215D01*
X0198534Y0055384D01*
X0198617Y0055556D01*
X0198695Y0055729D01*
X0198769Y0055905D01*
X0198838Y0056082D01*
X0198904Y0056261D01*
X0198965Y0056441D01*
X0199021Y0056622D01*
X0199073Y0056805D01*
X0199121Y0056990D01*
X0199164Y0057175D01*
X0199203Y0057361D01*
X0199238Y0057548D01*
X0199267Y0057736D01*
X0199293Y0057925D01*
X0199313Y0058114D01*
X0199329Y0058304D01*
X0199341Y0058494D01*
X0199348Y0058684D01*
X0199350Y0058874D01*
X0199350Y0133677D01*
X0199348Y0133867D01*
X0199341Y0134057D01*
X0199329Y0134247D01*
X0199313Y0134437D01*
X0199293Y0134626D01*
X0199267Y0134815D01*
X0199238Y0135003D01*
X0199203Y0135190D01*
X0199164Y0135376D01*
X0199121Y0135561D01*
X0199073Y0135746D01*
X0199021Y0135929D01*
X0198965Y0136110D01*
X0198904Y0136290D01*
X0198838Y0136469D01*
X0198769Y0136646D01*
X0198695Y0136822D01*
X0198617Y0136995D01*
X0198534Y0137167D01*
X0198448Y0137336D01*
X0198358Y0137504D01*
X0198263Y0137669D01*
X0198165Y0137832D01*
X0198062Y0137992D01*
X0197956Y0138150D01*
X0197846Y0138305D01*
X0197733Y0138458D01*
X0197615Y0138608D01*
X0197494Y0138754D01*
X0197370Y0138898D01*
X0197242Y0139039D01*
X0197111Y0139177D01*
X0196976Y0139312D01*
X0196838Y0139443D01*
X0196697Y0139571D01*
X0196553Y0139695D01*
X0196407Y0139816D01*
X0196257Y0139934D01*
X0196104Y0140047D01*
X0195949Y0140157D01*
X0195791Y0140263D01*
X0195631Y0140366D01*
X0195468Y0140464D01*
X0195303Y0140559D01*
X0195135Y0140649D01*
X0194966Y0140735D01*
X0194794Y0140818D01*
X0194621Y0140896D01*
X0194445Y0140970D01*
X0194268Y0141039D01*
X0194089Y0141105D01*
X0193909Y0141166D01*
X0193728Y0141222D01*
X0193545Y0141274D01*
X0193360Y0141322D01*
X0193175Y0141365D01*
X0192989Y0141404D01*
X0192802Y0141439D01*
X0192614Y0141468D01*
X0192425Y0141494D01*
X0192236Y0141514D01*
X0192046Y0141530D01*
X0191856Y0141542D01*
X0191666Y0141549D01*
X0191476Y0141551D01*
X0010374Y0141551D01*
X0010184Y0141549D01*
X0009994Y0141542D01*
X0009804Y0141530D01*
X0009614Y0141514D01*
X0009425Y0141494D01*
X0009236Y0141468D01*
X0009048Y0141439D01*
X0008861Y0141404D01*
X0008675Y0141365D01*
X0008490Y0141322D01*
X0008305Y0141274D01*
X0008122Y0141222D01*
X0007941Y0141166D01*
X0007761Y0141105D01*
X0007582Y0141039D01*
X0007405Y0140970D01*
X0007229Y0140896D01*
X0007056Y0140818D01*
X0006884Y0140735D01*
X0006715Y0140649D01*
X0006547Y0140559D01*
X0006382Y0140464D01*
X0006219Y0140366D01*
X0006059Y0140263D01*
X0005901Y0140157D01*
X0005746Y0140047D01*
X0005593Y0139934D01*
X0005443Y0139816D01*
X0005297Y0139695D01*
X0005153Y0139571D01*
X0005012Y0139443D01*
X0004874Y0139312D01*
X0004739Y0139177D01*
X0004608Y0139039D01*
X0004480Y0138898D01*
X0004356Y0138754D01*
X0004235Y0138608D01*
X0004117Y0138458D01*
X0004004Y0138305D01*
X0003894Y0138150D01*
X0003788Y0137992D01*
X0003685Y0137832D01*
X0003587Y0137669D01*
X0003492Y0137504D01*
X0003402Y0137336D01*
X0003316Y0137167D01*
X0003233Y0136995D01*
X0003155Y0136822D01*
X0003081Y0136646D01*
X0003012Y0136469D01*
X0002946Y0136290D01*
X0002885Y0136110D01*
X0002829Y0135929D01*
X0002777Y0135746D01*
X0002729Y0135561D01*
X0002686Y0135376D01*
X0002647Y0135190D01*
X0002612Y0135003D01*
X0002583Y0134815D01*
X0002557Y0134626D01*
X0002537Y0134437D01*
X0002521Y0134247D01*
X0002509Y0134057D01*
X0002502Y0133867D01*
X0002500Y0133677D01*
X0002500Y0058874D01*
X0002502Y0058684D01*
X0002509Y0058494D01*
X0002521Y0058304D01*
X0002537Y0058114D01*
X0002557Y0057925D01*
X0002583Y0057736D01*
X0002612Y0057548D01*
X0002647Y0057361D01*
X0002686Y0057175D01*
X0002729Y0056990D01*
X0002777Y0056805D01*
X0002829Y0056622D01*
X0002885Y0056441D01*
X0002946Y0056261D01*
X0003012Y0056082D01*
X0003081Y0055905D01*
X0003155Y0055729D01*
X0003233Y0055556D01*
X0003316Y0055384D01*
X0003402Y0055215D01*
X0003492Y0055047D01*
X0003587Y0054882D01*
X0003685Y0054719D01*
X0003788Y0054559D01*
X0003894Y0054401D01*
X0004004Y0054246D01*
X0004117Y0054093D01*
X0004235Y0053943D01*
X0004356Y0053797D01*
X0004480Y0053653D01*
X0004608Y0053512D01*
X0004739Y0053374D01*
X0004874Y0053239D01*
X0005012Y0053108D01*
X0005153Y0052980D01*
X0005297Y0052856D01*
X0005443Y0052735D01*
X0005593Y0052617D01*
X0005746Y0052504D01*
X0005901Y0052394D01*
X0006059Y0052288D01*
X0006219Y0052185D01*
X0006382Y0052087D01*
X0006547Y0051992D01*
X0006715Y0051902D01*
X0006884Y0051816D01*
X0007056Y0051733D01*
X0007229Y0051655D01*
X0007405Y0051581D01*
X0007582Y0051512D01*
X0007761Y0051446D01*
X0007941Y0051385D01*
X0008122Y0051329D01*
X0008305Y0051277D01*
X0008490Y0051229D01*
X0008675Y0051186D01*
X0008861Y0051147D01*
X0009048Y0051112D01*
X0009236Y0051083D01*
X0009425Y0051057D01*
X0009614Y0051037D01*
X0009804Y0051021D01*
X0009994Y0051009D01*
X0010184Y0051002D01*
X0010374Y0051000D01*
D11*
X0066000Y0132000D03*
X0085000Y0132000D03*
D12*
X0122500Y0133500D03*
X0127500Y0133500D03*
X0132500Y0133500D03*
X0137500Y0133500D03*
X0142500Y0133500D03*
X0142500Y0128500D03*
X0137500Y0128500D03*
X0132500Y0128500D03*
X0127500Y0128500D03*
X0122500Y0128500D03*
D13*
X0168657Y0095000D03*
X0188343Y0095000D03*
D14*
X0178500Y0106024D03*
D15*
X0011500Y0106000D03*
X0011500Y0086000D03*
D16*
X0018248Y0066748D03*
X0018248Y0125803D03*
X0183602Y0125803D03*
X0183602Y0066748D03*
D17*
X0139500Y0060000D03*
X0129500Y0060000D03*
D18*
X0134307Y0061984D02*
X0134693Y0061984D01*
X0134500Y0061517D02*
X0133908Y0062946D01*
X0132446Y0064408D01*
X0130534Y0065200D01*
X0128466Y0065200D01*
X0126554Y0064408D01*
X0125092Y0062946D01*
X0124300Y0061034D01*
X0124300Y0058966D01*
X0125092Y0057054D01*
X0126554Y0055592D01*
X0128466Y0054800D01*
X0130534Y0054800D01*
X0132446Y0055592D01*
X0133908Y0057054D01*
X0134500Y0058483D01*
X0135092Y0057054D01*
X0136554Y0055592D01*
X0138466Y0054800D01*
X0140534Y0054800D01*
X0142446Y0055592D01*
X0143908Y0057054D01*
X0144700Y0058966D01*
X0144700Y0061034D01*
X0143908Y0062946D01*
X0142446Y0064408D01*
X0140534Y0065200D01*
X0138466Y0065200D01*
X0136554Y0064408D01*
X0135092Y0062946D01*
X0134500Y0061517D01*
X0133872Y0062982D02*
X0135128Y0062982D01*
X0136127Y0063981D02*
X0132873Y0063981D01*
X0131067Y0064979D02*
X0137933Y0064979D01*
X0141067Y0064979D02*
X0170618Y0064979D01*
X0170602Y0065037D02*
X0171488Y0061730D01*
X0173200Y0058766D01*
X0175620Y0056345D01*
X0178585Y0054634D01*
X0181891Y0053748D01*
X0185314Y0053748D01*
X0188620Y0054634D01*
X0191585Y0056345D01*
X0194005Y0058766D01*
X0195716Y0061730D01*
X0196602Y0065037D01*
X0196602Y0068460D01*
X0195716Y0071766D01*
X0194005Y0074730D01*
X0191585Y0077151D01*
X0188620Y0078862D01*
X0185314Y0079748D01*
X0181891Y0079748D01*
X0178585Y0078862D01*
X0175620Y0077151D01*
X0173200Y0074730D01*
X0171488Y0071766D01*
X0170602Y0068460D01*
X0170602Y0065037D01*
X0170602Y0065978D02*
X0031248Y0065978D01*
X0031248Y0065037D02*
X0030362Y0061730D01*
X0028651Y0058766D01*
X0026230Y0056345D01*
X0023266Y0054634D01*
X0019960Y0053748D01*
X0016537Y0053748D01*
X0013230Y0054634D01*
X0010266Y0056345D01*
X0007845Y0058766D01*
X0006134Y0061730D01*
X0005248Y0065037D01*
X0005248Y0068460D01*
X0006134Y0071766D01*
X0007845Y0074730D01*
X0010266Y0077151D01*
X0013230Y0078862D01*
X0016537Y0079748D01*
X0019960Y0079748D01*
X0023266Y0078862D01*
X0026230Y0077151D01*
X0028651Y0074730D01*
X0030362Y0071766D01*
X0031248Y0068460D01*
X0031248Y0065037D01*
X0031233Y0064979D02*
X0127933Y0064979D01*
X0126127Y0063981D02*
X0030965Y0063981D01*
X0030698Y0062982D02*
X0125128Y0062982D01*
X0124693Y0061984D02*
X0030430Y0061984D01*
X0029932Y0060985D02*
X0124300Y0060985D01*
X0124300Y0059987D02*
X0029355Y0059987D01*
X0028779Y0058988D02*
X0124300Y0058988D01*
X0124704Y0057990D02*
X0027874Y0057990D01*
X0026876Y0056991D02*
X0125155Y0056991D01*
X0126154Y0055993D02*
X0025619Y0055993D01*
X0023890Y0054994D02*
X0127997Y0054994D01*
X0131003Y0054994D02*
X0137997Y0054994D01*
X0136154Y0055993D02*
X0132846Y0055993D01*
X0133845Y0056991D02*
X0135155Y0056991D01*
X0134704Y0057990D02*
X0134296Y0057990D01*
X0141003Y0054994D02*
X0177961Y0054994D01*
X0176231Y0055993D02*
X0142846Y0055993D01*
X0143845Y0056991D02*
X0174975Y0056991D01*
X0173976Y0057990D02*
X0144296Y0057990D01*
X0144700Y0058988D02*
X0173071Y0058988D01*
X0172495Y0059987D02*
X0144700Y0059987D01*
X0144700Y0060985D02*
X0171918Y0060985D01*
X0171420Y0061984D02*
X0144307Y0061984D01*
X0143872Y0062982D02*
X0171153Y0062982D01*
X0170885Y0063981D02*
X0142873Y0063981D01*
X0170602Y0066976D02*
X0031248Y0066976D01*
X0031248Y0067975D02*
X0170602Y0067975D01*
X0170740Y0068973D02*
X0077504Y0068973D01*
X0077114Y0068584D02*
X0077916Y0069386D01*
X0078350Y0070433D01*
X0078350Y0071567D01*
X0077965Y0072496D01*
X0078620Y0073150D01*
X0079067Y0073150D01*
X0080114Y0073584D01*
X0080916Y0074386D01*
X0081350Y0075433D01*
X0081350Y0076567D01*
X0080916Y0077614D01*
X0080114Y0078416D01*
X0079067Y0078850D01*
X0077933Y0078850D01*
X0076886Y0078416D01*
X0076084Y0077614D01*
X0075650Y0076567D01*
X0075650Y0076120D01*
X0073400Y0073870D01*
X0073400Y0072930D01*
X0073084Y0072614D01*
X0072650Y0071567D01*
X0072650Y0070433D01*
X0073084Y0069386D01*
X0073886Y0068584D01*
X0074933Y0068150D01*
X0076067Y0068150D01*
X0077114Y0068584D01*
X0078159Y0069972D02*
X0171008Y0069972D01*
X0171275Y0070970D02*
X0078350Y0070970D01*
X0078184Y0071969D02*
X0171605Y0071969D01*
X0172182Y0072967D02*
X0078437Y0072967D01*
X0080496Y0073966D02*
X0172758Y0073966D01*
X0173434Y0074964D02*
X0081156Y0074964D01*
X0081350Y0075963D02*
X0174432Y0075963D01*
X0175431Y0076961D02*
X0081187Y0076961D01*
X0080571Y0077960D02*
X0177022Y0077960D01*
X0178944Y0078958D02*
X0022907Y0078958D01*
X0024829Y0077960D02*
X0076429Y0077960D01*
X0075813Y0076961D02*
X0026420Y0076961D01*
X0027418Y0075963D02*
X0075493Y0075963D01*
X0074494Y0074964D02*
X0028417Y0074964D01*
X0029092Y0073966D02*
X0073496Y0073966D01*
X0073400Y0072967D02*
X0029668Y0072967D01*
X0030245Y0071969D02*
X0072816Y0071969D01*
X0072650Y0070970D02*
X0030575Y0070970D01*
X0030843Y0069972D02*
X0072841Y0069972D01*
X0073496Y0068973D02*
X0031110Y0068973D01*
X0020421Y0081800D02*
X0020700Y0082079D01*
X0020898Y0082421D01*
X0021000Y0082803D01*
X0021000Y0085500D01*
X0012000Y0085500D01*
X0012000Y0086500D01*
X0011000Y0086500D01*
X0011000Y0090500D01*
X0004000Y0090500D01*
X0004000Y0101500D01*
X0011000Y0101500D01*
X0011000Y0105500D01*
X0012000Y0105500D01*
X0012000Y0106500D01*
X0011000Y0106500D01*
X0011000Y0110500D01*
X0004000Y0110500D01*
X0004000Y0133677D01*
X0004078Y0134674D01*
X0004695Y0136571D01*
X0005867Y0138184D01*
X0007480Y0139356D01*
X0009377Y0139973D01*
X0010374Y0140051D01*
X0191476Y0140051D01*
X0192473Y0139973D01*
X0194370Y0139356D01*
X0195983Y0138184D01*
X0197156Y0136571D01*
X0197772Y0134674D01*
X0197850Y0133677D01*
X0197850Y0058874D01*
X0197772Y0057877D01*
X0197156Y0055980D01*
X0195983Y0054367D01*
X0194370Y0053195D01*
X0192473Y0052578D01*
X0191476Y0052500D01*
X0010374Y0052500D01*
X0009377Y0052578D01*
X0007480Y0053195D01*
X0005867Y0054367D01*
X0004695Y0055980D01*
X0004078Y0057877D01*
X0004000Y0058874D01*
X0004000Y0081500D01*
X0011000Y0081500D01*
X0011000Y0085500D01*
X0012000Y0085500D01*
X0012000Y0081500D01*
X0019697Y0081500D01*
X0020079Y0081602D01*
X0020421Y0081800D01*
X0020575Y0081954D02*
X0197850Y0081954D01*
X0197850Y0082952D02*
X0021000Y0082952D01*
X0021000Y0083951D02*
X0197850Y0083951D01*
X0197850Y0084949D02*
X0021000Y0084949D01*
X0021000Y0086500D02*
X0021000Y0089197D01*
X0020898Y0089579D01*
X0020700Y0089921D01*
X0020421Y0090200D01*
X0020079Y0090398D01*
X0019697Y0090500D01*
X0012000Y0090500D01*
X0012000Y0086500D01*
X0021000Y0086500D01*
X0021000Y0086946D02*
X0087852Y0086946D01*
X0087650Y0087433D02*
X0088084Y0086386D01*
X0088886Y0085584D01*
X0089933Y0085150D01*
X0091067Y0085150D01*
X0092114Y0085584D01*
X0092916Y0086386D01*
X0093350Y0087433D01*
X0093350Y0087880D01*
X0094200Y0088730D01*
X0094200Y0088047D01*
X0094650Y0087597D01*
X0094650Y0087433D01*
X0095084Y0086386D01*
X0095886Y0085584D01*
X0096933Y0085150D01*
X0098067Y0085150D01*
X0099114Y0085584D01*
X0099916Y0086386D01*
X0100350Y0087433D01*
X0100350Y0088567D01*
X0099916Y0089614D01*
X0099114Y0090416D01*
X0098800Y0090546D01*
X0098800Y0099047D01*
X0102000Y0102247D01*
X0102547Y0101700D01*
X0106453Y0101700D01*
X0107800Y0103047D01*
X0109800Y0105047D01*
X0109800Y0111953D01*
X0108453Y0113300D01*
X0108350Y0113403D01*
X0108350Y0113567D01*
X0107916Y0114614D01*
X0107114Y0115416D01*
X0106067Y0115850D01*
X0104933Y0115850D01*
X0103886Y0115416D01*
X0103084Y0114614D01*
X0102665Y0113602D01*
X0102067Y0113850D01*
X0100933Y0113850D01*
X0100350Y0113608D01*
X0100350Y0114567D01*
X0099916Y0115614D01*
X0099114Y0116416D01*
X0098067Y0116850D01*
X0096933Y0116850D01*
X0095886Y0116416D01*
X0095084Y0115614D01*
X0094650Y0114567D01*
X0094650Y0113433D01*
X0095084Y0112386D01*
X0095400Y0112070D01*
X0095400Y0110870D01*
X0091630Y0107100D01*
X0088370Y0107100D01*
X0087370Y0108100D01*
X0081630Y0108100D01*
X0080400Y0106870D01*
X0080288Y0106758D01*
X0080067Y0106850D01*
X0078933Y0106850D01*
X0077886Y0106416D01*
X0077084Y0105614D01*
X0076650Y0104567D01*
X0076650Y0103433D01*
X0077084Y0102386D01*
X0077886Y0101584D01*
X0078933Y0101150D01*
X0080067Y0101150D01*
X0081114Y0101584D01*
X0081742Y0102211D01*
X0082084Y0101386D01*
X0082886Y0100584D01*
X0083933Y0100150D01*
X0085067Y0100150D01*
X0086114Y0100584D01*
X0086430Y0100900D01*
X0091430Y0100900D01*
X0091400Y0100870D01*
X0091400Y0091870D01*
X0090380Y0090850D01*
X0089933Y0090850D01*
X0088886Y0090416D01*
X0088084Y0089614D01*
X0087650Y0088567D01*
X0087650Y0087433D01*
X0087650Y0087945D02*
X0021000Y0087945D01*
X0021000Y0088943D02*
X0087806Y0088943D01*
X0088411Y0089942D02*
X0020679Y0089942D01*
X0012000Y0089942D02*
X0011000Y0089942D01*
X0011000Y0088943D02*
X0012000Y0088943D01*
X0012000Y0087945D02*
X0011000Y0087945D01*
X0011000Y0086946D02*
X0012000Y0086946D01*
X0012000Y0085948D02*
X0088522Y0085948D01*
X0092478Y0085948D02*
X0095522Y0085948D01*
X0094852Y0086946D02*
X0093148Y0086946D01*
X0093415Y0087945D02*
X0094302Y0087945D01*
X0090471Y0090940D02*
X0004000Y0090940D01*
X0004000Y0091939D02*
X0091400Y0091939D01*
X0091400Y0092937D02*
X0004000Y0092937D01*
X0004000Y0093936D02*
X0091400Y0093936D01*
X0091400Y0094934D02*
X0004000Y0094934D01*
X0004000Y0095933D02*
X0091400Y0095933D01*
X0091400Y0096932D02*
X0004000Y0096932D01*
X0004000Y0097930D02*
X0091400Y0097930D01*
X0091400Y0098929D02*
X0004000Y0098929D01*
X0004000Y0099927D02*
X0091400Y0099927D01*
X0098800Y0098929D02*
X0160530Y0098929D01*
X0160944Y0099927D02*
X0099680Y0099927D01*
X0100678Y0100926D02*
X0161838Y0100926D01*
X0161018Y0100105D02*
X0159646Y0096793D01*
X0159646Y0093207D01*
X0161018Y0089895D01*
X0163553Y0087360D01*
X0166865Y0085988D01*
X0170450Y0085988D01*
X0173762Y0087360D01*
X0176297Y0089895D01*
X0177669Y0093207D01*
X0177669Y0096793D01*
X0176297Y0100105D01*
X0176012Y0100390D01*
X0180988Y0100390D01*
X0180703Y0100105D01*
X0179331Y0096793D01*
X0179331Y0093207D01*
X0180703Y0089895D01*
X0183238Y0087360D01*
X0186550Y0085988D01*
X0190135Y0085988D01*
X0193447Y0087360D01*
X0195982Y0089895D01*
X0197354Y0093207D01*
X0197354Y0096793D01*
X0195982Y0100105D01*
X0193447Y0102640D01*
X0190135Y0104012D01*
X0186550Y0104012D01*
X0184134Y0103011D01*
X0184134Y0110779D01*
X0183255Y0111657D01*
X0173745Y0111657D01*
X0172866Y0110779D01*
X0172866Y0103011D01*
X0170450Y0104012D01*
X0166865Y0104012D01*
X0163553Y0102640D01*
X0161018Y0100105D01*
X0160117Y0097930D02*
X0098800Y0097930D01*
X0098800Y0096932D02*
X0159703Y0096932D01*
X0159646Y0095933D02*
X0098800Y0095933D01*
X0098800Y0094934D02*
X0159646Y0094934D01*
X0159646Y0093936D02*
X0098800Y0093936D01*
X0098800Y0092937D02*
X0159757Y0092937D01*
X0160171Y0091939D02*
X0098800Y0091939D01*
X0098800Y0090940D02*
X0160585Y0090940D01*
X0160998Y0089942D02*
X0099589Y0089942D01*
X0100194Y0088943D02*
X0161969Y0088943D01*
X0162968Y0087945D02*
X0100350Y0087945D01*
X0100148Y0086946D02*
X0164552Y0086946D01*
X0172763Y0086946D02*
X0184237Y0086946D01*
X0182653Y0087945D02*
X0174347Y0087945D01*
X0175346Y0088943D02*
X0181654Y0088943D01*
X0180683Y0089942D02*
X0176317Y0089942D01*
X0176730Y0090940D02*
X0180270Y0090940D01*
X0179856Y0091939D02*
X0177144Y0091939D01*
X0177557Y0092937D02*
X0179443Y0092937D01*
X0179331Y0093936D02*
X0177669Y0093936D01*
X0177669Y0094934D02*
X0179331Y0094934D01*
X0179331Y0095933D02*
X0177669Y0095933D01*
X0177612Y0096932D02*
X0179388Y0096932D01*
X0179802Y0097930D02*
X0177198Y0097930D01*
X0176785Y0098929D02*
X0180215Y0098929D01*
X0180629Y0099927D02*
X0176371Y0099927D01*
X0172866Y0103921D02*
X0170669Y0103921D01*
X0172866Y0104920D02*
X0109672Y0104920D01*
X0109800Y0105918D02*
X0172866Y0105918D01*
X0172866Y0106917D02*
X0109800Y0106917D01*
X0109800Y0107915D02*
X0172866Y0107915D01*
X0172866Y0108914D02*
X0109800Y0108914D01*
X0109800Y0109912D02*
X0172866Y0109912D01*
X0172998Y0110911D02*
X0109800Y0110911D01*
X0109800Y0111909D02*
X0197850Y0111909D01*
X0197850Y0110911D02*
X0184002Y0110911D01*
X0184134Y0109912D02*
X0197850Y0109912D01*
X0197850Y0108914D02*
X0184134Y0108914D01*
X0184134Y0107915D02*
X0197850Y0107915D01*
X0197850Y0106917D02*
X0184134Y0106917D01*
X0184134Y0105918D02*
X0197850Y0105918D01*
X0197850Y0104920D02*
X0184134Y0104920D01*
X0184134Y0103921D02*
X0186331Y0103921D01*
X0190354Y0103921D02*
X0197850Y0103921D01*
X0197850Y0102923D02*
X0192765Y0102923D01*
X0194163Y0101924D02*
X0197850Y0101924D01*
X0197850Y0100926D02*
X0195162Y0100926D01*
X0196056Y0099927D02*
X0197850Y0099927D01*
X0197850Y0098929D02*
X0196470Y0098929D01*
X0196883Y0097930D02*
X0197850Y0097930D01*
X0197850Y0096932D02*
X0197297Y0096932D01*
X0197354Y0095933D02*
X0197850Y0095933D01*
X0197850Y0094934D02*
X0197354Y0094934D01*
X0197354Y0093936D02*
X0197850Y0093936D01*
X0197850Y0092937D02*
X0197242Y0092937D01*
X0196829Y0091939D02*
X0197850Y0091939D01*
X0197850Y0090940D02*
X0196415Y0090940D01*
X0196002Y0089942D02*
X0197850Y0089942D01*
X0197850Y0088943D02*
X0195031Y0088943D01*
X0194032Y0087945D02*
X0197850Y0087945D01*
X0197850Y0086946D02*
X0192448Y0086946D01*
X0197850Y0085948D02*
X0099478Y0085948D01*
X0082544Y0100926D02*
X0004000Y0100926D01*
X0011000Y0101924D02*
X0012000Y0101924D01*
X0012000Y0101500D02*
X0019697Y0101500D01*
X0020079Y0101602D01*
X0020421Y0101800D01*
X0020700Y0102079D01*
X0020898Y0102421D01*
X0021000Y0102803D01*
X0021000Y0105500D01*
X0012000Y0105500D01*
X0012000Y0101500D01*
X0012000Y0102923D02*
X0011000Y0102923D01*
X0011000Y0103921D02*
X0012000Y0103921D01*
X0012000Y0104920D02*
X0011000Y0104920D01*
X0012000Y0105918D02*
X0048363Y0105918D01*
X0048150Y0106433D02*
X0048584Y0105386D01*
X0049386Y0104584D01*
X0050433Y0104150D01*
X0051567Y0104150D01*
X0052614Y0104584D01*
X0053416Y0105386D01*
X0053850Y0106433D01*
X0053850Y0107567D01*
X0053416Y0108614D01*
X0053300Y0108730D01*
X0053300Y0118269D01*
X0053416Y0118386D01*
X0053850Y0119433D01*
X0053850Y0120567D01*
X0053416Y0121614D01*
X0052614Y0122416D01*
X0051567Y0122850D01*
X0050433Y0122850D01*
X0049386Y0122416D01*
X0048584Y0121614D01*
X0048150Y0120567D01*
X0048150Y0119433D01*
X0048584Y0118386D01*
X0048700Y0118269D01*
X0048700Y0108730D01*
X0048584Y0108614D01*
X0048150Y0107567D01*
X0048150Y0106433D01*
X0048150Y0106917D02*
X0021000Y0106917D01*
X0021000Y0106500D02*
X0021000Y0109197D01*
X0020898Y0109579D01*
X0020700Y0109921D01*
X0020421Y0110200D01*
X0020079Y0110398D01*
X0019697Y0110500D01*
X0012000Y0110500D01*
X0012000Y0106500D01*
X0021000Y0106500D01*
X0021000Y0107915D02*
X0048294Y0107915D01*
X0048700Y0108914D02*
X0021000Y0108914D01*
X0020705Y0109912D02*
X0048700Y0109912D01*
X0048700Y0110911D02*
X0004000Y0110911D01*
X0004000Y0111909D02*
X0048700Y0111909D01*
X0048700Y0112908D02*
X0020350Y0112908D01*
X0019960Y0112803D02*
X0023266Y0113689D01*
X0026230Y0115401D01*
X0028651Y0117821D01*
X0030362Y0120785D01*
X0031248Y0124092D01*
X0031248Y0127515D01*
X0030362Y0130821D01*
X0028651Y0133785D01*
X0026230Y0136206D01*
X0023266Y0137917D01*
X0019960Y0138803D01*
X0016537Y0138803D01*
X0013230Y0137917D01*
X0010266Y0136206D01*
X0007845Y0133785D01*
X0006134Y0130821D01*
X0005248Y0127515D01*
X0005248Y0124092D01*
X0006134Y0120785D01*
X0007845Y0117821D01*
X0010266Y0115401D01*
X0013230Y0113689D01*
X0016537Y0112803D01*
X0019960Y0112803D01*
X0016146Y0112908D02*
X0004000Y0112908D01*
X0004000Y0113906D02*
X0012854Y0113906D01*
X0011125Y0114905D02*
X0004000Y0114905D01*
X0004000Y0115903D02*
X0009763Y0115903D01*
X0008765Y0116902D02*
X0004000Y0116902D01*
X0004000Y0117900D02*
X0007800Y0117900D01*
X0007223Y0118899D02*
X0004000Y0118899D01*
X0004000Y0119897D02*
X0006647Y0119897D01*
X0006104Y0120896D02*
X0004000Y0120896D01*
X0004000Y0121894D02*
X0005837Y0121894D01*
X0005569Y0122893D02*
X0004000Y0122893D01*
X0004000Y0123891D02*
X0005302Y0123891D01*
X0005248Y0124890D02*
X0004000Y0124890D01*
X0004000Y0125888D02*
X0005248Y0125888D01*
X0005248Y0126887D02*
X0004000Y0126887D01*
X0004000Y0127885D02*
X0005347Y0127885D01*
X0005615Y0128884D02*
X0004000Y0128884D01*
X0004000Y0129882D02*
X0005882Y0129882D01*
X0006169Y0130881D02*
X0004000Y0130881D01*
X0004000Y0131879D02*
X0006745Y0131879D01*
X0007322Y0132878D02*
X0004000Y0132878D01*
X0004016Y0133876D02*
X0007937Y0133876D01*
X0008935Y0134875D02*
X0004144Y0134875D01*
X0004468Y0135873D02*
X0009934Y0135873D01*
X0011420Y0136872D02*
X0004913Y0136872D01*
X0005639Y0137870D02*
X0013149Y0137870D01*
X0009053Y0139868D02*
X0192797Y0139868D01*
X0195041Y0138869D02*
X0006809Y0138869D01*
X0023347Y0137870D02*
X0178504Y0137870D01*
X0178585Y0137917D02*
X0175620Y0136206D01*
X0173200Y0133785D01*
X0171488Y0130821D01*
X0170602Y0127515D01*
X0170602Y0124092D01*
X0171488Y0120785D01*
X0173200Y0117821D01*
X0175620Y0115401D01*
X0178585Y0113689D01*
X0181891Y0112803D01*
X0185314Y0112803D01*
X0188620Y0113689D01*
X0191585Y0115401D01*
X0194005Y0117821D01*
X0195716Y0120785D01*
X0196602Y0124092D01*
X0196602Y0127515D01*
X0195716Y0130821D01*
X0194005Y0133785D01*
X0191585Y0136206D01*
X0188620Y0137917D01*
X0185314Y0138803D01*
X0181891Y0138803D01*
X0178585Y0137917D01*
X0176774Y0136872D02*
X0144334Y0136872D01*
X0144025Y0137181D02*
X0140975Y0137181D01*
X0140000Y0136206D01*
X0139025Y0137181D01*
X0135975Y0137181D01*
X0135000Y0136206D01*
X0134025Y0137181D01*
X0130975Y0137181D01*
X0130000Y0136206D01*
X0129025Y0137181D01*
X0125975Y0137181D01*
X0125000Y0136206D01*
X0124025Y0137181D01*
X0120975Y0137181D01*
X0118819Y0135025D01*
X0118819Y0131975D01*
X0119794Y0131000D01*
X0118819Y0130025D01*
X0118819Y0126975D01*
X0120975Y0124819D01*
X0124025Y0124819D01*
X0125000Y0125794D01*
X0125975Y0124819D01*
X0127409Y0124819D01*
X0127409Y0128409D01*
X0127591Y0128409D01*
X0127591Y0128591D01*
X0131181Y0128591D01*
X0132409Y0128591D01*
X0132409Y0128409D01*
X0132591Y0128409D01*
X0132591Y0128591D01*
X0137409Y0128591D01*
X0137409Y0128409D01*
X0137591Y0128409D01*
X0137591Y0128591D01*
X0142409Y0128591D01*
X0142409Y0128409D01*
X0142591Y0128409D01*
X0142591Y0128591D01*
X0146181Y0128591D01*
X0146181Y0130025D01*
X0145206Y0131000D01*
X0146181Y0131975D01*
X0146181Y0135025D01*
X0144025Y0137181D01*
X0145332Y0135873D02*
X0175288Y0135873D01*
X0174289Y0134875D02*
X0146181Y0134875D01*
X0146181Y0133876D02*
X0173291Y0133876D01*
X0172676Y0132878D02*
X0146181Y0132878D01*
X0146085Y0131879D02*
X0172099Y0131879D01*
X0171523Y0130881D02*
X0145325Y0130881D01*
X0146181Y0129882D02*
X0171237Y0129882D01*
X0170969Y0128884D02*
X0146181Y0128884D01*
X0146181Y0128409D02*
X0142591Y0128409D01*
X0142591Y0124819D01*
X0144025Y0124819D01*
X0146181Y0126975D01*
X0146181Y0128409D01*
X0146181Y0127885D02*
X0170702Y0127885D01*
X0170602Y0126887D02*
X0146093Y0126887D01*
X0145094Y0125888D02*
X0170602Y0125888D01*
X0170602Y0124890D02*
X0144096Y0124890D01*
X0142591Y0124890D02*
X0142409Y0124890D01*
X0142409Y0124819D02*
X0142409Y0128409D01*
X0138819Y0128409D01*
X0137591Y0128409D01*
X0137591Y0124819D01*
X0139025Y0124819D01*
X0140000Y0125794D01*
X0140975Y0124819D01*
X0142409Y0124819D01*
X0142409Y0125888D02*
X0142591Y0125888D01*
X0142591Y0126887D02*
X0142409Y0126887D01*
X0142409Y0127885D02*
X0142591Y0127885D01*
X0140904Y0124890D02*
X0139096Y0124890D01*
X0137591Y0124890D02*
X0137409Y0124890D01*
X0137409Y0124819D02*
X0137409Y0128409D01*
X0133819Y0128409D01*
X0132591Y0128409D01*
X0132591Y0124819D01*
X0134025Y0124819D01*
X0135000Y0125794D01*
X0135975Y0124819D01*
X0137409Y0124819D01*
X0137409Y0125888D02*
X0137591Y0125888D01*
X0137591Y0126887D02*
X0137409Y0126887D01*
X0137409Y0127885D02*
X0137591Y0127885D01*
X0135904Y0124890D02*
X0134096Y0124890D01*
X0132591Y0124890D02*
X0132409Y0124890D01*
X0132409Y0124819D02*
X0132409Y0128409D01*
X0127591Y0128409D01*
X0127591Y0124819D01*
X0129025Y0124819D01*
X0130000Y0125794D01*
X0130975Y0124819D01*
X0132409Y0124819D01*
X0132409Y0125888D02*
X0132591Y0125888D01*
X0132591Y0126887D02*
X0132409Y0126887D01*
X0132409Y0127885D02*
X0132591Y0127885D01*
X0130904Y0124890D02*
X0129096Y0124890D01*
X0127591Y0124890D02*
X0127409Y0124890D01*
X0127409Y0125888D02*
X0127591Y0125888D01*
X0127591Y0126887D02*
X0127409Y0126887D01*
X0127409Y0127885D02*
X0127591Y0127885D01*
X0125904Y0124890D02*
X0124096Y0124890D01*
X0120904Y0124890D02*
X0031248Y0124890D01*
X0031248Y0125888D02*
X0119906Y0125888D01*
X0118907Y0126887D02*
X0031248Y0126887D01*
X0031149Y0127885D02*
X0118819Y0127885D01*
X0118819Y0128884D02*
X0087682Y0128884D01*
X0087671Y0128873D02*
X0088127Y0129329D01*
X0088507Y0129851D01*
X0088800Y0130426D01*
X0088999Y0131040D01*
X0089100Y0131677D01*
X0089100Y0131700D01*
X0085300Y0131700D01*
X0085300Y0132300D01*
X0089100Y0132300D01*
X0089100Y0132323D01*
X0088999Y0132960D01*
X0088800Y0133574D01*
X0088507Y0134149D01*
X0088127Y0134671D01*
X0087671Y0135127D01*
X0087149Y0135507D01*
X0086574Y0135800D01*
X0085960Y0135999D01*
X0085323Y0136100D01*
X0085300Y0136100D01*
X0085300Y0132300D01*
X0084700Y0132300D01*
X0084700Y0136100D01*
X0084677Y0136100D01*
X0084040Y0135999D01*
X0083426Y0135800D01*
X0082851Y0135507D01*
X0082329Y0135127D01*
X0081873Y0134671D01*
X0081493Y0134149D01*
X0081200Y0133574D01*
X0081001Y0132960D01*
X0080900Y0132323D01*
X0080900Y0132300D01*
X0084700Y0132300D01*
X0084700Y0131700D01*
X0085300Y0131700D01*
X0085300Y0127900D01*
X0085323Y0127900D01*
X0085960Y0128001D01*
X0086574Y0128200D01*
X0087149Y0128493D01*
X0087671Y0128873D01*
X0088523Y0129882D02*
X0118819Y0129882D01*
X0119675Y0130881D02*
X0088947Y0130881D01*
X0089012Y0132878D02*
X0118819Y0132878D01*
X0118819Y0133876D02*
X0088645Y0133876D01*
X0087923Y0134875D02*
X0118819Y0134875D01*
X0119668Y0135873D02*
X0086347Y0135873D01*
X0085300Y0135873D02*
X0084700Y0135873D01*
X0084700Y0134875D02*
X0085300Y0134875D01*
X0085300Y0133876D02*
X0084700Y0133876D01*
X0084700Y0132878D02*
X0085300Y0132878D01*
X0085300Y0131879D02*
X0118915Y0131879D01*
X0120666Y0136872D02*
X0025076Y0136872D01*
X0026562Y0135873D02*
X0064638Y0135873D01*
X0065184Y0136100D02*
X0063678Y0135476D01*
X0062524Y0134322D01*
X0061900Y0132816D01*
X0061900Y0131184D01*
X0062524Y0129678D01*
X0063678Y0128524D01*
X0065184Y0127900D01*
X0066816Y0127900D01*
X0068322Y0128524D01*
X0069476Y0129678D01*
X0070100Y0131184D01*
X0070100Y0132816D01*
X0069476Y0134322D01*
X0068322Y0135476D01*
X0066816Y0136100D01*
X0065184Y0136100D01*
X0067362Y0135873D02*
X0083653Y0135873D01*
X0082077Y0134875D02*
X0068923Y0134875D01*
X0069661Y0133876D02*
X0081355Y0133876D01*
X0080988Y0132878D02*
X0070074Y0132878D01*
X0070100Y0131879D02*
X0084700Y0131879D01*
X0084700Y0131700D02*
X0080900Y0131700D01*
X0080900Y0131677D01*
X0081001Y0131040D01*
X0081200Y0130426D01*
X0081493Y0129851D01*
X0081873Y0129329D01*
X0082329Y0128873D01*
X0082851Y0128493D01*
X0083426Y0128200D01*
X0084040Y0128001D01*
X0084677Y0127900D01*
X0084700Y0127900D01*
X0084700Y0131700D01*
X0084700Y0130881D02*
X0085300Y0130881D01*
X0085300Y0129882D02*
X0084700Y0129882D01*
X0084700Y0128884D02*
X0085300Y0128884D01*
X0082318Y0128884D02*
X0068682Y0128884D01*
X0069561Y0129882D02*
X0081477Y0129882D01*
X0081053Y0130881D02*
X0069974Y0130881D01*
X0063318Y0128884D02*
X0030881Y0128884D01*
X0030614Y0129882D02*
X0062439Y0129882D01*
X0062026Y0130881D02*
X0030327Y0130881D01*
X0029751Y0131879D02*
X0061900Y0131879D01*
X0061926Y0132878D02*
X0029175Y0132878D01*
X0028560Y0133876D02*
X0062339Y0133876D01*
X0063077Y0134875D02*
X0027561Y0134875D01*
X0031194Y0123891D02*
X0170656Y0123891D01*
X0170924Y0122893D02*
X0030927Y0122893D01*
X0030659Y0121894D02*
X0048864Y0121894D01*
X0048286Y0120896D02*
X0030392Y0120896D01*
X0029849Y0119897D02*
X0048150Y0119897D01*
X0048371Y0118899D02*
X0029273Y0118899D01*
X0028696Y0117900D02*
X0048700Y0117900D01*
X0048700Y0116902D02*
X0027731Y0116902D01*
X0026733Y0115903D02*
X0048700Y0115903D01*
X0048700Y0114905D02*
X0025371Y0114905D01*
X0023642Y0113906D02*
X0048700Y0113906D01*
X0053300Y0113906D02*
X0076376Y0113906D01*
X0076084Y0113614D02*
X0075650Y0112567D01*
X0075650Y0111433D01*
X0076084Y0110386D01*
X0076886Y0109584D01*
X0077933Y0109150D01*
X0079067Y0109150D01*
X0080114Y0109584D01*
X0080430Y0109900D01*
X0084569Y0109900D01*
X0084886Y0109584D01*
X0085933Y0109150D01*
X0087067Y0109150D01*
X0088114Y0109584D01*
X0088916Y0110386D01*
X0089350Y0111433D01*
X0089350Y0112567D01*
X0088916Y0113614D01*
X0088114Y0114416D01*
X0087067Y0114850D01*
X0085933Y0114850D01*
X0084886Y0114416D01*
X0084569Y0114100D01*
X0080430Y0114100D01*
X0080114Y0114416D01*
X0079067Y0114850D01*
X0077933Y0114850D01*
X0076886Y0114416D01*
X0076084Y0113614D01*
X0075791Y0112908D02*
X0053300Y0112908D01*
X0053300Y0111909D02*
X0075650Y0111909D01*
X0075866Y0110911D02*
X0053300Y0110911D01*
X0053300Y0109912D02*
X0076557Y0109912D01*
X0077388Y0105918D02*
X0053637Y0105918D01*
X0053850Y0106917D02*
X0080447Y0106917D01*
X0081445Y0107915D02*
X0053706Y0107915D01*
X0053300Y0108914D02*
X0093444Y0108914D01*
X0094442Y0109912D02*
X0088443Y0109912D01*
X0089134Y0110911D02*
X0095400Y0110911D01*
X0095400Y0111909D02*
X0089350Y0111909D01*
X0089209Y0112908D02*
X0094868Y0112908D01*
X0094650Y0113906D02*
X0088624Y0113906D01*
X0094790Y0114905D02*
X0053300Y0114905D01*
X0053300Y0115903D02*
X0095373Y0115903D01*
X0099627Y0115903D02*
X0175117Y0115903D01*
X0174119Y0116902D02*
X0053300Y0116902D01*
X0053300Y0117900D02*
X0173154Y0117900D01*
X0172577Y0118899D02*
X0053629Y0118899D01*
X0053850Y0119897D02*
X0172001Y0119897D01*
X0171459Y0120896D02*
X0053714Y0120896D01*
X0053136Y0121894D02*
X0171191Y0121894D01*
X0176479Y0114905D02*
X0107626Y0114905D01*
X0108209Y0113906D02*
X0178208Y0113906D01*
X0181501Y0112908D02*
X0108845Y0112908D01*
X0103374Y0114905D02*
X0100210Y0114905D01*
X0100350Y0113906D02*
X0102791Y0113906D01*
X0092445Y0107915D02*
X0087555Y0107915D01*
X0080500Y0104000D02*
X0079500Y0104000D01*
X0081455Y0101924D02*
X0081861Y0101924D01*
X0077545Y0101924D02*
X0020545Y0101924D01*
X0021000Y0102923D02*
X0076861Y0102923D01*
X0076650Y0103921D02*
X0021000Y0103921D01*
X0021000Y0104920D02*
X0049050Y0104920D01*
X0052950Y0104920D02*
X0076796Y0104920D01*
X0101677Y0101924D02*
X0102323Y0101924D01*
X0106677Y0101924D02*
X0162837Y0101924D01*
X0164235Y0102923D02*
X0107675Y0102923D01*
X0108674Y0103921D02*
X0166646Y0103921D01*
X0185704Y0112908D02*
X0197850Y0112908D01*
X0197850Y0113906D02*
X0188996Y0113906D01*
X0190726Y0114905D02*
X0197850Y0114905D01*
X0197850Y0115903D02*
X0192087Y0115903D01*
X0193086Y0116902D02*
X0197850Y0116902D01*
X0197850Y0117900D02*
X0194051Y0117900D01*
X0194627Y0118899D02*
X0197850Y0118899D01*
X0197850Y0119897D02*
X0195204Y0119897D01*
X0195746Y0120896D02*
X0197850Y0120896D01*
X0197850Y0121894D02*
X0196014Y0121894D01*
X0196281Y0122893D02*
X0197850Y0122893D01*
X0197850Y0123891D02*
X0196549Y0123891D01*
X0196602Y0124890D02*
X0197850Y0124890D01*
X0197850Y0125888D02*
X0196602Y0125888D01*
X0196602Y0126887D02*
X0197850Y0126887D01*
X0197850Y0127885D02*
X0196503Y0127885D01*
X0196235Y0128884D02*
X0197850Y0128884D01*
X0197850Y0129882D02*
X0195968Y0129882D01*
X0195682Y0130881D02*
X0197850Y0130881D01*
X0197850Y0131879D02*
X0195105Y0131879D01*
X0194529Y0132878D02*
X0197850Y0132878D01*
X0197835Y0133876D02*
X0193914Y0133876D01*
X0192915Y0134875D02*
X0197707Y0134875D01*
X0197382Y0135873D02*
X0191917Y0135873D01*
X0190431Y0136872D02*
X0196937Y0136872D01*
X0196211Y0137870D02*
X0188701Y0137870D01*
X0140666Y0136872D02*
X0139334Y0136872D01*
X0135666Y0136872D02*
X0134334Y0136872D01*
X0130666Y0136872D02*
X0129334Y0136872D01*
X0125666Y0136872D02*
X0124334Y0136872D01*
X0197850Y0080955D02*
X0004000Y0080955D01*
X0004000Y0079957D02*
X0197850Y0079957D01*
X0197850Y0078958D02*
X0188261Y0078958D01*
X0190183Y0077960D02*
X0197850Y0077960D01*
X0197850Y0076961D02*
X0191774Y0076961D01*
X0192772Y0075963D02*
X0197850Y0075963D01*
X0197850Y0074964D02*
X0193771Y0074964D01*
X0194446Y0073966D02*
X0197850Y0073966D01*
X0197850Y0072967D02*
X0195023Y0072967D01*
X0195599Y0071969D02*
X0197850Y0071969D01*
X0197850Y0070970D02*
X0195930Y0070970D01*
X0196197Y0069972D02*
X0197850Y0069972D01*
X0197850Y0068973D02*
X0196465Y0068973D01*
X0196602Y0067975D02*
X0197850Y0067975D01*
X0197850Y0066976D02*
X0196602Y0066976D01*
X0196602Y0065978D02*
X0197850Y0065978D01*
X0197850Y0064979D02*
X0196587Y0064979D01*
X0196319Y0063981D02*
X0197850Y0063981D01*
X0197850Y0062982D02*
X0196052Y0062982D01*
X0195784Y0061984D02*
X0197850Y0061984D01*
X0197850Y0060985D02*
X0195286Y0060985D01*
X0194710Y0059987D02*
X0197850Y0059987D01*
X0197850Y0058988D02*
X0194133Y0058988D01*
X0193229Y0057990D02*
X0197781Y0057990D01*
X0197484Y0056991D02*
X0192230Y0056991D01*
X0190973Y0055993D02*
X0197160Y0055993D01*
X0196439Y0054994D02*
X0189244Y0054994D01*
X0186238Y0053996D02*
X0195472Y0053996D01*
X0193762Y0052997D02*
X0008089Y0052997D01*
X0006378Y0053996D02*
X0015613Y0053996D01*
X0012607Y0054994D02*
X0005411Y0054994D01*
X0004691Y0055993D02*
X0010877Y0055993D01*
X0009620Y0056991D02*
X0004366Y0056991D01*
X0004070Y0057990D02*
X0008622Y0057990D01*
X0007717Y0058988D02*
X0004000Y0058988D01*
X0004000Y0059987D02*
X0007141Y0059987D01*
X0006564Y0060985D02*
X0004000Y0060985D01*
X0004000Y0061984D02*
X0006066Y0061984D01*
X0005798Y0062982D02*
X0004000Y0062982D01*
X0004000Y0063981D02*
X0005531Y0063981D01*
X0005263Y0064979D02*
X0004000Y0064979D01*
X0004000Y0065978D02*
X0005248Y0065978D01*
X0005248Y0066976D02*
X0004000Y0066976D01*
X0004000Y0067975D02*
X0005248Y0067975D01*
X0005386Y0068973D02*
X0004000Y0068973D01*
X0004000Y0069972D02*
X0005653Y0069972D01*
X0005921Y0070970D02*
X0004000Y0070970D01*
X0004000Y0071969D02*
X0006251Y0071969D01*
X0006828Y0072967D02*
X0004000Y0072967D01*
X0004000Y0073966D02*
X0007404Y0073966D01*
X0008079Y0074964D02*
X0004000Y0074964D01*
X0004000Y0075963D02*
X0009078Y0075963D01*
X0010077Y0076961D02*
X0004000Y0076961D01*
X0004000Y0077960D02*
X0011667Y0077960D01*
X0013589Y0078958D02*
X0004000Y0078958D01*
X0011000Y0081954D02*
X0012000Y0081954D01*
X0012000Y0082952D02*
X0011000Y0082952D01*
X0011000Y0083951D02*
X0012000Y0083951D01*
X0012000Y0084949D02*
X0011000Y0084949D01*
X0011000Y0106917D02*
X0012000Y0106917D01*
X0012000Y0107915D02*
X0011000Y0107915D01*
X0011000Y0108914D02*
X0012000Y0108914D01*
X0012000Y0109912D02*
X0011000Y0109912D01*
X0020883Y0053996D02*
X0180967Y0053996D01*
D19*
X0165500Y0085000D03*
X0158000Y0094500D03*
X0151500Y0098000D03*
X0141500Y0097000D03*
X0131500Y0106000D03*
X0141500Y0108000D03*
X0125500Y0115000D03*
X0121500Y0104000D03*
X0121500Y0099000D03*
X0110500Y0098000D03*
X0104500Y0091000D03*
X0097500Y0088000D03*
X0090500Y0088000D03*
X0086500Y0081000D03*
X0078500Y0076000D03*
X0075500Y0071000D03*
X0078500Y0064000D03*
X0074500Y0060000D03*
X0074500Y0054000D03*
X0049500Y0060000D03*
X0049500Y0067000D03*
X0049500Y0082000D03*
X0049500Y0092000D03*
X0049500Y0100000D03*
X0040500Y0100000D03*
X0040500Y0094000D03*
X0030500Y0091000D03*
X0021500Y0091000D03*
X0021500Y0081000D03*
X0009500Y0080000D03*
X0005500Y0080000D03*
X0021500Y0111000D03*
X0032500Y0114000D03*
X0035500Y0121000D03*
X0051000Y0120000D03*
X0058500Y0123000D03*
X0062500Y0116000D03*
X0062500Y0111000D03*
X0051000Y0107000D03*
X0078500Y0112000D03*
X0086500Y0112000D03*
X0090500Y0109000D03*
X0097500Y0114000D03*
X0101500Y0111000D03*
X0105500Y0113000D03*
X0110500Y0115000D03*
X0111500Y0107000D03*
X0104500Y0107000D03*
X0084500Y0103000D03*
X0079500Y0104000D03*
X0079500Y0097000D03*
X0079500Y0090000D03*
X0104500Y0085000D03*
X0113500Y0088000D03*
X0114500Y0079500D03*
X0161500Y0103000D03*
X0161500Y0110500D03*
X0170500Y0110500D03*
X0114500Y0129000D03*
X0105500Y0123000D03*
X0053500Y0138000D03*
X0043500Y0133000D03*
X0009500Y0112000D03*
X0005500Y0112000D03*
D20*
X0051000Y0107000D02*
X0051000Y0120000D01*
X0096500Y0100000D02*
X0096500Y0089000D01*
X0097500Y0088000D01*
X0096500Y0100000D02*
X0101500Y0105000D01*
X0102500Y0105000D01*
X0103500Y0104000D01*
X0105500Y0104000D01*
X0107500Y0106000D01*
X0107500Y0111000D01*
X0105500Y0113000D01*
D21*
X0101500Y0111000D02*
X0093500Y0103000D01*
X0084500Y0103000D01*
X0087500Y0105000D02*
X0092500Y0105000D01*
X0097500Y0110000D01*
X0097500Y0114000D01*
X0100500Y0107000D02*
X0093500Y0100000D01*
X0093500Y0091000D01*
X0090500Y0088000D01*
X0078500Y0076000D02*
X0075500Y0073000D01*
X0075500Y0071000D01*
X0080500Y0104000D02*
X0082500Y0106000D01*
X0086500Y0106000D01*
X0087500Y0105000D01*
X0086500Y0112000D02*
X0078500Y0112000D01*
X0100500Y0107000D02*
X0104500Y0107000D01*
M02*
