%
M48
M72
T01C0.0150
T02C0.0236
T03C0.0320
T04C0.0400
T05C0.0551
T06C0.1102
T07C0.1181
%
T01
X16750Y3450
X15900Y4300
X15150Y4950
X14150Y4850
X13150Y5750
X12150Y5550
X11150Y5850
X10450Y5850
X10150Y6250
X10550Y6450
X11050Y6650
X9750Y6550
X9050Y6050
X8650Y6350
X7850Y6350
X6250Y6250
X6250Y6750
X5100Y7150
X5850Y7450
X5450Y8250
X4350Y8750
X3550Y7250
X3250Y6550
X2150Y6250
X950Y6350
X550Y6350
X4050Y5150
X4950Y5150
X4050Y4550
X3050Y4250
X2150Y4250
X2150Y3250
X950Y3150
X550Y3150
X4950Y3350
X4950Y4350
X7950Y4150
X9050Y3950
X9750Y3950
X10450Y3650
X11350Y3950
X10450Y4250
X11050Y4950
X12150Y5050
X14150Y5950
X12550Y6650
X10550Y7450
X11450Y8050
X16150Y6200
X17050Y6200
X16150Y5450
X11350Y3000
X8650Y3250
X7850Y2750
X7550Y2250
X7850Y1550
X7450Y1150
X7450Y550
X4950Y1150
X4950Y1850
X10600Y1300
X7950Y4850
X8450Y5450
X7950Y5550
X5100Y5850
T02
X12250Y8000
X12750Y8000
X13250Y8000
X13750Y8000
X14250Y8000
X14250Y8500
X13750Y8500
X13250Y8500
X12750Y8500
X12250Y8500
T03
X8500Y8350
X6600Y8350
T04
X14950Y1450
X15950Y1450
T05
X17850Y5752
T06
X18834Y4650
X16866Y4650
T07
X18360Y1825
X18360Y7730
X1825Y7730
X1825Y1825
M30
