%
M48
M72
T01C0.0150
T02C0.0236
T03C0.0320
T04C0.0400
T05C0.0551
T06C0.1102
T07C0.1181
%
T01
X16550Y8500
X15800Y9450
X15150Y9800
X14150Y9700
X13150Y10600
X14150Y10800
X12550Y11500
X12150Y10400
X12150Y9900
X11050Y9800
X10450Y9100
X9750Y8800
X9050Y8800
X8650Y8100
X7850Y7600
X7550Y7100
X7850Y6400
X7450Y6000
X7450Y5400
X4950Y6000
X4950Y6700
X4950Y8200
X4950Y9200
X4950Y10000
X4050Y10000
X4050Y9400
X3050Y9100
X2150Y9100
X2150Y8100
X950Y8000
X550Y8000
X2150Y11100
X3250Y11400
X3550Y12100
X5100Y12000
X5850Y12300
X6250Y11600
X6250Y11100
X5100Y10700
X7850Y11200
X8650Y11200
X9050Y10900
X9750Y11400
X10150Y11100
X10550Y11300
X11050Y11500
X11150Y10700
X10450Y10700
X8450Y10300
X7950Y10400
X7950Y9700
X7950Y9000
X10450Y8500
X11350Y8800
X11450Y7950
X16150Y10300
X16150Y11050
X17050Y11050
X11450Y12900
X10550Y12300
X5350Y13800
X4350Y13300
X950Y11200
X550Y11200
T02
X12250Y12850
X12750Y12850
X13250Y12850
X13750Y12850
X14250Y12850
X14250Y13350
X13750Y13350
X13250Y13350
X12750Y13350
X12250Y13350
T03
X8500Y13200
X6600Y13200
T04
X12950Y6000
X13950Y6000
T05
X17850Y10602
T06
X18834Y9500
X16866Y9500
T07
X18360Y6675
X18360Y12580
X1825Y12580
X1825Y6675
M30
