%
M48
M72
T01C0.0150
T02C0.0320
T03C0.0400
T04C0.0551
T05C0.1102
T06C0.1181
%
T01
X16750Y3450
X16400Y3700
X16150Y5450
X16150Y6200
X17050Y6200
X14800Y6650
X12200Y5650
X11000Y5700
X10350Y5950
X10750Y6050
X10150Y6250
X9750Y6550
X9050Y6050
X8650Y6350
X7850Y6350
X6250Y6250
X6250Y6750
X5100Y7150
X5850Y7450
X5450Y8250
X4350Y8750
X3550Y7250
X3250Y6550
X2150Y6250
X950Y6350
X550Y6350
X4050Y5150
X4950Y5150
X4050Y4550
X3050Y4250
X2150Y4250
X2150Y3250
X950Y3150
X550Y3150
X4950Y3350
X4950Y4350
X7950Y4150
X9050Y3950
X9750Y3950
X10450Y3650
X10450Y4250
X11050Y4850
X8450Y5450
X7950Y5550
X7950Y4850
X5100Y5850
X8650Y3250
X7850Y2750
X7550Y2250
X7850Y1550
X7450Y1150
X7450Y550
X4950Y1150
X4950Y1850
X10600Y1300
X11350Y3000
X11300Y7850
X14800Y8450
T02
X8500Y8350
X6600Y8350
T03
X14950Y1450
X15950Y1450
T04
X17850Y5752
T05
X18834Y4650
X16866Y4650
T06
X18360Y1825
X18360Y7730
X1825Y7730
X1825Y1825
M30
