%
M48
M72
T01C0.0200
T02C0.0315
T03C0.0320
T04C0.0400
T05C0.0440
T06C0.0551
T07C0.0670
T08C0.1181
%
T01
X18174Y6331
X19174Y8731
X17274Y9031
X15874Y9131
X15574Y9831
X15574Y11131
X14774Y11131
X14774Y12231
X15574Y12231
X16374Y12231
X17174Y12231
X18074Y12231
X18774Y11831
X19174Y11231
X17974Y11031
X17174Y11131
X16374Y11131
X15674Y7831
X12924Y7031
X11574Y7831
X11074Y8331
X11574Y8731
X12024Y8731
X11574Y9431
X11224Y10481
X11374Y11031
X12174Y11031
X12774Y12031
X13174Y11531
X11774Y12231
X9874Y8331
X10774Y7531
X10624Y7081
X10774Y6631
X10174Y6331
X7874Y6931
X7274Y8431
X8524Y8931
X8524Y9631
X7474Y11131
X7474Y12031
X5374Y11431
X4774Y10631
X3024Y8681
X2374Y7531
X1874Y8631
X3974Y7231
X4974Y6331
X6374Y6331
X1274Y12131
T02
X6344Y15243
X5871Y15243
X5399Y15243
X4926Y15243
X4454Y15243
X3981Y15243
X3509Y15243
X3037Y15243
X3037Y15716
X3509Y15716
X3981Y15716
X4454Y15716
X4926Y15716
X5399Y15716
X5871Y15716
X6344Y15716
X3509Y20046
X3037Y20046
X3037Y20519
X3509Y20519
X3981Y20519
X3981Y20046
X4454Y20046
X4454Y20519
X4926Y20519
X4926Y20046
X5399Y20046
X5399Y20519
X5871Y20519
X5871Y20046
X6344Y20046
X6344Y20519
X10989Y20519
X10989Y20046
X11462Y20046
X11462Y20519
X11934Y20519
X11934Y20046
X12407Y20046
X12407Y20519
X12879Y20519
X12879Y20046
X13352Y20046
X13352Y20519
X13824Y20519
X13824Y20046
X14296Y20046
X14296Y20519
X12564Y15716
X12092Y15716
X12092Y15243
X12564Y15243
X13037Y15243
X13037Y15716
X13509Y15716
X13509Y15243
X13981Y15243
X13981Y15716
X14454Y15716
X14454Y15243
X14926Y15243
X14926Y15716
X15399Y15716
X15399Y15243
T03
X17074Y10331
X16074Y10331
X15074Y10331
T04
X1550Y9863
X1550Y10863
X2387Y16873
X2387Y17873
X2387Y18873
X1387Y18873
X1387Y17873
X1387Y16873
X11442Y18873
X11442Y17873
X11442Y16873
X10442Y16873
X10442Y17873
X10442Y18873
X18774Y10558
X18674Y7931
X18674Y6931
X17674Y7031
X17674Y8031
X16674Y7931
X16674Y6931
T05
X14635Y21731
X14635Y22731
X14635Y23731
X12635Y23731
X12635Y22731
X12635Y21731
X10635Y21731
X10635Y22731
X10635Y23731
X8635Y23731
X8635Y22731
X8635Y21731
X6635Y21731
X6635Y22731
X6635Y23731
X2273Y21731
X2273Y22731
X2273Y23731
T06
X15230Y18873
X16230Y18873
X16230Y17873
X16230Y16873
X15230Y16873
X15230Y17873
X6174Y16873
X6174Y17873
X6174Y18873
X7174Y18873
X7174Y17873
X7174Y16873
T07
X1674Y13306
X4674Y13306
X15674Y13306
X18674Y13306
T08
X12958Y16582
X12958Y19180
X3903Y16582
X3903Y19180
M30
