G75*
%MOIN*%
%OFA0B0*%
%FSLAX25Y25*%
%IPPOS*%
%LPD*%
%AMOC8*
5,1,8,0,0,1.08239X$1,22.5*
%
%ADD10C,0.00000*%
%ADD11C,0.01500*%
%ADD12C,0.00800*%
D10*
X0010374Y0002500D02*
X0191476Y0002500D01*
X0191666Y0002502D01*
X0191856Y0002509D01*
X0192046Y0002521D01*
X0192236Y0002537D01*
X0192425Y0002557D01*
X0192614Y0002583D01*
X0192802Y0002612D01*
X0192989Y0002647D01*
X0193175Y0002686D01*
X0193360Y0002729D01*
X0193545Y0002777D01*
X0193728Y0002829D01*
X0193909Y0002885D01*
X0194089Y0002946D01*
X0194268Y0003012D01*
X0194445Y0003081D01*
X0194621Y0003155D01*
X0194794Y0003233D01*
X0194966Y0003316D01*
X0195135Y0003402D01*
X0195303Y0003492D01*
X0195468Y0003587D01*
X0195631Y0003685D01*
X0195791Y0003788D01*
X0195949Y0003894D01*
X0196104Y0004004D01*
X0196257Y0004117D01*
X0196407Y0004235D01*
X0196553Y0004356D01*
X0196697Y0004480D01*
X0196838Y0004608D01*
X0196976Y0004739D01*
X0197111Y0004874D01*
X0197242Y0005012D01*
X0197370Y0005153D01*
X0197494Y0005297D01*
X0197615Y0005443D01*
X0197733Y0005593D01*
X0197846Y0005746D01*
X0197956Y0005901D01*
X0198062Y0006059D01*
X0198165Y0006219D01*
X0198263Y0006382D01*
X0198358Y0006547D01*
X0198448Y0006715D01*
X0198534Y0006884D01*
X0198617Y0007056D01*
X0198695Y0007229D01*
X0198769Y0007405D01*
X0198838Y0007582D01*
X0198904Y0007761D01*
X0198965Y0007941D01*
X0199021Y0008122D01*
X0199073Y0008305D01*
X0199121Y0008490D01*
X0199164Y0008675D01*
X0199203Y0008861D01*
X0199238Y0009048D01*
X0199267Y0009236D01*
X0199293Y0009425D01*
X0199313Y0009614D01*
X0199329Y0009804D01*
X0199341Y0009994D01*
X0199348Y0010184D01*
X0199350Y0010374D01*
X0199350Y0085177D01*
X0199348Y0085367D01*
X0199341Y0085557D01*
X0199329Y0085747D01*
X0199313Y0085937D01*
X0199293Y0086126D01*
X0199267Y0086315D01*
X0199238Y0086503D01*
X0199203Y0086690D01*
X0199164Y0086876D01*
X0199121Y0087061D01*
X0199073Y0087246D01*
X0199021Y0087429D01*
X0198965Y0087610D01*
X0198904Y0087790D01*
X0198838Y0087969D01*
X0198769Y0088146D01*
X0198695Y0088322D01*
X0198617Y0088495D01*
X0198534Y0088667D01*
X0198448Y0088836D01*
X0198358Y0089004D01*
X0198263Y0089169D01*
X0198165Y0089332D01*
X0198062Y0089492D01*
X0197956Y0089650D01*
X0197846Y0089805D01*
X0197733Y0089958D01*
X0197615Y0090108D01*
X0197494Y0090254D01*
X0197370Y0090398D01*
X0197242Y0090539D01*
X0197111Y0090677D01*
X0196976Y0090812D01*
X0196838Y0090943D01*
X0196697Y0091071D01*
X0196553Y0091195D01*
X0196407Y0091316D01*
X0196257Y0091434D01*
X0196104Y0091547D01*
X0195949Y0091657D01*
X0195791Y0091763D01*
X0195631Y0091866D01*
X0195468Y0091964D01*
X0195303Y0092059D01*
X0195135Y0092149D01*
X0194966Y0092235D01*
X0194794Y0092318D01*
X0194621Y0092396D01*
X0194445Y0092470D01*
X0194268Y0092539D01*
X0194089Y0092605D01*
X0193909Y0092666D01*
X0193728Y0092722D01*
X0193545Y0092774D01*
X0193360Y0092822D01*
X0193175Y0092865D01*
X0192989Y0092904D01*
X0192802Y0092939D01*
X0192614Y0092968D01*
X0192425Y0092994D01*
X0192236Y0093014D01*
X0192046Y0093030D01*
X0191856Y0093042D01*
X0191666Y0093049D01*
X0191476Y0093051D01*
X0010374Y0093051D01*
X0010184Y0093049D01*
X0009994Y0093042D01*
X0009804Y0093030D01*
X0009614Y0093014D01*
X0009425Y0092994D01*
X0009236Y0092968D01*
X0009048Y0092939D01*
X0008861Y0092904D01*
X0008675Y0092865D01*
X0008490Y0092822D01*
X0008305Y0092774D01*
X0008122Y0092722D01*
X0007941Y0092666D01*
X0007761Y0092605D01*
X0007582Y0092539D01*
X0007405Y0092470D01*
X0007229Y0092396D01*
X0007056Y0092318D01*
X0006884Y0092235D01*
X0006715Y0092149D01*
X0006547Y0092059D01*
X0006382Y0091964D01*
X0006219Y0091866D01*
X0006059Y0091763D01*
X0005901Y0091657D01*
X0005746Y0091547D01*
X0005593Y0091434D01*
X0005443Y0091316D01*
X0005297Y0091195D01*
X0005153Y0091071D01*
X0005012Y0090943D01*
X0004874Y0090812D01*
X0004739Y0090677D01*
X0004608Y0090539D01*
X0004480Y0090398D01*
X0004356Y0090254D01*
X0004235Y0090108D01*
X0004117Y0089958D01*
X0004004Y0089805D01*
X0003894Y0089650D01*
X0003788Y0089492D01*
X0003685Y0089332D01*
X0003587Y0089169D01*
X0003492Y0089004D01*
X0003402Y0088836D01*
X0003316Y0088667D01*
X0003233Y0088495D01*
X0003155Y0088322D01*
X0003081Y0088146D01*
X0003012Y0087969D01*
X0002946Y0087790D01*
X0002885Y0087610D01*
X0002829Y0087429D01*
X0002777Y0087246D01*
X0002729Y0087061D01*
X0002686Y0086876D01*
X0002647Y0086690D01*
X0002612Y0086503D01*
X0002583Y0086315D01*
X0002557Y0086126D01*
X0002537Y0085937D01*
X0002521Y0085747D01*
X0002509Y0085557D01*
X0002502Y0085367D01*
X0002500Y0085177D01*
X0002500Y0010374D01*
X0002502Y0010184D01*
X0002509Y0009994D01*
X0002521Y0009804D01*
X0002537Y0009614D01*
X0002557Y0009425D01*
X0002583Y0009236D01*
X0002612Y0009048D01*
X0002647Y0008861D01*
X0002686Y0008675D01*
X0002729Y0008490D01*
X0002777Y0008305D01*
X0002829Y0008122D01*
X0002885Y0007941D01*
X0002946Y0007761D01*
X0003012Y0007582D01*
X0003081Y0007405D01*
X0003155Y0007229D01*
X0003233Y0007056D01*
X0003316Y0006884D01*
X0003402Y0006715D01*
X0003492Y0006547D01*
X0003587Y0006382D01*
X0003685Y0006219D01*
X0003788Y0006059D01*
X0003894Y0005901D01*
X0004004Y0005746D01*
X0004117Y0005593D01*
X0004235Y0005443D01*
X0004356Y0005297D01*
X0004480Y0005153D01*
X0004608Y0005012D01*
X0004739Y0004874D01*
X0004874Y0004739D01*
X0005012Y0004608D01*
X0005153Y0004480D01*
X0005297Y0004356D01*
X0005443Y0004235D01*
X0005593Y0004117D01*
X0005746Y0004004D01*
X0005901Y0003894D01*
X0006059Y0003788D01*
X0006219Y0003685D01*
X0006382Y0003587D01*
X0006547Y0003492D01*
X0006715Y0003402D01*
X0006884Y0003316D01*
X0007056Y0003233D01*
X0007229Y0003155D01*
X0007405Y0003081D01*
X0007582Y0003012D01*
X0007761Y0002946D01*
X0007941Y0002885D01*
X0008122Y0002829D01*
X0008305Y0002777D01*
X0008490Y0002729D01*
X0008675Y0002686D01*
X0008861Y0002647D01*
X0009048Y0002612D01*
X0009236Y0002583D01*
X0009425Y0002557D01*
X0009614Y0002537D01*
X0009804Y0002521D01*
X0009994Y0002509D01*
X0010184Y0002502D01*
X0010374Y0002500D01*
D11*
X0067623Y0010250D02*
X0067623Y0018757D01*
X0073295Y0018757D02*
X0067623Y0010250D01*
X0073295Y0010250D02*
X0073295Y0018757D01*
X0076831Y0015922D02*
X0076831Y0010250D01*
X0082503Y0010250D02*
X0082503Y0015922D01*
X0079667Y0018757D01*
X0076831Y0015922D01*
X0076831Y0014504D02*
X0082503Y0014504D01*
X0086039Y0018757D02*
X0088875Y0015922D01*
X0091711Y0018757D01*
X0091711Y0010250D01*
X0095247Y0010250D02*
X0095247Y0018757D01*
X0100919Y0018757D02*
X0100919Y0010250D01*
X0098083Y0013086D01*
X0095247Y0010250D01*
X0086039Y0010250D02*
X0086039Y0018757D01*
X0085711Y0026250D02*
X0080039Y0026250D01*
X0076503Y0029086D02*
X0073667Y0026250D01*
X0070831Y0029086D01*
X0070831Y0034757D01*
X0076503Y0034757D02*
X0076503Y0029086D01*
X0085711Y0026250D02*
X0085711Y0034757D01*
X0089247Y0030504D02*
X0090665Y0031922D01*
X0093501Y0031922D01*
X0094919Y0030504D01*
X0094919Y0027668D01*
X0093501Y0026250D01*
X0090665Y0026250D01*
X0089247Y0029086D02*
X0094919Y0029086D01*
X0098455Y0031922D02*
X0102709Y0031922D01*
X0104126Y0030504D01*
X0104126Y0027668D01*
X0102709Y0026250D01*
X0098455Y0026250D01*
X0098455Y0034757D01*
X0107663Y0030504D02*
X0109081Y0031922D01*
X0111916Y0031922D01*
X0113334Y0030504D01*
X0113334Y0027668D01*
X0111916Y0026250D01*
X0109081Y0026250D01*
X0107663Y0027668D01*
X0107663Y0030504D01*
X0116871Y0034757D02*
X0116871Y0026250D01*
X0122542Y0034757D01*
X0122542Y0026250D01*
X0126078Y0027668D02*
X0127496Y0026250D01*
X0131750Y0026250D01*
X0126078Y0027668D02*
X0126078Y0030504D01*
X0127496Y0031922D01*
X0131750Y0031922D01*
X0131750Y0023414D01*
X0132078Y0018757D02*
X0134914Y0018757D01*
X0133496Y0018757D02*
X0133496Y0011668D01*
X0134914Y0010250D01*
X0136332Y0010250D01*
X0137750Y0011668D01*
X0119334Y0011668D02*
X0117916Y0010250D01*
X0115081Y0010250D01*
X0113663Y0011668D01*
X0113663Y0013086D01*
X0115081Y0014504D01*
X0117916Y0014504D01*
X0119334Y0015922D01*
X0119334Y0017339D01*
X0117916Y0018757D01*
X0115081Y0018757D01*
X0113663Y0017339D01*
X0110126Y0017339D02*
X0110126Y0011668D01*
X0108709Y0010250D01*
X0105873Y0010250D01*
X0104455Y0011668D01*
X0104455Y0017339D01*
X0105873Y0018757D01*
X0108709Y0018757D01*
X0110126Y0017339D01*
X0089247Y0029086D02*
X0089247Y0030504D01*
D12*
X0040804Y0021287D02*
X0040104Y0021287D01*
X0038702Y0021287D02*
X0035199Y0021287D01*
X0034499Y0020586D01*
X0034499Y0019885D01*
X0036601Y0022955D02*
X0035900Y0023655D01*
X0035900Y0025057D01*
X0036601Y0025757D01*
X0038002Y0025757D01*
X0038702Y0025057D01*
X0038702Y0023655D01*
X0038002Y0022955D01*
X0036601Y0022955D01*
X0035900Y0027559D02*
X0038702Y0027559D01*
X0038702Y0029660D01*
X0038002Y0030361D01*
X0035900Y0030361D01*
X0035900Y0032163D02*
X0035900Y0034264D01*
X0036601Y0034965D01*
X0037301Y0034264D01*
X0037301Y0032863D01*
X0038002Y0032163D01*
X0038702Y0032863D01*
X0038702Y0034965D01*
X0038002Y0036767D02*
X0036601Y0036767D01*
X0035900Y0037467D01*
X0035900Y0038868D01*
X0036601Y0039569D01*
X0038002Y0039569D01*
X0038702Y0038868D01*
X0038702Y0037467D01*
X0038002Y0036767D01*
X0038702Y0041370D02*
X0036601Y0041370D01*
X0035900Y0042071D01*
X0036601Y0042772D01*
X0035900Y0043472D01*
X0036601Y0044173D01*
X0038702Y0044173D01*
X0038702Y0045974D02*
X0038702Y0046675D01*
X0038002Y0047376D01*
X0038702Y0048076D01*
X0038002Y0048777D01*
X0035900Y0048777D01*
X0035900Y0047376D02*
X0038002Y0047376D01*
X0038702Y0045974D02*
X0035900Y0045974D01*
X0036601Y0050578D02*
X0037301Y0051279D01*
X0037301Y0053381D01*
X0038002Y0053381D02*
X0035900Y0053381D01*
X0035900Y0051279D01*
X0036601Y0050578D01*
X0038702Y0051279D02*
X0038702Y0052680D01*
X0038002Y0053381D01*
X0038702Y0055182D02*
X0035900Y0055182D01*
X0038702Y0055182D02*
X0038702Y0057284D01*
X0038002Y0057985D01*
X0035900Y0057985D01*
X0035900Y0059786D02*
X0035900Y0060487D01*
X0036601Y0060487D01*
X0036601Y0059786D01*
X0035900Y0059786D01*
X0036601Y0062088D02*
X0035900Y0062789D01*
X0035900Y0064890D01*
X0036601Y0066692D02*
X0035900Y0067393D01*
X0035900Y0068794D01*
X0036601Y0069494D01*
X0038002Y0069494D01*
X0038702Y0068794D01*
X0038702Y0067393D01*
X0038002Y0066692D01*
X0036601Y0066692D01*
X0038702Y0064890D02*
X0038702Y0062789D01*
X0038002Y0062088D01*
X0036601Y0062088D01*
X0035900Y0071296D02*
X0038702Y0071296D01*
X0038702Y0071997D01*
X0038002Y0072697D01*
X0038702Y0073398D01*
X0038002Y0074098D01*
X0035900Y0074098D01*
X0035900Y0072697D02*
X0038002Y0072697D01*
M02*
