%
M48
M72
T01C0.0150
T02C0.0236
T03C0.0315
T04C0.0320
T05C0.0551
T06C0.1102
T07C0.1181
%
T01
X16550Y5979
X15800Y6929
X15150Y7279
X16150Y7779
X16150Y8529
X17050Y8529
X14150Y8279
X13150Y8079
X12150Y7879
X11150Y8179
X10450Y8179
X10150Y8579
X10550Y8779
X11050Y8979
X10550Y9779
X11450Y10379
X12550Y8979
X9750Y8879
X9050Y8379
X8650Y8679
X7850Y8679
X7950Y7879
X8450Y7779
X7950Y7179
X7950Y6479
X9050Y6279
X9750Y6279
X10450Y6579
X10450Y5979
X11350Y6279
X11450Y5429
X11450Y4579
X11450Y3779
X9550Y3579
X7850Y3879
X7450Y3479
X7450Y2879
X4950Y3479
X4950Y4179
X4950Y5679
X4950Y6679
X4050Y6879
X3050Y6579
X2150Y6579
X4050Y7479
X4950Y7479
X5100Y8179
X6250Y8579
X6250Y9079
X5850Y9779
X5100Y9479
X3550Y9579
X3250Y8879
X2150Y8579
X950Y8679
X550Y8679
X4350Y10779
X5350Y11279
X11050Y7279
X12150Y7379
X14150Y7179
X8650Y5579
X7850Y5079
X7550Y4579
X2150Y5579
X950Y5479
X550Y5479
T02
X12250Y10229
X12750Y10229
X13250Y10229
X13750Y10229
X14250Y10229
X14250Y10729
X13750Y10729
X13250Y10729
X12750Y10729
X12250Y10729
T03
X15444Y3879
X14656Y3879
T04
X8500Y10679
X6600Y10679
T05
X17850Y8081
T06
X18834Y6979
X16866Y6979
T07
X18360Y4154
X18360Y10059
X1825Y10059
X1825Y4154
M30
