G75*
%MOIN*%
%OFA0B0*%
%FSLAX25Y25*%
%IPPOS*%
%LPD*%
%AMOC8*
5,1,8,0,0,1.08239X$1,22.5*
%
%ADD10C,0.00000*%
%ADD11R,0.04337X0.01384*%
%ADD12R,0.04337X0.04140*%
%ADD13C,0.05600*%
%ADD14OC8,0.05550*%
%ADD15R,0.04140X0.04337*%
%ADD16R,0.03550X0.02172*%
%ADD17R,0.06306X0.09849*%
%ADD18R,0.02723X0.03235*%
%ADD19R,0.03235X0.02723*%
%ADD20R,0.01600X0.04300*%
%ADD21R,0.05912X0.04337*%
%ADD22OC8,0.04762*%
%ADD23C,0.15424*%
%ADD24R,0.08668X0.08668*%
%ADD25R,0.16400X0.06400*%
%ADD26C,0.23400*%
D10*
X0010374Y0025790D02*
X0191476Y0025790D01*
X0191666Y0025792D01*
X0191856Y0025799D01*
X0192046Y0025811D01*
X0192236Y0025827D01*
X0192425Y0025847D01*
X0192614Y0025873D01*
X0192802Y0025902D01*
X0192989Y0025937D01*
X0193175Y0025976D01*
X0193360Y0026019D01*
X0193545Y0026067D01*
X0193728Y0026119D01*
X0193909Y0026175D01*
X0194089Y0026236D01*
X0194268Y0026302D01*
X0194445Y0026371D01*
X0194621Y0026445D01*
X0194794Y0026523D01*
X0194966Y0026606D01*
X0195135Y0026692D01*
X0195303Y0026782D01*
X0195468Y0026877D01*
X0195631Y0026975D01*
X0195791Y0027078D01*
X0195949Y0027184D01*
X0196104Y0027294D01*
X0196257Y0027407D01*
X0196407Y0027525D01*
X0196553Y0027646D01*
X0196697Y0027770D01*
X0196838Y0027898D01*
X0196976Y0028029D01*
X0197111Y0028164D01*
X0197242Y0028302D01*
X0197370Y0028443D01*
X0197494Y0028587D01*
X0197615Y0028733D01*
X0197733Y0028883D01*
X0197846Y0029036D01*
X0197956Y0029191D01*
X0198062Y0029349D01*
X0198165Y0029509D01*
X0198263Y0029672D01*
X0198358Y0029837D01*
X0198448Y0030005D01*
X0198534Y0030174D01*
X0198617Y0030346D01*
X0198695Y0030519D01*
X0198769Y0030695D01*
X0198838Y0030872D01*
X0198904Y0031051D01*
X0198965Y0031231D01*
X0199021Y0031412D01*
X0199073Y0031595D01*
X0199121Y0031780D01*
X0199164Y0031965D01*
X0199203Y0032151D01*
X0199238Y0032338D01*
X0199267Y0032526D01*
X0199293Y0032715D01*
X0199313Y0032904D01*
X0199329Y0033094D01*
X0199341Y0033284D01*
X0199348Y0033474D01*
X0199350Y0033664D01*
X0199350Y0108467D01*
X0199348Y0108657D01*
X0199341Y0108847D01*
X0199329Y0109037D01*
X0199313Y0109227D01*
X0199293Y0109416D01*
X0199267Y0109605D01*
X0199238Y0109793D01*
X0199203Y0109980D01*
X0199164Y0110166D01*
X0199121Y0110351D01*
X0199073Y0110536D01*
X0199021Y0110719D01*
X0198965Y0110900D01*
X0198904Y0111080D01*
X0198838Y0111259D01*
X0198769Y0111436D01*
X0198695Y0111612D01*
X0198617Y0111785D01*
X0198534Y0111957D01*
X0198448Y0112126D01*
X0198358Y0112294D01*
X0198263Y0112459D01*
X0198165Y0112622D01*
X0198062Y0112782D01*
X0197956Y0112940D01*
X0197846Y0113095D01*
X0197733Y0113248D01*
X0197615Y0113398D01*
X0197494Y0113544D01*
X0197370Y0113688D01*
X0197242Y0113829D01*
X0197111Y0113967D01*
X0196976Y0114102D01*
X0196838Y0114233D01*
X0196697Y0114361D01*
X0196553Y0114485D01*
X0196407Y0114606D01*
X0196257Y0114724D01*
X0196104Y0114837D01*
X0195949Y0114947D01*
X0195791Y0115053D01*
X0195631Y0115156D01*
X0195468Y0115254D01*
X0195303Y0115349D01*
X0195135Y0115439D01*
X0194966Y0115525D01*
X0194794Y0115608D01*
X0194621Y0115686D01*
X0194445Y0115760D01*
X0194268Y0115829D01*
X0194089Y0115895D01*
X0193909Y0115956D01*
X0193728Y0116012D01*
X0193545Y0116064D01*
X0193360Y0116112D01*
X0193175Y0116155D01*
X0192989Y0116194D01*
X0192802Y0116229D01*
X0192614Y0116258D01*
X0192425Y0116284D01*
X0192236Y0116304D01*
X0192046Y0116320D01*
X0191856Y0116332D01*
X0191666Y0116339D01*
X0191476Y0116341D01*
X0010374Y0116341D01*
X0010184Y0116339D01*
X0009994Y0116332D01*
X0009804Y0116320D01*
X0009614Y0116304D01*
X0009425Y0116284D01*
X0009236Y0116258D01*
X0009048Y0116229D01*
X0008861Y0116194D01*
X0008675Y0116155D01*
X0008490Y0116112D01*
X0008305Y0116064D01*
X0008122Y0116012D01*
X0007941Y0115956D01*
X0007761Y0115895D01*
X0007582Y0115829D01*
X0007405Y0115760D01*
X0007229Y0115686D01*
X0007056Y0115608D01*
X0006884Y0115525D01*
X0006715Y0115439D01*
X0006547Y0115349D01*
X0006382Y0115254D01*
X0006219Y0115156D01*
X0006059Y0115053D01*
X0005901Y0114947D01*
X0005746Y0114837D01*
X0005593Y0114724D01*
X0005443Y0114606D01*
X0005297Y0114485D01*
X0005153Y0114361D01*
X0005012Y0114233D01*
X0004874Y0114102D01*
X0004739Y0113967D01*
X0004608Y0113829D01*
X0004480Y0113688D01*
X0004356Y0113544D01*
X0004235Y0113398D01*
X0004117Y0113248D01*
X0004004Y0113095D01*
X0003894Y0112940D01*
X0003788Y0112782D01*
X0003685Y0112622D01*
X0003587Y0112459D01*
X0003492Y0112294D01*
X0003402Y0112126D01*
X0003316Y0111957D01*
X0003233Y0111785D01*
X0003155Y0111612D01*
X0003081Y0111436D01*
X0003012Y0111259D01*
X0002946Y0111080D01*
X0002885Y0110900D01*
X0002829Y0110719D01*
X0002777Y0110536D01*
X0002729Y0110351D01*
X0002686Y0110166D01*
X0002647Y0109980D01*
X0002612Y0109793D01*
X0002583Y0109605D01*
X0002557Y0109416D01*
X0002537Y0109227D01*
X0002521Y0109037D01*
X0002509Y0108847D01*
X0002502Y0108657D01*
X0002500Y0108467D01*
X0002500Y0033664D01*
X0002502Y0033474D01*
X0002509Y0033284D01*
X0002521Y0033094D01*
X0002537Y0032904D01*
X0002557Y0032715D01*
X0002583Y0032526D01*
X0002612Y0032338D01*
X0002647Y0032151D01*
X0002686Y0031965D01*
X0002729Y0031780D01*
X0002777Y0031595D01*
X0002829Y0031412D01*
X0002885Y0031231D01*
X0002946Y0031051D01*
X0003012Y0030872D01*
X0003081Y0030695D01*
X0003155Y0030519D01*
X0003233Y0030346D01*
X0003316Y0030174D01*
X0003402Y0030005D01*
X0003492Y0029837D01*
X0003587Y0029672D01*
X0003685Y0029509D01*
X0003788Y0029349D01*
X0003894Y0029191D01*
X0004004Y0029036D01*
X0004117Y0028883D01*
X0004235Y0028733D01*
X0004356Y0028587D01*
X0004480Y0028443D01*
X0004608Y0028302D01*
X0004739Y0028164D01*
X0004874Y0028029D01*
X0005012Y0027898D01*
X0005153Y0027770D01*
X0005297Y0027646D01*
X0005443Y0027525D01*
X0005593Y0027407D01*
X0005746Y0027294D01*
X0005901Y0027184D01*
X0006059Y0027078D01*
X0006219Y0026975D01*
X0006382Y0026877D01*
X0006547Y0026782D01*
X0006715Y0026692D01*
X0006884Y0026606D01*
X0007056Y0026523D01*
X0007229Y0026445D01*
X0007405Y0026371D01*
X0007582Y0026302D01*
X0007761Y0026236D01*
X0007941Y0026175D01*
X0008122Y0026119D01*
X0008305Y0026067D01*
X0008490Y0026019D01*
X0008675Y0025976D01*
X0008861Y0025937D01*
X0009048Y0025902D01*
X0009236Y0025873D01*
X0009425Y0025847D01*
X0009614Y0025827D01*
X0009804Y0025811D01*
X0009994Y0025799D01*
X0010184Y0025792D01*
X0010374Y0025790D01*
D11*
X0054070Y0084152D03*
X0054070Y0086121D03*
X0054070Y0088089D03*
X0054070Y0090058D03*
X0054070Y0092026D03*
X0070709Y0092026D03*
X0070709Y0090058D03*
X0070709Y0088089D03*
X0070709Y0086121D03*
X0070709Y0084152D03*
D12*
X0070500Y0072940D03*
X0062500Y0072940D03*
X0054500Y0072940D03*
X0054500Y0066640D03*
X0062500Y0066640D03*
X0070500Y0066640D03*
X0070500Y0055940D03*
X0062500Y0055940D03*
X0054500Y0055940D03*
X0054500Y0049640D03*
X0062500Y0049640D03*
X0070500Y0049640D03*
X0083500Y0038940D03*
X0091500Y0038940D03*
X0091500Y0032640D03*
X0083500Y0032640D03*
X0105500Y0032640D03*
X0105500Y0038940D03*
X0120500Y0052640D03*
X0129500Y0052640D03*
X0138500Y0052640D03*
X0138500Y0058940D03*
X0129500Y0058940D03*
X0120500Y0058940D03*
X0116500Y0075640D03*
X0116500Y0081940D03*
X0126500Y0081940D03*
X0136500Y0081940D03*
X0136500Y0075640D03*
X0126500Y0075640D03*
X0146500Y0075640D03*
X0146500Y0081940D03*
X0156500Y0081940D03*
X0156500Y0075640D03*
X0049406Y0101940D03*
X0041390Y0102239D03*
X0041390Y0095940D03*
X0049406Y0108239D03*
X0034390Y0077139D03*
X0026390Y0077239D03*
X0026390Y0070940D03*
X0034390Y0070840D03*
D13*
X0066000Y0106790D03*
X0085000Y0106790D03*
D14*
X0146563Y0038790D03*
X0154437Y0038790D03*
D15*
X0041539Y0083089D03*
X0035240Y0083089D03*
D16*
X0055594Y0042727D03*
X0055594Y0038790D03*
X0055594Y0034853D03*
X0067406Y0034853D03*
X0067406Y0038790D03*
X0067406Y0042727D03*
D17*
X0061500Y0038790D03*
D18*
X0030280Y0083589D03*
X0026500Y0083589D03*
X0036500Y0088589D03*
X0040280Y0088589D03*
D19*
X0047500Y0086680D03*
X0047500Y0082900D03*
X0047500Y0090900D03*
X0047500Y0094680D03*
D20*
X0083984Y0072277D03*
X0086543Y0072277D03*
X0089102Y0072277D03*
X0091661Y0072277D03*
X0094220Y0072277D03*
X0096780Y0072277D03*
X0099339Y0072277D03*
X0101898Y0072277D03*
X0104457Y0072277D03*
X0107016Y0072277D03*
X0107016Y0049303D03*
X0104457Y0049303D03*
X0101898Y0049303D03*
X0099339Y0049303D03*
X0096780Y0049303D03*
X0094220Y0049303D03*
X0091661Y0049303D03*
X0089102Y0049303D03*
X0086543Y0049303D03*
X0083984Y0049303D03*
D21*
X0121169Y0039530D03*
X0129831Y0035790D03*
X0121169Y0032050D03*
D22*
X0122500Y0102290D03*
X0127500Y0102290D03*
X0132500Y0102290D03*
X0137500Y0102290D03*
X0142500Y0102290D03*
X0142500Y0107290D03*
X0137500Y0107290D03*
X0132500Y0107290D03*
X0127500Y0107290D03*
X0122500Y0107290D03*
D23*
X0168657Y0069790D03*
X0188343Y0069790D03*
D24*
X0178500Y0080814D03*
D25*
X0011500Y0080790D03*
X0011500Y0070790D03*
X0011500Y0060790D03*
D26*
X0018248Y0041538D03*
X0018248Y0100593D03*
X0183602Y0100593D03*
X0183602Y0041538D03*
M02*
