G75*
%MOIN*%
%OFA0B0*%
%FSLAX25Y25*%
%IPPOS*%
%LPD*%
%AMOC8*
5,1,8,0,0,1.08239X$1,22.5*
%
%ADD10C,0.00000*%
%ADD11R,0.03937X0.00984*%
%ADD12R,0.03937X0.03740*%
%ADD13C,0.05200*%
%ADD14OC8,0.05150*%
%ADD15R,0.03740X0.03937*%
%ADD16R,0.03150X0.01772*%
%ADD17R,0.05906X0.09449*%
%ADD18R,0.02323X0.02835*%
%ADD19R,0.02835X0.02323*%
%ADD20R,0.01200X0.03900*%
%ADD21R,0.05512X0.03937*%
%ADD22OC8,0.04362*%
%ADD23C,0.15024*%
%ADD24R,0.08268X0.08268*%
%ADD25R,0.16000X0.06000*%
%ADD26C,0.23000*%
%ADD27C,0.01600*%
%ADD28C,0.01000*%
%ADD29C,0.02700*%
%ADD30C,0.01200*%
D10*
X0010374Y0025790D02*
X0191476Y0025790D01*
X0191666Y0025792D01*
X0191856Y0025799D01*
X0192046Y0025811D01*
X0192236Y0025827D01*
X0192425Y0025847D01*
X0192614Y0025873D01*
X0192802Y0025902D01*
X0192989Y0025937D01*
X0193175Y0025976D01*
X0193360Y0026019D01*
X0193545Y0026067D01*
X0193728Y0026119D01*
X0193909Y0026175D01*
X0194089Y0026236D01*
X0194268Y0026302D01*
X0194445Y0026371D01*
X0194621Y0026445D01*
X0194794Y0026523D01*
X0194966Y0026606D01*
X0195135Y0026692D01*
X0195303Y0026782D01*
X0195468Y0026877D01*
X0195631Y0026975D01*
X0195791Y0027078D01*
X0195949Y0027184D01*
X0196104Y0027294D01*
X0196257Y0027407D01*
X0196407Y0027525D01*
X0196553Y0027646D01*
X0196697Y0027770D01*
X0196838Y0027898D01*
X0196976Y0028029D01*
X0197111Y0028164D01*
X0197242Y0028302D01*
X0197370Y0028443D01*
X0197494Y0028587D01*
X0197615Y0028733D01*
X0197733Y0028883D01*
X0197846Y0029036D01*
X0197956Y0029191D01*
X0198062Y0029349D01*
X0198165Y0029509D01*
X0198263Y0029672D01*
X0198358Y0029837D01*
X0198448Y0030005D01*
X0198534Y0030174D01*
X0198617Y0030346D01*
X0198695Y0030519D01*
X0198769Y0030695D01*
X0198838Y0030872D01*
X0198904Y0031051D01*
X0198965Y0031231D01*
X0199021Y0031412D01*
X0199073Y0031595D01*
X0199121Y0031780D01*
X0199164Y0031965D01*
X0199203Y0032151D01*
X0199238Y0032338D01*
X0199267Y0032526D01*
X0199293Y0032715D01*
X0199313Y0032904D01*
X0199329Y0033094D01*
X0199341Y0033284D01*
X0199348Y0033474D01*
X0199350Y0033664D01*
X0199350Y0108467D01*
X0199348Y0108657D01*
X0199341Y0108847D01*
X0199329Y0109037D01*
X0199313Y0109227D01*
X0199293Y0109416D01*
X0199267Y0109605D01*
X0199238Y0109793D01*
X0199203Y0109980D01*
X0199164Y0110166D01*
X0199121Y0110351D01*
X0199073Y0110536D01*
X0199021Y0110719D01*
X0198965Y0110900D01*
X0198904Y0111080D01*
X0198838Y0111259D01*
X0198769Y0111436D01*
X0198695Y0111612D01*
X0198617Y0111785D01*
X0198534Y0111957D01*
X0198448Y0112126D01*
X0198358Y0112294D01*
X0198263Y0112459D01*
X0198165Y0112622D01*
X0198062Y0112782D01*
X0197956Y0112940D01*
X0197846Y0113095D01*
X0197733Y0113248D01*
X0197615Y0113398D01*
X0197494Y0113544D01*
X0197370Y0113688D01*
X0197242Y0113829D01*
X0197111Y0113967D01*
X0196976Y0114102D01*
X0196838Y0114233D01*
X0196697Y0114361D01*
X0196553Y0114485D01*
X0196407Y0114606D01*
X0196257Y0114724D01*
X0196104Y0114837D01*
X0195949Y0114947D01*
X0195791Y0115053D01*
X0195631Y0115156D01*
X0195468Y0115254D01*
X0195303Y0115349D01*
X0195135Y0115439D01*
X0194966Y0115525D01*
X0194794Y0115608D01*
X0194621Y0115686D01*
X0194445Y0115760D01*
X0194268Y0115829D01*
X0194089Y0115895D01*
X0193909Y0115956D01*
X0193728Y0116012D01*
X0193545Y0116064D01*
X0193360Y0116112D01*
X0193175Y0116155D01*
X0192989Y0116194D01*
X0192802Y0116229D01*
X0192614Y0116258D01*
X0192425Y0116284D01*
X0192236Y0116304D01*
X0192046Y0116320D01*
X0191856Y0116332D01*
X0191666Y0116339D01*
X0191476Y0116341D01*
X0010374Y0116341D01*
X0010184Y0116339D01*
X0009994Y0116332D01*
X0009804Y0116320D01*
X0009614Y0116304D01*
X0009425Y0116284D01*
X0009236Y0116258D01*
X0009048Y0116229D01*
X0008861Y0116194D01*
X0008675Y0116155D01*
X0008490Y0116112D01*
X0008305Y0116064D01*
X0008122Y0116012D01*
X0007941Y0115956D01*
X0007761Y0115895D01*
X0007582Y0115829D01*
X0007405Y0115760D01*
X0007229Y0115686D01*
X0007056Y0115608D01*
X0006884Y0115525D01*
X0006715Y0115439D01*
X0006547Y0115349D01*
X0006382Y0115254D01*
X0006219Y0115156D01*
X0006059Y0115053D01*
X0005901Y0114947D01*
X0005746Y0114837D01*
X0005593Y0114724D01*
X0005443Y0114606D01*
X0005297Y0114485D01*
X0005153Y0114361D01*
X0005012Y0114233D01*
X0004874Y0114102D01*
X0004739Y0113967D01*
X0004608Y0113829D01*
X0004480Y0113688D01*
X0004356Y0113544D01*
X0004235Y0113398D01*
X0004117Y0113248D01*
X0004004Y0113095D01*
X0003894Y0112940D01*
X0003788Y0112782D01*
X0003685Y0112622D01*
X0003587Y0112459D01*
X0003492Y0112294D01*
X0003402Y0112126D01*
X0003316Y0111957D01*
X0003233Y0111785D01*
X0003155Y0111612D01*
X0003081Y0111436D01*
X0003012Y0111259D01*
X0002946Y0111080D01*
X0002885Y0110900D01*
X0002829Y0110719D01*
X0002777Y0110536D01*
X0002729Y0110351D01*
X0002686Y0110166D01*
X0002647Y0109980D01*
X0002612Y0109793D01*
X0002583Y0109605D01*
X0002557Y0109416D01*
X0002537Y0109227D01*
X0002521Y0109037D01*
X0002509Y0108847D01*
X0002502Y0108657D01*
X0002500Y0108467D01*
X0002500Y0033664D01*
X0002502Y0033474D01*
X0002509Y0033284D01*
X0002521Y0033094D01*
X0002537Y0032904D01*
X0002557Y0032715D01*
X0002583Y0032526D01*
X0002612Y0032338D01*
X0002647Y0032151D01*
X0002686Y0031965D01*
X0002729Y0031780D01*
X0002777Y0031595D01*
X0002829Y0031412D01*
X0002885Y0031231D01*
X0002946Y0031051D01*
X0003012Y0030872D01*
X0003081Y0030695D01*
X0003155Y0030519D01*
X0003233Y0030346D01*
X0003316Y0030174D01*
X0003402Y0030005D01*
X0003492Y0029837D01*
X0003587Y0029672D01*
X0003685Y0029509D01*
X0003788Y0029349D01*
X0003894Y0029191D01*
X0004004Y0029036D01*
X0004117Y0028883D01*
X0004235Y0028733D01*
X0004356Y0028587D01*
X0004480Y0028443D01*
X0004608Y0028302D01*
X0004739Y0028164D01*
X0004874Y0028029D01*
X0005012Y0027898D01*
X0005153Y0027770D01*
X0005297Y0027646D01*
X0005443Y0027525D01*
X0005593Y0027407D01*
X0005746Y0027294D01*
X0005901Y0027184D01*
X0006059Y0027078D01*
X0006219Y0026975D01*
X0006382Y0026877D01*
X0006547Y0026782D01*
X0006715Y0026692D01*
X0006884Y0026606D01*
X0007056Y0026523D01*
X0007229Y0026445D01*
X0007405Y0026371D01*
X0007582Y0026302D01*
X0007761Y0026236D01*
X0007941Y0026175D01*
X0008122Y0026119D01*
X0008305Y0026067D01*
X0008490Y0026019D01*
X0008675Y0025976D01*
X0008861Y0025937D01*
X0009048Y0025902D01*
X0009236Y0025873D01*
X0009425Y0025847D01*
X0009614Y0025827D01*
X0009804Y0025811D01*
X0009994Y0025799D01*
X0010184Y0025792D01*
X0010374Y0025790D01*
D11*
X0054070Y0084152D03*
X0054070Y0086121D03*
X0054070Y0088089D03*
X0054070Y0090058D03*
X0054070Y0092026D03*
X0070709Y0092026D03*
X0070709Y0090058D03*
X0070709Y0088089D03*
X0070709Y0086121D03*
X0070709Y0084152D03*
D12*
X0070500Y0072940D03*
X0062500Y0072940D03*
X0054500Y0072940D03*
X0054500Y0066640D03*
X0062500Y0066640D03*
X0070500Y0066640D03*
X0070500Y0055940D03*
X0062500Y0055940D03*
X0054500Y0055940D03*
X0054500Y0049640D03*
X0062500Y0049640D03*
X0070500Y0049640D03*
X0083500Y0038940D03*
X0091500Y0038940D03*
X0091500Y0032640D03*
X0083500Y0032640D03*
X0105500Y0032640D03*
X0105500Y0038940D03*
X0120500Y0052640D03*
X0129500Y0052640D03*
X0138500Y0052640D03*
X0138500Y0058940D03*
X0129500Y0058940D03*
X0120500Y0058940D03*
X0116500Y0075640D03*
X0116500Y0081940D03*
X0126500Y0081940D03*
X0136500Y0081940D03*
X0136500Y0075640D03*
X0126500Y0075640D03*
X0146500Y0075640D03*
X0146500Y0081940D03*
X0156500Y0081940D03*
X0156500Y0075640D03*
X0049406Y0101940D03*
X0041390Y0102239D03*
X0041390Y0095940D03*
X0049406Y0108239D03*
X0034390Y0077139D03*
X0026390Y0077239D03*
X0026390Y0070940D03*
X0034390Y0070840D03*
D13*
X0066000Y0106790D03*
X0085000Y0106790D03*
D14*
X0146563Y0038790D03*
X0154437Y0038790D03*
D15*
X0041539Y0083089D03*
X0035240Y0083089D03*
D16*
X0055594Y0042727D03*
X0055594Y0038790D03*
X0055594Y0034853D03*
X0067406Y0034853D03*
X0067406Y0038790D03*
X0067406Y0042727D03*
D17*
X0061500Y0038790D03*
D18*
X0030280Y0083589D03*
X0026500Y0083589D03*
X0036500Y0088589D03*
X0040280Y0088589D03*
D19*
X0047500Y0086680D03*
X0047500Y0082900D03*
X0047500Y0090900D03*
X0047500Y0094680D03*
D20*
X0083984Y0072277D03*
X0086543Y0072277D03*
X0089102Y0072277D03*
X0091661Y0072277D03*
X0094220Y0072277D03*
X0096780Y0072277D03*
X0099339Y0072277D03*
X0101898Y0072277D03*
X0104457Y0072277D03*
X0107016Y0072277D03*
X0107016Y0049303D03*
X0104457Y0049303D03*
X0101898Y0049303D03*
X0099339Y0049303D03*
X0096780Y0049303D03*
X0094220Y0049303D03*
X0091661Y0049303D03*
X0089102Y0049303D03*
X0086543Y0049303D03*
X0083984Y0049303D03*
D21*
X0121169Y0039530D03*
X0129831Y0035790D03*
X0121169Y0032050D03*
D22*
X0122500Y0102290D03*
X0127500Y0102290D03*
X0132500Y0102290D03*
X0137500Y0102290D03*
X0142500Y0102290D03*
X0142500Y0107290D03*
X0137500Y0107290D03*
X0132500Y0107290D03*
X0127500Y0107290D03*
X0122500Y0107290D03*
D23*
X0168657Y0069790D03*
X0188343Y0069790D03*
D24*
X0178500Y0080814D03*
D25*
X0011500Y0080790D03*
X0011500Y0070790D03*
X0011500Y0060790D03*
D26*
X0018248Y0041538D03*
X0018248Y0100593D03*
X0183602Y0100593D03*
X0183602Y0041538D03*
D27*
X0154500Y0043790D02*
X0154500Y0038853D01*
X0154437Y0038790D01*
X0154500Y0043790D02*
X0145650Y0052640D01*
X0138500Y0052640D01*
X0129831Y0052640D02*
X0129831Y0035790D01*
X0130500Y0036459D01*
X0132500Y0036459D01*
X0144232Y0036459D01*
X0146563Y0038790D01*
X0130500Y0036459D02*
X0129831Y0035790D01*
X0130500Y0035121D01*
X0130500Y0029790D01*
X0128500Y0027790D01*
X0096500Y0027790D01*
X0091650Y0032640D01*
X0091500Y0032640D01*
X0099500Y0034790D02*
X0101500Y0032790D01*
X0105350Y0032790D01*
X0105500Y0032640D01*
X0106091Y0032050D01*
X0121169Y0032050D01*
X0099500Y0034790D02*
X0099500Y0039790D01*
X0094220Y0045069D01*
X0085780Y0045069D01*
X0083500Y0042790D01*
X0083500Y0038940D01*
X0078650Y0043790D01*
X0073650Y0038790D01*
X0070500Y0038790D01*
X0070500Y0031790D01*
X0069500Y0030790D01*
X0047500Y0030790D01*
X0045500Y0032790D01*
X0045500Y0059790D01*
X0048500Y0062790D01*
X0066350Y0062790D01*
X0062500Y0066640D01*
X0054500Y0066640D01*
X0061350Y0072940D02*
X0056000Y0078290D01*
X0049000Y0078290D01*
X0047500Y0079790D01*
X0047500Y0082900D01*
X0049890Y0082900D01*
X0051000Y0081790D01*
X0054070Y0084152D02*
X0060433Y0077790D01*
X0072500Y0077790D01*
X0074500Y0075790D01*
X0074500Y0064790D01*
X0072500Y0062790D01*
X0066350Y0062790D01*
X0062500Y0072940D02*
X0061350Y0072940D01*
X0062500Y0072940D02*
X0070500Y0072940D01*
X0094220Y0072277D02*
X0094220Y0062790D01*
X0097500Y0062790D01*
X0094220Y0049303D02*
X0094220Y0045069D01*
X0078650Y0043790D02*
X0078650Y0046640D01*
X0075500Y0049790D01*
X0070650Y0049790D01*
X0070500Y0049640D02*
X0062500Y0049640D01*
X0054500Y0049640D01*
X0067406Y0038790D02*
X0070500Y0038790D01*
X0120500Y0058940D02*
X0129500Y0058940D01*
X0138500Y0058940D01*
X0129831Y0052640D02*
X0129500Y0052640D01*
X0165807Y0072640D02*
X0168657Y0069790D01*
X0122500Y0102290D02*
X0122000Y0102290D01*
X0116500Y0107790D01*
X0109500Y0107790D01*
X0101500Y0099790D01*
X0101500Y0091790D01*
X0105500Y0087790D01*
X0066000Y0106790D02*
X0061150Y0101940D01*
X0049406Y0101940D01*
X0054070Y0097275D01*
X0054070Y0092026D01*
X0051000Y0094790D02*
X0050890Y0094680D01*
X0047500Y0094680D01*
X0047500Y0090900D02*
X0048390Y0090900D01*
X0041390Y0090790D02*
X0041390Y0089699D01*
X0040280Y0088589D01*
X0036500Y0088589D02*
X0035240Y0087329D01*
X0035240Y0083089D01*
X0034390Y0082239D01*
X0034390Y0077139D01*
X0026500Y0077349D02*
X0026390Y0077239D01*
X0023949Y0077239D01*
X0017500Y0070790D01*
X0011500Y0070790D01*
X0026500Y0077349D02*
X0026500Y0083589D01*
X0030280Y0083589D02*
X0034740Y0083589D01*
X0035240Y0083089D01*
X0041539Y0083089D02*
X0045130Y0086680D01*
X0047500Y0086680D01*
X0041390Y0090790D02*
X0041390Y0095940D01*
X0041390Y0102239D02*
X0047390Y0108239D01*
X0049406Y0108239D01*
D28*
X0049841Y0108666D02*
X0062339Y0108666D01*
X0062524Y0109112D02*
X0061900Y0107605D01*
X0061900Y0105974D01*
X0061909Y0105952D01*
X0060197Y0104240D01*
X0052874Y0104240D01*
X0052874Y0104431D01*
X0052195Y0105110D01*
X0052295Y0105168D01*
X0052574Y0105448D01*
X0052772Y0105790D01*
X0052874Y0106171D01*
X0052874Y0107804D01*
X0049841Y0107804D01*
X0049841Y0108674D01*
X0052874Y0108674D01*
X0052874Y0110306D01*
X0052772Y0110688D01*
X0052574Y0111030D01*
X0052295Y0111309D01*
X0051953Y0111507D01*
X0051571Y0111609D01*
X0049841Y0111609D01*
X0049841Y0108674D01*
X0048970Y0108674D01*
X0048970Y0107804D01*
X0045937Y0107804D01*
X0045937Y0106171D01*
X0046039Y0105790D01*
X0046237Y0105448D01*
X0046516Y0105168D01*
X0046616Y0105110D01*
X0045937Y0104431D01*
X0045937Y0099448D01*
X0046816Y0098569D01*
X0049523Y0098569D01*
X0050452Y0097640D01*
X0050433Y0097640D01*
X0049589Y0097290D01*
X0049539Y0097341D01*
X0045461Y0097341D01*
X0044858Y0096738D01*
X0044858Y0098431D01*
X0044179Y0099110D01*
X0044279Y0099168D01*
X0044559Y0099448D01*
X0044756Y0099790D01*
X0044858Y0100171D01*
X0044858Y0101804D01*
X0041825Y0101804D01*
X0041825Y0102674D01*
X0040955Y0102674D01*
X0040955Y0105609D01*
X0039224Y0105609D01*
X0038842Y0105507D01*
X0038500Y0105309D01*
X0038221Y0105030D01*
X0038023Y0104688D01*
X0037921Y0104306D01*
X0037921Y0102674D01*
X0040955Y0102674D01*
X0040955Y0101804D01*
X0037921Y0101804D01*
X0037921Y0100171D01*
X0038023Y0099790D01*
X0038221Y0099448D01*
X0038500Y0099168D01*
X0038601Y0099110D01*
X0037921Y0098431D01*
X0037921Y0093448D01*
X0038800Y0092569D01*
X0039090Y0092569D01*
X0039090Y0091506D01*
X0038497Y0091506D01*
X0038390Y0091399D01*
X0038283Y0091506D01*
X0034717Y0091506D01*
X0033839Y0090628D01*
X0033839Y0089180D01*
X0032940Y0088282D01*
X0032940Y0086558D01*
X0032749Y0086558D01*
X0032380Y0086189D01*
X0032062Y0086506D01*
X0028497Y0086506D01*
X0028390Y0086399D01*
X0028283Y0086506D01*
X0024717Y0086506D01*
X0023839Y0085628D01*
X0023839Y0081550D01*
X0024200Y0081189D01*
X0024200Y0080609D01*
X0023800Y0080609D01*
X0022921Y0079730D01*
X0022921Y0079464D01*
X0021649Y0078191D01*
X0020982Y0077524D01*
X0021000Y0077592D01*
X0021000Y0080290D01*
X0012000Y0080290D01*
X0012000Y0081290D01*
X0011000Y0081290D01*
X0011000Y0085290D01*
X0004000Y0085290D01*
X0004000Y0108467D01*
X0004078Y0109464D01*
X0004695Y0111361D01*
X0005867Y0112974D01*
X0007480Y0114146D01*
X0009377Y0114763D01*
X0010374Y0114841D01*
X0191476Y0114841D01*
X0192473Y0114763D01*
X0194370Y0114146D01*
X0195983Y0112974D01*
X0197156Y0111361D01*
X0197772Y0109464D01*
X0197850Y0108467D01*
X0197850Y0033664D01*
X0197772Y0032667D01*
X0197156Y0030770D01*
X0195983Y0029157D01*
X0194370Y0027985D01*
X0192473Y0027368D01*
X0191476Y0027290D01*
X0131253Y0027290D01*
X0131453Y0027490D01*
X0132800Y0028837D01*
X0132800Y0032321D01*
X0133208Y0032321D01*
X0134087Y0033200D01*
X0134087Y0034159D01*
X0145185Y0034159D01*
X0145741Y0034715D01*
X0148251Y0034715D01*
X0150500Y0036964D01*
X0152749Y0034715D01*
X0154150Y0034715D01*
X0154150Y0038502D01*
X0154724Y0038502D01*
X0154724Y0034715D01*
X0156125Y0034715D01*
X0158512Y0037102D01*
X0158512Y0038502D01*
X0154724Y0038502D01*
X0154724Y0039077D01*
X0154150Y0039077D01*
X0154150Y0042865D01*
X0152749Y0042865D01*
X0150500Y0040616D01*
X0148251Y0042865D01*
X0144875Y0042865D01*
X0142488Y0040478D01*
X0142488Y0038759D01*
X0133707Y0038759D01*
X0133208Y0039258D01*
X0132131Y0039258D01*
X0132131Y0049311D01*
X0132968Y0050149D01*
X0132968Y0055132D01*
X0132310Y0055790D01*
X0132968Y0056448D01*
X0132968Y0056640D01*
X0135031Y0056640D01*
X0135031Y0056448D01*
X0135711Y0055769D01*
X0135610Y0055711D01*
X0135331Y0055431D01*
X0135134Y0055089D01*
X0135031Y0054708D01*
X0135031Y0053075D01*
X0138065Y0053075D01*
X0138065Y0052205D01*
X0138935Y0052205D01*
X0138935Y0049270D01*
X0140666Y0049270D01*
X0141047Y0049372D01*
X0141390Y0049570D01*
X0141669Y0049849D01*
X0141866Y0050191D01*
X0141968Y0050573D01*
X0141968Y0052205D01*
X0138935Y0052205D01*
X0138935Y0053075D01*
X0141968Y0053075D01*
X0141968Y0054708D01*
X0141866Y0055089D01*
X0141669Y0055431D01*
X0141390Y0055711D01*
X0141289Y0055769D01*
X0141968Y0056448D01*
X0141968Y0061431D01*
X0141090Y0062310D01*
X0135910Y0062310D01*
X0135031Y0061431D01*
X0135031Y0061240D01*
X0132968Y0061240D01*
X0132968Y0061431D01*
X0132090Y0062310D01*
X0126910Y0062310D01*
X0126031Y0061431D01*
X0126031Y0061240D01*
X0123968Y0061240D01*
X0123968Y0061431D01*
X0123090Y0062310D01*
X0117910Y0062310D01*
X0117031Y0061431D01*
X0117031Y0061040D01*
X0112780Y0061040D01*
X0111600Y0059860D01*
X0111600Y0064920D01*
X0114370Y0067690D01*
X0131370Y0067690D01*
X0132600Y0068920D01*
X0135950Y0072270D01*
X0139090Y0072270D01*
X0139968Y0073149D01*
X0139968Y0073540D01*
X0143031Y0073540D01*
X0143031Y0073149D01*
X0143910Y0072270D01*
X0149090Y0072270D01*
X0149968Y0073149D01*
X0149968Y0076352D01*
X0152780Y0073540D01*
X0153031Y0073540D01*
X0153031Y0073149D01*
X0153910Y0072270D01*
X0156900Y0072270D01*
X0158630Y0070540D01*
X0159646Y0070540D01*
X0159646Y0067997D01*
X0161018Y0064685D01*
X0163553Y0062150D01*
X0166865Y0060778D01*
X0170450Y0060778D01*
X0173762Y0062150D01*
X0176297Y0064685D01*
X0177669Y0067997D01*
X0177669Y0071582D01*
X0176297Y0074895D01*
X0176012Y0075180D01*
X0180988Y0075180D01*
X0180703Y0074895D01*
X0179331Y0071582D01*
X0179331Y0067997D01*
X0180703Y0064685D01*
X0183238Y0062150D01*
X0186550Y0060778D01*
X0190135Y0060778D01*
X0193447Y0062150D01*
X0195982Y0064685D01*
X0197354Y0067997D01*
X0197354Y0071582D01*
X0195982Y0074895D01*
X0193447Y0077430D01*
X0190135Y0078802D01*
X0186550Y0078802D01*
X0184380Y0077903D01*
X0184134Y0078150D01*
X0184134Y0085569D01*
X0183255Y0086447D01*
X0173745Y0086447D01*
X0172866Y0085569D01*
X0172866Y0083914D01*
X0159968Y0083914D01*
X0159968Y0084431D01*
X0159090Y0085310D01*
X0156100Y0085310D01*
X0152519Y0088890D01*
X0147570Y0088890D01*
X0148600Y0089920D01*
X0148600Y0106660D01*
X0147370Y0107890D01*
X0145870Y0109390D01*
X0145606Y0109390D01*
X0144025Y0110971D01*
X0140975Y0110971D01*
X0140000Y0109996D01*
X0139025Y0110971D01*
X0135975Y0110971D01*
X0135000Y0109996D01*
X0134025Y0110971D01*
X0130975Y0110971D01*
X0130000Y0109996D01*
X0129600Y0110396D01*
X0129600Y0110660D01*
X0128370Y0111890D01*
X0126370Y0113890D01*
X0106630Y0113890D01*
X0105400Y0112660D01*
X0095400Y0102660D01*
X0095400Y0090720D01*
X0095084Y0090404D01*
X0094650Y0089357D01*
X0094650Y0088223D01*
X0095084Y0087176D01*
X0093370Y0088890D01*
X0088430Y0088890D01*
X0088114Y0089206D01*
X0087067Y0089640D01*
X0085933Y0089640D01*
X0084886Y0089206D01*
X0084084Y0088404D01*
X0084017Y0088243D01*
X0080102Y0092158D01*
X0074178Y0092158D01*
X0074178Y0093140D01*
X0073299Y0094018D01*
X0071687Y0094018D01*
X0071579Y0094126D01*
X0066866Y0094126D01*
X0065630Y0092890D01*
X0064400Y0091660D01*
X0064400Y0081920D01*
X0065400Y0080920D01*
X0066230Y0080090D01*
X0061385Y0080090D01*
X0057539Y0083936D01*
X0057539Y0089203D01*
X0057504Y0089238D01*
X0057539Y0089368D01*
X0057539Y0090058D01*
X0057539Y0090747D01*
X0057504Y0090878D01*
X0057539Y0090913D01*
X0057539Y0093140D01*
X0056660Y0094018D01*
X0056370Y0094018D01*
X0056370Y0098227D01*
X0054958Y0099640D01*
X0062102Y0099640D01*
X0063450Y0100987D01*
X0065162Y0102699D01*
X0065184Y0102690D01*
X0066816Y0102690D01*
X0068322Y0103314D01*
X0069476Y0104467D01*
X0070100Y0105974D01*
X0070100Y0107605D01*
X0069476Y0109112D01*
X0068322Y0110266D01*
X0066816Y0110890D01*
X0065184Y0110890D01*
X0063678Y0110266D01*
X0062524Y0109112D01*
X0063077Y0109665D02*
X0052874Y0109665D01*
X0052778Y0110663D02*
X0064638Y0110663D01*
X0067362Y0110663D02*
X0083653Y0110663D01*
X0083426Y0110590D02*
X0082851Y0110297D01*
X0082329Y0109917D01*
X0081873Y0109461D01*
X0081493Y0108939D01*
X0081200Y0108364D01*
X0081001Y0107750D01*
X0080900Y0107113D01*
X0080900Y0107090D01*
X0084700Y0107090D01*
X0084700Y0110890D01*
X0084677Y0110890D01*
X0084040Y0110789D01*
X0083426Y0110590D01*
X0084700Y0110663D02*
X0085300Y0110663D01*
X0085300Y0110890D02*
X0085323Y0110890D01*
X0085960Y0110789D01*
X0086574Y0110590D01*
X0087149Y0110297D01*
X0087671Y0109917D01*
X0088127Y0109461D01*
X0088507Y0108939D01*
X0088800Y0108364D01*
X0088999Y0107750D01*
X0089100Y0107113D01*
X0089100Y0107090D01*
X0085300Y0107090D01*
X0084700Y0107090D01*
X0084700Y0106490D01*
X0080900Y0106490D01*
X0080900Y0106467D01*
X0081001Y0105830D01*
X0081200Y0105216D01*
X0081493Y0104641D01*
X0081873Y0104119D01*
X0082329Y0103663D01*
X0082851Y0103283D01*
X0083426Y0102990D01*
X0084040Y0102791D01*
X0084677Y0102690D01*
X0084700Y0102690D01*
X0084700Y0106490D01*
X0085300Y0106490D01*
X0085300Y0107090D01*
X0085300Y0110890D01*
X0086347Y0110663D02*
X0103404Y0110663D01*
X0102405Y0109665D02*
X0087923Y0109665D01*
X0088645Y0108666D02*
X0101407Y0108666D01*
X0100408Y0107668D02*
X0089012Y0107668D01*
X0089100Y0106490D02*
X0085300Y0106490D01*
X0085300Y0102690D01*
X0085323Y0102690D01*
X0085960Y0102791D01*
X0086574Y0102990D01*
X0087149Y0103283D01*
X0087671Y0103663D01*
X0088127Y0104119D01*
X0088507Y0104641D01*
X0088800Y0105216D01*
X0088999Y0105830D01*
X0089100Y0106467D01*
X0089100Y0106490D01*
X0088947Y0105671D02*
X0098411Y0105671D01*
X0099410Y0106669D02*
X0085300Y0106669D01*
X0084700Y0106669D02*
X0070100Y0106669D01*
X0070074Y0107668D02*
X0080988Y0107668D01*
X0081355Y0108666D02*
X0069661Y0108666D01*
X0068923Y0109665D02*
X0082077Y0109665D01*
X0084700Y0109665D02*
X0085300Y0109665D01*
X0085300Y0108666D02*
X0084700Y0108666D01*
X0084700Y0107668D02*
X0085300Y0107668D01*
X0085300Y0105671D02*
X0084700Y0105671D01*
X0084700Y0104672D02*
X0085300Y0104672D01*
X0085300Y0103674D02*
X0084700Y0103674D01*
X0082318Y0103674D02*
X0068682Y0103674D01*
X0069561Y0104672D02*
X0081477Y0104672D01*
X0081053Y0105671D02*
X0069974Y0105671D01*
X0065138Y0102675D02*
X0095416Y0102675D01*
X0095400Y0101677D02*
X0064140Y0101677D01*
X0063450Y0100987D02*
X0063450Y0100987D01*
X0063141Y0100678D02*
X0095400Y0100678D01*
X0095400Y0099680D02*
X0062143Y0099680D01*
X0056370Y0097683D02*
X0095400Y0097683D01*
X0095400Y0098681D02*
X0055916Y0098681D01*
X0056370Y0096684D02*
X0095400Y0096684D01*
X0095400Y0095686D02*
X0056370Y0095686D01*
X0056370Y0094687D02*
X0095400Y0094687D01*
X0095400Y0093689D02*
X0073628Y0093689D01*
X0074178Y0092690D02*
X0095400Y0092690D01*
X0095400Y0091692D02*
X0080568Y0091692D01*
X0081567Y0090693D02*
X0095373Y0090693D01*
X0094790Y0089695D02*
X0082565Y0089695D01*
X0083564Y0088696D02*
X0084376Y0088696D01*
X0087953Y0084307D02*
X0088114Y0084374D01*
X0088430Y0084690D01*
X0091630Y0084690D01*
X0099798Y0076522D01*
X0099798Y0075727D01*
X0098117Y0075727D01*
X0097994Y0075604D01*
X0097959Y0075625D01*
X0097577Y0075727D01*
X0096780Y0075727D01*
X0096780Y0072277D01*
X0096780Y0068827D01*
X0097577Y0068827D01*
X0097959Y0068930D01*
X0097994Y0068950D01*
X0098117Y0068827D01*
X0100560Y0068827D01*
X0100618Y0068886D01*
X0100676Y0068827D01*
X0103119Y0068827D01*
X0103177Y0068886D01*
X0103235Y0068827D01*
X0105678Y0068827D01*
X0105736Y0068886D01*
X0105794Y0068827D01*
X0108237Y0068827D01*
X0109116Y0069706D01*
X0109116Y0074690D01*
X0113031Y0074690D01*
X0113031Y0073149D01*
X0113910Y0072270D01*
X0119090Y0072270D01*
X0119968Y0073149D01*
X0119968Y0078132D01*
X0119310Y0078790D01*
X0119968Y0079448D01*
X0119968Y0079840D01*
X0123031Y0079840D01*
X0123031Y0079448D01*
X0123711Y0078769D01*
X0123610Y0078711D01*
X0123331Y0078431D01*
X0123134Y0078089D01*
X0123031Y0077708D01*
X0123031Y0076075D01*
X0126065Y0076075D01*
X0126065Y0075205D01*
X0126935Y0075205D01*
X0126935Y0072270D01*
X0128666Y0072270D01*
X0129047Y0072372D01*
X0129390Y0072570D01*
X0129669Y0072849D01*
X0129866Y0073191D01*
X0129968Y0073573D01*
X0129968Y0075205D01*
X0126935Y0075205D01*
X0126935Y0076075D01*
X0129968Y0076075D01*
X0129968Y0077708D01*
X0129866Y0078089D01*
X0129669Y0078431D01*
X0129390Y0078711D01*
X0129289Y0078769D01*
X0129968Y0079448D01*
X0129968Y0081289D01*
X0133031Y0084352D01*
X0133031Y0079448D01*
X0133690Y0078790D01*
X0133031Y0078132D01*
X0133031Y0075291D01*
X0129630Y0071890D01*
X0112630Y0071890D01*
X0108630Y0067890D01*
X0107400Y0066660D01*
X0107400Y0058660D01*
X0105630Y0056890D01*
X0097630Y0056890D01*
X0096400Y0055660D01*
X0096320Y0055580D01*
X0096320Y0060194D01*
X0096933Y0059940D01*
X0098067Y0059940D01*
X0099114Y0060374D01*
X0099916Y0061176D01*
X0100350Y0062223D01*
X0100350Y0063357D01*
X0099916Y0064404D01*
X0099114Y0065206D01*
X0098067Y0065640D01*
X0096933Y0065640D01*
X0096520Y0065469D01*
X0096520Y0068827D01*
X0096779Y0068827D01*
X0096779Y0072277D01*
X0096780Y0072277D01*
X0096779Y0072277D01*
X0096779Y0075727D01*
X0095982Y0075727D01*
X0095601Y0075625D01*
X0095565Y0075604D01*
X0095442Y0075727D01*
X0093600Y0075727D01*
X0093600Y0078660D01*
X0092370Y0079890D01*
X0087953Y0084307D01*
X0088556Y0083704D02*
X0092616Y0083704D01*
X0093615Y0082705D02*
X0089555Y0082705D01*
X0090553Y0081707D02*
X0094614Y0081707D01*
X0095612Y0080708D02*
X0091552Y0080708D01*
X0092550Y0079710D02*
X0096611Y0079710D01*
X0097609Y0078711D02*
X0093549Y0078711D01*
X0093600Y0077713D02*
X0098608Y0077713D01*
X0099606Y0076714D02*
X0093600Y0076714D01*
X0095454Y0075715D02*
X0095938Y0075715D01*
X0096779Y0075715D02*
X0096780Y0075715D01*
X0097621Y0075715D02*
X0098105Y0075715D01*
X0096780Y0074717D02*
X0096779Y0074717D01*
X0096779Y0073718D02*
X0096780Y0073718D01*
X0096779Y0072720D02*
X0096780Y0072720D01*
X0096779Y0071721D02*
X0096780Y0071721D01*
X0096779Y0070723D02*
X0096780Y0070723D01*
X0096779Y0069724D02*
X0096780Y0069724D01*
X0096520Y0068726D02*
X0109466Y0068726D01*
X0109116Y0069724D02*
X0110465Y0069724D01*
X0111463Y0070723D02*
X0109116Y0070723D01*
X0109116Y0071721D02*
X0112462Y0071721D01*
X0113460Y0072720D02*
X0109116Y0072720D01*
X0109116Y0073718D02*
X0113031Y0073718D01*
X0115350Y0076790D02*
X0116500Y0075640D01*
X0119968Y0075715D02*
X0126065Y0075715D01*
X0126065Y0075205D02*
X0123031Y0075205D01*
X0123031Y0073573D01*
X0123134Y0073191D01*
X0123331Y0072849D01*
X0123610Y0072570D01*
X0123953Y0072372D01*
X0124334Y0072270D01*
X0126065Y0072270D01*
X0126065Y0075205D01*
X0126065Y0074717D02*
X0126935Y0074717D01*
X0126935Y0075715D02*
X0133031Y0075715D01*
X0133031Y0076714D02*
X0129968Y0076714D01*
X0129967Y0077713D02*
X0133031Y0077713D01*
X0133611Y0078711D02*
X0129389Y0078711D01*
X0129968Y0079710D02*
X0133031Y0079710D01*
X0133031Y0080708D02*
X0129968Y0080708D01*
X0130386Y0081707D02*
X0133031Y0081707D01*
X0133031Y0082705D02*
X0131385Y0082705D01*
X0132383Y0083704D02*
X0133031Y0083704D01*
X0127650Y0081940D02*
X0126500Y0081940D01*
X0123031Y0079710D02*
X0119968Y0079710D01*
X0119389Y0078711D02*
X0123611Y0078711D01*
X0123033Y0077713D02*
X0119968Y0077713D01*
X0119968Y0076714D02*
X0123031Y0076714D01*
X0123031Y0074717D02*
X0119968Y0074717D01*
X0119968Y0073718D02*
X0123031Y0073718D01*
X0123460Y0072720D02*
X0119540Y0072720D01*
X0126065Y0072720D02*
X0126935Y0072720D01*
X0126935Y0073718D02*
X0126065Y0073718D01*
X0129540Y0072720D02*
X0130460Y0072720D01*
X0129968Y0073718D02*
X0131459Y0073718D01*
X0132457Y0074717D02*
X0129968Y0074717D01*
X0134403Y0070723D02*
X0158448Y0070723D01*
X0157449Y0071721D02*
X0135401Y0071721D01*
X0133404Y0069724D02*
X0159646Y0069724D01*
X0159646Y0068726D02*
X0132406Y0068726D01*
X0131407Y0067727D02*
X0159757Y0067727D01*
X0160171Y0066729D02*
X0113409Y0066729D01*
X0112410Y0065730D02*
X0160585Y0065730D01*
X0160998Y0064732D02*
X0111600Y0064732D01*
X0111600Y0063733D02*
X0161969Y0063733D01*
X0162968Y0062735D02*
X0111600Y0062735D01*
X0111600Y0061736D02*
X0117337Y0061736D01*
X0112478Y0060738D02*
X0111600Y0060738D01*
X0107400Y0060738D02*
X0099478Y0060738D01*
X0100148Y0061736D02*
X0107400Y0061736D01*
X0107400Y0062735D02*
X0100350Y0062735D01*
X0100194Y0063733D02*
X0107400Y0063733D01*
X0107400Y0064732D02*
X0099589Y0064732D01*
X0096520Y0065730D02*
X0107400Y0065730D01*
X0107469Y0066729D02*
X0096520Y0066729D01*
X0096520Y0067727D02*
X0108468Y0067727D01*
X0107400Y0059739D02*
X0096320Y0059739D01*
X0096320Y0058741D02*
X0107400Y0058741D01*
X0106483Y0057742D02*
X0096320Y0057742D01*
X0096320Y0056744D02*
X0097484Y0056744D01*
X0096485Y0055745D02*
X0096320Y0055745D01*
X0089400Y0055745D02*
X0082425Y0055745D01*
X0081427Y0054747D02*
X0089400Y0054747D01*
X0089400Y0053748D02*
X0080600Y0053748D01*
X0080600Y0053920D02*
X0088017Y0061337D01*
X0088084Y0061176D01*
X0088886Y0060374D01*
X0089400Y0060161D01*
X0089400Y0052753D01*
X0087881Y0052753D01*
X0087823Y0052694D01*
X0087765Y0052753D01*
X0085322Y0052753D01*
X0085199Y0052630D01*
X0085163Y0052650D01*
X0084782Y0052753D01*
X0083984Y0052753D01*
X0083187Y0052753D01*
X0082805Y0052650D01*
X0082463Y0052453D01*
X0082184Y0052174D01*
X0081986Y0051831D01*
X0081884Y0051450D01*
X0081884Y0049303D01*
X0083984Y0049303D01*
X0083984Y0052753D01*
X0083984Y0049303D01*
X0083984Y0049303D01*
X0083984Y0049302D01*
X0081884Y0049302D01*
X0081884Y0047155D01*
X0081986Y0046774D01*
X0082184Y0046431D01*
X0082463Y0046152D01*
X0082805Y0045955D01*
X0083187Y0045853D01*
X0083310Y0045853D01*
X0082547Y0045090D01*
X0081575Y0044117D01*
X0080950Y0044743D01*
X0080950Y0047593D01*
X0080142Y0048401D01*
X0080916Y0049176D01*
X0081350Y0050223D01*
X0081350Y0051357D01*
X0080916Y0052404D01*
X0080600Y0052720D01*
X0080600Y0053920D01*
X0080600Y0052750D02*
X0083176Y0052750D01*
X0083984Y0052750D02*
X0083984Y0052750D01*
X0084792Y0052750D02*
X0085319Y0052750D01*
X0083984Y0051751D02*
X0083984Y0051751D01*
X0083984Y0050753D02*
X0083984Y0050753D01*
X0083984Y0049754D02*
X0083984Y0049754D01*
X0081884Y0049754D02*
X0081156Y0049754D01*
X0081350Y0050753D02*
X0081884Y0050753D01*
X0081965Y0051751D02*
X0081187Y0051751D01*
X0080496Y0048756D02*
X0081884Y0048756D01*
X0081884Y0047757D02*
X0080785Y0047757D01*
X0080950Y0046759D02*
X0081995Y0046759D01*
X0080950Y0045760D02*
X0083218Y0045760D01*
X0082219Y0044762D02*
X0080950Y0044762D01*
X0086181Y0042218D02*
X0086968Y0041431D01*
X0086968Y0036448D01*
X0086289Y0035769D01*
X0086390Y0035711D01*
X0086669Y0035431D01*
X0086866Y0035089D01*
X0086968Y0034708D01*
X0086968Y0033075D01*
X0083935Y0033075D01*
X0083935Y0032205D01*
X0083935Y0029270D01*
X0085666Y0029270D01*
X0086047Y0029372D01*
X0086390Y0029570D01*
X0086669Y0029849D01*
X0086866Y0030191D01*
X0086968Y0030573D01*
X0086968Y0032205D01*
X0083935Y0032205D01*
X0083065Y0032205D01*
X0083065Y0029270D01*
X0081334Y0029270D01*
X0080953Y0029372D01*
X0080610Y0029570D01*
X0080331Y0029849D01*
X0080134Y0030191D01*
X0080031Y0030573D01*
X0080031Y0032205D01*
X0083065Y0032205D01*
X0083065Y0033075D01*
X0080031Y0033075D01*
X0080031Y0034708D01*
X0080134Y0035089D01*
X0080331Y0035431D01*
X0080610Y0035711D01*
X0080711Y0035769D01*
X0080031Y0036448D01*
X0080031Y0039155D01*
X0078650Y0040537D01*
X0074602Y0036490D01*
X0072800Y0036490D01*
X0072800Y0030837D01*
X0071453Y0029490D01*
X0071453Y0029490D01*
X0070453Y0028490D01*
X0046547Y0028490D01*
X0043200Y0031837D01*
X0043200Y0060743D01*
X0044547Y0062090D01*
X0047547Y0065090D01*
X0051031Y0065090D01*
X0051031Y0069132D01*
X0051711Y0069811D01*
X0051610Y0069869D01*
X0051331Y0070148D01*
X0051134Y0070490D01*
X0051031Y0070872D01*
X0051031Y0072504D01*
X0054065Y0072504D01*
X0054065Y0073375D01*
X0051031Y0073375D01*
X0051031Y0075007D01*
X0051134Y0075389D01*
X0051331Y0075731D01*
X0051591Y0075990D01*
X0048047Y0075990D01*
X0046547Y0077490D01*
X0045200Y0078837D01*
X0045200Y0080500D01*
X0044909Y0080791D01*
X0044909Y0080499D01*
X0044031Y0079621D01*
X0039048Y0079621D01*
X0038390Y0080279D01*
X0037800Y0079689D01*
X0037858Y0079630D01*
X0037858Y0074647D01*
X0037179Y0073968D01*
X0037279Y0073910D01*
X0037559Y0073631D01*
X0037756Y0073289D01*
X0037858Y0072907D01*
X0037858Y0071275D01*
X0034825Y0071275D01*
X0034825Y0070404D01*
X0034825Y0067469D01*
X0036556Y0067469D01*
X0036937Y0067572D01*
X0037279Y0067769D01*
X0037559Y0068048D01*
X0037756Y0068390D01*
X0037858Y0068772D01*
X0037858Y0070404D01*
X0034825Y0070404D01*
X0033955Y0070404D01*
X0033955Y0067469D01*
X0032224Y0067469D01*
X0031842Y0067572D01*
X0031500Y0067769D01*
X0031221Y0068048D01*
X0031023Y0068390D01*
X0030921Y0068772D01*
X0030921Y0070404D01*
X0033955Y0070404D01*
X0033955Y0071275D01*
X0030921Y0071275D01*
X0030921Y0072907D01*
X0031023Y0073289D01*
X0031221Y0073631D01*
X0031500Y0073910D01*
X0031601Y0073968D01*
X0030921Y0074647D01*
X0030921Y0079630D01*
X0031800Y0080509D01*
X0031870Y0080509D01*
X0031870Y0080672D01*
X0028800Y0080672D01*
X0028800Y0080609D01*
X0028980Y0080609D01*
X0029858Y0079730D01*
X0029858Y0074747D01*
X0029179Y0074068D01*
X0029279Y0074010D01*
X0029559Y0073731D01*
X0029756Y0073389D01*
X0029858Y0073007D01*
X0029858Y0071375D01*
X0026825Y0071375D01*
X0026825Y0070504D01*
X0026825Y0067569D01*
X0028556Y0067569D01*
X0028937Y0067672D01*
X0029279Y0067869D01*
X0029559Y0068148D01*
X0029756Y0068490D01*
X0029858Y0068872D01*
X0029858Y0070504D01*
X0026825Y0070504D01*
X0025955Y0070504D01*
X0025955Y0067569D01*
X0024224Y0067569D01*
X0023842Y0067672D01*
X0023500Y0067869D01*
X0023221Y0068148D01*
X0023023Y0068490D01*
X0022921Y0068872D01*
X0022921Y0070504D01*
X0025955Y0070504D01*
X0025955Y0071375D01*
X0022921Y0071375D01*
X0022921Y0072959D01*
X0021000Y0071037D01*
X0021000Y0067169D01*
X0020121Y0066290D01*
X0004000Y0066290D01*
X0004000Y0065290D01*
X0011000Y0065290D01*
X0011000Y0061290D01*
X0012000Y0061290D01*
X0012000Y0065290D01*
X0019697Y0065290D01*
X0020079Y0065188D01*
X0020421Y0064990D01*
X0020700Y0064711D01*
X0020898Y0064369D01*
X0021000Y0063987D01*
X0021000Y0061290D01*
X0012000Y0061290D01*
X0012000Y0060290D01*
X0021000Y0060290D01*
X0021000Y0057592D01*
X0020898Y0057211D01*
X0020700Y0056869D01*
X0020421Y0056590D01*
X0020079Y0056392D01*
X0019697Y0056290D01*
X0012000Y0056290D01*
X0012000Y0060290D01*
X0011000Y0060290D01*
X0011000Y0056290D01*
X0004000Y0056290D01*
X0004000Y0033664D01*
X0004078Y0032667D01*
X0004695Y0030770D01*
X0005867Y0029157D01*
X0007480Y0027985D01*
X0009377Y0027368D01*
X0010374Y0027290D01*
X0093747Y0027290D01*
X0091767Y0029270D01*
X0088910Y0029270D01*
X0088031Y0030149D01*
X0088031Y0035132D01*
X0088711Y0035811D01*
X0088610Y0035869D01*
X0088331Y0036148D01*
X0088134Y0036490D01*
X0088031Y0036872D01*
X0088031Y0038504D01*
X0091065Y0038504D01*
X0091065Y0039375D01*
X0091065Y0042310D01*
X0089334Y0042310D01*
X0088953Y0042207D01*
X0088610Y0042010D01*
X0088331Y0041731D01*
X0088134Y0041389D01*
X0088031Y0041007D01*
X0088031Y0039375D01*
X0091065Y0039375D01*
X0091935Y0039375D01*
X0091935Y0042310D01*
X0093666Y0042310D01*
X0093750Y0042287D01*
X0093268Y0042769D01*
X0086732Y0042769D01*
X0086181Y0042218D01*
X0086633Y0041766D02*
X0088367Y0041766D01*
X0088031Y0040768D02*
X0086968Y0040768D01*
X0086968Y0039769D02*
X0088031Y0039769D01*
X0086968Y0038771D02*
X0091065Y0038771D01*
X0091935Y0038771D02*
X0097200Y0038771D01*
X0097200Y0038837D02*
X0097200Y0033837D01*
X0099200Y0031837D01*
X0100547Y0030490D01*
X0102031Y0030490D01*
X0102031Y0030149D01*
X0102091Y0030090D01*
X0097453Y0030090D01*
X0094968Y0032574D01*
X0094968Y0035132D01*
X0094289Y0035811D01*
X0094390Y0035869D01*
X0094669Y0036148D01*
X0094866Y0036490D01*
X0094968Y0036872D01*
X0094968Y0038504D01*
X0091935Y0038504D01*
X0091935Y0039375D01*
X0094968Y0039375D01*
X0094968Y0041007D01*
X0094946Y0041091D01*
X0097200Y0038837D01*
X0097200Y0037772D02*
X0094968Y0037772D01*
X0094942Y0036774D02*
X0097200Y0036774D01*
X0097200Y0035775D02*
X0094325Y0035775D01*
X0094968Y0034777D02*
X0097200Y0034777D01*
X0097259Y0033778D02*
X0094968Y0033778D01*
X0094968Y0032780D02*
X0098258Y0032780D01*
X0099256Y0031781D02*
X0095762Y0031781D01*
X0096760Y0030782D02*
X0100255Y0030782D01*
X0093250Y0027787D02*
X0008089Y0027787D01*
X0006378Y0028785D02*
X0015613Y0028785D01*
X0016537Y0028538D02*
X0019960Y0028538D01*
X0023266Y0029424D01*
X0026230Y0031135D01*
X0028651Y0033556D01*
X0030362Y0036520D01*
X0031248Y0039826D01*
X0031248Y0043249D01*
X0030362Y0046556D01*
X0028651Y0049520D01*
X0026230Y0051941D01*
X0023266Y0053652D01*
X0019960Y0054538D01*
X0016537Y0054538D01*
X0013230Y0053652D01*
X0010266Y0051941D01*
X0007845Y0049520D01*
X0006134Y0046556D01*
X0005248Y0043249D01*
X0005248Y0039826D01*
X0006134Y0036520D01*
X0007845Y0033556D01*
X0010266Y0031135D01*
X0013230Y0029424D01*
X0016537Y0028538D01*
X0012607Y0029784D02*
X0005411Y0029784D01*
X0004691Y0030782D02*
X0010877Y0030782D01*
X0009620Y0031781D02*
X0004366Y0031781D01*
X0004070Y0032780D02*
X0008622Y0032780D01*
X0007717Y0033778D02*
X0004000Y0033778D01*
X0004000Y0034777D02*
X0007141Y0034777D01*
X0006564Y0035775D02*
X0004000Y0035775D01*
X0004000Y0036774D02*
X0006066Y0036774D01*
X0005798Y0037772D02*
X0004000Y0037772D01*
X0004000Y0038771D02*
X0005531Y0038771D01*
X0005263Y0039769D02*
X0004000Y0039769D01*
X0004000Y0040768D02*
X0005248Y0040768D01*
X0005248Y0041766D02*
X0004000Y0041766D01*
X0004000Y0042765D02*
X0005248Y0042765D01*
X0005386Y0043763D02*
X0004000Y0043763D01*
X0004000Y0044762D02*
X0005653Y0044762D01*
X0005921Y0045760D02*
X0004000Y0045760D01*
X0004000Y0046759D02*
X0006251Y0046759D01*
X0006828Y0047757D02*
X0004000Y0047757D01*
X0004000Y0048756D02*
X0007404Y0048756D01*
X0008079Y0049754D02*
X0004000Y0049754D01*
X0004000Y0050753D02*
X0009078Y0050753D01*
X0010077Y0051751D02*
X0004000Y0051751D01*
X0004000Y0052750D02*
X0011667Y0052750D01*
X0013589Y0053748D02*
X0004000Y0053748D01*
X0004000Y0054747D02*
X0043200Y0054747D01*
X0043200Y0055745D02*
X0004000Y0055745D01*
X0011000Y0056744D02*
X0012000Y0056744D01*
X0012000Y0057742D02*
X0011000Y0057742D01*
X0011000Y0058741D02*
X0012000Y0058741D01*
X0012000Y0059739D02*
X0011000Y0059739D01*
X0012000Y0060738D02*
X0043200Y0060738D01*
X0043200Y0059739D02*
X0021000Y0059739D01*
X0021000Y0058741D02*
X0043200Y0058741D01*
X0043200Y0057742D02*
X0021000Y0057742D01*
X0020575Y0056744D02*
X0043200Y0056744D01*
X0043200Y0053748D02*
X0022907Y0053748D01*
X0024829Y0052750D02*
X0043200Y0052750D01*
X0043200Y0051751D02*
X0026420Y0051751D01*
X0027418Y0050753D02*
X0043200Y0050753D01*
X0043200Y0049754D02*
X0028417Y0049754D01*
X0029092Y0048756D02*
X0043200Y0048756D01*
X0043200Y0047757D02*
X0029668Y0047757D01*
X0030245Y0046759D02*
X0043200Y0046759D01*
X0043200Y0045760D02*
X0030575Y0045760D01*
X0030843Y0044762D02*
X0043200Y0044762D01*
X0043200Y0043763D02*
X0031110Y0043763D01*
X0031248Y0042765D02*
X0043200Y0042765D01*
X0043200Y0041766D02*
X0031248Y0041766D01*
X0031248Y0040768D02*
X0043200Y0040768D01*
X0043200Y0039769D02*
X0031233Y0039769D01*
X0030965Y0038771D02*
X0043200Y0038771D01*
X0043200Y0037772D02*
X0030698Y0037772D01*
X0030430Y0036774D02*
X0043200Y0036774D01*
X0043200Y0035775D02*
X0029932Y0035775D01*
X0029355Y0034777D02*
X0043200Y0034777D01*
X0043200Y0033778D02*
X0028779Y0033778D01*
X0027874Y0032780D02*
X0043200Y0032780D01*
X0043256Y0031781D02*
X0026876Y0031781D01*
X0025619Y0030782D02*
X0044255Y0030782D01*
X0045253Y0029784D02*
X0023890Y0029784D01*
X0020883Y0028785D02*
X0046252Y0028785D01*
X0048453Y0033090D02*
X0047800Y0033743D01*
X0047800Y0058837D01*
X0049453Y0060490D01*
X0064230Y0060490D01*
X0063050Y0059310D01*
X0059910Y0059310D01*
X0059031Y0058431D01*
X0059031Y0057291D01*
X0057245Y0055504D01*
X0054935Y0055504D01*
X0054935Y0056375D01*
X0054065Y0056375D01*
X0054065Y0059310D01*
X0052334Y0059310D01*
X0051953Y0059207D01*
X0051610Y0059010D01*
X0051331Y0058731D01*
X0051134Y0058389D01*
X0051031Y0058007D01*
X0051031Y0056375D01*
X0054065Y0056375D01*
X0054065Y0055504D01*
X0051031Y0055504D01*
X0051031Y0054791D01*
X0050130Y0053890D01*
X0048900Y0052660D01*
X0048900Y0044420D01*
X0051400Y0041920D01*
X0052693Y0040627D01*
X0052850Y0040627D01*
X0052819Y0040597D01*
X0052622Y0040255D01*
X0052520Y0039873D01*
X0052520Y0038790D01*
X0055594Y0038790D01*
X0055594Y0038790D01*
X0052520Y0038790D01*
X0052520Y0037707D01*
X0052622Y0037325D01*
X0052819Y0036983D01*
X0052981Y0036821D01*
X0052520Y0036360D01*
X0052520Y0033346D01*
X0052776Y0033090D01*
X0048453Y0033090D01*
X0047800Y0033778D02*
X0052520Y0033778D01*
X0052520Y0034777D02*
X0047800Y0034777D01*
X0047800Y0035775D02*
X0052520Y0035775D01*
X0052933Y0036774D02*
X0047800Y0036774D01*
X0047800Y0037772D02*
X0052520Y0037772D01*
X0052520Y0038771D02*
X0047800Y0038771D01*
X0047800Y0039769D02*
X0052520Y0039769D01*
X0052552Y0040768D02*
X0047800Y0040768D01*
X0047800Y0041766D02*
X0051554Y0041766D01*
X0051400Y0041920D02*
X0051400Y0041920D01*
X0050555Y0042765D02*
X0047800Y0042765D01*
X0047800Y0043763D02*
X0049557Y0043763D01*
X0048900Y0044762D02*
X0047800Y0044762D01*
X0047800Y0045760D02*
X0048900Y0045760D01*
X0048900Y0046759D02*
X0047800Y0046759D01*
X0047800Y0047757D02*
X0048900Y0047757D01*
X0048900Y0048756D02*
X0047800Y0048756D01*
X0047800Y0049754D02*
X0048900Y0049754D01*
X0048900Y0050753D02*
X0047800Y0050753D01*
X0047800Y0051751D02*
X0048900Y0051751D01*
X0048990Y0052750D02*
X0047800Y0052750D01*
X0047800Y0053748D02*
X0049988Y0053748D01*
X0050987Y0054747D02*
X0047800Y0054747D01*
X0047800Y0055745D02*
X0054065Y0055745D01*
X0054935Y0055745D02*
X0057485Y0055745D01*
X0057968Y0056375D02*
X0054935Y0056375D01*
X0054935Y0059310D01*
X0056666Y0059310D01*
X0057047Y0059207D01*
X0057390Y0059010D01*
X0057669Y0058731D01*
X0057866Y0058389D01*
X0057968Y0058007D01*
X0057968Y0056375D01*
X0057968Y0056744D02*
X0058484Y0056744D01*
X0057968Y0057742D02*
X0059031Y0057742D01*
X0059341Y0058741D02*
X0057659Y0058741D01*
X0054935Y0058741D02*
X0054065Y0058741D01*
X0054065Y0057742D02*
X0054935Y0057742D01*
X0054935Y0056744D02*
X0054065Y0056744D01*
X0051031Y0056744D02*
X0047800Y0056744D01*
X0047800Y0057742D02*
X0051031Y0057742D01*
X0051341Y0058741D02*
X0047800Y0058741D01*
X0048702Y0059739D02*
X0063480Y0059739D01*
X0067031Y0065361D02*
X0065968Y0066424D01*
X0065968Y0069132D01*
X0065310Y0069790D01*
X0065968Y0070448D01*
X0065968Y0070640D01*
X0067031Y0070640D01*
X0067031Y0070448D01*
X0067711Y0069769D01*
X0067610Y0069711D01*
X0067331Y0069431D01*
X0067134Y0069089D01*
X0067031Y0068708D01*
X0067031Y0067075D01*
X0070065Y0067075D01*
X0070065Y0066205D01*
X0067031Y0066205D01*
X0067031Y0065361D01*
X0067031Y0065730D02*
X0066663Y0065730D01*
X0065968Y0066729D02*
X0070065Y0066729D01*
X0070500Y0066640D02*
X0067350Y0069790D01*
X0060000Y0069790D01*
X0056850Y0072940D01*
X0054500Y0072940D01*
X0054935Y0072720D02*
X0058317Y0072720D01*
X0057968Y0072504D02*
X0054935Y0072504D01*
X0054935Y0073375D01*
X0057663Y0073375D01*
X0059031Y0072006D01*
X0059031Y0070448D01*
X0059690Y0069790D01*
X0059031Y0069132D01*
X0059031Y0068940D01*
X0057968Y0068940D01*
X0057968Y0069132D01*
X0057289Y0069811D01*
X0057390Y0069869D01*
X0057669Y0070148D01*
X0057866Y0070490D01*
X0057968Y0070872D01*
X0057968Y0072504D01*
X0057968Y0071721D02*
X0059031Y0071721D01*
X0059031Y0070723D02*
X0057929Y0070723D01*
X0057376Y0069724D02*
X0059624Y0069724D01*
X0054065Y0072720D02*
X0037858Y0072720D01*
X0037858Y0071721D02*
X0051031Y0071721D01*
X0051071Y0070723D02*
X0034825Y0070723D01*
X0034390Y0070840D02*
X0026490Y0070840D01*
X0026390Y0070940D01*
X0026825Y0070723D02*
X0033955Y0070723D01*
X0033955Y0069724D02*
X0034825Y0069724D01*
X0034825Y0068726D02*
X0033955Y0068726D01*
X0033955Y0067727D02*
X0034825Y0067727D01*
X0037207Y0067727D02*
X0051031Y0067727D01*
X0051031Y0066729D02*
X0020560Y0066729D01*
X0021000Y0067727D02*
X0023746Y0067727D01*
X0022960Y0068726D02*
X0021000Y0068726D01*
X0021000Y0069724D02*
X0022921Y0069724D01*
X0021000Y0070723D02*
X0025955Y0070723D01*
X0025955Y0069724D02*
X0026825Y0069724D01*
X0026825Y0068726D02*
X0025955Y0068726D01*
X0025955Y0067727D02*
X0026825Y0067727D01*
X0029034Y0067727D02*
X0031573Y0067727D01*
X0030934Y0068726D02*
X0029819Y0068726D01*
X0029858Y0069724D02*
X0030921Y0069724D01*
X0030921Y0071721D02*
X0029858Y0071721D01*
X0029858Y0072720D02*
X0030921Y0072720D01*
X0031309Y0073718D02*
X0029566Y0073718D01*
X0029828Y0074717D02*
X0030921Y0074717D01*
X0030921Y0075715D02*
X0029858Y0075715D01*
X0029858Y0076714D02*
X0030921Y0076714D01*
X0030921Y0077713D02*
X0029858Y0077713D01*
X0029858Y0078711D02*
X0030921Y0078711D01*
X0031001Y0079710D02*
X0029858Y0079710D01*
X0024200Y0080708D02*
X0012000Y0080708D01*
X0012000Y0080290D02*
X0012000Y0076290D01*
X0019697Y0076290D01*
X0019766Y0076308D01*
X0018747Y0075290D01*
X0004000Y0075290D01*
X0004000Y0076290D01*
X0011000Y0076290D01*
X0011000Y0080290D01*
X0012000Y0080290D01*
X0012000Y0079710D02*
X0011000Y0079710D01*
X0011000Y0078711D02*
X0012000Y0078711D01*
X0012000Y0077713D02*
X0011000Y0077713D01*
X0011000Y0076714D02*
X0012000Y0076714D01*
X0019173Y0075715D02*
X0004000Y0075715D01*
X0011000Y0081707D02*
X0012000Y0081707D01*
X0012000Y0081290D02*
X0012000Y0085290D01*
X0019697Y0085290D01*
X0020079Y0085188D01*
X0020421Y0084990D01*
X0020700Y0084711D01*
X0020898Y0084369D01*
X0021000Y0083987D01*
X0021000Y0081290D01*
X0012000Y0081290D01*
X0012000Y0082705D02*
X0011000Y0082705D01*
X0011000Y0083704D02*
X0012000Y0083704D01*
X0012000Y0084702D02*
X0011000Y0084702D01*
X0013230Y0088479D02*
X0016537Y0087593D01*
X0019960Y0087593D01*
X0023266Y0088479D01*
X0026230Y0090190D01*
X0028651Y0092611D01*
X0030362Y0095575D01*
X0031248Y0098882D01*
X0031248Y0102305D01*
X0030362Y0105611D01*
X0028651Y0108575D01*
X0026230Y0110996D01*
X0023266Y0112707D01*
X0019960Y0113593D01*
X0016537Y0113593D01*
X0013230Y0112707D01*
X0010266Y0110996D01*
X0007845Y0108575D01*
X0006134Y0105611D01*
X0005248Y0102305D01*
X0005248Y0098882D01*
X0006134Y0095575D01*
X0007845Y0092611D01*
X0010266Y0090190D01*
X0013230Y0088479D01*
X0012854Y0088696D02*
X0004000Y0088696D01*
X0004000Y0087698D02*
X0016146Y0087698D01*
X0020350Y0087698D02*
X0032940Y0087698D01*
X0032940Y0086699D02*
X0004000Y0086699D01*
X0004000Y0085701D02*
X0023911Y0085701D01*
X0023839Y0084702D02*
X0020705Y0084702D01*
X0021000Y0083704D02*
X0023839Y0083704D01*
X0023839Y0082705D02*
X0021000Y0082705D01*
X0021000Y0081707D02*
X0023839Y0081707D01*
X0022921Y0079710D02*
X0021000Y0079710D01*
X0021000Y0078711D02*
X0022168Y0078711D01*
X0021170Y0077713D02*
X0021000Y0077713D01*
X0022683Y0072720D02*
X0022921Y0072720D01*
X0022921Y0071721D02*
X0021684Y0071721D01*
X0020679Y0064732D02*
X0047189Y0064732D01*
X0046191Y0063733D02*
X0021000Y0063733D01*
X0021000Y0062735D02*
X0045192Y0062735D01*
X0044194Y0061736D02*
X0021000Y0061736D01*
X0012000Y0061736D02*
X0011000Y0061736D01*
X0011000Y0062735D02*
X0012000Y0062735D01*
X0012000Y0063733D02*
X0011000Y0063733D01*
X0011000Y0064732D02*
X0012000Y0064732D01*
X0004000Y0065730D02*
X0051031Y0065730D01*
X0051031Y0068726D02*
X0037846Y0068726D01*
X0037858Y0069724D02*
X0051624Y0069724D01*
X0051031Y0073718D02*
X0037471Y0073718D01*
X0037858Y0074717D02*
X0051031Y0074717D01*
X0051322Y0075715D02*
X0037858Y0075715D01*
X0037858Y0076714D02*
X0047323Y0076714D01*
X0046325Y0077713D02*
X0037858Y0077713D01*
X0037858Y0078711D02*
X0045326Y0078711D01*
X0045200Y0079710D02*
X0044120Y0079710D01*
X0044909Y0080708D02*
X0044992Y0080708D01*
X0038959Y0079710D02*
X0037820Y0079710D01*
X0047500Y0086680D02*
X0048059Y0086121D01*
X0053138Y0084152D02*
X0054070Y0084152D01*
X0057539Y0084702D02*
X0064400Y0084702D01*
X0064400Y0083704D02*
X0057772Y0083704D01*
X0058770Y0082705D02*
X0064400Y0082705D01*
X0064614Y0081707D02*
X0059769Y0081707D01*
X0060767Y0080708D02*
X0065612Y0080708D01*
X0064400Y0085701D02*
X0057539Y0085701D01*
X0057539Y0086699D02*
X0064400Y0086699D01*
X0064400Y0087698D02*
X0057539Y0087698D01*
X0057539Y0088696D02*
X0064400Y0088696D01*
X0064400Y0089695D02*
X0057539Y0089695D01*
X0057539Y0090058D02*
X0056684Y0090058D01*
X0057539Y0090058D01*
X0057539Y0090693D02*
X0064400Y0090693D01*
X0064432Y0091692D02*
X0057539Y0091692D01*
X0057539Y0092690D02*
X0065430Y0092690D01*
X0066429Y0093689D02*
X0056990Y0093689D01*
X0056684Y0090058D02*
X0056684Y0090058D01*
X0056684Y0090058D01*
X0054070Y0090058D02*
X0061768Y0090058D01*
X0062500Y0090790D01*
X0050410Y0097683D02*
X0044858Y0097683D01*
X0044608Y0098681D02*
X0046704Y0098681D01*
X0045937Y0099680D02*
X0044693Y0099680D01*
X0044858Y0100678D02*
X0045937Y0100678D01*
X0045937Y0101677D02*
X0044858Y0101677D01*
X0044858Y0102674D02*
X0044858Y0104306D01*
X0044756Y0104688D01*
X0044559Y0105030D01*
X0044279Y0105309D01*
X0043937Y0105507D01*
X0043556Y0105609D01*
X0041825Y0105609D01*
X0041825Y0102674D01*
X0044858Y0102674D01*
X0044858Y0102675D02*
X0045937Y0102675D01*
X0045937Y0103674D02*
X0044858Y0103674D01*
X0044760Y0104672D02*
X0046178Y0104672D01*
X0046108Y0105671D02*
X0030327Y0105671D01*
X0030614Y0104672D02*
X0038019Y0104672D01*
X0037921Y0103674D02*
X0030881Y0103674D01*
X0031149Y0102675D02*
X0037921Y0102675D01*
X0037921Y0101677D02*
X0031248Y0101677D01*
X0031248Y0100678D02*
X0037921Y0100678D01*
X0038087Y0099680D02*
X0031248Y0099680D01*
X0031194Y0098681D02*
X0038172Y0098681D01*
X0037921Y0097683D02*
X0030927Y0097683D01*
X0030659Y0096684D02*
X0037921Y0096684D01*
X0037921Y0095686D02*
X0030392Y0095686D01*
X0029849Y0094687D02*
X0037921Y0094687D01*
X0037921Y0093689D02*
X0029273Y0093689D01*
X0028696Y0092690D02*
X0038679Y0092690D01*
X0039090Y0091692D02*
X0027731Y0091692D01*
X0026733Y0090693D02*
X0033904Y0090693D01*
X0033839Y0089695D02*
X0025371Y0089695D01*
X0023642Y0088696D02*
X0033354Y0088696D01*
X0011125Y0089695D02*
X0004000Y0089695D01*
X0004000Y0090693D02*
X0009763Y0090693D01*
X0008765Y0091692D02*
X0004000Y0091692D01*
X0004000Y0092690D02*
X0007800Y0092690D01*
X0007223Y0093689D02*
X0004000Y0093689D01*
X0004000Y0094687D02*
X0006647Y0094687D01*
X0006104Y0095686D02*
X0004000Y0095686D01*
X0004000Y0096684D02*
X0005837Y0096684D01*
X0005569Y0097683D02*
X0004000Y0097683D01*
X0004000Y0098681D02*
X0005302Y0098681D01*
X0005248Y0099680D02*
X0004000Y0099680D01*
X0004000Y0100678D02*
X0005248Y0100678D01*
X0005248Y0101677D02*
X0004000Y0101677D01*
X0004000Y0102675D02*
X0005347Y0102675D01*
X0005615Y0103674D02*
X0004000Y0103674D01*
X0004000Y0104672D02*
X0005882Y0104672D01*
X0006169Y0105671D02*
X0004000Y0105671D01*
X0004000Y0106669D02*
X0006745Y0106669D01*
X0007322Y0107668D02*
X0004000Y0107668D01*
X0004016Y0108666D02*
X0007937Y0108666D01*
X0008935Y0109665D02*
X0004144Y0109665D01*
X0004468Y0110663D02*
X0009934Y0110663D01*
X0011420Y0111662D02*
X0004913Y0111662D01*
X0005639Y0112660D02*
X0013149Y0112660D01*
X0009053Y0114657D02*
X0192797Y0114657D01*
X0195041Y0113659D02*
X0126601Y0113659D01*
X0127599Y0112660D02*
X0178504Y0112660D01*
X0178585Y0112707D02*
X0175620Y0110996D01*
X0173200Y0108575D01*
X0171488Y0105611D01*
X0170602Y0102305D01*
X0170602Y0098882D01*
X0171488Y0095575D01*
X0173200Y0092611D01*
X0175620Y0090190D01*
X0178585Y0088479D01*
X0181891Y0087593D01*
X0185314Y0087593D01*
X0188620Y0088479D01*
X0191585Y0090190D01*
X0194005Y0092611D01*
X0195716Y0095575D01*
X0196602Y0098882D01*
X0196602Y0102305D01*
X0195716Y0105611D01*
X0194005Y0108575D01*
X0191585Y0110996D01*
X0188620Y0112707D01*
X0185314Y0113593D01*
X0181891Y0113593D01*
X0178585Y0112707D01*
X0176774Y0111662D02*
X0128598Y0111662D01*
X0129596Y0110663D02*
X0130668Y0110663D01*
X0134332Y0110663D02*
X0135668Y0110663D01*
X0139332Y0110663D02*
X0140668Y0110663D01*
X0144332Y0110663D02*
X0175288Y0110663D01*
X0174289Y0109665D02*
X0145331Y0109665D01*
X0146593Y0108666D02*
X0173291Y0108666D01*
X0172676Y0107668D02*
X0147592Y0107668D01*
X0148590Y0106669D02*
X0172099Y0106669D01*
X0171523Y0105671D02*
X0148600Y0105671D01*
X0148600Y0104672D02*
X0171237Y0104672D01*
X0170969Y0103674D02*
X0148600Y0103674D01*
X0148600Y0102675D02*
X0170702Y0102675D01*
X0170602Y0101677D02*
X0148600Y0101677D01*
X0148600Y0100678D02*
X0170602Y0100678D01*
X0170602Y0099680D02*
X0148600Y0099680D01*
X0148600Y0098681D02*
X0170656Y0098681D01*
X0170924Y0097683D02*
X0148600Y0097683D01*
X0148600Y0096684D02*
X0171191Y0096684D01*
X0171459Y0095686D02*
X0148600Y0095686D01*
X0148600Y0094687D02*
X0172001Y0094687D01*
X0172577Y0093689D02*
X0148600Y0093689D01*
X0148600Y0092690D02*
X0173154Y0092690D01*
X0174119Y0091692D02*
X0148600Y0091692D01*
X0148600Y0090693D02*
X0175117Y0090693D01*
X0176479Y0089695D02*
X0148375Y0089695D01*
X0144400Y0091660D02*
X0143630Y0090890D01*
X0129630Y0090890D01*
X0126630Y0087890D01*
X0108350Y0087890D01*
X0108350Y0088357D01*
X0107916Y0089404D01*
X0107114Y0090206D01*
X0106067Y0090640D01*
X0105903Y0090640D01*
X0103800Y0092743D01*
X0103800Y0098837D01*
X0110453Y0105490D01*
X0115547Y0105490D01*
X0118819Y0102218D01*
X0118819Y0100765D01*
X0120975Y0098609D01*
X0124025Y0098609D01*
X0125000Y0099584D01*
X0125975Y0098609D01*
X0127409Y0098609D01*
X0127409Y0102199D01*
X0127591Y0102199D01*
X0127591Y0102380D01*
X0128819Y0102380D01*
X0132409Y0102380D01*
X0132409Y0102199D01*
X0127591Y0102199D01*
X0127591Y0098609D01*
X0129025Y0098609D01*
X0130000Y0099584D01*
X0130975Y0098609D01*
X0132409Y0098609D01*
X0132409Y0102199D01*
X0132591Y0102199D01*
X0132591Y0102380D01*
X0137409Y0102380D01*
X0137409Y0102199D01*
X0133819Y0102199D01*
X0132591Y0102199D01*
X0132591Y0098609D01*
X0134025Y0098609D01*
X0135000Y0099584D01*
X0135975Y0098609D01*
X0137409Y0098609D01*
X0137409Y0102199D01*
X0137591Y0102199D01*
X0137591Y0102380D01*
X0142409Y0102380D01*
X0142409Y0102199D01*
X0138819Y0102199D01*
X0137591Y0102199D01*
X0137591Y0098609D01*
X0139025Y0098609D01*
X0140000Y0099584D01*
X0140975Y0098609D01*
X0142409Y0098609D01*
X0142409Y0102199D01*
X0142591Y0102199D01*
X0142591Y0098609D01*
X0144025Y0098609D01*
X0144400Y0098984D01*
X0144400Y0091660D01*
X0144400Y0091692D02*
X0104851Y0091692D01*
X0103852Y0092690D02*
X0144400Y0092690D01*
X0144400Y0093689D02*
X0103800Y0093689D01*
X0103800Y0094687D02*
X0144400Y0094687D01*
X0144400Y0095686D02*
X0103800Y0095686D01*
X0103800Y0096684D02*
X0144400Y0096684D01*
X0144400Y0097683D02*
X0103800Y0097683D01*
X0103800Y0098681D02*
X0120903Y0098681D01*
X0119904Y0099680D02*
X0104643Y0099680D01*
X0105641Y0100678D02*
X0118906Y0100678D01*
X0118819Y0101677D02*
X0106640Y0101677D01*
X0107638Y0102675D02*
X0118362Y0102675D01*
X0117363Y0103674D02*
X0108637Y0103674D01*
X0109635Y0104672D02*
X0116365Y0104672D01*
X0124097Y0098681D02*
X0125903Y0098681D01*
X0127409Y0098681D02*
X0127591Y0098681D01*
X0127591Y0099680D02*
X0127409Y0099680D01*
X0127409Y0100678D02*
X0127591Y0100678D01*
X0127591Y0101677D02*
X0127409Y0101677D01*
X0129097Y0098681D02*
X0130903Y0098681D01*
X0132409Y0098681D02*
X0132591Y0098681D01*
X0132591Y0099680D02*
X0132409Y0099680D01*
X0132409Y0100678D02*
X0132591Y0100678D01*
X0132591Y0101677D02*
X0132409Y0101677D01*
X0137409Y0101677D02*
X0137591Y0101677D01*
X0137591Y0100678D02*
X0137409Y0100678D01*
X0137409Y0099680D02*
X0137591Y0099680D01*
X0137591Y0098681D02*
X0137409Y0098681D01*
X0135903Y0098681D02*
X0134097Y0098681D01*
X0139097Y0098681D02*
X0140903Y0098681D01*
X0142409Y0098681D02*
X0142591Y0098681D01*
X0142591Y0099680D02*
X0142409Y0099680D01*
X0142409Y0100678D02*
X0142591Y0100678D01*
X0142591Y0101677D02*
X0142409Y0101677D01*
X0144097Y0098681D02*
X0144400Y0098681D01*
X0129433Y0090693D02*
X0105849Y0090693D01*
X0107626Y0089695D02*
X0128435Y0089695D01*
X0127436Y0088696D02*
X0108209Y0088696D01*
X0109370Y0083690D02*
X0113031Y0083690D01*
X0113031Y0079448D01*
X0113590Y0078890D01*
X0104630Y0078890D01*
X0103998Y0078257D01*
X0103998Y0078262D01*
X0102886Y0079374D01*
X0103933Y0078940D01*
X0105067Y0078940D01*
X0106114Y0079374D01*
X0106916Y0080176D01*
X0107350Y0081223D01*
X0107350Y0081670D01*
X0109370Y0083690D01*
X0108385Y0082705D02*
X0113031Y0082705D01*
X0113031Y0081707D02*
X0107386Y0081707D01*
X0107137Y0080708D02*
X0113031Y0080708D01*
X0113031Y0079710D02*
X0106450Y0079710D01*
X0104451Y0078711D02*
X0103549Y0078711D01*
X0091661Y0072277D02*
X0091500Y0072439D01*
X0091661Y0072277D02*
X0091500Y0072116D01*
X0089102Y0072277D02*
X0089000Y0072175D01*
X0086568Y0068827D02*
X0085322Y0068827D01*
X0085264Y0068886D01*
X0085206Y0068827D01*
X0082763Y0068827D01*
X0081884Y0069706D01*
X0081884Y0073436D01*
X0079380Y0075940D01*
X0078933Y0075940D01*
X0077886Y0076374D01*
X0077084Y0077176D01*
X0076650Y0078223D01*
X0076650Y0079357D01*
X0077084Y0080404D01*
X0077886Y0081206D01*
X0078933Y0081640D01*
X0080067Y0081640D01*
X0081114Y0081206D01*
X0081916Y0080404D01*
X0082258Y0079579D01*
X0082886Y0080206D01*
X0083047Y0080273D01*
X0081630Y0081690D01*
X0076370Y0081690D01*
X0074370Y0079690D01*
X0073853Y0079690D01*
X0075453Y0078090D01*
X0076800Y0076743D01*
X0076800Y0063837D01*
X0075353Y0062390D01*
X0080130Y0062390D01*
X0086568Y0068827D01*
X0086466Y0068726D02*
X0076800Y0068726D01*
X0076800Y0069724D02*
X0081884Y0069724D01*
X0081884Y0070723D02*
X0076800Y0070723D01*
X0076800Y0071721D02*
X0081884Y0071721D01*
X0081884Y0072720D02*
X0076800Y0072720D01*
X0076800Y0073718D02*
X0081602Y0073718D01*
X0080603Y0074717D02*
X0076800Y0074717D01*
X0076800Y0075715D02*
X0079605Y0075715D01*
X0077545Y0076714D02*
X0076800Y0076714D01*
X0076861Y0077713D02*
X0075830Y0077713D01*
X0076650Y0078711D02*
X0074832Y0078711D01*
X0074389Y0079710D02*
X0076796Y0079710D01*
X0077388Y0080708D02*
X0075388Y0080708D01*
X0081612Y0080708D02*
X0082612Y0080708D01*
X0082389Y0079710D02*
X0082204Y0079710D01*
X0094562Y0087698D02*
X0094868Y0087698D01*
X0094650Y0088696D02*
X0093564Y0088696D01*
X0096414Y0103674D02*
X0087682Y0103674D01*
X0088523Y0104672D02*
X0097413Y0104672D01*
X0104402Y0111662D02*
X0025076Y0111662D01*
X0026562Y0110663D02*
X0046033Y0110663D01*
X0046039Y0110688D02*
X0045937Y0110306D01*
X0045937Y0108674D01*
X0048970Y0108674D01*
X0048970Y0111609D01*
X0047240Y0111609D01*
X0046858Y0111507D01*
X0046516Y0111309D01*
X0046237Y0111030D01*
X0046039Y0110688D01*
X0045937Y0109665D02*
X0027561Y0109665D01*
X0028560Y0108666D02*
X0048970Y0108666D01*
X0048970Y0109665D02*
X0049841Y0109665D01*
X0049841Y0110663D02*
X0048970Y0110663D01*
X0045937Y0107668D02*
X0029175Y0107668D01*
X0029751Y0106669D02*
X0045937Y0106669D01*
X0041825Y0104672D02*
X0040955Y0104672D01*
X0040955Y0103674D02*
X0041825Y0103674D01*
X0041825Y0102675D02*
X0040955Y0102675D01*
X0052633Y0104672D02*
X0060630Y0104672D01*
X0061628Y0105671D02*
X0052703Y0105671D01*
X0052874Y0106669D02*
X0061900Y0106669D01*
X0061926Y0107668D02*
X0052874Y0107668D01*
X0023347Y0112660D02*
X0105401Y0112660D01*
X0106399Y0113659D02*
X0006809Y0113659D01*
X0065376Y0069724D02*
X0067634Y0069724D01*
X0067036Y0068726D02*
X0065968Y0068726D01*
X0065968Y0067727D02*
X0067031Y0067727D01*
X0076800Y0067727D02*
X0085468Y0067727D01*
X0084469Y0066729D02*
X0076800Y0066729D01*
X0076800Y0065730D02*
X0083471Y0065730D01*
X0082472Y0064732D02*
X0076800Y0064732D01*
X0076696Y0063733D02*
X0081474Y0063733D01*
X0080475Y0062735D02*
X0075698Y0062735D01*
X0084422Y0057742D02*
X0089400Y0057742D01*
X0089400Y0056744D02*
X0083424Y0056744D01*
X0085421Y0058741D02*
X0089400Y0058741D01*
X0089400Y0059739D02*
X0086419Y0059739D01*
X0087418Y0060738D02*
X0088522Y0060738D01*
X0087878Y0052750D02*
X0087767Y0052750D01*
X0091500Y0049464D02*
X0091661Y0049303D01*
X0099339Y0049303D02*
X0099500Y0049141D01*
X0099500Y0045790D01*
X0100500Y0044790D01*
X0108500Y0044790D01*
X0109500Y0045790D01*
X0111600Y0045760D02*
X0127531Y0045760D01*
X0127531Y0044762D02*
X0111442Y0044762D01*
X0111600Y0044920D02*
X0111600Y0053920D01*
X0114519Y0056840D01*
X0117031Y0056840D01*
X0117031Y0056448D01*
X0117711Y0055769D01*
X0117610Y0055711D01*
X0117331Y0055431D01*
X0117134Y0055089D01*
X0117031Y0054708D01*
X0117031Y0053075D01*
X0120065Y0053075D01*
X0120065Y0052205D01*
X0120935Y0052205D01*
X0120935Y0049270D01*
X0122666Y0049270D01*
X0123047Y0049372D01*
X0123390Y0049570D01*
X0123669Y0049849D01*
X0123866Y0050191D01*
X0123968Y0050573D01*
X0123968Y0052205D01*
X0120935Y0052205D01*
X0120935Y0053075D01*
X0123968Y0053075D01*
X0123968Y0054708D01*
X0123866Y0055089D01*
X0123669Y0055431D01*
X0123390Y0055711D01*
X0123289Y0055769D01*
X0123968Y0056448D01*
X0123968Y0056640D01*
X0126031Y0056640D01*
X0126031Y0056448D01*
X0126690Y0055790D01*
X0126031Y0055132D01*
X0126031Y0050149D01*
X0126910Y0049270D01*
X0127531Y0049270D01*
X0127531Y0039258D01*
X0126453Y0039258D01*
X0125575Y0038380D01*
X0125575Y0033200D01*
X0126453Y0032321D01*
X0128200Y0032321D01*
X0128200Y0030743D01*
X0127547Y0030090D01*
X0125425Y0030090D01*
X0125425Y0034640D01*
X0124547Y0035518D01*
X0117792Y0035518D01*
X0116913Y0034640D01*
X0116913Y0034350D01*
X0108968Y0034350D01*
X0108968Y0035132D01*
X0108289Y0035811D01*
X0108390Y0035869D01*
X0108669Y0036148D01*
X0108866Y0036490D01*
X0108968Y0036872D01*
X0108968Y0038504D01*
X0105935Y0038504D01*
X0105935Y0039375D01*
X0105065Y0039375D01*
X0105065Y0042310D01*
X0103334Y0042310D01*
X0102953Y0042207D01*
X0102610Y0042010D01*
X0102331Y0041731D01*
X0102134Y0041389D01*
X0102031Y0041007D01*
X0102031Y0039375D01*
X0105065Y0039375D01*
X0105065Y0038504D01*
X0102031Y0038504D01*
X0102031Y0036872D01*
X0102134Y0036490D01*
X0102331Y0036148D01*
X0102610Y0035869D01*
X0102711Y0035811D01*
X0102221Y0035321D01*
X0101800Y0035743D01*
X0101800Y0040743D01*
X0100453Y0042090D01*
X0099753Y0042790D01*
X0109328Y0042790D01*
X0110228Y0043690D01*
X0110370Y0043690D01*
X0111600Y0044920D01*
X0110443Y0043763D02*
X0127531Y0043763D01*
X0127531Y0042765D02*
X0124732Y0042765D01*
X0124846Y0042699D02*
X0124504Y0042896D01*
X0124123Y0042999D01*
X0121654Y0042999D01*
X0121654Y0040014D01*
X0125425Y0040014D01*
X0125425Y0041696D01*
X0125323Y0042078D01*
X0125125Y0042420D01*
X0124846Y0042699D01*
X0125406Y0041766D02*
X0127531Y0041766D01*
X0127531Y0040768D02*
X0125425Y0040768D01*
X0127531Y0039769D02*
X0121654Y0039769D01*
X0121654Y0040014D02*
X0121654Y0039046D01*
X0125425Y0039046D01*
X0125425Y0037364D01*
X0125323Y0036983D01*
X0125125Y0036641D01*
X0124846Y0036361D01*
X0124504Y0036164D01*
X0124123Y0036062D01*
X0121654Y0036062D01*
X0121654Y0039046D01*
X0120685Y0039046D01*
X0116913Y0039046D01*
X0116913Y0037364D01*
X0117016Y0036983D01*
X0117213Y0036641D01*
X0117492Y0036361D01*
X0117834Y0036164D01*
X0118216Y0036062D01*
X0120685Y0036062D01*
X0120685Y0039046D01*
X0120685Y0040014D01*
X0116913Y0040014D01*
X0116913Y0041696D01*
X0117016Y0042078D01*
X0117213Y0042420D01*
X0117492Y0042699D01*
X0117834Y0042896D01*
X0118216Y0042999D01*
X0120685Y0042999D01*
X0120685Y0040014D01*
X0121654Y0040014D01*
X0121654Y0040768D02*
X0120685Y0040768D01*
X0120685Y0041766D02*
X0121654Y0041766D01*
X0121654Y0042765D02*
X0120685Y0042765D01*
X0117606Y0042765D02*
X0099778Y0042765D01*
X0100776Y0041766D02*
X0102367Y0041766D01*
X0102031Y0040768D02*
X0101775Y0040768D01*
X0101800Y0039769D02*
X0102031Y0039769D01*
X0101800Y0038771D02*
X0105065Y0038771D01*
X0105935Y0038771D02*
X0116913Y0038771D01*
X0116913Y0037772D02*
X0108968Y0037772D01*
X0108942Y0036774D02*
X0117136Y0036774D01*
X0117050Y0034777D02*
X0108968Y0034777D01*
X0108325Y0035775D02*
X0125575Y0035775D01*
X0125575Y0034777D02*
X0125288Y0034777D01*
X0125425Y0033778D02*
X0125575Y0033778D01*
X0125425Y0032780D02*
X0125995Y0032780D01*
X0125425Y0031781D02*
X0128200Y0031781D01*
X0128200Y0030782D02*
X0125425Y0030782D01*
X0131750Y0027787D02*
X0193762Y0027787D01*
X0195472Y0028785D02*
X0186238Y0028785D01*
X0185314Y0028538D02*
X0188620Y0029424D01*
X0191585Y0031135D01*
X0194005Y0033556D01*
X0195716Y0036520D01*
X0196602Y0039826D01*
X0196602Y0043249D01*
X0195716Y0046556D01*
X0194005Y0049520D01*
X0191585Y0051941D01*
X0188620Y0053652D01*
X0185314Y0054538D01*
X0181891Y0054538D01*
X0178585Y0053652D01*
X0175620Y0051941D01*
X0173200Y0049520D01*
X0171488Y0046556D01*
X0170602Y0043249D01*
X0170602Y0039826D01*
X0171488Y0036520D01*
X0173200Y0033556D01*
X0175620Y0031135D01*
X0178585Y0029424D01*
X0181891Y0028538D01*
X0185314Y0028538D01*
X0189244Y0029784D02*
X0196439Y0029784D01*
X0197160Y0030782D02*
X0190973Y0030782D01*
X0192230Y0031781D02*
X0197484Y0031781D01*
X0197781Y0032780D02*
X0193229Y0032780D01*
X0194133Y0033778D02*
X0197850Y0033778D01*
X0197850Y0034777D02*
X0194710Y0034777D01*
X0195286Y0035775D02*
X0197850Y0035775D01*
X0197850Y0036774D02*
X0195784Y0036774D01*
X0196052Y0037772D02*
X0197850Y0037772D01*
X0197850Y0038771D02*
X0196319Y0038771D01*
X0196587Y0039769D02*
X0197850Y0039769D01*
X0197850Y0040768D02*
X0196602Y0040768D01*
X0196602Y0041766D02*
X0197850Y0041766D01*
X0197850Y0042765D02*
X0196602Y0042765D01*
X0196465Y0043763D02*
X0197850Y0043763D01*
X0197850Y0044762D02*
X0196197Y0044762D01*
X0195930Y0045760D02*
X0197850Y0045760D01*
X0197850Y0046759D02*
X0195599Y0046759D01*
X0195023Y0047757D02*
X0197850Y0047757D01*
X0197850Y0048756D02*
X0194446Y0048756D01*
X0193771Y0049754D02*
X0197850Y0049754D01*
X0197850Y0050753D02*
X0192772Y0050753D01*
X0191774Y0051751D02*
X0197850Y0051751D01*
X0197850Y0052750D02*
X0190183Y0052750D01*
X0188261Y0053748D02*
X0197850Y0053748D01*
X0197850Y0054747D02*
X0141958Y0054747D01*
X0141968Y0053748D02*
X0178944Y0053748D01*
X0177022Y0052750D02*
X0138935Y0052750D01*
X0138065Y0052750D02*
X0132968Y0052750D01*
X0132968Y0053748D02*
X0135031Y0053748D01*
X0135042Y0054747D02*
X0132968Y0054747D01*
X0132355Y0055745D02*
X0135670Y0055745D01*
X0135031Y0052205D02*
X0135031Y0050573D01*
X0135134Y0050191D01*
X0135331Y0049849D01*
X0135610Y0049570D01*
X0135953Y0049372D01*
X0136334Y0049270D01*
X0138065Y0049270D01*
X0138065Y0052205D01*
X0135031Y0052205D01*
X0135031Y0051751D02*
X0132968Y0051751D01*
X0132968Y0050753D02*
X0135031Y0050753D01*
X0135426Y0049754D02*
X0132574Y0049754D01*
X0132131Y0048756D02*
X0172758Y0048756D01*
X0172182Y0047757D02*
X0132131Y0047757D01*
X0132131Y0046759D02*
X0171605Y0046759D01*
X0171275Y0045760D02*
X0132131Y0045760D01*
X0132131Y0044762D02*
X0171008Y0044762D01*
X0170740Y0043763D02*
X0132131Y0043763D01*
X0132131Y0042765D02*
X0144775Y0042765D01*
X0143777Y0041766D02*
X0132131Y0041766D01*
X0132131Y0040768D02*
X0142778Y0040768D01*
X0142488Y0039769D02*
X0132131Y0039769D01*
X0133696Y0038771D02*
X0142488Y0038771D01*
X0148312Y0034777D02*
X0152688Y0034777D01*
X0151689Y0035775D02*
X0149311Y0035775D01*
X0150309Y0036774D02*
X0150691Y0036774D01*
X0154150Y0036774D02*
X0154724Y0036774D01*
X0154724Y0037772D02*
X0154150Y0037772D01*
X0154724Y0038771D02*
X0170885Y0038771D01*
X0170618Y0039769D02*
X0158512Y0039769D01*
X0158512Y0039077D02*
X0158512Y0040478D01*
X0156125Y0042865D01*
X0154724Y0042865D01*
X0154724Y0039077D01*
X0158512Y0039077D01*
X0158512Y0037772D02*
X0171153Y0037772D01*
X0171420Y0036774D02*
X0158183Y0036774D01*
X0157185Y0035775D02*
X0171918Y0035775D01*
X0172495Y0034777D02*
X0156186Y0034777D01*
X0154724Y0034777D02*
X0154150Y0034777D01*
X0154150Y0035775D02*
X0154724Y0035775D01*
X0154724Y0039769D02*
X0154150Y0039769D01*
X0154150Y0040768D02*
X0154724Y0040768D01*
X0154724Y0041766D02*
X0154150Y0041766D01*
X0154150Y0042765D02*
X0154724Y0042765D01*
X0156225Y0042765D02*
X0170602Y0042765D01*
X0170602Y0041766D02*
X0157223Y0041766D01*
X0158222Y0040768D02*
X0170602Y0040768D01*
X0173071Y0033778D02*
X0134087Y0033778D01*
X0133666Y0032780D02*
X0173976Y0032780D01*
X0174975Y0031781D02*
X0132800Y0031781D01*
X0132800Y0030782D02*
X0176231Y0030782D01*
X0177961Y0029784D02*
X0132800Y0029784D01*
X0132748Y0028785D02*
X0180967Y0028785D01*
X0152649Y0042765D02*
X0148351Y0042765D01*
X0149349Y0041766D02*
X0151651Y0041766D01*
X0150652Y0040768D02*
X0150348Y0040768D01*
X0141574Y0049754D02*
X0173434Y0049754D01*
X0174432Y0050753D02*
X0141968Y0050753D01*
X0141968Y0051751D02*
X0175431Y0051751D01*
X0172763Y0061736D02*
X0184237Y0061736D01*
X0182653Y0062735D02*
X0174347Y0062735D01*
X0175346Y0063733D02*
X0181654Y0063733D01*
X0180683Y0064732D02*
X0176317Y0064732D01*
X0176730Y0065730D02*
X0180270Y0065730D01*
X0179856Y0066729D02*
X0177144Y0066729D01*
X0177557Y0067727D02*
X0179443Y0067727D01*
X0179331Y0068726D02*
X0177669Y0068726D01*
X0177669Y0069724D02*
X0179331Y0069724D01*
X0179331Y0070723D02*
X0177669Y0070723D01*
X0177612Y0071721D02*
X0179388Y0071721D01*
X0179802Y0072720D02*
X0177198Y0072720D01*
X0176785Y0073718D02*
X0180215Y0073718D01*
X0180629Y0074717D02*
X0176371Y0074717D01*
X0172866Y0077801D02*
X0172866Y0079714D01*
X0159968Y0079714D01*
X0159968Y0079448D01*
X0159310Y0078790D01*
X0159968Y0078132D01*
X0159968Y0075142D01*
X0160370Y0074740D01*
X0160954Y0074740D01*
X0161018Y0074895D01*
X0163553Y0077430D01*
X0166865Y0078802D01*
X0170450Y0078802D01*
X0172866Y0077801D01*
X0172866Y0078711D02*
X0170669Y0078711D01*
X0166646Y0078711D02*
X0159389Y0078711D01*
X0159968Y0077713D02*
X0164235Y0077713D01*
X0162837Y0076714D02*
X0159968Y0076714D01*
X0159968Y0075715D02*
X0161838Y0075715D01*
X0159968Y0079710D02*
X0172866Y0079710D01*
X0172866Y0084702D02*
X0159697Y0084702D01*
X0155709Y0085701D02*
X0172998Y0085701D01*
X0178208Y0088696D02*
X0152713Y0088696D01*
X0153712Y0087698D02*
X0181501Y0087698D01*
X0184002Y0085701D02*
X0197850Y0085701D01*
X0197850Y0086699D02*
X0154710Y0086699D01*
X0151766Y0083704D02*
X0149968Y0083704D01*
X0149968Y0084007D02*
X0149866Y0084389D01*
X0149692Y0084690D01*
X0150780Y0084690D01*
X0153031Y0082438D01*
X0153031Y0079448D01*
X0153690Y0078790D01*
X0153580Y0078680D01*
X0152600Y0079660D01*
X0151370Y0080890D01*
X0149968Y0080890D01*
X0149968Y0081504D01*
X0146935Y0081504D01*
X0146935Y0082375D01*
X0149968Y0082375D01*
X0149968Y0084007D01*
X0149968Y0082705D02*
X0152765Y0082705D01*
X0153031Y0081707D02*
X0146935Y0081707D01*
X0146065Y0081707D02*
X0139968Y0081707D01*
X0139968Y0081441D02*
X0139968Y0084431D01*
X0139709Y0084690D01*
X0143308Y0084690D01*
X0143134Y0084389D01*
X0143031Y0084007D01*
X0143031Y0082375D01*
X0146065Y0082375D01*
X0146065Y0081504D01*
X0143031Y0081504D01*
X0143031Y0080890D01*
X0140519Y0080890D01*
X0139968Y0081441D01*
X0139968Y0082705D02*
X0143031Y0082705D01*
X0143031Y0083704D02*
X0139968Y0083704D01*
X0151552Y0080708D02*
X0153031Y0080708D01*
X0153031Y0079710D02*
X0152550Y0079710D01*
X0153549Y0078711D02*
X0153611Y0078711D01*
X0150605Y0075715D02*
X0149968Y0075715D01*
X0149968Y0074717D02*
X0151603Y0074717D01*
X0152602Y0073718D02*
X0149968Y0073718D01*
X0149540Y0072720D02*
X0153460Y0072720D01*
X0143460Y0072720D02*
X0139540Y0072720D01*
X0136500Y0075640D02*
X0136350Y0075640D01*
X0156500Y0081940D02*
X0156626Y0081814D01*
X0184134Y0081707D02*
X0197850Y0081707D01*
X0197850Y0082705D02*
X0184134Y0082705D01*
X0184134Y0083704D02*
X0197850Y0083704D01*
X0197850Y0084702D02*
X0184134Y0084702D01*
X0185704Y0087698D02*
X0197850Y0087698D01*
X0197850Y0088696D02*
X0188996Y0088696D01*
X0190726Y0089695D02*
X0197850Y0089695D01*
X0197850Y0090693D02*
X0192087Y0090693D01*
X0193086Y0091692D02*
X0197850Y0091692D01*
X0197850Y0092690D02*
X0194051Y0092690D01*
X0194627Y0093689D02*
X0197850Y0093689D01*
X0197850Y0094687D02*
X0195204Y0094687D01*
X0195746Y0095686D02*
X0197850Y0095686D01*
X0197850Y0096684D02*
X0196014Y0096684D01*
X0196281Y0097683D02*
X0197850Y0097683D01*
X0197850Y0098681D02*
X0196549Y0098681D01*
X0196602Y0099680D02*
X0197850Y0099680D01*
X0197850Y0100678D02*
X0196602Y0100678D01*
X0196602Y0101677D02*
X0197850Y0101677D01*
X0197850Y0102675D02*
X0196503Y0102675D01*
X0196235Y0103674D02*
X0197850Y0103674D01*
X0197850Y0104672D02*
X0195968Y0104672D01*
X0195682Y0105671D02*
X0197850Y0105671D01*
X0197850Y0106669D02*
X0195105Y0106669D01*
X0194529Y0107668D02*
X0197850Y0107668D01*
X0197835Y0108666D02*
X0193914Y0108666D01*
X0192915Y0109665D02*
X0197707Y0109665D01*
X0197382Y0110663D02*
X0191917Y0110663D01*
X0190431Y0111662D02*
X0196937Y0111662D01*
X0196211Y0112660D02*
X0188701Y0112660D01*
X0184134Y0080708D02*
X0197850Y0080708D01*
X0197850Y0079710D02*
X0184134Y0079710D01*
X0184134Y0078711D02*
X0186331Y0078711D01*
X0190354Y0078711D02*
X0197850Y0078711D01*
X0197850Y0077713D02*
X0192765Y0077713D01*
X0194163Y0076714D02*
X0197850Y0076714D01*
X0197850Y0075715D02*
X0195162Y0075715D01*
X0196056Y0074717D02*
X0197850Y0074717D01*
X0197850Y0073718D02*
X0196470Y0073718D01*
X0196883Y0072720D02*
X0197850Y0072720D01*
X0197850Y0071721D02*
X0197297Y0071721D01*
X0197354Y0070723D02*
X0197850Y0070723D01*
X0197850Y0069724D02*
X0197354Y0069724D01*
X0197354Y0068726D02*
X0197850Y0068726D01*
X0197850Y0067727D02*
X0197242Y0067727D01*
X0196829Y0066729D02*
X0197850Y0066729D01*
X0197850Y0065730D02*
X0196415Y0065730D01*
X0196002Y0064732D02*
X0197850Y0064732D01*
X0197850Y0063733D02*
X0195031Y0063733D01*
X0194032Y0062735D02*
X0197850Y0062735D01*
X0197850Y0061736D02*
X0192448Y0061736D01*
X0197850Y0060738D02*
X0141968Y0060738D01*
X0141968Y0059739D02*
X0197850Y0059739D01*
X0197850Y0058741D02*
X0141968Y0058741D01*
X0141968Y0057742D02*
X0197850Y0057742D01*
X0197850Y0056744D02*
X0141968Y0056744D01*
X0141330Y0055745D02*
X0197850Y0055745D01*
X0164552Y0061736D02*
X0141663Y0061736D01*
X0135337Y0061736D02*
X0132663Y0061736D01*
X0126337Y0061736D02*
X0123663Y0061736D01*
X0117031Y0056744D02*
X0114424Y0056744D01*
X0113425Y0055745D02*
X0117670Y0055745D01*
X0117042Y0054747D02*
X0112427Y0054747D01*
X0111600Y0053748D02*
X0117031Y0053748D01*
X0117031Y0052205D02*
X0117031Y0050573D01*
X0117134Y0050191D01*
X0117331Y0049849D01*
X0117610Y0049570D01*
X0117953Y0049372D01*
X0118334Y0049270D01*
X0120065Y0049270D01*
X0120065Y0052205D01*
X0117031Y0052205D01*
X0117031Y0051751D02*
X0111600Y0051751D01*
X0111600Y0050753D02*
X0117031Y0050753D01*
X0117426Y0049754D02*
X0111600Y0049754D01*
X0111600Y0048756D02*
X0127531Y0048756D01*
X0127531Y0047757D02*
X0111600Y0047757D01*
X0111600Y0046759D02*
X0127531Y0046759D01*
X0126426Y0049754D02*
X0123574Y0049754D01*
X0123968Y0050753D02*
X0126031Y0050753D01*
X0126031Y0051751D02*
X0123968Y0051751D01*
X0126031Y0052750D02*
X0120935Y0052750D01*
X0120065Y0052750D02*
X0111600Y0052750D01*
X0120065Y0051751D02*
X0120935Y0051751D01*
X0120935Y0050753D02*
X0120065Y0050753D01*
X0120065Y0049754D02*
X0120935Y0049754D01*
X0123968Y0053748D02*
X0126031Y0053748D01*
X0126031Y0054747D02*
X0123958Y0054747D01*
X0123330Y0055745D02*
X0126645Y0055745D01*
X0138065Y0051751D02*
X0138935Y0051751D01*
X0138935Y0050753D02*
X0138065Y0050753D01*
X0138065Y0049754D02*
X0138935Y0049754D01*
X0125966Y0038771D02*
X0125425Y0038771D01*
X0125425Y0037772D02*
X0125575Y0037772D01*
X0125575Y0036774D02*
X0125202Y0036774D01*
X0121654Y0036774D02*
X0120685Y0036774D01*
X0120685Y0037772D02*
X0121654Y0037772D01*
X0121654Y0038771D02*
X0120685Y0038771D01*
X0120685Y0039769D02*
X0108968Y0039769D01*
X0108968Y0039375D02*
X0108968Y0041007D01*
X0108866Y0041389D01*
X0108669Y0041731D01*
X0108390Y0042010D01*
X0108047Y0042207D01*
X0107666Y0042310D01*
X0105935Y0042310D01*
X0105935Y0039375D01*
X0108968Y0039375D01*
X0108968Y0040768D02*
X0116913Y0040768D01*
X0116932Y0041766D02*
X0108633Y0041766D01*
X0105935Y0041766D02*
X0105065Y0041766D01*
X0105065Y0040768D02*
X0105935Y0040768D01*
X0105935Y0039769D02*
X0105065Y0039769D01*
X0102031Y0037772D02*
X0101800Y0037772D01*
X0101800Y0036774D02*
X0102058Y0036774D01*
X0101800Y0035775D02*
X0102675Y0035775D01*
X0096268Y0039769D02*
X0094968Y0039769D01*
X0094968Y0040768D02*
X0095270Y0040768D01*
X0093273Y0042765D02*
X0086727Y0042765D01*
X0091065Y0041766D02*
X0091935Y0041766D01*
X0091935Y0040768D02*
X0091065Y0040768D01*
X0091065Y0039769D02*
X0091935Y0039769D01*
X0088031Y0037772D02*
X0086968Y0037772D01*
X0086968Y0036774D02*
X0088058Y0036774D01*
X0088675Y0035775D02*
X0086295Y0035775D01*
X0086950Y0034777D02*
X0088031Y0034777D01*
X0088031Y0033778D02*
X0086968Y0033778D01*
X0088031Y0032780D02*
X0083935Y0032780D01*
X0083065Y0032780D02*
X0072800Y0032780D01*
X0072800Y0033778D02*
X0080031Y0033778D01*
X0080050Y0034777D02*
X0072800Y0034777D01*
X0072800Y0035775D02*
X0080705Y0035775D01*
X0080031Y0036774D02*
X0074886Y0036774D01*
X0075884Y0037772D02*
X0080031Y0037772D01*
X0080031Y0038771D02*
X0076883Y0038771D01*
X0077881Y0039769D02*
X0079418Y0039769D01*
X0080031Y0031781D02*
X0072800Y0031781D01*
X0072745Y0030782D02*
X0080031Y0030782D01*
X0080396Y0029784D02*
X0071747Y0029784D01*
X0070748Y0028785D02*
X0092252Y0028785D01*
X0088396Y0029784D02*
X0086604Y0029784D01*
X0086968Y0030782D02*
X0088031Y0030782D01*
X0088031Y0031781D02*
X0086968Y0031781D01*
X0083935Y0031781D02*
X0083065Y0031781D01*
X0083065Y0030782D02*
X0083935Y0030782D01*
X0083935Y0029784D02*
X0083065Y0029784D01*
X0070500Y0049640D02*
X0070650Y0049790D01*
D29*
X0075500Y0045790D03*
X0078500Y0050790D03*
X0086500Y0055790D03*
X0090500Y0062790D03*
X0097500Y0062790D03*
X0104500Y0065790D03*
X0104500Y0059790D03*
X0113500Y0062790D03*
X0114500Y0054290D03*
X0114500Y0045790D03*
X0114500Y0037790D03*
X0095500Y0035790D03*
X0078500Y0038790D03*
X0074500Y0034790D03*
X0074500Y0028790D03*
X0049500Y0034790D03*
X0049500Y0041790D03*
X0049500Y0056790D03*
X0049500Y0066790D03*
X0040500Y0068790D03*
X0030500Y0065790D03*
X0021500Y0065790D03*
X0040500Y0074790D03*
X0049500Y0074790D03*
X0051000Y0081790D03*
X0062500Y0085790D03*
X0062500Y0090790D03*
X0058500Y0097790D03*
X0051000Y0094790D03*
X0035500Y0095790D03*
X0032500Y0088790D03*
X0021500Y0085790D03*
X0009500Y0086790D03*
X0005500Y0086790D03*
X0043500Y0107790D03*
X0053500Y0112790D03*
X0097500Y0088790D03*
X0101500Y0085790D03*
X0105500Y0087790D03*
X0110500Y0089790D03*
X0105500Y0097790D03*
X0114500Y0103790D03*
X0125500Y0089790D03*
X0111500Y0081790D03*
X0104500Y0081790D03*
X0090500Y0083790D03*
X0086500Y0086790D03*
X0078500Y0086790D03*
X0079500Y0078790D03*
X0084500Y0077790D03*
X0079500Y0071790D03*
X0079500Y0064790D03*
X0110500Y0072790D03*
X0121500Y0073790D03*
X0121500Y0078790D03*
X0131500Y0080790D03*
X0141500Y0082790D03*
X0151500Y0072790D03*
X0158000Y0069290D03*
X0161500Y0077790D03*
X0161500Y0085290D03*
X0170500Y0085290D03*
X0141500Y0071790D03*
X0165500Y0059790D03*
X0021500Y0055790D03*
X0009500Y0054790D03*
X0005500Y0054790D03*
D30*
X0051000Y0051790D02*
X0051000Y0045290D01*
X0053500Y0042790D01*
X0053563Y0042727D01*
X0055594Y0042727D01*
X0067406Y0042727D02*
X0072437Y0042727D01*
X0075500Y0045790D01*
X0078500Y0050790D02*
X0078500Y0055940D01*
X0079650Y0055940D01*
X0091500Y0067790D01*
X0091500Y0072116D01*
X0091500Y0072439D02*
X0091500Y0077790D01*
X0079232Y0090058D01*
X0070709Y0090058D01*
X0070709Y0092026D02*
X0067736Y0092026D01*
X0066500Y0090790D01*
X0066500Y0082790D01*
X0067500Y0081790D01*
X0073500Y0081790D01*
X0075500Y0083790D01*
X0082500Y0083790D01*
X0084500Y0081790D01*
X0089102Y0077188D01*
X0089102Y0072277D01*
X0089000Y0072175D02*
X0089000Y0068290D01*
X0081000Y0060290D01*
X0067000Y0060290D01*
X0062650Y0055940D01*
X0062500Y0055940D01*
X0060650Y0055940D01*
X0057500Y0052790D01*
X0052000Y0052790D01*
X0051000Y0051790D01*
X0070500Y0055940D02*
X0078500Y0055940D01*
X0090500Y0062790D02*
X0091500Y0061790D01*
X0091500Y0049464D01*
X0094220Y0049303D02*
X0094220Y0062790D01*
X0098500Y0054790D02*
X0106500Y0054790D01*
X0109500Y0057790D01*
X0109500Y0065790D01*
X0113500Y0069790D01*
X0130500Y0069790D01*
X0136350Y0075640D01*
X0136500Y0075640D02*
X0146500Y0075640D01*
X0150500Y0078790D02*
X0139650Y0078790D01*
X0136500Y0081940D01*
X0132500Y0086790D02*
X0151650Y0086790D01*
X0156500Y0081940D01*
X0156626Y0081814D02*
X0177500Y0081814D01*
X0178500Y0080814D01*
X0188343Y0070971D01*
X0188343Y0069790D01*
X0165807Y0072640D02*
X0159500Y0072640D01*
X0156500Y0075640D01*
X0153650Y0075640D01*
X0150500Y0078790D01*
X0144500Y0088790D02*
X0130500Y0088790D01*
X0127500Y0085790D01*
X0108500Y0085790D01*
X0104500Y0081790D01*
X0101500Y0085790D02*
X0101500Y0088790D01*
X0099500Y0090790D01*
X0099500Y0100790D01*
X0108500Y0109790D01*
X0120000Y0109790D01*
X0122500Y0107290D01*
X0127500Y0107290D02*
X0127500Y0109790D01*
X0125500Y0111790D01*
X0107500Y0111790D01*
X0097500Y0101790D01*
X0097500Y0088790D01*
X0092500Y0086790D02*
X0101898Y0077392D01*
X0101898Y0072277D01*
X0104457Y0072277D02*
X0104457Y0075747D01*
X0105500Y0076790D01*
X0115350Y0076790D01*
X0116500Y0081940D02*
X0126500Y0081940D01*
X0127650Y0081940D02*
X0132500Y0086790D01*
X0144500Y0088790D02*
X0146500Y0090790D01*
X0146500Y0105790D01*
X0145000Y0107290D01*
X0142500Y0107290D01*
X0092500Y0086790D02*
X0086500Y0086790D01*
X0078500Y0086790D02*
X0077201Y0088089D01*
X0070709Y0088089D01*
X0079500Y0078790D02*
X0083984Y0074306D01*
X0083984Y0072277D01*
X0086543Y0072277D02*
X0086543Y0075747D01*
X0084500Y0077790D01*
X0054070Y0086121D02*
X0048059Y0086121D01*
X0051201Y0088089D02*
X0049500Y0089790D01*
X0048390Y0090900D01*
X0047500Y0090900D02*
X0041500Y0090900D01*
X0041390Y0090790D01*
X0051201Y0088089D02*
X0054070Y0088089D01*
X0096780Y0053069D02*
X0098500Y0054790D01*
X0096780Y0053069D02*
X0096780Y0049303D01*
X0109500Y0045790D02*
X0109500Y0054790D01*
X0113650Y0058940D01*
X0120500Y0058940D01*
M02*
