G75*
%MOIN*%
%OFA0B0*%
%FSLAX25Y25*%
%IPPOS*%
%LPD*%
%AMOC8*
5,1,8,0,0,1.08239X$1,22.5*
%
%ADD10C,0.00000*%
%ADD11C,0.01500*%
%ADD12C,0.00800*%
D10*
X0010374Y0025790D02*
X0191476Y0025790D01*
X0191666Y0025792D01*
X0191856Y0025799D01*
X0192046Y0025811D01*
X0192236Y0025827D01*
X0192425Y0025847D01*
X0192614Y0025873D01*
X0192802Y0025902D01*
X0192989Y0025937D01*
X0193175Y0025976D01*
X0193360Y0026019D01*
X0193545Y0026067D01*
X0193728Y0026119D01*
X0193909Y0026175D01*
X0194089Y0026236D01*
X0194268Y0026302D01*
X0194445Y0026371D01*
X0194621Y0026445D01*
X0194794Y0026523D01*
X0194966Y0026606D01*
X0195135Y0026692D01*
X0195303Y0026782D01*
X0195468Y0026877D01*
X0195631Y0026975D01*
X0195791Y0027078D01*
X0195949Y0027184D01*
X0196104Y0027294D01*
X0196257Y0027407D01*
X0196407Y0027525D01*
X0196553Y0027646D01*
X0196697Y0027770D01*
X0196838Y0027898D01*
X0196976Y0028029D01*
X0197111Y0028164D01*
X0197242Y0028302D01*
X0197370Y0028443D01*
X0197494Y0028587D01*
X0197615Y0028733D01*
X0197733Y0028883D01*
X0197846Y0029036D01*
X0197956Y0029191D01*
X0198062Y0029349D01*
X0198165Y0029509D01*
X0198263Y0029672D01*
X0198358Y0029837D01*
X0198448Y0030005D01*
X0198534Y0030174D01*
X0198617Y0030346D01*
X0198695Y0030519D01*
X0198769Y0030695D01*
X0198838Y0030872D01*
X0198904Y0031051D01*
X0198965Y0031231D01*
X0199021Y0031412D01*
X0199073Y0031595D01*
X0199121Y0031780D01*
X0199164Y0031965D01*
X0199203Y0032151D01*
X0199238Y0032338D01*
X0199267Y0032526D01*
X0199293Y0032715D01*
X0199313Y0032904D01*
X0199329Y0033094D01*
X0199341Y0033284D01*
X0199348Y0033474D01*
X0199350Y0033664D01*
X0199350Y0108467D01*
X0199348Y0108657D01*
X0199341Y0108847D01*
X0199329Y0109037D01*
X0199313Y0109227D01*
X0199293Y0109416D01*
X0199267Y0109605D01*
X0199238Y0109793D01*
X0199203Y0109980D01*
X0199164Y0110166D01*
X0199121Y0110351D01*
X0199073Y0110536D01*
X0199021Y0110719D01*
X0198965Y0110900D01*
X0198904Y0111080D01*
X0198838Y0111259D01*
X0198769Y0111436D01*
X0198695Y0111612D01*
X0198617Y0111785D01*
X0198534Y0111957D01*
X0198448Y0112126D01*
X0198358Y0112294D01*
X0198263Y0112459D01*
X0198165Y0112622D01*
X0198062Y0112782D01*
X0197956Y0112940D01*
X0197846Y0113095D01*
X0197733Y0113248D01*
X0197615Y0113398D01*
X0197494Y0113544D01*
X0197370Y0113688D01*
X0197242Y0113829D01*
X0197111Y0113967D01*
X0196976Y0114102D01*
X0196838Y0114233D01*
X0196697Y0114361D01*
X0196553Y0114485D01*
X0196407Y0114606D01*
X0196257Y0114724D01*
X0196104Y0114837D01*
X0195949Y0114947D01*
X0195791Y0115053D01*
X0195631Y0115156D01*
X0195468Y0115254D01*
X0195303Y0115349D01*
X0195135Y0115439D01*
X0194966Y0115525D01*
X0194794Y0115608D01*
X0194621Y0115686D01*
X0194445Y0115760D01*
X0194268Y0115829D01*
X0194089Y0115895D01*
X0193909Y0115956D01*
X0193728Y0116012D01*
X0193545Y0116064D01*
X0193360Y0116112D01*
X0193175Y0116155D01*
X0192989Y0116194D01*
X0192802Y0116229D01*
X0192614Y0116258D01*
X0192425Y0116284D01*
X0192236Y0116304D01*
X0192046Y0116320D01*
X0191856Y0116332D01*
X0191666Y0116339D01*
X0191476Y0116341D01*
X0010374Y0116341D01*
X0010184Y0116339D01*
X0009994Y0116332D01*
X0009804Y0116320D01*
X0009614Y0116304D01*
X0009425Y0116284D01*
X0009236Y0116258D01*
X0009048Y0116229D01*
X0008861Y0116194D01*
X0008675Y0116155D01*
X0008490Y0116112D01*
X0008305Y0116064D01*
X0008122Y0116012D01*
X0007941Y0115956D01*
X0007761Y0115895D01*
X0007582Y0115829D01*
X0007405Y0115760D01*
X0007229Y0115686D01*
X0007056Y0115608D01*
X0006884Y0115525D01*
X0006715Y0115439D01*
X0006547Y0115349D01*
X0006382Y0115254D01*
X0006219Y0115156D01*
X0006059Y0115053D01*
X0005901Y0114947D01*
X0005746Y0114837D01*
X0005593Y0114724D01*
X0005443Y0114606D01*
X0005297Y0114485D01*
X0005153Y0114361D01*
X0005012Y0114233D01*
X0004874Y0114102D01*
X0004739Y0113967D01*
X0004608Y0113829D01*
X0004480Y0113688D01*
X0004356Y0113544D01*
X0004235Y0113398D01*
X0004117Y0113248D01*
X0004004Y0113095D01*
X0003894Y0112940D01*
X0003788Y0112782D01*
X0003685Y0112622D01*
X0003587Y0112459D01*
X0003492Y0112294D01*
X0003402Y0112126D01*
X0003316Y0111957D01*
X0003233Y0111785D01*
X0003155Y0111612D01*
X0003081Y0111436D01*
X0003012Y0111259D01*
X0002946Y0111080D01*
X0002885Y0110900D01*
X0002829Y0110719D01*
X0002777Y0110536D01*
X0002729Y0110351D01*
X0002686Y0110166D01*
X0002647Y0109980D01*
X0002612Y0109793D01*
X0002583Y0109605D01*
X0002557Y0109416D01*
X0002537Y0109227D01*
X0002521Y0109037D01*
X0002509Y0108847D01*
X0002502Y0108657D01*
X0002500Y0108467D01*
X0002500Y0033664D01*
X0002502Y0033474D01*
X0002509Y0033284D01*
X0002521Y0033094D01*
X0002537Y0032904D01*
X0002557Y0032715D01*
X0002583Y0032526D01*
X0002612Y0032338D01*
X0002647Y0032151D01*
X0002686Y0031965D01*
X0002729Y0031780D01*
X0002777Y0031595D01*
X0002829Y0031412D01*
X0002885Y0031231D01*
X0002946Y0031051D01*
X0003012Y0030872D01*
X0003081Y0030695D01*
X0003155Y0030519D01*
X0003233Y0030346D01*
X0003316Y0030174D01*
X0003402Y0030005D01*
X0003492Y0029837D01*
X0003587Y0029672D01*
X0003685Y0029509D01*
X0003788Y0029349D01*
X0003894Y0029191D01*
X0004004Y0029036D01*
X0004117Y0028883D01*
X0004235Y0028733D01*
X0004356Y0028587D01*
X0004480Y0028443D01*
X0004608Y0028302D01*
X0004739Y0028164D01*
X0004874Y0028029D01*
X0005012Y0027898D01*
X0005153Y0027770D01*
X0005297Y0027646D01*
X0005443Y0027525D01*
X0005593Y0027407D01*
X0005746Y0027294D01*
X0005901Y0027184D01*
X0006059Y0027078D01*
X0006219Y0026975D01*
X0006382Y0026877D01*
X0006547Y0026782D01*
X0006715Y0026692D01*
X0006884Y0026606D01*
X0007056Y0026523D01*
X0007229Y0026445D01*
X0007405Y0026371D01*
X0007582Y0026302D01*
X0007761Y0026236D01*
X0007941Y0026175D01*
X0008122Y0026119D01*
X0008305Y0026067D01*
X0008490Y0026019D01*
X0008675Y0025976D01*
X0008861Y0025937D01*
X0009048Y0025902D01*
X0009236Y0025873D01*
X0009425Y0025847D01*
X0009614Y0025827D01*
X0009804Y0025811D01*
X0009994Y0025799D01*
X0010184Y0025792D01*
X0010374Y0025790D01*
D11*
X0064623Y0033540D02*
X0064623Y0042047D01*
X0070295Y0042047D02*
X0064623Y0033540D01*
X0070295Y0033540D02*
X0070295Y0042047D01*
X0073831Y0039211D02*
X0073831Y0033540D01*
X0073831Y0037794D02*
X0079503Y0037794D01*
X0079503Y0039211D02*
X0076667Y0042047D01*
X0073831Y0039211D01*
X0079503Y0039211D02*
X0079503Y0033540D01*
X0083039Y0033540D02*
X0083039Y0042047D01*
X0085875Y0039211D01*
X0088711Y0042047D01*
X0088711Y0033540D01*
X0092247Y0033540D02*
X0092247Y0042047D01*
X0097919Y0042047D02*
X0097919Y0033540D01*
X0095083Y0036376D01*
X0092247Y0033540D01*
X0101455Y0034958D02*
X0101455Y0040629D01*
X0102873Y0042047D01*
X0105709Y0042047D01*
X0107126Y0040629D01*
X0107126Y0034958D01*
X0105709Y0033540D01*
X0102873Y0033540D01*
X0101455Y0034958D01*
X0110663Y0034958D02*
X0112081Y0033540D01*
X0114916Y0033540D01*
X0116334Y0034958D01*
X0114916Y0037794D02*
X0112081Y0037794D01*
X0110663Y0036376D01*
X0110663Y0034958D01*
X0114916Y0037794D02*
X0116334Y0039211D01*
X0116334Y0040629D01*
X0114916Y0042047D01*
X0112081Y0042047D01*
X0110663Y0040629D01*
X0107871Y0048540D02*
X0107871Y0057047D01*
X0104334Y0052794D02*
X0102916Y0054211D01*
X0100081Y0054211D01*
X0098663Y0052794D01*
X0098663Y0049958D01*
X0100081Y0048540D01*
X0102916Y0048540D01*
X0104334Y0049958D01*
X0104334Y0052794D01*
X0107871Y0048540D02*
X0113542Y0057047D01*
X0113542Y0048540D01*
X0117078Y0049958D02*
X0118496Y0048540D01*
X0122750Y0048540D01*
X0122750Y0045704D02*
X0122750Y0054211D01*
X0118496Y0054211D01*
X0117078Y0052794D01*
X0117078Y0049958D01*
X0129078Y0042047D02*
X0131914Y0042047D01*
X0130496Y0042047D02*
X0130496Y0034958D01*
X0131914Y0033540D01*
X0133332Y0033540D01*
X0134750Y0034958D01*
X0095126Y0049958D02*
X0095126Y0052794D01*
X0093709Y0054211D01*
X0089455Y0054211D01*
X0085919Y0052794D02*
X0084501Y0054211D01*
X0081665Y0054211D01*
X0080247Y0052794D01*
X0080247Y0051376D01*
X0085919Y0051376D01*
X0085919Y0049958D02*
X0085919Y0052794D01*
X0085919Y0049958D02*
X0084501Y0048540D01*
X0081665Y0048540D01*
X0089455Y0048540D02*
X0093709Y0048540D01*
X0095126Y0049958D01*
X0089455Y0048540D02*
X0089455Y0057047D01*
D12*
X0041804Y0045577D02*
X0041104Y0045577D01*
X0039702Y0045577D02*
X0036199Y0045577D01*
X0035499Y0044876D01*
X0035499Y0044175D01*
X0037601Y0047245D02*
X0036900Y0047945D01*
X0036900Y0049346D01*
X0037601Y0050047D01*
X0039002Y0050047D01*
X0039702Y0049346D01*
X0039702Y0047945D01*
X0039002Y0047245D01*
X0037601Y0047245D01*
X0036900Y0051849D02*
X0039702Y0051849D01*
X0039702Y0053950D01*
X0039002Y0054651D01*
X0036900Y0054651D01*
X0036900Y0056453D02*
X0036900Y0058554D01*
X0037601Y0059255D01*
X0038301Y0058554D01*
X0038301Y0057153D01*
X0039002Y0056453D01*
X0039702Y0057153D01*
X0039702Y0059255D01*
X0039002Y0061056D02*
X0037601Y0061056D01*
X0036900Y0061757D01*
X0036900Y0063158D01*
X0037601Y0063859D01*
X0039002Y0063859D01*
X0039702Y0063158D01*
X0039702Y0061757D01*
X0039002Y0061056D01*
X0039702Y0065660D02*
X0037601Y0065660D01*
X0036900Y0066361D01*
X0037601Y0067062D01*
X0036900Y0067762D01*
X0037601Y0068463D01*
X0039702Y0068463D01*
X0039702Y0070264D02*
X0036900Y0070264D01*
X0039002Y0071665D02*
X0039702Y0070965D01*
X0039702Y0070264D01*
X0039002Y0071665D02*
X0036900Y0071665D01*
X0036900Y0073067D02*
X0039002Y0073067D01*
X0039702Y0072366D01*
X0039002Y0071665D01*
X0037601Y0074868D02*
X0038301Y0075569D01*
X0038301Y0077671D01*
X0039002Y0077671D02*
X0036900Y0077671D01*
X0036900Y0075569D01*
X0037601Y0074868D01*
X0039702Y0075569D02*
X0039702Y0076970D01*
X0039002Y0077671D01*
X0039702Y0079472D02*
X0036900Y0079472D01*
X0039702Y0079472D02*
X0039702Y0081574D01*
X0039002Y0082275D01*
X0036900Y0082275D01*
X0036900Y0084076D02*
X0036900Y0084777D01*
X0037601Y0084777D01*
X0037601Y0084076D01*
X0036900Y0084076D01*
X0037601Y0086378D02*
X0036900Y0087079D01*
X0036900Y0089180D01*
X0039702Y0089180D02*
X0039702Y0087079D01*
X0039002Y0086378D01*
X0037601Y0086378D01*
X0037601Y0090982D02*
X0036900Y0091683D01*
X0036900Y0093084D01*
X0037601Y0093784D01*
X0039002Y0093784D01*
X0039702Y0093084D01*
X0039702Y0091683D01*
X0039002Y0090982D01*
X0037601Y0090982D01*
X0036900Y0095586D02*
X0039702Y0095586D01*
X0039702Y0096286D01*
X0039002Y0096987D01*
X0039702Y0097688D01*
X0039002Y0098388D01*
X0036900Y0098388D01*
X0036900Y0096987D02*
X0039002Y0096987D01*
M02*
