G75*
%MOIN*%
%OFA0B0*%
%FSLAX25Y25*%
%IPPOS*%
%LPD*%
%AMOC8*
5,1,8,0,0,1.08239X$1,22.5*
%
%ADD10C,0.00000*%
%ADD11C,0.05200*%
%ADD12OC8,0.05150*%
%ADD13OC8,0.04362*%
%ADD14C,0.15024*%
%ADD15R,0.08268X0.08268*%
%ADD16R,0.16000X0.06000*%
%ADD17C,0.23000*%
%ADD18C,0.01000*%
%ADD19C,0.02700*%
%ADD20C,0.01600*%
%ADD21C,0.01200*%
D10*
X0010374Y0025790D02*
X0191476Y0025790D01*
X0191666Y0025792D01*
X0191856Y0025799D01*
X0192046Y0025811D01*
X0192236Y0025827D01*
X0192425Y0025847D01*
X0192614Y0025873D01*
X0192802Y0025902D01*
X0192989Y0025937D01*
X0193175Y0025976D01*
X0193360Y0026019D01*
X0193545Y0026067D01*
X0193728Y0026119D01*
X0193909Y0026175D01*
X0194089Y0026236D01*
X0194268Y0026302D01*
X0194445Y0026371D01*
X0194621Y0026445D01*
X0194794Y0026523D01*
X0194966Y0026606D01*
X0195135Y0026692D01*
X0195303Y0026782D01*
X0195468Y0026877D01*
X0195631Y0026975D01*
X0195791Y0027078D01*
X0195949Y0027184D01*
X0196104Y0027294D01*
X0196257Y0027407D01*
X0196407Y0027525D01*
X0196553Y0027646D01*
X0196697Y0027770D01*
X0196838Y0027898D01*
X0196976Y0028029D01*
X0197111Y0028164D01*
X0197242Y0028302D01*
X0197370Y0028443D01*
X0197494Y0028587D01*
X0197615Y0028733D01*
X0197733Y0028883D01*
X0197846Y0029036D01*
X0197956Y0029191D01*
X0198062Y0029349D01*
X0198165Y0029509D01*
X0198263Y0029672D01*
X0198358Y0029837D01*
X0198448Y0030005D01*
X0198534Y0030174D01*
X0198617Y0030346D01*
X0198695Y0030519D01*
X0198769Y0030695D01*
X0198838Y0030872D01*
X0198904Y0031051D01*
X0198965Y0031231D01*
X0199021Y0031412D01*
X0199073Y0031595D01*
X0199121Y0031780D01*
X0199164Y0031965D01*
X0199203Y0032151D01*
X0199238Y0032338D01*
X0199267Y0032526D01*
X0199293Y0032715D01*
X0199313Y0032904D01*
X0199329Y0033094D01*
X0199341Y0033284D01*
X0199348Y0033474D01*
X0199350Y0033664D01*
X0199350Y0108467D01*
X0199348Y0108657D01*
X0199341Y0108847D01*
X0199329Y0109037D01*
X0199313Y0109227D01*
X0199293Y0109416D01*
X0199267Y0109605D01*
X0199238Y0109793D01*
X0199203Y0109980D01*
X0199164Y0110166D01*
X0199121Y0110351D01*
X0199073Y0110536D01*
X0199021Y0110719D01*
X0198965Y0110900D01*
X0198904Y0111080D01*
X0198838Y0111259D01*
X0198769Y0111436D01*
X0198695Y0111612D01*
X0198617Y0111785D01*
X0198534Y0111957D01*
X0198448Y0112126D01*
X0198358Y0112294D01*
X0198263Y0112459D01*
X0198165Y0112622D01*
X0198062Y0112782D01*
X0197956Y0112940D01*
X0197846Y0113095D01*
X0197733Y0113248D01*
X0197615Y0113398D01*
X0197494Y0113544D01*
X0197370Y0113688D01*
X0197242Y0113829D01*
X0197111Y0113967D01*
X0196976Y0114102D01*
X0196838Y0114233D01*
X0196697Y0114361D01*
X0196553Y0114485D01*
X0196407Y0114606D01*
X0196257Y0114724D01*
X0196104Y0114837D01*
X0195949Y0114947D01*
X0195791Y0115053D01*
X0195631Y0115156D01*
X0195468Y0115254D01*
X0195303Y0115349D01*
X0195135Y0115439D01*
X0194966Y0115525D01*
X0194794Y0115608D01*
X0194621Y0115686D01*
X0194445Y0115760D01*
X0194268Y0115829D01*
X0194089Y0115895D01*
X0193909Y0115956D01*
X0193728Y0116012D01*
X0193545Y0116064D01*
X0193360Y0116112D01*
X0193175Y0116155D01*
X0192989Y0116194D01*
X0192802Y0116229D01*
X0192614Y0116258D01*
X0192425Y0116284D01*
X0192236Y0116304D01*
X0192046Y0116320D01*
X0191856Y0116332D01*
X0191666Y0116339D01*
X0191476Y0116341D01*
X0010374Y0116341D01*
X0010184Y0116339D01*
X0009994Y0116332D01*
X0009804Y0116320D01*
X0009614Y0116304D01*
X0009425Y0116284D01*
X0009236Y0116258D01*
X0009048Y0116229D01*
X0008861Y0116194D01*
X0008675Y0116155D01*
X0008490Y0116112D01*
X0008305Y0116064D01*
X0008122Y0116012D01*
X0007941Y0115956D01*
X0007761Y0115895D01*
X0007582Y0115829D01*
X0007405Y0115760D01*
X0007229Y0115686D01*
X0007056Y0115608D01*
X0006884Y0115525D01*
X0006715Y0115439D01*
X0006547Y0115349D01*
X0006382Y0115254D01*
X0006219Y0115156D01*
X0006059Y0115053D01*
X0005901Y0114947D01*
X0005746Y0114837D01*
X0005593Y0114724D01*
X0005443Y0114606D01*
X0005297Y0114485D01*
X0005153Y0114361D01*
X0005012Y0114233D01*
X0004874Y0114102D01*
X0004739Y0113967D01*
X0004608Y0113829D01*
X0004480Y0113688D01*
X0004356Y0113544D01*
X0004235Y0113398D01*
X0004117Y0113248D01*
X0004004Y0113095D01*
X0003894Y0112940D01*
X0003788Y0112782D01*
X0003685Y0112622D01*
X0003587Y0112459D01*
X0003492Y0112294D01*
X0003402Y0112126D01*
X0003316Y0111957D01*
X0003233Y0111785D01*
X0003155Y0111612D01*
X0003081Y0111436D01*
X0003012Y0111259D01*
X0002946Y0111080D01*
X0002885Y0110900D01*
X0002829Y0110719D01*
X0002777Y0110536D01*
X0002729Y0110351D01*
X0002686Y0110166D01*
X0002647Y0109980D01*
X0002612Y0109793D01*
X0002583Y0109605D01*
X0002557Y0109416D01*
X0002537Y0109227D01*
X0002521Y0109037D01*
X0002509Y0108847D01*
X0002502Y0108657D01*
X0002500Y0108467D01*
X0002500Y0033664D01*
X0002502Y0033474D01*
X0002509Y0033284D01*
X0002521Y0033094D01*
X0002537Y0032904D01*
X0002557Y0032715D01*
X0002583Y0032526D01*
X0002612Y0032338D01*
X0002647Y0032151D01*
X0002686Y0031965D01*
X0002729Y0031780D01*
X0002777Y0031595D01*
X0002829Y0031412D01*
X0002885Y0031231D01*
X0002946Y0031051D01*
X0003012Y0030872D01*
X0003081Y0030695D01*
X0003155Y0030519D01*
X0003233Y0030346D01*
X0003316Y0030174D01*
X0003402Y0030005D01*
X0003492Y0029837D01*
X0003587Y0029672D01*
X0003685Y0029509D01*
X0003788Y0029349D01*
X0003894Y0029191D01*
X0004004Y0029036D01*
X0004117Y0028883D01*
X0004235Y0028733D01*
X0004356Y0028587D01*
X0004480Y0028443D01*
X0004608Y0028302D01*
X0004739Y0028164D01*
X0004874Y0028029D01*
X0005012Y0027898D01*
X0005153Y0027770D01*
X0005297Y0027646D01*
X0005443Y0027525D01*
X0005593Y0027407D01*
X0005746Y0027294D01*
X0005901Y0027184D01*
X0006059Y0027078D01*
X0006219Y0026975D01*
X0006382Y0026877D01*
X0006547Y0026782D01*
X0006715Y0026692D01*
X0006884Y0026606D01*
X0007056Y0026523D01*
X0007229Y0026445D01*
X0007405Y0026371D01*
X0007582Y0026302D01*
X0007761Y0026236D01*
X0007941Y0026175D01*
X0008122Y0026119D01*
X0008305Y0026067D01*
X0008490Y0026019D01*
X0008675Y0025976D01*
X0008861Y0025937D01*
X0009048Y0025902D01*
X0009236Y0025873D01*
X0009425Y0025847D01*
X0009614Y0025827D01*
X0009804Y0025811D01*
X0009994Y0025799D01*
X0010184Y0025792D01*
X0010374Y0025790D01*
D11*
X0066000Y0106790D03*
X0085000Y0106790D03*
D12*
X0146563Y0038790D03*
X0154437Y0038790D03*
D13*
X0142500Y0102290D03*
X0137500Y0102290D03*
X0132500Y0102290D03*
X0127500Y0102290D03*
X0122500Y0102290D03*
X0122500Y0107290D03*
X0127500Y0107290D03*
X0132500Y0107290D03*
X0137500Y0107290D03*
X0142500Y0107290D03*
D14*
X0168657Y0069790D03*
X0188343Y0069790D03*
D15*
X0178500Y0080814D03*
D16*
X0011500Y0080790D03*
X0011500Y0060790D03*
D17*
X0018248Y0041538D03*
X0018248Y0100593D03*
X0183602Y0100593D03*
X0183602Y0041538D03*
D18*
X0196197Y0044762D02*
X0197850Y0044762D01*
X0197850Y0045760D02*
X0195930Y0045760D01*
X0195716Y0046556D02*
X0194005Y0049520D01*
X0191585Y0051941D01*
X0188620Y0053652D01*
X0185314Y0054538D01*
X0181891Y0054538D01*
X0178585Y0053652D01*
X0175620Y0051941D01*
X0173200Y0049520D01*
X0171488Y0046556D01*
X0170602Y0043249D01*
X0170602Y0039826D01*
X0171488Y0036520D01*
X0173200Y0033556D01*
X0175620Y0031135D01*
X0178585Y0029424D01*
X0181891Y0028538D01*
X0185314Y0028538D01*
X0188620Y0029424D01*
X0191585Y0031135D01*
X0194005Y0033556D01*
X0195716Y0036520D01*
X0196602Y0039826D01*
X0196602Y0043249D01*
X0195716Y0046556D01*
X0195599Y0046759D02*
X0197850Y0046759D01*
X0197850Y0047757D02*
X0195023Y0047757D01*
X0194446Y0048756D02*
X0197850Y0048756D01*
X0197850Y0049754D02*
X0193771Y0049754D01*
X0192772Y0050753D02*
X0197850Y0050753D01*
X0197850Y0051751D02*
X0191774Y0051751D01*
X0190183Y0052750D02*
X0197850Y0052750D01*
X0197850Y0053748D02*
X0188261Y0053748D01*
X0197850Y0054747D02*
X0004000Y0054747D01*
X0004000Y0055745D02*
X0197850Y0055745D01*
X0197850Y0056744D02*
X0020575Y0056744D01*
X0020700Y0056869D02*
X0020898Y0057211D01*
X0021000Y0057592D01*
X0021000Y0060290D01*
X0012000Y0060290D01*
X0012000Y0061290D01*
X0011000Y0061290D01*
X0011000Y0065290D01*
X0004000Y0065290D01*
X0004000Y0076290D01*
X0011000Y0076290D01*
X0011000Y0080290D01*
X0012000Y0080290D01*
X0012000Y0081290D01*
X0011000Y0081290D01*
X0011000Y0085290D01*
X0004000Y0085290D01*
X0004000Y0108467D01*
X0004078Y0109464D01*
X0004695Y0111361D01*
X0005867Y0112974D01*
X0007480Y0114146D01*
X0009377Y0114763D01*
X0010374Y0114841D01*
X0191476Y0114841D01*
X0192473Y0114763D01*
X0194370Y0114146D01*
X0195983Y0112974D01*
X0197156Y0111361D01*
X0197772Y0109464D01*
X0197850Y0108467D01*
X0197850Y0033664D01*
X0197772Y0032667D01*
X0197156Y0030770D01*
X0195983Y0029157D01*
X0194370Y0027985D01*
X0192473Y0027368D01*
X0191476Y0027290D01*
X0010374Y0027290D01*
X0009377Y0027368D01*
X0007480Y0027985D01*
X0005867Y0029157D01*
X0004695Y0030770D01*
X0004078Y0032667D01*
X0004000Y0033664D01*
X0004000Y0056290D01*
X0011000Y0056290D01*
X0011000Y0060290D01*
X0012000Y0060290D01*
X0012000Y0056290D01*
X0019697Y0056290D01*
X0020079Y0056392D01*
X0020421Y0056590D01*
X0020700Y0056869D01*
X0021000Y0057742D02*
X0197850Y0057742D01*
X0197850Y0058741D02*
X0021000Y0058741D01*
X0021000Y0059739D02*
X0197850Y0059739D01*
X0197850Y0060738D02*
X0099478Y0060738D01*
X0099114Y0060374D02*
X0099916Y0061176D01*
X0100350Y0062223D01*
X0100350Y0063357D01*
X0099916Y0064404D01*
X0099114Y0065206D01*
X0098800Y0065336D01*
X0098800Y0073837D01*
X0102000Y0077037D01*
X0102547Y0076490D01*
X0106453Y0076490D01*
X0107800Y0077837D01*
X0109800Y0079837D01*
X0109800Y0086743D01*
X0108453Y0088090D01*
X0108350Y0088193D01*
X0108350Y0088357D01*
X0107916Y0089404D01*
X0107114Y0090206D01*
X0106067Y0090640D01*
X0104933Y0090640D01*
X0103886Y0090206D01*
X0103084Y0089404D01*
X0102665Y0088392D01*
X0102067Y0088640D01*
X0100933Y0088640D01*
X0100350Y0088398D01*
X0100350Y0089357D01*
X0099916Y0090404D01*
X0099114Y0091206D01*
X0098067Y0091640D01*
X0096933Y0091640D01*
X0095886Y0091206D01*
X0095084Y0090404D01*
X0094650Y0089357D01*
X0094650Y0088223D01*
X0095084Y0087176D01*
X0095400Y0086859D01*
X0095400Y0085660D01*
X0091630Y0081890D01*
X0088370Y0081890D01*
X0087370Y0082890D01*
X0081630Y0082890D01*
X0080400Y0081660D01*
X0080288Y0081548D01*
X0080067Y0081640D01*
X0078933Y0081640D01*
X0077886Y0081206D01*
X0077084Y0080404D01*
X0076650Y0079357D01*
X0076650Y0078223D01*
X0077084Y0077176D01*
X0077886Y0076374D01*
X0078933Y0075940D01*
X0080067Y0075940D01*
X0081114Y0076374D01*
X0081742Y0077001D01*
X0082084Y0076176D01*
X0082886Y0075374D01*
X0083933Y0074940D01*
X0085067Y0074940D01*
X0086114Y0075374D01*
X0086430Y0075690D01*
X0091430Y0075690D01*
X0091400Y0075660D01*
X0091400Y0066660D01*
X0090380Y0065640D01*
X0089933Y0065640D01*
X0088886Y0065206D01*
X0088084Y0064404D01*
X0087650Y0063357D01*
X0087650Y0062223D01*
X0088084Y0061176D01*
X0088886Y0060374D01*
X0089933Y0059940D01*
X0091067Y0059940D01*
X0092114Y0060374D01*
X0092916Y0061176D01*
X0093350Y0062223D01*
X0093350Y0062670D01*
X0094200Y0063520D01*
X0094200Y0062837D01*
X0094650Y0062387D01*
X0094650Y0062223D01*
X0095084Y0061176D01*
X0095886Y0060374D01*
X0096933Y0059940D01*
X0098067Y0059940D01*
X0099114Y0060374D01*
X0100148Y0061736D02*
X0164552Y0061736D01*
X0163553Y0062150D02*
X0166865Y0060778D01*
X0170450Y0060778D01*
X0173762Y0062150D01*
X0176297Y0064685D01*
X0177669Y0067997D01*
X0177669Y0071582D01*
X0176297Y0074895D01*
X0176012Y0075180D01*
X0180988Y0075180D01*
X0180703Y0074895D01*
X0179331Y0071582D01*
X0179331Y0067997D01*
X0180703Y0064685D01*
X0183238Y0062150D01*
X0186550Y0060778D01*
X0190135Y0060778D01*
X0193447Y0062150D01*
X0195982Y0064685D01*
X0197354Y0067997D01*
X0197354Y0071582D01*
X0195982Y0074895D01*
X0193447Y0077430D01*
X0190135Y0078802D01*
X0186550Y0078802D01*
X0184134Y0077801D01*
X0184134Y0085569D01*
X0183255Y0086447D01*
X0173745Y0086447D01*
X0172866Y0085569D01*
X0172866Y0077801D01*
X0170450Y0078802D01*
X0166865Y0078802D01*
X0163553Y0077430D01*
X0161018Y0074895D01*
X0159646Y0071582D01*
X0159646Y0067997D01*
X0161018Y0064685D01*
X0163553Y0062150D01*
X0162968Y0062735D02*
X0100350Y0062735D01*
X0100194Y0063733D02*
X0161969Y0063733D01*
X0160998Y0064732D02*
X0099589Y0064732D01*
X0098800Y0065730D02*
X0160585Y0065730D01*
X0160171Y0066729D02*
X0098800Y0066729D01*
X0098800Y0067727D02*
X0159757Y0067727D01*
X0159646Y0068726D02*
X0098800Y0068726D01*
X0098800Y0069724D02*
X0159646Y0069724D01*
X0159646Y0070723D02*
X0098800Y0070723D01*
X0098800Y0071721D02*
X0159703Y0071721D01*
X0160117Y0072720D02*
X0098800Y0072720D01*
X0098800Y0073718D02*
X0160530Y0073718D01*
X0160944Y0074717D02*
X0099680Y0074717D01*
X0100678Y0075715D02*
X0161838Y0075715D01*
X0162837Y0076714D02*
X0106677Y0076714D01*
X0107675Y0077713D02*
X0164235Y0077713D01*
X0166646Y0078711D02*
X0108674Y0078711D01*
X0109672Y0079710D02*
X0172866Y0079710D01*
X0172866Y0080708D02*
X0109800Y0080708D01*
X0109800Y0081707D02*
X0172866Y0081707D01*
X0172866Y0082705D02*
X0109800Y0082705D01*
X0109800Y0083704D02*
X0172866Y0083704D01*
X0172866Y0084702D02*
X0109800Y0084702D01*
X0109800Y0085701D02*
X0172998Y0085701D01*
X0175620Y0090190D02*
X0178585Y0088479D01*
X0181891Y0087593D01*
X0185314Y0087593D01*
X0188620Y0088479D01*
X0191585Y0090190D01*
X0194005Y0092611D01*
X0195716Y0095575D01*
X0196602Y0098882D01*
X0196602Y0102305D01*
X0195716Y0105611D01*
X0194005Y0108575D01*
X0191585Y0110996D01*
X0188620Y0112707D01*
X0185314Y0113593D01*
X0181891Y0113593D01*
X0178585Y0112707D01*
X0175620Y0110996D01*
X0173200Y0108575D01*
X0171488Y0105611D01*
X0170602Y0102305D01*
X0170602Y0098882D01*
X0171488Y0095575D01*
X0173200Y0092611D01*
X0175620Y0090190D01*
X0175117Y0090693D02*
X0099627Y0090693D01*
X0100210Y0089695D02*
X0103374Y0089695D01*
X0102791Y0088696D02*
X0100350Y0088696D01*
X0095400Y0086699D02*
X0089350Y0086699D01*
X0089350Y0086223D02*
X0089350Y0087357D01*
X0088916Y0088404D01*
X0088114Y0089206D01*
X0087067Y0089640D01*
X0085933Y0089640D01*
X0084886Y0089206D01*
X0084569Y0088890D01*
X0080430Y0088890D01*
X0080114Y0089206D01*
X0079067Y0089640D01*
X0077933Y0089640D01*
X0076886Y0089206D01*
X0076084Y0088404D01*
X0075650Y0087357D01*
X0075650Y0086223D01*
X0076084Y0085176D01*
X0076886Y0084374D01*
X0077933Y0083940D01*
X0079067Y0083940D01*
X0080114Y0084374D01*
X0080430Y0084690D01*
X0084569Y0084690D01*
X0084886Y0084374D01*
X0085933Y0083940D01*
X0087067Y0083940D01*
X0088114Y0084374D01*
X0088916Y0085176D01*
X0089350Y0086223D01*
X0089134Y0085701D02*
X0095400Y0085701D01*
X0094442Y0084702D02*
X0088443Y0084702D01*
X0087555Y0082705D02*
X0092445Y0082705D01*
X0093444Y0083704D02*
X0053300Y0083704D01*
X0053300Y0083520D02*
X0053300Y0093059D01*
X0053416Y0093176D01*
X0053850Y0094223D01*
X0053850Y0095357D01*
X0053416Y0096404D01*
X0052614Y0097206D01*
X0051567Y0097640D01*
X0050433Y0097640D01*
X0049386Y0097206D01*
X0048584Y0096404D01*
X0048150Y0095357D01*
X0048150Y0094223D01*
X0048584Y0093176D01*
X0048700Y0093059D01*
X0048700Y0083520D01*
X0048584Y0083404D01*
X0048150Y0082357D01*
X0048150Y0081223D01*
X0048584Y0080176D01*
X0049386Y0079374D01*
X0050433Y0078940D01*
X0051567Y0078940D01*
X0052614Y0079374D01*
X0053416Y0080176D01*
X0053850Y0081223D01*
X0053850Y0082357D01*
X0053416Y0083404D01*
X0053300Y0083520D01*
X0053706Y0082705D02*
X0081445Y0082705D01*
X0080447Y0081707D02*
X0053850Y0081707D01*
X0053637Y0080708D02*
X0077388Y0080708D01*
X0076796Y0079710D02*
X0052950Y0079710D01*
X0049050Y0079710D02*
X0021000Y0079710D01*
X0021000Y0080290D02*
X0021000Y0077592D01*
X0020898Y0077211D01*
X0020700Y0076869D01*
X0020421Y0076590D01*
X0020079Y0076392D01*
X0019697Y0076290D01*
X0012000Y0076290D01*
X0012000Y0080290D01*
X0021000Y0080290D01*
X0021000Y0081290D02*
X0021000Y0083987D01*
X0020898Y0084369D01*
X0020700Y0084711D01*
X0020421Y0084990D01*
X0020079Y0085188D01*
X0019697Y0085290D01*
X0012000Y0085290D01*
X0012000Y0081290D01*
X0021000Y0081290D01*
X0021000Y0081707D02*
X0048150Y0081707D01*
X0048294Y0082705D02*
X0021000Y0082705D01*
X0021000Y0083704D02*
X0048700Y0083704D01*
X0048700Y0084702D02*
X0020705Y0084702D01*
X0019960Y0087593D02*
X0016537Y0087593D01*
X0013230Y0088479D01*
X0010266Y0090190D01*
X0007845Y0092611D01*
X0006134Y0095575D01*
X0005248Y0098882D01*
X0005248Y0102305D01*
X0006134Y0105611D01*
X0007845Y0108575D01*
X0010266Y0110996D01*
X0013230Y0112707D01*
X0016537Y0113593D01*
X0019960Y0113593D01*
X0023266Y0112707D01*
X0026230Y0110996D01*
X0028651Y0108575D01*
X0030362Y0105611D01*
X0031248Y0102305D01*
X0031248Y0098882D01*
X0030362Y0095575D01*
X0028651Y0092611D01*
X0026230Y0090190D01*
X0023266Y0088479D01*
X0019960Y0087593D01*
X0020350Y0087698D02*
X0048700Y0087698D01*
X0048700Y0088696D02*
X0023642Y0088696D01*
X0025371Y0089695D02*
X0048700Y0089695D01*
X0048700Y0090693D02*
X0026733Y0090693D01*
X0027731Y0091692D02*
X0048700Y0091692D01*
X0048700Y0092690D02*
X0028696Y0092690D01*
X0029273Y0093689D02*
X0048371Y0093689D01*
X0048150Y0094687D02*
X0029849Y0094687D01*
X0030392Y0095686D02*
X0048286Y0095686D01*
X0048864Y0096684D02*
X0030659Y0096684D01*
X0030927Y0097683D02*
X0170924Y0097683D01*
X0170656Y0098681D02*
X0144097Y0098681D01*
X0144025Y0098609D02*
X0146181Y0100765D01*
X0146181Y0102199D01*
X0142591Y0102199D01*
X0142591Y0102380D01*
X0146181Y0102380D01*
X0146181Y0103815D01*
X0145206Y0104790D01*
X0146181Y0105765D01*
X0146181Y0108815D01*
X0144025Y0110971D01*
X0140975Y0110971D01*
X0140000Y0109996D01*
X0139025Y0110971D01*
X0135975Y0110971D01*
X0135000Y0109996D01*
X0134025Y0110971D01*
X0130975Y0110971D01*
X0130000Y0109996D01*
X0129025Y0110971D01*
X0125975Y0110971D01*
X0125000Y0109996D01*
X0124025Y0110971D01*
X0120975Y0110971D01*
X0118819Y0108815D01*
X0118819Y0105765D01*
X0119794Y0104790D01*
X0118819Y0103815D01*
X0118819Y0100765D01*
X0120975Y0098609D01*
X0124025Y0098609D01*
X0125000Y0099584D01*
X0125975Y0098609D01*
X0127409Y0098609D01*
X0127409Y0102199D01*
X0127591Y0102199D01*
X0127591Y0102380D01*
X0131181Y0102380D01*
X0132409Y0102380D01*
X0132409Y0102199D01*
X0127591Y0102199D01*
X0127591Y0098609D01*
X0129025Y0098609D01*
X0130000Y0099584D01*
X0130975Y0098609D01*
X0132409Y0098609D01*
X0132409Y0102199D01*
X0132591Y0102199D01*
X0132591Y0102380D01*
X0137409Y0102380D01*
X0137409Y0102199D01*
X0133819Y0102199D01*
X0132591Y0102199D01*
X0132591Y0098609D01*
X0134025Y0098609D01*
X0135000Y0099584D01*
X0135975Y0098609D01*
X0137409Y0098609D01*
X0137409Y0102199D01*
X0137591Y0102199D01*
X0137591Y0102380D01*
X0142409Y0102380D01*
X0142409Y0102199D01*
X0138819Y0102199D01*
X0137591Y0102199D01*
X0137591Y0098609D01*
X0139025Y0098609D01*
X0140000Y0099584D01*
X0140975Y0098609D01*
X0142409Y0098609D01*
X0142409Y0102199D01*
X0142591Y0102199D01*
X0142591Y0098609D01*
X0144025Y0098609D01*
X0142591Y0098681D02*
X0142409Y0098681D01*
X0142409Y0099680D02*
X0142591Y0099680D01*
X0142591Y0100678D02*
X0142409Y0100678D01*
X0142409Y0101677D02*
X0142591Y0101677D01*
X0145096Y0099680D02*
X0170602Y0099680D01*
X0170602Y0100678D02*
X0146094Y0100678D01*
X0146181Y0101677D02*
X0170602Y0101677D01*
X0170702Y0102675D02*
X0146181Y0102675D01*
X0146181Y0103674D02*
X0170969Y0103674D01*
X0171237Y0104672D02*
X0145323Y0104672D01*
X0146087Y0105671D02*
X0171523Y0105671D01*
X0172099Y0106669D02*
X0146181Y0106669D01*
X0146181Y0107668D02*
X0172676Y0107668D01*
X0173291Y0108666D02*
X0146181Y0108666D01*
X0145331Y0109665D02*
X0174289Y0109665D01*
X0175288Y0110663D02*
X0144332Y0110663D01*
X0140668Y0110663D02*
X0139332Y0110663D01*
X0135668Y0110663D02*
X0134332Y0110663D01*
X0130668Y0110663D02*
X0129332Y0110663D01*
X0125668Y0110663D02*
X0124332Y0110663D01*
X0120668Y0110663D02*
X0086347Y0110663D01*
X0086574Y0110590D02*
X0085960Y0110789D01*
X0085323Y0110890D01*
X0085300Y0110890D01*
X0085300Y0107090D01*
X0084700Y0107090D01*
X0084700Y0110890D01*
X0084677Y0110890D01*
X0084040Y0110789D01*
X0083426Y0110590D01*
X0082851Y0110297D01*
X0082329Y0109917D01*
X0081873Y0109461D01*
X0081493Y0108939D01*
X0081200Y0108364D01*
X0081001Y0107750D01*
X0080900Y0107113D01*
X0080900Y0107090D01*
X0084700Y0107090D01*
X0084700Y0106490D01*
X0080900Y0106490D01*
X0080900Y0106467D01*
X0081001Y0105830D01*
X0081200Y0105216D01*
X0081493Y0104641D01*
X0081873Y0104119D01*
X0082329Y0103663D01*
X0082851Y0103283D01*
X0083426Y0102990D01*
X0084040Y0102791D01*
X0084677Y0102690D01*
X0084700Y0102690D01*
X0084700Y0106490D01*
X0085300Y0106490D01*
X0085300Y0107090D01*
X0089100Y0107090D01*
X0089100Y0107113D01*
X0088999Y0107750D01*
X0088800Y0108364D01*
X0088507Y0108939D01*
X0088127Y0109461D01*
X0087671Y0109917D01*
X0087149Y0110297D01*
X0086574Y0110590D01*
X0085300Y0110663D02*
X0084700Y0110663D01*
X0084700Y0109665D02*
X0085300Y0109665D01*
X0085300Y0108666D02*
X0084700Y0108666D01*
X0084700Y0107668D02*
X0085300Y0107668D01*
X0085300Y0106669D02*
X0118819Y0106669D01*
X0118819Y0107668D02*
X0089012Y0107668D01*
X0088645Y0108666D02*
X0118819Y0108666D01*
X0119669Y0109665D02*
X0087923Y0109665D01*
X0089100Y0106490D02*
X0085300Y0106490D01*
X0085300Y0102690D01*
X0085323Y0102690D01*
X0085960Y0102791D01*
X0086574Y0102990D01*
X0087149Y0103283D01*
X0087671Y0103663D01*
X0088127Y0104119D01*
X0088507Y0104641D01*
X0088800Y0105216D01*
X0088999Y0105830D01*
X0089100Y0106467D01*
X0089100Y0106490D01*
X0088947Y0105671D02*
X0118913Y0105671D01*
X0119677Y0104672D02*
X0088523Y0104672D01*
X0087682Y0103674D02*
X0118819Y0103674D01*
X0118819Y0102675D02*
X0031149Y0102675D01*
X0031248Y0101677D02*
X0118819Y0101677D01*
X0118906Y0100678D02*
X0031248Y0100678D01*
X0031248Y0099680D02*
X0119904Y0099680D01*
X0120903Y0098681D02*
X0031194Y0098681D01*
X0030881Y0103674D02*
X0063318Y0103674D01*
X0063678Y0103314D02*
X0065184Y0102690D01*
X0066816Y0102690D01*
X0068322Y0103314D01*
X0069476Y0104467D01*
X0070100Y0105974D01*
X0070100Y0107605D01*
X0069476Y0109112D01*
X0068322Y0110266D01*
X0066816Y0110890D01*
X0065184Y0110890D01*
X0063678Y0110266D01*
X0062524Y0109112D01*
X0061900Y0107605D01*
X0061900Y0105974D01*
X0062524Y0104467D01*
X0063678Y0103314D01*
X0062439Y0104672D02*
X0030614Y0104672D01*
X0030327Y0105671D02*
X0062026Y0105671D01*
X0061900Y0106669D02*
X0029751Y0106669D01*
X0029175Y0107668D02*
X0061926Y0107668D01*
X0062339Y0108666D02*
X0028560Y0108666D01*
X0027561Y0109665D02*
X0063077Y0109665D01*
X0064638Y0110663D02*
X0026562Y0110663D01*
X0025076Y0111662D02*
X0176774Y0111662D01*
X0178504Y0112660D02*
X0023347Y0112660D01*
X0013149Y0112660D02*
X0005639Y0112660D01*
X0004913Y0111662D02*
X0011420Y0111662D01*
X0009934Y0110663D02*
X0004468Y0110663D01*
X0004144Y0109665D02*
X0008935Y0109665D01*
X0007937Y0108666D02*
X0004016Y0108666D01*
X0004000Y0107668D02*
X0007322Y0107668D01*
X0006745Y0106669D02*
X0004000Y0106669D01*
X0004000Y0105671D02*
X0006169Y0105671D01*
X0005882Y0104672D02*
X0004000Y0104672D01*
X0004000Y0103674D02*
X0005615Y0103674D01*
X0005347Y0102675D02*
X0004000Y0102675D01*
X0004000Y0101677D02*
X0005248Y0101677D01*
X0005248Y0100678D02*
X0004000Y0100678D01*
X0004000Y0099680D02*
X0005248Y0099680D01*
X0005302Y0098681D02*
X0004000Y0098681D01*
X0004000Y0097683D02*
X0005569Y0097683D01*
X0005837Y0096684D02*
X0004000Y0096684D01*
X0004000Y0095686D02*
X0006104Y0095686D01*
X0006647Y0094687D02*
X0004000Y0094687D01*
X0004000Y0093689D02*
X0007223Y0093689D01*
X0007800Y0092690D02*
X0004000Y0092690D01*
X0004000Y0091692D02*
X0008765Y0091692D01*
X0009763Y0090693D02*
X0004000Y0090693D01*
X0004000Y0089695D02*
X0011125Y0089695D01*
X0012854Y0088696D02*
X0004000Y0088696D01*
X0004000Y0087698D02*
X0016146Y0087698D01*
X0012000Y0084702D02*
X0011000Y0084702D01*
X0011000Y0083704D02*
X0012000Y0083704D01*
X0012000Y0082705D02*
X0011000Y0082705D01*
X0011000Y0081707D02*
X0012000Y0081707D01*
X0012000Y0080708D02*
X0048363Y0080708D01*
X0048700Y0085701D02*
X0004000Y0085701D01*
X0004000Y0086699D02*
X0048700Y0086699D01*
X0053300Y0086699D02*
X0075650Y0086699D01*
X0075791Y0087698D02*
X0053300Y0087698D01*
X0053300Y0088696D02*
X0076376Y0088696D01*
X0075866Y0085701D02*
X0053300Y0085701D01*
X0053300Y0084702D02*
X0076557Y0084702D01*
X0079500Y0078790D02*
X0080500Y0078790D01*
X0076861Y0077713D02*
X0021000Y0077713D01*
X0021000Y0078711D02*
X0076650Y0078711D01*
X0077545Y0076714D02*
X0020545Y0076714D01*
X0012000Y0076714D02*
X0011000Y0076714D01*
X0011000Y0077713D02*
X0012000Y0077713D01*
X0012000Y0078711D02*
X0011000Y0078711D01*
X0011000Y0079710D02*
X0012000Y0079710D01*
X0004000Y0075715D02*
X0082544Y0075715D01*
X0081861Y0076714D02*
X0081455Y0076714D01*
X0091400Y0074717D02*
X0004000Y0074717D01*
X0004000Y0073718D02*
X0091400Y0073718D01*
X0091400Y0072720D02*
X0004000Y0072720D01*
X0004000Y0071721D02*
X0091400Y0071721D01*
X0091400Y0070723D02*
X0004000Y0070723D01*
X0004000Y0069724D02*
X0091400Y0069724D01*
X0091400Y0068726D02*
X0004000Y0068726D01*
X0004000Y0067727D02*
X0091400Y0067727D01*
X0091400Y0066729D02*
X0004000Y0066729D01*
X0004000Y0065730D02*
X0090471Y0065730D01*
X0088411Y0064732D02*
X0020679Y0064732D01*
X0020700Y0064711D02*
X0020421Y0064990D01*
X0020079Y0065188D01*
X0019697Y0065290D01*
X0012000Y0065290D01*
X0012000Y0061290D01*
X0021000Y0061290D01*
X0021000Y0063987D01*
X0020898Y0064369D01*
X0020700Y0064711D01*
X0021000Y0063733D02*
X0087806Y0063733D01*
X0087650Y0062735D02*
X0021000Y0062735D01*
X0021000Y0061736D02*
X0087852Y0061736D01*
X0088522Y0060738D02*
X0012000Y0060738D01*
X0012000Y0061736D02*
X0011000Y0061736D01*
X0011000Y0062735D02*
X0012000Y0062735D01*
X0012000Y0063733D02*
X0011000Y0063733D01*
X0011000Y0064732D02*
X0012000Y0064732D01*
X0012000Y0059739D02*
X0011000Y0059739D01*
X0011000Y0058741D02*
X0012000Y0058741D01*
X0012000Y0057742D02*
X0011000Y0057742D01*
X0011000Y0056744D02*
X0012000Y0056744D01*
X0013230Y0053652D02*
X0016537Y0054538D01*
X0019960Y0054538D01*
X0023266Y0053652D01*
X0026230Y0051941D01*
X0028651Y0049520D01*
X0030362Y0046556D01*
X0031248Y0043249D01*
X0031248Y0039826D01*
X0030362Y0036520D01*
X0028651Y0033556D01*
X0026230Y0031135D01*
X0023266Y0029424D01*
X0019960Y0028538D01*
X0016537Y0028538D01*
X0013230Y0029424D01*
X0010266Y0031135D01*
X0007845Y0033556D01*
X0006134Y0036520D01*
X0005248Y0039826D01*
X0005248Y0043249D01*
X0006134Y0046556D01*
X0007845Y0049520D01*
X0010266Y0051941D01*
X0013230Y0053652D01*
X0013589Y0053748D02*
X0004000Y0053748D01*
X0004000Y0052750D02*
X0011667Y0052750D01*
X0010077Y0051751D02*
X0004000Y0051751D01*
X0004000Y0050753D02*
X0009078Y0050753D01*
X0008079Y0049754D02*
X0004000Y0049754D01*
X0004000Y0048756D02*
X0007404Y0048756D01*
X0006828Y0047757D02*
X0004000Y0047757D01*
X0004000Y0046759D02*
X0006251Y0046759D01*
X0005921Y0045760D02*
X0004000Y0045760D01*
X0004000Y0044762D02*
X0005653Y0044762D01*
X0005386Y0043763D02*
X0004000Y0043763D01*
X0004000Y0042765D02*
X0005248Y0042765D01*
X0005248Y0041766D02*
X0004000Y0041766D01*
X0004000Y0040768D02*
X0005248Y0040768D01*
X0005263Y0039769D02*
X0004000Y0039769D01*
X0004000Y0038771D02*
X0005531Y0038771D01*
X0005798Y0037772D02*
X0004000Y0037772D01*
X0004000Y0036774D02*
X0006066Y0036774D01*
X0006564Y0035775D02*
X0004000Y0035775D01*
X0004000Y0034777D02*
X0007141Y0034777D01*
X0007717Y0033778D02*
X0004000Y0033778D01*
X0004070Y0032780D02*
X0008622Y0032780D01*
X0009620Y0031781D02*
X0004366Y0031781D01*
X0004691Y0030782D02*
X0010877Y0030782D01*
X0012607Y0029784D02*
X0005411Y0029784D01*
X0006378Y0028785D02*
X0015613Y0028785D01*
X0020883Y0028785D02*
X0180967Y0028785D01*
X0177961Y0029784D02*
X0023890Y0029784D01*
X0025619Y0030782D02*
X0176231Y0030782D01*
X0174975Y0031781D02*
X0026876Y0031781D01*
X0027874Y0032780D02*
X0173976Y0032780D01*
X0173071Y0033778D02*
X0028779Y0033778D01*
X0029355Y0034777D02*
X0144814Y0034777D01*
X0144875Y0034715D02*
X0148251Y0034715D01*
X0150500Y0036964D01*
X0152749Y0034715D01*
X0154150Y0034715D01*
X0154150Y0038502D01*
X0154724Y0038502D01*
X0154724Y0034715D01*
X0156125Y0034715D01*
X0158512Y0037102D01*
X0158512Y0038502D01*
X0154724Y0038502D01*
X0154724Y0039077D01*
X0154150Y0039077D01*
X0154150Y0042865D01*
X0152749Y0042865D01*
X0150500Y0040616D01*
X0148251Y0042865D01*
X0144875Y0042865D01*
X0142488Y0040478D01*
X0142488Y0037102D01*
X0144875Y0034715D01*
X0143815Y0035775D02*
X0029932Y0035775D01*
X0030430Y0036774D02*
X0142817Y0036774D01*
X0142488Y0037772D02*
X0030698Y0037772D01*
X0030965Y0038771D02*
X0142488Y0038771D01*
X0142488Y0039769D02*
X0031233Y0039769D01*
X0031248Y0040768D02*
X0142778Y0040768D01*
X0143777Y0041766D02*
X0031248Y0041766D01*
X0031248Y0042765D02*
X0144775Y0042765D01*
X0148351Y0042765D02*
X0152649Y0042765D01*
X0151651Y0041766D02*
X0149349Y0041766D01*
X0150348Y0040768D02*
X0150652Y0040768D01*
X0154150Y0040768D02*
X0154724Y0040768D01*
X0154724Y0041766D02*
X0154150Y0041766D01*
X0154150Y0042765D02*
X0154724Y0042765D01*
X0154724Y0042865D02*
X0156125Y0042865D01*
X0158512Y0040478D01*
X0158512Y0039077D01*
X0154724Y0039077D01*
X0154724Y0042865D01*
X0156225Y0042765D02*
X0170602Y0042765D01*
X0170602Y0041766D02*
X0157223Y0041766D01*
X0158222Y0040768D02*
X0170602Y0040768D01*
X0170618Y0039769D02*
X0158512Y0039769D01*
X0158512Y0037772D02*
X0171153Y0037772D01*
X0171420Y0036774D02*
X0158183Y0036774D01*
X0157185Y0035775D02*
X0171918Y0035775D01*
X0172495Y0034777D02*
X0156186Y0034777D01*
X0154724Y0034777D02*
X0154150Y0034777D01*
X0154150Y0035775D02*
X0154724Y0035775D01*
X0154724Y0036774D02*
X0154150Y0036774D01*
X0154150Y0037772D02*
X0154724Y0037772D01*
X0154724Y0038771D02*
X0170885Y0038771D01*
X0170740Y0043763D02*
X0077504Y0043763D01*
X0077114Y0043374D02*
X0077916Y0044176D01*
X0078350Y0045223D01*
X0078350Y0046357D01*
X0077965Y0047285D01*
X0078620Y0047940D01*
X0079067Y0047940D01*
X0080114Y0048374D01*
X0080916Y0049176D01*
X0081350Y0050223D01*
X0081350Y0051357D01*
X0080916Y0052404D01*
X0080114Y0053206D01*
X0079067Y0053640D01*
X0077933Y0053640D01*
X0076886Y0053206D01*
X0076084Y0052404D01*
X0075650Y0051357D01*
X0075650Y0050910D01*
X0073400Y0048660D01*
X0073400Y0047720D01*
X0073084Y0047404D01*
X0072650Y0046357D01*
X0072650Y0045223D01*
X0073084Y0044176D01*
X0073886Y0043374D01*
X0074933Y0042940D01*
X0076067Y0042940D01*
X0077114Y0043374D01*
X0078159Y0044762D02*
X0171008Y0044762D01*
X0171275Y0045760D02*
X0078350Y0045760D01*
X0078184Y0046759D02*
X0171605Y0046759D01*
X0172182Y0047757D02*
X0078437Y0047757D01*
X0080496Y0048756D02*
X0172758Y0048756D01*
X0173434Y0049754D02*
X0081156Y0049754D01*
X0081350Y0050753D02*
X0174432Y0050753D01*
X0175431Y0051751D02*
X0081187Y0051751D01*
X0080571Y0052750D02*
X0177022Y0052750D01*
X0178944Y0053748D02*
X0022907Y0053748D01*
X0024829Y0052750D02*
X0076429Y0052750D01*
X0075813Y0051751D02*
X0026420Y0051751D01*
X0027418Y0050753D02*
X0075493Y0050753D01*
X0074494Y0049754D02*
X0028417Y0049754D01*
X0029092Y0048756D02*
X0073496Y0048756D01*
X0073400Y0047757D02*
X0029668Y0047757D01*
X0030245Y0046759D02*
X0072816Y0046759D01*
X0072650Y0045760D02*
X0030575Y0045760D01*
X0030843Y0044762D02*
X0072841Y0044762D01*
X0073496Y0043763D02*
X0031110Y0043763D01*
X0008089Y0027787D02*
X0193762Y0027787D01*
X0195472Y0028785D02*
X0186238Y0028785D01*
X0189244Y0029784D02*
X0196439Y0029784D01*
X0197160Y0030782D02*
X0190973Y0030782D01*
X0192230Y0031781D02*
X0197484Y0031781D01*
X0197781Y0032780D02*
X0193229Y0032780D01*
X0194133Y0033778D02*
X0197850Y0033778D01*
X0197850Y0034777D02*
X0194710Y0034777D01*
X0195286Y0035775D02*
X0197850Y0035775D01*
X0197850Y0036774D02*
X0195784Y0036774D01*
X0196052Y0037772D02*
X0197850Y0037772D01*
X0197850Y0038771D02*
X0196319Y0038771D01*
X0196587Y0039769D02*
X0197850Y0039769D01*
X0197850Y0040768D02*
X0196602Y0040768D01*
X0196602Y0041766D02*
X0197850Y0041766D01*
X0197850Y0042765D02*
X0196602Y0042765D01*
X0196465Y0043763D02*
X0197850Y0043763D01*
X0197850Y0061736D02*
X0192448Y0061736D01*
X0194032Y0062735D02*
X0197850Y0062735D01*
X0197850Y0063733D02*
X0195031Y0063733D01*
X0196002Y0064732D02*
X0197850Y0064732D01*
X0197850Y0065730D02*
X0196415Y0065730D01*
X0196829Y0066729D02*
X0197850Y0066729D01*
X0197850Y0067727D02*
X0197242Y0067727D01*
X0197354Y0068726D02*
X0197850Y0068726D01*
X0197850Y0069724D02*
X0197354Y0069724D01*
X0197354Y0070723D02*
X0197850Y0070723D01*
X0197850Y0071721D02*
X0197297Y0071721D01*
X0196883Y0072720D02*
X0197850Y0072720D01*
X0197850Y0073718D02*
X0196470Y0073718D01*
X0196056Y0074717D02*
X0197850Y0074717D01*
X0197850Y0075715D02*
X0195162Y0075715D01*
X0194163Y0076714D02*
X0197850Y0076714D01*
X0197850Y0077713D02*
X0192765Y0077713D01*
X0190354Y0078711D02*
X0197850Y0078711D01*
X0197850Y0079710D02*
X0184134Y0079710D01*
X0184134Y0080708D02*
X0197850Y0080708D01*
X0197850Y0081707D02*
X0184134Y0081707D01*
X0184134Y0082705D02*
X0197850Y0082705D01*
X0197850Y0083704D02*
X0184134Y0083704D01*
X0184134Y0084702D02*
X0197850Y0084702D01*
X0197850Y0085701D02*
X0184002Y0085701D01*
X0185704Y0087698D02*
X0197850Y0087698D01*
X0197850Y0088696D02*
X0188996Y0088696D01*
X0190726Y0089695D02*
X0197850Y0089695D01*
X0197850Y0090693D02*
X0192087Y0090693D01*
X0193086Y0091692D02*
X0197850Y0091692D01*
X0197850Y0092690D02*
X0194051Y0092690D01*
X0194627Y0093689D02*
X0197850Y0093689D01*
X0197850Y0094687D02*
X0195204Y0094687D01*
X0195746Y0095686D02*
X0197850Y0095686D01*
X0197850Y0096684D02*
X0196014Y0096684D01*
X0196281Y0097683D02*
X0197850Y0097683D01*
X0197850Y0098681D02*
X0196549Y0098681D01*
X0196602Y0099680D02*
X0197850Y0099680D01*
X0197850Y0100678D02*
X0196602Y0100678D01*
X0196602Y0101677D02*
X0197850Y0101677D01*
X0197850Y0102675D02*
X0196503Y0102675D01*
X0196235Y0103674D02*
X0197850Y0103674D01*
X0197850Y0104672D02*
X0195968Y0104672D01*
X0195682Y0105671D02*
X0197850Y0105671D01*
X0197850Y0106669D02*
X0195105Y0106669D01*
X0194529Y0107668D02*
X0197850Y0107668D01*
X0197835Y0108666D02*
X0193914Y0108666D01*
X0192915Y0109665D02*
X0197707Y0109665D01*
X0197382Y0110663D02*
X0191917Y0110663D01*
X0190431Y0111662D02*
X0196937Y0111662D01*
X0196211Y0112660D02*
X0188701Y0112660D01*
X0192797Y0114657D02*
X0009053Y0114657D01*
X0006809Y0113659D02*
X0195041Y0113659D01*
X0171191Y0096684D02*
X0053136Y0096684D01*
X0053714Y0095686D02*
X0171459Y0095686D01*
X0172001Y0094687D02*
X0053850Y0094687D01*
X0053629Y0093689D02*
X0172577Y0093689D01*
X0173154Y0092690D02*
X0053300Y0092690D01*
X0053300Y0091692D02*
X0174119Y0091692D01*
X0176479Y0089695D02*
X0107626Y0089695D01*
X0108209Y0088696D02*
X0178208Y0088696D01*
X0181501Y0087698D02*
X0108845Y0087698D01*
X0109800Y0086699D02*
X0197850Y0086699D01*
X0186331Y0078711D02*
X0184134Y0078711D01*
X0180629Y0074717D02*
X0176371Y0074717D01*
X0176785Y0073718D02*
X0180215Y0073718D01*
X0179802Y0072720D02*
X0177198Y0072720D01*
X0177612Y0071721D02*
X0179388Y0071721D01*
X0179331Y0070723D02*
X0177669Y0070723D01*
X0177669Y0069724D02*
X0179331Y0069724D01*
X0179331Y0068726D02*
X0177669Y0068726D01*
X0177557Y0067727D02*
X0179443Y0067727D01*
X0179856Y0066729D02*
X0177144Y0066729D01*
X0176730Y0065730D02*
X0180270Y0065730D01*
X0180683Y0064732D02*
X0176317Y0064732D01*
X0175346Y0063733D02*
X0181654Y0063733D01*
X0182653Y0062735D02*
X0174347Y0062735D01*
X0172763Y0061736D02*
X0184237Y0061736D01*
X0172866Y0078711D02*
X0170669Y0078711D01*
X0140903Y0098681D02*
X0139097Y0098681D01*
X0137591Y0098681D02*
X0137409Y0098681D01*
X0137409Y0099680D02*
X0137591Y0099680D01*
X0137591Y0100678D02*
X0137409Y0100678D01*
X0137409Y0101677D02*
X0137591Y0101677D01*
X0132591Y0101677D02*
X0132409Y0101677D01*
X0132409Y0100678D02*
X0132591Y0100678D01*
X0132591Y0099680D02*
X0132409Y0099680D01*
X0132409Y0098681D02*
X0132591Y0098681D01*
X0134097Y0098681D02*
X0135903Y0098681D01*
X0130903Y0098681D02*
X0129097Y0098681D01*
X0127591Y0098681D02*
X0127409Y0098681D01*
X0127409Y0099680D02*
X0127591Y0099680D01*
X0127591Y0100678D02*
X0127409Y0100678D01*
X0127409Y0101677D02*
X0127591Y0101677D01*
X0125903Y0098681D02*
X0124097Y0098681D01*
X0095373Y0090693D02*
X0053300Y0090693D01*
X0053300Y0089695D02*
X0094790Y0089695D01*
X0094650Y0088696D02*
X0088624Y0088696D01*
X0089209Y0087698D02*
X0094868Y0087698D01*
X0101677Y0076714D02*
X0102323Y0076714D01*
X0094302Y0062735D02*
X0093415Y0062735D01*
X0093148Y0061736D02*
X0094852Y0061736D01*
X0095522Y0060738D02*
X0092478Y0060738D01*
X0148312Y0034777D02*
X0152688Y0034777D01*
X0151689Y0035775D02*
X0149311Y0035775D01*
X0150309Y0036774D02*
X0150691Y0036774D01*
X0154150Y0039769D02*
X0154724Y0039769D01*
X0085300Y0103674D02*
X0084700Y0103674D01*
X0084700Y0104672D02*
X0085300Y0104672D01*
X0085300Y0105671D02*
X0084700Y0105671D01*
X0084700Y0106669D02*
X0070100Y0106669D01*
X0070074Y0107668D02*
X0080988Y0107668D01*
X0081355Y0108666D02*
X0069661Y0108666D01*
X0068923Y0109665D02*
X0082077Y0109665D01*
X0083653Y0110663D02*
X0067362Y0110663D01*
X0069974Y0105671D02*
X0081053Y0105671D01*
X0081477Y0104672D02*
X0069561Y0104672D01*
X0068682Y0103674D02*
X0082318Y0103674D01*
D19*
X0062500Y0090790D03*
X0062500Y0085790D03*
X0051000Y0081790D03*
X0049500Y0074790D03*
X0040500Y0074790D03*
X0040500Y0068790D03*
X0030500Y0065790D03*
X0021500Y0065790D03*
X0021500Y0055790D03*
X0009500Y0054790D03*
X0005500Y0054790D03*
X0049500Y0056790D03*
X0049500Y0066790D03*
X0078500Y0050790D03*
X0075500Y0045790D03*
X0078500Y0038790D03*
X0074500Y0034790D03*
X0074500Y0028790D03*
X0095500Y0035790D03*
X0114500Y0037790D03*
X0114500Y0045790D03*
X0114500Y0054290D03*
X0104500Y0059790D03*
X0097500Y0062790D03*
X0090500Y0062790D03*
X0079500Y0064790D03*
X0079500Y0071790D03*
X0084500Y0077790D03*
X0079500Y0078790D03*
X0090500Y0083790D03*
X0086500Y0086790D03*
X0078500Y0086790D03*
X0097500Y0088790D03*
X0101500Y0085790D03*
X0105500Y0087790D03*
X0110500Y0089790D03*
X0105500Y0097790D03*
X0114500Y0103790D03*
X0125500Y0089790D03*
X0111500Y0081790D03*
X0104500Y0081790D03*
X0110500Y0072790D03*
X0121500Y0073790D03*
X0121500Y0078790D03*
X0131500Y0080790D03*
X0141500Y0082790D03*
X0151500Y0072790D03*
X0158000Y0069290D03*
X0161500Y0077790D03*
X0161500Y0085290D03*
X0170500Y0085290D03*
X0141500Y0071790D03*
X0165500Y0059790D03*
X0113500Y0062790D03*
X0104500Y0065790D03*
X0086500Y0055790D03*
X0049500Y0041790D03*
X0049500Y0034790D03*
X0021500Y0085790D03*
X0032500Y0088790D03*
X0035500Y0095790D03*
X0051000Y0094790D03*
X0058500Y0097790D03*
X0043500Y0107790D03*
X0053500Y0112790D03*
X0009500Y0086790D03*
X0005500Y0086790D03*
D20*
X0051000Y0081790D02*
X0051000Y0094790D01*
X0096500Y0074790D02*
X0101500Y0079790D01*
X0102500Y0079790D01*
X0103500Y0078790D01*
X0105500Y0078790D01*
X0107500Y0080790D01*
X0107500Y0085790D01*
X0105500Y0087790D01*
X0096500Y0074790D02*
X0096500Y0063790D01*
X0097500Y0062790D01*
D21*
X0093500Y0065790D02*
X0090500Y0062790D01*
X0093500Y0065790D02*
X0093500Y0074790D01*
X0100500Y0081790D01*
X0104500Y0081790D01*
X0101500Y0085790D02*
X0093500Y0077790D01*
X0084500Y0077790D01*
X0082500Y0080790D02*
X0086500Y0080790D01*
X0087500Y0079790D01*
X0092500Y0079790D01*
X0097500Y0084790D01*
X0097500Y0088790D01*
X0086500Y0086790D02*
X0078500Y0086790D01*
X0082500Y0080790D02*
X0080500Y0078790D01*
X0078500Y0050790D02*
X0075500Y0047790D01*
X0075500Y0045790D01*
M02*
