G75*
%MOIN*%
%OFA0B0*%
%FSLAX25Y25*%
%IPPOS*%
%LPD*%
%AMOC8*
5,1,8,0,0,1.08239X$1,22.5*
%
%ADD10C,0.00000*%
%ADD11C,0.00800*%
%ADD12C,0.01100*%
%ADD13C,0.00394*%
%ADD14C,0.00400*%
%ADD15C,0.01600*%
%ADD16C,0.00600*%
%ADD17C,0.00500*%
%ADD18C,0.00787*%
%ADD19C,0.00200*%
%ADD20C,0.01000*%
D10*
X0010374Y0025790D02*
X0191476Y0025790D01*
X0191666Y0025792D01*
X0191856Y0025799D01*
X0192046Y0025811D01*
X0192236Y0025827D01*
X0192425Y0025847D01*
X0192614Y0025873D01*
X0192802Y0025902D01*
X0192989Y0025937D01*
X0193175Y0025976D01*
X0193360Y0026019D01*
X0193545Y0026067D01*
X0193728Y0026119D01*
X0193909Y0026175D01*
X0194089Y0026236D01*
X0194268Y0026302D01*
X0194445Y0026371D01*
X0194621Y0026445D01*
X0194794Y0026523D01*
X0194966Y0026606D01*
X0195135Y0026692D01*
X0195303Y0026782D01*
X0195468Y0026877D01*
X0195631Y0026975D01*
X0195791Y0027078D01*
X0195949Y0027184D01*
X0196104Y0027294D01*
X0196257Y0027407D01*
X0196407Y0027525D01*
X0196553Y0027646D01*
X0196697Y0027770D01*
X0196838Y0027898D01*
X0196976Y0028029D01*
X0197111Y0028164D01*
X0197242Y0028302D01*
X0197370Y0028443D01*
X0197494Y0028587D01*
X0197615Y0028733D01*
X0197733Y0028883D01*
X0197846Y0029036D01*
X0197956Y0029191D01*
X0198062Y0029349D01*
X0198165Y0029509D01*
X0198263Y0029672D01*
X0198358Y0029837D01*
X0198448Y0030005D01*
X0198534Y0030174D01*
X0198617Y0030346D01*
X0198695Y0030519D01*
X0198769Y0030695D01*
X0198838Y0030872D01*
X0198904Y0031051D01*
X0198965Y0031231D01*
X0199021Y0031412D01*
X0199073Y0031595D01*
X0199121Y0031780D01*
X0199164Y0031965D01*
X0199203Y0032151D01*
X0199238Y0032338D01*
X0199267Y0032526D01*
X0199293Y0032715D01*
X0199313Y0032904D01*
X0199329Y0033094D01*
X0199341Y0033284D01*
X0199348Y0033474D01*
X0199350Y0033664D01*
X0199350Y0108467D01*
X0199348Y0108657D01*
X0199341Y0108847D01*
X0199329Y0109037D01*
X0199313Y0109227D01*
X0199293Y0109416D01*
X0199267Y0109605D01*
X0199238Y0109793D01*
X0199203Y0109980D01*
X0199164Y0110166D01*
X0199121Y0110351D01*
X0199073Y0110536D01*
X0199021Y0110719D01*
X0198965Y0110900D01*
X0198904Y0111080D01*
X0198838Y0111259D01*
X0198769Y0111436D01*
X0198695Y0111612D01*
X0198617Y0111785D01*
X0198534Y0111957D01*
X0198448Y0112126D01*
X0198358Y0112294D01*
X0198263Y0112459D01*
X0198165Y0112622D01*
X0198062Y0112782D01*
X0197956Y0112940D01*
X0197846Y0113095D01*
X0197733Y0113248D01*
X0197615Y0113398D01*
X0197494Y0113544D01*
X0197370Y0113688D01*
X0197242Y0113829D01*
X0197111Y0113967D01*
X0196976Y0114102D01*
X0196838Y0114233D01*
X0196697Y0114361D01*
X0196553Y0114485D01*
X0196407Y0114606D01*
X0196257Y0114724D01*
X0196104Y0114837D01*
X0195949Y0114947D01*
X0195791Y0115053D01*
X0195631Y0115156D01*
X0195468Y0115254D01*
X0195303Y0115349D01*
X0195135Y0115439D01*
X0194966Y0115525D01*
X0194794Y0115608D01*
X0194621Y0115686D01*
X0194445Y0115760D01*
X0194268Y0115829D01*
X0194089Y0115895D01*
X0193909Y0115956D01*
X0193728Y0116012D01*
X0193545Y0116064D01*
X0193360Y0116112D01*
X0193175Y0116155D01*
X0192989Y0116194D01*
X0192802Y0116229D01*
X0192614Y0116258D01*
X0192425Y0116284D01*
X0192236Y0116304D01*
X0192046Y0116320D01*
X0191856Y0116332D01*
X0191666Y0116339D01*
X0191476Y0116341D01*
X0010374Y0116341D01*
X0010184Y0116339D01*
X0009994Y0116332D01*
X0009804Y0116320D01*
X0009614Y0116304D01*
X0009425Y0116284D01*
X0009236Y0116258D01*
X0009048Y0116229D01*
X0008861Y0116194D01*
X0008675Y0116155D01*
X0008490Y0116112D01*
X0008305Y0116064D01*
X0008122Y0116012D01*
X0007941Y0115956D01*
X0007761Y0115895D01*
X0007582Y0115829D01*
X0007405Y0115760D01*
X0007229Y0115686D01*
X0007056Y0115608D01*
X0006884Y0115525D01*
X0006715Y0115439D01*
X0006547Y0115349D01*
X0006382Y0115254D01*
X0006219Y0115156D01*
X0006059Y0115053D01*
X0005901Y0114947D01*
X0005746Y0114837D01*
X0005593Y0114724D01*
X0005443Y0114606D01*
X0005297Y0114485D01*
X0005153Y0114361D01*
X0005012Y0114233D01*
X0004874Y0114102D01*
X0004739Y0113967D01*
X0004608Y0113829D01*
X0004480Y0113688D01*
X0004356Y0113544D01*
X0004235Y0113398D01*
X0004117Y0113248D01*
X0004004Y0113095D01*
X0003894Y0112940D01*
X0003788Y0112782D01*
X0003685Y0112622D01*
X0003587Y0112459D01*
X0003492Y0112294D01*
X0003402Y0112126D01*
X0003316Y0111957D01*
X0003233Y0111785D01*
X0003155Y0111612D01*
X0003081Y0111436D01*
X0003012Y0111259D01*
X0002946Y0111080D01*
X0002885Y0110900D01*
X0002829Y0110719D01*
X0002777Y0110536D01*
X0002729Y0110351D01*
X0002686Y0110166D01*
X0002647Y0109980D01*
X0002612Y0109793D01*
X0002583Y0109605D01*
X0002557Y0109416D01*
X0002537Y0109227D01*
X0002521Y0109037D01*
X0002509Y0108847D01*
X0002502Y0108657D01*
X0002500Y0108467D01*
X0002500Y0033664D01*
X0002502Y0033474D01*
X0002509Y0033284D01*
X0002521Y0033094D01*
X0002537Y0032904D01*
X0002557Y0032715D01*
X0002583Y0032526D01*
X0002612Y0032338D01*
X0002647Y0032151D01*
X0002686Y0031965D01*
X0002729Y0031780D01*
X0002777Y0031595D01*
X0002829Y0031412D01*
X0002885Y0031231D01*
X0002946Y0031051D01*
X0003012Y0030872D01*
X0003081Y0030695D01*
X0003155Y0030519D01*
X0003233Y0030346D01*
X0003316Y0030174D01*
X0003402Y0030005D01*
X0003492Y0029837D01*
X0003587Y0029672D01*
X0003685Y0029509D01*
X0003788Y0029349D01*
X0003894Y0029191D01*
X0004004Y0029036D01*
X0004117Y0028883D01*
X0004235Y0028733D01*
X0004356Y0028587D01*
X0004480Y0028443D01*
X0004608Y0028302D01*
X0004739Y0028164D01*
X0004874Y0028029D01*
X0005012Y0027898D01*
X0005153Y0027770D01*
X0005297Y0027646D01*
X0005443Y0027525D01*
X0005593Y0027407D01*
X0005746Y0027294D01*
X0005901Y0027184D01*
X0006059Y0027078D01*
X0006219Y0026975D01*
X0006382Y0026877D01*
X0006547Y0026782D01*
X0006715Y0026692D01*
X0006884Y0026606D01*
X0007056Y0026523D01*
X0007229Y0026445D01*
X0007405Y0026371D01*
X0007582Y0026302D01*
X0007761Y0026236D01*
X0007941Y0026175D01*
X0008122Y0026119D01*
X0008305Y0026067D01*
X0008490Y0026019D01*
X0008675Y0025976D01*
X0008861Y0025937D01*
X0009048Y0025902D01*
X0009236Y0025873D01*
X0009425Y0025847D01*
X0009614Y0025827D01*
X0009804Y0025811D01*
X0009994Y0025799D01*
X0010184Y0025792D01*
X0010374Y0025790D01*
D11*
X0033896Y0028190D02*
X0037399Y0028190D01*
X0038100Y0028891D01*
X0038100Y0030292D01*
X0037399Y0030992D01*
X0033896Y0030992D01*
X0033896Y0032794D02*
X0038100Y0032794D01*
X0036699Y0032794D02*
X0033896Y0035596D01*
X0035998Y0033494D02*
X0038100Y0035596D01*
X0038100Y0037398D02*
X0033896Y0037398D01*
X0035998Y0037398D02*
X0035998Y0040200D01*
X0033896Y0040200D02*
X0038100Y0040200D01*
X0038100Y0042002D02*
X0035298Y0042002D01*
X0033896Y0043403D01*
X0035298Y0044804D01*
X0038100Y0044804D01*
X0035998Y0044804D02*
X0035998Y0042002D01*
X0041896Y0040896D02*
X0041896Y0039494D01*
X0042597Y0038794D01*
X0045399Y0038794D01*
X0042597Y0041596D01*
X0045399Y0041596D01*
X0046100Y0040896D01*
X0046100Y0039494D01*
X0045399Y0038794D01*
X0046100Y0036992D02*
X0041896Y0036992D01*
X0043298Y0035591D01*
X0041896Y0034190D01*
X0046100Y0034190D01*
X0041896Y0040896D02*
X0042597Y0041596D01*
X0045399Y0043398D02*
X0046100Y0044098D01*
X0046100Y0044799D01*
X0045399Y0045500D01*
X0041896Y0045500D01*
X0041896Y0046200D02*
X0041896Y0044799D01*
X0038100Y0047306D02*
X0037399Y0046606D01*
X0038100Y0047306D02*
X0038100Y0048707D01*
X0037399Y0049408D01*
X0036699Y0049408D01*
X0035998Y0048707D01*
X0035998Y0047306D01*
X0035298Y0046606D01*
X0034597Y0046606D01*
X0033896Y0047306D01*
X0033896Y0048707D01*
X0034597Y0049408D01*
X0035298Y0051210D02*
X0035298Y0053311D01*
X0035998Y0054012D01*
X0038100Y0054012D01*
X0037399Y0055813D02*
X0035998Y0055813D01*
X0035298Y0056514D01*
X0035298Y0057915D01*
X0035998Y0058616D01*
X0036699Y0058616D01*
X0036699Y0055813D01*
X0037399Y0055813D02*
X0038100Y0056514D01*
X0038100Y0057915D01*
X0035298Y0060417D02*
X0035298Y0061819D01*
X0034597Y0061118D02*
X0037399Y0061118D01*
X0038100Y0061819D01*
X0041896Y0055408D02*
X0046100Y0055408D01*
X0041896Y0052606D01*
X0046100Y0052606D01*
X0045399Y0050804D02*
X0044699Y0050804D01*
X0043998Y0050103D01*
X0043998Y0048702D01*
X0043298Y0048002D01*
X0042597Y0048002D01*
X0041896Y0048702D01*
X0041896Y0050103D01*
X0042597Y0050804D01*
X0045399Y0050804D02*
X0046100Y0050103D01*
X0046100Y0048702D01*
X0045399Y0048002D01*
X0038100Y0051210D02*
X0035298Y0051210D01*
X0011949Y0041538D02*
X0011951Y0041696D01*
X0011957Y0041854D01*
X0011967Y0042012D01*
X0011981Y0042170D01*
X0011999Y0042327D01*
X0012020Y0042484D01*
X0012046Y0042640D01*
X0012076Y0042796D01*
X0012109Y0042951D01*
X0012147Y0043104D01*
X0012188Y0043257D01*
X0012233Y0043409D01*
X0012282Y0043560D01*
X0012335Y0043709D01*
X0012391Y0043857D01*
X0012451Y0044003D01*
X0012515Y0044148D01*
X0012583Y0044291D01*
X0012654Y0044433D01*
X0012728Y0044573D01*
X0012806Y0044710D01*
X0012888Y0044846D01*
X0012972Y0044980D01*
X0013061Y0045111D01*
X0013152Y0045240D01*
X0013247Y0045367D01*
X0013344Y0045492D01*
X0013445Y0045614D01*
X0013549Y0045733D01*
X0013656Y0045850D01*
X0013766Y0045964D01*
X0013879Y0046075D01*
X0013994Y0046184D01*
X0014112Y0046289D01*
X0014233Y0046391D01*
X0014356Y0046491D01*
X0014482Y0046587D01*
X0014610Y0046680D01*
X0014740Y0046770D01*
X0014873Y0046856D01*
X0015008Y0046940D01*
X0015144Y0047019D01*
X0015283Y0047096D01*
X0015424Y0047168D01*
X0015566Y0047238D01*
X0015710Y0047303D01*
X0015856Y0047365D01*
X0016003Y0047423D01*
X0016152Y0047478D01*
X0016302Y0047529D01*
X0016453Y0047576D01*
X0016605Y0047619D01*
X0016758Y0047658D01*
X0016913Y0047694D01*
X0017068Y0047725D01*
X0017224Y0047753D01*
X0017380Y0047777D01*
X0017537Y0047797D01*
X0017695Y0047813D01*
X0017852Y0047825D01*
X0018011Y0047833D01*
X0018169Y0047837D01*
X0018327Y0047837D01*
X0018485Y0047833D01*
X0018644Y0047825D01*
X0018801Y0047813D01*
X0018959Y0047797D01*
X0019116Y0047777D01*
X0019272Y0047753D01*
X0019428Y0047725D01*
X0019583Y0047694D01*
X0019738Y0047658D01*
X0019891Y0047619D01*
X0020043Y0047576D01*
X0020194Y0047529D01*
X0020344Y0047478D01*
X0020493Y0047423D01*
X0020640Y0047365D01*
X0020786Y0047303D01*
X0020930Y0047238D01*
X0021072Y0047168D01*
X0021213Y0047096D01*
X0021352Y0047019D01*
X0021488Y0046940D01*
X0021623Y0046856D01*
X0021756Y0046770D01*
X0021886Y0046680D01*
X0022014Y0046587D01*
X0022140Y0046491D01*
X0022263Y0046391D01*
X0022384Y0046289D01*
X0022502Y0046184D01*
X0022617Y0046075D01*
X0022730Y0045964D01*
X0022840Y0045850D01*
X0022947Y0045733D01*
X0023051Y0045614D01*
X0023152Y0045492D01*
X0023249Y0045367D01*
X0023344Y0045240D01*
X0023435Y0045111D01*
X0023524Y0044980D01*
X0023608Y0044846D01*
X0023690Y0044710D01*
X0023768Y0044573D01*
X0023842Y0044433D01*
X0023913Y0044291D01*
X0023981Y0044148D01*
X0024045Y0044003D01*
X0024105Y0043857D01*
X0024161Y0043709D01*
X0024214Y0043560D01*
X0024263Y0043409D01*
X0024308Y0043257D01*
X0024349Y0043104D01*
X0024387Y0042951D01*
X0024420Y0042796D01*
X0024450Y0042640D01*
X0024476Y0042484D01*
X0024497Y0042327D01*
X0024515Y0042170D01*
X0024529Y0042012D01*
X0024539Y0041854D01*
X0024545Y0041696D01*
X0024547Y0041538D01*
X0024545Y0041380D01*
X0024539Y0041222D01*
X0024529Y0041064D01*
X0024515Y0040906D01*
X0024497Y0040749D01*
X0024476Y0040592D01*
X0024450Y0040436D01*
X0024420Y0040280D01*
X0024387Y0040125D01*
X0024349Y0039972D01*
X0024308Y0039819D01*
X0024263Y0039667D01*
X0024214Y0039516D01*
X0024161Y0039367D01*
X0024105Y0039219D01*
X0024045Y0039073D01*
X0023981Y0038928D01*
X0023913Y0038785D01*
X0023842Y0038643D01*
X0023768Y0038503D01*
X0023690Y0038366D01*
X0023608Y0038230D01*
X0023524Y0038096D01*
X0023435Y0037965D01*
X0023344Y0037836D01*
X0023249Y0037709D01*
X0023152Y0037584D01*
X0023051Y0037462D01*
X0022947Y0037343D01*
X0022840Y0037226D01*
X0022730Y0037112D01*
X0022617Y0037001D01*
X0022502Y0036892D01*
X0022384Y0036787D01*
X0022263Y0036685D01*
X0022140Y0036585D01*
X0022014Y0036489D01*
X0021886Y0036396D01*
X0021756Y0036306D01*
X0021623Y0036220D01*
X0021488Y0036136D01*
X0021352Y0036057D01*
X0021213Y0035980D01*
X0021072Y0035908D01*
X0020930Y0035838D01*
X0020786Y0035773D01*
X0020640Y0035711D01*
X0020493Y0035653D01*
X0020344Y0035598D01*
X0020194Y0035547D01*
X0020043Y0035500D01*
X0019891Y0035457D01*
X0019738Y0035418D01*
X0019583Y0035382D01*
X0019428Y0035351D01*
X0019272Y0035323D01*
X0019116Y0035299D01*
X0018959Y0035279D01*
X0018801Y0035263D01*
X0018644Y0035251D01*
X0018485Y0035243D01*
X0018327Y0035239D01*
X0018169Y0035239D01*
X0018011Y0035243D01*
X0017852Y0035251D01*
X0017695Y0035263D01*
X0017537Y0035279D01*
X0017380Y0035299D01*
X0017224Y0035323D01*
X0017068Y0035351D01*
X0016913Y0035382D01*
X0016758Y0035418D01*
X0016605Y0035457D01*
X0016453Y0035500D01*
X0016302Y0035547D01*
X0016152Y0035598D01*
X0016003Y0035653D01*
X0015856Y0035711D01*
X0015710Y0035773D01*
X0015566Y0035838D01*
X0015424Y0035908D01*
X0015283Y0035980D01*
X0015144Y0036057D01*
X0015008Y0036136D01*
X0014873Y0036220D01*
X0014740Y0036306D01*
X0014610Y0036396D01*
X0014482Y0036489D01*
X0014356Y0036585D01*
X0014233Y0036685D01*
X0014112Y0036787D01*
X0013994Y0036892D01*
X0013879Y0037001D01*
X0013766Y0037112D01*
X0013656Y0037226D01*
X0013549Y0037343D01*
X0013445Y0037462D01*
X0013344Y0037584D01*
X0013247Y0037709D01*
X0013152Y0037836D01*
X0013061Y0037965D01*
X0012972Y0038096D01*
X0012888Y0038230D01*
X0012806Y0038366D01*
X0012728Y0038503D01*
X0012654Y0038643D01*
X0012583Y0038785D01*
X0012515Y0038928D01*
X0012451Y0039073D01*
X0012391Y0039219D01*
X0012335Y0039367D01*
X0012282Y0039516D01*
X0012233Y0039667D01*
X0012188Y0039819D01*
X0012147Y0039972D01*
X0012109Y0040125D01*
X0012076Y0040280D01*
X0012046Y0040436D01*
X0012020Y0040592D01*
X0011999Y0040749D01*
X0011981Y0040906D01*
X0011967Y0041064D01*
X0011957Y0041222D01*
X0011951Y0041380D01*
X0011949Y0041538D01*
X0074900Y0080891D02*
X0075601Y0080190D01*
X0076301Y0080190D01*
X0077002Y0080891D01*
X0077002Y0084394D01*
X0077702Y0084394D02*
X0076301Y0084394D01*
X0084108Y0083693D02*
X0084108Y0082992D01*
X0084808Y0082292D01*
X0086210Y0082292D01*
X0086910Y0081591D01*
X0086910Y0080891D01*
X0086210Y0080190D01*
X0084808Y0080190D01*
X0084108Y0080891D01*
X0088712Y0080891D02*
X0089412Y0080190D01*
X0090814Y0080190D01*
X0091514Y0080891D01*
X0091514Y0083693D01*
X0090814Y0084394D01*
X0089412Y0084394D01*
X0088712Y0083693D01*
X0088712Y0080891D01*
X0093316Y0080190D02*
X0094717Y0081591D01*
X0096118Y0080190D01*
X0096118Y0084394D01*
X0097920Y0084394D02*
X0099321Y0082992D01*
X0100722Y0084394D01*
X0100722Y0080190D01*
X0102524Y0080190D02*
X0102524Y0082992D01*
X0103925Y0084394D01*
X0105326Y0082992D01*
X0105326Y0080190D01*
X0107127Y0080190D02*
X0107127Y0084394D01*
X0109930Y0080190D01*
X0109930Y0084394D01*
X0105326Y0082292D02*
X0102524Y0082292D01*
X0097920Y0080190D02*
X0097920Y0084394D01*
X0093316Y0084394D02*
X0093316Y0080190D01*
X0086910Y0083693D02*
X0086210Y0084394D01*
X0084808Y0084394D01*
X0084108Y0083693D01*
X0067902Y0082577D02*
X0067902Y0093601D01*
X0056878Y0093601D01*
X0056878Y0082577D01*
X0067902Y0082577D01*
X0060421Y0091239D02*
X0058059Y0091239D01*
X0058061Y0091306D01*
X0058067Y0091374D01*
X0058076Y0091440D01*
X0058090Y0091506D01*
X0058107Y0091572D01*
X0058128Y0091636D01*
X0058152Y0091699D01*
X0058180Y0091760D01*
X0058212Y0091820D01*
X0058246Y0091877D01*
X0058285Y0091933D01*
X0058326Y0091987D01*
X0058370Y0092038D01*
X0058417Y0092086D01*
X0058467Y0092132D01*
X0058519Y0092174D01*
X0058573Y0092214D01*
X0058630Y0092250D01*
X0058689Y0092284D01*
X0058749Y0092313D01*
X0058812Y0092340D01*
X0058875Y0092362D01*
X0058940Y0092381D01*
X0059005Y0092396D01*
X0059072Y0092408D01*
X0059139Y0092416D01*
X0059206Y0092420D01*
X0059274Y0092420D01*
X0059341Y0092416D01*
X0059408Y0092408D01*
X0059475Y0092396D01*
X0059540Y0092381D01*
X0059605Y0092362D01*
X0059668Y0092340D01*
X0059731Y0092313D01*
X0059791Y0092284D01*
X0059850Y0092250D01*
X0059907Y0092214D01*
X0059961Y0092174D01*
X0060013Y0092132D01*
X0060063Y0092086D01*
X0060110Y0092038D01*
X0060154Y0091987D01*
X0060195Y0091933D01*
X0060234Y0091877D01*
X0060268Y0091820D01*
X0060300Y0091760D01*
X0060328Y0091699D01*
X0060352Y0091636D01*
X0060373Y0091572D01*
X0060390Y0091506D01*
X0060404Y0091440D01*
X0060413Y0091374D01*
X0060419Y0091306D01*
X0060421Y0091239D01*
X0011949Y0100593D02*
X0011951Y0100751D01*
X0011957Y0100909D01*
X0011967Y0101067D01*
X0011981Y0101225D01*
X0011999Y0101382D01*
X0012020Y0101539D01*
X0012046Y0101695D01*
X0012076Y0101851D01*
X0012109Y0102006D01*
X0012147Y0102159D01*
X0012188Y0102312D01*
X0012233Y0102464D01*
X0012282Y0102615D01*
X0012335Y0102764D01*
X0012391Y0102912D01*
X0012451Y0103058D01*
X0012515Y0103203D01*
X0012583Y0103346D01*
X0012654Y0103488D01*
X0012728Y0103628D01*
X0012806Y0103765D01*
X0012888Y0103901D01*
X0012972Y0104035D01*
X0013061Y0104166D01*
X0013152Y0104295D01*
X0013247Y0104422D01*
X0013344Y0104547D01*
X0013445Y0104669D01*
X0013549Y0104788D01*
X0013656Y0104905D01*
X0013766Y0105019D01*
X0013879Y0105130D01*
X0013994Y0105239D01*
X0014112Y0105344D01*
X0014233Y0105446D01*
X0014356Y0105546D01*
X0014482Y0105642D01*
X0014610Y0105735D01*
X0014740Y0105825D01*
X0014873Y0105911D01*
X0015008Y0105995D01*
X0015144Y0106074D01*
X0015283Y0106151D01*
X0015424Y0106223D01*
X0015566Y0106293D01*
X0015710Y0106358D01*
X0015856Y0106420D01*
X0016003Y0106478D01*
X0016152Y0106533D01*
X0016302Y0106584D01*
X0016453Y0106631D01*
X0016605Y0106674D01*
X0016758Y0106713D01*
X0016913Y0106749D01*
X0017068Y0106780D01*
X0017224Y0106808D01*
X0017380Y0106832D01*
X0017537Y0106852D01*
X0017695Y0106868D01*
X0017852Y0106880D01*
X0018011Y0106888D01*
X0018169Y0106892D01*
X0018327Y0106892D01*
X0018485Y0106888D01*
X0018644Y0106880D01*
X0018801Y0106868D01*
X0018959Y0106852D01*
X0019116Y0106832D01*
X0019272Y0106808D01*
X0019428Y0106780D01*
X0019583Y0106749D01*
X0019738Y0106713D01*
X0019891Y0106674D01*
X0020043Y0106631D01*
X0020194Y0106584D01*
X0020344Y0106533D01*
X0020493Y0106478D01*
X0020640Y0106420D01*
X0020786Y0106358D01*
X0020930Y0106293D01*
X0021072Y0106223D01*
X0021213Y0106151D01*
X0021352Y0106074D01*
X0021488Y0105995D01*
X0021623Y0105911D01*
X0021756Y0105825D01*
X0021886Y0105735D01*
X0022014Y0105642D01*
X0022140Y0105546D01*
X0022263Y0105446D01*
X0022384Y0105344D01*
X0022502Y0105239D01*
X0022617Y0105130D01*
X0022730Y0105019D01*
X0022840Y0104905D01*
X0022947Y0104788D01*
X0023051Y0104669D01*
X0023152Y0104547D01*
X0023249Y0104422D01*
X0023344Y0104295D01*
X0023435Y0104166D01*
X0023524Y0104035D01*
X0023608Y0103901D01*
X0023690Y0103765D01*
X0023768Y0103628D01*
X0023842Y0103488D01*
X0023913Y0103346D01*
X0023981Y0103203D01*
X0024045Y0103058D01*
X0024105Y0102912D01*
X0024161Y0102764D01*
X0024214Y0102615D01*
X0024263Y0102464D01*
X0024308Y0102312D01*
X0024349Y0102159D01*
X0024387Y0102006D01*
X0024420Y0101851D01*
X0024450Y0101695D01*
X0024476Y0101539D01*
X0024497Y0101382D01*
X0024515Y0101225D01*
X0024529Y0101067D01*
X0024539Y0100909D01*
X0024545Y0100751D01*
X0024547Y0100593D01*
X0024545Y0100435D01*
X0024539Y0100277D01*
X0024529Y0100119D01*
X0024515Y0099961D01*
X0024497Y0099804D01*
X0024476Y0099647D01*
X0024450Y0099491D01*
X0024420Y0099335D01*
X0024387Y0099180D01*
X0024349Y0099027D01*
X0024308Y0098874D01*
X0024263Y0098722D01*
X0024214Y0098571D01*
X0024161Y0098422D01*
X0024105Y0098274D01*
X0024045Y0098128D01*
X0023981Y0097983D01*
X0023913Y0097840D01*
X0023842Y0097698D01*
X0023768Y0097558D01*
X0023690Y0097421D01*
X0023608Y0097285D01*
X0023524Y0097151D01*
X0023435Y0097020D01*
X0023344Y0096891D01*
X0023249Y0096764D01*
X0023152Y0096639D01*
X0023051Y0096517D01*
X0022947Y0096398D01*
X0022840Y0096281D01*
X0022730Y0096167D01*
X0022617Y0096056D01*
X0022502Y0095947D01*
X0022384Y0095842D01*
X0022263Y0095740D01*
X0022140Y0095640D01*
X0022014Y0095544D01*
X0021886Y0095451D01*
X0021756Y0095361D01*
X0021623Y0095275D01*
X0021488Y0095191D01*
X0021352Y0095112D01*
X0021213Y0095035D01*
X0021072Y0094963D01*
X0020930Y0094893D01*
X0020786Y0094828D01*
X0020640Y0094766D01*
X0020493Y0094708D01*
X0020344Y0094653D01*
X0020194Y0094602D01*
X0020043Y0094555D01*
X0019891Y0094512D01*
X0019738Y0094473D01*
X0019583Y0094437D01*
X0019428Y0094406D01*
X0019272Y0094378D01*
X0019116Y0094354D01*
X0018959Y0094334D01*
X0018801Y0094318D01*
X0018644Y0094306D01*
X0018485Y0094298D01*
X0018327Y0094294D01*
X0018169Y0094294D01*
X0018011Y0094298D01*
X0017852Y0094306D01*
X0017695Y0094318D01*
X0017537Y0094334D01*
X0017380Y0094354D01*
X0017224Y0094378D01*
X0017068Y0094406D01*
X0016913Y0094437D01*
X0016758Y0094473D01*
X0016605Y0094512D01*
X0016453Y0094555D01*
X0016302Y0094602D01*
X0016152Y0094653D01*
X0016003Y0094708D01*
X0015856Y0094766D01*
X0015710Y0094828D01*
X0015566Y0094893D01*
X0015424Y0094963D01*
X0015283Y0095035D01*
X0015144Y0095112D01*
X0015008Y0095191D01*
X0014873Y0095275D01*
X0014740Y0095361D01*
X0014610Y0095451D01*
X0014482Y0095544D01*
X0014356Y0095640D01*
X0014233Y0095740D01*
X0014112Y0095842D01*
X0013994Y0095947D01*
X0013879Y0096056D01*
X0013766Y0096167D01*
X0013656Y0096281D01*
X0013549Y0096398D01*
X0013445Y0096517D01*
X0013344Y0096639D01*
X0013247Y0096764D01*
X0013152Y0096891D01*
X0013061Y0097020D01*
X0012972Y0097151D01*
X0012888Y0097285D01*
X0012806Y0097421D01*
X0012728Y0097558D01*
X0012654Y0097698D01*
X0012583Y0097840D01*
X0012515Y0097983D01*
X0012451Y0098128D01*
X0012391Y0098274D01*
X0012335Y0098422D01*
X0012282Y0098571D01*
X0012233Y0098722D01*
X0012188Y0098874D01*
X0012147Y0099027D01*
X0012109Y0099180D01*
X0012076Y0099335D01*
X0012046Y0099491D01*
X0012020Y0099647D01*
X0011999Y0099804D01*
X0011981Y0099961D01*
X0011967Y0100119D01*
X0011957Y0100277D01*
X0011951Y0100435D01*
X0011949Y0100593D01*
X0142900Y0057992D02*
X0142900Y0055891D01*
X0143601Y0055190D01*
X0145702Y0055190D01*
X0145702Y0057992D01*
X0147504Y0056591D02*
X0149606Y0057992D01*
X0151341Y0057292D02*
X0152041Y0057992D01*
X0153442Y0057992D01*
X0154143Y0057292D01*
X0154143Y0055190D01*
X0155944Y0055891D02*
X0156645Y0056591D01*
X0158747Y0056591D01*
X0158747Y0057292D02*
X0158747Y0055190D01*
X0156645Y0055190D01*
X0155944Y0055891D01*
X0156645Y0057992D02*
X0158046Y0057992D01*
X0158747Y0057292D01*
X0160548Y0057292D02*
X0161249Y0056591D01*
X0162650Y0056591D01*
X0163351Y0055891D01*
X0162650Y0055190D01*
X0160548Y0055190D01*
X0160548Y0057292D02*
X0161249Y0057992D01*
X0163351Y0057992D01*
X0165152Y0055891D02*
X0165853Y0055891D01*
X0165853Y0055190D01*
X0165152Y0055190D01*
X0165152Y0055891D01*
X0167454Y0055190D02*
X0167454Y0057992D01*
X0169556Y0057992D01*
X0170257Y0057292D01*
X0170257Y0055190D01*
X0172058Y0055891D02*
X0172058Y0057292D01*
X0172759Y0057992D01*
X0174160Y0057992D01*
X0174861Y0057292D01*
X0174861Y0056591D01*
X0172058Y0056591D01*
X0172058Y0055891D02*
X0172759Y0055190D01*
X0174160Y0055190D01*
X0177363Y0055891D02*
X0178063Y0055190D01*
X0177363Y0055891D02*
X0177363Y0058693D01*
X0178063Y0057992D02*
X0176662Y0057992D01*
X0168657Y0059947D02*
X0199465Y0059947D01*
X0199465Y0079632D01*
X0183618Y0079632D01*
X0172988Y0079632D02*
X0168657Y0079632D01*
X0168657Y0078451D01*
X0151341Y0059394D02*
X0151341Y0055190D01*
X0149606Y0055190D02*
X0147504Y0056591D01*
X0147504Y0055190D02*
X0147504Y0059394D01*
X0163896Y0051710D02*
X0166699Y0051710D01*
X0168100Y0050309D01*
X0166699Y0048908D01*
X0163896Y0048908D01*
X0163896Y0047106D02*
X0164597Y0045705D01*
X0165998Y0044304D01*
X0165998Y0046405D01*
X0166699Y0047106D01*
X0167399Y0047106D01*
X0168100Y0046405D01*
X0168100Y0045004D01*
X0167399Y0044304D01*
X0165998Y0044304D01*
X0165998Y0042502D02*
X0165998Y0039700D01*
X0165998Y0037898D02*
X0167399Y0037898D01*
X0168100Y0037198D01*
X0168100Y0035796D01*
X0167399Y0035096D01*
X0165998Y0035096D02*
X0165298Y0036497D01*
X0165298Y0037198D01*
X0165998Y0037898D01*
X0163896Y0037898D02*
X0163896Y0035096D01*
X0165998Y0035096D01*
X0167399Y0033494D02*
X0168100Y0033494D01*
X0168100Y0032794D01*
X0167399Y0032794D01*
X0167399Y0033494D01*
X0167399Y0030992D02*
X0168100Y0030292D01*
X0168100Y0028891D01*
X0167399Y0028190D01*
X0165998Y0029591D02*
X0165998Y0030292D01*
X0166699Y0030992D01*
X0167399Y0030992D01*
X0165998Y0030292D02*
X0165298Y0030992D01*
X0164597Y0030992D01*
X0163896Y0030292D01*
X0163896Y0028891D01*
X0164597Y0028190D01*
X0177303Y0041538D02*
X0177305Y0041696D01*
X0177311Y0041854D01*
X0177321Y0042012D01*
X0177335Y0042170D01*
X0177353Y0042327D01*
X0177374Y0042484D01*
X0177400Y0042640D01*
X0177430Y0042796D01*
X0177463Y0042951D01*
X0177501Y0043104D01*
X0177542Y0043257D01*
X0177587Y0043409D01*
X0177636Y0043560D01*
X0177689Y0043709D01*
X0177745Y0043857D01*
X0177805Y0044003D01*
X0177869Y0044148D01*
X0177937Y0044291D01*
X0178008Y0044433D01*
X0178082Y0044573D01*
X0178160Y0044710D01*
X0178242Y0044846D01*
X0178326Y0044980D01*
X0178415Y0045111D01*
X0178506Y0045240D01*
X0178601Y0045367D01*
X0178698Y0045492D01*
X0178799Y0045614D01*
X0178903Y0045733D01*
X0179010Y0045850D01*
X0179120Y0045964D01*
X0179233Y0046075D01*
X0179348Y0046184D01*
X0179466Y0046289D01*
X0179587Y0046391D01*
X0179710Y0046491D01*
X0179836Y0046587D01*
X0179964Y0046680D01*
X0180094Y0046770D01*
X0180227Y0046856D01*
X0180362Y0046940D01*
X0180498Y0047019D01*
X0180637Y0047096D01*
X0180778Y0047168D01*
X0180920Y0047238D01*
X0181064Y0047303D01*
X0181210Y0047365D01*
X0181357Y0047423D01*
X0181506Y0047478D01*
X0181656Y0047529D01*
X0181807Y0047576D01*
X0181959Y0047619D01*
X0182112Y0047658D01*
X0182267Y0047694D01*
X0182422Y0047725D01*
X0182578Y0047753D01*
X0182734Y0047777D01*
X0182891Y0047797D01*
X0183049Y0047813D01*
X0183206Y0047825D01*
X0183365Y0047833D01*
X0183523Y0047837D01*
X0183681Y0047837D01*
X0183839Y0047833D01*
X0183998Y0047825D01*
X0184155Y0047813D01*
X0184313Y0047797D01*
X0184470Y0047777D01*
X0184626Y0047753D01*
X0184782Y0047725D01*
X0184937Y0047694D01*
X0185092Y0047658D01*
X0185245Y0047619D01*
X0185397Y0047576D01*
X0185548Y0047529D01*
X0185698Y0047478D01*
X0185847Y0047423D01*
X0185994Y0047365D01*
X0186140Y0047303D01*
X0186284Y0047238D01*
X0186426Y0047168D01*
X0186567Y0047096D01*
X0186706Y0047019D01*
X0186842Y0046940D01*
X0186977Y0046856D01*
X0187110Y0046770D01*
X0187240Y0046680D01*
X0187368Y0046587D01*
X0187494Y0046491D01*
X0187617Y0046391D01*
X0187738Y0046289D01*
X0187856Y0046184D01*
X0187971Y0046075D01*
X0188084Y0045964D01*
X0188194Y0045850D01*
X0188301Y0045733D01*
X0188405Y0045614D01*
X0188506Y0045492D01*
X0188603Y0045367D01*
X0188698Y0045240D01*
X0188789Y0045111D01*
X0188878Y0044980D01*
X0188962Y0044846D01*
X0189044Y0044710D01*
X0189122Y0044573D01*
X0189196Y0044433D01*
X0189267Y0044291D01*
X0189335Y0044148D01*
X0189399Y0044003D01*
X0189459Y0043857D01*
X0189515Y0043709D01*
X0189568Y0043560D01*
X0189617Y0043409D01*
X0189662Y0043257D01*
X0189703Y0043104D01*
X0189741Y0042951D01*
X0189774Y0042796D01*
X0189804Y0042640D01*
X0189830Y0042484D01*
X0189851Y0042327D01*
X0189869Y0042170D01*
X0189883Y0042012D01*
X0189893Y0041854D01*
X0189899Y0041696D01*
X0189901Y0041538D01*
X0189899Y0041380D01*
X0189893Y0041222D01*
X0189883Y0041064D01*
X0189869Y0040906D01*
X0189851Y0040749D01*
X0189830Y0040592D01*
X0189804Y0040436D01*
X0189774Y0040280D01*
X0189741Y0040125D01*
X0189703Y0039972D01*
X0189662Y0039819D01*
X0189617Y0039667D01*
X0189568Y0039516D01*
X0189515Y0039367D01*
X0189459Y0039219D01*
X0189399Y0039073D01*
X0189335Y0038928D01*
X0189267Y0038785D01*
X0189196Y0038643D01*
X0189122Y0038503D01*
X0189044Y0038366D01*
X0188962Y0038230D01*
X0188878Y0038096D01*
X0188789Y0037965D01*
X0188698Y0037836D01*
X0188603Y0037709D01*
X0188506Y0037584D01*
X0188405Y0037462D01*
X0188301Y0037343D01*
X0188194Y0037226D01*
X0188084Y0037112D01*
X0187971Y0037001D01*
X0187856Y0036892D01*
X0187738Y0036787D01*
X0187617Y0036685D01*
X0187494Y0036585D01*
X0187368Y0036489D01*
X0187240Y0036396D01*
X0187110Y0036306D01*
X0186977Y0036220D01*
X0186842Y0036136D01*
X0186706Y0036057D01*
X0186567Y0035980D01*
X0186426Y0035908D01*
X0186284Y0035838D01*
X0186140Y0035773D01*
X0185994Y0035711D01*
X0185847Y0035653D01*
X0185698Y0035598D01*
X0185548Y0035547D01*
X0185397Y0035500D01*
X0185245Y0035457D01*
X0185092Y0035418D01*
X0184937Y0035382D01*
X0184782Y0035351D01*
X0184626Y0035323D01*
X0184470Y0035299D01*
X0184313Y0035279D01*
X0184155Y0035263D01*
X0183998Y0035251D01*
X0183839Y0035243D01*
X0183681Y0035239D01*
X0183523Y0035239D01*
X0183365Y0035243D01*
X0183206Y0035251D01*
X0183049Y0035263D01*
X0182891Y0035279D01*
X0182734Y0035299D01*
X0182578Y0035323D01*
X0182422Y0035351D01*
X0182267Y0035382D01*
X0182112Y0035418D01*
X0181959Y0035457D01*
X0181807Y0035500D01*
X0181656Y0035547D01*
X0181506Y0035598D01*
X0181357Y0035653D01*
X0181210Y0035711D01*
X0181064Y0035773D01*
X0180920Y0035838D01*
X0180778Y0035908D01*
X0180637Y0035980D01*
X0180498Y0036057D01*
X0180362Y0036136D01*
X0180227Y0036220D01*
X0180094Y0036306D01*
X0179964Y0036396D01*
X0179836Y0036489D01*
X0179710Y0036585D01*
X0179587Y0036685D01*
X0179466Y0036787D01*
X0179348Y0036892D01*
X0179233Y0037001D01*
X0179120Y0037112D01*
X0179010Y0037226D01*
X0178903Y0037343D01*
X0178799Y0037462D01*
X0178698Y0037584D01*
X0178601Y0037709D01*
X0178506Y0037836D01*
X0178415Y0037965D01*
X0178326Y0038096D01*
X0178242Y0038230D01*
X0178160Y0038366D01*
X0178082Y0038503D01*
X0178008Y0038643D01*
X0177937Y0038785D01*
X0177869Y0038928D01*
X0177805Y0039073D01*
X0177745Y0039219D01*
X0177689Y0039367D01*
X0177636Y0039516D01*
X0177587Y0039667D01*
X0177542Y0039819D01*
X0177501Y0039972D01*
X0177463Y0040125D01*
X0177430Y0040280D01*
X0177400Y0040436D01*
X0177374Y0040592D01*
X0177353Y0040749D01*
X0177335Y0040906D01*
X0177321Y0041064D01*
X0177311Y0041222D01*
X0177305Y0041380D01*
X0177303Y0041538D01*
X0162606Y0099190D02*
X0161205Y0099190D01*
X0160504Y0099891D01*
X0160504Y0101292D01*
X0162606Y0101292D01*
X0163306Y0100591D01*
X0163306Y0099891D01*
X0162606Y0099190D01*
X0160504Y0101292D02*
X0161905Y0102693D01*
X0163306Y0103394D01*
X0163306Y0106690D02*
X0163306Y0109492D01*
X0161905Y0110894D01*
X0160504Y0109492D01*
X0160504Y0106690D01*
X0158002Y0107391D02*
X0158002Y0110894D01*
X0158702Y0110894D02*
X0157301Y0110894D01*
X0158002Y0107391D02*
X0157301Y0106690D01*
X0156601Y0106690D01*
X0155900Y0107391D01*
X0160504Y0108792D02*
X0163306Y0108792D01*
X0165108Y0110894D02*
X0167910Y0106690D01*
X0167910Y0110894D01*
X0165108Y0110894D02*
X0165108Y0106690D01*
X0157301Y0103394D02*
X0155900Y0101992D01*
X0157301Y0103394D02*
X0157301Y0099190D01*
X0155900Y0099190D02*
X0158702Y0099190D01*
X0151100Y0099891D02*
X0150399Y0099190D01*
X0151100Y0099891D02*
X0151100Y0101292D01*
X0150399Y0101992D01*
X0149699Y0101992D01*
X0148998Y0101292D01*
X0148998Y0099891D01*
X0148298Y0099190D01*
X0147597Y0099190D01*
X0146896Y0099891D01*
X0146896Y0101292D01*
X0147597Y0101992D01*
X0146896Y0103794D02*
X0151100Y0103794D01*
X0149699Y0105195D01*
X0151100Y0106596D01*
X0146896Y0106596D01*
X0146896Y0108398D02*
X0146896Y0110500D01*
X0147597Y0111200D01*
X0150399Y0111200D01*
X0151100Y0110500D01*
X0151100Y0108398D01*
X0146896Y0108398D01*
X0177303Y0100593D02*
X0177305Y0100751D01*
X0177311Y0100909D01*
X0177321Y0101067D01*
X0177335Y0101225D01*
X0177353Y0101382D01*
X0177374Y0101539D01*
X0177400Y0101695D01*
X0177430Y0101851D01*
X0177463Y0102006D01*
X0177501Y0102159D01*
X0177542Y0102312D01*
X0177587Y0102464D01*
X0177636Y0102615D01*
X0177689Y0102764D01*
X0177745Y0102912D01*
X0177805Y0103058D01*
X0177869Y0103203D01*
X0177937Y0103346D01*
X0178008Y0103488D01*
X0178082Y0103628D01*
X0178160Y0103765D01*
X0178242Y0103901D01*
X0178326Y0104035D01*
X0178415Y0104166D01*
X0178506Y0104295D01*
X0178601Y0104422D01*
X0178698Y0104547D01*
X0178799Y0104669D01*
X0178903Y0104788D01*
X0179010Y0104905D01*
X0179120Y0105019D01*
X0179233Y0105130D01*
X0179348Y0105239D01*
X0179466Y0105344D01*
X0179587Y0105446D01*
X0179710Y0105546D01*
X0179836Y0105642D01*
X0179964Y0105735D01*
X0180094Y0105825D01*
X0180227Y0105911D01*
X0180362Y0105995D01*
X0180498Y0106074D01*
X0180637Y0106151D01*
X0180778Y0106223D01*
X0180920Y0106293D01*
X0181064Y0106358D01*
X0181210Y0106420D01*
X0181357Y0106478D01*
X0181506Y0106533D01*
X0181656Y0106584D01*
X0181807Y0106631D01*
X0181959Y0106674D01*
X0182112Y0106713D01*
X0182267Y0106749D01*
X0182422Y0106780D01*
X0182578Y0106808D01*
X0182734Y0106832D01*
X0182891Y0106852D01*
X0183049Y0106868D01*
X0183206Y0106880D01*
X0183365Y0106888D01*
X0183523Y0106892D01*
X0183681Y0106892D01*
X0183839Y0106888D01*
X0183998Y0106880D01*
X0184155Y0106868D01*
X0184313Y0106852D01*
X0184470Y0106832D01*
X0184626Y0106808D01*
X0184782Y0106780D01*
X0184937Y0106749D01*
X0185092Y0106713D01*
X0185245Y0106674D01*
X0185397Y0106631D01*
X0185548Y0106584D01*
X0185698Y0106533D01*
X0185847Y0106478D01*
X0185994Y0106420D01*
X0186140Y0106358D01*
X0186284Y0106293D01*
X0186426Y0106223D01*
X0186567Y0106151D01*
X0186706Y0106074D01*
X0186842Y0105995D01*
X0186977Y0105911D01*
X0187110Y0105825D01*
X0187240Y0105735D01*
X0187368Y0105642D01*
X0187494Y0105546D01*
X0187617Y0105446D01*
X0187738Y0105344D01*
X0187856Y0105239D01*
X0187971Y0105130D01*
X0188084Y0105019D01*
X0188194Y0104905D01*
X0188301Y0104788D01*
X0188405Y0104669D01*
X0188506Y0104547D01*
X0188603Y0104422D01*
X0188698Y0104295D01*
X0188789Y0104166D01*
X0188878Y0104035D01*
X0188962Y0103901D01*
X0189044Y0103765D01*
X0189122Y0103628D01*
X0189196Y0103488D01*
X0189267Y0103346D01*
X0189335Y0103203D01*
X0189399Y0103058D01*
X0189459Y0102912D01*
X0189515Y0102764D01*
X0189568Y0102615D01*
X0189617Y0102464D01*
X0189662Y0102312D01*
X0189703Y0102159D01*
X0189741Y0102006D01*
X0189774Y0101851D01*
X0189804Y0101695D01*
X0189830Y0101539D01*
X0189851Y0101382D01*
X0189869Y0101225D01*
X0189883Y0101067D01*
X0189893Y0100909D01*
X0189899Y0100751D01*
X0189901Y0100593D01*
X0189899Y0100435D01*
X0189893Y0100277D01*
X0189883Y0100119D01*
X0189869Y0099961D01*
X0189851Y0099804D01*
X0189830Y0099647D01*
X0189804Y0099491D01*
X0189774Y0099335D01*
X0189741Y0099180D01*
X0189703Y0099027D01*
X0189662Y0098874D01*
X0189617Y0098722D01*
X0189568Y0098571D01*
X0189515Y0098422D01*
X0189459Y0098274D01*
X0189399Y0098128D01*
X0189335Y0097983D01*
X0189267Y0097840D01*
X0189196Y0097698D01*
X0189122Y0097558D01*
X0189044Y0097421D01*
X0188962Y0097285D01*
X0188878Y0097151D01*
X0188789Y0097020D01*
X0188698Y0096891D01*
X0188603Y0096764D01*
X0188506Y0096639D01*
X0188405Y0096517D01*
X0188301Y0096398D01*
X0188194Y0096281D01*
X0188084Y0096167D01*
X0187971Y0096056D01*
X0187856Y0095947D01*
X0187738Y0095842D01*
X0187617Y0095740D01*
X0187494Y0095640D01*
X0187368Y0095544D01*
X0187240Y0095451D01*
X0187110Y0095361D01*
X0186977Y0095275D01*
X0186842Y0095191D01*
X0186706Y0095112D01*
X0186567Y0095035D01*
X0186426Y0094963D01*
X0186284Y0094893D01*
X0186140Y0094828D01*
X0185994Y0094766D01*
X0185847Y0094708D01*
X0185698Y0094653D01*
X0185548Y0094602D01*
X0185397Y0094555D01*
X0185245Y0094512D01*
X0185092Y0094473D01*
X0184937Y0094437D01*
X0184782Y0094406D01*
X0184626Y0094378D01*
X0184470Y0094354D01*
X0184313Y0094334D01*
X0184155Y0094318D01*
X0183998Y0094306D01*
X0183839Y0094298D01*
X0183681Y0094294D01*
X0183523Y0094294D01*
X0183365Y0094298D01*
X0183206Y0094306D01*
X0183049Y0094318D01*
X0182891Y0094334D01*
X0182734Y0094354D01*
X0182578Y0094378D01*
X0182422Y0094406D01*
X0182267Y0094437D01*
X0182112Y0094473D01*
X0181959Y0094512D01*
X0181807Y0094555D01*
X0181656Y0094602D01*
X0181506Y0094653D01*
X0181357Y0094708D01*
X0181210Y0094766D01*
X0181064Y0094828D01*
X0180920Y0094893D01*
X0180778Y0094963D01*
X0180637Y0095035D01*
X0180498Y0095112D01*
X0180362Y0095191D01*
X0180227Y0095275D01*
X0180094Y0095361D01*
X0179964Y0095451D01*
X0179836Y0095544D01*
X0179710Y0095640D01*
X0179587Y0095740D01*
X0179466Y0095842D01*
X0179348Y0095947D01*
X0179233Y0096056D01*
X0179120Y0096167D01*
X0179010Y0096281D01*
X0178903Y0096398D01*
X0178799Y0096517D01*
X0178698Y0096639D01*
X0178601Y0096764D01*
X0178506Y0096891D01*
X0178415Y0097020D01*
X0178326Y0097151D01*
X0178242Y0097285D01*
X0178160Y0097421D01*
X0178082Y0097558D01*
X0178008Y0097698D01*
X0177937Y0097840D01*
X0177869Y0097983D01*
X0177805Y0098128D01*
X0177745Y0098274D01*
X0177689Y0098422D01*
X0177636Y0098571D01*
X0177587Y0098722D01*
X0177542Y0098874D01*
X0177501Y0099027D01*
X0177463Y0099180D01*
X0177430Y0099335D01*
X0177400Y0099491D01*
X0177374Y0099647D01*
X0177353Y0099804D01*
X0177335Y0099961D01*
X0177321Y0100119D01*
X0177311Y0100277D01*
X0177305Y0100435D01*
X0177303Y0100593D01*
D12*
X0107769Y0092292D02*
X0107769Y0091308D01*
X0103832Y0091308D01*
X0103832Y0090324D02*
X0103832Y0092292D01*
X0104816Y0093277D01*
X0106785Y0093277D01*
X0107769Y0092292D01*
X0104816Y0089340D02*
X0103832Y0090324D01*
X0104816Y0089340D02*
X0106785Y0089340D01*
X0101323Y0089340D02*
X0098371Y0089340D01*
X0097386Y0090324D01*
X0097386Y0092292D01*
X0098371Y0093277D01*
X0101323Y0093277D01*
X0101323Y0095245D02*
X0101323Y0089340D01*
X0094878Y0090324D02*
X0094878Y0092292D01*
X0093894Y0093277D01*
X0091925Y0093277D01*
X0090941Y0092292D01*
X0090941Y0090324D01*
X0091925Y0089340D01*
X0093894Y0089340D01*
X0094878Y0090324D01*
X0088432Y0089340D02*
X0088432Y0095245D01*
X0084495Y0095245D02*
X0088432Y0089340D01*
X0084495Y0089340D02*
X0084495Y0095245D01*
X0081987Y0092292D02*
X0081987Y0090324D01*
X0081003Y0089340D01*
X0078050Y0089340D01*
X0078050Y0087372D02*
X0078050Y0093277D01*
X0081003Y0093277D01*
X0081987Y0092292D01*
D13*
X0073453Y0075695D02*
X0067547Y0075695D01*
X0067547Y0063884D01*
X0073453Y0063884D01*
X0073453Y0075695D01*
X0065374Y0075814D02*
X0059626Y0075814D01*
X0059626Y0063766D01*
X0065374Y0063766D01*
X0065374Y0075814D01*
X0057453Y0075695D02*
X0051547Y0075695D01*
X0051547Y0063884D01*
X0057453Y0063884D01*
X0057453Y0075695D01*
X0044295Y0080136D02*
X0044295Y0086042D01*
X0032484Y0086042D01*
X0032484Y0080136D01*
X0044295Y0080136D01*
X0037343Y0079895D02*
X0031437Y0079895D01*
X0031437Y0068084D01*
X0037343Y0068084D01*
X0037343Y0079895D01*
X0029343Y0079995D02*
X0023437Y0079995D01*
X0023437Y0068184D01*
X0029343Y0068184D01*
X0029343Y0079995D01*
X0038437Y0093184D02*
X0044343Y0093184D01*
X0044343Y0104995D01*
X0038437Y0104995D01*
X0038437Y0093184D01*
X0046453Y0099184D02*
X0052358Y0099184D01*
X0052358Y0110995D01*
X0046453Y0110995D01*
X0046453Y0099184D01*
X0113547Y0084695D02*
X0113547Y0072884D01*
X0119453Y0072884D01*
X0119453Y0084695D01*
X0113547Y0084695D01*
X0123547Y0084695D02*
X0123547Y0072884D01*
X0129453Y0072884D01*
X0129453Y0084695D01*
X0123547Y0084695D01*
X0133547Y0084695D02*
X0139453Y0084695D01*
X0139453Y0072884D01*
X0133547Y0072884D01*
X0133547Y0084695D01*
X0143547Y0084695D02*
X0149453Y0084695D01*
X0149453Y0072884D01*
X0143547Y0072884D01*
X0143547Y0084695D01*
X0153547Y0084695D02*
X0153547Y0072884D01*
X0159453Y0072884D01*
X0159453Y0084695D01*
X0153547Y0084695D01*
X0141453Y0061695D02*
X0135547Y0061695D01*
X0135547Y0049884D01*
X0141453Y0049884D01*
X0141453Y0061695D01*
X0132453Y0061695D02*
X0126547Y0061695D01*
X0126547Y0049884D01*
X0132453Y0049884D01*
X0132453Y0061695D01*
X0123453Y0061695D02*
X0117547Y0061695D01*
X0117547Y0049884D01*
X0123453Y0049884D01*
X0123453Y0061695D01*
X0108453Y0041695D02*
X0102547Y0041695D01*
X0102547Y0029884D01*
X0108453Y0029884D01*
X0108453Y0041695D01*
X0094453Y0041695D02*
X0088547Y0041695D01*
X0088547Y0029884D01*
X0094453Y0029884D01*
X0094453Y0041695D01*
X0086453Y0041695D02*
X0080547Y0041695D01*
X0080547Y0029884D01*
X0086453Y0029884D01*
X0086453Y0041695D01*
X0073453Y0046884D02*
X0067547Y0046884D01*
X0067547Y0058695D01*
X0073453Y0058695D01*
X0073453Y0046884D01*
X0065453Y0046884D02*
X0059547Y0046884D01*
X0059547Y0058695D01*
X0065453Y0058695D01*
X0065453Y0046884D01*
X0057453Y0046884D02*
X0057453Y0058695D01*
X0051547Y0058695D01*
X0051547Y0046884D01*
X0057453Y0046884D01*
D14*
X0056292Y0059250D02*
X0056292Y0062053D01*
X0054891Y0060651D01*
X0056759Y0060651D01*
X0053813Y0059717D02*
X0053346Y0059250D01*
X0052411Y0059250D01*
X0051944Y0059717D01*
X0051944Y0061586D01*
X0052411Y0062053D01*
X0053346Y0062053D01*
X0053813Y0061586D01*
X0059944Y0062053D02*
X0059944Y0059250D01*
X0059944Y0060184D02*
X0061346Y0060184D01*
X0061813Y0060651D01*
X0061813Y0061586D01*
X0061346Y0062053D01*
X0059944Y0062053D01*
X0060879Y0060184D02*
X0061813Y0059250D01*
X0062891Y0060651D02*
X0064759Y0060651D01*
X0064292Y0059250D02*
X0064292Y0062053D01*
X0062891Y0060651D01*
X0067944Y0060184D02*
X0069346Y0060184D01*
X0069813Y0060651D01*
X0069813Y0061586D01*
X0069346Y0062053D01*
X0067944Y0062053D01*
X0067944Y0059250D01*
X0068879Y0060184D02*
X0069813Y0059250D01*
X0070891Y0059717D02*
X0071358Y0059250D01*
X0072292Y0059250D01*
X0072759Y0059717D01*
X0072759Y0060651D01*
X0072292Y0061119D01*
X0071825Y0061119D01*
X0070891Y0060651D01*
X0070891Y0062053D01*
X0072759Y0062053D01*
X0072358Y0076250D02*
X0071891Y0076717D01*
X0071891Y0077184D01*
X0072358Y0077651D01*
X0073292Y0077651D01*
X0073759Y0077184D01*
X0073759Y0076717D01*
X0073292Y0076250D01*
X0072358Y0076250D01*
X0070813Y0076717D02*
X0070346Y0076250D01*
X0069411Y0076250D01*
X0068944Y0076717D01*
X0068944Y0078586D01*
X0069411Y0079053D01*
X0070346Y0079053D01*
X0070813Y0078586D01*
X0071891Y0078586D02*
X0071891Y0078119D01*
X0072358Y0077651D01*
X0073292Y0077651D02*
X0073759Y0078119D01*
X0073759Y0078586D01*
X0073292Y0079053D01*
X0072358Y0079053D01*
X0071891Y0078586D01*
X0065380Y0076363D02*
X0063512Y0076363D01*
X0064446Y0076363D02*
X0064446Y0079166D01*
X0063512Y0078232D01*
X0062433Y0076363D02*
X0060565Y0076363D01*
X0060565Y0079166D01*
X0057759Y0079053D02*
X0057759Y0078586D01*
X0055891Y0076717D01*
X0055891Y0076250D01*
X0054813Y0076717D02*
X0054346Y0076250D01*
X0053411Y0076250D01*
X0052944Y0076717D01*
X0052944Y0078586D01*
X0053411Y0079053D01*
X0054346Y0079053D01*
X0054813Y0078586D01*
X0055891Y0079053D02*
X0057759Y0079053D01*
X0051515Y0079358D02*
X0051515Y0079825D01*
X0051048Y0080292D01*
X0050114Y0080292D01*
X0049647Y0079825D01*
X0051515Y0079358D02*
X0049647Y0077490D01*
X0051515Y0077490D01*
X0048568Y0077490D02*
X0046700Y0077490D01*
X0046700Y0080292D01*
X0044267Y0079164D02*
X0043800Y0079631D01*
X0042866Y0079631D01*
X0042399Y0079164D01*
X0042399Y0078697D01*
X0042866Y0078230D01*
X0044267Y0078230D01*
X0044267Y0077296D02*
X0044267Y0079164D01*
X0041321Y0079164D02*
X0040854Y0079631D01*
X0039919Y0079631D01*
X0039452Y0079164D01*
X0039452Y0077296D01*
X0039919Y0076829D01*
X0040854Y0076829D01*
X0041321Y0077296D01*
X0042399Y0077296D02*
X0042866Y0076829D01*
X0043800Y0076829D01*
X0044267Y0077296D01*
X0037058Y0067163D02*
X0036124Y0066696D01*
X0035190Y0065762D01*
X0036591Y0065762D01*
X0037058Y0065295D01*
X0037058Y0064828D01*
X0036591Y0064360D01*
X0035657Y0064360D01*
X0035190Y0064828D01*
X0035190Y0065762D01*
X0034112Y0066696D02*
X0033645Y0067163D01*
X0032711Y0067163D01*
X0032244Y0066696D01*
X0032244Y0064828D01*
X0032711Y0064360D01*
X0033645Y0064360D01*
X0034112Y0064828D01*
X0028560Y0064607D02*
X0028093Y0064140D01*
X0027159Y0064140D01*
X0026692Y0064607D01*
X0026692Y0065541D02*
X0027626Y0066008D01*
X0028093Y0066008D01*
X0028560Y0065541D01*
X0028560Y0064607D01*
X0026692Y0065541D02*
X0026692Y0066942D01*
X0028560Y0066942D01*
X0025613Y0066475D02*
X0025146Y0066942D01*
X0024212Y0066942D01*
X0023745Y0066475D01*
X0023745Y0064607D01*
X0024212Y0064140D01*
X0025146Y0064140D01*
X0025613Y0064607D01*
X0025697Y0086089D02*
X0027565Y0086089D01*
X0028643Y0086556D02*
X0029110Y0086089D01*
X0030044Y0086089D01*
X0030512Y0086556D01*
X0030512Y0087023D01*
X0030044Y0087490D01*
X0029577Y0087490D01*
X0030044Y0087490D02*
X0030512Y0087957D01*
X0030512Y0088424D01*
X0030044Y0088892D01*
X0029110Y0088892D01*
X0028643Y0088424D01*
X0025697Y0088892D02*
X0025697Y0086089D01*
X0031697Y0091089D02*
X0033565Y0091089D01*
X0034643Y0092490D02*
X0036512Y0092490D01*
X0036044Y0091089D02*
X0036044Y0093892D01*
X0034643Y0092490D01*
X0031697Y0093892D02*
X0031697Y0091089D01*
X0034594Y0098587D02*
X0036462Y0098587D01*
X0036929Y0099054D01*
X0036929Y0099988D01*
X0036462Y0100455D01*
X0036929Y0101534D02*
X0036929Y0103402D01*
X0036929Y0102468D02*
X0034127Y0102468D01*
X0035061Y0101534D01*
X0034594Y0100455D02*
X0034127Y0099988D01*
X0034127Y0099054D01*
X0034594Y0098587D01*
X0035061Y0104480D02*
X0034127Y0105414D01*
X0036929Y0105414D01*
X0036929Y0104480D02*
X0036929Y0106348D01*
X0043763Y0112402D02*
X0044230Y0111935D01*
X0045165Y0111935D01*
X0045632Y0112402D01*
X0046710Y0111935D02*
X0048578Y0111935D01*
X0047644Y0111935D02*
X0047644Y0114737D01*
X0046710Y0113803D01*
X0045632Y0114270D02*
X0045165Y0114737D01*
X0044230Y0114737D01*
X0043763Y0114270D01*
X0043763Y0112402D01*
X0049656Y0111935D02*
X0051525Y0113803D01*
X0051525Y0114270D01*
X0051058Y0114737D01*
X0050123Y0114737D01*
X0049656Y0114270D01*
X0049656Y0111935D02*
X0051525Y0111935D01*
X0050807Y0097092D02*
X0050807Y0094290D01*
X0052675Y0094290D01*
X0053753Y0094757D02*
X0054221Y0094290D01*
X0055155Y0094290D01*
X0055622Y0094757D01*
X0055622Y0095691D01*
X0055155Y0096158D01*
X0054688Y0096158D01*
X0053753Y0095691D01*
X0053753Y0097092D01*
X0055622Y0097092D01*
X0113944Y0088053D02*
X0113944Y0085250D01*
X0113944Y0086184D02*
X0115346Y0086184D01*
X0115813Y0086651D01*
X0115813Y0087586D01*
X0115346Y0088053D01*
X0113944Y0088053D01*
X0114879Y0086184D02*
X0115813Y0085250D01*
X0116891Y0085250D02*
X0118759Y0087119D01*
X0118759Y0087586D01*
X0118292Y0088053D01*
X0117358Y0088053D01*
X0116891Y0087586D01*
X0116891Y0085250D02*
X0118759Y0085250D01*
X0123944Y0085250D02*
X0123944Y0088053D01*
X0125346Y0088053D01*
X0125813Y0087586D01*
X0125813Y0086651D01*
X0125346Y0086184D01*
X0123944Y0086184D01*
X0124879Y0086184D02*
X0125813Y0085250D01*
X0126891Y0085717D02*
X0127358Y0085250D01*
X0128292Y0085250D01*
X0128759Y0085717D01*
X0128759Y0086184D01*
X0128292Y0086651D01*
X0127825Y0086651D01*
X0128292Y0086651D02*
X0128759Y0087119D01*
X0128759Y0087586D01*
X0128292Y0088053D01*
X0127358Y0088053D01*
X0126891Y0087586D01*
X0133944Y0088053D02*
X0133944Y0085250D01*
X0133944Y0086184D02*
X0135346Y0086184D01*
X0135813Y0086651D01*
X0135813Y0087586D01*
X0135346Y0088053D01*
X0133944Y0088053D01*
X0134879Y0086184D02*
X0135813Y0085250D01*
X0136891Y0085717D02*
X0136891Y0086651D01*
X0138292Y0086651D01*
X0138759Y0086184D01*
X0138759Y0085717D01*
X0138292Y0085250D01*
X0137358Y0085250D01*
X0136891Y0085717D01*
X0136891Y0086651D02*
X0137825Y0087586D01*
X0138759Y0088053D01*
X0143944Y0087586D02*
X0143944Y0085717D01*
X0144411Y0085250D01*
X0145346Y0085250D01*
X0145813Y0085717D01*
X0146891Y0085250D02*
X0148759Y0085250D01*
X0147825Y0085250D02*
X0147825Y0088053D01*
X0146891Y0087119D01*
X0145813Y0087586D02*
X0145346Y0088053D01*
X0144411Y0088053D01*
X0143944Y0087586D01*
X0153944Y0088053D02*
X0153944Y0085250D01*
X0153944Y0086184D02*
X0155346Y0086184D01*
X0155813Y0086651D01*
X0155813Y0087586D01*
X0155346Y0088053D01*
X0153944Y0088053D01*
X0154879Y0086184D02*
X0155813Y0085250D01*
X0156891Y0085250D02*
X0158759Y0085250D01*
X0157825Y0085250D02*
X0157825Y0088053D01*
X0156891Y0087119D01*
X0142292Y0065053D02*
X0142759Y0064586D01*
X0142759Y0064119D01*
X0142292Y0063651D01*
X0142759Y0063184D01*
X0142759Y0062717D01*
X0142292Y0062250D01*
X0141358Y0062250D01*
X0140891Y0062717D01*
X0139813Y0062250D02*
X0137944Y0062250D01*
X0138879Y0062250D02*
X0138879Y0065053D01*
X0137944Y0064119D01*
X0136866Y0064586D02*
X0136399Y0065053D01*
X0135465Y0065053D01*
X0134998Y0064586D01*
X0134998Y0062717D01*
X0135465Y0062250D01*
X0136399Y0062250D01*
X0136866Y0062717D01*
X0140891Y0064586D02*
X0141358Y0065053D01*
X0142292Y0065053D01*
X0142292Y0063651D02*
X0141825Y0063651D01*
X0131759Y0064586D02*
X0129891Y0062717D01*
X0129891Y0062250D01*
X0128813Y0062250D02*
X0127879Y0063184D01*
X0128346Y0063184D02*
X0126944Y0063184D01*
X0126944Y0062250D02*
X0126944Y0065053D01*
X0128346Y0065053D01*
X0128813Y0064586D01*
X0128813Y0063651D01*
X0128346Y0063184D01*
X0129891Y0065053D02*
X0131759Y0065053D01*
X0131759Y0064586D01*
X0122759Y0064586D02*
X0122759Y0064119D01*
X0122292Y0063651D01*
X0121358Y0063651D01*
X0120891Y0064119D01*
X0120891Y0064586D01*
X0121358Y0065053D01*
X0122292Y0065053D01*
X0122759Y0064586D01*
X0122292Y0063651D02*
X0122759Y0063184D01*
X0122759Y0062717D01*
X0122292Y0062250D01*
X0121358Y0062250D01*
X0120891Y0062717D01*
X0120891Y0063184D01*
X0121358Y0063651D01*
X0119813Y0063651D02*
X0119346Y0063184D01*
X0117944Y0063184D01*
X0117944Y0062250D02*
X0117944Y0065053D01*
X0119346Y0065053D01*
X0119813Y0064586D01*
X0119813Y0063651D01*
X0118879Y0063184D02*
X0119813Y0062250D01*
X0109292Y0045053D02*
X0108358Y0045053D01*
X0107891Y0044586D01*
X0107891Y0042717D01*
X0109759Y0044586D01*
X0109759Y0042717D01*
X0109292Y0042250D01*
X0108358Y0042250D01*
X0107891Y0042717D01*
X0106813Y0042250D02*
X0104944Y0042250D01*
X0105879Y0042250D02*
X0105879Y0045053D01*
X0104944Y0044119D01*
X0103866Y0044586D02*
X0103399Y0045053D01*
X0102465Y0045053D01*
X0101998Y0044586D01*
X0101998Y0042717D01*
X0102465Y0042250D01*
X0103399Y0042250D01*
X0103866Y0042717D01*
X0109292Y0045053D02*
X0109759Y0044586D01*
X0093759Y0044586D02*
X0093759Y0044119D01*
X0093292Y0043651D01*
X0093759Y0043184D01*
X0093759Y0042717D01*
X0093292Y0042250D01*
X0092358Y0042250D01*
X0091891Y0042717D01*
X0090813Y0042717D02*
X0090346Y0042250D01*
X0089411Y0042250D01*
X0088944Y0042717D01*
X0088944Y0044586D01*
X0089411Y0045053D01*
X0090346Y0045053D01*
X0090813Y0044586D01*
X0091891Y0044586D02*
X0092358Y0045053D01*
X0093292Y0045053D01*
X0093759Y0044586D01*
X0093292Y0043651D02*
X0092825Y0043651D01*
X0085759Y0044119D02*
X0085759Y0044586D01*
X0085292Y0045053D01*
X0084358Y0045053D01*
X0083891Y0044586D01*
X0082813Y0044586D02*
X0082346Y0045053D01*
X0081411Y0045053D01*
X0080944Y0044586D01*
X0080944Y0042717D01*
X0081411Y0042250D01*
X0082346Y0042250D01*
X0082813Y0042717D01*
X0083891Y0042250D02*
X0085759Y0044119D01*
X0085759Y0042250D02*
X0083891Y0042250D01*
D15*
X0054898Y0046664D02*
X0054900Y0046717D01*
X0054906Y0046769D01*
X0054916Y0046821D01*
X0054930Y0046872D01*
X0054947Y0046921D01*
X0054969Y0046969D01*
X0054993Y0047016D01*
X0055022Y0047060D01*
X0055053Y0047102D01*
X0055088Y0047142D01*
X0055126Y0047179D01*
X0055166Y0047213D01*
X0055209Y0047244D01*
X0055254Y0047271D01*
X0055301Y0047295D01*
X0055349Y0047315D01*
X0055399Y0047332D01*
X0055450Y0047345D01*
X0055502Y0047354D01*
X0055555Y0047359D01*
X0055607Y0047360D01*
X0055660Y0047357D01*
X0055712Y0047350D01*
X0055764Y0047339D01*
X0055814Y0047324D01*
X0055863Y0047306D01*
X0055911Y0047284D01*
X0055957Y0047258D01*
X0056001Y0047229D01*
X0056043Y0047196D01*
X0056081Y0047161D01*
X0056118Y0047122D01*
X0056151Y0047082D01*
X0056181Y0047038D01*
X0056207Y0046993D01*
X0056231Y0046945D01*
X0056250Y0046897D01*
X0056266Y0046846D01*
X0056278Y0046795D01*
X0056286Y0046743D01*
X0056290Y0046690D01*
X0056290Y0046638D01*
X0056286Y0046585D01*
X0056278Y0046533D01*
X0056266Y0046482D01*
X0056250Y0046431D01*
X0056231Y0046383D01*
X0056207Y0046335D01*
X0056181Y0046290D01*
X0056151Y0046246D01*
X0056118Y0046206D01*
X0056081Y0046167D01*
X0056043Y0046132D01*
X0056001Y0046099D01*
X0055957Y0046070D01*
X0055911Y0046044D01*
X0055863Y0046022D01*
X0055814Y0046004D01*
X0055764Y0045989D01*
X0055712Y0045978D01*
X0055660Y0045971D01*
X0055607Y0045968D01*
X0055555Y0045969D01*
X0055502Y0045974D01*
X0055450Y0045983D01*
X0055399Y0045996D01*
X0055349Y0046013D01*
X0055301Y0046033D01*
X0055254Y0046057D01*
X0055209Y0046084D01*
X0055166Y0046115D01*
X0055126Y0046149D01*
X0055088Y0046186D01*
X0055053Y0046226D01*
X0055022Y0046268D01*
X0054993Y0046312D01*
X0054969Y0046359D01*
X0054947Y0046407D01*
X0054930Y0046456D01*
X0054916Y0046507D01*
X0054906Y0046559D01*
X0054900Y0046611D01*
X0054898Y0046664D01*
X0063500Y0098290D02*
X0087500Y0098290D01*
X0087707Y0098293D01*
X0087914Y0098300D01*
X0088120Y0098313D01*
X0088327Y0098330D01*
X0088532Y0098353D01*
X0088738Y0098381D01*
X0088942Y0098413D01*
X0089146Y0098451D01*
X0089348Y0098493D01*
X0089550Y0098541D01*
X0089750Y0098593D01*
X0089949Y0098650D01*
X0090146Y0098712D01*
X0090342Y0098779D01*
X0090536Y0098851D01*
X0090729Y0098927D01*
X0090919Y0099008D01*
X0091108Y0099094D01*
X0091294Y0099184D01*
X0091478Y0099278D01*
X0091660Y0099378D01*
X0091839Y0099481D01*
X0092016Y0099589D01*
X0092190Y0099701D01*
X0092361Y0099817D01*
X0092530Y0099938D01*
X0092695Y0100062D01*
X0092857Y0100191D01*
X0093016Y0100323D01*
X0093172Y0100459D01*
X0093325Y0100599D01*
X0093474Y0100743D01*
X0093619Y0100890D01*
X0093761Y0101041D01*
X0093899Y0101195D01*
X0094034Y0101353D01*
X0094164Y0101513D01*
X0094290Y0101677D01*
X0094413Y0101844D01*
X0094531Y0102014D01*
X0094646Y0102187D01*
X0094756Y0102362D01*
X0094861Y0102540D01*
X0094963Y0102721D01*
X0095059Y0102903D01*
X0095152Y0103089D01*
X0095240Y0103276D01*
X0095323Y0103466D01*
X0095402Y0103657D01*
X0095476Y0103850D01*
X0095545Y0104046D01*
X0095609Y0104242D01*
X0095669Y0104440D01*
X0095724Y0104640D01*
X0095774Y0104841D01*
X0095819Y0105043D01*
X0095859Y0105246D01*
X0095894Y0105450D01*
X0095924Y0105655D01*
X0095949Y0105860D01*
X0095969Y0106066D01*
X0095984Y0106273D01*
X0095994Y0106480D01*
X0095999Y0106687D01*
X0095999Y0106893D01*
X0095994Y0107100D01*
X0095984Y0107307D01*
X0095969Y0107514D01*
X0095949Y0107720D01*
X0095924Y0107925D01*
X0095894Y0108130D01*
X0095859Y0108334D01*
X0095819Y0108537D01*
X0095774Y0108739D01*
X0095724Y0108940D01*
X0095669Y0109140D01*
X0095609Y0109338D01*
X0095545Y0109534D01*
X0095476Y0109730D01*
X0095402Y0109923D01*
X0095323Y0110114D01*
X0095240Y0110304D01*
X0095152Y0110491D01*
X0095059Y0110677D01*
X0094963Y0110859D01*
X0094861Y0111040D01*
X0094756Y0111218D01*
X0094646Y0111393D01*
X0094531Y0111566D01*
X0094413Y0111736D01*
X0094290Y0111903D01*
X0094164Y0112067D01*
X0094034Y0112227D01*
X0093899Y0112385D01*
X0093761Y0112539D01*
X0093619Y0112690D01*
X0093474Y0112837D01*
X0093325Y0112981D01*
X0093172Y0113121D01*
X0093016Y0113257D01*
X0092857Y0113389D01*
X0092695Y0113518D01*
X0092530Y0113642D01*
X0092361Y0113763D01*
X0092190Y0113879D01*
X0092016Y0113991D01*
X0091839Y0114099D01*
X0091660Y0114202D01*
X0091478Y0114302D01*
X0091294Y0114396D01*
X0091108Y0114486D01*
X0090919Y0114572D01*
X0090729Y0114653D01*
X0090536Y0114729D01*
X0090342Y0114801D01*
X0090146Y0114868D01*
X0089949Y0114930D01*
X0089750Y0114987D01*
X0089550Y0115039D01*
X0089348Y0115087D01*
X0089146Y0115129D01*
X0088942Y0115167D01*
X0088738Y0115199D01*
X0088532Y0115227D01*
X0088327Y0115250D01*
X0088120Y0115267D01*
X0087914Y0115280D01*
X0087707Y0115287D01*
X0087500Y0115290D01*
X0063500Y0115290D01*
X0063293Y0115287D01*
X0063086Y0115280D01*
X0062880Y0115267D01*
X0062673Y0115250D01*
X0062468Y0115227D01*
X0062262Y0115199D01*
X0062058Y0115167D01*
X0061854Y0115129D01*
X0061652Y0115087D01*
X0061450Y0115039D01*
X0061250Y0114987D01*
X0061051Y0114930D01*
X0060854Y0114868D01*
X0060658Y0114801D01*
X0060464Y0114729D01*
X0060271Y0114653D01*
X0060081Y0114572D01*
X0059892Y0114486D01*
X0059706Y0114396D01*
X0059522Y0114302D01*
X0059340Y0114202D01*
X0059161Y0114099D01*
X0058984Y0113991D01*
X0058810Y0113879D01*
X0058639Y0113763D01*
X0058470Y0113642D01*
X0058305Y0113518D01*
X0058143Y0113389D01*
X0057984Y0113257D01*
X0057828Y0113121D01*
X0057675Y0112981D01*
X0057526Y0112837D01*
X0057381Y0112690D01*
X0057239Y0112539D01*
X0057101Y0112385D01*
X0056966Y0112227D01*
X0056836Y0112067D01*
X0056710Y0111903D01*
X0056587Y0111736D01*
X0056469Y0111566D01*
X0056354Y0111393D01*
X0056244Y0111218D01*
X0056139Y0111040D01*
X0056037Y0110859D01*
X0055941Y0110677D01*
X0055848Y0110491D01*
X0055760Y0110304D01*
X0055677Y0110114D01*
X0055598Y0109923D01*
X0055524Y0109730D01*
X0055455Y0109534D01*
X0055391Y0109338D01*
X0055331Y0109140D01*
X0055276Y0108940D01*
X0055226Y0108739D01*
X0055181Y0108537D01*
X0055141Y0108334D01*
X0055106Y0108130D01*
X0055076Y0107925D01*
X0055051Y0107720D01*
X0055031Y0107514D01*
X0055016Y0107307D01*
X0055006Y0107100D01*
X0055001Y0106893D01*
X0055001Y0106687D01*
X0055006Y0106480D01*
X0055016Y0106273D01*
X0055031Y0106066D01*
X0055051Y0105860D01*
X0055076Y0105655D01*
X0055106Y0105450D01*
X0055141Y0105246D01*
X0055181Y0105043D01*
X0055226Y0104841D01*
X0055276Y0104640D01*
X0055331Y0104440D01*
X0055391Y0104242D01*
X0055455Y0104046D01*
X0055524Y0103850D01*
X0055598Y0103657D01*
X0055677Y0103466D01*
X0055760Y0103276D01*
X0055848Y0103089D01*
X0055941Y0102903D01*
X0056037Y0102721D01*
X0056139Y0102540D01*
X0056244Y0102362D01*
X0056354Y0102187D01*
X0056469Y0102014D01*
X0056587Y0101844D01*
X0056710Y0101677D01*
X0056836Y0101513D01*
X0056966Y0101353D01*
X0057101Y0101195D01*
X0057239Y0101041D01*
X0057381Y0100890D01*
X0057526Y0100743D01*
X0057675Y0100599D01*
X0057828Y0100459D01*
X0057984Y0100323D01*
X0058143Y0100191D01*
X0058305Y0100062D01*
X0058470Y0099938D01*
X0058639Y0099817D01*
X0058810Y0099701D01*
X0058984Y0099589D01*
X0059161Y0099481D01*
X0059340Y0099378D01*
X0059522Y0099278D01*
X0059706Y0099184D01*
X0059892Y0099094D01*
X0060081Y0099008D01*
X0060271Y0098927D01*
X0060464Y0098851D01*
X0060658Y0098779D01*
X0060854Y0098712D01*
X0061051Y0098650D01*
X0061250Y0098593D01*
X0061450Y0098541D01*
X0061652Y0098493D01*
X0061854Y0098451D01*
X0062058Y0098413D01*
X0062262Y0098381D01*
X0062468Y0098353D01*
X0062673Y0098330D01*
X0062880Y0098313D01*
X0063086Y0098300D01*
X0063293Y0098293D01*
X0063500Y0098290D01*
D16*
X0063500Y0100290D02*
X0087500Y0100290D01*
X0087660Y0100292D01*
X0087819Y0100298D01*
X0087978Y0100308D01*
X0088137Y0100321D01*
X0088296Y0100339D01*
X0088454Y0100360D01*
X0088611Y0100386D01*
X0088768Y0100415D01*
X0088924Y0100448D01*
X0089079Y0100485D01*
X0089234Y0100525D01*
X0089387Y0100570D01*
X0089539Y0100618D01*
X0089690Y0100670D01*
X0089839Y0100726D01*
X0089987Y0100785D01*
X0090134Y0100848D01*
X0090279Y0100914D01*
X0090422Y0100984D01*
X0090564Y0101058D01*
X0090704Y0101134D01*
X0090842Y0101215D01*
X0090977Y0101298D01*
X0091111Y0101385D01*
X0091243Y0101476D01*
X0091372Y0101569D01*
X0091499Y0101666D01*
X0091624Y0101765D01*
X0091746Y0101868D01*
X0091865Y0101974D01*
X0091982Y0102082D01*
X0092096Y0102194D01*
X0092208Y0102308D01*
X0092316Y0102425D01*
X0092422Y0102544D01*
X0092525Y0102666D01*
X0092624Y0102791D01*
X0092721Y0102918D01*
X0092814Y0103047D01*
X0092905Y0103179D01*
X0092992Y0103313D01*
X0093075Y0103448D01*
X0093156Y0103586D01*
X0093232Y0103726D01*
X0093306Y0103868D01*
X0093376Y0104011D01*
X0093442Y0104156D01*
X0093505Y0104303D01*
X0093564Y0104451D01*
X0093620Y0104600D01*
X0093672Y0104751D01*
X0093720Y0104903D01*
X0093765Y0105056D01*
X0093805Y0105211D01*
X0093842Y0105366D01*
X0093875Y0105522D01*
X0093904Y0105679D01*
X0093930Y0105836D01*
X0093951Y0105994D01*
X0093969Y0106153D01*
X0093982Y0106312D01*
X0093992Y0106471D01*
X0093998Y0106630D01*
X0094000Y0106790D01*
X0093998Y0106950D01*
X0093992Y0107109D01*
X0093982Y0107268D01*
X0093969Y0107427D01*
X0093951Y0107586D01*
X0093930Y0107744D01*
X0093904Y0107901D01*
X0093875Y0108058D01*
X0093842Y0108214D01*
X0093805Y0108369D01*
X0093765Y0108524D01*
X0093720Y0108677D01*
X0093672Y0108829D01*
X0093620Y0108980D01*
X0093564Y0109129D01*
X0093505Y0109277D01*
X0093442Y0109424D01*
X0093376Y0109569D01*
X0093306Y0109712D01*
X0093232Y0109854D01*
X0093156Y0109994D01*
X0093075Y0110132D01*
X0092992Y0110267D01*
X0092905Y0110401D01*
X0092814Y0110533D01*
X0092721Y0110662D01*
X0092624Y0110789D01*
X0092525Y0110914D01*
X0092422Y0111036D01*
X0092316Y0111155D01*
X0092208Y0111272D01*
X0092096Y0111386D01*
X0091982Y0111498D01*
X0091865Y0111606D01*
X0091746Y0111712D01*
X0091624Y0111815D01*
X0091499Y0111914D01*
X0091372Y0112011D01*
X0091243Y0112104D01*
X0091111Y0112195D01*
X0090977Y0112282D01*
X0090842Y0112365D01*
X0090704Y0112446D01*
X0090564Y0112522D01*
X0090422Y0112596D01*
X0090279Y0112666D01*
X0090134Y0112732D01*
X0089987Y0112795D01*
X0089839Y0112854D01*
X0089690Y0112910D01*
X0089539Y0112962D01*
X0089387Y0113010D01*
X0089234Y0113055D01*
X0089079Y0113095D01*
X0088924Y0113132D01*
X0088768Y0113165D01*
X0088611Y0113194D01*
X0088454Y0113220D01*
X0088296Y0113241D01*
X0088137Y0113259D01*
X0087978Y0113272D01*
X0087819Y0113282D01*
X0087660Y0113288D01*
X0087500Y0113290D01*
X0063500Y0113290D01*
X0063340Y0113288D01*
X0063181Y0113282D01*
X0063022Y0113272D01*
X0062863Y0113259D01*
X0062704Y0113241D01*
X0062546Y0113220D01*
X0062389Y0113194D01*
X0062232Y0113165D01*
X0062076Y0113132D01*
X0061921Y0113095D01*
X0061766Y0113055D01*
X0061613Y0113010D01*
X0061461Y0112962D01*
X0061310Y0112910D01*
X0061161Y0112854D01*
X0061013Y0112795D01*
X0060866Y0112732D01*
X0060721Y0112666D01*
X0060578Y0112596D01*
X0060436Y0112522D01*
X0060296Y0112446D01*
X0060158Y0112365D01*
X0060023Y0112282D01*
X0059889Y0112195D01*
X0059757Y0112104D01*
X0059628Y0112011D01*
X0059501Y0111914D01*
X0059376Y0111815D01*
X0059254Y0111712D01*
X0059135Y0111606D01*
X0059018Y0111498D01*
X0058904Y0111386D01*
X0058792Y0111272D01*
X0058684Y0111155D01*
X0058578Y0111036D01*
X0058475Y0110914D01*
X0058376Y0110789D01*
X0058279Y0110662D01*
X0058186Y0110533D01*
X0058095Y0110401D01*
X0058008Y0110267D01*
X0057925Y0110132D01*
X0057844Y0109994D01*
X0057768Y0109854D01*
X0057694Y0109712D01*
X0057624Y0109569D01*
X0057558Y0109424D01*
X0057495Y0109277D01*
X0057436Y0109129D01*
X0057380Y0108980D01*
X0057328Y0108829D01*
X0057280Y0108677D01*
X0057235Y0108524D01*
X0057195Y0108369D01*
X0057158Y0108214D01*
X0057125Y0108058D01*
X0057096Y0107901D01*
X0057070Y0107744D01*
X0057049Y0107586D01*
X0057031Y0107427D01*
X0057018Y0107268D01*
X0057008Y0107109D01*
X0057002Y0106950D01*
X0057000Y0106790D01*
X0057002Y0106630D01*
X0057008Y0106471D01*
X0057018Y0106312D01*
X0057031Y0106153D01*
X0057049Y0105994D01*
X0057070Y0105836D01*
X0057096Y0105679D01*
X0057125Y0105522D01*
X0057158Y0105366D01*
X0057195Y0105211D01*
X0057235Y0105056D01*
X0057280Y0104903D01*
X0057328Y0104751D01*
X0057380Y0104600D01*
X0057436Y0104451D01*
X0057495Y0104303D01*
X0057558Y0104156D01*
X0057624Y0104011D01*
X0057694Y0103868D01*
X0057768Y0103726D01*
X0057844Y0103586D01*
X0057925Y0103448D01*
X0058008Y0103313D01*
X0058095Y0103179D01*
X0058186Y0103047D01*
X0058279Y0102918D01*
X0058376Y0102791D01*
X0058475Y0102666D01*
X0058578Y0102544D01*
X0058684Y0102425D01*
X0058792Y0102308D01*
X0058904Y0102194D01*
X0059018Y0102082D01*
X0059135Y0101974D01*
X0059254Y0101868D01*
X0059376Y0101765D01*
X0059501Y0101666D01*
X0059628Y0101569D01*
X0059757Y0101476D01*
X0059889Y0101385D01*
X0060023Y0101298D01*
X0060158Y0101215D01*
X0060296Y0101134D01*
X0060436Y0101058D01*
X0060578Y0100984D01*
X0060721Y0100914D01*
X0060866Y0100848D01*
X0061013Y0100785D01*
X0061161Y0100726D01*
X0061310Y0100670D01*
X0061461Y0100618D01*
X0061613Y0100570D01*
X0061766Y0100525D01*
X0061921Y0100485D01*
X0062076Y0100448D01*
X0062232Y0100415D01*
X0062389Y0100386D01*
X0062546Y0100360D01*
X0062704Y0100339D01*
X0062863Y0100321D01*
X0063022Y0100308D01*
X0063181Y0100298D01*
X0063340Y0100292D01*
X0063500Y0100290D01*
X0070500Y0106790D02*
X0073000Y0106790D01*
X0073000Y0109790D01*
X0074500Y0109790D02*
X0076500Y0109790D01*
X0076500Y0103790D01*
X0074500Y0103790D01*
X0074500Y0109790D01*
X0078000Y0109790D02*
X0078000Y0106790D01*
X0080500Y0106790D01*
X0078000Y0106790D02*
X0078000Y0103790D01*
X0073000Y0103790D02*
X0073000Y0106790D01*
X0004748Y0100593D02*
X0004752Y0100924D01*
X0004764Y0101255D01*
X0004785Y0101586D01*
X0004813Y0101916D01*
X0004850Y0102246D01*
X0004894Y0102574D01*
X0004947Y0102901D01*
X0005007Y0103227D01*
X0005076Y0103551D01*
X0005153Y0103873D01*
X0005237Y0104194D01*
X0005329Y0104512D01*
X0005429Y0104828D01*
X0005537Y0105141D01*
X0005653Y0105452D01*
X0005776Y0105759D01*
X0005906Y0106064D01*
X0006044Y0106365D01*
X0006189Y0106663D01*
X0006342Y0106957D01*
X0006502Y0107247D01*
X0006669Y0107533D01*
X0006842Y0107815D01*
X0007023Y0108093D01*
X0007211Y0108366D01*
X0007405Y0108635D01*
X0007605Y0108899D01*
X0007812Y0109157D01*
X0008026Y0109411D01*
X0008245Y0109659D01*
X0008471Y0109902D01*
X0008702Y0110139D01*
X0008939Y0110370D01*
X0009182Y0110596D01*
X0009430Y0110815D01*
X0009684Y0111029D01*
X0009942Y0111236D01*
X0010206Y0111436D01*
X0010475Y0111630D01*
X0010748Y0111818D01*
X0011026Y0111999D01*
X0011308Y0112172D01*
X0011594Y0112339D01*
X0011884Y0112499D01*
X0012178Y0112652D01*
X0012476Y0112797D01*
X0012777Y0112935D01*
X0013082Y0113065D01*
X0013389Y0113188D01*
X0013700Y0113304D01*
X0014013Y0113412D01*
X0014329Y0113512D01*
X0014647Y0113604D01*
X0014968Y0113688D01*
X0015290Y0113765D01*
X0015614Y0113834D01*
X0015940Y0113894D01*
X0016267Y0113947D01*
X0016595Y0113991D01*
X0016925Y0114028D01*
X0017255Y0114056D01*
X0017586Y0114077D01*
X0017917Y0114089D01*
X0018248Y0114093D01*
X0018579Y0114089D01*
X0018910Y0114077D01*
X0019241Y0114056D01*
X0019571Y0114028D01*
X0019901Y0113991D01*
X0020229Y0113947D01*
X0020556Y0113894D01*
X0020882Y0113834D01*
X0021206Y0113765D01*
X0021528Y0113688D01*
X0021849Y0113604D01*
X0022167Y0113512D01*
X0022483Y0113412D01*
X0022796Y0113304D01*
X0023107Y0113188D01*
X0023414Y0113065D01*
X0023719Y0112935D01*
X0024020Y0112797D01*
X0024318Y0112652D01*
X0024612Y0112499D01*
X0024902Y0112339D01*
X0025188Y0112172D01*
X0025470Y0111999D01*
X0025748Y0111818D01*
X0026021Y0111630D01*
X0026290Y0111436D01*
X0026554Y0111236D01*
X0026812Y0111029D01*
X0027066Y0110815D01*
X0027314Y0110596D01*
X0027557Y0110370D01*
X0027794Y0110139D01*
X0028025Y0109902D01*
X0028251Y0109659D01*
X0028470Y0109411D01*
X0028684Y0109157D01*
X0028891Y0108899D01*
X0029091Y0108635D01*
X0029285Y0108366D01*
X0029473Y0108093D01*
X0029654Y0107815D01*
X0029827Y0107533D01*
X0029994Y0107247D01*
X0030154Y0106957D01*
X0030307Y0106663D01*
X0030452Y0106365D01*
X0030590Y0106064D01*
X0030720Y0105759D01*
X0030843Y0105452D01*
X0030959Y0105141D01*
X0031067Y0104828D01*
X0031167Y0104512D01*
X0031259Y0104194D01*
X0031343Y0103873D01*
X0031420Y0103551D01*
X0031489Y0103227D01*
X0031549Y0102901D01*
X0031602Y0102574D01*
X0031646Y0102246D01*
X0031683Y0101916D01*
X0031711Y0101586D01*
X0031732Y0101255D01*
X0031744Y0100924D01*
X0031748Y0100593D01*
X0031744Y0100262D01*
X0031732Y0099931D01*
X0031711Y0099600D01*
X0031683Y0099270D01*
X0031646Y0098940D01*
X0031602Y0098612D01*
X0031549Y0098285D01*
X0031489Y0097959D01*
X0031420Y0097635D01*
X0031343Y0097313D01*
X0031259Y0096992D01*
X0031167Y0096674D01*
X0031067Y0096358D01*
X0030959Y0096045D01*
X0030843Y0095734D01*
X0030720Y0095427D01*
X0030590Y0095122D01*
X0030452Y0094821D01*
X0030307Y0094523D01*
X0030154Y0094229D01*
X0029994Y0093939D01*
X0029827Y0093653D01*
X0029654Y0093371D01*
X0029473Y0093093D01*
X0029285Y0092820D01*
X0029091Y0092551D01*
X0028891Y0092287D01*
X0028684Y0092029D01*
X0028470Y0091775D01*
X0028251Y0091527D01*
X0028025Y0091284D01*
X0027794Y0091047D01*
X0027557Y0090816D01*
X0027314Y0090590D01*
X0027066Y0090371D01*
X0026812Y0090157D01*
X0026554Y0089950D01*
X0026290Y0089750D01*
X0026021Y0089556D01*
X0025748Y0089368D01*
X0025470Y0089187D01*
X0025188Y0089014D01*
X0024902Y0088847D01*
X0024612Y0088687D01*
X0024318Y0088534D01*
X0024020Y0088389D01*
X0023719Y0088251D01*
X0023414Y0088121D01*
X0023107Y0087998D01*
X0022796Y0087882D01*
X0022483Y0087774D01*
X0022167Y0087674D01*
X0021849Y0087582D01*
X0021528Y0087498D01*
X0021206Y0087421D01*
X0020882Y0087352D01*
X0020556Y0087292D01*
X0020229Y0087239D01*
X0019901Y0087195D01*
X0019571Y0087158D01*
X0019241Y0087130D01*
X0018910Y0087109D01*
X0018579Y0087097D01*
X0018248Y0087093D01*
X0017917Y0087097D01*
X0017586Y0087109D01*
X0017255Y0087130D01*
X0016925Y0087158D01*
X0016595Y0087195D01*
X0016267Y0087239D01*
X0015940Y0087292D01*
X0015614Y0087352D01*
X0015290Y0087421D01*
X0014968Y0087498D01*
X0014647Y0087582D01*
X0014329Y0087674D01*
X0014013Y0087774D01*
X0013700Y0087882D01*
X0013389Y0087998D01*
X0013082Y0088121D01*
X0012777Y0088251D01*
X0012476Y0088389D01*
X0012178Y0088534D01*
X0011884Y0088687D01*
X0011594Y0088847D01*
X0011308Y0089014D01*
X0011026Y0089187D01*
X0010748Y0089368D01*
X0010475Y0089556D01*
X0010206Y0089750D01*
X0009942Y0089950D01*
X0009684Y0090157D01*
X0009430Y0090371D01*
X0009182Y0090590D01*
X0008939Y0090816D01*
X0008702Y0091047D01*
X0008471Y0091284D01*
X0008245Y0091527D01*
X0008026Y0091775D01*
X0007812Y0092029D01*
X0007605Y0092287D01*
X0007405Y0092551D01*
X0007211Y0092820D01*
X0007023Y0093093D01*
X0006842Y0093371D01*
X0006669Y0093653D01*
X0006502Y0093939D01*
X0006342Y0094229D01*
X0006189Y0094523D01*
X0006044Y0094821D01*
X0005906Y0095122D01*
X0005776Y0095427D01*
X0005653Y0095734D01*
X0005537Y0096045D01*
X0005429Y0096358D01*
X0005329Y0096674D01*
X0005237Y0096992D01*
X0005153Y0097313D01*
X0005076Y0097635D01*
X0005007Y0097959D01*
X0004947Y0098285D01*
X0004894Y0098612D01*
X0004850Y0098940D01*
X0004813Y0099270D01*
X0004785Y0099600D01*
X0004764Y0099931D01*
X0004752Y0100262D01*
X0004748Y0100593D01*
X0083041Y0069777D02*
X0083041Y0051803D01*
X0107959Y0051803D01*
X0107959Y0069777D01*
X0083041Y0069777D01*
X0084741Y0055990D02*
X0084743Y0056074D01*
X0084749Y0056159D01*
X0084759Y0056242D01*
X0084773Y0056326D01*
X0084790Y0056408D01*
X0084812Y0056490D01*
X0084837Y0056570D01*
X0084866Y0056649D01*
X0084899Y0056727D01*
X0084935Y0056803D01*
X0084975Y0056878D01*
X0085019Y0056950D01*
X0085065Y0057021D01*
X0085115Y0057089D01*
X0085168Y0057154D01*
X0085224Y0057217D01*
X0085283Y0057278D01*
X0085345Y0057335D01*
X0085409Y0057390D01*
X0085476Y0057441D01*
X0085545Y0057490D01*
X0085617Y0057535D01*
X0085690Y0057576D01*
X0085765Y0057614D01*
X0085842Y0057649D01*
X0085921Y0057680D01*
X0086001Y0057707D01*
X0086082Y0057730D01*
X0086164Y0057750D01*
X0086247Y0057766D01*
X0086330Y0057778D01*
X0086415Y0057786D01*
X0086499Y0057790D01*
X0086583Y0057790D01*
X0086667Y0057786D01*
X0086752Y0057778D01*
X0086835Y0057766D01*
X0086918Y0057750D01*
X0087000Y0057730D01*
X0087081Y0057707D01*
X0087161Y0057680D01*
X0087240Y0057649D01*
X0087317Y0057614D01*
X0087392Y0057576D01*
X0087465Y0057535D01*
X0087537Y0057490D01*
X0087606Y0057441D01*
X0087673Y0057390D01*
X0087737Y0057335D01*
X0087799Y0057278D01*
X0087858Y0057217D01*
X0087914Y0057154D01*
X0087967Y0057089D01*
X0088017Y0057021D01*
X0088063Y0056950D01*
X0088107Y0056878D01*
X0088147Y0056803D01*
X0088183Y0056727D01*
X0088216Y0056649D01*
X0088245Y0056570D01*
X0088270Y0056490D01*
X0088292Y0056408D01*
X0088309Y0056326D01*
X0088323Y0056242D01*
X0088333Y0056159D01*
X0088339Y0056074D01*
X0088341Y0055990D01*
X0088339Y0055906D01*
X0088333Y0055821D01*
X0088323Y0055738D01*
X0088309Y0055654D01*
X0088292Y0055572D01*
X0088270Y0055490D01*
X0088245Y0055410D01*
X0088216Y0055331D01*
X0088183Y0055253D01*
X0088147Y0055177D01*
X0088107Y0055102D01*
X0088063Y0055030D01*
X0088017Y0054959D01*
X0087967Y0054891D01*
X0087914Y0054826D01*
X0087858Y0054763D01*
X0087799Y0054702D01*
X0087737Y0054645D01*
X0087673Y0054590D01*
X0087606Y0054539D01*
X0087537Y0054490D01*
X0087465Y0054445D01*
X0087392Y0054404D01*
X0087317Y0054366D01*
X0087240Y0054331D01*
X0087161Y0054300D01*
X0087081Y0054273D01*
X0087000Y0054250D01*
X0086918Y0054230D01*
X0086835Y0054214D01*
X0086752Y0054202D01*
X0086667Y0054194D01*
X0086583Y0054190D01*
X0086499Y0054190D01*
X0086415Y0054194D01*
X0086330Y0054202D01*
X0086247Y0054214D01*
X0086164Y0054230D01*
X0086082Y0054250D01*
X0086001Y0054273D01*
X0085921Y0054300D01*
X0085842Y0054331D01*
X0085765Y0054366D01*
X0085690Y0054404D01*
X0085617Y0054445D01*
X0085545Y0054490D01*
X0085476Y0054539D01*
X0085409Y0054590D01*
X0085345Y0054645D01*
X0085283Y0054702D01*
X0085224Y0054763D01*
X0085168Y0054826D01*
X0085115Y0054891D01*
X0085065Y0054959D01*
X0085019Y0055030D01*
X0084975Y0055102D01*
X0084935Y0055177D01*
X0084899Y0055253D01*
X0084866Y0055331D01*
X0084837Y0055410D01*
X0084812Y0055490D01*
X0084790Y0055572D01*
X0084773Y0055654D01*
X0084759Y0055738D01*
X0084749Y0055821D01*
X0084743Y0055906D01*
X0084741Y0055990D01*
X0144228Y0048103D02*
X0147163Y0048103D01*
X0145695Y0049571D02*
X0145695Y0046635D01*
X0152102Y0048103D02*
X0155037Y0048103D01*
X0170102Y0041538D02*
X0170106Y0041869D01*
X0170118Y0042200D01*
X0170139Y0042531D01*
X0170167Y0042861D01*
X0170204Y0043191D01*
X0170248Y0043519D01*
X0170301Y0043846D01*
X0170361Y0044172D01*
X0170430Y0044496D01*
X0170507Y0044818D01*
X0170591Y0045139D01*
X0170683Y0045457D01*
X0170783Y0045773D01*
X0170891Y0046086D01*
X0171007Y0046397D01*
X0171130Y0046704D01*
X0171260Y0047009D01*
X0171398Y0047310D01*
X0171543Y0047608D01*
X0171696Y0047902D01*
X0171856Y0048192D01*
X0172023Y0048478D01*
X0172196Y0048760D01*
X0172377Y0049038D01*
X0172565Y0049311D01*
X0172759Y0049580D01*
X0172959Y0049844D01*
X0173166Y0050102D01*
X0173380Y0050356D01*
X0173599Y0050604D01*
X0173825Y0050847D01*
X0174056Y0051084D01*
X0174293Y0051315D01*
X0174536Y0051541D01*
X0174784Y0051760D01*
X0175038Y0051974D01*
X0175296Y0052181D01*
X0175560Y0052381D01*
X0175829Y0052575D01*
X0176102Y0052763D01*
X0176380Y0052944D01*
X0176662Y0053117D01*
X0176948Y0053284D01*
X0177238Y0053444D01*
X0177532Y0053597D01*
X0177830Y0053742D01*
X0178131Y0053880D01*
X0178436Y0054010D01*
X0178743Y0054133D01*
X0179054Y0054249D01*
X0179367Y0054357D01*
X0179683Y0054457D01*
X0180001Y0054549D01*
X0180322Y0054633D01*
X0180644Y0054710D01*
X0180968Y0054779D01*
X0181294Y0054839D01*
X0181621Y0054892D01*
X0181949Y0054936D01*
X0182279Y0054973D01*
X0182609Y0055001D01*
X0182940Y0055022D01*
X0183271Y0055034D01*
X0183602Y0055038D01*
X0183933Y0055034D01*
X0184264Y0055022D01*
X0184595Y0055001D01*
X0184925Y0054973D01*
X0185255Y0054936D01*
X0185583Y0054892D01*
X0185910Y0054839D01*
X0186236Y0054779D01*
X0186560Y0054710D01*
X0186882Y0054633D01*
X0187203Y0054549D01*
X0187521Y0054457D01*
X0187837Y0054357D01*
X0188150Y0054249D01*
X0188461Y0054133D01*
X0188768Y0054010D01*
X0189073Y0053880D01*
X0189374Y0053742D01*
X0189672Y0053597D01*
X0189966Y0053444D01*
X0190256Y0053284D01*
X0190542Y0053117D01*
X0190824Y0052944D01*
X0191102Y0052763D01*
X0191375Y0052575D01*
X0191644Y0052381D01*
X0191908Y0052181D01*
X0192166Y0051974D01*
X0192420Y0051760D01*
X0192668Y0051541D01*
X0192911Y0051315D01*
X0193148Y0051084D01*
X0193379Y0050847D01*
X0193605Y0050604D01*
X0193824Y0050356D01*
X0194038Y0050102D01*
X0194245Y0049844D01*
X0194445Y0049580D01*
X0194639Y0049311D01*
X0194827Y0049038D01*
X0195008Y0048760D01*
X0195181Y0048478D01*
X0195348Y0048192D01*
X0195508Y0047902D01*
X0195661Y0047608D01*
X0195806Y0047310D01*
X0195944Y0047009D01*
X0196074Y0046704D01*
X0196197Y0046397D01*
X0196313Y0046086D01*
X0196421Y0045773D01*
X0196521Y0045457D01*
X0196613Y0045139D01*
X0196697Y0044818D01*
X0196774Y0044496D01*
X0196843Y0044172D01*
X0196903Y0043846D01*
X0196956Y0043519D01*
X0197000Y0043191D01*
X0197037Y0042861D01*
X0197065Y0042531D01*
X0197086Y0042200D01*
X0197098Y0041869D01*
X0197102Y0041538D01*
X0197098Y0041207D01*
X0197086Y0040876D01*
X0197065Y0040545D01*
X0197037Y0040215D01*
X0197000Y0039885D01*
X0196956Y0039557D01*
X0196903Y0039230D01*
X0196843Y0038904D01*
X0196774Y0038580D01*
X0196697Y0038258D01*
X0196613Y0037937D01*
X0196521Y0037619D01*
X0196421Y0037303D01*
X0196313Y0036990D01*
X0196197Y0036679D01*
X0196074Y0036372D01*
X0195944Y0036067D01*
X0195806Y0035766D01*
X0195661Y0035468D01*
X0195508Y0035174D01*
X0195348Y0034884D01*
X0195181Y0034598D01*
X0195008Y0034316D01*
X0194827Y0034038D01*
X0194639Y0033765D01*
X0194445Y0033496D01*
X0194245Y0033232D01*
X0194038Y0032974D01*
X0193824Y0032720D01*
X0193605Y0032472D01*
X0193379Y0032229D01*
X0193148Y0031992D01*
X0192911Y0031761D01*
X0192668Y0031535D01*
X0192420Y0031316D01*
X0192166Y0031102D01*
X0191908Y0030895D01*
X0191644Y0030695D01*
X0191375Y0030501D01*
X0191102Y0030313D01*
X0190824Y0030132D01*
X0190542Y0029959D01*
X0190256Y0029792D01*
X0189966Y0029632D01*
X0189672Y0029479D01*
X0189374Y0029334D01*
X0189073Y0029196D01*
X0188768Y0029066D01*
X0188461Y0028943D01*
X0188150Y0028827D01*
X0187837Y0028719D01*
X0187521Y0028619D01*
X0187203Y0028527D01*
X0186882Y0028443D01*
X0186560Y0028366D01*
X0186236Y0028297D01*
X0185910Y0028237D01*
X0185583Y0028184D01*
X0185255Y0028140D01*
X0184925Y0028103D01*
X0184595Y0028075D01*
X0184264Y0028054D01*
X0183933Y0028042D01*
X0183602Y0028038D01*
X0183271Y0028042D01*
X0182940Y0028054D01*
X0182609Y0028075D01*
X0182279Y0028103D01*
X0181949Y0028140D01*
X0181621Y0028184D01*
X0181294Y0028237D01*
X0180968Y0028297D01*
X0180644Y0028366D01*
X0180322Y0028443D01*
X0180001Y0028527D01*
X0179683Y0028619D01*
X0179367Y0028719D01*
X0179054Y0028827D01*
X0178743Y0028943D01*
X0178436Y0029066D01*
X0178131Y0029196D01*
X0177830Y0029334D01*
X0177532Y0029479D01*
X0177238Y0029632D01*
X0176948Y0029792D01*
X0176662Y0029959D01*
X0176380Y0030132D01*
X0176102Y0030313D01*
X0175829Y0030501D01*
X0175560Y0030695D01*
X0175296Y0030895D01*
X0175038Y0031102D01*
X0174784Y0031316D01*
X0174536Y0031535D01*
X0174293Y0031761D01*
X0174056Y0031992D01*
X0173825Y0032229D01*
X0173599Y0032472D01*
X0173380Y0032720D01*
X0173166Y0032974D01*
X0172959Y0033232D01*
X0172759Y0033496D01*
X0172565Y0033765D01*
X0172377Y0034038D01*
X0172196Y0034316D01*
X0172023Y0034598D01*
X0171856Y0034884D01*
X0171696Y0035174D01*
X0171543Y0035468D01*
X0171398Y0035766D01*
X0171260Y0036067D01*
X0171130Y0036372D01*
X0171007Y0036679D01*
X0170891Y0036990D01*
X0170783Y0037303D01*
X0170683Y0037619D01*
X0170591Y0037937D01*
X0170507Y0038258D01*
X0170430Y0038580D01*
X0170361Y0038904D01*
X0170301Y0039230D01*
X0170248Y0039557D01*
X0170204Y0039885D01*
X0170167Y0040215D01*
X0170139Y0040545D01*
X0170118Y0040876D01*
X0170106Y0041207D01*
X0170102Y0041538D01*
X0170102Y0100593D02*
X0170106Y0100924D01*
X0170118Y0101255D01*
X0170139Y0101586D01*
X0170167Y0101916D01*
X0170204Y0102246D01*
X0170248Y0102574D01*
X0170301Y0102901D01*
X0170361Y0103227D01*
X0170430Y0103551D01*
X0170507Y0103873D01*
X0170591Y0104194D01*
X0170683Y0104512D01*
X0170783Y0104828D01*
X0170891Y0105141D01*
X0171007Y0105452D01*
X0171130Y0105759D01*
X0171260Y0106064D01*
X0171398Y0106365D01*
X0171543Y0106663D01*
X0171696Y0106957D01*
X0171856Y0107247D01*
X0172023Y0107533D01*
X0172196Y0107815D01*
X0172377Y0108093D01*
X0172565Y0108366D01*
X0172759Y0108635D01*
X0172959Y0108899D01*
X0173166Y0109157D01*
X0173380Y0109411D01*
X0173599Y0109659D01*
X0173825Y0109902D01*
X0174056Y0110139D01*
X0174293Y0110370D01*
X0174536Y0110596D01*
X0174784Y0110815D01*
X0175038Y0111029D01*
X0175296Y0111236D01*
X0175560Y0111436D01*
X0175829Y0111630D01*
X0176102Y0111818D01*
X0176380Y0111999D01*
X0176662Y0112172D01*
X0176948Y0112339D01*
X0177238Y0112499D01*
X0177532Y0112652D01*
X0177830Y0112797D01*
X0178131Y0112935D01*
X0178436Y0113065D01*
X0178743Y0113188D01*
X0179054Y0113304D01*
X0179367Y0113412D01*
X0179683Y0113512D01*
X0180001Y0113604D01*
X0180322Y0113688D01*
X0180644Y0113765D01*
X0180968Y0113834D01*
X0181294Y0113894D01*
X0181621Y0113947D01*
X0181949Y0113991D01*
X0182279Y0114028D01*
X0182609Y0114056D01*
X0182940Y0114077D01*
X0183271Y0114089D01*
X0183602Y0114093D01*
X0183933Y0114089D01*
X0184264Y0114077D01*
X0184595Y0114056D01*
X0184925Y0114028D01*
X0185255Y0113991D01*
X0185583Y0113947D01*
X0185910Y0113894D01*
X0186236Y0113834D01*
X0186560Y0113765D01*
X0186882Y0113688D01*
X0187203Y0113604D01*
X0187521Y0113512D01*
X0187837Y0113412D01*
X0188150Y0113304D01*
X0188461Y0113188D01*
X0188768Y0113065D01*
X0189073Y0112935D01*
X0189374Y0112797D01*
X0189672Y0112652D01*
X0189966Y0112499D01*
X0190256Y0112339D01*
X0190542Y0112172D01*
X0190824Y0111999D01*
X0191102Y0111818D01*
X0191375Y0111630D01*
X0191644Y0111436D01*
X0191908Y0111236D01*
X0192166Y0111029D01*
X0192420Y0110815D01*
X0192668Y0110596D01*
X0192911Y0110370D01*
X0193148Y0110139D01*
X0193379Y0109902D01*
X0193605Y0109659D01*
X0193824Y0109411D01*
X0194038Y0109157D01*
X0194245Y0108899D01*
X0194445Y0108635D01*
X0194639Y0108366D01*
X0194827Y0108093D01*
X0195008Y0107815D01*
X0195181Y0107533D01*
X0195348Y0107247D01*
X0195508Y0106957D01*
X0195661Y0106663D01*
X0195806Y0106365D01*
X0195944Y0106064D01*
X0196074Y0105759D01*
X0196197Y0105452D01*
X0196313Y0105141D01*
X0196421Y0104828D01*
X0196521Y0104512D01*
X0196613Y0104194D01*
X0196697Y0103873D01*
X0196774Y0103551D01*
X0196843Y0103227D01*
X0196903Y0102901D01*
X0196956Y0102574D01*
X0197000Y0102246D01*
X0197037Y0101916D01*
X0197065Y0101586D01*
X0197086Y0101255D01*
X0197098Y0100924D01*
X0197102Y0100593D01*
X0197098Y0100262D01*
X0197086Y0099931D01*
X0197065Y0099600D01*
X0197037Y0099270D01*
X0197000Y0098940D01*
X0196956Y0098612D01*
X0196903Y0098285D01*
X0196843Y0097959D01*
X0196774Y0097635D01*
X0196697Y0097313D01*
X0196613Y0096992D01*
X0196521Y0096674D01*
X0196421Y0096358D01*
X0196313Y0096045D01*
X0196197Y0095734D01*
X0196074Y0095427D01*
X0195944Y0095122D01*
X0195806Y0094821D01*
X0195661Y0094523D01*
X0195508Y0094229D01*
X0195348Y0093939D01*
X0195181Y0093653D01*
X0195008Y0093371D01*
X0194827Y0093093D01*
X0194639Y0092820D01*
X0194445Y0092551D01*
X0194245Y0092287D01*
X0194038Y0092029D01*
X0193824Y0091775D01*
X0193605Y0091527D01*
X0193379Y0091284D01*
X0193148Y0091047D01*
X0192911Y0090816D01*
X0192668Y0090590D01*
X0192420Y0090371D01*
X0192166Y0090157D01*
X0191908Y0089950D01*
X0191644Y0089750D01*
X0191375Y0089556D01*
X0191102Y0089368D01*
X0190824Y0089187D01*
X0190542Y0089014D01*
X0190256Y0088847D01*
X0189966Y0088687D01*
X0189672Y0088534D01*
X0189374Y0088389D01*
X0189073Y0088251D01*
X0188768Y0088121D01*
X0188461Y0087998D01*
X0188150Y0087882D01*
X0187837Y0087774D01*
X0187521Y0087674D01*
X0187203Y0087582D01*
X0186882Y0087498D01*
X0186560Y0087421D01*
X0186236Y0087352D01*
X0185910Y0087292D01*
X0185583Y0087239D01*
X0185255Y0087195D01*
X0184925Y0087158D01*
X0184595Y0087130D01*
X0184264Y0087109D01*
X0183933Y0087097D01*
X0183602Y0087093D01*
X0183271Y0087097D01*
X0182940Y0087109D01*
X0182609Y0087130D01*
X0182279Y0087158D01*
X0181949Y0087195D01*
X0181621Y0087239D01*
X0181294Y0087292D01*
X0180968Y0087352D01*
X0180644Y0087421D01*
X0180322Y0087498D01*
X0180001Y0087582D01*
X0179683Y0087674D01*
X0179367Y0087774D01*
X0179054Y0087882D01*
X0178743Y0087998D01*
X0178436Y0088121D01*
X0178131Y0088251D01*
X0177830Y0088389D01*
X0177532Y0088534D01*
X0177238Y0088687D01*
X0176948Y0088847D01*
X0176662Y0089014D01*
X0176380Y0089187D01*
X0176102Y0089368D01*
X0175829Y0089556D01*
X0175560Y0089750D01*
X0175296Y0089950D01*
X0175038Y0090157D01*
X0174784Y0090371D01*
X0174536Y0090590D01*
X0174293Y0090816D01*
X0174056Y0091047D01*
X0173825Y0091284D01*
X0173599Y0091527D01*
X0173380Y0091775D01*
X0173166Y0092029D01*
X0172959Y0092287D01*
X0172759Y0092551D01*
X0172565Y0092820D01*
X0172377Y0093093D01*
X0172196Y0093371D01*
X0172023Y0093653D01*
X0171856Y0093939D01*
X0171696Y0094229D01*
X0171543Y0094523D01*
X0171398Y0094821D01*
X0171260Y0095122D01*
X0171130Y0095427D01*
X0171007Y0095734D01*
X0170891Y0096045D01*
X0170783Y0096358D01*
X0170683Y0096674D01*
X0170591Y0096992D01*
X0170507Y0097313D01*
X0170430Y0097635D01*
X0170361Y0097959D01*
X0170301Y0098285D01*
X0170248Y0098612D01*
X0170204Y0098940D01*
X0170167Y0099270D01*
X0170139Y0099600D01*
X0170118Y0099931D01*
X0170106Y0100262D01*
X0170102Y0100593D01*
X0004748Y0041538D02*
X0004752Y0041869D01*
X0004764Y0042200D01*
X0004785Y0042531D01*
X0004813Y0042861D01*
X0004850Y0043191D01*
X0004894Y0043519D01*
X0004947Y0043846D01*
X0005007Y0044172D01*
X0005076Y0044496D01*
X0005153Y0044818D01*
X0005237Y0045139D01*
X0005329Y0045457D01*
X0005429Y0045773D01*
X0005537Y0046086D01*
X0005653Y0046397D01*
X0005776Y0046704D01*
X0005906Y0047009D01*
X0006044Y0047310D01*
X0006189Y0047608D01*
X0006342Y0047902D01*
X0006502Y0048192D01*
X0006669Y0048478D01*
X0006842Y0048760D01*
X0007023Y0049038D01*
X0007211Y0049311D01*
X0007405Y0049580D01*
X0007605Y0049844D01*
X0007812Y0050102D01*
X0008026Y0050356D01*
X0008245Y0050604D01*
X0008471Y0050847D01*
X0008702Y0051084D01*
X0008939Y0051315D01*
X0009182Y0051541D01*
X0009430Y0051760D01*
X0009684Y0051974D01*
X0009942Y0052181D01*
X0010206Y0052381D01*
X0010475Y0052575D01*
X0010748Y0052763D01*
X0011026Y0052944D01*
X0011308Y0053117D01*
X0011594Y0053284D01*
X0011884Y0053444D01*
X0012178Y0053597D01*
X0012476Y0053742D01*
X0012777Y0053880D01*
X0013082Y0054010D01*
X0013389Y0054133D01*
X0013700Y0054249D01*
X0014013Y0054357D01*
X0014329Y0054457D01*
X0014647Y0054549D01*
X0014968Y0054633D01*
X0015290Y0054710D01*
X0015614Y0054779D01*
X0015940Y0054839D01*
X0016267Y0054892D01*
X0016595Y0054936D01*
X0016925Y0054973D01*
X0017255Y0055001D01*
X0017586Y0055022D01*
X0017917Y0055034D01*
X0018248Y0055038D01*
X0018579Y0055034D01*
X0018910Y0055022D01*
X0019241Y0055001D01*
X0019571Y0054973D01*
X0019901Y0054936D01*
X0020229Y0054892D01*
X0020556Y0054839D01*
X0020882Y0054779D01*
X0021206Y0054710D01*
X0021528Y0054633D01*
X0021849Y0054549D01*
X0022167Y0054457D01*
X0022483Y0054357D01*
X0022796Y0054249D01*
X0023107Y0054133D01*
X0023414Y0054010D01*
X0023719Y0053880D01*
X0024020Y0053742D01*
X0024318Y0053597D01*
X0024612Y0053444D01*
X0024902Y0053284D01*
X0025188Y0053117D01*
X0025470Y0052944D01*
X0025748Y0052763D01*
X0026021Y0052575D01*
X0026290Y0052381D01*
X0026554Y0052181D01*
X0026812Y0051974D01*
X0027066Y0051760D01*
X0027314Y0051541D01*
X0027557Y0051315D01*
X0027794Y0051084D01*
X0028025Y0050847D01*
X0028251Y0050604D01*
X0028470Y0050356D01*
X0028684Y0050102D01*
X0028891Y0049844D01*
X0029091Y0049580D01*
X0029285Y0049311D01*
X0029473Y0049038D01*
X0029654Y0048760D01*
X0029827Y0048478D01*
X0029994Y0048192D01*
X0030154Y0047902D01*
X0030307Y0047608D01*
X0030452Y0047310D01*
X0030590Y0047009D01*
X0030720Y0046704D01*
X0030843Y0046397D01*
X0030959Y0046086D01*
X0031067Y0045773D01*
X0031167Y0045457D01*
X0031259Y0045139D01*
X0031343Y0044818D01*
X0031420Y0044496D01*
X0031489Y0044172D01*
X0031549Y0043846D01*
X0031602Y0043519D01*
X0031646Y0043191D01*
X0031683Y0042861D01*
X0031711Y0042531D01*
X0031732Y0042200D01*
X0031744Y0041869D01*
X0031748Y0041538D01*
X0031744Y0041207D01*
X0031732Y0040876D01*
X0031711Y0040545D01*
X0031683Y0040215D01*
X0031646Y0039885D01*
X0031602Y0039557D01*
X0031549Y0039230D01*
X0031489Y0038904D01*
X0031420Y0038580D01*
X0031343Y0038258D01*
X0031259Y0037937D01*
X0031167Y0037619D01*
X0031067Y0037303D01*
X0030959Y0036990D01*
X0030843Y0036679D01*
X0030720Y0036372D01*
X0030590Y0036067D01*
X0030452Y0035766D01*
X0030307Y0035468D01*
X0030154Y0035174D01*
X0029994Y0034884D01*
X0029827Y0034598D01*
X0029654Y0034316D01*
X0029473Y0034038D01*
X0029285Y0033765D01*
X0029091Y0033496D01*
X0028891Y0033232D01*
X0028684Y0032974D01*
X0028470Y0032720D01*
X0028251Y0032472D01*
X0028025Y0032229D01*
X0027794Y0031992D01*
X0027557Y0031761D01*
X0027314Y0031535D01*
X0027066Y0031316D01*
X0026812Y0031102D01*
X0026554Y0030895D01*
X0026290Y0030695D01*
X0026021Y0030501D01*
X0025748Y0030313D01*
X0025470Y0030132D01*
X0025188Y0029959D01*
X0024902Y0029792D01*
X0024612Y0029632D01*
X0024318Y0029479D01*
X0024020Y0029334D01*
X0023719Y0029196D01*
X0023414Y0029066D01*
X0023107Y0028943D01*
X0022796Y0028827D01*
X0022483Y0028719D01*
X0022167Y0028619D01*
X0021849Y0028527D01*
X0021528Y0028443D01*
X0021206Y0028366D01*
X0020882Y0028297D01*
X0020556Y0028237D01*
X0020229Y0028184D01*
X0019901Y0028140D01*
X0019571Y0028103D01*
X0019241Y0028075D01*
X0018910Y0028054D01*
X0018579Y0028042D01*
X0018248Y0028038D01*
X0017917Y0028042D01*
X0017586Y0028054D01*
X0017255Y0028075D01*
X0016925Y0028103D01*
X0016595Y0028140D01*
X0016267Y0028184D01*
X0015940Y0028237D01*
X0015614Y0028297D01*
X0015290Y0028366D01*
X0014968Y0028443D01*
X0014647Y0028527D01*
X0014329Y0028619D01*
X0014013Y0028719D01*
X0013700Y0028827D01*
X0013389Y0028943D01*
X0013082Y0029066D01*
X0012777Y0029196D01*
X0012476Y0029334D01*
X0012178Y0029479D01*
X0011884Y0029632D01*
X0011594Y0029792D01*
X0011308Y0029959D01*
X0011026Y0030132D01*
X0010748Y0030313D01*
X0010475Y0030501D01*
X0010206Y0030695D01*
X0009942Y0030895D01*
X0009684Y0031102D01*
X0009430Y0031316D01*
X0009182Y0031535D01*
X0008939Y0031761D01*
X0008702Y0031992D01*
X0008471Y0032229D01*
X0008245Y0032472D01*
X0008026Y0032720D01*
X0007812Y0032974D01*
X0007605Y0033232D01*
X0007405Y0033496D01*
X0007211Y0033765D01*
X0007023Y0034038D01*
X0006842Y0034316D01*
X0006669Y0034598D01*
X0006502Y0034884D01*
X0006342Y0035174D01*
X0006189Y0035468D01*
X0006044Y0035766D01*
X0005906Y0036067D01*
X0005776Y0036372D01*
X0005653Y0036679D01*
X0005537Y0036990D01*
X0005429Y0037303D01*
X0005329Y0037619D01*
X0005237Y0037937D01*
X0005153Y0038258D01*
X0005076Y0038580D01*
X0005007Y0038904D01*
X0004947Y0039230D01*
X0004894Y0039557D01*
X0004850Y0039885D01*
X0004813Y0040215D01*
X0004785Y0040545D01*
X0004764Y0040876D01*
X0004752Y0041207D01*
X0004748Y0041538D01*
D17*
X0028390Y0082589D02*
X0028390Y0084589D01*
X0038390Y0087589D02*
X0038390Y0089589D01*
X0046500Y0092790D02*
X0048500Y0092790D01*
X0048500Y0084790D02*
X0046500Y0084790D01*
X0120098Y0097900D02*
X0122461Y0097900D01*
X0122461Y0094751D01*
X0128957Y0094751D01*
X0128957Y0096522D01*
X0136043Y0096522D01*
X0136043Y0094751D01*
X0142539Y0094751D01*
X0142539Y0097900D01*
X0144902Y0097900D01*
X0144902Y0111680D01*
X0142736Y0111680D01*
X0142736Y0114829D01*
X0122264Y0114829D01*
X0122264Y0111680D01*
X0120098Y0111680D01*
X0120098Y0097900D01*
X0128957Y0094751D02*
X0136043Y0094751D01*
X0138689Y0044695D02*
X0138689Y0026979D01*
X0162311Y0026979D01*
X0162311Y0044695D01*
X0152469Y0044695D01*
X0152469Y0042727D01*
X0160343Y0042727D01*
X0160343Y0028947D01*
X0150500Y0028947D01*
X0150500Y0030916D01*
X0150500Y0028947D02*
X0140657Y0028947D01*
X0140657Y0042727D01*
X0148531Y0042727D01*
X0148531Y0044695D01*
X0138689Y0044695D01*
X0138689Y0038790D02*
X0138689Y0036821D01*
D18*
X0067406Y0032884D02*
X0055594Y0032884D01*
X0055594Y0044695D02*
X0067406Y0044695D01*
D19*
X0083941Y0052703D02*
X0083941Y0068877D01*
X0107059Y0068877D01*
X0107059Y0052703D01*
X0083941Y0052703D01*
D20*
X0168657Y0059947D02*
X0168657Y0060735D01*
M02*
