%
M48
M72
T01C0.0200
T02C0.0320
T03C0.0400
T04C0.0670
%
T01
X18200Y6331
X15700Y7831
X15900Y9131
X15600Y9831
X15600Y11131
X14800Y11131
X16400Y11131
X17200Y11131
X18000Y11031
X18800Y11831
X18100Y12231
X17200Y12231
X16400Y12231
X15600Y12231
X14800Y12231
X12200Y11031
X11400Y11031
X11250Y10481
X11700Y9331
X11600Y8731
X12050Y8731
X11100Y8331
X11600Y7831
X10800Y7531
X10650Y7081
X10800Y6631
X10200Y6331
X7900Y6931
X6400Y6331
X5000Y6331
X4000Y7231
X2400Y7531
X1900Y8631
X3050Y8681
X4800Y10631
X5400Y11431
X7600Y11131
X8600Y9631
X9800Y9631
X9900Y8331
X7300Y8431
X10900Y11831
X11900Y11831
X17300Y9031
X19200Y8731
X19200Y11231
X12950Y7031
X1300Y12131
T02
X15100Y10331
X16100Y10331
X17100Y10331
T03
X18700Y6931
X17700Y7031
X16700Y6931
X16700Y7931
X17700Y8031
X18700Y7931
X18800Y10558
X1550Y10881
X1550Y9881
T04
X1700Y13306
X4700Y13306
X15700Y13306
X18700Y13306
M30
