G75*
%MOIN*%
%OFA0B0*%
%FSLAX25Y25*%
%IPPOS*%
%LPD*%
%AMOC8*
5,1,8,0,0,1.08239X$1,22.5*
%
%ADD10C,0.00000*%
%ADD11C,0.00700*%
%ADD12C,0.01100*%
%ADD13C,0.00800*%
%ADD14C,0.01500*%
%ADD15C,0.00600*%
%ADD16C,0.00787*%
%ADD17C,0.00500*%
%ADD18C,0.01600*%
%ADD19C,0.00787*%
%ADD20C,0.01200*%
%ADD21C,0.00080*%
D10*
X0012000Y0060307D02*
X0190976Y0060307D01*
X0191116Y0060309D01*
X0191256Y0060315D01*
X0191396Y0060325D01*
X0191536Y0060338D01*
X0191675Y0060356D01*
X0191814Y0060378D01*
X0191951Y0060403D01*
X0192089Y0060432D01*
X0192225Y0060465D01*
X0192360Y0060502D01*
X0192494Y0060543D01*
X0192627Y0060588D01*
X0192759Y0060636D01*
X0192889Y0060688D01*
X0193018Y0060743D01*
X0193145Y0060802D01*
X0193271Y0060865D01*
X0193395Y0060931D01*
X0193516Y0061000D01*
X0193636Y0061073D01*
X0193754Y0061150D01*
X0193869Y0061229D01*
X0193983Y0061312D01*
X0194093Y0061398D01*
X0194202Y0061487D01*
X0194308Y0061579D01*
X0194411Y0061674D01*
X0194512Y0061771D01*
X0194609Y0061872D01*
X0194704Y0061975D01*
X0194796Y0062081D01*
X0194885Y0062190D01*
X0194971Y0062300D01*
X0195054Y0062414D01*
X0195133Y0062529D01*
X0195210Y0062647D01*
X0195283Y0062767D01*
X0195352Y0062888D01*
X0195418Y0063012D01*
X0195481Y0063138D01*
X0195540Y0063265D01*
X0195595Y0063394D01*
X0195647Y0063524D01*
X0195695Y0063656D01*
X0195740Y0063789D01*
X0195781Y0063923D01*
X0195818Y0064058D01*
X0195851Y0064194D01*
X0195880Y0064332D01*
X0195905Y0064469D01*
X0195927Y0064608D01*
X0195945Y0064747D01*
X0195958Y0064887D01*
X0195968Y0065027D01*
X0195974Y0065167D01*
X0195976Y0065307D01*
X0195976Y0145858D01*
X0195974Y0145998D01*
X0195968Y0146138D01*
X0195958Y0146278D01*
X0195945Y0146418D01*
X0195927Y0146557D01*
X0195905Y0146696D01*
X0195880Y0146833D01*
X0195851Y0146971D01*
X0195818Y0147107D01*
X0195781Y0147242D01*
X0195740Y0147376D01*
X0195695Y0147509D01*
X0195647Y0147641D01*
X0195595Y0147771D01*
X0195540Y0147900D01*
X0195481Y0148027D01*
X0195418Y0148153D01*
X0195352Y0148277D01*
X0195283Y0148398D01*
X0195210Y0148518D01*
X0195133Y0148636D01*
X0195054Y0148751D01*
X0194971Y0148865D01*
X0194885Y0148975D01*
X0194796Y0149084D01*
X0194704Y0149190D01*
X0194609Y0149293D01*
X0194512Y0149394D01*
X0194411Y0149491D01*
X0194308Y0149586D01*
X0194202Y0149678D01*
X0194093Y0149767D01*
X0193983Y0149853D01*
X0193869Y0149936D01*
X0193754Y0150015D01*
X0193636Y0150092D01*
X0193516Y0150165D01*
X0193395Y0150234D01*
X0193271Y0150300D01*
X0193145Y0150363D01*
X0193018Y0150422D01*
X0192889Y0150477D01*
X0192759Y0150529D01*
X0192627Y0150577D01*
X0192494Y0150622D01*
X0192360Y0150663D01*
X0192225Y0150700D01*
X0192089Y0150733D01*
X0191951Y0150762D01*
X0191814Y0150787D01*
X0191675Y0150809D01*
X0191536Y0150827D01*
X0191396Y0150840D01*
X0191256Y0150850D01*
X0191116Y0150856D01*
X0190976Y0150858D01*
X0012000Y0150858D01*
X0011860Y0150856D01*
X0011720Y0150850D01*
X0011580Y0150840D01*
X0011440Y0150827D01*
X0011301Y0150809D01*
X0011162Y0150787D01*
X0011025Y0150762D01*
X0010887Y0150733D01*
X0010751Y0150700D01*
X0010616Y0150663D01*
X0010482Y0150622D01*
X0010349Y0150577D01*
X0010217Y0150529D01*
X0010087Y0150477D01*
X0009958Y0150422D01*
X0009831Y0150363D01*
X0009705Y0150300D01*
X0009581Y0150234D01*
X0009460Y0150165D01*
X0009340Y0150092D01*
X0009222Y0150015D01*
X0009107Y0149936D01*
X0008993Y0149853D01*
X0008883Y0149767D01*
X0008774Y0149678D01*
X0008668Y0149586D01*
X0008565Y0149491D01*
X0008464Y0149394D01*
X0008367Y0149293D01*
X0008272Y0149190D01*
X0008180Y0149084D01*
X0008091Y0148975D01*
X0008005Y0148865D01*
X0007922Y0148751D01*
X0007843Y0148636D01*
X0007766Y0148518D01*
X0007693Y0148398D01*
X0007624Y0148277D01*
X0007558Y0148153D01*
X0007495Y0148027D01*
X0007436Y0147900D01*
X0007381Y0147771D01*
X0007329Y0147641D01*
X0007281Y0147509D01*
X0007236Y0147376D01*
X0007195Y0147242D01*
X0007158Y0147107D01*
X0007125Y0146971D01*
X0007096Y0146833D01*
X0007071Y0146696D01*
X0007049Y0146557D01*
X0007031Y0146418D01*
X0007018Y0146278D01*
X0007008Y0146138D01*
X0007002Y0145998D01*
X0007000Y0145858D01*
X0007000Y0065307D01*
X0007002Y0065167D01*
X0007008Y0065027D01*
X0007018Y0064887D01*
X0007031Y0064747D01*
X0007049Y0064608D01*
X0007071Y0064469D01*
X0007096Y0064332D01*
X0007125Y0064194D01*
X0007158Y0064058D01*
X0007195Y0063923D01*
X0007236Y0063789D01*
X0007281Y0063656D01*
X0007329Y0063524D01*
X0007381Y0063394D01*
X0007436Y0063265D01*
X0007495Y0063138D01*
X0007558Y0063012D01*
X0007624Y0062888D01*
X0007693Y0062767D01*
X0007766Y0062647D01*
X0007843Y0062529D01*
X0007922Y0062414D01*
X0008005Y0062300D01*
X0008091Y0062190D01*
X0008180Y0062081D01*
X0008272Y0061975D01*
X0008367Y0061872D01*
X0008464Y0061771D01*
X0008565Y0061674D01*
X0008668Y0061579D01*
X0008774Y0061487D01*
X0008883Y0061398D01*
X0008993Y0061312D01*
X0009107Y0061229D01*
X0009222Y0061150D01*
X0009340Y0061073D01*
X0009460Y0061000D01*
X0009581Y0060931D01*
X0009705Y0060865D01*
X0009831Y0060802D01*
X0009958Y0060743D01*
X0010087Y0060688D01*
X0010217Y0060636D01*
X0010349Y0060588D01*
X0010482Y0060543D01*
X0010616Y0060502D01*
X0010751Y0060465D01*
X0010887Y0060432D01*
X0011025Y0060403D01*
X0011162Y0060378D01*
X0011301Y0060356D01*
X0011440Y0060338D01*
X0011580Y0060325D01*
X0011720Y0060315D01*
X0011860Y0060309D01*
X0012000Y0060307D01*
D11*
X0021452Y0112708D02*
X0021452Y0116911D01*
X0019350Y0114810D02*
X0023554Y0114810D01*
D12*
X0060981Y0138857D02*
X0060981Y0142794D01*
X0062949Y0144762D01*
X0064918Y0142794D01*
X0064918Y0138857D01*
X0067427Y0138857D02*
X0067427Y0142794D01*
X0069395Y0144762D01*
X0071363Y0142794D01*
X0071363Y0138857D01*
X0073872Y0138857D02*
X0073872Y0142794D01*
X0075840Y0144762D01*
X0077809Y0142794D01*
X0077809Y0138857D01*
X0077809Y0141809D02*
X0073872Y0141809D01*
X0071363Y0141809D02*
X0067427Y0141809D01*
X0064918Y0141809D02*
X0060981Y0141809D01*
X0086763Y0142794D02*
X0088731Y0144762D01*
X0088731Y0138857D01*
X0086763Y0138857D02*
X0090700Y0138857D01*
X0093209Y0138857D02*
X0093209Y0139841D01*
X0094193Y0139841D01*
X0094193Y0138857D01*
X0093209Y0138857D01*
X0096431Y0139841D02*
X0097416Y0138857D01*
X0099384Y0138857D01*
X0100368Y0139841D01*
X0100368Y0141809D01*
X0099384Y0142794D01*
X0098400Y0142794D01*
X0096431Y0141809D01*
X0096431Y0144762D01*
X0100368Y0144762D01*
X0102877Y0144762D02*
X0102877Y0140825D01*
X0104845Y0138857D01*
X0106814Y0140825D01*
X0106814Y0144762D01*
X0115768Y0143778D02*
X0115768Y0139841D01*
X0116752Y0138857D01*
X0118720Y0138857D01*
X0119705Y0139841D01*
X0119705Y0143778D01*
X0118720Y0144762D01*
X0116752Y0144762D01*
X0115768Y0143778D01*
X0122213Y0144762D02*
X0126150Y0138857D01*
X0126150Y0144762D01*
X0122213Y0144762D02*
X0122213Y0138857D01*
X0128659Y0138857D02*
X0132596Y0138857D01*
X0128659Y0138857D02*
X0128659Y0144762D01*
X0135104Y0144762D02*
X0135104Y0143778D01*
X0137073Y0141809D01*
X0137073Y0138857D01*
X0137073Y0141809D02*
X0139041Y0143778D01*
X0139041Y0144762D01*
D13*
X0098100Y0121913D02*
X0098100Y0120511D01*
X0097399Y0119811D01*
X0097399Y0118009D02*
X0098100Y0117309D01*
X0098100Y0115908D01*
X0097399Y0115207D01*
X0094597Y0115207D01*
X0093896Y0115908D01*
X0093896Y0117309D01*
X0094597Y0118009D01*
X0094597Y0119811D02*
X0093896Y0120511D01*
X0093896Y0121913D01*
X0094597Y0122613D01*
X0095298Y0122613D01*
X0095998Y0121913D01*
X0096699Y0122613D01*
X0097399Y0122613D01*
X0098100Y0121913D01*
X0095998Y0121913D02*
X0095998Y0121212D01*
X0091100Y0120511D02*
X0091100Y0121913D01*
X0090399Y0122613D01*
X0089699Y0122613D01*
X0088998Y0121913D01*
X0088998Y0119811D01*
X0090399Y0119811D01*
X0091100Y0120511D01*
X0088998Y0119811D02*
X0087597Y0121212D01*
X0086896Y0122613D01*
X0084100Y0121913D02*
X0084100Y0120511D01*
X0083399Y0119811D01*
X0081998Y0119811D02*
X0081298Y0121212D01*
X0081298Y0121913D01*
X0081998Y0122613D01*
X0083399Y0122613D01*
X0084100Y0121913D01*
X0081998Y0119811D02*
X0079896Y0119811D01*
X0079896Y0122613D01*
X0080597Y0118009D02*
X0081998Y0118009D01*
X0082699Y0117309D01*
X0082699Y0115207D01*
X0084100Y0115207D02*
X0079896Y0115207D01*
X0079896Y0117309D01*
X0080597Y0118009D01*
X0082699Y0116608D02*
X0084100Y0118009D01*
X0086896Y0117309D02*
X0087597Y0118009D01*
X0088998Y0118009D01*
X0089699Y0117309D01*
X0089699Y0115207D01*
X0091100Y0115207D02*
X0086896Y0115207D01*
X0086896Y0117309D01*
X0089699Y0116608D02*
X0091100Y0118009D01*
X0109337Y0113007D02*
X0109337Y0079213D01*
X0109338Y0079213D02*
X0109350Y0079143D01*
X0109367Y0079073D01*
X0109387Y0079005D01*
X0109411Y0078938D01*
X0109438Y0078872D01*
X0109469Y0078807D01*
X0109503Y0078745D01*
X0109541Y0078684D01*
X0109582Y0078626D01*
X0109626Y0078569D01*
X0109673Y0078516D01*
X0109723Y0078465D01*
X0109775Y0078416D01*
X0109830Y0078371D01*
X0109888Y0078328D01*
X0109947Y0078289D01*
X0110009Y0078253D01*
X0110073Y0078221D01*
X0110138Y0078192D01*
X0110204Y0078166D01*
X0110272Y0078145D01*
X0110342Y0078126D01*
X0110411Y0078112D01*
X0110482Y0078102D01*
X0110553Y0078095D01*
X0110624Y0078092D01*
X0110696Y0078093D01*
X0110767Y0078098D01*
X0110838Y0078107D01*
X0110837Y0078107D02*
X0123163Y0078107D01*
X0123239Y0078109D01*
X0123314Y0078115D01*
X0123390Y0078124D01*
X0123465Y0078138D01*
X0123539Y0078155D01*
X0123612Y0078176D01*
X0123684Y0078200D01*
X0123754Y0078228D01*
X0123823Y0078260D01*
X0123891Y0078295D01*
X0123956Y0078334D01*
X0124020Y0078376D01*
X0124081Y0078421D01*
X0124140Y0078469D01*
X0124196Y0078520D01*
X0124250Y0078574D01*
X0124301Y0078630D01*
X0124349Y0078689D01*
X0124394Y0078750D01*
X0124436Y0078814D01*
X0124475Y0078879D01*
X0124510Y0078947D01*
X0124542Y0079016D01*
X0124570Y0079086D01*
X0124594Y0079158D01*
X0124615Y0079231D01*
X0124632Y0079305D01*
X0124646Y0079380D01*
X0124655Y0079456D01*
X0124661Y0079531D01*
X0124663Y0079607D01*
X0124663Y0113007D01*
X0124663Y0113006D02*
X0124651Y0113087D01*
X0124636Y0113167D01*
X0124617Y0113246D01*
X0124595Y0113324D01*
X0124568Y0113401D01*
X0124539Y0113477D01*
X0124505Y0113551D01*
X0124468Y0113623D01*
X0124428Y0113694D01*
X0124384Y0113762D01*
X0124337Y0113829D01*
X0124287Y0113893D01*
X0124234Y0113954D01*
X0124178Y0114013D01*
X0124119Y0114070D01*
X0124058Y0114123D01*
X0123994Y0114174D01*
X0123928Y0114221D01*
X0123860Y0114265D01*
X0123790Y0114306D01*
X0123718Y0114344D01*
X0123644Y0114378D01*
X0123568Y0114408D01*
X0123492Y0114435D01*
X0123414Y0114458D01*
X0123335Y0114478D01*
X0123255Y0114493D01*
X0123174Y0114505D01*
X0123094Y0114513D01*
X0123012Y0114517D01*
X0122931Y0114518D01*
X0122850Y0114514D01*
X0122769Y0114507D01*
X0122719Y0114507D02*
X0119400Y0114507D01*
X0119400Y0114307D02*
X0119398Y0114209D01*
X0119392Y0114111D01*
X0119383Y0114013D01*
X0119369Y0113916D01*
X0119352Y0113819D01*
X0119331Y0113723D01*
X0119306Y0113628D01*
X0119278Y0113534D01*
X0119245Y0113442D01*
X0119210Y0113350D01*
X0119170Y0113260D01*
X0119128Y0113172D01*
X0119081Y0113085D01*
X0119032Y0113001D01*
X0118979Y0112918D01*
X0118923Y0112838D01*
X0118863Y0112759D01*
X0118801Y0112683D01*
X0118736Y0112610D01*
X0118668Y0112539D01*
X0118597Y0112471D01*
X0118524Y0112406D01*
X0118448Y0112344D01*
X0118369Y0112284D01*
X0118289Y0112228D01*
X0118206Y0112175D01*
X0118122Y0112126D01*
X0118035Y0112079D01*
X0117947Y0112037D01*
X0117857Y0111997D01*
X0117765Y0111962D01*
X0117673Y0111929D01*
X0117579Y0111901D01*
X0117484Y0111876D01*
X0117388Y0111855D01*
X0117291Y0111838D01*
X0117194Y0111824D01*
X0117096Y0111815D01*
X0116998Y0111809D01*
X0116900Y0111807D01*
X0116802Y0111809D01*
X0116704Y0111815D01*
X0116606Y0111824D01*
X0116509Y0111838D01*
X0116412Y0111855D01*
X0116316Y0111876D01*
X0116221Y0111901D01*
X0116127Y0111929D01*
X0116035Y0111962D01*
X0115943Y0111997D01*
X0115853Y0112037D01*
X0115765Y0112079D01*
X0115678Y0112126D01*
X0115594Y0112175D01*
X0115511Y0112228D01*
X0115431Y0112284D01*
X0115352Y0112344D01*
X0115276Y0112406D01*
X0115203Y0112471D01*
X0115132Y0112539D01*
X0115064Y0112610D01*
X0114999Y0112683D01*
X0114937Y0112759D01*
X0114877Y0112838D01*
X0114821Y0112918D01*
X0114768Y0113001D01*
X0114719Y0113085D01*
X0114672Y0113172D01*
X0114630Y0113260D01*
X0114590Y0113350D01*
X0114555Y0113442D01*
X0114522Y0113534D01*
X0114494Y0113628D01*
X0114469Y0113723D01*
X0114448Y0113819D01*
X0114431Y0113916D01*
X0114417Y0114013D01*
X0114408Y0114111D01*
X0114402Y0114209D01*
X0114400Y0114307D01*
X0114400Y0114507D02*
X0110444Y0114507D01*
X0110444Y0114506D02*
X0110374Y0114494D01*
X0110304Y0114477D01*
X0110236Y0114457D01*
X0110168Y0114434D01*
X0110102Y0114406D01*
X0110038Y0114375D01*
X0109976Y0114341D01*
X0109915Y0114303D01*
X0109856Y0114263D01*
X0109800Y0114219D01*
X0109747Y0114172D01*
X0109695Y0114122D01*
X0109647Y0114069D01*
X0109602Y0114014D01*
X0109559Y0113957D01*
X0109520Y0113897D01*
X0109484Y0113835D01*
X0109452Y0113772D01*
X0109423Y0113707D01*
X0109397Y0113640D01*
X0109375Y0113572D01*
X0109357Y0113503D01*
X0109343Y0113433D01*
X0109333Y0113362D01*
X0109326Y0113291D01*
X0109323Y0113220D01*
X0109324Y0113149D01*
X0109329Y0113077D01*
X0109338Y0113007D01*
X0113900Y0101411D02*
X0113900Y0097908D01*
X0114601Y0097207D01*
X0116002Y0097207D01*
X0116702Y0097908D01*
X0116702Y0101411D01*
X0118504Y0100009D02*
X0119905Y0101411D01*
X0119905Y0097207D01*
X0118504Y0097207D02*
X0121306Y0097207D01*
X0133692Y0089411D02*
X0135794Y0089411D01*
X0136495Y0088710D01*
X0136495Y0087309D01*
X0135794Y0086608D01*
X0133692Y0086608D01*
X0133692Y0085207D02*
X0133692Y0089411D01*
X0135093Y0086608D02*
X0136495Y0085207D01*
X0138296Y0085207D02*
X0138296Y0085908D01*
X0141098Y0088710D01*
X0141098Y0089411D01*
X0138296Y0089411D01*
X0140398Y0080411D02*
X0138296Y0078309D01*
X0141098Y0078309D01*
X0140398Y0076207D02*
X0140398Y0080411D01*
X0136495Y0079710D02*
X0136495Y0078309D01*
X0135794Y0077608D01*
X0133692Y0077608D01*
X0133692Y0076207D02*
X0133692Y0080411D01*
X0135794Y0080411D01*
X0136495Y0079710D01*
X0135093Y0077608D02*
X0136495Y0076207D01*
X0162000Y0081807D02*
X0162000Y0066807D01*
X0164500Y0064307D01*
X0169500Y0064307D01*
X0172000Y0066807D01*
X0172000Y0081807D01*
X0169500Y0084307D01*
X0164500Y0084307D01*
X0162000Y0081807D01*
X0172000Y0081807D02*
X0174500Y0084307D01*
X0179500Y0084307D01*
X0182000Y0081807D01*
X0182000Y0066807D01*
X0179500Y0064307D01*
X0174500Y0064307D01*
X0172000Y0066807D01*
X0182000Y0066807D02*
X0184500Y0064307D01*
X0189500Y0064307D01*
X0192000Y0066807D01*
X0192000Y0081807D01*
X0189500Y0084307D01*
X0184500Y0084307D01*
X0182000Y0081807D01*
X0184500Y0085626D02*
X0189500Y0085626D01*
X0188677Y0088707D02*
X0188677Y0092911D01*
X0190779Y0092911D01*
X0191480Y0092210D01*
X0191480Y0090809D01*
X0190779Y0090108D01*
X0188677Y0090108D01*
X0186876Y0090108D02*
X0186175Y0090809D01*
X0184774Y0090809D01*
X0184073Y0091509D01*
X0184073Y0092210D01*
X0184774Y0092911D01*
X0186175Y0092911D01*
X0186876Y0092210D01*
X0186876Y0090108D02*
X0186876Y0089408D01*
X0186175Y0088707D01*
X0184774Y0088707D01*
X0184073Y0089408D01*
X0182272Y0089408D02*
X0181571Y0088707D01*
X0180170Y0088707D01*
X0179469Y0089408D01*
X0179469Y0092210D01*
X0180170Y0092911D01*
X0181571Y0092911D01*
X0182272Y0092210D01*
X0177801Y0092911D02*
X0176400Y0092911D01*
X0177101Y0092911D02*
X0177101Y0088707D01*
X0177801Y0088707D02*
X0176400Y0088707D01*
X0185500Y0100583D02*
X0190500Y0100583D01*
X0193000Y0103083D01*
X0193000Y0108083D01*
X0190500Y0110583D01*
X0185500Y0110583D01*
X0183000Y0108083D01*
X0183000Y0103083D01*
X0185500Y0100583D01*
X0169246Y0109807D02*
X0152754Y0109807D01*
X0158500Y0093307D02*
X0158775Y0093250D01*
X0159052Y0093199D01*
X0159330Y0093155D01*
X0159608Y0093117D01*
X0159888Y0093087D01*
X0160168Y0093063D01*
X0160449Y0093046D01*
X0160730Y0093036D01*
X0161011Y0093033D01*
X0161292Y0093037D01*
X0161573Y0093047D01*
X0161854Y0093065D01*
X0162134Y0093089D01*
X0162413Y0093120D01*
X0162692Y0093158D01*
X0162970Y0093203D01*
X0163246Y0093254D01*
X0163521Y0093312D01*
X0163795Y0093377D01*
X0164067Y0093449D01*
X0164337Y0093527D01*
X0164605Y0093611D01*
X0164871Y0093703D01*
X0165135Y0093800D01*
X0165396Y0093904D01*
X0165655Y0094015D01*
X0165911Y0094132D01*
X0166164Y0094255D01*
X0166413Y0094384D01*
X0166660Y0094519D01*
X0166903Y0094660D01*
X0167143Y0094807D01*
X0167379Y0094960D01*
X0167611Y0095118D01*
X0167840Y0095282D01*
X0168064Y0095452D01*
X0168284Y0095627D01*
X0168500Y0095807D01*
X0158500Y0093307D02*
X0158225Y0093372D01*
X0157952Y0093443D01*
X0157681Y0093521D01*
X0157411Y0093606D01*
X0157144Y0093697D01*
X0156879Y0093795D01*
X0156617Y0093899D01*
X0156357Y0094010D01*
X0156100Y0094126D01*
X0155846Y0094250D01*
X0155595Y0094379D01*
X0155348Y0094514D01*
X0155103Y0094656D01*
X0154863Y0094803D01*
X0154626Y0094957D01*
X0154392Y0095116D01*
X0154163Y0095280D01*
X0153938Y0095451D01*
X0153717Y0095626D01*
X0153500Y0095807D01*
X0158500Y0093307D02*
X0158774Y0093250D01*
X0159049Y0093199D01*
X0159326Y0093155D01*
X0159603Y0093118D01*
X0159882Y0093087D01*
X0160161Y0093064D01*
X0160440Y0093047D01*
X0160720Y0093036D01*
X0161000Y0093033D01*
X0161280Y0093036D01*
X0161560Y0093047D01*
X0161839Y0093064D01*
X0162118Y0093087D01*
X0162397Y0093118D01*
X0162674Y0093155D01*
X0162951Y0093199D01*
X0163226Y0093250D01*
X0163500Y0093307D01*
X0098848Y0074067D02*
X0098848Y0072666D01*
X0098147Y0071965D01*
X0096746Y0073366D02*
X0096746Y0074067D01*
X0097447Y0074768D01*
X0098147Y0074768D01*
X0098848Y0074067D01*
X0096746Y0074067D02*
X0096046Y0074768D01*
X0095345Y0074768D01*
X0094644Y0074067D01*
X0094644Y0072666D01*
X0095345Y0071965D01*
X0094644Y0070164D02*
X0098147Y0070164D01*
X0098848Y0069463D01*
X0098848Y0068062D01*
X0098147Y0067361D01*
X0094644Y0067361D01*
X0085472Y0075165D02*
X0082323Y0072016D01*
X0085472Y0075165D02*
X0085472Y0097212D01*
X0090396Y0094108D02*
X0091798Y0092707D01*
X0090396Y0094108D02*
X0094600Y0094108D01*
X0094600Y0092707D02*
X0094600Y0095509D01*
X0093600Y0087509D02*
X0093600Y0084707D01*
X0090798Y0087509D01*
X0090097Y0087509D01*
X0089396Y0086809D01*
X0089396Y0085408D01*
X0090097Y0084707D01*
X0067726Y0085504D02*
X0067726Y0088306D01*
X0067726Y0086905D02*
X0063522Y0086905D01*
X0064924Y0085504D01*
X0064223Y0083702D02*
X0063522Y0083002D01*
X0063522Y0081600D01*
X0064223Y0080900D01*
X0067025Y0080900D01*
X0067726Y0081600D01*
X0067726Y0083002D01*
X0067025Y0083702D01*
X0060276Y0075165D02*
X0060276Y0097212D01*
X0054929Y0108770D02*
X0052127Y0108770D01*
X0053528Y0108770D02*
X0053528Y0112974D01*
X0052127Y0111572D01*
X0050325Y0112273D02*
X0049625Y0112974D01*
X0047523Y0112974D01*
X0047523Y0108770D01*
X0049625Y0108770D01*
X0050325Y0109471D01*
X0050325Y0112273D01*
X0043398Y0102411D02*
X0041997Y0102411D01*
X0041296Y0101710D01*
X0039495Y0101710D02*
X0039495Y0100309D01*
X0038794Y0099608D01*
X0036692Y0099608D01*
X0036692Y0098207D02*
X0036692Y0102411D01*
X0038794Y0102411D01*
X0039495Y0101710D01*
X0038093Y0099608D02*
X0039495Y0098207D01*
X0041296Y0098908D02*
X0041997Y0098207D01*
X0043398Y0098207D01*
X0044098Y0098908D01*
X0044098Y0099608D01*
X0043398Y0100309D01*
X0042697Y0100309D01*
X0043398Y0100309D02*
X0044098Y0101009D01*
X0044098Y0101710D01*
X0043398Y0102411D01*
X0034098Y0097509D02*
X0033398Y0098210D01*
X0031997Y0098210D01*
X0031296Y0097509D01*
X0029495Y0098210D02*
X0029495Y0094707D01*
X0028794Y0094006D01*
X0027393Y0094006D01*
X0026692Y0094707D01*
X0026692Y0098210D01*
X0031296Y0094006D02*
X0034098Y0096809D01*
X0034098Y0097509D01*
X0034098Y0094006D02*
X0031296Y0094006D01*
X0036692Y0093710D02*
X0036692Y0090908D01*
X0037393Y0090207D01*
X0038794Y0090207D01*
X0039495Y0090908D01*
X0041296Y0090207D02*
X0044098Y0093009D01*
X0044098Y0093710D01*
X0043398Y0094411D01*
X0041997Y0094411D01*
X0041296Y0093710D01*
X0039495Y0093710D02*
X0038794Y0094411D01*
X0037393Y0094411D01*
X0036692Y0093710D01*
X0041296Y0090207D02*
X0044098Y0090207D01*
X0043398Y0086411D02*
X0041997Y0086411D01*
X0041296Y0085710D01*
X0039495Y0085710D02*
X0039495Y0084309D01*
X0038794Y0083608D01*
X0036692Y0083608D01*
X0036692Y0082207D02*
X0036692Y0086411D01*
X0038794Y0086411D01*
X0039495Y0085710D01*
X0038093Y0083608D02*
X0039495Y0082207D01*
X0041296Y0082207D02*
X0044098Y0085009D01*
X0044098Y0085710D01*
X0043398Y0086411D01*
X0044098Y0082207D02*
X0041296Y0082207D01*
X0042697Y0078411D02*
X0042697Y0074207D01*
X0041296Y0074207D02*
X0044098Y0074207D01*
X0041296Y0077009D02*
X0042697Y0078411D01*
X0039495Y0077710D02*
X0039495Y0076309D01*
X0038794Y0075608D01*
X0036692Y0075608D01*
X0036692Y0074207D02*
X0036692Y0078411D01*
X0038794Y0078411D01*
X0039495Y0077710D01*
X0038093Y0075608D02*
X0039495Y0074207D01*
X0045101Y0066911D02*
X0044400Y0066210D01*
X0045101Y0066911D02*
X0046502Y0066911D01*
X0047202Y0066210D01*
X0047202Y0065509D01*
X0046502Y0064809D01*
X0047202Y0064108D01*
X0047202Y0063408D01*
X0046502Y0062707D01*
X0045101Y0062707D01*
X0044400Y0063408D01*
X0045801Y0064809D02*
X0046502Y0064809D01*
X0060276Y0075165D02*
X0063425Y0072016D01*
X0020500Y0096307D02*
X0018000Y0093807D01*
X0013000Y0093807D01*
X0010500Y0096307D01*
X0010500Y0101307D01*
X0013000Y0103807D01*
X0010500Y0106307D01*
X0010500Y0111307D01*
X0013000Y0113807D01*
X0018000Y0113807D01*
X0020500Y0111307D01*
X0020500Y0106307D01*
X0018000Y0103807D01*
X0020500Y0101307D01*
X0020500Y0096307D01*
X0018806Y0091911D02*
X0018806Y0089108D01*
X0017405Y0087707D01*
X0016004Y0089108D01*
X0016004Y0091911D01*
X0014202Y0091210D02*
X0014202Y0089809D01*
X0013502Y0089108D01*
X0011400Y0089108D01*
X0011400Y0087707D02*
X0011400Y0091911D01*
X0013502Y0091911D01*
X0014202Y0091210D01*
D14*
X0134750Y0067311D02*
X0137586Y0067311D01*
X0136168Y0070146D02*
X0137586Y0071564D01*
X0136168Y0070146D02*
X0136168Y0063057D01*
X0140889Y0064475D02*
X0142306Y0063057D01*
X0146560Y0063057D01*
X0150096Y0064475D02*
X0151514Y0063057D01*
X0154350Y0063057D01*
X0155768Y0064475D01*
X0155768Y0065893D01*
X0154350Y0067311D01*
X0152932Y0067311D01*
X0154350Y0067311D02*
X0155768Y0068728D01*
X0155768Y0070146D01*
X0154350Y0071564D01*
X0151514Y0071564D01*
X0150096Y0070146D01*
X0146560Y0068728D02*
X0142306Y0068728D01*
X0140889Y0067311D01*
X0140889Y0064475D01*
D15*
X0099937Y0066071D02*
X0099937Y0066441D01*
X0099937Y0066071D02*
X0093559Y0066071D01*
X0093559Y0066441D01*
X0093559Y0069614D02*
X0093559Y0069984D01*
X0093559Y0073354D02*
X0093559Y0073724D01*
X0093559Y0076897D02*
X0093559Y0077268D01*
X0099937Y0077268D01*
X0099937Y0076897D01*
X0099937Y0073724D02*
X0099937Y0069614D01*
X0035598Y0093232D02*
X0035598Y0099382D01*
X0024398Y0099382D02*
X0024398Y0093232D01*
D16*
X0025472Y0094338D03*
D17*
X0033843Y0085149D02*
X0014157Y0085149D01*
X0014157Y0084362D01*
X0033843Y0084362D02*
X0033843Y0085149D01*
X0033843Y0066252D02*
X0033843Y0065464D01*
X0014157Y0065464D01*
X0014157Y0066252D01*
D18*
X0124210Y0061433D02*
X0124212Y0061486D01*
X0124218Y0061538D01*
X0124228Y0061590D01*
X0124242Y0061641D01*
X0124259Y0061690D01*
X0124281Y0061738D01*
X0124305Y0061785D01*
X0124334Y0061829D01*
X0124365Y0061871D01*
X0124400Y0061911D01*
X0124438Y0061948D01*
X0124478Y0061982D01*
X0124521Y0062013D01*
X0124566Y0062040D01*
X0124613Y0062064D01*
X0124661Y0062084D01*
X0124711Y0062101D01*
X0124762Y0062114D01*
X0124814Y0062123D01*
X0124867Y0062128D01*
X0124919Y0062129D01*
X0124972Y0062126D01*
X0125024Y0062119D01*
X0125076Y0062108D01*
X0125126Y0062093D01*
X0125175Y0062075D01*
X0125223Y0062053D01*
X0125269Y0062027D01*
X0125313Y0061998D01*
X0125355Y0061965D01*
X0125393Y0061930D01*
X0125430Y0061891D01*
X0125463Y0061851D01*
X0125493Y0061807D01*
X0125519Y0061762D01*
X0125543Y0061714D01*
X0125562Y0061666D01*
X0125578Y0061615D01*
X0125590Y0061564D01*
X0125598Y0061512D01*
X0125602Y0061459D01*
X0125602Y0061407D01*
X0125598Y0061354D01*
X0125590Y0061302D01*
X0125578Y0061251D01*
X0125562Y0061200D01*
X0125543Y0061152D01*
X0125519Y0061104D01*
X0125493Y0061059D01*
X0125463Y0061015D01*
X0125430Y0060975D01*
X0125393Y0060936D01*
X0125355Y0060901D01*
X0125313Y0060868D01*
X0125269Y0060839D01*
X0125223Y0060813D01*
X0125175Y0060791D01*
X0125126Y0060773D01*
X0125076Y0060758D01*
X0125024Y0060747D01*
X0124972Y0060740D01*
X0124919Y0060737D01*
X0124867Y0060738D01*
X0124814Y0060743D01*
X0124762Y0060752D01*
X0124711Y0060765D01*
X0124661Y0060782D01*
X0124613Y0060802D01*
X0124566Y0060826D01*
X0124521Y0060853D01*
X0124478Y0060884D01*
X0124438Y0060918D01*
X0124400Y0060955D01*
X0124365Y0060995D01*
X0124334Y0061037D01*
X0124305Y0061081D01*
X0124281Y0061128D01*
X0124259Y0061176D01*
X0124242Y0061225D01*
X0124228Y0061276D01*
X0124218Y0061328D01*
X0124212Y0061380D01*
X0124210Y0061433D01*
D19*
X0124906Y0063401D02*
X0113094Y0063401D01*
X0113094Y0075212D02*
X0124906Y0075212D01*
D20*
X0060536Y0130131D02*
X0060536Y0136002D01*
X0057600Y0133067D02*
X0063472Y0133067D01*
X0137600Y0133067D02*
X0143472Y0133067D01*
D21*
X0152447Y0109998D02*
X0153012Y0109552D01*
X0153012Y0109553D02*
X0152862Y0109356D01*
X0152716Y0109155D01*
X0152576Y0108951D01*
X0152440Y0108743D01*
X0152310Y0108532D01*
X0152185Y0108318D01*
X0152065Y0108101D01*
X0151950Y0107881D01*
X0151841Y0107659D01*
X0151738Y0107434D01*
X0151640Y0107206D01*
X0151547Y0106976D01*
X0151460Y0106744D01*
X0151379Y0106510D01*
X0151304Y0106274D01*
X0151234Y0106036D01*
X0151170Y0105796D01*
X0151112Y0105555D01*
X0151060Y0105313D01*
X0151014Y0105069D01*
X0150974Y0104825D01*
X0150940Y0104579D01*
X0150912Y0104333D01*
X0150890Y0104086D01*
X0150874Y0103839D01*
X0150864Y0103591D01*
X0150860Y0103343D01*
X0150862Y0103095D01*
X0150870Y0102848D01*
X0150885Y0102600D01*
X0150905Y0102353D01*
X0150931Y0102107D01*
X0150964Y0101861D01*
X0151002Y0101616D01*
X0151046Y0101372D01*
X0151097Y0101129D01*
X0151153Y0100888D01*
X0151215Y0100648D01*
X0151283Y0100410D01*
X0151356Y0100173D01*
X0151436Y0099938D01*
X0151521Y0099705D01*
X0151612Y0099475D01*
X0151708Y0099247D01*
X0151811Y0099021D01*
X0151918Y0098797D01*
X0152031Y0098577D01*
X0152149Y0098359D01*
X0152273Y0098144D01*
X0152402Y0097932D01*
X0152536Y0097724D01*
X0152675Y0097518D01*
X0152819Y0097317D01*
X0152967Y0097119D01*
X0153121Y0096924D01*
X0153279Y0096733D01*
X0153442Y0096547D01*
X0153610Y0096364D01*
X0153782Y0096185D01*
X0153958Y0096011D01*
X0154139Y0095841D01*
X0154323Y0095676D01*
X0154512Y0095515D01*
X0154704Y0095358D01*
X0154900Y0095207D01*
X0155100Y0095060D01*
X0155303Y0094918D01*
X0155510Y0094782D01*
X0155720Y0094650D01*
X0155933Y0094524D01*
X0156149Y0094402D01*
X0156369Y0094287D01*
X0156590Y0094176D01*
X0156815Y0094071D01*
X0157042Y0093971D01*
X0157271Y0093877D01*
X0157503Y0093789D01*
X0157737Y0093706D01*
X0157972Y0093630D01*
X0157760Y0092942D01*
X0157507Y0093024D01*
X0157257Y0093112D01*
X0157009Y0093207D01*
X0156763Y0093308D01*
X0156520Y0093414D01*
X0156279Y0093527D01*
X0156042Y0093645D01*
X0155807Y0093769D01*
X0155575Y0093899D01*
X0155347Y0094034D01*
X0155122Y0094175D01*
X0154900Y0094322D01*
X0154683Y0094474D01*
X0154469Y0094631D01*
X0154258Y0094793D01*
X0154052Y0094960D01*
X0153850Y0095133D01*
X0153652Y0095310D01*
X0153459Y0095492D01*
X0153270Y0095679D01*
X0153086Y0095870D01*
X0152907Y0096066D01*
X0152732Y0096266D01*
X0152562Y0096470D01*
X0152398Y0096678D01*
X0152238Y0096891D01*
X0152084Y0097107D01*
X0151935Y0097327D01*
X0151792Y0097550D01*
X0151654Y0097777D01*
X0151521Y0098007D01*
X0151394Y0098240D01*
X0151273Y0098477D01*
X0151158Y0098716D01*
X0151049Y0098958D01*
X0150945Y0099203D01*
X0150848Y0099450D01*
X0150757Y0099699D01*
X0150672Y0099950D01*
X0150593Y0100204D01*
X0150520Y0100459D01*
X0150454Y0100716D01*
X0150393Y0100975D01*
X0150339Y0101235D01*
X0150292Y0101496D01*
X0150251Y0101759D01*
X0150216Y0102022D01*
X0150188Y0102286D01*
X0150166Y0102551D01*
X0150151Y0102816D01*
X0150142Y0103081D01*
X0150140Y0103347D01*
X0150144Y0103612D01*
X0150155Y0103878D01*
X0150172Y0104142D01*
X0150196Y0104407D01*
X0150226Y0104671D01*
X0150263Y0104934D01*
X0150306Y0105196D01*
X0150355Y0105457D01*
X0150411Y0105716D01*
X0150473Y0105975D01*
X0150541Y0106231D01*
X0150616Y0106486D01*
X0150697Y0106739D01*
X0150784Y0106990D01*
X0150877Y0107238D01*
X0150976Y0107485D01*
X0151081Y0107729D01*
X0151192Y0107970D01*
X0151309Y0108208D01*
X0151432Y0108444D01*
X0151560Y0108676D01*
X0151694Y0108905D01*
X0151834Y0109131D01*
X0151979Y0109354D01*
X0152130Y0109572D01*
X0152285Y0109787D01*
X0152446Y0109998D01*
X0152505Y0109952D01*
X0152345Y0109742D01*
X0152191Y0109529D01*
X0152041Y0109312D01*
X0151897Y0109091D01*
X0151758Y0108866D01*
X0151625Y0108639D01*
X0151498Y0108408D01*
X0151376Y0108174D01*
X0151260Y0107937D01*
X0151149Y0107698D01*
X0151045Y0107456D01*
X0150946Y0107211D01*
X0150854Y0106964D01*
X0150768Y0106715D01*
X0150687Y0106464D01*
X0150613Y0106211D01*
X0150545Y0105956D01*
X0150484Y0105700D01*
X0150428Y0105442D01*
X0150379Y0105183D01*
X0150337Y0104922D01*
X0150300Y0104661D01*
X0150270Y0104399D01*
X0150247Y0104137D01*
X0150230Y0103873D01*
X0150219Y0103610D01*
X0150215Y0103346D01*
X0150217Y0103083D01*
X0150226Y0102819D01*
X0150241Y0102556D01*
X0150263Y0102293D01*
X0150291Y0102031D01*
X0150325Y0101769D01*
X0150366Y0101509D01*
X0150413Y0101249D01*
X0150467Y0100991D01*
X0150526Y0100734D01*
X0150592Y0100479D01*
X0150665Y0100225D01*
X0150743Y0099974D01*
X0150828Y0099724D01*
X0150918Y0099476D01*
X0151015Y0099231D01*
X0151118Y0098988D01*
X0151226Y0098748D01*
X0151341Y0098510D01*
X0151461Y0098275D01*
X0151587Y0098044D01*
X0151718Y0097815D01*
X0151855Y0097590D01*
X0151998Y0097368D01*
X0152145Y0097150D01*
X0152299Y0096935D01*
X0152457Y0096724D01*
X0152621Y0096517D01*
X0152789Y0096314D01*
X0152962Y0096116D01*
X0153141Y0095921D01*
X0153324Y0095731D01*
X0153511Y0095546D01*
X0153703Y0095365D01*
X0153899Y0095189D01*
X0154100Y0095018D01*
X0154305Y0094852D01*
X0154513Y0094691D01*
X0154726Y0094535D01*
X0154942Y0094384D01*
X0155162Y0094238D01*
X0155386Y0094098D01*
X0155613Y0093964D01*
X0155843Y0093835D01*
X0156076Y0093712D01*
X0156312Y0093594D01*
X0156551Y0093483D01*
X0156792Y0093377D01*
X0157036Y0093277D01*
X0157283Y0093183D01*
X0157531Y0093095D01*
X0157782Y0093013D01*
X0157804Y0093085D01*
X0157555Y0093166D01*
X0157308Y0093253D01*
X0157064Y0093347D01*
X0156821Y0093446D01*
X0156581Y0093551D01*
X0156344Y0093662D01*
X0156110Y0093779D01*
X0155878Y0093901D01*
X0155650Y0094029D01*
X0155425Y0094163D01*
X0155203Y0094302D01*
X0154984Y0094446D01*
X0154770Y0094596D01*
X0154558Y0094751D01*
X0154351Y0094911D01*
X0154148Y0095076D01*
X0153949Y0095246D01*
X0153754Y0095421D01*
X0153563Y0095600D01*
X0153377Y0095784D01*
X0153195Y0095973D01*
X0153018Y0096166D01*
X0152846Y0096363D01*
X0152679Y0096565D01*
X0152516Y0096770D01*
X0152359Y0096979D01*
X0152207Y0097192D01*
X0152060Y0097409D01*
X0151919Y0097630D01*
X0151783Y0097853D01*
X0151652Y0098080D01*
X0151527Y0098310D01*
X0151408Y0098543D01*
X0151294Y0098779D01*
X0151186Y0099018D01*
X0151084Y0099259D01*
X0150988Y0099503D01*
X0150898Y0099749D01*
X0150814Y0099997D01*
X0150736Y0100247D01*
X0150665Y0100499D01*
X0150599Y0100752D01*
X0150540Y0101007D01*
X0150487Y0101264D01*
X0150440Y0101521D01*
X0150399Y0101780D01*
X0150365Y0102040D01*
X0150337Y0102300D01*
X0150316Y0102561D01*
X0150301Y0102822D01*
X0150292Y0103084D01*
X0150290Y0103346D01*
X0150294Y0103608D01*
X0150305Y0103869D01*
X0150322Y0104131D01*
X0150345Y0104392D01*
X0150375Y0104652D01*
X0150411Y0104911D01*
X0150453Y0105169D01*
X0150502Y0105427D01*
X0150557Y0105683D01*
X0150618Y0105937D01*
X0150685Y0106190D01*
X0150759Y0106442D01*
X0150839Y0106691D01*
X0150925Y0106939D01*
X0151016Y0107184D01*
X0151114Y0107427D01*
X0151218Y0107667D01*
X0151327Y0107905D01*
X0151443Y0108140D01*
X0151564Y0108372D01*
X0151690Y0108602D01*
X0151822Y0108828D01*
X0151960Y0109050D01*
X0152103Y0109270D01*
X0152252Y0109485D01*
X0152405Y0109697D01*
X0152564Y0109906D01*
X0152623Y0109859D01*
X0152465Y0109652D01*
X0152313Y0109442D01*
X0152165Y0109228D01*
X0152023Y0109010D01*
X0151887Y0108789D01*
X0151755Y0108564D01*
X0151630Y0108337D01*
X0151509Y0108106D01*
X0151395Y0107873D01*
X0151286Y0107636D01*
X0151183Y0107398D01*
X0151086Y0107157D01*
X0150995Y0106913D01*
X0150910Y0106667D01*
X0150831Y0106420D01*
X0150758Y0106170D01*
X0150691Y0105919D01*
X0150630Y0105666D01*
X0150575Y0105412D01*
X0150527Y0105156D01*
X0150485Y0104900D01*
X0150449Y0104642D01*
X0150420Y0104384D01*
X0150396Y0104125D01*
X0150380Y0103865D01*
X0150369Y0103606D01*
X0150365Y0103346D01*
X0150367Y0103086D01*
X0150376Y0102826D01*
X0150391Y0102566D01*
X0150412Y0102307D01*
X0150440Y0102048D01*
X0150474Y0101791D01*
X0150514Y0101534D01*
X0150560Y0101278D01*
X0150613Y0101023D01*
X0150672Y0100770D01*
X0150737Y0100518D01*
X0150808Y0100268D01*
X0150886Y0100020D01*
X0150969Y0099774D01*
X0151058Y0099530D01*
X0151154Y0099288D01*
X0151255Y0099048D01*
X0151362Y0098811D01*
X0151475Y0098577D01*
X0151593Y0098345D01*
X0151717Y0098117D01*
X0151847Y0097892D01*
X0151982Y0097669D01*
X0152123Y0097451D01*
X0152269Y0097235D01*
X0152420Y0097024D01*
X0152576Y0096816D01*
X0152737Y0096612D01*
X0152903Y0096412D01*
X0153074Y0096216D01*
X0153250Y0096024D01*
X0153430Y0095837D01*
X0153615Y0095654D01*
X0153804Y0095476D01*
X0153998Y0095302D01*
X0154196Y0095134D01*
X0154398Y0094970D01*
X0154603Y0094811D01*
X0154813Y0094657D01*
X0155026Y0094508D01*
X0155243Y0094365D01*
X0155464Y0094227D01*
X0155687Y0094094D01*
X0155914Y0093967D01*
X0156144Y0093845D01*
X0156377Y0093730D01*
X0156612Y0093619D01*
X0156850Y0093515D01*
X0157091Y0093416D01*
X0157334Y0093324D01*
X0157579Y0093237D01*
X0157826Y0093157D01*
X0157848Y0093228D01*
X0157603Y0093308D01*
X0157360Y0093394D01*
X0157118Y0093486D01*
X0156879Y0093584D01*
X0156643Y0093688D01*
X0156409Y0093797D01*
X0156178Y0093912D01*
X0155950Y0094033D01*
X0155724Y0094159D01*
X0155502Y0094291D01*
X0155284Y0094428D01*
X0155068Y0094570D01*
X0154857Y0094718D01*
X0154648Y0094871D01*
X0154444Y0095029D01*
X0154244Y0095191D01*
X0154047Y0095359D01*
X0153855Y0095531D01*
X0153667Y0095708D01*
X0153483Y0095890D01*
X0153304Y0096076D01*
X0153130Y0096266D01*
X0152960Y0096461D01*
X0152795Y0096659D01*
X0152635Y0096862D01*
X0152480Y0097068D01*
X0152330Y0097278D01*
X0152185Y0097492D01*
X0152046Y0097709D01*
X0151912Y0097930D01*
X0151783Y0098154D01*
X0151660Y0098380D01*
X0151542Y0098610D01*
X0151430Y0098843D01*
X0151324Y0099078D01*
X0151223Y0099316D01*
X0151129Y0099556D01*
X0151040Y0099799D01*
X0150957Y0100043D01*
X0150880Y0100290D01*
X0150810Y0100538D01*
X0150745Y0100788D01*
X0150686Y0101039D01*
X0150634Y0101292D01*
X0150588Y0101546D01*
X0150548Y0101801D01*
X0150514Y0102057D01*
X0150487Y0102314D01*
X0150466Y0102571D01*
X0150451Y0102829D01*
X0150442Y0103087D01*
X0150440Y0103345D01*
X0150444Y0103603D01*
X0150455Y0103861D01*
X0150471Y0104119D01*
X0150494Y0104376D01*
X0150524Y0104633D01*
X0150559Y0104888D01*
X0150601Y0105143D01*
X0150649Y0105397D01*
X0150703Y0105649D01*
X0150763Y0105900D01*
X0150830Y0106150D01*
X0150902Y0106398D01*
X0150981Y0106643D01*
X0151065Y0106887D01*
X0151156Y0107129D01*
X0151252Y0107369D01*
X0151355Y0107606D01*
X0151463Y0107840D01*
X0151576Y0108072D01*
X0151696Y0108301D01*
X0151820Y0108527D01*
X0151951Y0108750D01*
X0152087Y0108969D01*
X0152228Y0109186D01*
X0152374Y0109398D01*
X0152525Y0109607D01*
X0152682Y0109813D01*
X0152741Y0109766D01*
X0152585Y0109562D01*
X0152435Y0109355D01*
X0152290Y0109144D01*
X0152150Y0108929D01*
X0152015Y0108711D01*
X0151885Y0108490D01*
X0151762Y0108265D01*
X0151643Y0108038D01*
X0151530Y0107808D01*
X0151423Y0107575D01*
X0151322Y0107340D01*
X0151226Y0107102D01*
X0151136Y0106862D01*
X0151052Y0106620D01*
X0150974Y0106375D01*
X0150902Y0106129D01*
X0150836Y0105882D01*
X0150776Y0105632D01*
X0150722Y0105382D01*
X0150675Y0105130D01*
X0150633Y0104877D01*
X0150598Y0104623D01*
X0150569Y0104368D01*
X0150546Y0104113D01*
X0150529Y0103857D01*
X0150519Y0103601D01*
X0150515Y0103345D01*
X0150517Y0103089D01*
X0150526Y0102832D01*
X0150540Y0102576D01*
X0150561Y0102321D01*
X0150589Y0102066D01*
X0150622Y0101812D01*
X0150662Y0101559D01*
X0150708Y0101306D01*
X0150760Y0101055D01*
X0150818Y0100806D01*
X0150882Y0100558D01*
X0150952Y0100311D01*
X0151028Y0100066D01*
X0151111Y0099824D01*
X0151199Y0099583D01*
X0151293Y0099344D01*
X0151392Y0099108D01*
X0151498Y0098875D01*
X0151609Y0098644D01*
X0151726Y0098416D01*
X0151848Y0098190D01*
X0151976Y0097968D01*
X0152109Y0097749D01*
X0152248Y0097533D01*
X0152392Y0097321D01*
X0152540Y0097112D01*
X0152694Y0096908D01*
X0152853Y0096706D01*
X0153017Y0096509D01*
X0153186Y0096316D01*
X0153359Y0096127D01*
X0153537Y0095943D01*
X0153719Y0095762D01*
X0153906Y0095587D01*
X0154096Y0095415D01*
X0154291Y0095249D01*
X0154490Y0095087D01*
X0154693Y0094931D01*
X0154900Y0094779D01*
X0155110Y0094633D01*
X0155324Y0094491D01*
X0155541Y0094355D01*
X0155762Y0094224D01*
X0155985Y0094099D01*
X0156212Y0093979D01*
X0156441Y0093865D01*
X0156674Y0093756D01*
X0156908Y0093653D01*
X0157146Y0093556D01*
X0157385Y0093465D01*
X0157627Y0093379D01*
X0157871Y0093300D01*
X0157893Y0093372D01*
X0157651Y0093451D01*
X0157411Y0093535D01*
X0157173Y0093626D01*
X0156937Y0093722D01*
X0156704Y0093825D01*
X0156474Y0093932D01*
X0156246Y0094046D01*
X0156021Y0094165D01*
X0155799Y0094289D01*
X0155580Y0094419D01*
X0155365Y0094554D01*
X0155152Y0094695D01*
X0154943Y0094840D01*
X0154738Y0094991D01*
X0154537Y0095146D01*
X0154339Y0095307D01*
X0154146Y0095472D01*
X0153956Y0095642D01*
X0153771Y0095816D01*
X0153590Y0095995D01*
X0153414Y0096179D01*
X0153242Y0096366D01*
X0153074Y0096558D01*
X0152912Y0096754D01*
X0152754Y0096953D01*
X0152601Y0097157D01*
X0152453Y0097364D01*
X0152310Y0097575D01*
X0152173Y0097789D01*
X0152041Y0098006D01*
X0151914Y0098227D01*
X0151792Y0098451D01*
X0151676Y0098677D01*
X0151566Y0098906D01*
X0151461Y0099138D01*
X0151362Y0099373D01*
X0151269Y0099610D01*
X0151181Y0099849D01*
X0151100Y0100090D01*
X0151024Y0100333D01*
X0150954Y0100577D01*
X0150891Y0100824D01*
X0150833Y0101072D01*
X0150781Y0101321D01*
X0150736Y0101571D01*
X0150696Y0101823D01*
X0150663Y0102075D01*
X0150636Y0102328D01*
X0150615Y0102582D01*
X0150601Y0102836D01*
X0150592Y0103090D01*
X0150590Y0103345D01*
X0150594Y0103599D01*
X0150604Y0103853D01*
X0150621Y0104107D01*
X0150643Y0104361D01*
X0150672Y0104614D01*
X0150707Y0104866D01*
X0150749Y0105117D01*
X0150796Y0105367D01*
X0150849Y0105616D01*
X0150909Y0105863D01*
X0150974Y0106109D01*
X0151046Y0106353D01*
X0151123Y0106596D01*
X0151206Y0106836D01*
X0151296Y0107075D01*
X0151391Y0107311D01*
X0151491Y0107544D01*
X0151598Y0107775D01*
X0151710Y0108004D01*
X0151827Y0108230D01*
X0151951Y0108452D01*
X0152079Y0108672D01*
X0152213Y0108889D01*
X0152352Y0109102D01*
X0152496Y0109311D01*
X0152645Y0109517D01*
X0152800Y0109720D01*
X0152859Y0109673D01*
X0152706Y0109473D01*
X0152557Y0109268D01*
X0152414Y0109060D01*
X0152276Y0108848D01*
X0152143Y0108633D01*
X0152016Y0108415D01*
X0151893Y0108194D01*
X0151777Y0107970D01*
X0151665Y0107743D01*
X0151560Y0107514D01*
X0151460Y0107282D01*
X0151366Y0107047D01*
X0151277Y0106811D01*
X0151194Y0106572D01*
X0151117Y0106331D01*
X0151046Y0106089D01*
X0150981Y0105845D01*
X0150922Y0105599D01*
X0150869Y0105352D01*
X0150822Y0105104D01*
X0150781Y0104854D01*
X0150747Y0104604D01*
X0150718Y0104353D01*
X0150696Y0104101D01*
X0150679Y0103849D01*
X0150669Y0103597D01*
X0150665Y0103344D01*
X0150667Y0103092D01*
X0150676Y0102839D01*
X0150690Y0102587D01*
X0150711Y0102335D01*
X0150738Y0102084D01*
X0150771Y0101833D01*
X0150810Y0101584D01*
X0150855Y0101335D01*
X0150906Y0101088D01*
X0150963Y0100842D01*
X0151027Y0100597D01*
X0151096Y0100354D01*
X0151171Y0100113D01*
X0151252Y0099873D01*
X0151339Y0099636D01*
X0151431Y0099401D01*
X0151530Y0099168D01*
X0151634Y0098938D01*
X0151743Y0098710D01*
X0151859Y0098486D01*
X0151979Y0098264D01*
X0152105Y0098045D01*
X0152236Y0097829D01*
X0152373Y0097616D01*
X0152515Y0097407D01*
X0152661Y0097201D01*
X0152813Y0096999D01*
X0152970Y0096801D01*
X0153131Y0096607D01*
X0153297Y0096416D01*
X0153468Y0096230D01*
X0153643Y0096048D01*
X0153823Y0095870D01*
X0154007Y0095697D01*
X0154195Y0095529D01*
X0154387Y0095365D01*
X0154583Y0095205D01*
X0154783Y0095051D01*
X0154987Y0094901D01*
X0155194Y0094757D01*
X0155405Y0094617D01*
X0155619Y0094483D01*
X0155836Y0094354D01*
X0156057Y0094231D01*
X0156280Y0094113D01*
X0156506Y0094000D01*
X0156735Y0093893D01*
X0156966Y0093792D01*
X0157200Y0093696D01*
X0157436Y0093606D01*
X0157675Y0093522D01*
X0157915Y0093443D01*
X0157937Y0093515D01*
X0157698Y0093593D01*
X0157462Y0093676D01*
X0157228Y0093766D01*
X0156995Y0093861D01*
X0156766Y0093961D01*
X0156539Y0094068D01*
X0156314Y0094180D01*
X0156092Y0094297D01*
X0155874Y0094419D01*
X0155658Y0094547D01*
X0155445Y0094681D01*
X0155236Y0094819D01*
X0155030Y0094962D01*
X0154828Y0095111D01*
X0154630Y0095264D01*
X0154435Y0095422D01*
X0154244Y0095585D01*
X0154058Y0095753D01*
X0153875Y0095925D01*
X0153697Y0096101D01*
X0153523Y0096282D01*
X0153353Y0096466D01*
X0153188Y0096655D01*
X0153028Y0096848D01*
X0152872Y0097045D01*
X0152722Y0097246D01*
X0152576Y0097450D01*
X0152436Y0097657D01*
X0152300Y0097869D01*
X0152170Y0098083D01*
X0152045Y0098300D01*
X0151925Y0098521D01*
X0151811Y0098744D01*
X0151702Y0098970D01*
X0151599Y0099198D01*
X0151501Y0099429D01*
X0151409Y0099663D01*
X0151323Y0099898D01*
X0151242Y0100136D01*
X0151168Y0100375D01*
X0151099Y0100617D01*
X0151036Y0100859D01*
X0150979Y0101104D01*
X0150929Y0101349D01*
X0150884Y0101596D01*
X0150845Y0101844D01*
X0150812Y0102093D01*
X0150785Y0102342D01*
X0150765Y0102592D01*
X0150751Y0102842D01*
X0150742Y0103093D01*
X0150740Y0103344D01*
X0150744Y0103595D01*
X0150754Y0103845D01*
X0150770Y0104095D01*
X0150793Y0104345D01*
X0150821Y0104594D01*
X0150856Y0104843D01*
X0150896Y0105090D01*
X0150943Y0105337D01*
X0150995Y0105582D01*
X0151054Y0105826D01*
X0151119Y0106068D01*
X0151189Y0106309D01*
X0151265Y0106548D01*
X0151347Y0106785D01*
X0151435Y0107020D01*
X0151529Y0107253D01*
X0151628Y0107483D01*
X0151733Y0107711D01*
X0151844Y0107936D01*
X0151959Y0108158D01*
X0152081Y0108378D01*
X0152207Y0108594D01*
X0152339Y0108808D01*
X0152476Y0109018D01*
X0152618Y0109224D01*
X0152766Y0109428D01*
X0152918Y0109627D01*
X0152977Y0109581D01*
X0152826Y0109383D01*
X0152679Y0109181D01*
X0152538Y0108976D01*
X0152402Y0108767D01*
X0152271Y0108556D01*
X0152146Y0108341D01*
X0152025Y0108123D01*
X0151910Y0107902D01*
X0151801Y0107678D01*
X0151697Y0107452D01*
X0151598Y0107224D01*
X0151505Y0106993D01*
X0151418Y0106759D01*
X0151336Y0106524D01*
X0151261Y0106287D01*
X0151191Y0106048D01*
X0151127Y0105807D01*
X0151069Y0105565D01*
X0151016Y0105322D01*
X0150970Y0105077D01*
X0150930Y0104832D01*
X0150895Y0104585D01*
X0150867Y0104338D01*
X0150845Y0104090D01*
X0150829Y0103841D01*
X0150819Y0103592D01*
X0150815Y0103343D01*
X0150817Y0103094D01*
X0150825Y0102846D01*
X0150840Y0102597D01*
X0150860Y0102349D01*
X0150887Y0102101D01*
X0150919Y0101855D01*
X0150958Y0101609D01*
X0151002Y0101364D01*
X0151053Y0101120D01*
X0151109Y0100877D01*
X0151171Y0100636D01*
X0151240Y0100397D01*
X0151314Y0100159D01*
X0151394Y0099923D01*
X0151479Y0099689D01*
X0151570Y0099458D01*
X0151667Y0099229D01*
X0151770Y0099002D01*
X0151878Y0098777D01*
X0151991Y0098556D01*
X0152110Y0098337D01*
X0152234Y0098121D01*
X0152364Y0097908D01*
X0152498Y0097699D01*
X0152638Y0097493D01*
X0152782Y0097290D01*
X0152932Y0097091D01*
X0153086Y0096896D01*
X0153245Y0096704D01*
X0153409Y0096517D01*
X0153577Y0096333D01*
X0153750Y0096154D01*
X0153927Y0095979D01*
X0154108Y0095808D01*
X0154294Y0095642D01*
X0154483Y0095480D01*
X0154676Y0095323D01*
X0154873Y0095171D01*
X0155074Y0095024D01*
X0155278Y0094881D01*
X0155486Y0094744D01*
X0155697Y0094612D01*
X0155911Y0094485D01*
X0156128Y0094363D01*
X0156348Y0094246D01*
X0156571Y0094135D01*
X0156796Y0094030D01*
X0157025Y0093930D01*
X0157255Y0093836D01*
X0157488Y0093747D01*
X0157722Y0093664D01*
X0157959Y0093587D01*
X0164239Y0092942D02*
X0164027Y0093630D01*
X0164028Y0093630D02*
X0164263Y0093706D01*
X0164497Y0093789D01*
X0164729Y0093877D01*
X0164958Y0093971D01*
X0165185Y0094071D01*
X0165409Y0094176D01*
X0165631Y0094286D01*
X0165850Y0094402D01*
X0166067Y0094524D01*
X0166280Y0094650D01*
X0166490Y0094782D01*
X0166697Y0094918D01*
X0166900Y0095060D01*
X0167100Y0095207D01*
X0167296Y0095358D01*
X0167488Y0095515D01*
X0167677Y0095676D01*
X0167861Y0095841D01*
X0168042Y0096011D01*
X0168218Y0096185D01*
X0168390Y0096364D01*
X0168557Y0096546D01*
X0168720Y0096733D01*
X0168879Y0096924D01*
X0169032Y0097118D01*
X0169181Y0097317D01*
X0169325Y0097518D01*
X0169464Y0097724D01*
X0169598Y0097932D01*
X0169727Y0098144D01*
X0169851Y0098359D01*
X0169969Y0098577D01*
X0170082Y0098797D01*
X0170189Y0099021D01*
X0170291Y0099246D01*
X0170388Y0099475D01*
X0170479Y0099705D01*
X0170564Y0099938D01*
X0170643Y0100173D01*
X0170717Y0100410D01*
X0170785Y0100648D01*
X0170847Y0100888D01*
X0170903Y0101129D01*
X0170954Y0101372D01*
X0170998Y0101616D01*
X0171036Y0101861D01*
X0171069Y0102107D01*
X0171095Y0102353D01*
X0171115Y0102600D01*
X0171130Y0102847D01*
X0171138Y0103095D01*
X0171140Y0103343D01*
X0171136Y0103591D01*
X0171126Y0103839D01*
X0171110Y0104086D01*
X0171088Y0104333D01*
X0171060Y0104579D01*
X0171026Y0104825D01*
X0170986Y0105069D01*
X0170940Y0105313D01*
X0170888Y0105555D01*
X0170830Y0105796D01*
X0170766Y0106036D01*
X0170696Y0106273D01*
X0170621Y0106510D01*
X0170540Y0106744D01*
X0170453Y0106976D01*
X0170360Y0107206D01*
X0170262Y0107434D01*
X0170159Y0107659D01*
X0170050Y0107881D01*
X0169935Y0108101D01*
X0169815Y0108318D01*
X0169690Y0108532D01*
X0169560Y0108743D01*
X0169424Y0108950D01*
X0169284Y0109155D01*
X0169139Y0109355D01*
X0168988Y0109553D01*
X0169553Y0109998D01*
X0169554Y0109998D01*
X0169715Y0109787D01*
X0169871Y0109572D01*
X0170021Y0109353D01*
X0170166Y0109131D01*
X0170306Y0108905D01*
X0170440Y0108676D01*
X0170568Y0108444D01*
X0170691Y0108208D01*
X0170808Y0107970D01*
X0170919Y0107728D01*
X0171024Y0107485D01*
X0171123Y0107238D01*
X0171217Y0106990D01*
X0171304Y0106739D01*
X0171384Y0106486D01*
X0171459Y0106231D01*
X0171527Y0105974D01*
X0171589Y0105716D01*
X0171645Y0105457D01*
X0171695Y0105196D01*
X0171737Y0104934D01*
X0171774Y0104671D01*
X0171804Y0104407D01*
X0171828Y0104142D01*
X0171845Y0103877D01*
X0171856Y0103612D01*
X0171860Y0103347D01*
X0171858Y0103081D01*
X0171849Y0102816D01*
X0171834Y0102550D01*
X0171812Y0102286D01*
X0171784Y0102022D01*
X0171749Y0101759D01*
X0171708Y0101496D01*
X0171660Y0101235D01*
X0171607Y0100975D01*
X0171546Y0100716D01*
X0171480Y0100459D01*
X0171407Y0100204D01*
X0171328Y0099950D01*
X0171243Y0099699D01*
X0171152Y0099449D01*
X0171054Y0099202D01*
X0170951Y0098958D01*
X0170842Y0098716D01*
X0170727Y0098477D01*
X0170606Y0098240D01*
X0170479Y0098007D01*
X0170346Y0097777D01*
X0170208Y0097550D01*
X0170065Y0097326D01*
X0169916Y0097107D01*
X0169762Y0096890D01*
X0169602Y0096678D01*
X0169438Y0096470D01*
X0169268Y0096266D01*
X0169093Y0096066D01*
X0168914Y0095870D01*
X0168730Y0095679D01*
X0168541Y0095492D01*
X0168347Y0095310D01*
X0168150Y0095133D01*
X0167948Y0094960D01*
X0167742Y0094793D01*
X0167531Y0094631D01*
X0167317Y0094473D01*
X0167099Y0094322D01*
X0166878Y0094175D01*
X0166653Y0094034D01*
X0166425Y0093899D01*
X0166193Y0093769D01*
X0165958Y0093645D01*
X0165720Y0093527D01*
X0165480Y0093414D01*
X0165237Y0093307D01*
X0164991Y0093207D01*
X0164743Y0093112D01*
X0164492Y0093024D01*
X0164240Y0092942D01*
X0164218Y0093013D01*
X0164469Y0093095D01*
X0164717Y0093183D01*
X0164964Y0093277D01*
X0165208Y0093377D01*
X0165449Y0093482D01*
X0165688Y0093594D01*
X0165924Y0093712D01*
X0166157Y0093835D01*
X0166387Y0093964D01*
X0166614Y0094098D01*
X0166838Y0094238D01*
X0167057Y0094384D01*
X0167274Y0094535D01*
X0167486Y0094691D01*
X0167695Y0094852D01*
X0167900Y0095018D01*
X0168100Y0095189D01*
X0168297Y0095365D01*
X0168489Y0095546D01*
X0168676Y0095731D01*
X0168859Y0095921D01*
X0169037Y0096116D01*
X0169211Y0096314D01*
X0169379Y0096517D01*
X0169543Y0096724D01*
X0169701Y0096935D01*
X0169854Y0097149D01*
X0170002Y0097368D01*
X0170145Y0097590D01*
X0170282Y0097815D01*
X0170413Y0098044D01*
X0170539Y0098275D01*
X0170659Y0098510D01*
X0170774Y0098748D01*
X0170882Y0098988D01*
X0170985Y0099231D01*
X0171082Y0099476D01*
X0171172Y0099724D01*
X0171257Y0099973D01*
X0171335Y0100225D01*
X0171408Y0100479D01*
X0171474Y0100734D01*
X0171533Y0100991D01*
X0171587Y0101249D01*
X0171634Y0101509D01*
X0171675Y0101769D01*
X0171709Y0102031D01*
X0171737Y0102293D01*
X0171759Y0102556D01*
X0171774Y0102819D01*
X0171783Y0103082D01*
X0171785Y0103346D01*
X0171781Y0103610D01*
X0171770Y0103873D01*
X0171753Y0104136D01*
X0171730Y0104399D01*
X0171700Y0104661D01*
X0171663Y0104922D01*
X0171621Y0105182D01*
X0171572Y0105442D01*
X0171516Y0105699D01*
X0171455Y0105956D01*
X0171387Y0106211D01*
X0171313Y0106464D01*
X0171232Y0106715D01*
X0171146Y0106964D01*
X0171054Y0107211D01*
X0170955Y0107456D01*
X0170851Y0107698D01*
X0170740Y0107937D01*
X0170624Y0108174D01*
X0170502Y0108408D01*
X0170375Y0108639D01*
X0170242Y0108866D01*
X0170103Y0109091D01*
X0169959Y0109311D01*
X0169810Y0109529D01*
X0169655Y0109742D01*
X0169495Y0109952D01*
X0169436Y0109905D01*
X0169595Y0109697D01*
X0169748Y0109485D01*
X0169897Y0109269D01*
X0170040Y0109050D01*
X0170178Y0108827D01*
X0170310Y0108601D01*
X0170437Y0108372D01*
X0170558Y0108140D01*
X0170673Y0107905D01*
X0170782Y0107667D01*
X0170886Y0107427D01*
X0170984Y0107184D01*
X0171076Y0106938D01*
X0171161Y0106691D01*
X0171241Y0106442D01*
X0171315Y0106190D01*
X0171382Y0105937D01*
X0171443Y0105683D01*
X0171498Y0105427D01*
X0171547Y0105169D01*
X0171589Y0104911D01*
X0171625Y0104652D01*
X0171655Y0104391D01*
X0171678Y0104131D01*
X0171695Y0103869D01*
X0171706Y0103608D01*
X0171710Y0103346D01*
X0171708Y0103084D01*
X0171699Y0102822D01*
X0171684Y0102561D01*
X0171663Y0102300D01*
X0171635Y0102039D01*
X0171601Y0101780D01*
X0171560Y0101521D01*
X0171513Y0101263D01*
X0171460Y0101007D01*
X0171401Y0100752D01*
X0171335Y0100499D01*
X0171263Y0100247D01*
X0171186Y0099997D01*
X0171102Y0099749D01*
X0171012Y0099503D01*
X0170916Y0099259D01*
X0170814Y0099018D01*
X0170706Y0098779D01*
X0170592Y0098543D01*
X0170473Y0098310D01*
X0170348Y0098080D01*
X0170217Y0097853D01*
X0170081Y0097629D01*
X0169940Y0097409D01*
X0169793Y0097192D01*
X0169641Y0096979D01*
X0169484Y0096770D01*
X0169321Y0096564D01*
X0169154Y0096363D01*
X0168982Y0096166D01*
X0168805Y0095973D01*
X0168623Y0095784D01*
X0168437Y0095600D01*
X0168246Y0095420D01*
X0168051Y0095246D01*
X0167852Y0095076D01*
X0167649Y0094911D01*
X0167441Y0094751D01*
X0167230Y0094596D01*
X0167016Y0094446D01*
X0166797Y0094302D01*
X0166575Y0094163D01*
X0166350Y0094029D01*
X0166122Y0093901D01*
X0165890Y0093779D01*
X0165656Y0093662D01*
X0165418Y0093551D01*
X0165179Y0093446D01*
X0164936Y0093347D01*
X0164692Y0093253D01*
X0164445Y0093166D01*
X0164196Y0093085D01*
X0164174Y0093157D01*
X0164421Y0093237D01*
X0164666Y0093324D01*
X0164909Y0093416D01*
X0165150Y0093515D01*
X0165388Y0093619D01*
X0165623Y0093729D01*
X0165856Y0093845D01*
X0166086Y0093967D01*
X0166313Y0094094D01*
X0166536Y0094227D01*
X0166757Y0094365D01*
X0166974Y0094508D01*
X0167187Y0094657D01*
X0167396Y0094811D01*
X0167602Y0094970D01*
X0167804Y0095133D01*
X0168002Y0095302D01*
X0168196Y0095476D01*
X0168385Y0095654D01*
X0168570Y0095837D01*
X0168750Y0096024D01*
X0168926Y0096216D01*
X0169097Y0096412D01*
X0169263Y0096612D01*
X0169424Y0096816D01*
X0169580Y0097024D01*
X0169731Y0097235D01*
X0169877Y0097451D01*
X0170018Y0097669D01*
X0170153Y0097891D01*
X0170283Y0098117D01*
X0170407Y0098345D01*
X0170525Y0098577D01*
X0170638Y0098811D01*
X0170745Y0099048D01*
X0170846Y0099288D01*
X0170941Y0099529D01*
X0171031Y0099774D01*
X0171114Y0100020D01*
X0171192Y0100268D01*
X0171263Y0100518D01*
X0171328Y0100770D01*
X0171387Y0101023D01*
X0171440Y0101278D01*
X0171486Y0101534D01*
X0171526Y0101790D01*
X0171560Y0102048D01*
X0171588Y0102307D01*
X0171609Y0102566D01*
X0171624Y0102826D01*
X0171633Y0103085D01*
X0171635Y0103345D01*
X0171631Y0103605D01*
X0171620Y0103865D01*
X0171604Y0104125D01*
X0171580Y0104384D01*
X0171551Y0104642D01*
X0171515Y0104900D01*
X0171473Y0105156D01*
X0171425Y0105412D01*
X0171370Y0105666D01*
X0171309Y0105919D01*
X0171242Y0106170D01*
X0171169Y0106419D01*
X0171090Y0106667D01*
X0171005Y0106913D01*
X0170914Y0107156D01*
X0170817Y0107398D01*
X0170714Y0107636D01*
X0170605Y0107872D01*
X0170491Y0108106D01*
X0170371Y0108337D01*
X0170245Y0108564D01*
X0170113Y0108789D01*
X0169977Y0109010D01*
X0169835Y0109227D01*
X0169687Y0109442D01*
X0169535Y0109652D01*
X0169377Y0109859D01*
X0169318Y0109813D01*
X0169475Y0109607D01*
X0169626Y0109398D01*
X0169773Y0109185D01*
X0169914Y0108969D01*
X0170049Y0108750D01*
X0170180Y0108527D01*
X0170305Y0108301D01*
X0170424Y0108072D01*
X0170538Y0107840D01*
X0170646Y0107606D01*
X0170748Y0107369D01*
X0170844Y0107129D01*
X0170935Y0106887D01*
X0171019Y0106643D01*
X0171098Y0106397D01*
X0171170Y0106150D01*
X0171237Y0105900D01*
X0171297Y0105649D01*
X0171351Y0105397D01*
X0171399Y0105143D01*
X0171441Y0104888D01*
X0171476Y0104632D01*
X0171506Y0104376D01*
X0171529Y0104119D01*
X0171545Y0103861D01*
X0171556Y0103603D01*
X0171560Y0103345D01*
X0171558Y0103087D01*
X0171549Y0102829D01*
X0171534Y0102571D01*
X0171513Y0102314D01*
X0171486Y0102057D01*
X0171452Y0101801D01*
X0171412Y0101546D01*
X0171366Y0101292D01*
X0171314Y0101039D01*
X0171255Y0100788D01*
X0171190Y0100538D01*
X0171120Y0100290D01*
X0171043Y0100043D01*
X0170960Y0099799D01*
X0170871Y0099556D01*
X0170777Y0099316D01*
X0170676Y0099078D01*
X0170570Y0098843D01*
X0170458Y0098610D01*
X0170340Y0098380D01*
X0170217Y0098153D01*
X0170088Y0097930D01*
X0169954Y0097709D01*
X0169815Y0097492D01*
X0169670Y0097278D01*
X0169520Y0097068D01*
X0169365Y0096862D01*
X0169205Y0096659D01*
X0169040Y0096460D01*
X0168870Y0096266D01*
X0168696Y0096076D01*
X0168516Y0095890D01*
X0168333Y0095708D01*
X0168145Y0095531D01*
X0167953Y0095359D01*
X0167756Y0095191D01*
X0167556Y0095028D01*
X0167352Y0094871D01*
X0167143Y0094718D01*
X0166932Y0094570D01*
X0166716Y0094428D01*
X0166497Y0094291D01*
X0166275Y0094159D01*
X0166050Y0094033D01*
X0165822Y0093912D01*
X0165591Y0093797D01*
X0165357Y0093688D01*
X0165121Y0093584D01*
X0164882Y0093486D01*
X0164640Y0093394D01*
X0164397Y0093308D01*
X0164152Y0093228D01*
X0164129Y0093300D01*
X0164373Y0093379D01*
X0164615Y0093465D01*
X0164854Y0093556D01*
X0165092Y0093653D01*
X0165326Y0093756D01*
X0165558Y0093865D01*
X0165788Y0093979D01*
X0166015Y0094099D01*
X0166238Y0094224D01*
X0166459Y0094355D01*
X0166676Y0094491D01*
X0166890Y0094632D01*
X0167100Y0094779D01*
X0167307Y0094931D01*
X0167509Y0095087D01*
X0167708Y0095249D01*
X0167903Y0095415D01*
X0168094Y0095586D01*
X0168281Y0095762D01*
X0168463Y0095942D01*
X0168641Y0096127D01*
X0168814Y0096316D01*
X0168983Y0096509D01*
X0169147Y0096706D01*
X0169305Y0096907D01*
X0169459Y0097112D01*
X0169608Y0097321D01*
X0169752Y0097533D01*
X0169891Y0097749D01*
X0170024Y0097968D01*
X0170152Y0098190D01*
X0170274Y0098415D01*
X0170391Y0098644D01*
X0170502Y0098875D01*
X0170608Y0099108D01*
X0170707Y0099344D01*
X0170801Y0099583D01*
X0170889Y0099823D01*
X0170972Y0100066D01*
X0171048Y0100311D01*
X0171118Y0100557D01*
X0171182Y0100806D01*
X0171240Y0101055D01*
X0171292Y0101306D01*
X0171338Y0101559D01*
X0171378Y0101812D01*
X0171411Y0102066D01*
X0171439Y0102321D01*
X0171460Y0102576D01*
X0171474Y0102832D01*
X0171483Y0103088D01*
X0171485Y0103345D01*
X0171481Y0103601D01*
X0171471Y0103857D01*
X0171454Y0104113D01*
X0171431Y0104368D01*
X0171402Y0104623D01*
X0171367Y0104877D01*
X0171325Y0105130D01*
X0171278Y0105382D01*
X0171224Y0105632D01*
X0171164Y0105882D01*
X0171098Y0106129D01*
X0171026Y0106375D01*
X0170948Y0106619D01*
X0170864Y0106862D01*
X0170774Y0107102D01*
X0170679Y0107339D01*
X0170577Y0107575D01*
X0170470Y0107808D01*
X0170357Y0108038D01*
X0170239Y0108265D01*
X0170115Y0108490D01*
X0169985Y0108711D01*
X0169850Y0108929D01*
X0169710Y0109144D01*
X0169565Y0109355D01*
X0169415Y0109562D01*
X0169259Y0109766D01*
X0169200Y0109720D01*
X0169355Y0109517D01*
X0169504Y0109311D01*
X0169648Y0109102D01*
X0169787Y0108888D01*
X0169921Y0108672D01*
X0170050Y0108452D01*
X0170173Y0108230D01*
X0170290Y0108004D01*
X0170402Y0107775D01*
X0170509Y0107544D01*
X0170609Y0107310D01*
X0170704Y0107074D01*
X0170794Y0106836D01*
X0170877Y0106596D01*
X0170954Y0106353D01*
X0171026Y0106109D01*
X0171091Y0105863D01*
X0171151Y0105615D01*
X0171204Y0105367D01*
X0171252Y0105117D01*
X0171293Y0104865D01*
X0171328Y0104613D01*
X0171357Y0104361D01*
X0171379Y0104107D01*
X0171396Y0103853D01*
X0171406Y0103599D01*
X0171410Y0103344D01*
X0171408Y0103090D01*
X0171399Y0102836D01*
X0171385Y0102581D01*
X0171364Y0102328D01*
X0171337Y0102075D01*
X0171304Y0101822D01*
X0171264Y0101571D01*
X0171219Y0101321D01*
X0171167Y0101071D01*
X0171109Y0100824D01*
X0171046Y0100577D01*
X0170976Y0100332D01*
X0170900Y0100089D01*
X0170819Y0099848D01*
X0170731Y0099609D01*
X0170638Y0099373D01*
X0170539Y0099138D01*
X0170434Y0098906D01*
X0170324Y0098677D01*
X0170208Y0098450D01*
X0170086Y0098227D01*
X0169959Y0098006D01*
X0169827Y0097789D01*
X0169690Y0097575D01*
X0169547Y0097364D01*
X0169399Y0097157D01*
X0169246Y0096953D01*
X0169088Y0096754D01*
X0168926Y0096558D01*
X0168758Y0096366D01*
X0168586Y0096179D01*
X0168410Y0095995D01*
X0168229Y0095816D01*
X0168044Y0095642D01*
X0167854Y0095472D01*
X0167661Y0095307D01*
X0167463Y0095146D01*
X0167262Y0094991D01*
X0167056Y0094840D01*
X0166848Y0094695D01*
X0166635Y0094554D01*
X0166420Y0094419D01*
X0166201Y0094289D01*
X0165979Y0094165D01*
X0165754Y0094046D01*
X0165526Y0093932D01*
X0165296Y0093825D01*
X0165062Y0093722D01*
X0164827Y0093626D01*
X0164589Y0093535D01*
X0164349Y0093450D01*
X0164107Y0093372D01*
X0164085Y0093443D01*
X0164325Y0093522D01*
X0164564Y0093606D01*
X0164800Y0093696D01*
X0165033Y0093792D01*
X0165265Y0093893D01*
X0165494Y0094000D01*
X0165720Y0094113D01*
X0165943Y0094231D01*
X0166164Y0094354D01*
X0166381Y0094483D01*
X0166595Y0094617D01*
X0166806Y0094757D01*
X0167013Y0094901D01*
X0167217Y0095051D01*
X0167417Y0095205D01*
X0167613Y0095364D01*
X0167805Y0095528D01*
X0167993Y0095697D01*
X0168177Y0095870D01*
X0168357Y0096048D01*
X0168532Y0096230D01*
X0168703Y0096416D01*
X0168869Y0096607D01*
X0169030Y0096801D01*
X0169187Y0096999D01*
X0169339Y0097201D01*
X0169485Y0097407D01*
X0169627Y0097616D01*
X0169764Y0097829D01*
X0169895Y0098044D01*
X0170021Y0098263D01*
X0170141Y0098485D01*
X0170257Y0098710D01*
X0170366Y0098938D01*
X0170470Y0099168D01*
X0170568Y0099401D01*
X0170661Y0099636D01*
X0170748Y0099873D01*
X0170829Y0100113D01*
X0170904Y0100354D01*
X0170973Y0100597D01*
X0171037Y0100841D01*
X0171094Y0101087D01*
X0171145Y0101335D01*
X0171190Y0101583D01*
X0171229Y0101833D01*
X0171262Y0102084D01*
X0171289Y0102335D01*
X0171310Y0102587D01*
X0171324Y0102839D01*
X0171333Y0103091D01*
X0171335Y0103344D01*
X0171331Y0103597D01*
X0171321Y0103849D01*
X0171304Y0104101D01*
X0171282Y0104353D01*
X0171253Y0104604D01*
X0171219Y0104854D01*
X0171178Y0105103D01*
X0171131Y0105352D01*
X0171078Y0105599D01*
X0171019Y0105844D01*
X0170954Y0106089D01*
X0170883Y0106331D01*
X0170806Y0106572D01*
X0170723Y0106810D01*
X0170635Y0107047D01*
X0170540Y0107281D01*
X0170440Y0107513D01*
X0170335Y0107743D01*
X0170223Y0107970D01*
X0170107Y0108194D01*
X0169984Y0108415D01*
X0169857Y0108633D01*
X0169724Y0108848D01*
X0169586Y0109060D01*
X0169443Y0109268D01*
X0169295Y0109472D01*
X0169141Y0109673D01*
X0169083Y0109627D01*
X0169235Y0109427D01*
X0169382Y0109224D01*
X0169524Y0109018D01*
X0169661Y0108808D01*
X0169793Y0108594D01*
X0169919Y0108378D01*
X0170041Y0108158D01*
X0170157Y0107936D01*
X0170267Y0107711D01*
X0170372Y0107483D01*
X0170471Y0107252D01*
X0170565Y0107020D01*
X0170653Y0106785D01*
X0170735Y0106548D01*
X0170811Y0106309D01*
X0170881Y0106068D01*
X0170946Y0105826D01*
X0171005Y0105582D01*
X0171057Y0105337D01*
X0171104Y0105090D01*
X0171144Y0104843D01*
X0171179Y0104594D01*
X0171207Y0104345D01*
X0171230Y0104095D01*
X0171246Y0103845D01*
X0171256Y0103594D01*
X0171260Y0103344D01*
X0171258Y0103093D01*
X0171249Y0102842D01*
X0171235Y0102592D01*
X0171214Y0102342D01*
X0171188Y0102092D01*
X0171155Y0101844D01*
X0171116Y0101596D01*
X0171071Y0101349D01*
X0171021Y0101104D01*
X0170964Y0100859D01*
X0170901Y0100616D01*
X0170832Y0100375D01*
X0170758Y0100136D01*
X0170677Y0099898D01*
X0170591Y0099663D01*
X0170499Y0099429D01*
X0170401Y0099198D01*
X0170298Y0098970D01*
X0170189Y0098744D01*
X0170075Y0098520D01*
X0169955Y0098300D01*
X0169830Y0098083D01*
X0169700Y0097868D01*
X0169564Y0097657D01*
X0169424Y0097450D01*
X0169278Y0097246D01*
X0169127Y0097045D01*
X0168972Y0096848D01*
X0168812Y0096655D01*
X0168647Y0096466D01*
X0168477Y0096281D01*
X0168303Y0096101D01*
X0168125Y0095924D01*
X0167942Y0095752D01*
X0167756Y0095585D01*
X0167565Y0095422D01*
X0167370Y0095264D01*
X0167172Y0095111D01*
X0166969Y0094962D01*
X0166764Y0094819D01*
X0166555Y0094681D01*
X0166342Y0094547D01*
X0166126Y0094419D01*
X0165908Y0094297D01*
X0165686Y0094180D01*
X0165461Y0094068D01*
X0165234Y0093961D01*
X0165004Y0093861D01*
X0164772Y0093766D01*
X0164538Y0093676D01*
X0164301Y0093593D01*
X0164063Y0093515D01*
X0164041Y0093587D01*
X0164278Y0093664D01*
X0164512Y0093747D01*
X0164745Y0093836D01*
X0164975Y0093930D01*
X0165203Y0094030D01*
X0165429Y0094135D01*
X0165652Y0094246D01*
X0165872Y0094363D01*
X0166089Y0094485D01*
X0166303Y0094612D01*
X0166514Y0094744D01*
X0166722Y0094881D01*
X0166926Y0095023D01*
X0167127Y0095171D01*
X0167324Y0095323D01*
X0167517Y0095480D01*
X0167706Y0095642D01*
X0167892Y0095808D01*
X0168073Y0095978D01*
X0168250Y0096154D01*
X0168423Y0096333D01*
X0168591Y0096516D01*
X0168755Y0096704D01*
X0168914Y0096896D01*
X0169068Y0097091D01*
X0169218Y0097290D01*
X0169362Y0097493D01*
X0169502Y0097699D01*
X0169636Y0097908D01*
X0169766Y0098121D01*
X0169890Y0098337D01*
X0170009Y0098556D01*
X0170122Y0098777D01*
X0170230Y0099001D01*
X0170333Y0099228D01*
X0170430Y0099458D01*
X0170521Y0099689D01*
X0170606Y0099923D01*
X0170686Y0100159D01*
X0170760Y0100397D01*
X0170829Y0100636D01*
X0170891Y0100877D01*
X0170947Y0101120D01*
X0170998Y0101363D01*
X0171042Y0101608D01*
X0171081Y0101854D01*
X0171113Y0102101D01*
X0171140Y0102349D01*
X0171160Y0102597D01*
X0171175Y0102845D01*
X0171183Y0103094D01*
X0171185Y0103343D01*
X0171181Y0103592D01*
X0171171Y0103841D01*
X0171155Y0104089D01*
X0171133Y0104337D01*
X0171105Y0104585D01*
X0171070Y0104831D01*
X0171030Y0105077D01*
X0170984Y0105322D01*
X0170932Y0105565D01*
X0170873Y0105807D01*
X0170809Y0106048D01*
X0170739Y0106287D01*
X0170664Y0106524D01*
X0170582Y0106759D01*
X0170495Y0106992D01*
X0170402Y0107223D01*
X0170303Y0107452D01*
X0170199Y0107678D01*
X0170090Y0107902D01*
X0169975Y0108122D01*
X0169854Y0108340D01*
X0169729Y0108555D01*
X0169598Y0108767D01*
X0169462Y0108976D01*
X0169321Y0109181D01*
X0169175Y0109382D01*
X0169024Y0109580D01*
M02*
