G75*
%MOIN*%
%OFA0B0*%
%FSLAX25Y25*%
%IPPOS*%
%LPD*%
%AMOC8*
5,1,8,0,0,1.08239X$1,22.5*
%
%ADD10C,0.00000*%
%ADD11R,0.02362X0.03543*%
%ADD12R,0.04724X0.02165*%
%ADD13R,0.05906X0.15748*%
%ADD14OC8,0.07400*%
%ADD15R,0.03937X0.04331*%
%ADD16C,0.07400*%
%ADD17R,0.04331X0.03937*%
%ADD18R,0.05512X0.05512*%
%ADD19R,0.06299X0.13780*%
%ADD20R,0.04724X0.02362*%
%ADD21R,0.03150X0.01772*%
%ADD22R,0.05906X0.09449*%
%ADD23C,0.10050*%
%ADD24C,0.03000*%
%ADD25C,0.01000*%
%ADD26C,0.03500*%
%ADD27C,0.02000*%
%ADD28C,0.01200*%
%ADD29C,0.01600*%
D10*
X0012000Y0060307D02*
X0190976Y0060307D01*
X0191116Y0060309D01*
X0191256Y0060315D01*
X0191396Y0060325D01*
X0191536Y0060338D01*
X0191675Y0060356D01*
X0191814Y0060378D01*
X0191951Y0060403D01*
X0192089Y0060432D01*
X0192225Y0060465D01*
X0192360Y0060502D01*
X0192494Y0060543D01*
X0192627Y0060588D01*
X0192759Y0060636D01*
X0192889Y0060688D01*
X0193018Y0060743D01*
X0193145Y0060802D01*
X0193271Y0060865D01*
X0193395Y0060931D01*
X0193516Y0061000D01*
X0193636Y0061073D01*
X0193754Y0061150D01*
X0193869Y0061229D01*
X0193983Y0061312D01*
X0194093Y0061398D01*
X0194202Y0061487D01*
X0194308Y0061579D01*
X0194411Y0061674D01*
X0194512Y0061771D01*
X0194609Y0061872D01*
X0194704Y0061975D01*
X0194796Y0062081D01*
X0194885Y0062190D01*
X0194971Y0062300D01*
X0195054Y0062414D01*
X0195133Y0062529D01*
X0195210Y0062647D01*
X0195283Y0062767D01*
X0195352Y0062888D01*
X0195418Y0063012D01*
X0195481Y0063138D01*
X0195540Y0063265D01*
X0195595Y0063394D01*
X0195647Y0063524D01*
X0195695Y0063656D01*
X0195740Y0063789D01*
X0195781Y0063923D01*
X0195818Y0064058D01*
X0195851Y0064194D01*
X0195880Y0064332D01*
X0195905Y0064469D01*
X0195927Y0064608D01*
X0195945Y0064747D01*
X0195958Y0064887D01*
X0195968Y0065027D01*
X0195974Y0065167D01*
X0195976Y0065307D01*
X0195976Y0145858D01*
X0195974Y0145998D01*
X0195968Y0146138D01*
X0195958Y0146278D01*
X0195945Y0146418D01*
X0195927Y0146557D01*
X0195905Y0146696D01*
X0195880Y0146833D01*
X0195851Y0146971D01*
X0195818Y0147107D01*
X0195781Y0147242D01*
X0195740Y0147376D01*
X0195695Y0147509D01*
X0195647Y0147641D01*
X0195595Y0147771D01*
X0195540Y0147900D01*
X0195481Y0148027D01*
X0195418Y0148153D01*
X0195352Y0148277D01*
X0195283Y0148398D01*
X0195210Y0148518D01*
X0195133Y0148636D01*
X0195054Y0148751D01*
X0194971Y0148865D01*
X0194885Y0148975D01*
X0194796Y0149084D01*
X0194704Y0149190D01*
X0194609Y0149293D01*
X0194512Y0149394D01*
X0194411Y0149491D01*
X0194308Y0149586D01*
X0194202Y0149678D01*
X0194093Y0149767D01*
X0193983Y0149853D01*
X0193869Y0149936D01*
X0193754Y0150015D01*
X0193636Y0150092D01*
X0193516Y0150165D01*
X0193395Y0150234D01*
X0193271Y0150300D01*
X0193145Y0150363D01*
X0193018Y0150422D01*
X0192889Y0150477D01*
X0192759Y0150529D01*
X0192627Y0150577D01*
X0192494Y0150622D01*
X0192360Y0150663D01*
X0192225Y0150700D01*
X0192089Y0150733D01*
X0191951Y0150762D01*
X0191814Y0150787D01*
X0191675Y0150809D01*
X0191536Y0150827D01*
X0191396Y0150840D01*
X0191256Y0150850D01*
X0191116Y0150856D01*
X0190976Y0150858D01*
X0012000Y0150858D01*
X0011860Y0150856D01*
X0011720Y0150850D01*
X0011580Y0150840D01*
X0011440Y0150827D01*
X0011301Y0150809D01*
X0011162Y0150787D01*
X0011025Y0150762D01*
X0010887Y0150733D01*
X0010751Y0150700D01*
X0010616Y0150663D01*
X0010482Y0150622D01*
X0010349Y0150577D01*
X0010217Y0150529D01*
X0010087Y0150477D01*
X0009958Y0150422D01*
X0009831Y0150363D01*
X0009705Y0150300D01*
X0009581Y0150234D01*
X0009460Y0150165D01*
X0009340Y0150092D01*
X0009222Y0150015D01*
X0009107Y0149936D01*
X0008993Y0149853D01*
X0008883Y0149767D01*
X0008774Y0149678D01*
X0008668Y0149586D01*
X0008565Y0149491D01*
X0008464Y0149394D01*
X0008367Y0149293D01*
X0008272Y0149190D01*
X0008180Y0149084D01*
X0008091Y0148975D01*
X0008005Y0148865D01*
X0007922Y0148751D01*
X0007843Y0148636D01*
X0007766Y0148518D01*
X0007693Y0148398D01*
X0007624Y0148277D01*
X0007558Y0148153D01*
X0007495Y0148027D01*
X0007436Y0147900D01*
X0007381Y0147771D01*
X0007329Y0147641D01*
X0007281Y0147509D01*
X0007236Y0147376D01*
X0007195Y0147242D01*
X0007158Y0147107D01*
X0007125Y0146971D01*
X0007096Y0146833D01*
X0007071Y0146696D01*
X0007049Y0146557D01*
X0007031Y0146418D01*
X0007018Y0146278D01*
X0007008Y0146138D01*
X0007002Y0145998D01*
X0007000Y0145858D01*
X0007000Y0065307D01*
X0007002Y0065167D01*
X0007008Y0065027D01*
X0007018Y0064887D01*
X0007031Y0064747D01*
X0007049Y0064608D01*
X0007071Y0064469D01*
X0007096Y0064332D01*
X0007125Y0064194D01*
X0007158Y0064058D01*
X0007195Y0063923D01*
X0007236Y0063789D01*
X0007281Y0063656D01*
X0007329Y0063524D01*
X0007381Y0063394D01*
X0007436Y0063265D01*
X0007495Y0063138D01*
X0007558Y0063012D01*
X0007624Y0062888D01*
X0007693Y0062767D01*
X0007766Y0062647D01*
X0007843Y0062529D01*
X0007922Y0062414D01*
X0008005Y0062300D01*
X0008091Y0062190D01*
X0008180Y0062081D01*
X0008272Y0061975D01*
X0008367Y0061872D01*
X0008464Y0061771D01*
X0008565Y0061674D01*
X0008668Y0061579D01*
X0008774Y0061487D01*
X0008883Y0061398D01*
X0008993Y0061312D01*
X0009107Y0061229D01*
X0009222Y0061150D01*
X0009340Y0061073D01*
X0009460Y0061000D01*
X0009581Y0060931D01*
X0009705Y0060865D01*
X0009831Y0060802D01*
X0009958Y0060743D01*
X0010087Y0060688D01*
X0010217Y0060636D01*
X0010349Y0060588D01*
X0010482Y0060543D01*
X0010616Y0060502D01*
X0010751Y0060465D01*
X0010887Y0060432D01*
X0011025Y0060403D01*
X0011162Y0060378D01*
X0011301Y0060356D01*
X0011440Y0060338D01*
X0011580Y0060325D01*
X0011720Y0060315D01*
X0011860Y0060309D01*
X0012000Y0060307D01*
D11*
X0026260Y0091779D03*
X0030000Y0091779D03*
X0033740Y0091779D03*
X0033740Y0100834D03*
X0030000Y0100834D03*
X0026260Y0100834D03*
D12*
X0091630Y0075409D03*
X0091630Y0071669D03*
X0091630Y0067929D03*
X0101866Y0067929D03*
X0101866Y0075409D03*
D13*
X0031087Y0075307D03*
X0016913Y0075307D03*
D14*
X0167000Y0079307D03*
X0177000Y0080307D03*
X0187000Y0079307D03*
X0177000Y0070307D03*
X0167000Y0069307D03*
X0187000Y0069307D03*
D15*
X0151346Y0078307D03*
X0144654Y0078307D03*
X0144654Y0087307D03*
X0151346Y0087307D03*
X0096000Y0104960D03*
X0096000Y0111653D03*
X0054346Y0100307D03*
X0047654Y0100307D03*
X0047654Y0084307D03*
X0054346Y0084307D03*
X0054346Y0076307D03*
X0047654Y0076307D03*
D16*
X0015500Y0098807D03*
X0015500Y0108807D03*
X0151000Y0103307D03*
X0161000Y0103307D03*
X0171000Y0103307D03*
X0188000Y0105583D03*
D17*
X0089000Y0104960D03*
X0082000Y0104960D03*
X0082000Y0111653D03*
X0089000Y0111653D03*
X0054346Y0092307D03*
X0047654Y0092307D03*
D18*
X0042480Y0111307D03*
X0027520Y0111307D03*
D19*
X0072874Y0095638D03*
X0072874Y0073590D03*
D20*
X0105976Y0081307D03*
X0105976Y0086307D03*
X0105976Y0091307D03*
X0105976Y0096307D03*
X0105976Y0101307D03*
X0105976Y0106307D03*
X0105976Y0111307D03*
X0128024Y0111307D03*
X0128024Y0106307D03*
X0128024Y0101307D03*
X0128024Y0096307D03*
X0128024Y0091307D03*
X0128024Y0086307D03*
X0128024Y0081307D03*
D21*
X0124906Y0073244D03*
X0124906Y0069307D03*
X0124906Y0065370D03*
X0113094Y0065370D03*
X0113094Y0069307D03*
X0113094Y0073244D03*
D22*
X0119000Y0069307D03*
D23*
X0157000Y0133063D03*
X0187000Y0133063D03*
X0047000Y0133063D03*
X0017000Y0133063D03*
D24*
X0092000Y0097307D03*
X0093000Y0082307D03*
X0042000Y0065307D03*
D25*
X0044830Y0064301D02*
X0067036Y0064301D01*
X0066038Y0065299D02*
X0045000Y0065299D01*
X0045000Y0064710D02*
X0045000Y0065904D01*
X0044667Y0066707D01*
X0064630Y0066707D01*
X0068130Y0063207D01*
X0096870Y0063207D01*
X0097870Y0064207D01*
X0099009Y0065346D01*
X0104850Y0065346D01*
X0104871Y0065368D01*
X0105245Y0064466D01*
X0106159Y0063552D01*
X0107354Y0063057D01*
X0108646Y0063057D01*
X0109161Y0063270D01*
X0110613Y0063270D01*
X0110898Y0062984D01*
X0115291Y0062984D01*
X0115407Y0063101D01*
X0115426Y0063083D01*
X0122574Y0063083D01*
X0122593Y0063101D01*
X0122709Y0062984D01*
X0127102Y0062984D01*
X0127387Y0063270D01*
X0127933Y0063270D01*
X0128870Y0064207D01*
X0135870Y0064207D01*
X0137870Y0066207D01*
X0141130Y0066207D01*
X0143130Y0064207D01*
X0161630Y0064207D01*
X0163630Y0062207D01*
X0171870Y0062207D01*
X0173100Y0063437D01*
X0174808Y0065145D01*
X0174846Y0065107D01*
X0179154Y0065107D01*
X0181800Y0067753D01*
X0181800Y0067153D01*
X0184846Y0064107D01*
X0189154Y0064107D01*
X0192200Y0067153D01*
X0192200Y0071461D01*
X0192162Y0071499D01*
X0194100Y0073437D01*
X0194100Y0083177D01*
X0192870Y0084407D01*
X0189870Y0087407D01*
X0175870Y0087407D01*
X0174870Y0088407D01*
X0162130Y0088407D01*
X0159900Y0086177D01*
X0159900Y0086177D01*
X0157900Y0084177D01*
X0157630Y0083907D01*
X0157070Y0083907D01*
X0157100Y0083937D01*
X0157100Y0091437D01*
X0161870Y0096207D01*
X0163100Y0097437D01*
X0163100Y0098548D01*
X0163946Y0098899D01*
X0165408Y0100361D01*
X0166014Y0101824D01*
X0166181Y0101311D01*
X0166553Y0100582D01*
X0167034Y0099919D01*
X0167612Y0099341D01*
X0168275Y0098859D01*
X0169004Y0098488D01*
X0169782Y0098235D01*
X0170591Y0098107D01*
X0170700Y0098107D01*
X0170700Y0103007D01*
X0171300Y0103007D01*
X0171300Y0103607D01*
X0170700Y0103607D01*
X0170700Y0108507D01*
X0170591Y0108507D01*
X0169782Y0108379D01*
X0169004Y0108126D01*
X0168275Y0107754D01*
X0167612Y0107273D01*
X0167034Y0106694D01*
X0166553Y0106032D01*
X0166181Y0105303D01*
X0166014Y0104790D01*
X0165408Y0106252D01*
X0163946Y0107715D01*
X0162034Y0108507D01*
X0159966Y0108507D01*
X0158054Y0107715D01*
X0156592Y0106252D01*
X0156000Y0104824D01*
X0155408Y0106252D01*
X0153946Y0107715D01*
X0152034Y0108507D01*
X0149966Y0108507D01*
X0148054Y0107715D01*
X0146592Y0106252D01*
X0145800Y0104341D01*
X0145800Y0102273D01*
X0146592Y0100361D01*
X0148054Y0098899D01*
X0149246Y0098405D01*
X0149246Y0092907D01*
X0145370Y0092907D01*
X0143870Y0094407D01*
X0141100Y0094407D01*
X0141100Y0098177D01*
X0139870Y0099407D01*
X0136100Y0103177D01*
X0136100Y0105177D01*
X0134870Y0106407D01*
X0134100Y0107177D01*
X0134100Y0109177D01*
X0132870Y0110407D01*
X0132370Y0110907D01*
X0131886Y0110907D01*
X0131886Y0111216D01*
X0128114Y0111216D01*
X0128114Y0111397D01*
X0131886Y0111397D01*
X0131886Y0112686D01*
X0131784Y0113067D01*
X0131586Y0113409D01*
X0131307Y0113688D01*
X0130965Y0113886D01*
X0130583Y0113988D01*
X0128114Y0113988D01*
X0128114Y0111398D01*
X0127933Y0111398D01*
X0127933Y0113988D01*
X0125464Y0113988D01*
X0125082Y0113886D01*
X0124740Y0113688D01*
X0124461Y0113409D01*
X0124264Y0113067D01*
X0124173Y0112730D01*
X0123841Y0113062D01*
X0122646Y0113557D01*
X0121354Y0113557D01*
X0120159Y0113062D01*
X0119687Y0112590D01*
X0118870Y0113407D01*
X0115870Y0116407D01*
X0101130Y0116407D01*
X0099900Y0115177D01*
X0099276Y0114553D01*
X0099169Y0114740D01*
X0098890Y0115019D01*
X0098547Y0115216D01*
X0098166Y0115319D01*
X0096484Y0115319D01*
X0096484Y0112138D01*
X0095516Y0112138D01*
X0095516Y0115319D01*
X0093834Y0115319D01*
X0093453Y0115216D01*
X0093110Y0115019D01*
X0092831Y0114740D01*
X0092634Y0114398D01*
X0092572Y0114168D01*
X0092563Y0114201D01*
X0092366Y0114543D01*
X0092086Y0114822D01*
X0091744Y0115020D01*
X0091363Y0115122D01*
X0089484Y0115122D01*
X0089484Y0112138D01*
X0088516Y0112138D01*
X0088516Y0115122D01*
X0086637Y0115122D01*
X0086256Y0115020D01*
X0085914Y0114822D01*
X0085634Y0114543D01*
X0085536Y0114373D01*
X0084787Y0115122D01*
X0079213Y0115122D01*
X0078335Y0114243D01*
X0078335Y0110958D01*
X0076784Y0109407D01*
X0058130Y0109407D01*
X0057130Y0108407D01*
X0056446Y0107723D01*
X0056446Y0107830D01*
X0048100Y0116177D01*
X0046870Y0117407D01*
X0042870Y0117407D01*
X0027100Y0133177D01*
X0027100Y0136177D01*
X0022600Y0140677D01*
X0021370Y0141907D01*
X0012630Y0141907D01*
X0009130Y0138407D01*
X0008500Y0137777D01*
X0008500Y0145858D01*
X0008567Y0146541D01*
X0009090Y0147803D01*
X0010055Y0148768D01*
X0011317Y0149291D01*
X0012000Y0149358D01*
X0190976Y0149358D01*
X0191659Y0149291D01*
X0192921Y0148768D01*
X0193887Y0147803D01*
X0194409Y0146541D01*
X0194476Y0145858D01*
X0194476Y0065307D01*
X0194409Y0064624D01*
X0193887Y0063362D01*
X0192921Y0062397D01*
X0191659Y0061874D01*
X0190976Y0061807D01*
X0039470Y0061807D01*
X0039870Y0062207D01*
X0040390Y0062727D01*
X0041403Y0062307D01*
X0042597Y0062307D01*
X0043699Y0062764D01*
X0044543Y0063608D01*
X0045000Y0064710D01*
X0044837Y0066298D02*
X0065039Y0066298D01*
X0068035Y0063302D02*
X0044238Y0063302D01*
X0039967Y0062304D02*
X0163533Y0062304D01*
X0162535Y0063302D02*
X0127965Y0063302D01*
X0127980Y0068407D02*
X0133130Y0068407D01*
X0134130Y0068407D01*
X0135280Y0069557D01*
X0134900Y0069937D01*
X0134900Y0069937D01*
X0128630Y0076207D01*
X0124130Y0076207D01*
X0122900Y0077437D01*
X0121130Y0079207D01*
X0119145Y0079207D01*
X0119250Y0078953D01*
X0119250Y0077660D01*
X0118755Y0076466D01*
X0117841Y0075552D01*
X0117792Y0075531D01*
X0122574Y0075531D01*
X0122593Y0075513D01*
X0122709Y0075630D01*
X0127102Y0075630D01*
X0127980Y0074751D01*
X0127980Y0071737D01*
X0127519Y0071275D01*
X0127681Y0071114D01*
X0127878Y0070772D01*
X0127980Y0070390D01*
X0127980Y0069307D01*
X0124906Y0069307D01*
X0124906Y0069307D01*
X0127980Y0069307D01*
X0127980Y0068407D01*
X0127980Y0069294D02*
X0135017Y0069294D01*
X0134545Y0070292D02*
X0127980Y0070292D01*
X0127534Y0071291D02*
X0133547Y0071291D01*
X0132548Y0072289D02*
X0127980Y0072289D01*
X0127980Y0073288D02*
X0131549Y0073288D01*
X0130551Y0074286D02*
X0127980Y0074286D01*
X0127447Y0075285D02*
X0129552Y0075285D01*
X0124054Y0076283D02*
X0118572Y0076283D01*
X0119093Y0077282D02*
X0123055Y0077282D01*
X0122057Y0078280D02*
X0119250Y0078280D01*
X0107900Y0072057D02*
X0107900Y0069557D01*
X0107354Y0069557D01*
X0106159Y0069062D01*
X0105728Y0068631D01*
X0105728Y0069633D01*
X0104850Y0070512D01*
X0100100Y0070512D01*
X0100100Y0072827D01*
X0104850Y0072827D01*
X0105367Y0073344D01*
X0106159Y0072552D01*
X0107354Y0072057D01*
X0107900Y0072057D01*
X0107900Y0071291D02*
X0100100Y0071291D01*
X0100100Y0072289D02*
X0106793Y0072289D01*
X0105423Y0073288D02*
X0105311Y0073288D01*
X0105069Y0070292D02*
X0107900Y0070292D01*
X0106718Y0069294D02*
X0105728Y0069294D01*
X0104900Y0065299D02*
X0098962Y0065299D01*
X0097964Y0064301D02*
X0105410Y0064301D01*
X0106761Y0063302D02*
X0096965Y0063302D01*
X0097870Y0064207D02*
X0097870Y0064207D01*
X0095492Y0067769D02*
X0095492Y0067888D01*
X0091671Y0067888D01*
X0091671Y0067970D01*
X0095492Y0067970D01*
X0095492Y0069209D01*
X0095396Y0069569D01*
X0095732Y0069569D01*
X0095900Y0069737D01*
X0095900Y0068177D01*
X0095492Y0067769D01*
X0095492Y0068295D02*
X0095900Y0068295D01*
X0095900Y0069294D02*
X0095470Y0069294D01*
X0091588Y0067970D02*
X0091588Y0067888D01*
X0087768Y0067888D01*
X0087768Y0067407D01*
X0077524Y0067407D01*
X0077524Y0071090D01*
X0077781Y0071090D01*
X0078700Y0071471D01*
X0082416Y0075188D01*
X0083119Y0075891D01*
X0083500Y0076810D01*
X0083500Y0097771D01*
X0084036Y0098307D01*
X0089167Y0098307D01*
X0089000Y0097904D01*
X0089000Y0096710D01*
X0089457Y0095608D01*
X0090301Y0094764D01*
X0091403Y0094307D01*
X0092597Y0094307D01*
X0093699Y0094764D01*
X0094543Y0095608D01*
X0095000Y0096710D01*
X0095000Y0097904D01*
X0094833Y0098307D01*
X0099900Y0098307D01*
X0099900Y0093937D01*
X0100900Y0092937D01*
X0101030Y0092807D01*
X0100400Y0092177D01*
X0097900Y0089677D01*
X0097900Y0088407D01*
X0096630Y0088407D01*
X0095400Y0087177D01*
X0093900Y0085677D01*
X0093900Y0085181D01*
X0093597Y0085307D01*
X0092403Y0085307D01*
X0091301Y0084850D01*
X0090457Y0084006D01*
X0090000Y0082904D01*
X0090000Y0081710D01*
X0090457Y0080608D01*
X0091301Y0079764D01*
X0091786Y0079563D01*
X0090215Y0077992D01*
X0088646Y0077992D01*
X0087768Y0077113D01*
X0087768Y0073705D01*
X0087934Y0073539D01*
X0087768Y0073373D01*
X0087768Y0069965D01*
X0087970Y0069763D01*
X0087870Y0069591D01*
X0087768Y0069209D01*
X0087768Y0067970D01*
X0091588Y0067970D01*
X0087768Y0068295D02*
X0077524Y0068295D01*
X0077524Y0069294D02*
X0087790Y0069294D01*
X0087768Y0070292D02*
X0077524Y0070292D01*
X0078264Y0071291D02*
X0087768Y0071291D01*
X0087768Y0072289D02*
X0079518Y0072289D01*
X0080516Y0073288D02*
X0087768Y0073288D01*
X0087768Y0074286D02*
X0081515Y0074286D01*
X0082416Y0075188D02*
X0082416Y0075188D01*
X0082513Y0075285D02*
X0087768Y0075285D01*
X0087768Y0076283D02*
X0083282Y0076283D01*
X0083500Y0077282D02*
X0087936Y0077282D01*
X0090503Y0078280D02*
X0083500Y0078280D01*
X0083500Y0079279D02*
X0091502Y0079279D01*
X0090787Y0080277D02*
X0083500Y0080277D01*
X0083500Y0081276D02*
X0090180Y0081276D01*
X0090000Y0082274D02*
X0083500Y0082274D01*
X0083500Y0083273D02*
X0090153Y0083273D01*
X0090722Y0084271D02*
X0083500Y0084271D01*
X0083500Y0085270D02*
X0092313Y0085270D01*
X0093687Y0085270D02*
X0093900Y0085270D01*
X0094491Y0086268D02*
X0083500Y0086268D01*
X0083500Y0087267D02*
X0095490Y0087267D01*
X0096488Y0088265D02*
X0083500Y0088265D01*
X0083500Y0089264D02*
X0097900Y0089264D01*
X0098485Y0090262D02*
X0083500Y0090262D01*
X0083500Y0091261D02*
X0099484Y0091261D01*
X0100483Y0092259D02*
X0083500Y0092259D01*
X0083500Y0093258D02*
X0100579Y0093258D01*
X0099900Y0094256D02*
X0083500Y0094256D01*
X0083500Y0095255D02*
X0089809Y0095255D01*
X0089189Y0096253D02*
X0083500Y0096253D01*
X0083500Y0097252D02*
X0089000Y0097252D01*
X0089144Y0098250D02*
X0083979Y0098250D01*
X0080150Y0101492D02*
X0079584Y0100926D01*
X0078881Y0100223D01*
X0078500Y0099304D01*
X0078500Y0078342D01*
X0077524Y0077366D01*
X0077524Y0081101D01*
X0076645Y0081980D01*
X0069103Y0081980D01*
X0068224Y0081101D01*
X0068224Y0073807D01*
X0057815Y0073807D01*
X0057815Y0079094D01*
X0056936Y0079972D01*
X0053651Y0079972D01*
X0052982Y0080642D01*
X0053862Y0080642D01*
X0053862Y0083823D01*
X0054831Y0083823D01*
X0054831Y0084791D01*
X0057815Y0084791D01*
X0057815Y0086670D01*
X0057713Y0087051D01*
X0057515Y0087393D01*
X0057236Y0087673D01*
X0056894Y0087870D01*
X0056512Y0087972D01*
X0054831Y0087972D01*
X0054831Y0084791D01*
X0053862Y0084791D01*
X0053862Y0087972D01*
X0052180Y0087972D01*
X0051799Y0087870D01*
X0051457Y0087673D01*
X0051178Y0087393D01*
X0051048Y0087168D01*
X0050243Y0087972D01*
X0046958Y0087972D01*
X0046100Y0088830D01*
X0046100Y0088838D01*
X0050440Y0088838D01*
X0051000Y0089398D01*
X0051260Y0089138D01*
X0051602Y0088941D01*
X0051984Y0088838D01*
X0053862Y0088838D01*
X0053862Y0091823D01*
X0054831Y0091823D01*
X0054831Y0092791D01*
X0058012Y0092791D01*
X0058012Y0094349D01*
X0060100Y0096437D01*
X0060100Y0105207D01*
X0060870Y0105207D01*
X0076784Y0105207D01*
X0078335Y0105207D01*
X0078335Y0102371D01*
X0079213Y0101492D01*
X0080150Y0101492D01*
X0079903Y0101246D02*
X0077524Y0101246D01*
X0077524Y0102244D02*
X0078461Y0102244D01*
X0078335Y0103243D02*
X0077343Y0103243D01*
X0077421Y0103106D02*
X0077224Y0103448D01*
X0076945Y0103728D01*
X0076603Y0103925D01*
X0076221Y0104027D01*
X0073374Y0104027D01*
X0073374Y0096138D01*
X0072374Y0096138D01*
X0072374Y0104027D01*
X0069527Y0104027D01*
X0069145Y0103925D01*
X0068803Y0103728D01*
X0068524Y0103448D01*
X0068327Y0103106D01*
X0068224Y0102725D01*
X0068224Y0096138D01*
X0072374Y0096138D01*
X0072374Y0095138D01*
X0068224Y0095138D01*
X0068224Y0088550D01*
X0068327Y0088169D01*
X0068524Y0087827D01*
X0068803Y0087548D01*
X0069145Y0087350D01*
X0069527Y0087248D01*
X0072374Y0087248D01*
X0072374Y0095138D01*
X0073374Y0095138D01*
X0073374Y0096138D01*
X0077524Y0096138D01*
X0077524Y0102725D01*
X0077421Y0103106D01*
X0078335Y0104241D02*
X0060100Y0104241D01*
X0060100Y0103243D02*
X0068405Y0103243D01*
X0068224Y0102244D02*
X0060100Y0102244D01*
X0060100Y0101246D02*
X0068224Y0101246D01*
X0068224Y0100247D02*
X0060100Y0100247D01*
X0060100Y0099249D02*
X0068224Y0099249D01*
X0068224Y0098250D02*
X0060100Y0098250D01*
X0060100Y0097252D02*
X0068224Y0097252D01*
X0068224Y0096253D02*
X0059916Y0096253D01*
X0058918Y0095255D02*
X0072374Y0095255D01*
X0072374Y0096253D02*
X0073374Y0096253D01*
X0073374Y0095255D02*
X0078500Y0095255D01*
X0077524Y0095138D02*
X0077524Y0088550D01*
X0077421Y0088169D01*
X0077224Y0087827D01*
X0076945Y0087548D01*
X0076603Y0087350D01*
X0076221Y0087248D01*
X0073374Y0087248D01*
X0073374Y0095138D01*
X0077524Y0095138D01*
X0077524Y0094256D02*
X0078500Y0094256D01*
X0078500Y0093258D02*
X0077524Y0093258D01*
X0077524Y0092259D02*
X0078500Y0092259D01*
X0078500Y0091261D02*
X0077524Y0091261D01*
X0077524Y0090262D02*
X0078500Y0090262D01*
X0078500Y0089264D02*
X0077524Y0089264D01*
X0077447Y0088265D02*
X0078500Y0088265D01*
X0078500Y0087267D02*
X0076291Y0087267D01*
X0078500Y0086268D02*
X0057815Y0086268D01*
X0057815Y0085270D02*
X0078500Y0085270D01*
X0078500Y0084271D02*
X0054831Y0084271D01*
X0054831Y0083823D02*
X0057815Y0083823D01*
X0057815Y0081944D01*
X0057713Y0081563D01*
X0057515Y0081221D01*
X0057236Y0080941D01*
X0056894Y0080744D01*
X0056512Y0080642D01*
X0054831Y0080642D01*
X0054831Y0083823D01*
X0054831Y0083273D02*
X0053862Y0083273D01*
X0053862Y0082274D02*
X0054831Y0082274D01*
X0054831Y0081276D02*
X0053862Y0081276D01*
X0053346Y0080277D02*
X0068224Y0080277D01*
X0068224Y0079279D02*
X0057630Y0079279D01*
X0057815Y0078280D02*
X0068224Y0078280D01*
X0068224Y0077282D02*
X0057815Y0077282D01*
X0057815Y0076283D02*
X0068224Y0076283D01*
X0068224Y0075285D02*
X0057815Y0075285D01*
X0057815Y0074286D02*
X0068224Y0074286D01*
X0068399Y0081276D02*
X0057547Y0081276D01*
X0057815Y0082274D02*
X0078500Y0082274D01*
X0078500Y0081276D02*
X0077349Y0081276D01*
X0077524Y0080277D02*
X0078500Y0080277D01*
X0078500Y0079279D02*
X0077524Y0079279D01*
X0077524Y0078280D02*
X0078438Y0078280D01*
X0078500Y0083273D02*
X0057815Y0083273D01*
X0054831Y0085270D02*
X0053862Y0085270D01*
X0053862Y0086268D02*
X0054831Y0086268D01*
X0054831Y0087267D02*
X0053862Y0087267D01*
X0054831Y0088838D02*
X0056709Y0088838D01*
X0057091Y0088941D01*
X0057433Y0089138D01*
X0057712Y0089417D01*
X0057910Y0089759D01*
X0058012Y0090141D01*
X0058012Y0091823D01*
X0054831Y0091823D01*
X0054831Y0088838D01*
X0054831Y0089264D02*
X0053862Y0089264D01*
X0053862Y0090262D02*
X0054831Y0090262D01*
X0054831Y0091261D02*
X0053862Y0091261D01*
X0054831Y0092259D02*
X0068224Y0092259D01*
X0068224Y0091261D02*
X0058012Y0091261D01*
X0058012Y0090262D02*
X0068224Y0090262D01*
X0068224Y0089264D02*
X0057558Y0089264D01*
X0057588Y0087267D02*
X0069457Y0087267D01*
X0068301Y0088265D02*
X0046665Y0088265D01*
X0050866Y0089264D02*
X0051134Y0089264D01*
X0051105Y0087267D02*
X0050949Y0087267D01*
X0058012Y0093258D02*
X0068224Y0093258D01*
X0068224Y0094256D02*
X0058012Y0094256D01*
X0051000Y0103216D02*
X0050243Y0103972D01*
X0045064Y0103972D01*
X0044185Y0103094D01*
X0044185Y0098407D01*
X0043870Y0098407D01*
X0039100Y0103177D01*
X0039100Y0104177D01*
X0037870Y0105407D01*
X0037753Y0105524D01*
X0038416Y0106188D01*
X0039119Y0106891D01*
X0039186Y0107051D01*
X0045858Y0107051D01*
X0046736Y0107930D01*
X0046736Y0111601D01*
X0052246Y0106091D01*
X0052246Y0103972D01*
X0051757Y0103972D01*
X0051000Y0103216D01*
X0050973Y0103243D02*
X0051027Y0103243D01*
X0052246Y0104241D02*
X0039035Y0104241D01*
X0039100Y0103243D02*
X0044334Y0103243D01*
X0044185Y0102244D02*
X0040032Y0102244D01*
X0041031Y0101246D02*
X0044185Y0101246D01*
X0044185Y0100247D02*
X0042029Y0100247D01*
X0043028Y0099249D02*
X0044185Y0099249D01*
X0038037Y0105240D02*
X0052246Y0105240D01*
X0052099Y0106238D02*
X0038467Y0106238D01*
X0038416Y0106188D02*
X0038416Y0106188D01*
X0046043Y0107237D02*
X0051100Y0107237D01*
X0050102Y0108235D02*
X0046736Y0108235D01*
X0046736Y0109234D02*
X0049103Y0109234D01*
X0048105Y0110232D02*
X0046736Y0110232D01*
X0046736Y0111231D02*
X0047106Y0111231D01*
X0050050Y0114227D02*
X0078335Y0114227D01*
X0078335Y0113228D02*
X0051049Y0113228D01*
X0052047Y0112230D02*
X0078335Y0112230D01*
X0078335Y0111231D02*
X0053046Y0111231D01*
X0054044Y0110232D02*
X0077609Y0110232D01*
X0073374Y0103243D02*
X0072374Y0103243D01*
X0072374Y0102244D02*
X0073374Y0102244D01*
X0073374Y0101246D02*
X0072374Y0101246D01*
X0072374Y0100247D02*
X0073374Y0100247D01*
X0073374Y0099249D02*
X0072374Y0099249D01*
X0072374Y0098250D02*
X0073374Y0098250D01*
X0073374Y0097252D02*
X0072374Y0097252D01*
X0072374Y0094256D02*
X0073374Y0094256D01*
X0073374Y0093258D02*
X0072374Y0093258D01*
X0072374Y0092259D02*
X0073374Y0092259D01*
X0073374Y0091261D02*
X0072374Y0091261D01*
X0072374Y0090262D02*
X0073374Y0090262D01*
X0073374Y0089264D02*
X0072374Y0089264D01*
X0072374Y0088265D02*
X0073374Y0088265D01*
X0073374Y0087267D02*
X0072374Y0087267D01*
X0077524Y0096253D02*
X0078500Y0096253D01*
X0078500Y0097252D02*
X0077524Y0097252D01*
X0077524Y0098250D02*
X0078500Y0098250D01*
X0078500Y0099249D02*
X0077524Y0099249D01*
X0077524Y0100247D02*
X0078905Y0100247D01*
X0089484Y0111169D02*
X0089484Y0112138D01*
X0092665Y0112138D01*
X0095516Y0112138D01*
X0095516Y0111169D01*
X0089484Y0111169D01*
X0089484Y0111231D02*
X0095516Y0111231D01*
X0095516Y0112230D02*
X0096484Y0112230D01*
X0096484Y0113228D02*
X0095516Y0113228D01*
X0095516Y0114227D02*
X0096484Y0114227D01*
X0096484Y0115225D02*
X0095516Y0115225D01*
X0093484Y0115225D02*
X0049052Y0115225D01*
X0048053Y0116224D02*
X0100947Y0116224D01*
X0099948Y0115225D02*
X0098516Y0115225D01*
X0092588Y0114227D02*
X0092548Y0114227D01*
X0089484Y0114227D02*
X0088516Y0114227D01*
X0088516Y0113228D02*
X0089484Y0113228D01*
X0089484Y0112230D02*
X0088516Y0112230D01*
X0094856Y0098250D02*
X0099900Y0098250D01*
X0099900Y0097252D02*
X0095000Y0097252D01*
X0094811Y0096253D02*
X0099900Y0096253D01*
X0099900Y0095255D02*
X0094191Y0095255D01*
X0109141Y0103807D02*
X0109839Y0104504D01*
X0109839Y0108109D01*
X0109141Y0108807D01*
X0111104Y0108807D01*
X0111245Y0108466D01*
X0112159Y0107552D01*
X0113354Y0107057D01*
X0114646Y0107057D01*
X0115841Y0107552D01*
X0116313Y0108024D01*
X0116900Y0107437D01*
X0119130Y0105207D01*
X0119130Y0105207D01*
X0120130Y0104207D01*
X0122430Y0104207D01*
X0121630Y0103407D01*
X0109541Y0103407D01*
X0109141Y0103807D01*
X0109575Y0104241D02*
X0120096Y0104241D01*
X0119097Y0105240D02*
X0109839Y0105240D01*
X0109839Y0106238D02*
X0118099Y0106238D01*
X0117100Y0107237D02*
X0115081Y0107237D01*
X0112919Y0107237D02*
X0109839Y0107237D01*
X0109712Y0108235D02*
X0111475Y0108235D01*
X0118050Y0114227D02*
X0194476Y0114227D01*
X0194476Y0115225D02*
X0117052Y0115225D01*
X0116053Y0116224D02*
X0194476Y0116224D01*
X0194476Y0117222D02*
X0047055Y0117222D01*
X0042056Y0118221D02*
X0194476Y0118221D01*
X0194476Y0119219D02*
X0041058Y0119219D01*
X0040059Y0120218D02*
X0194476Y0120218D01*
X0194476Y0121216D02*
X0039061Y0121216D01*
X0038062Y0122215D02*
X0194476Y0122215D01*
X0194476Y0123213D02*
X0037064Y0123213D01*
X0036065Y0124212D02*
X0194476Y0124212D01*
X0194476Y0125210D02*
X0035067Y0125210D01*
X0034068Y0126209D02*
X0194476Y0126209D01*
X0194476Y0127207D02*
X0189908Y0127207D01*
X0189892Y0127198D02*
X0190633Y0127626D01*
X0191311Y0128147D01*
X0191916Y0128751D01*
X0192437Y0129430D01*
X0192865Y0130171D01*
X0193192Y0130961D01*
X0193413Y0131787D01*
X0193515Y0132563D01*
X0187500Y0132563D01*
X0187500Y0133563D01*
X0186500Y0133563D01*
X0186500Y0139578D01*
X0185724Y0139476D01*
X0184898Y0139255D01*
X0184108Y0138927D01*
X0183367Y0138500D01*
X0182689Y0137979D01*
X0182084Y0137374D01*
X0181563Y0136696D01*
X0181135Y0135955D01*
X0180808Y0135165D01*
X0180587Y0134339D01*
X0180485Y0133563D01*
X0186500Y0133563D01*
X0186500Y0132563D01*
X0180485Y0132563D01*
X0180587Y0131787D01*
X0180808Y0130961D01*
X0181135Y0130171D01*
X0181563Y0129430D01*
X0182084Y0128751D01*
X0182689Y0128147D01*
X0183367Y0127626D01*
X0184108Y0127198D01*
X0184898Y0126871D01*
X0185724Y0126649D01*
X0186500Y0126547D01*
X0186500Y0132563D01*
X0187500Y0132563D01*
X0187500Y0126547D01*
X0188276Y0126649D01*
X0189102Y0126871D01*
X0189892Y0127198D01*
X0191371Y0128206D02*
X0194476Y0128206D01*
X0194476Y0129204D02*
X0192264Y0129204D01*
X0192878Y0130203D02*
X0194476Y0130203D01*
X0194476Y0131201D02*
X0193256Y0131201D01*
X0193468Y0132200D02*
X0194476Y0132200D01*
X0194476Y0133198D02*
X0187500Y0133198D01*
X0187500Y0133563D02*
X0193515Y0133563D01*
X0193413Y0134339D01*
X0193192Y0135165D01*
X0192865Y0135955D01*
X0192437Y0136696D01*
X0191916Y0137374D01*
X0191311Y0137979D01*
X0190633Y0138500D01*
X0189892Y0138927D01*
X0189102Y0139255D01*
X0188276Y0139476D01*
X0187500Y0139578D01*
X0187500Y0133563D01*
X0187500Y0134197D02*
X0186500Y0134197D01*
X0186500Y0135195D02*
X0187500Y0135195D01*
X0187500Y0136194D02*
X0186500Y0136194D01*
X0186500Y0137192D02*
X0187500Y0137192D01*
X0187500Y0138191D02*
X0186500Y0138191D01*
X0186500Y0139189D02*
X0187500Y0139189D01*
X0189260Y0139189D02*
X0194476Y0139189D01*
X0194476Y0138191D02*
X0191036Y0138191D01*
X0192056Y0137192D02*
X0194476Y0137192D01*
X0194476Y0136194D02*
X0192727Y0136194D01*
X0193179Y0135195D02*
X0194476Y0135195D01*
X0194476Y0134197D02*
X0193432Y0134197D01*
X0187500Y0132200D02*
X0186500Y0132200D01*
X0186500Y0133198D02*
X0163525Y0133198D01*
X0163525Y0132200D02*
X0180532Y0132200D01*
X0180744Y0131201D02*
X0163291Y0131201D01*
X0163525Y0131765D02*
X0162532Y0129367D01*
X0160696Y0127531D01*
X0158298Y0126538D01*
X0155702Y0126538D01*
X0153304Y0127531D01*
X0151468Y0129367D01*
X0150475Y0131765D01*
X0150475Y0134361D01*
X0151468Y0136759D01*
X0153304Y0138594D01*
X0155702Y0139588D01*
X0158298Y0139588D01*
X0160696Y0138594D01*
X0162532Y0136759D01*
X0163525Y0134361D01*
X0163525Y0131765D01*
X0162878Y0130203D02*
X0181122Y0130203D01*
X0181736Y0129204D02*
X0162369Y0129204D01*
X0161371Y0128206D02*
X0182629Y0128206D01*
X0184092Y0127207D02*
X0159914Y0127207D01*
X0154086Y0127207D02*
X0049914Y0127207D01*
X0050696Y0127531D02*
X0052532Y0129367D01*
X0053525Y0131765D01*
X0053525Y0134361D01*
X0052532Y0136759D01*
X0050696Y0138594D01*
X0048298Y0139588D01*
X0045702Y0139588D01*
X0043304Y0138594D01*
X0041468Y0136759D01*
X0040475Y0134361D01*
X0040475Y0131765D01*
X0041468Y0129367D01*
X0043304Y0127531D01*
X0045702Y0126538D01*
X0048298Y0126538D01*
X0050696Y0127531D01*
X0051371Y0128206D02*
X0152629Y0128206D01*
X0151631Y0129204D02*
X0052369Y0129204D01*
X0052878Y0130203D02*
X0151122Y0130203D01*
X0150708Y0131201D02*
X0053291Y0131201D01*
X0053525Y0132200D02*
X0150475Y0132200D01*
X0150475Y0133198D02*
X0053525Y0133198D01*
X0053525Y0134197D02*
X0150475Y0134197D01*
X0150821Y0135195D02*
X0053179Y0135195D01*
X0052766Y0136194D02*
X0151234Y0136194D01*
X0151902Y0137192D02*
X0052098Y0137192D01*
X0051100Y0138191D02*
X0152900Y0138191D01*
X0154740Y0139189D02*
X0049260Y0139189D01*
X0044740Y0139189D02*
X0024087Y0139189D01*
X0023089Y0140188D02*
X0194476Y0140188D01*
X0194476Y0141186D02*
X0022090Y0141186D01*
X0025086Y0138191D02*
X0042900Y0138191D01*
X0041902Y0137192D02*
X0026084Y0137192D01*
X0027083Y0136194D02*
X0041234Y0136194D01*
X0040821Y0135195D02*
X0027100Y0135195D01*
X0027100Y0134197D02*
X0040475Y0134197D01*
X0040475Y0133198D02*
X0027100Y0133198D01*
X0028077Y0132200D02*
X0040475Y0132200D01*
X0040708Y0131201D02*
X0029076Y0131201D01*
X0030074Y0130203D02*
X0041122Y0130203D01*
X0041631Y0129204D02*
X0031073Y0129204D01*
X0032071Y0128206D02*
X0042629Y0128206D01*
X0044086Y0127207D02*
X0033070Y0127207D01*
X0025121Y0121216D02*
X0008500Y0121216D01*
X0008500Y0120218D02*
X0026119Y0120218D01*
X0027118Y0119219D02*
X0008500Y0119219D01*
X0008500Y0118221D02*
X0028116Y0118221D01*
X0029115Y0117222D02*
X0008500Y0117222D01*
X0008500Y0116224D02*
X0030114Y0116224D01*
X0030774Y0115563D02*
X0024142Y0115563D01*
X0023264Y0114684D01*
X0023264Y0113807D01*
X0017503Y0113807D01*
X0017260Y0113706D01*
X0016534Y0114007D01*
X0014466Y0114007D01*
X0012554Y0113215D01*
X0011092Y0111752D01*
X0010300Y0109841D01*
X0010300Y0107773D01*
X0011092Y0105861D01*
X0011338Y0105615D01*
X0009130Y0103407D01*
X0008500Y0102777D01*
X0008500Y0128837D01*
X0011900Y0125437D01*
X0013130Y0124207D01*
X0022130Y0124207D01*
X0030774Y0115563D01*
X0023805Y0115225D02*
X0008500Y0115225D01*
X0008500Y0114227D02*
X0023264Y0114227D01*
X0024122Y0122215D02*
X0008500Y0122215D01*
X0008500Y0123213D02*
X0023124Y0123213D01*
X0013125Y0124212D02*
X0008500Y0124212D01*
X0008500Y0125210D02*
X0012127Y0125210D01*
X0011128Y0126209D02*
X0008500Y0126209D01*
X0008500Y0127207D02*
X0010130Y0127207D01*
X0009131Y0128206D02*
X0008500Y0128206D01*
X0008500Y0138191D02*
X0008914Y0138191D01*
X0008500Y0139189D02*
X0009913Y0139189D01*
X0010911Y0140188D02*
X0008500Y0140188D01*
X0008500Y0141186D02*
X0011910Y0141186D01*
X0008500Y0142185D02*
X0194476Y0142185D01*
X0194476Y0143183D02*
X0008500Y0143183D01*
X0008500Y0144182D02*
X0194476Y0144182D01*
X0194476Y0145180D02*
X0008500Y0145180D01*
X0008532Y0146179D02*
X0194445Y0146179D01*
X0194145Y0147177D02*
X0008831Y0147177D01*
X0009463Y0148176D02*
X0193513Y0148176D01*
X0191940Y0149174D02*
X0011036Y0149174D01*
X0012585Y0113228D02*
X0008500Y0113228D01*
X0008500Y0112230D02*
X0011569Y0112230D01*
X0010876Y0111231D02*
X0008500Y0111231D01*
X0008500Y0110232D02*
X0010462Y0110232D01*
X0010300Y0109234D02*
X0008500Y0109234D01*
X0008500Y0108235D02*
X0010300Y0108235D01*
X0010522Y0107237D02*
X0008500Y0107237D01*
X0008500Y0106238D02*
X0010935Y0106238D01*
X0010963Y0105240D02*
X0008500Y0105240D01*
X0008500Y0104241D02*
X0009965Y0104241D01*
X0008966Y0103243D02*
X0008500Y0103243D01*
X0015000Y0098307D02*
X0016000Y0098307D01*
X0016000Y0099307D01*
X0020686Y0099307D01*
X0020572Y0100025D01*
X0020319Y0100803D01*
X0019947Y0101532D01*
X0019631Y0101968D01*
X0022870Y0105207D01*
X0025364Y0105207D01*
X0024140Y0103983D01*
X0024003Y0103652D01*
X0023579Y0103227D01*
X0023579Y0101689D01*
X0020881Y0098991D01*
X0020597Y0098307D01*
X0016000Y0098307D01*
X0016000Y0093621D01*
X0016718Y0093735D01*
X0017496Y0093988D01*
X0018225Y0094359D01*
X0018888Y0094841D01*
X0019466Y0095419D01*
X0019947Y0096082D01*
X0020319Y0096811D01*
X0020500Y0097368D01*
X0020500Y0084668D01*
X0020487Y0084681D01*
X0013339Y0084681D01*
X0012461Y0083802D01*
X0012461Y0066812D01*
X0013339Y0065933D01*
X0020487Y0065933D01*
X0021366Y0066812D01*
X0021366Y0076224D01*
X0024707Y0079565D01*
X0026634Y0077638D01*
X0026634Y0066812D01*
X0027513Y0065933D01*
X0034661Y0065933D01*
X0035539Y0066812D01*
X0035539Y0083802D01*
X0034661Y0084681D01*
X0028760Y0084681D01*
X0028760Y0088508D01*
X0029909Y0088508D01*
X0029909Y0091689D01*
X0030091Y0091689D01*
X0030091Y0088508D01*
X0031379Y0088508D01*
X0031760Y0088610D01*
X0031808Y0088638D01*
X0031938Y0088508D01*
X0035543Y0088508D01*
X0035686Y0088651D01*
X0035900Y0088437D01*
X0035900Y0085437D01*
X0037900Y0083437D01*
X0037900Y0079437D01*
X0041900Y0075437D01*
X0041900Y0072437D01*
X0043430Y0070907D01*
X0039130Y0070907D01*
X0037900Y0069677D01*
X0037900Y0069677D01*
X0036900Y0068677D01*
X0036900Y0065407D01*
X0012870Y0065407D01*
X0012100Y0066177D01*
X0012100Y0094853D01*
X0012112Y0094841D01*
X0012775Y0094359D01*
X0013504Y0093988D01*
X0014282Y0093735D01*
X0015000Y0093621D01*
X0015000Y0098307D01*
X0015000Y0098250D02*
X0016000Y0098250D01*
X0016000Y0097252D02*
X0015000Y0097252D01*
X0015000Y0096253D02*
X0016000Y0096253D01*
X0016000Y0095255D02*
X0015000Y0095255D01*
X0015000Y0094256D02*
X0016000Y0094256D01*
X0018023Y0094256D02*
X0020500Y0094256D01*
X0020500Y0093258D02*
X0012100Y0093258D01*
X0012100Y0094256D02*
X0012977Y0094256D01*
X0012100Y0092259D02*
X0020500Y0092259D01*
X0020500Y0091261D02*
X0012100Y0091261D01*
X0012100Y0090262D02*
X0020500Y0090262D01*
X0020500Y0089264D02*
X0012100Y0089264D01*
X0012100Y0088265D02*
X0020500Y0088265D01*
X0020500Y0087267D02*
X0012100Y0087267D01*
X0012100Y0086268D02*
X0020500Y0086268D01*
X0020500Y0085270D02*
X0012100Y0085270D01*
X0012100Y0084271D02*
X0012930Y0084271D01*
X0012461Y0083273D02*
X0012100Y0083273D01*
X0012100Y0082274D02*
X0012461Y0082274D01*
X0012461Y0081276D02*
X0012100Y0081276D01*
X0012100Y0080277D02*
X0012461Y0080277D01*
X0012461Y0079279D02*
X0012100Y0079279D01*
X0012100Y0078280D02*
X0012461Y0078280D01*
X0012461Y0077282D02*
X0012100Y0077282D01*
X0012100Y0076283D02*
X0012461Y0076283D01*
X0012461Y0075285D02*
X0012100Y0075285D01*
X0012100Y0074286D02*
X0012461Y0074286D01*
X0012461Y0073288D02*
X0012100Y0073288D01*
X0012100Y0072289D02*
X0012461Y0072289D01*
X0012461Y0071291D02*
X0012100Y0071291D01*
X0012100Y0070292D02*
X0012461Y0070292D01*
X0012461Y0069294D02*
X0012100Y0069294D01*
X0012100Y0068295D02*
X0012461Y0068295D01*
X0012461Y0067297D02*
X0012100Y0067297D01*
X0012100Y0066298D02*
X0012974Y0066298D01*
X0020853Y0066298D02*
X0027147Y0066298D01*
X0026634Y0067297D02*
X0021366Y0067297D01*
X0021366Y0068295D02*
X0026634Y0068295D01*
X0026634Y0069294D02*
X0021366Y0069294D01*
X0021366Y0070292D02*
X0026634Y0070292D01*
X0026634Y0071291D02*
X0021366Y0071291D01*
X0021366Y0072289D02*
X0026634Y0072289D01*
X0026634Y0073288D02*
X0021366Y0073288D01*
X0021366Y0074286D02*
X0026634Y0074286D01*
X0026634Y0075285D02*
X0021366Y0075285D01*
X0021425Y0076283D02*
X0026634Y0076283D01*
X0026634Y0077282D02*
X0022424Y0077282D01*
X0023422Y0078280D02*
X0025991Y0078280D01*
X0024993Y0079279D02*
X0024421Y0079279D01*
X0028760Y0085270D02*
X0036067Y0085270D01*
X0035900Y0086268D02*
X0028760Y0086268D01*
X0028760Y0087267D02*
X0035900Y0087267D01*
X0035900Y0088265D02*
X0028760Y0088265D01*
X0029909Y0089264D02*
X0030091Y0089264D01*
X0030091Y0090262D02*
X0029909Y0090262D01*
X0029909Y0091261D02*
X0030091Y0091261D01*
X0035070Y0084271D02*
X0037066Y0084271D01*
X0037900Y0083273D02*
X0035539Y0083273D01*
X0035539Y0082274D02*
X0037900Y0082274D01*
X0037900Y0081276D02*
X0035539Y0081276D01*
X0035539Y0080277D02*
X0037900Y0080277D01*
X0038058Y0079279D02*
X0035539Y0079279D01*
X0035539Y0078280D02*
X0039057Y0078280D01*
X0040055Y0077282D02*
X0035539Y0077282D01*
X0035539Y0076283D02*
X0041054Y0076283D01*
X0041900Y0075285D02*
X0035539Y0075285D01*
X0035539Y0074286D02*
X0041900Y0074286D01*
X0041900Y0073288D02*
X0035539Y0073288D01*
X0035539Y0072289D02*
X0042048Y0072289D01*
X0043047Y0071291D02*
X0035539Y0071291D01*
X0035539Y0070292D02*
X0038515Y0070292D01*
X0037517Y0069294D02*
X0035539Y0069294D01*
X0035539Y0068295D02*
X0036900Y0068295D01*
X0036900Y0067297D02*
X0035539Y0067297D01*
X0035026Y0066298D02*
X0036900Y0066298D01*
X0020500Y0095255D02*
X0019302Y0095255D01*
X0020035Y0096253D02*
X0020500Y0096253D01*
X0020462Y0097252D02*
X0020500Y0097252D01*
X0021139Y0099249D02*
X0016000Y0099249D01*
X0020093Y0101246D02*
X0023136Y0101246D01*
X0023579Y0102244D02*
X0019907Y0102244D01*
X0020906Y0103243D02*
X0023594Y0103243D01*
X0024399Y0104241D02*
X0021904Y0104241D01*
X0022137Y0100247D02*
X0020500Y0100247D01*
X0055043Y0109234D02*
X0057957Y0109234D01*
X0056959Y0108235D02*
X0056041Y0108235D01*
X0112570Y0096707D02*
X0124161Y0096707D01*
X0124161Y0094504D01*
X0124859Y0093807D01*
X0124459Y0093407D01*
X0119130Y0093407D01*
X0116280Y0090557D01*
X0115354Y0090557D01*
X0114159Y0090062D01*
X0114100Y0090003D01*
X0114100Y0095177D01*
X0112570Y0096707D01*
X0113023Y0096253D02*
X0124161Y0096253D01*
X0124161Y0095255D02*
X0114022Y0095255D01*
X0114100Y0094256D02*
X0124410Y0094256D01*
X0118981Y0093258D02*
X0114100Y0093258D01*
X0114100Y0092259D02*
X0117983Y0092259D01*
X0116984Y0091261D02*
X0114100Y0091261D01*
X0114100Y0090262D02*
X0114642Y0090262D01*
X0136100Y0103243D02*
X0145800Y0103243D01*
X0145800Y0104241D02*
X0136100Y0104241D01*
X0136037Y0105240D02*
X0146172Y0105240D01*
X0146586Y0106238D02*
X0135038Y0106238D01*
X0134100Y0107237D02*
X0147576Y0107237D01*
X0149310Y0108235D02*
X0134100Y0108235D01*
X0134043Y0109234D02*
X0184298Y0109234D01*
X0183592Y0108528D02*
X0185054Y0109991D01*
X0186966Y0110783D01*
X0189034Y0110783D01*
X0190946Y0109991D01*
X0192408Y0108528D01*
X0193200Y0106617D01*
X0193200Y0104548D01*
X0192408Y0102637D01*
X0190946Y0101174D01*
X0189034Y0100383D01*
X0186966Y0100383D01*
X0185054Y0101174D01*
X0183592Y0102637D01*
X0182800Y0104548D01*
X0182800Y0106617D01*
X0183592Y0108528D01*
X0183470Y0108235D02*
X0172659Y0108235D01*
X0172996Y0108126D02*
X0172218Y0108379D01*
X0171409Y0108507D01*
X0171300Y0108507D01*
X0171300Y0103607D01*
X0176200Y0103607D01*
X0176200Y0103716D01*
X0176072Y0104525D01*
X0175819Y0105303D01*
X0175447Y0106032D01*
X0174966Y0106694D01*
X0174388Y0107273D01*
X0173725Y0107754D01*
X0172996Y0108126D01*
X0174424Y0107237D02*
X0183057Y0107237D01*
X0182800Y0106238D02*
X0175298Y0106238D01*
X0175840Y0105240D02*
X0182800Y0105240D01*
X0182927Y0104241D02*
X0176117Y0104241D01*
X0176200Y0103007D02*
X0171300Y0103007D01*
X0171300Y0098107D01*
X0171409Y0098107D01*
X0172218Y0098235D01*
X0172996Y0098488D01*
X0173725Y0098859D01*
X0174388Y0099341D01*
X0174966Y0099919D01*
X0175447Y0100582D01*
X0175819Y0101311D01*
X0176072Y0102089D01*
X0176200Y0102898D01*
X0176200Y0103007D01*
X0176097Y0102244D02*
X0183984Y0102244D01*
X0183341Y0103243D02*
X0171300Y0103243D01*
X0171300Y0104241D02*
X0170700Y0104241D01*
X0170700Y0105240D02*
X0171300Y0105240D01*
X0171300Y0106238D02*
X0170700Y0106238D01*
X0170700Y0107237D02*
X0171300Y0107237D01*
X0171300Y0108235D02*
X0170700Y0108235D01*
X0169341Y0108235D02*
X0162690Y0108235D01*
X0164424Y0107237D02*
X0167576Y0107237D01*
X0166702Y0106238D02*
X0165414Y0106238D01*
X0165828Y0105240D02*
X0166160Y0105240D01*
X0166214Y0101246D02*
X0165775Y0101246D01*
X0165294Y0100247D02*
X0166795Y0100247D01*
X0167739Y0099249D02*
X0164296Y0099249D01*
X0163100Y0098250D02*
X0169735Y0098250D01*
X0170700Y0098250D02*
X0171300Y0098250D01*
X0172265Y0098250D02*
X0194476Y0098250D01*
X0194476Y0097252D02*
X0162915Y0097252D01*
X0161916Y0096253D02*
X0194476Y0096253D01*
X0194476Y0095255D02*
X0160918Y0095255D01*
X0159919Y0094256D02*
X0194476Y0094256D01*
X0194476Y0093258D02*
X0158921Y0093258D01*
X0157922Y0092259D02*
X0194476Y0092259D01*
X0194476Y0091261D02*
X0157100Y0091261D01*
X0157100Y0090262D02*
X0194476Y0090262D01*
X0194476Y0089264D02*
X0157100Y0089264D01*
X0157100Y0088265D02*
X0161988Y0088265D01*
X0160990Y0087267D02*
X0157100Y0087267D01*
X0157100Y0086268D02*
X0159991Y0086268D01*
X0158993Y0085270D02*
X0157100Y0085270D01*
X0157100Y0084271D02*
X0157994Y0084271D01*
X0153446Y0093723D02*
X0153446Y0098692D01*
X0153946Y0098899D01*
X0155408Y0100361D01*
X0156000Y0101790D01*
X0156592Y0100361D01*
X0158054Y0098899D01*
X0158456Y0098732D01*
X0153446Y0093723D01*
X0153446Y0094256D02*
X0153980Y0094256D01*
X0153446Y0095255D02*
X0154978Y0095255D01*
X0155977Y0096253D02*
X0153446Y0096253D01*
X0153446Y0097252D02*
X0156975Y0097252D01*
X0157974Y0098250D02*
X0153446Y0098250D01*
X0154296Y0099249D02*
X0157704Y0099249D01*
X0156706Y0100247D02*
X0155294Y0100247D01*
X0155775Y0101246D02*
X0156225Y0101246D01*
X0156172Y0105240D02*
X0155828Y0105240D01*
X0155414Y0106238D02*
X0156586Y0106238D01*
X0157576Y0107237D02*
X0154424Y0107237D01*
X0152690Y0108235D02*
X0159310Y0108235D01*
X0170700Y0102244D02*
X0171300Y0102244D01*
X0171300Y0101246D02*
X0170700Y0101246D01*
X0170700Y0100247D02*
X0171300Y0100247D01*
X0171300Y0099249D02*
X0170700Y0099249D01*
X0174261Y0099249D02*
X0194476Y0099249D01*
X0194476Y0100247D02*
X0175205Y0100247D01*
X0175786Y0101246D02*
X0184983Y0101246D01*
X0191017Y0101246D02*
X0194476Y0101246D01*
X0194476Y0102244D02*
X0192016Y0102244D01*
X0192659Y0103243D02*
X0194476Y0103243D01*
X0194476Y0104241D02*
X0193073Y0104241D01*
X0193200Y0105240D02*
X0194476Y0105240D01*
X0194476Y0106238D02*
X0193200Y0106238D01*
X0192943Y0107237D02*
X0194476Y0107237D01*
X0194476Y0108235D02*
X0192530Y0108235D01*
X0191702Y0109234D02*
X0194476Y0109234D01*
X0194476Y0110232D02*
X0190362Y0110232D01*
X0194476Y0111231D02*
X0128114Y0111231D01*
X0128114Y0112230D02*
X0127933Y0112230D01*
X0127933Y0113228D02*
X0128114Y0113228D01*
X0124357Y0113228D02*
X0123440Y0113228D01*
X0120560Y0113228D02*
X0119049Y0113228D01*
X0131691Y0113228D02*
X0194476Y0113228D01*
X0194476Y0112230D02*
X0131886Y0112230D01*
X0133044Y0110232D02*
X0185638Y0110232D01*
X0186500Y0127207D02*
X0187500Y0127207D01*
X0187500Y0128206D02*
X0186500Y0128206D01*
X0186500Y0129204D02*
X0187500Y0129204D01*
X0187500Y0130203D02*
X0186500Y0130203D01*
X0186500Y0131201D02*
X0187500Y0131201D01*
X0180568Y0134197D02*
X0163525Y0134197D01*
X0163179Y0135195D02*
X0180821Y0135195D01*
X0181273Y0136194D02*
X0162766Y0136194D01*
X0162098Y0137192D02*
X0181944Y0137192D01*
X0182964Y0138191D02*
X0161100Y0138191D01*
X0159260Y0139189D02*
X0184740Y0139189D01*
X0145812Y0102244D02*
X0137032Y0102244D01*
X0138031Y0101246D02*
X0146225Y0101246D01*
X0146706Y0100247D02*
X0139029Y0100247D01*
X0140028Y0099249D02*
X0147704Y0099249D01*
X0149246Y0098250D02*
X0141026Y0098250D01*
X0141100Y0097252D02*
X0149246Y0097252D01*
X0149246Y0096253D02*
X0141100Y0096253D01*
X0141100Y0095255D02*
X0149246Y0095255D01*
X0149246Y0094256D02*
X0144020Y0094256D01*
X0145019Y0093258D02*
X0149246Y0093258D01*
X0175012Y0088265D02*
X0194476Y0088265D01*
X0194476Y0087267D02*
X0190010Y0087267D01*
X0191009Y0086268D02*
X0194476Y0086268D01*
X0194476Y0085270D02*
X0192007Y0085270D01*
X0193006Y0084271D02*
X0194476Y0084271D01*
X0194476Y0083273D02*
X0194004Y0083273D01*
X0194100Y0082274D02*
X0194476Y0082274D01*
X0194476Y0081276D02*
X0194100Y0081276D01*
X0194100Y0080277D02*
X0194476Y0080277D01*
X0194476Y0079279D02*
X0194100Y0079279D01*
X0194100Y0078280D02*
X0194476Y0078280D01*
X0194476Y0077282D02*
X0194100Y0077282D01*
X0194100Y0076283D02*
X0194476Y0076283D01*
X0194476Y0075285D02*
X0194100Y0075285D01*
X0194100Y0074286D02*
X0194476Y0074286D01*
X0194476Y0073288D02*
X0193950Y0073288D01*
X0194476Y0072289D02*
X0192952Y0072289D01*
X0192200Y0071291D02*
X0194476Y0071291D01*
X0194476Y0070292D02*
X0192200Y0070292D01*
X0192200Y0069294D02*
X0194476Y0069294D01*
X0194476Y0068295D02*
X0192200Y0068295D01*
X0192200Y0067297D02*
X0194476Y0067297D01*
X0194476Y0066298D02*
X0191345Y0066298D01*
X0190346Y0065299D02*
X0194476Y0065299D01*
X0194275Y0064301D02*
X0189348Y0064301D01*
X0192697Y0062304D02*
X0171967Y0062304D01*
X0172965Y0063302D02*
X0193827Y0063302D01*
X0184652Y0064301D02*
X0173964Y0064301D01*
X0179346Y0065299D02*
X0183654Y0065299D01*
X0182655Y0066298D02*
X0180345Y0066298D01*
X0181343Y0067297D02*
X0181800Y0067297D01*
X0143036Y0064301D02*
X0135964Y0064301D01*
X0136962Y0065299D02*
X0142038Y0065299D01*
D26*
X0129500Y0070307D03*
X0116000Y0078307D03*
X0111000Y0083307D03*
X0116000Y0087307D03*
X0120500Y0087307D03*
X0117000Y0093307D03*
X0112500Y0104807D03*
X0114000Y0110307D03*
X0122000Y0110307D03*
X0119000Y0118307D03*
X0109000Y0118307D03*
X0098000Y0096307D03*
X0086000Y0096307D03*
X0073000Y0084307D03*
X0079000Y0069307D03*
X0064000Y0063307D03*
X0050000Y0063307D03*
X0040000Y0072307D03*
X0024000Y0075307D03*
X0019000Y0086307D03*
X0030500Y0086807D03*
X0048000Y0106307D03*
X0054000Y0114307D03*
X0076000Y0111307D03*
X0099000Y0083307D03*
X0108000Y0075307D03*
X0106500Y0070807D03*
X0108000Y0066307D03*
X0102000Y0063307D03*
X0156000Y0098307D03*
X0159000Y0091307D03*
X0173000Y0090307D03*
X0157000Y0078307D03*
X0182000Y0063307D03*
X0192000Y0087307D03*
X0180000Y0110307D03*
X0172000Y0111307D03*
X0164000Y0111307D03*
X0156000Y0111307D03*
X0148000Y0111307D03*
X0148000Y0122307D03*
X0156000Y0122307D03*
X0164000Y0122307D03*
X0172000Y0122307D03*
X0181000Y0122307D03*
X0188000Y0118307D03*
X0192000Y0112307D03*
X0013000Y0121307D03*
D27*
X0018000Y0111307D02*
X0015500Y0108807D01*
X0018000Y0111307D02*
X0018433Y0111307D01*
X0027520Y0111307D01*
X0028000Y0104307D02*
X0033000Y0104307D01*
X0034000Y0105307D01*
X0037000Y0108307D01*
X0037000Y0111307D01*
X0042480Y0111307D01*
X0042000Y0111307D01*
X0037000Y0111307D02*
X0037000Y0116307D01*
X0020244Y0133063D01*
X0017000Y0133063D01*
X0028000Y0104307D02*
X0026260Y0102567D01*
X0026260Y0100834D01*
X0023000Y0097575D01*
X0023000Y0089307D01*
X0023000Y0081394D01*
X0016913Y0075307D01*
X0026260Y0081547D02*
X0029000Y0078807D01*
X0031087Y0076720D01*
X0031087Y0075307D01*
X0026260Y0081547D02*
X0026260Y0091779D01*
X0031000Y0096307D02*
X0030000Y0097307D01*
X0030000Y0100834D01*
X0031000Y0096307D02*
X0035000Y0096307D01*
X0041000Y0090307D01*
X0041000Y0087307D01*
X0043000Y0085307D01*
X0043000Y0080960D01*
X0047654Y0076307D01*
X0047654Y0073653D01*
X0050000Y0071307D01*
X0070591Y0071307D01*
X0072874Y0073590D01*
X0077283Y0073590D01*
X0081000Y0077307D01*
X0081000Y0098807D01*
X0083000Y0100807D01*
X0092000Y0100807D01*
X0094000Y0100807D01*
X0096000Y0100807D01*
X0096000Y0104960D01*
X0096346Y0105307D01*
X0101787Y0107094D02*
X0101787Y0102094D01*
X0100500Y0100807D01*
X0096000Y0100807D01*
X0089000Y0104960D02*
X0082000Y0104960D01*
X0101787Y0107094D02*
X0101787Y0110094D01*
X0103000Y0111307D01*
X0105976Y0111307D01*
X0113000Y0111307D01*
X0114000Y0110307D01*
D28*
X0115000Y0114307D02*
X0112000Y0114307D01*
X0102000Y0114307D01*
X0099394Y0111701D01*
X0099394Y0109307D01*
X0098394Y0108307D01*
X0093000Y0108307D01*
X0089654Y0104960D01*
X0089000Y0104960D01*
X0092000Y0100807D02*
X0092000Y0097307D01*
X0102000Y0097807D02*
X0102000Y0094807D01*
X0103000Y0093807D01*
X0109500Y0093807D01*
X0110000Y0093307D01*
X0110000Y0089307D01*
X0109500Y0088807D01*
X0103000Y0088807D01*
X0102000Y0087807D01*
X0102000Y0081307D01*
X0101000Y0080307D01*
X0098500Y0080307D01*
X0098500Y0082807D01*
X0099000Y0083307D01*
X0099000Y0086307D02*
X0097500Y0086307D01*
X0096000Y0084807D01*
X0096000Y0082307D01*
X0093000Y0082307D01*
X0096000Y0082307D02*
X0096000Y0080807D01*
X0091630Y0076437D01*
X0091630Y0075409D01*
X0095500Y0077307D02*
X0095500Y0072307D01*
X0094862Y0071669D01*
X0091630Y0071669D01*
X0097000Y0066307D02*
X0098000Y0067307D01*
X0098000Y0076807D01*
X0099500Y0078307D01*
X0108000Y0078307D01*
X0116000Y0078307D01*
X0114000Y0081307D02*
X0122000Y0081307D01*
X0125000Y0078307D01*
X0127000Y0078307D01*
X0129500Y0078307D01*
X0137000Y0070807D01*
X0138000Y0069807D01*
X0138000Y0068307D01*
X0142000Y0068307D01*
X0144000Y0066307D01*
X0162500Y0066307D01*
X0164500Y0064307D01*
X0171000Y0064307D01*
X0177000Y0070307D01*
X0172000Y0074307D02*
X0173000Y0075307D01*
X0183000Y0075307D01*
X0187000Y0079307D01*
X0192000Y0082307D02*
X0192000Y0074307D01*
X0187000Y0069307D01*
X0177000Y0080307D02*
X0173000Y0084307D01*
X0164000Y0084307D01*
X0162000Y0082307D01*
X0162000Y0077307D01*
X0157000Y0072307D01*
X0147000Y0072307D01*
X0145000Y0074307D01*
X0142500Y0074307D01*
X0134000Y0082807D01*
X0134000Y0084307D01*
X0132000Y0086307D01*
X0128024Y0086307D01*
X0121500Y0086307D01*
X0120500Y0087307D01*
X0120000Y0091307D02*
X0116000Y0087307D01*
X0115000Y0083807D02*
X0112000Y0086807D01*
X0112000Y0094307D01*
X0110000Y0096307D01*
X0105976Y0096307D01*
X0103000Y0098807D02*
X0102000Y0097807D01*
X0103000Y0098807D02*
X0131000Y0098807D01*
X0133500Y0096307D01*
X0135000Y0094807D01*
X0135000Y0089307D01*
X0139000Y0085307D01*
X0139000Y0084307D01*
X0141000Y0082307D01*
X0141500Y0081807D01*
X0147846Y0081807D01*
X0151000Y0081807D01*
X0151346Y0081460D01*
X0151346Y0078307D01*
X0151000Y0081807D02*
X0154846Y0081807D01*
X0155000Y0081807D01*
X0158500Y0081807D01*
X0160000Y0083307D01*
X0162000Y0085307D01*
X0163000Y0086307D01*
X0174000Y0086307D01*
X0175000Y0085307D01*
X0189000Y0085307D01*
X0192000Y0082307D01*
X0172000Y0074307D02*
X0165000Y0074307D01*
X0159000Y0068307D01*
X0145000Y0068307D01*
X0143000Y0070307D01*
X0140500Y0070307D01*
X0139500Y0071307D01*
X0129500Y0081307D01*
X0128024Y0081307D01*
X0131000Y0083807D02*
X0115000Y0083807D01*
X0114000Y0081307D02*
X0113000Y0080307D01*
X0107000Y0080307D01*
X0106000Y0081307D01*
X0105976Y0081307D01*
X0108000Y0086307D02*
X0111000Y0083307D01*
X0108000Y0086307D02*
X0105976Y0086307D01*
X0105976Y0091307D02*
X0102500Y0091307D01*
X0100000Y0088807D01*
X0100000Y0087307D01*
X0099000Y0086307D01*
X0098500Y0080307D02*
X0095500Y0077307D01*
X0108000Y0075307D02*
X0110000Y0073307D01*
X0110000Y0070307D01*
X0111000Y0069307D01*
X0113094Y0069307D01*
X0108937Y0065370D02*
X0108000Y0066307D01*
X0108937Y0065370D02*
X0113094Y0065370D01*
X0124906Y0065370D02*
X0127063Y0065370D01*
X0128000Y0066307D01*
X0134000Y0066307D01*
X0135000Y0066307D01*
X0137000Y0068307D01*
X0138000Y0068307D01*
X0141500Y0072307D02*
X0141000Y0072807D01*
X0132000Y0081807D01*
X0132000Y0082807D01*
X0131000Y0083807D01*
X0133000Y0088307D02*
X0136000Y0085307D01*
X0136000Y0084307D01*
X0141000Y0079307D01*
X0142000Y0078307D01*
X0143000Y0078307D01*
X0142000Y0078307D01*
X0143000Y0078307D01*
X0144654Y0078307D01*
X0148654Y0074307D01*
X0154000Y0074307D01*
X0157000Y0077307D01*
X0157000Y0078307D01*
X0154000Y0083807D02*
X0155000Y0084807D01*
X0155000Y0092307D01*
X0161000Y0098307D01*
X0161000Y0103307D01*
X0151346Y0102960D02*
X0151000Y0103307D01*
X0151346Y0102960D02*
X0151346Y0090807D01*
X0144500Y0090807D01*
X0143000Y0092307D01*
X0140000Y0092307D01*
X0139000Y0093307D01*
X0139000Y0097307D01*
X0134000Y0102307D01*
X0134000Y0104307D01*
X0132000Y0106307D01*
X0132000Y0108307D01*
X0131500Y0108807D01*
X0123500Y0108807D01*
X0122000Y0110307D01*
X0119000Y0108307D02*
X0120000Y0107307D01*
X0121000Y0106307D01*
X0128024Y0106307D01*
X0131039Y0103807D02*
X0125000Y0103807D01*
X0122500Y0101307D01*
X0105976Y0101307D01*
X0118000Y0109307D02*
X0118000Y0111307D01*
X0115000Y0114307D01*
X0118000Y0109307D02*
X0119000Y0108307D01*
X0131039Y0103807D02*
X0132020Y0102827D01*
X0132020Y0100787D01*
X0133500Y0099307D01*
X0137000Y0095807D01*
X0137000Y0092307D01*
X0139000Y0090307D01*
X0141654Y0090307D01*
X0144654Y0087307D01*
X0145654Y0086307D01*
X0146000Y0086307D01*
X0148500Y0083807D01*
X0154000Y0083807D01*
X0151346Y0087307D02*
X0151346Y0090807D01*
X0133000Y0092307D02*
X0133000Y0088307D01*
X0133000Y0092307D02*
X0129000Y0096307D01*
X0128024Y0096307D01*
X0128024Y0091307D02*
X0120000Y0091307D01*
X0141500Y0072307D02*
X0144000Y0072307D01*
X0146000Y0070307D01*
X0158000Y0070307D01*
X0159000Y0071307D01*
X0166000Y0078307D01*
X0167000Y0079307D01*
X0097000Y0066307D02*
X0096000Y0065307D01*
X0069000Y0065307D01*
X0065500Y0068807D01*
X0048500Y0068807D01*
X0044000Y0073307D01*
X0044000Y0076307D01*
X0040000Y0080307D01*
X0040000Y0084307D01*
X0038000Y0086307D01*
X0038000Y0089307D01*
X0035528Y0091779D01*
X0033740Y0091779D01*
X0033740Y0100834D02*
X0034472Y0100834D01*
X0044000Y0091307D01*
X0044000Y0087960D01*
X0047654Y0084307D01*
X0047654Y0083000D01*
X0054346Y0076307D01*
X0048500Y0068807D02*
X0040000Y0068807D01*
X0039000Y0067807D01*
X0039000Y0065307D01*
X0042000Y0065307D01*
X0039000Y0065307D02*
X0039000Y0064307D01*
X0038000Y0063307D01*
X0035000Y0063307D01*
X0012000Y0063307D01*
X0010000Y0065307D01*
X0010000Y0081307D01*
X0010000Y0101307D01*
X0012500Y0103807D01*
X0018500Y0103807D01*
X0022000Y0107307D01*
X0032000Y0107307D01*
X0033000Y0108307D01*
X0033000Y0114807D01*
X0033000Y0116307D01*
X0023000Y0126307D01*
X0014000Y0126307D01*
X0010000Y0130307D01*
X0010000Y0136307D01*
X0013500Y0139807D01*
X0020500Y0139807D01*
X0025000Y0135307D01*
X0025000Y0132307D01*
X0042000Y0115307D01*
X0046000Y0115307D01*
X0054346Y0106960D01*
X0054346Y0100307D01*
X0058000Y0097307D02*
X0057000Y0096307D01*
X0049654Y0096307D01*
X0047654Y0096307D01*
X0043000Y0096307D01*
X0037000Y0102307D01*
X0037000Y0103307D01*
X0035000Y0105307D01*
X0034000Y0105307D01*
X0047654Y0100307D02*
X0047654Y0096307D01*
X0047654Y0092307D01*
X0058000Y0097307D02*
X0058000Y0106307D01*
X0059000Y0107307D01*
X0060000Y0107307D01*
X0077654Y0107307D01*
X0082000Y0111653D01*
X0060000Y0107307D02*
X0059000Y0107307D01*
X0060000Y0107307D01*
X0010000Y0083307D02*
X0010000Y0081307D01*
D29*
X0100500Y0100807D02*
X0101000Y0100807D01*
X0103000Y0098807D01*
M02*
