G75*
%MOIN*%
%OFA0B0*%
%FSLAX25Y25*%
%IPPOS*%
%LPD*%
%AMOC8*
5,1,8,0,0,1.08239X$1,22.5*
%
%ADD10C,0.00000*%
%ADD11OC8,0.07400*%
%ADD12R,0.08600X0.04200*%
%ADD13C,0.07400*%
%ADD14C,0.10050*%
%ADD15C,0.03000*%
%ADD16C,0.01000*%
%ADD17C,0.03500*%
%ADD18C,0.02000*%
%ADD19C,0.01200*%
%ADD20C,0.04300*%
D10*
X0012000Y0060307D02*
X0190976Y0060307D01*
X0191116Y0060309D01*
X0191256Y0060315D01*
X0191396Y0060325D01*
X0191536Y0060338D01*
X0191675Y0060356D01*
X0191814Y0060378D01*
X0191951Y0060403D01*
X0192089Y0060432D01*
X0192225Y0060465D01*
X0192360Y0060502D01*
X0192494Y0060543D01*
X0192627Y0060588D01*
X0192759Y0060636D01*
X0192889Y0060688D01*
X0193018Y0060743D01*
X0193145Y0060802D01*
X0193271Y0060865D01*
X0193395Y0060931D01*
X0193516Y0061000D01*
X0193636Y0061073D01*
X0193754Y0061150D01*
X0193869Y0061229D01*
X0193983Y0061312D01*
X0194093Y0061398D01*
X0194202Y0061487D01*
X0194308Y0061579D01*
X0194411Y0061674D01*
X0194512Y0061771D01*
X0194609Y0061872D01*
X0194704Y0061975D01*
X0194796Y0062081D01*
X0194885Y0062190D01*
X0194971Y0062300D01*
X0195054Y0062414D01*
X0195133Y0062529D01*
X0195210Y0062647D01*
X0195283Y0062767D01*
X0195352Y0062888D01*
X0195418Y0063012D01*
X0195481Y0063138D01*
X0195540Y0063265D01*
X0195595Y0063394D01*
X0195647Y0063524D01*
X0195695Y0063656D01*
X0195740Y0063789D01*
X0195781Y0063923D01*
X0195818Y0064058D01*
X0195851Y0064194D01*
X0195880Y0064332D01*
X0195905Y0064469D01*
X0195927Y0064608D01*
X0195945Y0064747D01*
X0195958Y0064887D01*
X0195968Y0065027D01*
X0195974Y0065167D01*
X0195976Y0065307D01*
X0195976Y0145858D01*
X0195974Y0145998D01*
X0195968Y0146138D01*
X0195958Y0146278D01*
X0195945Y0146418D01*
X0195927Y0146557D01*
X0195905Y0146696D01*
X0195880Y0146833D01*
X0195851Y0146971D01*
X0195818Y0147107D01*
X0195781Y0147242D01*
X0195740Y0147376D01*
X0195695Y0147509D01*
X0195647Y0147641D01*
X0195595Y0147771D01*
X0195540Y0147900D01*
X0195481Y0148027D01*
X0195418Y0148153D01*
X0195352Y0148277D01*
X0195283Y0148398D01*
X0195210Y0148518D01*
X0195133Y0148636D01*
X0195054Y0148751D01*
X0194971Y0148865D01*
X0194885Y0148975D01*
X0194796Y0149084D01*
X0194704Y0149190D01*
X0194609Y0149293D01*
X0194512Y0149394D01*
X0194411Y0149491D01*
X0194308Y0149586D01*
X0194202Y0149678D01*
X0194093Y0149767D01*
X0193983Y0149853D01*
X0193869Y0149936D01*
X0193754Y0150015D01*
X0193636Y0150092D01*
X0193516Y0150165D01*
X0193395Y0150234D01*
X0193271Y0150300D01*
X0193145Y0150363D01*
X0193018Y0150422D01*
X0192889Y0150477D01*
X0192759Y0150529D01*
X0192627Y0150577D01*
X0192494Y0150622D01*
X0192360Y0150663D01*
X0192225Y0150700D01*
X0192089Y0150733D01*
X0191951Y0150762D01*
X0191814Y0150787D01*
X0191675Y0150809D01*
X0191536Y0150827D01*
X0191396Y0150840D01*
X0191256Y0150850D01*
X0191116Y0150856D01*
X0190976Y0150858D01*
X0012000Y0150858D01*
X0011860Y0150856D01*
X0011720Y0150850D01*
X0011580Y0150840D01*
X0011440Y0150827D01*
X0011301Y0150809D01*
X0011162Y0150787D01*
X0011025Y0150762D01*
X0010887Y0150733D01*
X0010751Y0150700D01*
X0010616Y0150663D01*
X0010482Y0150622D01*
X0010349Y0150577D01*
X0010217Y0150529D01*
X0010087Y0150477D01*
X0009958Y0150422D01*
X0009831Y0150363D01*
X0009705Y0150300D01*
X0009581Y0150234D01*
X0009460Y0150165D01*
X0009340Y0150092D01*
X0009222Y0150015D01*
X0009107Y0149936D01*
X0008993Y0149853D01*
X0008883Y0149767D01*
X0008774Y0149678D01*
X0008668Y0149586D01*
X0008565Y0149491D01*
X0008464Y0149394D01*
X0008367Y0149293D01*
X0008272Y0149190D01*
X0008180Y0149084D01*
X0008091Y0148975D01*
X0008005Y0148865D01*
X0007922Y0148751D01*
X0007843Y0148636D01*
X0007766Y0148518D01*
X0007693Y0148398D01*
X0007624Y0148277D01*
X0007558Y0148153D01*
X0007495Y0148027D01*
X0007436Y0147900D01*
X0007381Y0147771D01*
X0007329Y0147641D01*
X0007281Y0147509D01*
X0007236Y0147376D01*
X0007195Y0147242D01*
X0007158Y0147107D01*
X0007125Y0146971D01*
X0007096Y0146833D01*
X0007071Y0146696D01*
X0007049Y0146557D01*
X0007031Y0146418D01*
X0007018Y0146278D01*
X0007008Y0146138D01*
X0007002Y0145998D01*
X0007000Y0145858D01*
X0007000Y0065307D01*
X0007002Y0065167D01*
X0007008Y0065027D01*
X0007018Y0064887D01*
X0007031Y0064747D01*
X0007049Y0064608D01*
X0007071Y0064469D01*
X0007096Y0064332D01*
X0007125Y0064194D01*
X0007158Y0064058D01*
X0007195Y0063923D01*
X0007236Y0063789D01*
X0007281Y0063656D01*
X0007329Y0063524D01*
X0007381Y0063394D01*
X0007436Y0063265D01*
X0007495Y0063138D01*
X0007558Y0063012D01*
X0007624Y0062888D01*
X0007693Y0062767D01*
X0007766Y0062647D01*
X0007843Y0062529D01*
X0007922Y0062414D01*
X0008005Y0062300D01*
X0008091Y0062190D01*
X0008180Y0062081D01*
X0008272Y0061975D01*
X0008367Y0061872D01*
X0008464Y0061771D01*
X0008565Y0061674D01*
X0008668Y0061579D01*
X0008774Y0061487D01*
X0008883Y0061398D01*
X0008993Y0061312D01*
X0009107Y0061229D01*
X0009222Y0061150D01*
X0009340Y0061073D01*
X0009460Y0061000D01*
X0009581Y0060931D01*
X0009705Y0060865D01*
X0009831Y0060802D01*
X0009958Y0060743D01*
X0010087Y0060688D01*
X0010217Y0060636D01*
X0010349Y0060588D01*
X0010482Y0060543D01*
X0010616Y0060502D01*
X0010751Y0060465D01*
X0010887Y0060432D01*
X0011025Y0060403D01*
X0011162Y0060378D01*
X0011301Y0060356D01*
X0011440Y0060338D01*
X0011580Y0060325D01*
X0011720Y0060315D01*
X0011860Y0060309D01*
X0012000Y0060307D01*
D11*
X0167000Y0069307D03*
X0177000Y0070307D03*
X0187000Y0069307D03*
X0187000Y0079307D03*
X0177000Y0080307D03*
X0167000Y0079307D03*
D12*
X0139867Y0076314D03*
X0139867Y0067938D03*
X0139867Y0084813D03*
X0139867Y0092687D03*
X0139867Y0100561D03*
X0139867Y0109060D03*
X0139867Y0116934D03*
X0139867Y0124183D03*
X0062500Y0124183D03*
X0062500Y0116934D03*
X0062500Y0109060D03*
X0062500Y0101186D03*
X0062500Y0092687D03*
X0062500Y0084439D03*
X0062500Y0076063D03*
X0062500Y0068189D03*
D13*
X0015500Y0098807D03*
X0015500Y0108807D03*
X0151000Y0103307D03*
X0161000Y0103307D03*
X0171000Y0103307D03*
X0188000Y0105583D03*
D14*
X0187000Y0133063D03*
X0157000Y0133063D03*
X0047000Y0133063D03*
X0017000Y0133063D03*
D15*
X0154000Y0073307D03*
X0158000Y0073307D03*
X0180000Y0088307D03*
X0185000Y0088307D03*
D16*
X0187100Y0086164D02*
X0187543Y0086608D01*
X0188000Y0087710D01*
X0188000Y0088904D01*
X0187543Y0090006D01*
X0186699Y0090850D01*
X0185597Y0091307D01*
X0184403Y0091307D01*
X0183301Y0090850D01*
X0182500Y0090050D01*
X0181699Y0090850D01*
X0180597Y0091307D01*
X0179403Y0091307D01*
X0178301Y0090850D01*
X0177457Y0090006D01*
X0177000Y0088904D01*
X0177000Y0087710D01*
X0177457Y0086608D01*
X0177900Y0086164D01*
X0177900Y0085507D01*
X0174846Y0085507D01*
X0174808Y0085469D01*
X0170870Y0089407D01*
X0151870Y0089407D01*
X0150100Y0091177D01*
X0150100Y0097177D01*
X0148607Y0098670D01*
X0149966Y0098107D01*
X0152034Y0098107D01*
X0153946Y0098899D01*
X0155408Y0100361D01*
X0156000Y0101790D01*
X0156592Y0100361D01*
X0158054Y0098899D01*
X0159966Y0098107D01*
X0162034Y0098107D01*
X0163946Y0098899D01*
X0165408Y0100361D01*
X0166014Y0101824D01*
X0166181Y0101311D01*
X0166553Y0100582D01*
X0167034Y0099919D01*
X0167612Y0099341D01*
X0168275Y0098859D01*
X0169004Y0098488D01*
X0169782Y0098235D01*
X0170591Y0098107D01*
X0170700Y0098107D01*
X0170700Y0103007D01*
X0171300Y0103007D01*
X0171300Y0103607D01*
X0170700Y0103607D01*
X0170700Y0108507D01*
X0170591Y0108507D01*
X0169782Y0108379D01*
X0169004Y0108126D01*
X0168275Y0107754D01*
X0167612Y0107273D01*
X0167034Y0106694D01*
X0166553Y0106032D01*
X0166181Y0105303D01*
X0166014Y0104790D01*
X0165408Y0106252D01*
X0163946Y0107715D01*
X0162034Y0108507D01*
X0159966Y0108507D01*
X0158054Y0107715D01*
X0156592Y0106252D01*
X0156000Y0104824D01*
X0155408Y0106252D01*
X0153946Y0107715D01*
X0152034Y0108507D01*
X0149966Y0108507D01*
X0148054Y0107715D01*
X0146592Y0106252D01*
X0145800Y0104341D01*
X0145800Y0102273D01*
X0146363Y0100914D01*
X0145667Y0101610D01*
X0145667Y0103282D01*
X0144788Y0104161D01*
X0134946Y0104161D01*
X0134067Y0103282D01*
X0134067Y0097840D01*
X0134946Y0096961D01*
X0144376Y0096961D01*
X0145900Y0095437D01*
X0145900Y0092377D01*
X0145667Y0092610D01*
X0145667Y0095408D01*
X0144788Y0096287D01*
X0134946Y0096287D01*
X0134067Y0095408D01*
X0134067Y0089966D01*
X0134946Y0089087D01*
X0143250Y0089087D01*
X0143924Y0088413D01*
X0134946Y0088413D01*
X0134067Y0087534D01*
X0134067Y0082091D01*
X0134946Y0081213D01*
X0144788Y0081213D01*
X0145667Y0082091D01*
X0145667Y0082713D01*
X0146624Y0082713D01*
X0146900Y0082437D01*
X0148130Y0081207D01*
X0155509Y0081207D01*
X0155159Y0081062D01*
X0154245Y0080148D01*
X0153750Y0078953D01*
X0153750Y0078414D01*
X0145667Y0078414D01*
X0145667Y0079035D01*
X0144788Y0079914D01*
X0134946Y0079914D01*
X0134067Y0079035D01*
X0134067Y0073592D01*
X0134946Y0072714D01*
X0144788Y0072714D01*
X0145667Y0073592D01*
X0145667Y0074214D01*
X0151128Y0074214D01*
X0151000Y0073904D01*
X0151000Y0072710D01*
X0151457Y0071608D01*
X0152301Y0070764D01*
X0153403Y0070307D01*
X0154597Y0070307D01*
X0155699Y0070764D01*
X0156000Y0071064D01*
X0156301Y0070764D01*
X0157403Y0070307D01*
X0158597Y0070307D01*
X0159699Y0070764D01*
X0160543Y0071608D01*
X0160736Y0072073D01*
X0162000Y0073337D01*
X0162838Y0072499D01*
X0161800Y0071461D01*
X0161800Y0069807D01*
X0166500Y0069807D01*
X0166500Y0068807D01*
X0161800Y0068807D01*
X0161800Y0067153D01*
X0164846Y0064107D01*
X0166500Y0064107D01*
X0166500Y0068807D01*
X0167500Y0068807D01*
X0167500Y0064107D01*
X0169154Y0064107D01*
X0172200Y0067153D01*
X0172200Y0067753D01*
X0174846Y0065107D01*
X0179154Y0065107D01*
X0181800Y0067753D01*
X0181800Y0067153D01*
X0184846Y0064107D01*
X0189154Y0064107D01*
X0192200Y0067153D01*
X0192200Y0071461D01*
X0189354Y0074307D01*
X0192200Y0077153D01*
X0192200Y0081461D01*
X0189154Y0084507D01*
X0187100Y0084507D01*
X0187100Y0086164D01*
X0187204Y0086268D02*
X0194476Y0086268D01*
X0194476Y0085270D02*
X0187100Y0085270D01*
X0189390Y0084271D02*
X0194476Y0084271D01*
X0194476Y0083273D02*
X0190388Y0083273D01*
X0191387Y0082274D02*
X0194476Y0082274D01*
X0194476Y0081276D02*
X0192200Y0081276D01*
X0192200Y0080277D02*
X0194476Y0080277D01*
X0194476Y0079279D02*
X0192200Y0079279D01*
X0192200Y0078280D02*
X0194476Y0078280D01*
X0194476Y0077282D02*
X0192200Y0077282D01*
X0191330Y0076283D02*
X0194476Y0076283D01*
X0194476Y0075285D02*
X0190332Y0075285D01*
X0189375Y0074286D02*
X0194476Y0074286D01*
X0194476Y0073288D02*
X0190373Y0073288D01*
X0191372Y0072289D02*
X0194476Y0072289D01*
X0194476Y0071291D02*
X0192200Y0071291D01*
X0192200Y0070292D02*
X0194476Y0070292D01*
X0194476Y0069294D02*
X0192200Y0069294D01*
X0192200Y0068295D02*
X0194476Y0068295D01*
X0194476Y0067297D02*
X0192200Y0067297D01*
X0191345Y0066298D02*
X0194476Y0066298D01*
X0194476Y0065307D02*
X0194409Y0064624D01*
X0193887Y0063362D01*
X0192921Y0062397D01*
X0191659Y0061874D01*
X0190976Y0061807D01*
X0012000Y0061807D01*
X0011317Y0061874D01*
X0010055Y0062397D01*
X0009090Y0063362D01*
X0008567Y0064624D01*
X0008500Y0065307D01*
X0008500Y0145858D01*
X0008567Y0146541D01*
X0009090Y0147803D01*
X0010055Y0148768D01*
X0011317Y0149291D01*
X0012000Y0149358D01*
X0190976Y0149358D01*
X0191659Y0149291D01*
X0192921Y0148768D01*
X0193887Y0147803D01*
X0194409Y0146541D01*
X0194476Y0145858D01*
X0194476Y0065307D01*
X0194476Y0065299D02*
X0190346Y0065299D01*
X0189348Y0064301D02*
X0194275Y0064301D01*
X0193827Y0063302D02*
X0109239Y0063302D01*
X0108646Y0063057D02*
X0109841Y0063552D01*
X0110755Y0064466D01*
X0111250Y0065660D01*
X0111250Y0066953D01*
X0111064Y0067401D01*
X0111870Y0068207D01*
X0113100Y0069437D01*
X0113100Y0070437D01*
X0115870Y0073207D01*
X0118370Y0073207D01*
X0119870Y0074707D01*
X0121100Y0075937D01*
X0121100Y0084057D01*
X0121146Y0084057D01*
X0122341Y0084552D01*
X0123255Y0085466D01*
X0123750Y0086660D01*
X0123750Y0087953D01*
X0123645Y0088207D01*
X0123870Y0088207D01*
X0124870Y0089207D01*
X0126100Y0090437D01*
X0126100Y0109177D01*
X0125250Y0110027D01*
X0125250Y0110953D01*
X0124755Y0112148D01*
X0123841Y0113062D01*
X0122646Y0113557D01*
X0121354Y0113557D01*
X0120159Y0113062D01*
X0119245Y0112148D01*
X0118750Y0110953D01*
X0118750Y0109660D01*
X0119245Y0108466D01*
X0120159Y0107552D01*
X0121354Y0107057D01*
X0121900Y0107057D01*
X0121900Y0092407D01*
X0113630Y0092407D01*
X0112130Y0090907D01*
X0110900Y0089677D01*
X0110900Y0086557D01*
X0110354Y0086557D01*
X0109159Y0086062D01*
X0108245Y0085148D01*
X0107750Y0083953D01*
X0107750Y0082660D01*
X0108245Y0081466D01*
X0109159Y0080552D01*
X0110354Y0080057D01*
X0111646Y0080057D01*
X0112841Y0080552D01*
X0113755Y0081466D01*
X0113900Y0081816D01*
X0113900Y0080803D01*
X0113245Y0080148D01*
X0112750Y0078953D01*
X0112750Y0077660D01*
X0113229Y0076505D01*
X0112900Y0076177D01*
X0111155Y0074432D01*
X0111250Y0074660D01*
X0111250Y0075953D01*
X0110755Y0077148D01*
X0109841Y0078062D01*
X0108646Y0078557D01*
X0107354Y0078557D01*
X0106905Y0078371D01*
X0102250Y0083027D01*
X0102250Y0083953D01*
X0101755Y0085148D01*
X0100841Y0086062D01*
X0099646Y0086557D01*
X0098354Y0086557D01*
X0097159Y0086062D01*
X0096245Y0085148D01*
X0095750Y0083953D01*
X0095750Y0082660D01*
X0096245Y0081466D01*
X0097159Y0080552D01*
X0098354Y0080057D01*
X0099280Y0080057D01*
X0104802Y0074535D01*
X0105245Y0073466D01*
X0106159Y0072552D01*
X0107354Y0072057D01*
X0108646Y0072057D01*
X0108900Y0072162D01*
X0108900Y0071177D01*
X0107228Y0069505D01*
X0106159Y0069062D01*
X0105245Y0068148D01*
X0104750Y0066953D01*
X0104750Y0065660D01*
X0105245Y0064466D01*
X0106159Y0063552D01*
X0107354Y0063057D01*
X0108646Y0063057D01*
X0106761Y0063302D02*
X0009150Y0063302D01*
X0008701Y0064301D02*
X0105410Y0064301D01*
X0104900Y0065299D02*
X0068132Y0065299D01*
X0068300Y0065467D02*
X0067421Y0064589D01*
X0057579Y0064589D01*
X0056700Y0065467D01*
X0056700Y0070910D01*
X0057579Y0071789D01*
X0067421Y0071789D01*
X0068300Y0070910D01*
X0068300Y0065467D01*
X0068300Y0066298D02*
X0104750Y0066298D01*
X0104892Y0067297D02*
X0068300Y0067297D01*
X0068300Y0068295D02*
X0105392Y0068295D01*
X0106718Y0069294D02*
X0068300Y0069294D01*
X0068300Y0070292D02*
X0108015Y0070292D01*
X0108900Y0071291D02*
X0067920Y0071291D01*
X0067421Y0072463D02*
X0068300Y0073341D01*
X0068300Y0078784D01*
X0067421Y0079663D01*
X0057579Y0079663D01*
X0056700Y0078784D01*
X0056700Y0073341D01*
X0057579Y0072463D01*
X0067421Y0072463D01*
X0068246Y0073288D02*
X0105423Y0073288D01*
X0104905Y0074286D02*
X0068300Y0074286D01*
X0068300Y0075285D02*
X0104052Y0075285D01*
X0103054Y0076283D02*
X0068300Y0076283D01*
X0068300Y0077282D02*
X0102055Y0077282D01*
X0101057Y0078280D02*
X0068300Y0078280D01*
X0067805Y0079279D02*
X0100058Y0079279D01*
X0097822Y0080277D02*
X0008500Y0080277D01*
X0008500Y0079279D02*
X0057194Y0079279D01*
X0056700Y0078280D02*
X0008500Y0078280D01*
X0008500Y0077282D02*
X0056700Y0077282D01*
X0056700Y0076283D02*
X0008500Y0076283D01*
X0008500Y0075285D02*
X0056700Y0075285D01*
X0056700Y0074286D02*
X0008500Y0074286D01*
X0008500Y0073288D02*
X0056754Y0073288D01*
X0057080Y0071291D02*
X0008500Y0071291D01*
X0008500Y0072289D02*
X0106793Y0072289D01*
X0111250Y0075285D02*
X0112008Y0075285D01*
X0111113Y0076283D02*
X0113006Y0076283D01*
X0112907Y0077282D02*
X0110621Y0077282D01*
X0109315Y0078280D02*
X0112750Y0078280D01*
X0112885Y0079279D02*
X0105998Y0079279D01*
X0105000Y0080277D02*
X0109822Y0080277D01*
X0108435Y0081276D02*
X0104001Y0081276D01*
X0103003Y0082274D02*
X0107910Y0082274D01*
X0107750Y0083273D02*
X0102250Y0083273D01*
X0102118Y0084271D02*
X0107882Y0084271D01*
X0108367Y0085270D02*
X0101633Y0085270D01*
X0100343Y0086268D02*
X0109657Y0086268D01*
X0110900Y0087267D02*
X0068193Y0087267D01*
X0068300Y0087160D02*
X0067421Y0088039D01*
X0057579Y0088039D01*
X0056700Y0087160D01*
X0056700Y0081717D01*
X0057579Y0080839D01*
X0067421Y0080839D01*
X0068300Y0081717D01*
X0068300Y0087160D01*
X0068300Y0086268D02*
X0097657Y0086268D01*
X0096367Y0085270D02*
X0068300Y0085270D01*
X0068300Y0084271D02*
X0095882Y0084271D01*
X0095750Y0083273D02*
X0068300Y0083273D01*
X0068300Y0082274D02*
X0095910Y0082274D01*
X0096435Y0081276D02*
X0067858Y0081276D01*
X0067421Y0089087D02*
X0057579Y0089087D01*
X0056700Y0089966D01*
X0056700Y0095408D01*
X0057579Y0096287D01*
X0067421Y0096287D01*
X0068300Y0095408D01*
X0068300Y0089966D01*
X0067421Y0089087D01*
X0067598Y0089264D02*
X0110900Y0089264D01*
X0110900Y0088265D02*
X0008500Y0088265D01*
X0008500Y0087267D02*
X0056807Y0087267D01*
X0056700Y0086268D02*
X0008500Y0086268D01*
X0008500Y0085270D02*
X0056700Y0085270D01*
X0056700Y0084271D02*
X0008500Y0084271D01*
X0008500Y0083273D02*
X0056700Y0083273D01*
X0056700Y0082274D02*
X0008500Y0082274D01*
X0008500Y0081276D02*
X0057142Y0081276D01*
X0057402Y0089264D02*
X0008500Y0089264D01*
X0008500Y0090262D02*
X0056700Y0090262D01*
X0056700Y0091261D02*
X0008500Y0091261D01*
X0008500Y0092259D02*
X0056700Y0092259D01*
X0056700Y0093258D02*
X0008500Y0093258D01*
X0008500Y0094256D02*
X0012977Y0094256D01*
X0012775Y0094359D02*
X0013504Y0093988D01*
X0014282Y0093735D01*
X0015000Y0093621D01*
X0015000Y0098307D01*
X0010314Y0098307D01*
X0010428Y0097589D01*
X0010681Y0096811D01*
X0011053Y0096082D01*
X0011534Y0095419D01*
X0012112Y0094841D01*
X0012775Y0094359D01*
X0011698Y0095255D02*
X0008500Y0095255D01*
X0008500Y0096253D02*
X0010965Y0096253D01*
X0010538Y0097252D02*
X0008500Y0097252D01*
X0008500Y0098250D02*
X0010323Y0098250D01*
X0010314Y0099307D02*
X0015000Y0099307D01*
X0015000Y0098307D01*
X0016000Y0098307D01*
X0016000Y0099307D01*
X0020686Y0099307D01*
X0020572Y0100025D01*
X0020319Y0100803D01*
X0019947Y0101532D01*
X0019466Y0102194D01*
X0018888Y0102773D01*
X0018225Y0103254D01*
X0017496Y0103626D01*
X0016983Y0103793D01*
X0018446Y0104399D01*
X0019908Y0105861D01*
X0020700Y0107773D01*
X0020700Y0109841D01*
X0019908Y0111752D01*
X0018446Y0113215D01*
X0016534Y0114007D01*
X0014466Y0114007D01*
X0012554Y0113215D01*
X0011092Y0111752D01*
X0010300Y0109841D01*
X0010300Y0107773D01*
X0011092Y0105861D01*
X0012554Y0104399D01*
X0014017Y0103793D01*
X0013504Y0103626D01*
X0012775Y0103254D01*
X0012112Y0102773D01*
X0011534Y0102194D01*
X0011053Y0101532D01*
X0010681Y0100803D01*
X0010428Y0100025D01*
X0010314Y0099307D01*
X0010500Y0100247D02*
X0008500Y0100247D01*
X0008500Y0099249D02*
X0015000Y0099249D01*
X0015000Y0098250D02*
X0016000Y0098250D01*
X0016000Y0098307D02*
X0016000Y0093621D01*
X0016718Y0093735D01*
X0017496Y0093988D01*
X0018225Y0094359D01*
X0018888Y0094841D01*
X0019466Y0095419D01*
X0019947Y0096082D01*
X0020319Y0096811D01*
X0020572Y0097589D01*
X0020686Y0098307D01*
X0016000Y0098307D01*
X0016000Y0099249D02*
X0056700Y0099249D01*
X0056700Y0098465D02*
X0057579Y0097586D01*
X0067421Y0097586D01*
X0068300Y0098465D01*
X0068300Y0103907D01*
X0067421Y0104786D01*
X0057579Y0104786D01*
X0056700Y0103907D01*
X0056700Y0098465D01*
X0056914Y0098250D02*
X0020677Y0098250D01*
X0020462Y0097252D02*
X0121900Y0097252D01*
X0121900Y0098250D02*
X0068086Y0098250D01*
X0068300Y0099249D02*
X0121900Y0099249D01*
X0121900Y0100247D02*
X0068300Y0100247D01*
X0068300Y0101246D02*
X0121900Y0101246D01*
X0121900Y0102244D02*
X0068300Y0102244D01*
X0068300Y0103243D02*
X0121900Y0103243D01*
X0121900Y0104241D02*
X0067966Y0104241D01*
X0067421Y0105460D02*
X0068300Y0106339D01*
X0068300Y0111781D01*
X0067421Y0112660D01*
X0057579Y0112660D01*
X0056700Y0111781D01*
X0056700Y0106339D01*
X0057579Y0105460D01*
X0067421Y0105460D01*
X0068200Y0106238D02*
X0121900Y0106238D01*
X0121900Y0105240D02*
X0019287Y0105240D01*
X0020065Y0106238D02*
X0056800Y0106238D01*
X0056700Y0107237D02*
X0020478Y0107237D01*
X0020700Y0108235D02*
X0056700Y0108235D01*
X0056700Y0109234D02*
X0020700Y0109234D01*
X0020538Y0110232D02*
X0056700Y0110232D01*
X0056700Y0111231D02*
X0020124Y0111231D01*
X0019431Y0112230D02*
X0057148Y0112230D01*
X0057579Y0113334D02*
X0067421Y0113334D01*
X0068300Y0114213D01*
X0068300Y0119655D01*
X0067421Y0120534D01*
X0057579Y0120534D01*
X0056700Y0119655D01*
X0056700Y0114213D01*
X0057579Y0113334D01*
X0056700Y0114227D02*
X0008500Y0114227D01*
X0008500Y0115225D02*
X0056700Y0115225D01*
X0056700Y0116224D02*
X0008500Y0116224D01*
X0008500Y0117222D02*
X0056700Y0117222D01*
X0056700Y0118221D02*
X0008500Y0118221D01*
X0008500Y0119219D02*
X0056700Y0119219D01*
X0057262Y0120218D02*
X0008500Y0120218D01*
X0008500Y0121216D02*
X0056945Y0121216D01*
X0056700Y0121462D02*
X0057579Y0120583D01*
X0067421Y0120583D01*
X0068300Y0121462D01*
X0068300Y0121683D01*
X0109088Y0121683D01*
X0111500Y0119271D01*
X0111500Y0112403D01*
X0111245Y0112148D01*
X0110750Y0110953D01*
X0110750Y0109660D01*
X0111245Y0108466D01*
X0112159Y0107552D01*
X0113354Y0107057D01*
X0114646Y0107057D01*
X0115841Y0107552D01*
X0116755Y0108466D01*
X0117250Y0109660D01*
X0117250Y0110953D01*
X0116755Y0112148D01*
X0116500Y0112403D01*
X0116500Y0120804D01*
X0116119Y0121723D01*
X0115416Y0122426D01*
X0111540Y0126302D01*
X0110621Y0126683D01*
X0068300Y0126683D01*
X0068300Y0126904D01*
X0067421Y0127783D01*
X0057579Y0127783D01*
X0056700Y0126904D01*
X0056700Y0121462D01*
X0056700Y0122215D02*
X0008500Y0122215D01*
X0008500Y0123213D02*
X0056700Y0123213D01*
X0056700Y0124212D02*
X0008500Y0124212D01*
X0008500Y0125210D02*
X0056700Y0125210D01*
X0056700Y0126209D02*
X0008500Y0126209D01*
X0008500Y0127207D02*
X0014086Y0127207D01*
X0013304Y0127531D02*
X0015702Y0126538D01*
X0018298Y0126538D01*
X0020696Y0127531D01*
X0022532Y0129367D01*
X0023525Y0131765D01*
X0023525Y0134361D01*
X0022532Y0136759D01*
X0020696Y0138594D01*
X0018298Y0139588D01*
X0015702Y0139588D01*
X0013304Y0138594D01*
X0011468Y0136759D01*
X0010475Y0134361D01*
X0010475Y0131765D01*
X0011468Y0129367D01*
X0013304Y0127531D01*
X0012629Y0128206D02*
X0008500Y0128206D01*
X0008500Y0129204D02*
X0011631Y0129204D01*
X0011122Y0130203D02*
X0008500Y0130203D01*
X0008500Y0131201D02*
X0010708Y0131201D01*
X0010475Y0132200D02*
X0008500Y0132200D01*
X0008500Y0133198D02*
X0010475Y0133198D01*
X0010475Y0134197D02*
X0008500Y0134197D01*
X0008500Y0135195D02*
X0010821Y0135195D01*
X0011234Y0136194D02*
X0008500Y0136194D01*
X0008500Y0137192D02*
X0011902Y0137192D01*
X0012900Y0138191D02*
X0008500Y0138191D01*
X0008500Y0139189D02*
X0014740Y0139189D01*
X0019260Y0139189D02*
X0044740Y0139189D01*
X0045702Y0139588D02*
X0043304Y0138594D01*
X0041468Y0136759D01*
X0040475Y0134361D01*
X0040475Y0131765D01*
X0041468Y0129367D01*
X0043304Y0127531D01*
X0045702Y0126538D01*
X0048298Y0126538D01*
X0050696Y0127531D01*
X0052532Y0129367D01*
X0053525Y0131765D01*
X0053525Y0134361D01*
X0052532Y0136759D01*
X0050696Y0138594D01*
X0048298Y0139588D01*
X0045702Y0139588D01*
X0042900Y0138191D02*
X0021100Y0138191D01*
X0022098Y0137192D02*
X0041902Y0137192D01*
X0041234Y0136194D02*
X0022766Y0136194D01*
X0023179Y0135195D02*
X0040821Y0135195D01*
X0040475Y0134197D02*
X0023525Y0134197D01*
X0023525Y0133198D02*
X0040475Y0133198D01*
X0040475Y0132200D02*
X0023525Y0132200D01*
X0023291Y0131201D02*
X0040708Y0131201D01*
X0041122Y0130203D02*
X0022878Y0130203D01*
X0022369Y0129204D02*
X0041631Y0129204D01*
X0042629Y0128206D02*
X0021371Y0128206D01*
X0019914Y0127207D02*
X0044086Y0127207D01*
X0049914Y0127207D02*
X0057003Y0127207D01*
X0052369Y0129204D02*
X0151631Y0129204D01*
X0151468Y0129367D02*
X0153304Y0127531D01*
X0155702Y0126538D01*
X0158298Y0126538D01*
X0160696Y0127531D01*
X0162532Y0129367D01*
X0163525Y0131765D01*
X0163525Y0134361D01*
X0162532Y0136759D01*
X0160696Y0138594D01*
X0158298Y0139588D01*
X0155702Y0139588D01*
X0153304Y0138594D01*
X0151468Y0136759D01*
X0150475Y0134361D01*
X0150475Y0131765D01*
X0151468Y0129367D01*
X0151122Y0130203D02*
X0052878Y0130203D01*
X0053291Y0131201D02*
X0150708Y0131201D01*
X0150475Y0132200D02*
X0053525Y0132200D01*
X0053525Y0133198D02*
X0150475Y0133198D01*
X0150475Y0134197D02*
X0053525Y0134197D01*
X0053179Y0135195D02*
X0150821Y0135195D01*
X0151234Y0136194D02*
X0052766Y0136194D01*
X0052098Y0137192D02*
X0151902Y0137192D01*
X0152900Y0138191D02*
X0051100Y0138191D01*
X0049260Y0139189D02*
X0154740Y0139189D01*
X0159260Y0139189D02*
X0184740Y0139189D01*
X0184898Y0139255D02*
X0184108Y0138927D01*
X0183367Y0138500D01*
X0182689Y0137979D01*
X0182084Y0137374D01*
X0181563Y0136696D01*
X0181135Y0135955D01*
X0180808Y0135165D01*
X0180587Y0134339D01*
X0180485Y0133563D01*
X0186500Y0133563D01*
X0186500Y0139578D01*
X0185724Y0139476D01*
X0184898Y0139255D01*
X0186500Y0139189D02*
X0187500Y0139189D01*
X0187500Y0139578D02*
X0188276Y0139476D01*
X0189102Y0139255D01*
X0189892Y0138927D01*
X0190633Y0138500D01*
X0191311Y0137979D01*
X0191916Y0137374D01*
X0192437Y0136696D01*
X0192865Y0135955D01*
X0193192Y0135165D01*
X0193413Y0134339D01*
X0193515Y0133563D01*
X0187500Y0133563D01*
X0186500Y0133563D01*
X0186500Y0132563D01*
X0180485Y0132563D01*
X0180587Y0131787D01*
X0180808Y0130961D01*
X0181135Y0130171D01*
X0181563Y0129430D01*
X0182084Y0128751D01*
X0182689Y0128147D01*
X0183367Y0127626D01*
X0184108Y0127198D01*
X0184898Y0126871D01*
X0185724Y0126649D01*
X0186500Y0126547D01*
X0186500Y0132563D01*
X0187500Y0132563D01*
X0187500Y0133563D01*
X0187500Y0139578D01*
X0187500Y0138191D02*
X0186500Y0138191D01*
X0186500Y0137192D02*
X0187500Y0137192D01*
X0187500Y0136194D02*
X0186500Y0136194D01*
X0186500Y0135195D02*
X0187500Y0135195D01*
X0187500Y0134197D02*
X0186500Y0134197D01*
X0186500Y0133198D02*
X0163525Y0133198D01*
X0163525Y0132200D02*
X0180532Y0132200D01*
X0180744Y0131201D02*
X0163291Y0131201D01*
X0162878Y0130203D02*
X0181122Y0130203D01*
X0181736Y0129204D02*
X0162369Y0129204D01*
X0161371Y0128206D02*
X0182629Y0128206D01*
X0184092Y0127207D02*
X0159914Y0127207D01*
X0154086Y0127207D02*
X0145364Y0127207D01*
X0145367Y0127204D02*
X0145088Y0127483D01*
X0144746Y0127681D01*
X0144365Y0127783D01*
X0140367Y0127783D01*
X0140367Y0124683D01*
X0139367Y0124683D01*
X0139367Y0123683D01*
X0134067Y0123683D01*
X0134067Y0121885D01*
X0134169Y0121504D01*
X0134367Y0121162D01*
X0134646Y0120883D01*
X0134988Y0120685D01*
X0135370Y0120583D01*
X0139139Y0120583D01*
X0139020Y0120534D01*
X0134946Y0120534D01*
X0134067Y0119655D01*
X0134067Y0114213D01*
X0134946Y0113334D01*
X0139020Y0113334D01*
X0139141Y0113284D01*
X0176649Y0113284D01*
X0177654Y0113218D01*
X0179596Y0112698D01*
X0181337Y0111692D01*
X0182759Y0110271D01*
X0183701Y0108638D01*
X0183592Y0108528D01*
X0182800Y0106617D01*
X0182800Y0104548D01*
X0183592Y0102637D01*
X0185054Y0101174D01*
X0186966Y0100383D01*
X0189034Y0100383D01*
X0190946Y0101174D01*
X0192408Y0102637D01*
X0193200Y0104548D01*
X0193200Y0106617D01*
X0192408Y0108528D01*
X0191017Y0109919D01*
X0190628Y0111373D01*
X0188653Y0114794D01*
X0185860Y0117587D01*
X0182439Y0119562D01*
X0178624Y0120584D01*
X0144368Y0120584D01*
X0144746Y0120685D01*
X0145088Y0120883D01*
X0145367Y0121162D01*
X0145565Y0121504D01*
X0145667Y0121885D01*
X0145667Y0123683D01*
X0140367Y0123683D01*
X0140367Y0124683D01*
X0145667Y0124683D01*
X0145667Y0126480D01*
X0145565Y0126862D01*
X0145367Y0127204D01*
X0145667Y0126209D02*
X0194476Y0126209D01*
X0194476Y0127207D02*
X0189908Y0127207D01*
X0189892Y0127198D02*
X0190633Y0127626D01*
X0191311Y0128147D01*
X0191916Y0128751D01*
X0192437Y0129430D01*
X0192865Y0130171D01*
X0193192Y0130961D01*
X0193413Y0131787D01*
X0193515Y0132563D01*
X0187500Y0132563D01*
X0187500Y0126547D01*
X0188276Y0126649D01*
X0189102Y0126871D01*
X0189892Y0127198D01*
X0191371Y0128206D02*
X0194476Y0128206D01*
X0194476Y0129204D02*
X0192264Y0129204D01*
X0192878Y0130203D02*
X0194476Y0130203D01*
X0194476Y0131201D02*
X0193256Y0131201D01*
X0193468Y0132200D02*
X0194476Y0132200D01*
X0194476Y0133198D02*
X0187500Y0133198D01*
X0187500Y0132200D02*
X0186500Y0132200D01*
X0186500Y0131201D02*
X0187500Y0131201D01*
X0187500Y0130203D02*
X0186500Y0130203D01*
X0186500Y0129204D02*
X0187500Y0129204D01*
X0187500Y0128206D02*
X0186500Y0128206D01*
X0186500Y0127207D02*
X0187500Y0127207D01*
X0194476Y0125210D02*
X0145667Y0125210D01*
X0145667Y0123213D02*
X0194476Y0123213D01*
X0194476Y0122215D02*
X0145667Y0122215D01*
X0145399Y0121216D02*
X0194476Y0121216D01*
X0194476Y0120218D02*
X0179991Y0120218D01*
X0182439Y0119562D02*
X0182439Y0119562D01*
X0183032Y0119219D02*
X0194476Y0119219D01*
X0194476Y0118221D02*
X0184762Y0118221D01*
X0185860Y0117587D02*
X0185860Y0117587D01*
X0186224Y0117222D02*
X0194476Y0117222D01*
X0194476Y0116224D02*
X0187223Y0116224D01*
X0188221Y0115225D02*
X0194476Y0115225D01*
X0194476Y0114227D02*
X0188980Y0114227D01*
X0188653Y0114794D02*
X0188653Y0114794D01*
X0189557Y0113228D02*
X0194476Y0113228D01*
X0194476Y0112230D02*
X0190133Y0112230D01*
X0190628Y0111373D02*
X0190628Y0111373D01*
X0190666Y0111231D02*
X0194476Y0111231D01*
X0194476Y0110232D02*
X0190933Y0110232D01*
X0191702Y0109234D02*
X0194476Y0109234D01*
X0194476Y0108235D02*
X0192530Y0108235D01*
X0192943Y0107237D02*
X0194476Y0107237D01*
X0194476Y0106238D02*
X0193200Y0106238D01*
X0193200Y0105240D02*
X0194476Y0105240D01*
X0194476Y0104241D02*
X0193073Y0104241D01*
X0192659Y0103243D02*
X0194476Y0103243D01*
X0194476Y0102244D02*
X0192016Y0102244D01*
X0191017Y0101246D02*
X0194476Y0101246D01*
X0194476Y0100247D02*
X0175205Y0100247D01*
X0174966Y0099919D02*
X0175447Y0100582D01*
X0175819Y0101311D01*
X0176072Y0102089D01*
X0176200Y0102898D01*
X0176200Y0103007D01*
X0171300Y0103007D01*
X0171300Y0098107D01*
X0171409Y0098107D01*
X0172218Y0098235D01*
X0172996Y0098488D01*
X0173725Y0098859D01*
X0174388Y0099341D01*
X0174966Y0099919D01*
X0174261Y0099249D02*
X0194476Y0099249D01*
X0194476Y0098250D02*
X0172265Y0098250D01*
X0171300Y0098250D02*
X0170700Y0098250D01*
X0169735Y0098250D02*
X0162381Y0098250D01*
X0164296Y0099249D02*
X0167739Y0099249D01*
X0166795Y0100247D02*
X0165294Y0100247D01*
X0165775Y0101246D02*
X0166214Y0101246D01*
X0166160Y0105240D02*
X0165828Y0105240D01*
X0165414Y0106238D02*
X0166702Y0106238D01*
X0167576Y0107237D02*
X0164424Y0107237D01*
X0162690Y0108235D02*
X0169341Y0108235D01*
X0170700Y0108235D02*
X0171300Y0108235D01*
X0171300Y0108507D02*
X0171300Y0103607D01*
X0176200Y0103607D01*
X0176200Y0103716D01*
X0176072Y0104525D01*
X0175819Y0105303D01*
X0175447Y0106032D01*
X0174966Y0106694D01*
X0174388Y0107273D01*
X0173725Y0107754D01*
X0172996Y0108126D01*
X0172218Y0108379D01*
X0171409Y0108507D01*
X0171300Y0108507D01*
X0171300Y0107237D02*
X0170700Y0107237D01*
X0170700Y0106238D02*
X0171300Y0106238D01*
X0171300Y0105240D02*
X0170700Y0105240D01*
X0170700Y0104241D02*
X0171300Y0104241D01*
X0171300Y0103243D02*
X0183341Y0103243D01*
X0182927Y0104241D02*
X0176117Y0104241D01*
X0175840Y0105240D02*
X0182800Y0105240D01*
X0182800Y0106238D02*
X0175298Y0106238D01*
X0174424Y0107237D02*
X0183057Y0107237D01*
X0183470Y0108235D02*
X0172659Y0108235D01*
X0171300Y0102244D02*
X0170700Y0102244D01*
X0170700Y0101246D02*
X0171300Y0101246D01*
X0171300Y0100247D02*
X0170700Y0100247D01*
X0170700Y0099249D02*
X0171300Y0099249D01*
X0175786Y0101246D02*
X0184983Y0101246D01*
X0183984Y0102244D02*
X0176097Y0102244D01*
X0183357Y0109234D02*
X0140367Y0109234D01*
X0140367Y0109560D02*
X0145667Y0109560D01*
X0145667Y0111357D01*
X0145565Y0111739D01*
X0145367Y0112081D01*
X0145088Y0112360D01*
X0144746Y0112558D01*
X0144365Y0112660D01*
X0140367Y0112660D01*
X0140367Y0109560D01*
X0139367Y0109560D01*
X0139367Y0112660D01*
X0135370Y0112660D01*
X0134988Y0112558D01*
X0134646Y0112360D01*
X0134367Y0112081D01*
X0134169Y0111739D01*
X0134067Y0111357D01*
X0134067Y0109560D01*
X0139367Y0109560D01*
X0139367Y0108560D01*
X0134067Y0108560D01*
X0134067Y0106762D01*
X0134169Y0106381D01*
X0134367Y0106039D01*
X0134646Y0105760D01*
X0134988Y0105562D01*
X0135370Y0105460D01*
X0139367Y0105460D01*
X0139367Y0108560D01*
X0140367Y0108560D01*
X0140367Y0109560D01*
X0140367Y0110232D02*
X0139367Y0110232D01*
X0139367Y0109234D02*
X0126043Y0109234D01*
X0126100Y0108235D02*
X0134067Y0108235D01*
X0134067Y0107237D02*
X0126100Y0107237D01*
X0126100Y0106238D02*
X0134252Y0106238D01*
X0134067Y0103243D02*
X0126100Y0103243D01*
X0126100Y0104241D02*
X0145800Y0104241D01*
X0145800Y0103243D02*
X0145667Y0103243D01*
X0145667Y0102244D02*
X0145812Y0102244D01*
X0146031Y0101246D02*
X0146225Y0101246D01*
X0146172Y0105240D02*
X0126100Y0105240D01*
X0126100Y0102244D02*
X0134067Y0102244D01*
X0134067Y0101246D02*
X0126100Y0101246D01*
X0126100Y0100247D02*
X0134067Y0100247D01*
X0134067Y0099249D02*
X0126100Y0099249D01*
X0126100Y0098250D02*
X0134067Y0098250D01*
X0134655Y0097252D02*
X0126100Y0097252D01*
X0126100Y0096253D02*
X0134912Y0096253D01*
X0134067Y0095255D02*
X0126100Y0095255D01*
X0126100Y0094256D02*
X0134067Y0094256D01*
X0134067Y0093258D02*
X0126100Y0093258D01*
X0126100Y0092259D02*
X0134067Y0092259D01*
X0134067Y0091261D02*
X0126100Y0091261D01*
X0125925Y0090262D02*
X0134067Y0090262D01*
X0134769Y0089264D02*
X0124927Y0089264D01*
X0123928Y0088265D02*
X0134798Y0088265D01*
X0134067Y0087267D02*
X0123750Y0087267D01*
X0123588Y0086268D02*
X0134067Y0086268D01*
X0134067Y0085270D02*
X0123059Y0085270D01*
X0121664Y0084271D02*
X0134067Y0084271D01*
X0134067Y0083273D02*
X0121100Y0083273D01*
X0121100Y0082274D02*
X0134067Y0082274D01*
X0134883Y0081276D02*
X0121100Y0081276D01*
X0121100Y0080277D02*
X0154374Y0080277D01*
X0153885Y0079279D02*
X0145424Y0079279D01*
X0144851Y0081276D02*
X0148061Y0081276D01*
X0147063Y0082274D02*
X0145667Y0082274D01*
X0145362Y0073288D02*
X0151000Y0073288D01*
X0151174Y0072289D02*
X0114952Y0072289D01*
X0113953Y0071291D02*
X0134699Y0071291D01*
X0134946Y0071538D02*
X0134067Y0070659D01*
X0134067Y0065216D01*
X0134946Y0064338D01*
X0144788Y0064338D01*
X0145667Y0065216D01*
X0145667Y0070659D01*
X0144788Y0071538D01*
X0134946Y0071538D01*
X0134067Y0070292D02*
X0113100Y0070292D01*
X0112956Y0069294D02*
X0134067Y0069294D01*
X0134067Y0068295D02*
X0111958Y0068295D01*
X0111108Y0067297D02*
X0134067Y0067297D01*
X0134067Y0066298D02*
X0111250Y0066298D01*
X0111100Y0065299D02*
X0134067Y0065299D01*
X0134372Y0073288D02*
X0118450Y0073288D01*
X0119449Y0074286D02*
X0134067Y0074286D01*
X0134067Y0075285D02*
X0120448Y0075285D01*
X0121100Y0076283D02*
X0134067Y0076283D01*
X0134067Y0077282D02*
X0121100Y0077282D01*
X0121100Y0078280D02*
X0134067Y0078280D01*
X0134311Y0079279D02*
X0121100Y0079279D01*
X0113900Y0081276D02*
X0113565Y0081276D01*
X0113374Y0080277D02*
X0112178Y0080277D01*
X0111485Y0090262D02*
X0068300Y0090262D01*
X0068300Y0091261D02*
X0112484Y0091261D01*
X0113483Y0092259D02*
X0068300Y0092259D01*
X0068300Y0093258D02*
X0121900Y0093258D01*
X0121900Y0094256D02*
X0068300Y0094256D01*
X0068300Y0095255D02*
X0121900Y0095255D01*
X0121900Y0096253D02*
X0067455Y0096253D01*
X0057545Y0096253D02*
X0020035Y0096253D01*
X0019302Y0095255D02*
X0056700Y0095255D01*
X0056700Y0094256D02*
X0018023Y0094256D01*
X0016000Y0094256D02*
X0015000Y0094256D01*
X0015000Y0095255D02*
X0016000Y0095255D01*
X0016000Y0096253D02*
X0015000Y0096253D01*
X0015000Y0097252D02*
X0016000Y0097252D01*
X0020500Y0100247D02*
X0056700Y0100247D01*
X0056700Y0101246D02*
X0020093Y0101246D01*
X0019416Y0102244D02*
X0056700Y0102244D01*
X0056700Y0103243D02*
X0018241Y0103243D01*
X0018066Y0104241D02*
X0057034Y0104241D01*
X0068300Y0107237D02*
X0112919Y0107237D01*
X0111475Y0108235D02*
X0068300Y0108235D01*
X0068300Y0109234D02*
X0110927Y0109234D01*
X0110750Y0110232D02*
X0068300Y0110232D01*
X0068300Y0111231D02*
X0110865Y0111231D01*
X0111326Y0112230D02*
X0067852Y0112230D01*
X0068300Y0114227D02*
X0111500Y0114227D01*
X0111500Y0115225D02*
X0068300Y0115225D01*
X0068300Y0116224D02*
X0111500Y0116224D01*
X0111500Y0117222D02*
X0068300Y0117222D01*
X0068300Y0118221D02*
X0111500Y0118221D01*
X0111500Y0119219D02*
X0068300Y0119219D01*
X0067738Y0120218D02*
X0110554Y0120218D01*
X0109555Y0121216D02*
X0068055Y0121216D01*
X0067997Y0127207D02*
X0134370Y0127207D01*
X0134367Y0127204D02*
X0134169Y0126862D01*
X0134067Y0126480D01*
X0134067Y0124683D01*
X0139367Y0124683D01*
X0139367Y0127783D01*
X0135370Y0127783D01*
X0134988Y0127681D01*
X0134646Y0127483D01*
X0134367Y0127204D01*
X0134067Y0126209D02*
X0111634Y0126209D01*
X0112632Y0125210D02*
X0134067Y0125210D01*
X0134067Y0123213D02*
X0114629Y0123213D01*
X0113631Y0124212D02*
X0139367Y0124212D01*
X0139367Y0125210D02*
X0140367Y0125210D01*
X0140367Y0124212D02*
X0194476Y0124212D01*
X0194476Y0134197D02*
X0193432Y0134197D01*
X0193179Y0135195D02*
X0194476Y0135195D01*
X0194476Y0136194D02*
X0192727Y0136194D01*
X0192056Y0137192D02*
X0194476Y0137192D01*
X0194476Y0138191D02*
X0191036Y0138191D01*
X0189260Y0139189D02*
X0194476Y0139189D01*
X0194476Y0140188D02*
X0008500Y0140188D01*
X0008500Y0141186D02*
X0194476Y0141186D01*
X0194476Y0142185D02*
X0008500Y0142185D01*
X0008500Y0143183D02*
X0194476Y0143183D01*
X0194476Y0144182D02*
X0008500Y0144182D01*
X0008500Y0145180D02*
X0194476Y0145180D01*
X0194445Y0146179D02*
X0008532Y0146179D01*
X0008831Y0147177D02*
X0194145Y0147177D01*
X0193513Y0148176D02*
X0009463Y0148176D01*
X0011036Y0149174D02*
X0191940Y0149174D01*
X0182964Y0138191D02*
X0161100Y0138191D01*
X0162098Y0137192D02*
X0181944Y0137192D01*
X0181273Y0136194D02*
X0162766Y0136194D01*
X0163179Y0135195D02*
X0180821Y0135195D01*
X0180568Y0134197D02*
X0163525Y0134197D01*
X0152629Y0128206D02*
X0051371Y0128206D01*
X0018415Y0113228D02*
X0111500Y0113228D01*
X0116500Y0113228D02*
X0120560Y0113228D01*
X0119326Y0112230D02*
X0116674Y0112230D01*
X0117135Y0111231D02*
X0118865Y0111231D01*
X0118750Y0110232D02*
X0117250Y0110232D01*
X0117073Y0109234D02*
X0118927Y0109234D01*
X0119475Y0108235D02*
X0116525Y0108235D01*
X0115081Y0107237D02*
X0120919Y0107237D01*
X0125250Y0110232D02*
X0134067Y0110232D01*
X0134067Y0111231D02*
X0125135Y0111231D01*
X0124674Y0112230D02*
X0134515Y0112230D01*
X0134067Y0114227D02*
X0116500Y0114227D01*
X0116500Y0115225D02*
X0134067Y0115225D01*
X0134067Y0116224D02*
X0116500Y0116224D01*
X0116500Y0117222D02*
X0134067Y0117222D01*
X0134067Y0118221D02*
X0116500Y0118221D01*
X0116500Y0119219D02*
X0134067Y0119219D01*
X0134630Y0120218D02*
X0116500Y0120218D01*
X0116329Y0121216D02*
X0134336Y0121216D01*
X0134067Y0122215D02*
X0115628Y0122215D01*
X0123440Y0113228D02*
X0177501Y0113228D01*
X0180407Y0112230D02*
X0145219Y0112230D01*
X0145667Y0111231D02*
X0181798Y0111231D01*
X0182781Y0110232D02*
X0145667Y0110232D01*
X0145667Y0108560D02*
X0140367Y0108560D01*
X0140367Y0105460D01*
X0144365Y0105460D01*
X0144746Y0105562D01*
X0145088Y0105760D01*
X0145367Y0106039D01*
X0145565Y0106381D01*
X0145667Y0106762D01*
X0145667Y0108560D01*
X0145667Y0108235D02*
X0149310Y0108235D01*
X0147576Y0107237D02*
X0145667Y0107237D01*
X0145483Y0106238D02*
X0146586Y0106238D01*
X0140367Y0106238D02*
X0139367Y0106238D01*
X0139367Y0107237D02*
X0140367Y0107237D01*
X0140367Y0108235D02*
X0139367Y0108235D01*
X0139367Y0111231D02*
X0140367Y0111231D01*
X0140367Y0112230D02*
X0139367Y0112230D01*
X0152690Y0108235D02*
X0159310Y0108235D01*
X0157576Y0107237D02*
X0154424Y0107237D01*
X0155414Y0106238D02*
X0156586Y0106238D01*
X0156172Y0105240D02*
X0155828Y0105240D01*
X0155775Y0101246D02*
X0156225Y0101246D01*
X0156706Y0100247D02*
X0155294Y0100247D01*
X0154296Y0099249D02*
X0157704Y0099249D01*
X0159619Y0098250D02*
X0152381Y0098250D01*
X0150025Y0097252D02*
X0194476Y0097252D01*
X0194476Y0096253D02*
X0150100Y0096253D01*
X0150100Y0095255D02*
X0194476Y0095255D01*
X0194476Y0094256D02*
X0150100Y0094256D01*
X0150100Y0093258D02*
X0194476Y0093258D01*
X0194476Y0092259D02*
X0150100Y0092259D01*
X0150100Y0091261D02*
X0179292Y0091261D01*
X0180708Y0091261D02*
X0184292Y0091261D01*
X0185708Y0091261D02*
X0194476Y0091261D01*
X0194476Y0090262D02*
X0187287Y0090262D01*
X0187851Y0089264D02*
X0194476Y0089264D01*
X0194476Y0088265D02*
X0188000Y0088265D01*
X0187816Y0087267D02*
X0194476Y0087267D01*
X0182713Y0090262D02*
X0182287Y0090262D01*
X0177713Y0090262D02*
X0151014Y0090262D01*
X0145900Y0093258D02*
X0145667Y0093258D01*
X0145667Y0094256D02*
X0145900Y0094256D01*
X0145900Y0095255D02*
X0145667Y0095255D01*
X0145084Y0096253D02*
X0144822Y0096253D01*
X0149026Y0098250D02*
X0149619Y0098250D01*
X0171013Y0089264D02*
X0177149Y0089264D01*
X0177000Y0088265D02*
X0172012Y0088265D01*
X0173010Y0087267D02*
X0177184Y0087267D01*
X0177796Y0086268D02*
X0174009Y0086268D01*
X0162049Y0073288D02*
X0161950Y0073288D01*
X0162628Y0072289D02*
X0160952Y0072289D01*
X0160226Y0071291D02*
X0161800Y0071291D01*
X0161800Y0070292D02*
X0145667Y0070292D01*
X0145667Y0069294D02*
X0166500Y0069294D01*
X0166500Y0068295D02*
X0167500Y0068295D01*
X0167500Y0067297D02*
X0166500Y0067297D01*
X0166500Y0066298D02*
X0167500Y0066298D01*
X0167500Y0065299D02*
X0166500Y0065299D01*
X0166500Y0064301D02*
X0167500Y0064301D01*
X0169348Y0064301D02*
X0184652Y0064301D01*
X0183654Y0065299D02*
X0179346Y0065299D01*
X0180345Y0066298D02*
X0182655Y0066298D01*
X0181800Y0067297D02*
X0181343Y0067297D01*
X0174654Y0065299D02*
X0170346Y0065299D01*
X0171345Y0066298D02*
X0173655Y0066298D01*
X0172657Y0067297D02*
X0172200Y0067297D01*
X0164652Y0064301D02*
X0110590Y0064301D01*
X0145036Y0071291D02*
X0151774Y0071291D01*
X0145667Y0068295D02*
X0161800Y0068295D01*
X0161800Y0067297D02*
X0145667Y0067297D01*
X0145667Y0066298D02*
X0162655Y0066298D01*
X0163654Y0065299D02*
X0145667Y0065299D01*
X0192697Y0062304D02*
X0010280Y0062304D01*
X0008501Y0065299D02*
X0056868Y0065299D01*
X0056700Y0066298D02*
X0008500Y0066298D01*
X0008500Y0067297D02*
X0056700Y0067297D01*
X0056700Y0068295D02*
X0008500Y0068295D01*
X0008500Y0069294D02*
X0056700Y0069294D01*
X0056700Y0070292D02*
X0008500Y0070292D01*
X0008500Y0101246D02*
X0010907Y0101246D01*
X0011584Y0102244D02*
X0008500Y0102244D01*
X0008500Y0103243D02*
X0012759Y0103243D01*
X0012934Y0104241D02*
X0008500Y0104241D01*
X0008500Y0105240D02*
X0011713Y0105240D01*
X0010935Y0106238D02*
X0008500Y0106238D01*
X0008500Y0107237D02*
X0010522Y0107237D01*
X0010300Y0108235D02*
X0008500Y0108235D01*
X0008500Y0109234D02*
X0010300Y0109234D01*
X0010462Y0110232D02*
X0008500Y0110232D01*
X0008500Y0111231D02*
X0010876Y0111231D01*
X0011569Y0112230D02*
X0008500Y0112230D01*
X0008500Y0113228D02*
X0012585Y0113228D01*
X0139367Y0126209D02*
X0140367Y0126209D01*
X0140367Y0127207D02*
X0139367Y0127207D01*
D17*
X0148000Y0122307D03*
X0156000Y0122307D03*
X0164000Y0122307D03*
X0172000Y0122307D03*
X0181000Y0122307D03*
X0188000Y0118307D03*
X0192000Y0112307D03*
X0180000Y0110307D03*
X0172000Y0111307D03*
X0164000Y0111307D03*
X0156000Y0111307D03*
X0148000Y0111307D03*
X0156000Y0098307D03*
X0159000Y0091307D03*
X0173000Y0090307D03*
X0157000Y0078307D03*
X0182000Y0063307D03*
X0192000Y0087307D03*
X0129500Y0070307D03*
X0116000Y0078307D03*
X0111000Y0083307D03*
X0116000Y0087307D03*
X0120500Y0087307D03*
X0117000Y0093307D03*
X0112500Y0104807D03*
X0114000Y0110307D03*
X0122000Y0110307D03*
X0119000Y0118307D03*
X0109000Y0118307D03*
X0098000Y0096307D03*
X0086000Y0096307D03*
X0073000Y0084307D03*
X0079000Y0069307D03*
X0064000Y0063307D03*
X0050000Y0063307D03*
X0040000Y0072307D03*
X0024000Y0075307D03*
X0019000Y0086307D03*
X0030500Y0086807D03*
X0048000Y0106307D03*
X0054000Y0114307D03*
X0076000Y0111307D03*
X0099000Y0083307D03*
X0108000Y0075307D03*
X0106500Y0070807D03*
X0108000Y0066307D03*
X0102000Y0063307D03*
X0013000Y0121307D03*
D18*
X0062500Y0124183D02*
X0099124Y0124183D01*
X0110124Y0124183D01*
X0114000Y0120307D01*
X0114000Y0110307D01*
D19*
X0122000Y0110307D02*
X0124000Y0108307D01*
X0124000Y0102807D01*
X0124000Y0091307D01*
X0123000Y0090307D01*
X0114500Y0090307D01*
X0113000Y0088807D01*
X0113000Y0085307D01*
X0111000Y0083307D01*
X0116000Y0087307D02*
X0116000Y0078307D01*
X0119000Y0076807D02*
X0119000Y0085807D01*
X0120500Y0087307D01*
X0119000Y0076807D02*
X0117500Y0075307D01*
X0115000Y0075307D01*
X0111000Y0071307D01*
X0111000Y0070307D01*
X0108000Y0067307D01*
X0108000Y0066307D01*
X0108000Y0075307D02*
X0107000Y0075307D01*
X0099000Y0083307D01*
X0139867Y0084813D02*
X0147494Y0084813D01*
X0149000Y0083307D01*
X0159000Y0083307D01*
X0162000Y0080307D01*
X0162000Y0076307D01*
X0159000Y0073307D01*
X0158000Y0073307D01*
X0154007Y0073307D02*
X0154007Y0076307D01*
X0154000Y0076314D01*
X0155007Y0076314D01*
X0157000Y0078307D01*
X0154000Y0076314D02*
X0139867Y0076314D01*
X0139867Y0084813D02*
X0141494Y0084813D01*
X0142620Y0092687D02*
X0150000Y0085307D01*
X0168000Y0085307D01*
X0172000Y0081307D01*
X0172000Y0080307D01*
X0172000Y0078307D01*
X0175000Y0075307D01*
X0183000Y0075307D01*
X0187000Y0079307D01*
X0185000Y0081307D01*
X0185000Y0088307D01*
X0180000Y0088307D02*
X0180000Y0083307D01*
X0177000Y0080307D01*
X0170000Y0087307D01*
X0151000Y0087307D01*
X0148000Y0090307D01*
X0148000Y0096307D01*
X0143746Y0100561D01*
X0139867Y0100561D01*
X0139867Y0092687D02*
X0142620Y0092687D01*
X0162000Y0076307D02*
X0164000Y0074307D01*
X0173000Y0074307D01*
X0177000Y0070307D01*
X0154007Y0073307D02*
X0154000Y0073307D01*
D20*
X0188000Y0105583D02*
X0187997Y0105857D01*
X0187987Y0106131D01*
X0187970Y0106405D01*
X0187947Y0106679D01*
X0187917Y0106951D01*
X0187881Y0107223D01*
X0187838Y0107494D01*
X0187789Y0107764D01*
X0187733Y0108032D01*
X0187670Y0108299D01*
X0187601Y0108565D01*
X0187526Y0108829D01*
X0187444Y0109091D01*
X0187357Y0109350D01*
X0187262Y0109608D01*
X0187162Y0109863D01*
X0187056Y0110116D01*
X0186943Y0110366D01*
X0186824Y0110614D01*
X0186700Y0110858D01*
X0186569Y0111099D01*
X0186433Y0111338D01*
X0186291Y0111572D01*
X0186144Y0111803D01*
X0185991Y0112031D01*
X0185832Y0112255D01*
X0185668Y0112475D01*
X0185499Y0112691D01*
X0185325Y0112903D01*
X0185145Y0113110D01*
X0184961Y0113313D01*
X0184772Y0113512D01*
X0184578Y0113706D01*
X0184379Y0113895D01*
X0184176Y0114079D01*
X0183969Y0114259D01*
X0183757Y0114433D01*
X0183541Y0114602D01*
X0183321Y0114766D01*
X0183097Y0114925D01*
X0182869Y0115078D01*
X0182638Y0115225D01*
X0182404Y0115367D01*
X0182165Y0115503D01*
X0181924Y0115634D01*
X0181680Y0115758D01*
X0181432Y0115877D01*
X0181182Y0115990D01*
X0180929Y0116096D01*
X0180674Y0116196D01*
X0180416Y0116291D01*
X0180157Y0116378D01*
X0179895Y0116460D01*
X0179631Y0116535D01*
X0179365Y0116604D01*
X0179098Y0116667D01*
X0178830Y0116723D01*
X0178560Y0116772D01*
X0178289Y0116815D01*
X0178017Y0116851D01*
X0177745Y0116881D01*
X0177471Y0116904D01*
X0177197Y0116921D01*
X0176923Y0116931D01*
X0176649Y0116934D01*
X0139867Y0116934D01*
M02*
