G75*
%MOIN*%
%OFA0B0*%
%FSLAX25Y25*%
%IPPOS*%
%LPD*%
%AMOC8*
5,1,8,0,0,1.08239X$1,22.5*
%
%ADD10C,0.00000*%
%ADD11R,0.02362X0.03543*%
%ADD12R,0.04724X0.02165*%
%ADD13R,0.05906X0.15748*%
%ADD14R,0.03937X0.04331*%
%ADD15R,0.04331X0.03937*%
%ADD16R,0.05512X0.05512*%
%ADD17R,0.06299X0.13780*%
%ADD18R,0.04724X0.02362*%
%ADD19R,0.03150X0.01772*%
%ADD20R,0.05906X0.09449*%
D10*
X0012000Y0060307D02*
X0190976Y0060307D01*
X0191116Y0060309D01*
X0191256Y0060315D01*
X0191396Y0060325D01*
X0191536Y0060338D01*
X0191675Y0060356D01*
X0191814Y0060378D01*
X0191951Y0060403D01*
X0192089Y0060432D01*
X0192225Y0060465D01*
X0192360Y0060502D01*
X0192494Y0060543D01*
X0192627Y0060588D01*
X0192759Y0060636D01*
X0192889Y0060688D01*
X0193018Y0060743D01*
X0193145Y0060802D01*
X0193271Y0060865D01*
X0193395Y0060931D01*
X0193516Y0061000D01*
X0193636Y0061073D01*
X0193754Y0061150D01*
X0193869Y0061229D01*
X0193983Y0061312D01*
X0194093Y0061398D01*
X0194202Y0061487D01*
X0194308Y0061579D01*
X0194411Y0061674D01*
X0194512Y0061771D01*
X0194609Y0061872D01*
X0194704Y0061975D01*
X0194796Y0062081D01*
X0194885Y0062190D01*
X0194971Y0062300D01*
X0195054Y0062414D01*
X0195133Y0062529D01*
X0195210Y0062647D01*
X0195283Y0062767D01*
X0195352Y0062888D01*
X0195418Y0063012D01*
X0195481Y0063138D01*
X0195540Y0063265D01*
X0195595Y0063394D01*
X0195647Y0063524D01*
X0195695Y0063656D01*
X0195740Y0063789D01*
X0195781Y0063923D01*
X0195818Y0064058D01*
X0195851Y0064194D01*
X0195880Y0064332D01*
X0195905Y0064469D01*
X0195927Y0064608D01*
X0195945Y0064747D01*
X0195958Y0064887D01*
X0195968Y0065027D01*
X0195974Y0065167D01*
X0195976Y0065307D01*
X0195976Y0145858D01*
X0195974Y0145998D01*
X0195968Y0146138D01*
X0195958Y0146278D01*
X0195945Y0146418D01*
X0195927Y0146557D01*
X0195905Y0146696D01*
X0195880Y0146833D01*
X0195851Y0146971D01*
X0195818Y0147107D01*
X0195781Y0147242D01*
X0195740Y0147376D01*
X0195695Y0147509D01*
X0195647Y0147641D01*
X0195595Y0147771D01*
X0195540Y0147900D01*
X0195481Y0148027D01*
X0195418Y0148153D01*
X0195352Y0148277D01*
X0195283Y0148398D01*
X0195210Y0148518D01*
X0195133Y0148636D01*
X0195054Y0148751D01*
X0194971Y0148865D01*
X0194885Y0148975D01*
X0194796Y0149084D01*
X0194704Y0149190D01*
X0194609Y0149293D01*
X0194512Y0149394D01*
X0194411Y0149491D01*
X0194308Y0149586D01*
X0194202Y0149678D01*
X0194093Y0149767D01*
X0193983Y0149853D01*
X0193869Y0149936D01*
X0193754Y0150015D01*
X0193636Y0150092D01*
X0193516Y0150165D01*
X0193395Y0150234D01*
X0193271Y0150300D01*
X0193145Y0150363D01*
X0193018Y0150422D01*
X0192889Y0150477D01*
X0192759Y0150529D01*
X0192627Y0150577D01*
X0192494Y0150622D01*
X0192360Y0150663D01*
X0192225Y0150700D01*
X0192089Y0150733D01*
X0191951Y0150762D01*
X0191814Y0150787D01*
X0191675Y0150809D01*
X0191536Y0150827D01*
X0191396Y0150840D01*
X0191256Y0150850D01*
X0191116Y0150856D01*
X0190976Y0150858D01*
X0012000Y0150858D01*
X0011860Y0150856D01*
X0011720Y0150850D01*
X0011580Y0150840D01*
X0011440Y0150827D01*
X0011301Y0150809D01*
X0011162Y0150787D01*
X0011025Y0150762D01*
X0010887Y0150733D01*
X0010751Y0150700D01*
X0010616Y0150663D01*
X0010482Y0150622D01*
X0010349Y0150577D01*
X0010217Y0150529D01*
X0010087Y0150477D01*
X0009958Y0150422D01*
X0009831Y0150363D01*
X0009705Y0150300D01*
X0009581Y0150234D01*
X0009460Y0150165D01*
X0009340Y0150092D01*
X0009222Y0150015D01*
X0009107Y0149936D01*
X0008993Y0149853D01*
X0008883Y0149767D01*
X0008774Y0149678D01*
X0008668Y0149586D01*
X0008565Y0149491D01*
X0008464Y0149394D01*
X0008367Y0149293D01*
X0008272Y0149190D01*
X0008180Y0149084D01*
X0008091Y0148975D01*
X0008005Y0148865D01*
X0007922Y0148751D01*
X0007843Y0148636D01*
X0007766Y0148518D01*
X0007693Y0148398D01*
X0007624Y0148277D01*
X0007558Y0148153D01*
X0007495Y0148027D01*
X0007436Y0147900D01*
X0007381Y0147771D01*
X0007329Y0147641D01*
X0007281Y0147509D01*
X0007236Y0147376D01*
X0007195Y0147242D01*
X0007158Y0147107D01*
X0007125Y0146971D01*
X0007096Y0146833D01*
X0007071Y0146696D01*
X0007049Y0146557D01*
X0007031Y0146418D01*
X0007018Y0146278D01*
X0007008Y0146138D01*
X0007002Y0145998D01*
X0007000Y0145858D01*
X0007000Y0065307D01*
X0007002Y0065167D01*
X0007008Y0065027D01*
X0007018Y0064887D01*
X0007031Y0064747D01*
X0007049Y0064608D01*
X0007071Y0064469D01*
X0007096Y0064332D01*
X0007125Y0064194D01*
X0007158Y0064058D01*
X0007195Y0063923D01*
X0007236Y0063789D01*
X0007281Y0063656D01*
X0007329Y0063524D01*
X0007381Y0063394D01*
X0007436Y0063265D01*
X0007495Y0063138D01*
X0007558Y0063012D01*
X0007624Y0062888D01*
X0007693Y0062767D01*
X0007766Y0062647D01*
X0007843Y0062529D01*
X0007922Y0062414D01*
X0008005Y0062300D01*
X0008091Y0062190D01*
X0008180Y0062081D01*
X0008272Y0061975D01*
X0008367Y0061872D01*
X0008464Y0061771D01*
X0008565Y0061674D01*
X0008668Y0061579D01*
X0008774Y0061487D01*
X0008883Y0061398D01*
X0008993Y0061312D01*
X0009107Y0061229D01*
X0009222Y0061150D01*
X0009340Y0061073D01*
X0009460Y0061000D01*
X0009581Y0060931D01*
X0009705Y0060865D01*
X0009831Y0060802D01*
X0009958Y0060743D01*
X0010087Y0060688D01*
X0010217Y0060636D01*
X0010349Y0060588D01*
X0010482Y0060543D01*
X0010616Y0060502D01*
X0010751Y0060465D01*
X0010887Y0060432D01*
X0011025Y0060403D01*
X0011162Y0060378D01*
X0011301Y0060356D01*
X0011440Y0060338D01*
X0011580Y0060325D01*
X0011720Y0060315D01*
X0011860Y0060309D01*
X0012000Y0060307D01*
D11*
X0026260Y0091779D03*
X0030000Y0091779D03*
X0033740Y0091779D03*
X0033740Y0100834D03*
X0030000Y0100834D03*
X0026260Y0100834D03*
D12*
X0091630Y0075409D03*
X0091630Y0071669D03*
X0091630Y0067929D03*
X0101866Y0067929D03*
X0101866Y0075409D03*
D13*
X0031087Y0075307D03*
X0016913Y0075307D03*
D14*
X0047654Y0076307D03*
X0054346Y0076307D03*
X0054346Y0084307D03*
X0047654Y0084307D03*
X0047654Y0100307D03*
X0054346Y0100307D03*
X0096000Y0104960D03*
X0096000Y0111653D03*
X0144654Y0087307D03*
X0151346Y0087307D03*
X0151346Y0078307D03*
X0144654Y0078307D03*
D15*
X0089000Y0104960D03*
X0082000Y0104960D03*
X0082000Y0111653D03*
X0089000Y0111653D03*
X0054346Y0092307D03*
X0047654Y0092307D03*
D16*
X0042480Y0111307D03*
X0027520Y0111307D03*
D17*
X0072874Y0095638D03*
X0072874Y0073590D03*
D18*
X0105976Y0081307D03*
X0105976Y0086307D03*
X0105976Y0091307D03*
X0105976Y0096307D03*
X0105976Y0101307D03*
X0105976Y0106307D03*
X0105976Y0111307D03*
X0128024Y0111307D03*
X0128024Y0106307D03*
X0128024Y0101307D03*
X0128024Y0096307D03*
X0128024Y0091307D03*
X0128024Y0086307D03*
X0128024Y0081307D03*
D19*
X0124906Y0073244D03*
X0124906Y0069307D03*
X0124906Y0065370D03*
X0113094Y0065370D03*
X0113094Y0069307D03*
X0113094Y0073244D03*
D20*
X0119000Y0069307D03*
M02*
