G75*
%MOIN*%
%OFA0B0*%
%FSLAX25Y25*%
%IPPOS*%
%LPD*%
%AMOC8*
5,1,8,0,0,1.08239X$1,22.5*
%
%ADD10C,0.00000*%
%ADD11C,0.01100*%
%ADD12C,0.00800*%
%ADD13C,0.01500*%
%ADD14C,0.00500*%
%ADD15C,0.00400*%
D10*
X0012000Y0060307D02*
X0190976Y0060307D01*
X0191116Y0060309D01*
X0191256Y0060315D01*
X0191396Y0060325D01*
X0191536Y0060338D01*
X0191675Y0060356D01*
X0191814Y0060378D01*
X0191951Y0060403D01*
X0192089Y0060432D01*
X0192225Y0060465D01*
X0192360Y0060502D01*
X0192494Y0060543D01*
X0192627Y0060588D01*
X0192759Y0060636D01*
X0192889Y0060688D01*
X0193018Y0060743D01*
X0193145Y0060802D01*
X0193271Y0060865D01*
X0193395Y0060931D01*
X0193516Y0061000D01*
X0193636Y0061073D01*
X0193754Y0061150D01*
X0193869Y0061229D01*
X0193983Y0061312D01*
X0194093Y0061398D01*
X0194202Y0061487D01*
X0194308Y0061579D01*
X0194411Y0061674D01*
X0194512Y0061771D01*
X0194609Y0061872D01*
X0194704Y0061975D01*
X0194796Y0062081D01*
X0194885Y0062190D01*
X0194971Y0062300D01*
X0195054Y0062414D01*
X0195133Y0062529D01*
X0195210Y0062647D01*
X0195283Y0062767D01*
X0195352Y0062888D01*
X0195418Y0063012D01*
X0195481Y0063138D01*
X0195540Y0063265D01*
X0195595Y0063394D01*
X0195647Y0063524D01*
X0195695Y0063656D01*
X0195740Y0063789D01*
X0195781Y0063923D01*
X0195818Y0064058D01*
X0195851Y0064194D01*
X0195880Y0064332D01*
X0195905Y0064469D01*
X0195927Y0064608D01*
X0195945Y0064747D01*
X0195958Y0064887D01*
X0195968Y0065027D01*
X0195974Y0065167D01*
X0195976Y0065307D01*
X0195976Y0145858D01*
X0195974Y0145998D01*
X0195968Y0146138D01*
X0195958Y0146278D01*
X0195945Y0146418D01*
X0195927Y0146557D01*
X0195905Y0146696D01*
X0195880Y0146833D01*
X0195851Y0146971D01*
X0195818Y0147107D01*
X0195781Y0147242D01*
X0195740Y0147376D01*
X0195695Y0147509D01*
X0195647Y0147641D01*
X0195595Y0147771D01*
X0195540Y0147900D01*
X0195481Y0148027D01*
X0195418Y0148153D01*
X0195352Y0148277D01*
X0195283Y0148398D01*
X0195210Y0148518D01*
X0195133Y0148636D01*
X0195054Y0148751D01*
X0194971Y0148865D01*
X0194885Y0148975D01*
X0194796Y0149084D01*
X0194704Y0149190D01*
X0194609Y0149293D01*
X0194512Y0149394D01*
X0194411Y0149491D01*
X0194308Y0149586D01*
X0194202Y0149678D01*
X0194093Y0149767D01*
X0193983Y0149853D01*
X0193869Y0149936D01*
X0193754Y0150015D01*
X0193636Y0150092D01*
X0193516Y0150165D01*
X0193395Y0150234D01*
X0193271Y0150300D01*
X0193145Y0150363D01*
X0193018Y0150422D01*
X0192889Y0150477D01*
X0192759Y0150529D01*
X0192627Y0150577D01*
X0192494Y0150622D01*
X0192360Y0150663D01*
X0192225Y0150700D01*
X0192089Y0150733D01*
X0191951Y0150762D01*
X0191814Y0150787D01*
X0191675Y0150809D01*
X0191536Y0150827D01*
X0191396Y0150840D01*
X0191256Y0150850D01*
X0191116Y0150856D01*
X0190976Y0150858D01*
X0012000Y0150858D01*
X0011860Y0150856D01*
X0011720Y0150850D01*
X0011580Y0150840D01*
X0011440Y0150827D01*
X0011301Y0150809D01*
X0011162Y0150787D01*
X0011025Y0150762D01*
X0010887Y0150733D01*
X0010751Y0150700D01*
X0010616Y0150663D01*
X0010482Y0150622D01*
X0010349Y0150577D01*
X0010217Y0150529D01*
X0010087Y0150477D01*
X0009958Y0150422D01*
X0009831Y0150363D01*
X0009705Y0150300D01*
X0009581Y0150234D01*
X0009460Y0150165D01*
X0009340Y0150092D01*
X0009222Y0150015D01*
X0009107Y0149936D01*
X0008993Y0149853D01*
X0008883Y0149767D01*
X0008774Y0149678D01*
X0008668Y0149586D01*
X0008565Y0149491D01*
X0008464Y0149394D01*
X0008367Y0149293D01*
X0008272Y0149190D01*
X0008180Y0149084D01*
X0008091Y0148975D01*
X0008005Y0148865D01*
X0007922Y0148751D01*
X0007843Y0148636D01*
X0007766Y0148518D01*
X0007693Y0148398D01*
X0007624Y0148277D01*
X0007558Y0148153D01*
X0007495Y0148027D01*
X0007436Y0147900D01*
X0007381Y0147771D01*
X0007329Y0147641D01*
X0007281Y0147509D01*
X0007236Y0147376D01*
X0007195Y0147242D01*
X0007158Y0147107D01*
X0007125Y0146971D01*
X0007096Y0146833D01*
X0007071Y0146696D01*
X0007049Y0146557D01*
X0007031Y0146418D01*
X0007018Y0146278D01*
X0007008Y0146138D01*
X0007002Y0145998D01*
X0007000Y0145858D01*
X0007000Y0065307D01*
X0007002Y0065167D01*
X0007008Y0065027D01*
X0007018Y0064887D01*
X0007031Y0064747D01*
X0007049Y0064608D01*
X0007071Y0064469D01*
X0007096Y0064332D01*
X0007125Y0064194D01*
X0007158Y0064058D01*
X0007195Y0063923D01*
X0007236Y0063789D01*
X0007281Y0063656D01*
X0007329Y0063524D01*
X0007381Y0063394D01*
X0007436Y0063265D01*
X0007495Y0063138D01*
X0007558Y0063012D01*
X0007624Y0062888D01*
X0007693Y0062767D01*
X0007766Y0062647D01*
X0007843Y0062529D01*
X0007922Y0062414D01*
X0008005Y0062300D01*
X0008091Y0062190D01*
X0008180Y0062081D01*
X0008272Y0061975D01*
X0008367Y0061872D01*
X0008464Y0061771D01*
X0008565Y0061674D01*
X0008668Y0061579D01*
X0008774Y0061487D01*
X0008883Y0061398D01*
X0008993Y0061312D01*
X0009107Y0061229D01*
X0009222Y0061150D01*
X0009340Y0061073D01*
X0009460Y0061000D01*
X0009581Y0060931D01*
X0009705Y0060865D01*
X0009831Y0060802D01*
X0009958Y0060743D01*
X0010087Y0060688D01*
X0010217Y0060636D01*
X0010349Y0060588D01*
X0010482Y0060543D01*
X0010616Y0060502D01*
X0010751Y0060465D01*
X0010887Y0060432D01*
X0011025Y0060403D01*
X0011162Y0060378D01*
X0011301Y0060356D01*
X0011440Y0060338D01*
X0011580Y0060325D01*
X0011720Y0060315D01*
X0011860Y0060309D01*
X0012000Y0060307D01*
D11*
X0057706Y0131857D02*
X0056722Y0132841D01*
X0056722Y0133825D01*
X0057706Y0134809D01*
X0060659Y0134809D01*
X0060659Y0132841D01*
X0059674Y0131857D01*
X0057706Y0131857D01*
X0060659Y0134809D02*
X0058690Y0136778D01*
X0056722Y0137762D01*
X0065136Y0137762D02*
X0065136Y0131857D01*
X0067104Y0131857D02*
X0063167Y0131857D01*
X0067104Y0135794D02*
X0065136Y0137762D01*
X0069613Y0136778D02*
X0073550Y0132841D01*
X0072565Y0131857D01*
X0070597Y0131857D01*
X0069613Y0132841D01*
X0069613Y0136778D01*
X0070597Y0137762D01*
X0072565Y0137762D01*
X0073550Y0136778D01*
X0073550Y0132841D01*
X0076058Y0131857D02*
X0079995Y0131857D01*
X0076058Y0135794D01*
X0076058Y0136778D01*
X0077043Y0137762D01*
X0079011Y0137762D01*
X0079995Y0136778D01*
X0079886Y0141857D02*
X0079886Y0145794D01*
X0077918Y0147762D01*
X0075949Y0145794D01*
X0075949Y0141857D01*
X0073441Y0141857D02*
X0073441Y0147762D01*
X0069504Y0141857D01*
X0069504Y0147762D01*
X0075949Y0144809D02*
X0079886Y0144809D01*
X0082395Y0147762D02*
X0082395Y0141857D01*
X0086332Y0141857D02*
X0086332Y0147762D01*
X0084363Y0145794D01*
X0082395Y0147762D01*
X0088840Y0147762D02*
X0088840Y0141857D01*
X0090809Y0143825D01*
X0092777Y0141857D01*
X0092777Y0147762D01*
X0095286Y0146778D02*
X0096270Y0147762D01*
X0098238Y0147762D01*
X0099223Y0146778D01*
X0099223Y0142841D01*
X0098238Y0141857D01*
X0096270Y0141857D01*
X0095286Y0142841D01*
X0095286Y0146778D01*
X0101731Y0146778D02*
X0102715Y0147762D01*
X0104684Y0147762D01*
X0105668Y0146778D01*
X0105668Y0145794D01*
X0104684Y0144809D01*
X0102715Y0144809D01*
X0101731Y0143825D01*
X0101731Y0142841D01*
X0102715Y0141857D01*
X0104684Y0141857D01*
X0105668Y0142841D01*
X0105777Y0137762D02*
X0102824Y0137762D01*
X0101840Y0136778D01*
X0101840Y0135794D01*
X0102824Y0134809D01*
X0105777Y0134809D01*
X0102824Y0134809D02*
X0101840Y0133825D01*
X0101840Y0132841D01*
X0102824Y0131857D01*
X0105777Y0131857D01*
X0105777Y0137762D01*
X0108286Y0137762D02*
X0108286Y0131857D01*
X0112223Y0131857D02*
X0112223Y0137762D01*
X0110254Y0135794D01*
X0108286Y0137762D01*
X0114731Y0137762D02*
X0118668Y0137762D01*
X0118668Y0131857D01*
X0114731Y0131857D01*
X0116700Y0134809D02*
X0118668Y0134809D01*
X0121177Y0137762D02*
X0125114Y0137762D01*
X0123145Y0137762D02*
X0123145Y0131857D01*
X0127622Y0134809D02*
X0128606Y0133825D01*
X0131559Y0133825D01*
X0131559Y0131857D02*
X0131559Y0137762D01*
X0128606Y0137762D01*
X0127622Y0136778D01*
X0127622Y0134809D01*
X0134068Y0131857D02*
X0138005Y0131857D01*
X0138005Y0137762D01*
X0134068Y0137762D01*
X0136036Y0134809D02*
X0138005Y0134809D01*
X0140513Y0133825D02*
X0140513Y0132841D01*
X0141497Y0131857D01*
X0143466Y0131857D01*
X0144450Y0132841D01*
X0143466Y0134809D02*
X0141497Y0134809D01*
X0140513Y0133825D01*
X0140513Y0136778D02*
X0141497Y0137762D01*
X0143466Y0137762D01*
X0144450Y0136778D01*
X0144450Y0135794D01*
X0143466Y0134809D01*
X0131450Y0142841D02*
X0130466Y0141857D01*
X0129482Y0141857D01*
X0128497Y0142841D01*
X0128497Y0147762D01*
X0127513Y0147762D02*
X0129482Y0147762D01*
X0125005Y0146778D02*
X0125005Y0142841D01*
X0124020Y0141857D01*
X0122052Y0141857D01*
X0121068Y0142841D01*
X0121068Y0146778D01*
X0122052Y0147762D01*
X0124020Y0147762D01*
X0125005Y0146778D01*
X0118559Y0147762D02*
X0114622Y0141857D01*
X0114622Y0147762D01*
X0118559Y0147762D02*
X0118559Y0141857D01*
X0099332Y0137762D02*
X0099332Y0131857D01*
X0095395Y0131857D01*
X0092886Y0131857D02*
X0092886Y0137762D01*
X0089934Y0137762D01*
X0088949Y0136778D01*
X0088949Y0134809D01*
X0089934Y0133825D01*
X0092886Y0133825D01*
X0090918Y0133825D02*
X0088949Y0131857D01*
X0095395Y0137762D02*
X0099332Y0137762D01*
X0099332Y0134809D02*
X0097363Y0134809D01*
D12*
X0100382Y0108911D02*
X0101783Y0108911D01*
X0101083Y0108911D02*
X0101083Y0104707D01*
X0101783Y0104707D02*
X0100382Y0104707D01*
X0098714Y0104707D02*
X0096612Y0104707D01*
X0095911Y0105408D01*
X0096612Y0106108D01*
X0098013Y0106108D01*
X0098714Y0106809D01*
X0098013Y0107509D01*
X0095911Y0107509D01*
X0094110Y0106809D02*
X0094110Y0105408D01*
X0093409Y0104707D01*
X0091308Y0104707D01*
X0093409Y0107509D02*
X0094110Y0106809D01*
X0093409Y0107509D02*
X0091308Y0107509D01*
X0092575Y0100009D02*
X0092575Y0097908D01*
X0091875Y0097207D01*
X0089773Y0097207D01*
X0089773Y0096506D02*
X0090473Y0095806D01*
X0091174Y0095806D01*
X0089773Y0096506D02*
X0089773Y0100009D01*
X0094310Y0100009D02*
X0095011Y0100009D01*
X0096412Y0098608D01*
X0096412Y0097207D02*
X0096412Y0100009D01*
X0098213Y0099309D02*
X0098213Y0098608D01*
X0101016Y0098608D01*
X0101016Y0097908D02*
X0101016Y0099309D01*
X0100315Y0100009D01*
X0098914Y0100009D01*
X0098213Y0099309D01*
X0098914Y0097207D02*
X0100315Y0097207D01*
X0101016Y0097908D01*
X0102684Y0097207D02*
X0103385Y0097908D01*
X0103385Y0100710D01*
X0104085Y0100009D02*
X0102684Y0100009D01*
X0105753Y0100009D02*
X0107154Y0100009D01*
X0106454Y0100710D02*
X0106454Y0097908D01*
X0105753Y0097207D01*
X0108956Y0097207D02*
X0108956Y0099309D01*
X0109657Y0100009D01*
X0111058Y0100009D01*
X0111058Y0098608D02*
X0108956Y0098608D01*
X0108956Y0097207D02*
X0111058Y0097207D01*
X0111758Y0097908D01*
X0111058Y0098608D01*
X0113560Y0097908D02*
X0114260Y0097207D01*
X0116362Y0097207D01*
X0116362Y0101411D01*
X0116362Y0100009D02*
X0114260Y0100009D01*
X0113560Y0099309D01*
X0113560Y0097908D01*
X0118030Y0097207D02*
X0119432Y0098608D01*
X0119432Y0100009D01*
X0118030Y0101411D01*
X0118731Y0104707D02*
X0116629Y0104707D01*
X0116629Y0107509D01*
X0114828Y0107509D02*
X0114828Y0104707D01*
X0114828Y0106108D02*
X0113426Y0107509D01*
X0112726Y0107509D01*
X0110991Y0106809D02*
X0110290Y0107509D01*
X0108889Y0107509D01*
X0108189Y0106809D01*
X0108189Y0106108D01*
X0110991Y0106108D01*
X0110991Y0105408D02*
X0110991Y0106809D01*
X0110991Y0105408D02*
X0110290Y0104707D01*
X0108889Y0104707D01*
X0118731Y0104707D02*
X0119432Y0105408D01*
X0119432Y0107509D01*
X0121233Y0107509D02*
X0123335Y0107509D01*
X0124035Y0106809D01*
X0123335Y0106108D01*
X0121934Y0106108D01*
X0121233Y0105408D01*
X0121934Y0104707D01*
X0124035Y0104707D01*
X0125837Y0104707D02*
X0125837Y0106809D01*
X0126538Y0107509D01*
X0128639Y0107509D01*
X0128639Y0104707D01*
X0130441Y0104707D02*
X0133243Y0104707D01*
X0133243Y0108911D01*
X0130441Y0108911D01*
X0131842Y0106809D02*
X0133243Y0106809D01*
X0130441Y0101411D02*
X0133243Y0099309D01*
X0130441Y0097207D01*
X0128639Y0098608D02*
X0125837Y0098608D01*
X0125837Y0100009D02*
X0128639Y0100009D01*
X0127939Y0092509D02*
X0126538Y0092509D01*
X0125837Y0091809D01*
X0125837Y0089707D01*
X0127939Y0089707D01*
X0128639Y0090408D01*
X0127939Y0091108D01*
X0125837Y0091108D01*
X0124035Y0089707D02*
X0121934Y0089707D01*
X0121233Y0090408D01*
X0121233Y0091809D01*
X0121934Y0092509D01*
X0124035Y0092509D01*
X0124035Y0088306D01*
X0119432Y0090408D02*
X0118731Y0091108D01*
X0116629Y0091108D01*
X0116629Y0091809D02*
X0116629Y0089707D01*
X0118731Y0089707D01*
X0119432Y0090408D01*
X0118731Y0092509D02*
X0117330Y0092509D01*
X0116629Y0091809D01*
X0114828Y0091809D02*
X0114828Y0090408D01*
X0114127Y0089707D01*
X0112025Y0089707D01*
X0110224Y0089707D02*
X0108822Y0089707D01*
X0109523Y0089707D02*
X0109523Y0092509D01*
X0110224Y0092509D01*
X0109523Y0093911D02*
X0109523Y0094611D01*
X0107154Y0092509D02*
X0105753Y0092509D01*
X0106454Y0093210D02*
X0106454Y0090408D01*
X0105753Y0089707D01*
X0104085Y0090408D02*
X0103385Y0089707D01*
X0101283Y0089707D01*
X0101283Y0089006D02*
X0101983Y0088306D01*
X0102684Y0088306D01*
X0101283Y0089006D02*
X0101283Y0092509D01*
X0099481Y0093911D02*
X0098080Y0092509D01*
X0098080Y0091108D01*
X0099481Y0089707D01*
X0096412Y0089707D02*
X0093610Y0093911D01*
X0091808Y0092509D02*
X0090407Y0093911D01*
X0090407Y0089707D01*
X0091808Y0089707D02*
X0089006Y0089707D01*
X0087204Y0090408D02*
X0084402Y0093210D01*
X0084402Y0090408D01*
X0085102Y0089707D01*
X0086503Y0089707D01*
X0087204Y0090408D01*
X0087204Y0093210D01*
X0086503Y0093911D01*
X0085102Y0093911D01*
X0084402Y0093210D01*
X0104085Y0092509D02*
X0104085Y0090408D01*
X0112025Y0092509D02*
X0114127Y0092509D01*
X0114828Y0091809D01*
X0130441Y0092509D02*
X0132543Y0092509D01*
X0133243Y0091809D01*
X0133243Y0090408D01*
X0132543Y0089707D01*
X0130441Y0089707D01*
X0150382Y0094408D02*
X0151083Y0093707D01*
X0152484Y0093707D01*
X0153184Y0094408D01*
X0150382Y0097210D01*
X0150382Y0094408D01*
X0153184Y0094408D02*
X0153184Y0097210D01*
X0152484Y0097911D01*
X0151083Y0097911D01*
X0150382Y0097210D01*
X0154986Y0097210D02*
X0155686Y0097911D01*
X0157088Y0097911D01*
X0157788Y0097210D01*
X0159590Y0097210D02*
X0160290Y0097911D01*
X0162392Y0097911D01*
X0162392Y0093707D01*
X0160290Y0093707D01*
X0159590Y0094408D01*
X0159590Y0095108D01*
X0160290Y0095809D01*
X0162392Y0095809D01*
X0164194Y0096509D02*
X0164894Y0095809D01*
X0166295Y0095809D01*
X0166996Y0096509D01*
X0166996Y0097210D01*
X0166295Y0097911D01*
X0164894Y0097911D01*
X0164194Y0097210D01*
X0164194Y0096509D01*
X0164894Y0095809D02*
X0164194Y0095108D01*
X0164194Y0094408D01*
X0164894Y0093707D01*
X0166295Y0093707D01*
X0166996Y0094408D01*
X0166996Y0095108D01*
X0166295Y0095809D01*
X0168798Y0093707D02*
X0171600Y0093707D01*
X0170199Y0093707D02*
X0170199Y0097911D01*
X0171600Y0096509D01*
X0174298Y0091911D02*
X0177100Y0091911D01*
X0177100Y0089809D01*
X0175699Y0090509D01*
X0174998Y0090509D01*
X0174298Y0089809D01*
X0174298Y0088408D01*
X0174998Y0087707D01*
X0176399Y0087707D01*
X0177100Y0088408D01*
X0181991Y0095707D02*
X0181991Y0099911D01*
X0183392Y0099911D02*
X0180590Y0099911D01*
X0185194Y0099911D02*
X0185194Y0095707D01*
X0187996Y0099911D01*
X0187996Y0095707D01*
X0189798Y0095707D02*
X0189798Y0098509D01*
X0191199Y0099911D01*
X0192600Y0098509D01*
X0192600Y0095707D01*
X0192600Y0097809D02*
X0189798Y0097809D01*
X0188498Y0091911D02*
X0190600Y0089809D01*
X0187798Y0089809D01*
X0188498Y0087707D02*
X0188498Y0091911D01*
X0164600Y0109707D02*
X0162498Y0109707D01*
X0161798Y0110408D01*
X0161798Y0113210D01*
X0162498Y0113911D01*
X0164600Y0113911D01*
X0164600Y0109707D01*
X0159996Y0110408D02*
X0159295Y0109707D01*
X0157894Y0109707D01*
X0157194Y0110408D01*
X0157194Y0113210D01*
X0157894Y0113911D01*
X0159295Y0113911D01*
X0159996Y0113210D01*
X0159996Y0110408D01*
X0158595Y0111108D02*
X0157194Y0109707D01*
X0152600Y0111809D02*
X0149798Y0111809D01*
X0151199Y0113210D02*
X0151199Y0110408D01*
X0154986Y0097210D02*
X0154986Y0096509D01*
X0157788Y0093707D01*
X0154986Y0093707D01*
X0159590Y0096509D02*
X0160290Y0095809D01*
X0159590Y0096509D02*
X0159590Y0097210D01*
X0169798Y0111809D02*
X0172600Y0111809D01*
X0157798Y0070911D02*
X0159199Y0070210D01*
X0160600Y0068809D01*
X0158498Y0068809D01*
X0157798Y0068108D01*
X0157798Y0067408D01*
X0158498Y0066707D01*
X0159899Y0066707D01*
X0160600Y0067408D01*
X0160600Y0068809D01*
X0154600Y0067408D02*
X0154600Y0066707D01*
X0154600Y0067408D02*
X0151798Y0070210D01*
X0151798Y0070911D01*
X0154600Y0070911D01*
X0047600Y0073408D02*
X0046899Y0072707D01*
X0044798Y0072707D01*
X0044798Y0075509D01*
X0042996Y0074108D02*
X0040894Y0075509D01*
X0039159Y0074809D02*
X0038459Y0075509D01*
X0037058Y0075509D01*
X0036357Y0074809D01*
X0036357Y0072707D01*
X0034556Y0073408D02*
X0033855Y0074108D01*
X0031753Y0074108D01*
X0031753Y0074809D02*
X0031753Y0072707D01*
X0033855Y0072707D01*
X0034556Y0073408D01*
X0033855Y0075509D02*
X0032454Y0075509D01*
X0031753Y0074809D01*
X0029952Y0074809D02*
X0029251Y0075509D01*
X0027149Y0075509D01*
X0027850Y0074108D02*
X0027149Y0073408D01*
X0027850Y0072707D01*
X0029952Y0072707D01*
X0029251Y0074108D02*
X0029952Y0074809D01*
X0029251Y0074108D02*
X0027850Y0074108D01*
X0025348Y0073408D02*
X0025348Y0072707D01*
X0024647Y0072707D01*
X0024647Y0073408D01*
X0025348Y0073408D01*
X0023046Y0072707D02*
X0023046Y0075509D01*
X0020944Y0075509D01*
X0020243Y0074809D01*
X0020243Y0072707D01*
X0018442Y0073408D02*
X0018442Y0074809D01*
X0017741Y0075509D01*
X0016340Y0075509D01*
X0015639Y0074809D01*
X0015639Y0074108D01*
X0018442Y0074108D01*
X0018442Y0073408D02*
X0017741Y0072707D01*
X0016340Y0072707D01*
X0013137Y0073408D02*
X0012437Y0072707D01*
X0013137Y0073408D02*
X0013137Y0076210D01*
X0012437Y0075509D02*
X0013838Y0075509D01*
X0014207Y0069911D02*
X0012805Y0069911D01*
X0012105Y0069210D01*
X0012105Y0068509D01*
X0012805Y0067809D01*
X0012105Y0067108D01*
X0012105Y0066408D01*
X0012805Y0065707D01*
X0014207Y0065707D01*
X0014907Y0066408D01*
X0016709Y0067108D02*
X0016709Y0067809D01*
X0017409Y0068509D01*
X0018811Y0068509D01*
X0019511Y0067809D01*
X0019511Y0066408D01*
X0018811Y0065707D01*
X0017409Y0065707D01*
X0016709Y0067108D02*
X0019511Y0067108D01*
X0021313Y0065707D02*
X0023414Y0065707D01*
X0024115Y0066408D01*
X0024115Y0067809D01*
X0023414Y0068509D01*
X0021313Y0068509D01*
X0021313Y0069911D02*
X0021313Y0065707D01*
X0025917Y0066408D02*
X0025917Y0067809D01*
X0026617Y0068509D01*
X0028018Y0068509D01*
X0028719Y0067809D01*
X0028719Y0066408D01*
X0028018Y0065707D01*
X0026617Y0065707D01*
X0025917Y0066408D01*
X0030520Y0065707D02*
X0030520Y0067809D01*
X0031221Y0068509D01*
X0033323Y0068509D01*
X0033323Y0065707D01*
X0035124Y0067809D02*
X0037927Y0067809D01*
X0039728Y0068509D02*
X0041830Y0068509D01*
X0042531Y0067809D01*
X0042531Y0066408D01*
X0041830Y0065707D01*
X0039728Y0065707D01*
X0044199Y0067809D02*
X0045600Y0067809D01*
X0044899Y0069210D02*
X0044899Y0065707D01*
X0044899Y0069210D02*
X0044199Y0069911D01*
X0042996Y0072707D02*
X0042996Y0076911D01*
X0042996Y0074108D02*
X0040894Y0072707D01*
X0039159Y0072707D02*
X0039159Y0076911D01*
X0047600Y0075509D02*
X0047600Y0073408D01*
X0044600Y0097707D02*
X0044600Y0101911D01*
X0042498Y0101911D01*
X0041798Y0101210D01*
X0041798Y0099809D01*
X0042498Y0099108D01*
X0044600Y0099108D01*
X0039996Y0099809D02*
X0037194Y0099809D01*
X0037194Y0100509D02*
X0037194Y0097707D01*
X0035392Y0097707D02*
X0035392Y0101911D01*
X0032590Y0097707D01*
X0032590Y0101911D01*
X0030788Y0101911D02*
X0030788Y0097707D01*
X0027986Y0097707D01*
X0026184Y0097707D02*
X0023382Y0097707D01*
X0026184Y0097707D02*
X0026184Y0101911D01*
X0027986Y0101911D02*
X0030788Y0101911D01*
X0030788Y0099809D02*
X0029387Y0099809D01*
X0027986Y0105207D02*
X0027986Y0108009D01*
X0029387Y0109411D01*
X0030788Y0108009D01*
X0030788Y0105207D01*
X0032590Y0105207D02*
X0035392Y0105207D01*
X0035392Y0109411D01*
X0037194Y0108710D02*
X0037894Y0109411D01*
X0039295Y0109411D01*
X0039996Y0108710D01*
X0039996Y0105908D01*
X0039295Y0105207D01*
X0037894Y0105207D01*
X0037194Y0105908D01*
X0037194Y0108710D01*
X0041798Y0108710D02*
X0042498Y0109411D01*
X0043899Y0109411D01*
X0044600Y0108710D01*
X0044600Y0108009D01*
X0043899Y0107309D01*
X0042498Y0107309D01*
X0041798Y0106608D01*
X0041798Y0105908D01*
X0042498Y0105207D01*
X0043899Y0105207D01*
X0044600Y0105908D01*
X0039996Y0100509D02*
X0038595Y0101911D01*
X0037194Y0100509D01*
X0039996Y0100509D02*
X0039996Y0097707D01*
X0026184Y0105207D02*
X0026184Y0109411D01*
X0024083Y0109411D01*
X0023382Y0108710D01*
X0023382Y0107309D01*
X0024083Y0106608D01*
X0026184Y0106608D01*
X0024783Y0106608D02*
X0023382Y0105207D01*
X0027986Y0107309D02*
X0030788Y0107309D01*
X0014207Y0069911D02*
X0014907Y0069210D01*
X0013506Y0067809D02*
X0012805Y0067809D01*
D13*
X0028414Y0130475D02*
X0028414Y0136146D01*
X0031250Y0133311D02*
X0025578Y0133311D01*
X0172578Y0133311D02*
X0178250Y0133311D01*
D14*
X0139867Y0128307D02*
X0139867Y0125167D01*
X0139805Y0125165D01*
X0139744Y0125159D01*
X0139683Y0125150D01*
X0139622Y0125136D01*
X0139563Y0125119D01*
X0139505Y0125098D01*
X0139448Y0125073D01*
X0139393Y0125045D01*
X0139340Y0125014D01*
X0139289Y0124979D01*
X0139240Y0124941D01*
X0139193Y0124900D01*
X0139150Y0124857D01*
X0139109Y0124810D01*
X0139071Y0124761D01*
X0139036Y0124710D01*
X0139005Y0124657D01*
X0138977Y0124602D01*
X0138952Y0124545D01*
X0138931Y0124487D01*
X0138914Y0124428D01*
X0138900Y0124367D01*
X0138891Y0124306D01*
X0138885Y0124245D01*
X0138883Y0124183D01*
X0138885Y0124121D01*
X0138891Y0124060D01*
X0138900Y0123999D01*
X0138914Y0123938D01*
X0138931Y0123879D01*
X0138952Y0123821D01*
X0138977Y0123764D01*
X0139005Y0123709D01*
X0139036Y0123656D01*
X0139071Y0123605D01*
X0139109Y0123556D01*
X0139150Y0123509D01*
X0139193Y0123466D01*
X0139240Y0123425D01*
X0139289Y0123387D01*
X0139340Y0123352D01*
X0139393Y0123321D01*
X0139448Y0123293D01*
X0139505Y0123268D01*
X0139563Y0123247D01*
X0139622Y0123230D01*
X0139683Y0123216D01*
X0139744Y0123207D01*
X0139805Y0123201D01*
X0139867Y0123199D01*
X0139867Y0117918D01*
X0139805Y0117916D01*
X0139744Y0117910D01*
X0139683Y0117901D01*
X0139622Y0117887D01*
X0139563Y0117870D01*
X0139505Y0117849D01*
X0139448Y0117824D01*
X0139393Y0117796D01*
X0139340Y0117765D01*
X0139289Y0117730D01*
X0139240Y0117692D01*
X0139193Y0117651D01*
X0139150Y0117608D01*
X0139109Y0117561D01*
X0139071Y0117512D01*
X0139036Y0117461D01*
X0139005Y0117408D01*
X0138977Y0117353D01*
X0138952Y0117296D01*
X0138931Y0117238D01*
X0138914Y0117179D01*
X0138900Y0117118D01*
X0138891Y0117057D01*
X0138885Y0116996D01*
X0138883Y0116934D01*
X0138885Y0116872D01*
X0138891Y0116811D01*
X0138900Y0116750D01*
X0138914Y0116689D01*
X0138931Y0116630D01*
X0138952Y0116572D01*
X0138977Y0116515D01*
X0139005Y0116460D01*
X0139036Y0116407D01*
X0139071Y0116356D01*
X0139109Y0116307D01*
X0139150Y0116260D01*
X0139193Y0116217D01*
X0139240Y0116176D01*
X0139289Y0116138D01*
X0139340Y0116103D01*
X0139393Y0116072D01*
X0139448Y0116044D01*
X0139505Y0116019D01*
X0139563Y0115998D01*
X0139622Y0115981D01*
X0139683Y0115967D01*
X0139744Y0115958D01*
X0139805Y0115952D01*
X0139867Y0115950D01*
X0139867Y0110044D01*
X0139805Y0110042D01*
X0139744Y0110036D01*
X0139683Y0110027D01*
X0139622Y0110013D01*
X0139563Y0109996D01*
X0139505Y0109975D01*
X0139448Y0109950D01*
X0139393Y0109922D01*
X0139340Y0109891D01*
X0139289Y0109856D01*
X0139240Y0109818D01*
X0139193Y0109777D01*
X0139150Y0109734D01*
X0139109Y0109687D01*
X0139071Y0109638D01*
X0139036Y0109587D01*
X0139005Y0109534D01*
X0138977Y0109479D01*
X0138952Y0109422D01*
X0138931Y0109364D01*
X0138914Y0109305D01*
X0138900Y0109244D01*
X0138891Y0109183D01*
X0138885Y0109122D01*
X0138883Y0109060D01*
X0138885Y0108998D01*
X0138891Y0108937D01*
X0138900Y0108876D01*
X0138914Y0108815D01*
X0138931Y0108756D01*
X0138952Y0108698D01*
X0138977Y0108641D01*
X0139005Y0108586D01*
X0139036Y0108533D01*
X0139071Y0108482D01*
X0139109Y0108433D01*
X0139150Y0108386D01*
X0139193Y0108343D01*
X0139240Y0108302D01*
X0139289Y0108264D01*
X0139340Y0108229D01*
X0139393Y0108198D01*
X0139448Y0108170D01*
X0139505Y0108145D01*
X0139563Y0108124D01*
X0139622Y0108107D01*
X0139683Y0108093D01*
X0139744Y0108084D01*
X0139805Y0108078D01*
X0139867Y0108076D01*
X0139867Y0101545D01*
X0139805Y0101543D01*
X0139744Y0101537D01*
X0139683Y0101528D01*
X0139622Y0101514D01*
X0139563Y0101497D01*
X0139505Y0101476D01*
X0139448Y0101451D01*
X0139393Y0101423D01*
X0139340Y0101392D01*
X0139289Y0101357D01*
X0139240Y0101319D01*
X0139193Y0101278D01*
X0139150Y0101235D01*
X0139109Y0101188D01*
X0139071Y0101139D01*
X0139036Y0101088D01*
X0139005Y0101035D01*
X0138977Y0100980D01*
X0138952Y0100923D01*
X0138931Y0100865D01*
X0138914Y0100806D01*
X0138900Y0100745D01*
X0138891Y0100684D01*
X0138885Y0100623D01*
X0138883Y0100561D01*
X0138885Y0100499D01*
X0138891Y0100438D01*
X0138900Y0100377D01*
X0138914Y0100316D01*
X0138931Y0100257D01*
X0138952Y0100199D01*
X0138977Y0100142D01*
X0139005Y0100087D01*
X0139036Y0100034D01*
X0139071Y0099983D01*
X0139109Y0099934D01*
X0139150Y0099887D01*
X0139193Y0099844D01*
X0139240Y0099803D01*
X0139289Y0099765D01*
X0139340Y0099730D01*
X0139393Y0099699D01*
X0139448Y0099671D01*
X0139505Y0099646D01*
X0139563Y0099625D01*
X0139622Y0099608D01*
X0139683Y0099594D01*
X0139744Y0099585D01*
X0139805Y0099579D01*
X0139867Y0099577D01*
X0139867Y0093671D01*
X0139805Y0093669D01*
X0139744Y0093663D01*
X0139683Y0093654D01*
X0139622Y0093640D01*
X0139563Y0093623D01*
X0139505Y0093602D01*
X0139448Y0093577D01*
X0139393Y0093549D01*
X0139340Y0093518D01*
X0139289Y0093483D01*
X0139240Y0093445D01*
X0139193Y0093404D01*
X0139150Y0093361D01*
X0139109Y0093314D01*
X0139071Y0093265D01*
X0139036Y0093214D01*
X0139005Y0093161D01*
X0138977Y0093106D01*
X0138952Y0093049D01*
X0138931Y0092991D01*
X0138914Y0092932D01*
X0138900Y0092871D01*
X0138891Y0092810D01*
X0138885Y0092749D01*
X0138883Y0092687D01*
X0138885Y0092625D01*
X0138891Y0092564D01*
X0138900Y0092503D01*
X0138914Y0092442D01*
X0138931Y0092383D01*
X0138952Y0092325D01*
X0138977Y0092268D01*
X0139005Y0092213D01*
X0139036Y0092160D01*
X0139071Y0092109D01*
X0139109Y0092060D01*
X0139150Y0092013D01*
X0139193Y0091970D01*
X0139240Y0091929D01*
X0139289Y0091891D01*
X0139340Y0091856D01*
X0139393Y0091825D01*
X0139448Y0091797D01*
X0139505Y0091772D01*
X0139563Y0091751D01*
X0139622Y0091734D01*
X0139683Y0091720D01*
X0139744Y0091711D01*
X0139805Y0091705D01*
X0139867Y0091703D01*
X0139867Y0085797D01*
X0139805Y0085795D01*
X0139744Y0085789D01*
X0139683Y0085780D01*
X0139622Y0085766D01*
X0139563Y0085749D01*
X0139505Y0085728D01*
X0139448Y0085703D01*
X0139393Y0085675D01*
X0139340Y0085644D01*
X0139289Y0085609D01*
X0139240Y0085571D01*
X0139193Y0085530D01*
X0139150Y0085487D01*
X0139109Y0085440D01*
X0139071Y0085391D01*
X0139036Y0085340D01*
X0139005Y0085287D01*
X0138977Y0085232D01*
X0138952Y0085175D01*
X0138931Y0085117D01*
X0138914Y0085058D01*
X0138900Y0084997D01*
X0138891Y0084936D01*
X0138885Y0084875D01*
X0138883Y0084813D01*
X0138885Y0084751D01*
X0138891Y0084690D01*
X0138900Y0084629D01*
X0138914Y0084568D01*
X0138931Y0084509D01*
X0138952Y0084451D01*
X0138977Y0084394D01*
X0139005Y0084339D01*
X0139036Y0084286D01*
X0139071Y0084235D01*
X0139109Y0084186D01*
X0139150Y0084139D01*
X0139193Y0084096D01*
X0139240Y0084055D01*
X0139289Y0084017D01*
X0139340Y0083982D01*
X0139393Y0083951D01*
X0139448Y0083923D01*
X0139505Y0083898D01*
X0139563Y0083877D01*
X0139622Y0083860D01*
X0139683Y0083846D01*
X0139744Y0083837D01*
X0139805Y0083831D01*
X0139867Y0083829D01*
X0139867Y0077298D01*
X0139805Y0077296D01*
X0139744Y0077290D01*
X0139683Y0077281D01*
X0139622Y0077267D01*
X0139563Y0077250D01*
X0139505Y0077229D01*
X0139448Y0077204D01*
X0139393Y0077176D01*
X0139340Y0077145D01*
X0139289Y0077110D01*
X0139240Y0077072D01*
X0139193Y0077031D01*
X0139150Y0076988D01*
X0139109Y0076941D01*
X0139071Y0076892D01*
X0139036Y0076841D01*
X0139005Y0076788D01*
X0138977Y0076733D01*
X0138952Y0076676D01*
X0138931Y0076618D01*
X0138914Y0076559D01*
X0138900Y0076498D01*
X0138891Y0076437D01*
X0138885Y0076376D01*
X0138883Y0076314D01*
X0138885Y0076252D01*
X0138891Y0076191D01*
X0138900Y0076130D01*
X0138914Y0076069D01*
X0138931Y0076010D01*
X0138952Y0075952D01*
X0138977Y0075895D01*
X0139005Y0075840D01*
X0139036Y0075787D01*
X0139071Y0075736D01*
X0139109Y0075687D01*
X0139150Y0075640D01*
X0139193Y0075597D01*
X0139240Y0075556D01*
X0139289Y0075518D01*
X0139340Y0075483D01*
X0139393Y0075452D01*
X0139448Y0075424D01*
X0139505Y0075399D01*
X0139563Y0075378D01*
X0139622Y0075361D01*
X0139683Y0075347D01*
X0139744Y0075338D01*
X0139805Y0075332D01*
X0139867Y0075330D01*
X0139867Y0069173D01*
X0139805Y0069171D01*
X0139744Y0069165D01*
X0139683Y0069156D01*
X0139622Y0069142D01*
X0139563Y0069125D01*
X0139505Y0069104D01*
X0139448Y0069079D01*
X0139393Y0069051D01*
X0139340Y0069020D01*
X0139289Y0068985D01*
X0139240Y0068947D01*
X0139193Y0068906D01*
X0139150Y0068863D01*
X0139109Y0068816D01*
X0139071Y0068767D01*
X0139036Y0068716D01*
X0139005Y0068663D01*
X0138977Y0068608D01*
X0138952Y0068551D01*
X0138931Y0068493D01*
X0138914Y0068434D01*
X0138900Y0068373D01*
X0138891Y0068312D01*
X0138885Y0068251D01*
X0138883Y0068189D01*
X0138885Y0068127D01*
X0138891Y0068066D01*
X0138900Y0068005D01*
X0138914Y0067944D01*
X0138931Y0067885D01*
X0138952Y0067827D01*
X0138977Y0067770D01*
X0139005Y0067715D01*
X0139036Y0067662D01*
X0139071Y0067611D01*
X0139109Y0067562D01*
X0139150Y0067515D01*
X0139193Y0067472D01*
X0139240Y0067431D01*
X0139289Y0067393D01*
X0139340Y0067358D01*
X0139393Y0067327D01*
X0139448Y0067299D01*
X0139505Y0067274D01*
X0139563Y0067253D01*
X0139622Y0067236D01*
X0139683Y0067222D01*
X0139744Y0067213D01*
X0139805Y0067207D01*
X0139867Y0067205D01*
X0139867Y0064065D01*
X0062500Y0064065D01*
X0062500Y0067205D01*
X0062562Y0067207D01*
X0062623Y0067213D01*
X0062684Y0067222D01*
X0062745Y0067236D01*
X0062804Y0067253D01*
X0062862Y0067274D01*
X0062919Y0067299D01*
X0062974Y0067327D01*
X0063027Y0067358D01*
X0063078Y0067393D01*
X0063127Y0067431D01*
X0063174Y0067472D01*
X0063217Y0067515D01*
X0063258Y0067562D01*
X0063296Y0067611D01*
X0063331Y0067662D01*
X0063362Y0067715D01*
X0063390Y0067770D01*
X0063415Y0067827D01*
X0063436Y0067885D01*
X0063453Y0067944D01*
X0063467Y0068005D01*
X0063476Y0068066D01*
X0063482Y0068127D01*
X0063484Y0068189D01*
X0063482Y0068251D01*
X0063476Y0068312D01*
X0063467Y0068373D01*
X0063453Y0068434D01*
X0063436Y0068493D01*
X0063415Y0068551D01*
X0063390Y0068608D01*
X0063362Y0068663D01*
X0063331Y0068716D01*
X0063296Y0068767D01*
X0063258Y0068816D01*
X0063217Y0068863D01*
X0063174Y0068906D01*
X0063127Y0068947D01*
X0063078Y0068985D01*
X0063027Y0069020D01*
X0062974Y0069051D01*
X0062919Y0069079D01*
X0062862Y0069104D01*
X0062804Y0069125D01*
X0062745Y0069142D01*
X0062684Y0069156D01*
X0062623Y0069165D01*
X0062562Y0069171D01*
X0062500Y0069173D01*
X0062500Y0075330D01*
X0062562Y0075332D01*
X0062623Y0075338D01*
X0062684Y0075347D01*
X0062745Y0075361D01*
X0062804Y0075378D01*
X0062862Y0075399D01*
X0062919Y0075424D01*
X0062974Y0075452D01*
X0063027Y0075483D01*
X0063078Y0075518D01*
X0063127Y0075556D01*
X0063174Y0075597D01*
X0063217Y0075640D01*
X0063258Y0075687D01*
X0063296Y0075736D01*
X0063331Y0075787D01*
X0063362Y0075840D01*
X0063390Y0075895D01*
X0063415Y0075952D01*
X0063436Y0076010D01*
X0063453Y0076069D01*
X0063467Y0076130D01*
X0063476Y0076191D01*
X0063482Y0076252D01*
X0063484Y0076314D01*
X0063482Y0076376D01*
X0063476Y0076437D01*
X0063467Y0076498D01*
X0063453Y0076559D01*
X0063436Y0076618D01*
X0063415Y0076676D01*
X0063390Y0076733D01*
X0063362Y0076788D01*
X0063331Y0076841D01*
X0063296Y0076892D01*
X0063258Y0076941D01*
X0063217Y0076988D01*
X0063174Y0077031D01*
X0063127Y0077072D01*
X0063078Y0077110D01*
X0063027Y0077145D01*
X0062974Y0077176D01*
X0062919Y0077204D01*
X0062862Y0077229D01*
X0062804Y0077250D01*
X0062745Y0077267D01*
X0062684Y0077281D01*
X0062623Y0077290D01*
X0062562Y0077296D01*
X0062500Y0077298D01*
X0062500Y0083829D01*
X0062562Y0083831D01*
X0062623Y0083837D01*
X0062684Y0083846D01*
X0062745Y0083860D01*
X0062804Y0083877D01*
X0062862Y0083898D01*
X0062919Y0083923D01*
X0062974Y0083951D01*
X0063027Y0083982D01*
X0063078Y0084017D01*
X0063127Y0084055D01*
X0063174Y0084096D01*
X0063217Y0084139D01*
X0063258Y0084186D01*
X0063296Y0084235D01*
X0063331Y0084286D01*
X0063362Y0084339D01*
X0063390Y0084394D01*
X0063415Y0084451D01*
X0063436Y0084509D01*
X0063453Y0084568D01*
X0063467Y0084629D01*
X0063476Y0084690D01*
X0063482Y0084751D01*
X0063484Y0084813D01*
X0063482Y0084875D01*
X0063476Y0084936D01*
X0063467Y0084997D01*
X0063453Y0085058D01*
X0063436Y0085117D01*
X0063415Y0085175D01*
X0063390Y0085232D01*
X0063362Y0085287D01*
X0063331Y0085340D01*
X0063296Y0085391D01*
X0063258Y0085440D01*
X0063217Y0085487D01*
X0063174Y0085530D01*
X0063127Y0085571D01*
X0063078Y0085609D01*
X0063027Y0085644D01*
X0062974Y0085675D01*
X0062919Y0085703D01*
X0062862Y0085728D01*
X0062804Y0085749D01*
X0062745Y0085766D01*
X0062684Y0085780D01*
X0062623Y0085789D01*
X0062562Y0085795D01*
X0062500Y0085797D01*
X0062500Y0091703D01*
X0062562Y0091705D01*
X0062623Y0091711D01*
X0062684Y0091720D01*
X0062745Y0091734D01*
X0062804Y0091751D01*
X0062862Y0091772D01*
X0062919Y0091797D01*
X0062974Y0091825D01*
X0063027Y0091856D01*
X0063078Y0091891D01*
X0063127Y0091929D01*
X0063174Y0091970D01*
X0063217Y0092013D01*
X0063258Y0092060D01*
X0063296Y0092109D01*
X0063331Y0092160D01*
X0063362Y0092213D01*
X0063390Y0092268D01*
X0063415Y0092325D01*
X0063436Y0092383D01*
X0063453Y0092442D01*
X0063467Y0092503D01*
X0063476Y0092564D01*
X0063482Y0092625D01*
X0063484Y0092687D01*
X0063482Y0092749D01*
X0063476Y0092810D01*
X0063467Y0092871D01*
X0063453Y0092932D01*
X0063436Y0092991D01*
X0063415Y0093049D01*
X0063390Y0093106D01*
X0063362Y0093161D01*
X0063331Y0093214D01*
X0063296Y0093265D01*
X0063258Y0093314D01*
X0063217Y0093361D01*
X0063174Y0093404D01*
X0063127Y0093445D01*
X0063078Y0093483D01*
X0063027Y0093518D01*
X0062974Y0093549D01*
X0062919Y0093577D01*
X0062862Y0093602D01*
X0062804Y0093623D01*
X0062745Y0093640D01*
X0062684Y0093654D01*
X0062623Y0093663D01*
X0062562Y0093669D01*
X0062500Y0093671D01*
X0062500Y0100202D01*
X0062562Y0100204D01*
X0062623Y0100210D01*
X0062684Y0100219D01*
X0062745Y0100233D01*
X0062804Y0100250D01*
X0062862Y0100271D01*
X0062919Y0100296D01*
X0062974Y0100324D01*
X0063027Y0100355D01*
X0063078Y0100390D01*
X0063127Y0100428D01*
X0063174Y0100469D01*
X0063217Y0100512D01*
X0063258Y0100559D01*
X0063296Y0100608D01*
X0063331Y0100659D01*
X0063362Y0100712D01*
X0063390Y0100767D01*
X0063415Y0100824D01*
X0063436Y0100882D01*
X0063453Y0100941D01*
X0063467Y0101002D01*
X0063476Y0101063D01*
X0063482Y0101124D01*
X0063484Y0101186D01*
X0063482Y0101248D01*
X0063476Y0101309D01*
X0063467Y0101370D01*
X0063453Y0101431D01*
X0063436Y0101490D01*
X0063415Y0101548D01*
X0063390Y0101605D01*
X0063362Y0101660D01*
X0063331Y0101713D01*
X0063296Y0101764D01*
X0063258Y0101813D01*
X0063217Y0101860D01*
X0063174Y0101903D01*
X0063127Y0101944D01*
X0063078Y0101982D01*
X0063027Y0102017D01*
X0062974Y0102048D01*
X0062919Y0102076D01*
X0062862Y0102101D01*
X0062804Y0102122D01*
X0062745Y0102139D01*
X0062684Y0102153D01*
X0062623Y0102162D01*
X0062562Y0102168D01*
X0062500Y0102170D01*
X0062500Y0108076D01*
X0062562Y0108078D01*
X0062623Y0108084D01*
X0062684Y0108093D01*
X0062745Y0108107D01*
X0062804Y0108124D01*
X0062862Y0108145D01*
X0062919Y0108170D01*
X0062974Y0108198D01*
X0063027Y0108229D01*
X0063078Y0108264D01*
X0063127Y0108302D01*
X0063174Y0108343D01*
X0063217Y0108386D01*
X0063258Y0108433D01*
X0063296Y0108482D01*
X0063331Y0108533D01*
X0063362Y0108586D01*
X0063390Y0108641D01*
X0063415Y0108698D01*
X0063436Y0108756D01*
X0063453Y0108815D01*
X0063467Y0108876D01*
X0063476Y0108937D01*
X0063482Y0108998D01*
X0063484Y0109060D01*
X0063482Y0109122D01*
X0063476Y0109183D01*
X0063467Y0109244D01*
X0063453Y0109305D01*
X0063436Y0109364D01*
X0063415Y0109422D01*
X0063390Y0109479D01*
X0063362Y0109534D01*
X0063331Y0109587D01*
X0063296Y0109638D01*
X0063258Y0109687D01*
X0063217Y0109734D01*
X0063174Y0109777D01*
X0063127Y0109818D01*
X0063078Y0109856D01*
X0063027Y0109891D01*
X0062974Y0109922D01*
X0062919Y0109950D01*
X0062862Y0109975D01*
X0062804Y0109996D01*
X0062745Y0110013D01*
X0062684Y0110027D01*
X0062623Y0110036D01*
X0062562Y0110042D01*
X0062500Y0110044D01*
X0062500Y0115950D01*
X0062562Y0115952D01*
X0062623Y0115958D01*
X0062684Y0115967D01*
X0062745Y0115981D01*
X0062804Y0115998D01*
X0062862Y0116019D01*
X0062919Y0116044D01*
X0062974Y0116072D01*
X0063027Y0116103D01*
X0063078Y0116138D01*
X0063127Y0116176D01*
X0063174Y0116217D01*
X0063217Y0116260D01*
X0063258Y0116307D01*
X0063296Y0116356D01*
X0063331Y0116407D01*
X0063362Y0116460D01*
X0063390Y0116515D01*
X0063415Y0116572D01*
X0063436Y0116630D01*
X0063453Y0116689D01*
X0063467Y0116750D01*
X0063476Y0116811D01*
X0063482Y0116872D01*
X0063484Y0116934D01*
X0063482Y0116996D01*
X0063476Y0117057D01*
X0063467Y0117118D01*
X0063453Y0117179D01*
X0063436Y0117238D01*
X0063415Y0117296D01*
X0063390Y0117353D01*
X0063362Y0117408D01*
X0063331Y0117461D01*
X0063296Y0117512D01*
X0063258Y0117561D01*
X0063217Y0117608D01*
X0063174Y0117651D01*
X0063127Y0117692D01*
X0063078Y0117730D01*
X0063027Y0117765D01*
X0062974Y0117796D01*
X0062919Y0117824D01*
X0062862Y0117849D01*
X0062804Y0117870D01*
X0062745Y0117887D01*
X0062684Y0117901D01*
X0062623Y0117910D01*
X0062562Y0117916D01*
X0062500Y0117918D01*
X0062500Y0123199D01*
X0062562Y0123201D01*
X0062623Y0123207D01*
X0062684Y0123216D01*
X0062745Y0123230D01*
X0062804Y0123247D01*
X0062862Y0123268D01*
X0062919Y0123293D01*
X0062974Y0123321D01*
X0063027Y0123352D01*
X0063078Y0123387D01*
X0063127Y0123425D01*
X0063174Y0123466D01*
X0063217Y0123509D01*
X0063258Y0123556D01*
X0063296Y0123605D01*
X0063331Y0123656D01*
X0063362Y0123709D01*
X0063390Y0123764D01*
X0063415Y0123821D01*
X0063436Y0123879D01*
X0063453Y0123938D01*
X0063467Y0123999D01*
X0063476Y0124060D01*
X0063482Y0124121D01*
X0063484Y0124183D01*
X0063482Y0124245D01*
X0063476Y0124306D01*
X0063467Y0124367D01*
X0063453Y0124428D01*
X0063436Y0124487D01*
X0063415Y0124545D01*
X0063390Y0124602D01*
X0063362Y0124657D01*
X0063331Y0124710D01*
X0063296Y0124761D01*
X0063258Y0124810D01*
X0063217Y0124857D01*
X0063174Y0124900D01*
X0063127Y0124941D01*
X0063078Y0124979D01*
X0063027Y0125014D01*
X0062974Y0125045D01*
X0062919Y0125073D01*
X0062862Y0125098D01*
X0062804Y0125119D01*
X0062745Y0125136D01*
X0062684Y0125150D01*
X0062623Y0125159D01*
X0062562Y0125165D01*
X0062500Y0125167D01*
X0062500Y0128307D01*
X0139867Y0128307D01*
X0088125Y0113932D02*
X0074375Y0113932D01*
X0074375Y0099557D01*
X0088125Y0099557D01*
X0088125Y0113307D01*
X0072500Y0084557D02*
X0125000Y0084557D01*
X0125000Y0065807D01*
X0072500Y0065807D01*
X0072500Y0084557D01*
D15*
X0085252Y0077053D02*
X0085252Y0072449D01*
X0086787Y0073983D01*
X0088321Y0072449D01*
X0088321Y0077053D01*
X0089856Y0077053D02*
X0089856Y0072449D01*
X0089856Y0074751D02*
X0092925Y0074751D01*
X0094460Y0074751D02*
X0096762Y0074751D01*
X0097529Y0075518D01*
X0097529Y0076285D01*
X0096762Y0077053D01*
X0095227Y0077053D01*
X0094460Y0076285D01*
X0094460Y0073216D01*
X0095227Y0072449D01*
X0096762Y0072449D01*
X0097529Y0073216D01*
X0099064Y0073216D02*
X0099064Y0073983D01*
X0099831Y0074751D01*
X0102133Y0074751D01*
X0102133Y0073216D01*
X0101366Y0072449D01*
X0099831Y0072449D01*
X0099064Y0073216D01*
X0100598Y0076285D02*
X0102133Y0074751D01*
X0100598Y0076285D02*
X0099064Y0077053D01*
X0103668Y0077053D02*
X0103668Y0072449D01*
X0106737Y0072449D02*
X0106737Y0077053D01*
X0105202Y0075518D01*
X0103668Y0077053D01*
X0108272Y0077053D02*
X0111341Y0077053D01*
X0111341Y0072449D01*
X0112876Y0072449D02*
X0114410Y0073983D01*
X0113643Y0073983D02*
X0115945Y0073983D01*
X0115945Y0072449D02*
X0115945Y0077053D01*
X0113643Y0077053D01*
X0112876Y0076285D01*
X0112876Y0074751D01*
X0113643Y0073983D01*
X0111341Y0074751D02*
X0109806Y0074751D01*
X0092925Y0072449D02*
X0092925Y0077053D01*
M02*
