%
M48
M72
T01C0.0150
T02C0.0200
T03C0.0315
T04C0.0400
T05C0.1181
%
T01
X7167Y12436
X7967Y12436
X9567Y12236
X10217Y13036
X10167Y13536
X9367Y14336
X7867Y15336
X6467Y14536
X5167Y14736
X5067Y15236
X5167Y13736
X9467Y16136
X11167Y15236
X12867Y16636
X12367Y18536
X12367Y19636
X12067Y20836
X8067Y20836
X8067Y19936
X8067Y19136
X6467Y19936
X5767Y19636
X5767Y20436
X6467Y20836
X4167Y20836
X4167Y18536
X6467Y17536
X11567Y12736
T02
X16717Y10431
X4317Y3631
X5117Y4131
X6617Y2631
X7717Y2631
X8817Y2631
X9917Y2631
X11017Y3131
X10817Y5331
X11017Y5931
X11117Y7331
X10817Y7731
X10918Y8332
X10117Y7731
X9917Y8231
X9417Y7531
X8817Y6731
X7717Y6631
X7117Y7131
X6817Y7531
X6417Y7331
X6617Y6631
X8517Y8431
X9717Y9431
X10117Y9431
X12117Y8231
X13617Y7331
X15017Y7331
X16417Y7331
X17817Y7331
X16417Y8531
X16017Y8731
X20417Y7431
X21017Y7031
X22017Y7731
X22817Y7731
X21317Y8931
X21317Y9931
X20417Y6031
X21017Y5531
X22017Y4331
X22817Y4331
X17817Y2531
X16417Y2531
X15017Y2531
X13617Y2531
X13617Y4831
X15017Y4831
X16417Y4831
X17817Y4831
X15653Y13885
X15253Y14285
X15953Y14785
X16153Y14185
X13953Y13985
X14253Y16285
X15953Y18085
X15953Y18985
X15953Y19785
X16053Y16485
X18253Y14985
X19253Y14985
X4317Y8431
T03
X20658Y11579
X20185Y11579
X19713Y11579
X19241Y11579
X18768Y11579
X18296Y11579
X17823Y11579
X17351Y11579
X9241Y11579
X8768Y11579
X8296Y11579
X7823Y11579
X7351Y11579
X6878Y11579
X6406Y11579
X5933Y11579
X5933Y10949
X6406Y10949
X6878Y10949
X7351Y10949
X7823Y10949
X8296Y10949
X8768Y10949
X9241Y10949
X17351Y10949
X17823Y10949
X18296Y10949
X18768Y10949
X19241Y10949
X19713Y10949
X20185Y10949
X20658Y10949
X13768Y19807
X13768Y19335
X13768Y18863
X14241Y18863
X14241Y19335
X14241Y19807
X13768Y17445
X14241Y17445
X14241Y17918
X14241Y18390
X13768Y18390
X13768Y17918
X5067Y19343
X5067Y20130
T04
X11017Y10092
X12017Y10092
X13017Y10092
X14017Y10092
X15017Y10092
X16017Y10092
X17417Y9931
X18417Y9931
X19417Y9931
X20417Y9931
X20417Y8931
X19417Y8931
X18417Y8931
X17417Y8931
X17553Y12685
X18553Y12585
X18553Y13585
X17553Y13685
X19553Y13685
X19553Y12685
X20753Y12685
X21753Y12685
X22753Y12685
X12867Y20436
X10867Y20136
X10867Y19136
X9867Y19236
X8867Y19136
X8867Y20136
X9867Y20236
X7367Y20136
X7367Y19136
T05
X4717Y9731
X22417Y9731
X22417Y2331
X4717Y2331
M30
