G75*
%MOIN*%
%OFA0B0*%
%FSLAX24Y24*%
%IPPOS*%
%LPD*%
%AMOC8*
5,1,8,0,0,1.08239X$1,22.5*
%
%ADD10C,0.0000*%
%ADD11R,0.0120X0.0390*%
%ADD12R,0.0551X0.0138*%
%ADD13R,0.0748X0.0709*%
%ADD14R,0.0748X0.0748*%
%ADD15R,0.0880X0.0480*%
%ADD16R,0.0866X0.1417*%
%ADD17R,0.1600X0.0600*%
%ADD18OC8,0.0740*%
%ADD19C,0.0104*%
%ADD20R,0.0295X0.0354*%
%ADD21C,0.0740*%
%ADD22R,0.0870X0.0240*%
%ADD23R,0.0354X0.0236*%
%ADD24R,0.0217X0.0472*%
%ADD25R,0.0591X0.1575*%
%ADD26R,0.0433X0.0394*%
%ADD27OC8,0.0515*%
%ADD28R,0.0551X0.0551*%
%ADD29R,0.1378X0.0630*%
%ADD30R,0.0394X0.0433*%
%ADD31R,0.0600X0.1600*%
%ADD32C,0.0160*%
%ADD33C,0.0100*%
%ADD34C,0.0320*%
%ADD35C,0.0270*%
%ADD36C,0.0250*%
D10*
X003717Y001725D02*
X003717Y010398D01*
X003719Y010437D01*
X003725Y010475D01*
X003734Y010512D01*
X003747Y010549D01*
X003764Y010584D01*
X003783Y010617D01*
X003806Y010648D01*
X003832Y010677D01*
X003861Y010703D01*
X003892Y010726D01*
X003925Y010745D01*
X003960Y010762D01*
X003997Y010775D01*
X004034Y010784D01*
X004072Y010790D01*
X004111Y010792D01*
X005225Y010792D01*
X005225Y010791D02*
X005264Y010793D01*
X005302Y010799D01*
X005339Y010808D01*
X005376Y010821D01*
X005411Y010838D01*
X005444Y010857D01*
X005475Y010880D01*
X005504Y010906D01*
X005530Y010935D01*
X005553Y010966D01*
X005572Y010999D01*
X005589Y011034D01*
X005602Y011071D01*
X005611Y011108D01*
X005617Y011146D01*
X005619Y011185D01*
X005618Y011185D02*
X005618Y011264D01*
X005619Y011342D01*
X005776Y011579D02*
X005778Y011604D01*
X005784Y011628D01*
X005793Y011650D01*
X005806Y011671D01*
X005822Y011690D01*
X005841Y011706D01*
X005862Y011719D01*
X005884Y011728D01*
X005908Y011734D01*
X005933Y011736D01*
X005958Y011734D01*
X005982Y011728D01*
X006004Y011719D01*
X006025Y011706D01*
X006044Y011690D01*
X006060Y011671D01*
X006073Y011650D01*
X006082Y011628D01*
X006088Y011604D01*
X006090Y011579D01*
X006088Y011554D01*
X006082Y011530D01*
X006073Y011508D01*
X006060Y011487D01*
X006044Y011468D01*
X006025Y011452D01*
X006004Y011439D01*
X005982Y011430D01*
X005958Y011424D01*
X005933Y011422D01*
X005908Y011424D01*
X005884Y011430D01*
X005862Y011439D01*
X005841Y011452D01*
X005822Y011468D01*
X005806Y011487D01*
X005793Y011508D01*
X005784Y011530D01*
X005778Y011554D01*
X005776Y011579D01*
X005225Y011736D02*
X004161Y011736D01*
X004122Y011738D01*
X004084Y011744D01*
X004047Y011753D01*
X004010Y011766D01*
X003975Y011783D01*
X003942Y011802D01*
X003911Y011825D01*
X003882Y011851D01*
X003856Y011880D01*
X003833Y011911D01*
X003814Y011944D01*
X003797Y011979D01*
X003784Y012016D01*
X003775Y012053D01*
X003769Y012091D01*
X003767Y012130D01*
X003767Y020791D01*
X003769Y020830D01*
X003775Y020868D01*
X003784Y020905D01*
X003797Y020942D01*
X003814Y020977D01*
X003833Y021010D01*
X003856Y021041D01*
X003882Y021070D01*
X003911Y021096D01*
X003942Y021119D01*
X003975Y021138D01*
X004010Y021155D01*
X004047Y021168D01*
X004084Y021177D01*
X004122Y021183D01*
X004161Y021185D01*
X013216Y021185D01*
X013254Y021183D01*
X013293Y021177D01*
X013330Y021168D01*
X013366Y021155D01*
X013401Y021139D01*
X013435Y021119D01*
X013466Y021096D01*
X013494Y021070D01*
X013520Y021041D01*
X013543Y021010D01*
X013563Y020977D01*
X013580Y020942D01*
X013593Y020906D01*
X013602Y020869D01*
X013608Y020831D01*
X013610Y020792D01*
X013609Y020792D02*
X013610Y020515D01*
X013609Y020515D02*
X013611Y020476D01*
X013617Y020438D01*
X013626Y020401D01*
X013639Y020364D01*
X013656Y020330D01*
X013676Y020297D01*
X013699Y020266D01*
X013725Y020237D01*
X013753Y020211D01*
X013784Y020188D01*
X013818Y020168D01*
X013852Y020152D01*
X013889Y020139D01*
X013926Y020130D01*
X013964Y020124D01*
X014003Y020122D01*
X014004Y020122D01*
X013611Y019807D02*
X013613Y019832D01*
X013619Y019856D01*
X013628Y019878D01*
X013641Y019899D01*
X013657Y019918D01*
X013676Y019934D01*
X013697Y019947D01*
X013719Y019956D01*
X013743Y019962D01*
X013768Y019964D01*
X013793Y019962D01*
X013817Y019956D01*
X013839Y019947D01*
X013860Y019934D01*
X013879Y019918D01*
X013895Y019899D01*
X013908Y019878D01*
X013917Y019856D01*
X013923Y019832D01*
X013925Y019807D01*
X013923Y019782D01*
X013917Y019758D01*
X013908Y019736D01*
X013895Y019715D01*
X013879Y019696D01*
X013860Y019680D01*
X013839Y019667D01*
X013817Y019658D01*
X013793Y019652D01*
X013768Y019650D01*
X013743Y019652D01*
X013719Y019658D01*
X013697Y019667D01*
X013676Y019680D01*
X013657Y019696D01*
X013641Y019715D01*
X013628Y019736D01*
X013619Y019758D01*
X013613Y019782D01*
X013611Y019807D01*
X013611Y019335D02*
X013613Y019360D01*
X013619Y019384D01*
X013628Y019406D01*
X013641Y019427D01*
X013657Y019446D01*
X013676Y019462D01*
X013697Y019475D01*
X013719Y019484D01*
X013743Y019490D01*
X013768Y019492D01*
X013793Y019490D01*
X013817Y019484D01*
X013839Y019475D01*
X013860Y019462D01*
X013879Y019446D01*
X013895Y019427D01*
X013908Y019406D01*
X013917Y019384D01*
X013923Y019360D01*
X013925Y019335D01*
X013923Y019310D01*
X013917Y019286D01*
X013908Y019264D01*
X013895Y019243D01*
X013879Y019224D01*
X013860Y019208D01*
X013839Y019195D01*
X013817Y019186D01*
X013793Y019180D01*
X013768Y019178D01*
X013743Y019180D01*
X013719Y019186D01*
X013697Y019195D01*
X013676Y019208D01*
X013657Y019224D01*
X013641Y019243D01*
X013628Y019264D01*
X013619Y019286D01*
X013613Y019310D01*
X013611Y019335D01*
X013611Y018863D02*
X013613Y018888D01*
X013619Y018912D01*
X013628Y018934D01*
X013641Y018955D01*
X013657Y018974D01*
X013676Y018990D01*
X013697Y019003D01*
X013719Y019012D01*
X013743Y019018D01*
X013768Y019020D01*
X013793Y019018D01*
X013817Y019012D01*
X013839Y019003D01*
X013860Y018990D01*
X013879Y018974D01*
X013895Y018955D01*
X013908Y018934D01*
X013917Y018912D01*
X013923Y018888D01*
X013925Y018863D01*
X013923Y018838D01*
X013917Y018814D01*
X013908Y018792D01*
X013895Y018771D01*
X013879Y018752D01*
X013860Y018736D01*
X013839Y018723D01*
X013817Y018714D01*
X013793Y018708D01*
X013768Y018706D01*
X013743Y018708D01*
X013719Y018714D01*
X013697Y018723D01*
X013676Y018736D01*
X013657Y018752D01*
X013641Y018771D01*
X013628Y018792D01*
X013619Y018814D01*
X013613Y018838D01*
X013611Y018863D01*
X014084Y018863D02*
X014086Y018888D01*
X014092Y018912D01*
X014101Y018934D01*
X014114Y018955D01*
X014130Y018974D01*
X014149Y018990D01*
X014170Y019003D01*
X014192Y019012D01*
X014216Y019018D01*
X014241Y019020D01*
X014266Y019018D01*
X014290Y019012D01*
X014312Y019003D01*
X014333Y018990D01*
X014352Y018974D01*
X014368Y018955D01*
X014381Y018934D01*
X014390Y018912D01*
X014396Y018888D01*
X014398Y018863D01*
X014396Y018838D01*
X014390Y018814D01*
X014381Y018792D01*
X014368Y018771D01*
X014352Y018752D01*
X014333Y018736D01*
X014312Y018723D01*
X014290Y018714D01*
X014266Y018708D01*
X014241Y018706D01*
X014216Y018708D01*
X014192Y018714D01*
X014170Y018723D01*
X014149Y018736D01*
X014130Y018752D01*
X014114Y018771D01*
X014101Y018792D01*
X014092Y018814D01*
X014086Y018838D01*
X014084Y018863D01*
X014084Y019335D02*
X014086Y019360D01*
X014092Y019384D01*
X014101Y019406D01*
X014114Y019427D01*
X014130Y019446D01*
X014149Y019462D01*
X014170Y019475D01*
X014192Y019484D01*
X014216Y019490D01*
X014241Y019492D01*
X014266Y019490D01*
X014290Y019484D01*
X014312Y019475D01*
X014333Y019462D01*
X014352Y019446D01*
X014368Y019427D01*
X014381Y019406D01*
X014390Y019384D01*
X014396Y019360D01*
X014398Y019335D01*
X014396Y019310D01*
X014390Y019286D01*
X014381Y019264D01*
X014368Y019243D01*
X014352Y019224D01*
X014333Y019208D01*
X014312Y019195D01*
X014290Y019186D01*
X014266Y019180D01*
X014241Y019178D01*
X014216Y019180D01*
X014192Y019186D01*
X014170Y019195D01*
X014149Y019208D01*
X014130Y019224D01*
X014114Y019243D01*
X014101Y019264D01*
X014092Y019286D01*
X014086Y019310D01*
X014084Y019335D01*
X014084Y019807D02*
X014086Y019832D01*
X014092Y019856D01*
X014101Y019878D01*
X014114Y019899D01*
X014130Y019918D01*
X014149Y019934D01*
X014170Y019947D01*
X014192Y019956D01*
X014216Y019962D01*
X014241Y019964D01*
X014266Y019962D01*
X014290Y019956D01*
X014312Y019947D01*
X014333Y019934D01*
X014352Y019918D01*
X014368Y019899D01*
X014381Y019878D01*
X014390Y019856D01*
X014396Y019832D01*
X014398Y019807D01*
X014396Y019782D01*
X014390Y019758D01*
X014381Y019736D01*
X014368Y019715D01*
X014352Y019696D01*
X014333Y019680D01*
X014312Y019667D01*
X014290Y019658D01*
X014266Y019652D01*
X014241Y019650D01*
X014216Y019652D01*
X014192Y019658D01*
X014170Y019667D01*
X014149Y019680D01*
X014130Y019696D01*
X014114Y019715D01*
X014101Y019736D01*
X014092Y019758D01*
X014086Y019782D01*
X014084Y019807D01*
X014004Y020122D02*
X014043Y020124D01*
X014081Y020130D01*
X014118Y020139D01*
X014155Y020152D01*
X014190Y020169D01*
X014223Y020188D01*
X014254Y020211D01*
X014283Y020237D01*
X014309Y020266D01*
X014332Y020297D01*
X014351Y020330D01*
X014368Y020365D01*
X014381Y020402D01*
X014390Y020439D01*
X014396Y020477D01*
X014398Y020516D01*
X014398Y020792D01*
X014400Y020831D01*
X014406Y020869D01*
X014415Y020906D01*
X014428Y020943D01*
X014445Y020978D01*
X014464Y021011D01*
X014487Y021042D01*
X014513Y021071D01*
X014542Y021097D01*
X014573Y021120D01*
X014606Y021139D01*
X014641Y021156D01*
X014678Y021169D01*
X014715Y021178D01*
X014753Y021184D01*
X014792Y021186D01*
X014792Y021185D02*
X023059Y021185D01*
X023059Y021186D02*
X023098Y021184D01*
X023136Y021178D01*
X023173Y021169D01*
X023210Y021156D01*
X023245Y021139D01*
X023278Y021120D01*
X023309Y021097D01*
X023338Y021071D01*
X023364Y021042D01*
X023387Y021011D01*
X023406Y020978D01*
X023423Y020943D01*
X023436Y020906D01*
X023445Y020869D01*
X023451Y020831D01*
X023453Y020792D01*
X023453Y012130D01*
X023451Y012091D01*
X023445Y012053D01*
X023436Y012016D01*
X023423Y011979D01*
X023406Y011944D01*
X023387Y011911D01*
X023364Y011880D01*
X023338Y011851D01*
X023309Y011825D01*
X023278Y011802D01*
X023245Y011783D01*
X023210Y011766D01*
X023173Y011753D01*
X023136Y011744D01*
X023098Y011738D01*
X023059Y011736D01*
X023059Y011737D02*
X021367Y011737D01*
X021328Y011735D01*
X021290Y011729D01*
X021253Y011720D01*
X021216Y011707D01*
X021181Y011690D01*
X021148Y011671D01*
X021117Y011648D01*
X021088Y011622D01*
X021062Y011593D01*
X021039Y011562D01*
X021020Y011529D01*
X021003Y011494D01*
X020990Y011457D01*
X020981Y011420D01*
X020975Y011382D01*
X020973Y011343D01*
X020973Y011304D01*
X020973Y011185D01*
X020501Y010949D02*
X020503Y010974D01*
X020509Y010998D01*
X020518Y011020D01*
X020531Y011041D01*
X020547Y011060D01*
X020566Y011076D01*
X020587Y011089D01*
X020609Y011098D01*
X020633Y011104D01*
X020658Y011106D01*
X020683Y011104D01*
X020707Y011098D01*
X020729Y011089D01*
X020750Y011076D01*
X020769Y011060D01*
X020785Y011041D01*
X020798Y011020D01*
X020807Y010998D01*
X020813Y010974D01*
X020815Y010949D01*
X020813Y010924D01*
X020807Y010900D01*
X020798Y010878D01*
X020785Y010857D01*
X020769Y010838D01*
X020750Y010822D01*
X020729Y010809D01*
X020707Y010800D01*
X020683Y010794D01*
X020658Y010792D01*
X020633Y010794D01*
X020609Y010800D01*
X020587Y010809D01*
X020566Y010822D01*
X020547Y010838D01*
X020531Y010857D01*
X020518Y010878D01*
X020509Y010900D01*
X020503Y010924D01*
X020501Y010949D01*
X020028Y010949D02*
X020030Y010974D01*
X020036Y010998D01*
X020045Y011020D01*
X020058Y011041D01*
X020074Y011060D01*
X020093Y011076D01*
X020114Y011089D01*
X020136Y011098D01*
X020160Y011104D01*
X020185Y011106D01*
X020210Y011104D01*
X020234Y011098D01*
X020256Y011089D01*
X020277Y011076D01*
X020296Y011060D01*
X020312Y011041D01*
X020325Y011020D01*
X020334Y010998D01*
X020340Y010974D01*
X020342Y010949D01*
X020340Y010924D01*
X020334Y010900D01*
X020325Y010878D01*
X020312Y010857D01*
X020296Y010838D01*
X020277Y010822D01*
X020256Y010809D01*
X020234Y010800D01*
X020210Y010794D01*
X020185Y010792D01*
X020160Y010794D01*
X020136Y010800D01*
X020114Y010809D01*
X020093Y010822D01*
X020074Y010838D01*
X020058Y010857D01*
X020045Y010878D01*
X020036Y010900D01*
X020030Y010924D01*
X020028Y010949D01*
X019556Y010949D02*
X019558Y010974D01*
X019564Y010998D01*
X019573Y011020D01*
X019586Y011041D01*
X019602Y011060D01*
X019621Y011076D01*
X019642Y011089D01*
X019664Y011098D01*
X019688Y011104D01*
X019713Y011106D01*
X019738Y011104D01*
X019762Y011098D01*
X019784Y011089D01*
X019805Y011076D01*
X019824Y011060D01*
X019840Y011041D01*
X019853Y011020D01*
X019862Y010998D01*
X019868Y010974D01*
X019870Y010949D01*
X019868Y010924D01*
X019862Y010900D01*
X019853Y010878D01*
X019840Y010857D01*
X019824Y010838D01*
X019805Y010822D01*
X019784Y010809D01*
X019762Y010800D01*
X019738Y010794D01*
X019713Y010792D01*
X019688Y010794D01*
X019664Y010800D01*
X019642Y010809D01*
X019621Y010822D01*
X019602Y010838D01*
X019586Y010857D01*
X019573Y010878D01*
X019564Y010900D01*
X019558Y010924D01*
X019556Y010949D01*
X019084Y010949D02*
X019086Y010974D01*
X019092Y010998D01*
X019101Y011020D01*
X019114Y011041D01*
X019130Y011060D01*
X019149Y011076D01*
X019170Y011089D01*
X019192Y011098D01*
X019216Y011104D01*
X019241Y011106D01*
X019266Y011104D01*
X019290Y011098D01*
X019312Y011089D01*
X019333Y011076D01*
X019352Y011060D01*
X019368Y011041D01*
X019381Y011020D01*
X019390Y010998D01*
X019396Y010974D01*
X019398Y010949D01*
X019396Y010924D01*
X019390Y010900D01*
X019381Y010878D01*
X019368Y010857D01*
X019352Y010838D01*
X019333Y010822D01*
X019312Y010809D01*
X019290Y010800D01*
X019266Y010794D01*
X019241Y010792D01*
X019216Y010794D01*
X019192Y010800D01*
X019170Y010809D01*
X019149Y010822D01*
X019130Y010838D01*
X019114Y010857D01*
X019101Y010878D01*
X019092Y010900D01*
X019086Y010924D01*
X019084Y010949D01*
X018611Y010949D02*
X018613Y010974D01*
X018619Y010998D01*
X018628Y011020D01*
X018641Y011041D01*
X018657Y011060D01*
X018676Y011076D01*
X018697Y011089D01*
X018719Y011098D01*
X018743Y011104D01*
X018768Y011106D01*
X018793Y011104D01*
X018817Y011098D01*
X018839Y011089D01*
X018860Y011076D01*
X018879Y011060D01*
X018895Y011041D01*
X018908Y011020D01*
X018917Y010998D01*
X018923Y010974D01*
X018925Y010949D01*
X018923Y010924D01*
X018917Y010900D01*
X018908Y010878D01*
X018895Y010857D01*
X018879Y010838D01*
X018860Y010822D01*
X018839Y010809D01*
X018817Y010800D01*
X018793Y010794D01*
X018768Y010792D01*
X018743Y010794D01*
X018719Y010800D01*
X018697Y010809D01*
X018676Y010822D01*
X018657Y010838D01*
X018641Y010857D01*
X018628Y010878D01*
X018619Y010900D01*
X018613Y010924D01*
X018611Y010949D01*
X018139Y010949D02*
X018141Y010974D01*
X018147Y010998D01*
X018156Y011020D01*
X018169Y011041D01*
X018185Y011060D01*
X018204Y011076D01*
X018225Y011089D01*
X018247Y011098D01*
X018271Y011104D01*
X018296Y011106D01*
X018321Y011104D01*
X018345Y011098D01*
X018367Y011089D01*
X018388Y011076D01*
X018407Y011060D01*
X018423Y011041D01*
X018436Y011020D01*
X018445Y010998D01*
X018451Y010974D01*
X018453Y010949D01*
X018451Y010924D01*
X018445Y010900D01*
X018436Y010878D01*
X018423Y010857D01*
X018407Y010838D01*
X018388Y010822D01*
X018367Y010809D01*
X018345Y010800D01*
X018321Y010794D01*
X018296Y010792D01*
X018271Y010794D01*
X018247Y010800D01*
X018225Y010809D01*
X018204Y010822D01*
X018185Y010838D01*
X018169Y010857D01*
X018156Y010878D01*
X018147Y010900D01*
X018141Y010924D01*
X018139Y010949D01*
X017666Y010949D02*
X017668Y010974D01*
X017674Y010998D01*
X017683Y011020D01*
X017696Y011041D01*
X017712Y011060D01*
X017731Y011076D01*
X017752Y011089D01*
X017774Y011098D01*
X017798Y011104D01*
X017823Y011106D01*
X017848Y011104D01*
X017872Y011098D01*
X017894Y011089D01*
X017915Y011076D01*
X017934Y011060D01*
X017950Y011041D01*
X017963Y011020D01*
X017972Y010998D01*
X017978Y010974D01*
X017980Y010949D01*
X017978Y010924D01*
X017972Y010900D01*
X017963Y010878D01*
X017950Y010857D01*
X017934Y010838D01*
X017915Y010822D01*
X017894Y010809D01*
X017872Y010800D01*
X017848Y010794D01*
X017823Y010792D01*
X017798Y010794D01*
X017774Y010800D01*
X017752Y010809D01*
X017731Y010822D01*
X017712Y010838D01*
X017696Y010857D01*
X017683Y010878D01*
X017674Y010900D01*
X017668Y010924D01*
X017666Y010949D01*
X017194Y010949D02*
X017196Y010974D01*
X017202Y010998D01*
X017211Y011020D01*
X017224Y011041D01*
X017240Y011060D01*
X017259Y011076D01*
X017280Y011089D01*
X017302Y011098D01*
X017326Y011104D01*
X017351Y011106D01*
X017376Y011104D01*
X017400Y011098D01*
X017422Y011089D01*
X017443Y011076D01*
X017462Y011060D01*
X017478Y011041D01*
X017491Y011020D01*
X017500Y010998D01*
X017506Y010974D01*
X017508Y010949D01*
X017506Y010924D01*
X017500Y010900D01*
X017491Y010878D01*
X017478Y010857D01*
X017462Y010838D01*
X017443Y010822D01*
X017422Y010809D01*
X017400Y010800D01*
X017376Y010794D01*
X017351Y010792D01*
X017326Y010794D01*
X017302Y010800D01*
X017280Y010809D01*
X017259Y010822D01*
X017240Y010838D01*
X017224Y010857D01*
X017211Y010878D01*
X017202Y010900D01*
X017196Y010924D01*
X017194Y010949D01*
X017036Y011225D02*
X017036Y011304D01*
X017036Y011343D01*
X017034Y011382D01*
X017028Y011420D01*
X017019Y011457D01*
X017006Y011494D01*
X016989Y011529D01*
X016970Y011562D01*
X016947Y011593D01*
X016921Y011622D01*
X016892Y011648D01*
X016861Y011671D01*
X016828Y011690D01*
X016793Y011707D01*
X016756Y011720D01*
X016719Y011729D01*
X016681Y011735D01*
X016642Y011737D01*
X014004Y011737D01*
X014004Y011736D02*
X013965Y011738D01*
X013927Y011744D01*
X013890Y011753D01*
X013853Y011766D01*
X013818Y011783D01*
X013785Y011802D01*
X013754Y011825D01*
X013725Y011851D01*
X013699Y011880D01*
X013676Y011911D01*
X013657Y011944D01*
X013640Y011979D01*
X013627Y012016D01*
X013618Y012053D01*
X013612Y012091D01*
X013610Y012130D01*
X013611Y012130D02*
X013611Y016067D01*
X014398Y016855D01*
X014396Y016886D01*
X014391Y016916D01*
X014383Y016946D01*
X014371Y016975D01*
X014356Y017002D01*
X014338Y017027D01*
X014317Y017050D01*
X014294Y017071D01*
X014269Y017089D01*
X014242Y017104D01*
X014213Y017116D01*
X014183Y017124D01*
X014153Y017129D01*
X014122Y017131D01*
X014122Y017130D02*
X014004Y017130D01*
X013887Y017130D01*
X013856Y017128D01*
X013826Y017123D01*
X013796Y017115D01*
X013767Y017103D01*
X013740Y017088D01*
X013715Y017070D01*
X013692Y017049D01*
X013671Y017026D01*
X013653Y017001D01*
X013638Y016974D01*
X013626Y016945D01*
X013617Y016916D01*
X013612Y016885D01*
X013610Y016854D01*
X013609Y016854D02*
X012937Y016182D01*
X012822Y015904D02*
X012822Y012130D01*
X012822Y012129D02*
X012820Y012091D01*
X012814Y012053D01*
X012804Y012016D01*
X012791Y011979D01*
X012775Y011944D01*
X012755Y011911D01*
X012732Y011881D01*
X012706Y011852D01*
X012677Y011826D01*
X012647Y011803D01*
X012613Y011783D01*
X012579Y011767D01*
X012542Y011754D01*
X012505Y011744D01*
X012467Y011738D01*
X012428Y011736D01*
X009949Y011737D01*
X009910Y011735D01*
X009872Y011729D01*
X009835Y011720D01*
X009798Y011707D01*
X009763Y011690D01*
X009730Y011671D01*
X009699Y011648D01*
X009670Y011622D01*
X009644Y011593D01*
X009621Y011562D01*
X009602Y011529D01*
X009585Y011494D01*
X009572Y011457D01*
X009563Y011420D01*
X009557Y011382D01*
X009555Y011343D01*
X009555Y011225D01*
X009084Y011579D02*
X009086Y011604D01*
X009092Y011628D01*
X009101Y011650D01*
X009114Y011671D01*
X009130Y011690D01*
X009149Y011706D01*
X009170Y011719D01*
X009192Y011728D01*
X009216Y011734D01*
X009241Y011736D01*
X009266Y011734D01*
X009290Y011728D01*
X009312Y011719D01*
X009333Y011706D01*
X009352Y011690D01*
X009368Y011671D01*
X009381Y011650D01*
X009390Y011628D01*
X009396Y011604D01*
X009398Y011579D01*
X009396Y011554D01*
X009390Y011530D01*
X009381Y011508D01*
X009368Y011487D01*
X009352Y011468D01*
X009333Y011452D01*
X009312Y011439D01*
X009290Y011430D01*
X009266Y011424D01*
X009241Y011422D01*
X009216Y011424D01*
X009192Y011430D01*
X009170Y011439D01*
X009149Y011452D01*
X009130Y011468D01*
X009114Y011487D01*
X009101Y011508D01*
X009092Y011530D01*
X009086Y011554D01*
X009084Y011579D01*
X008611Y011579D02*
X008613Y011604D01*
X008619Y011628D01*
X008628Y011650D01*
X008641Y011671D01*
X008657Y011690D01*
X008676Y011706D01*
X008697Y011719D01*
X008719Y011728D01*
X008743Y011734D01*
X008768Y011736D01*
X008793Y011734D01*
X008817Y011728D01*
X008839Y011719D01*
X008860Y011706D01*
X008879Y011690D01*
X008895Y011671D01*
X008908Y011650D01*
X008917Y011628D01*
X008923Y011604D01*
X008925Y011579D01*
X008923Y011554D01*
X008917Y011530D01*
X008908Y011508D01*
X008895Y011487D01*
X008879Y011468D01*
X008860Y011452D01*
X008839Y011439D01*
X008817Y011430D01*
X008793Y011424D01*
X008768Y011422D01*
X008743Y011424D01*
X008719Y011430D01*
X008697Y011439D01*
X008676Y011452D01*
X008657Y011468D01*
X008641Y011487D01*
X008628Y011508D01*
X008619Y011530D01*
X008613Y011554D01*
X008611Y011579D01*
X008139Y011579D02*
X008141Y011604D01*
X008147Y011628D01*
X008156Y011650D01*
X008169Y011671D01*
X008185Y011690D01*
X008204Y011706D01*
X008225Y011719D01*
X008247Y011728D01*
X008271Y011734D01*
X008296Y011736D01*
X008321Y011734D01*
X008345Y011728D01*
X008367Y011719D01*
X008388Y011706D01*
X008407Y011690D01*
X008423Y011671D01*
X008436Y011650D01*
X008445Y011628D01*
X008451Y011604D01*
X008453Y011579D01*
X008451Y011554D01*
X008445Y011530D01*
X008436Y011508D01*
X008423Y011487D01*
X008407Y011468D01*
X008388Y011452D01*
X008367Y011439D01*
X008345Y011430D01*
X008321Y011424D01*
X008296Y011422D01*
X008271Y011424D01*
X008247Y011430D01*
X008225Y011439D01*
X008204Y011452D01*
X008185Y011468D01*
X008169Y011487D01*
X008156Y011508D01*
X008147Y011530D01*
X008141Y011554D01*
X008139Y011579D01*
X007666Y011579D02*
X007668Y011604D01*
X007674Y011628D01*
X007683Y011650D01*
X007696Y011671D01*
X007712Y011690D01*
X007731Y011706D01*
X007752Y011719D01*
X007774Y011728D01*
X007798Y011734D01*
X007823Y011736D01*
X007848Y011734D01*
X007872Y011728D01*
X007894Y011719D01*
X007915Y011706D01*
X007934Y011690D01*
X007950Y011671D01*
X007963Y011650D01*
X007972Y011628D01*
X007978Y011604D01*
X007980Y011579D01*
X007978Y011554D01*
X007972Y011530D01*
X007963Y011508D01*
X007950Y011487D01*
X007934Y011468D01*
X007915Y011452D01*
X007894Y011439D01*
X007872Y011430D01*
X007848Y011424D01*
X007823Y011422D01*
X007798Y011424D01*
X007774Y011430D01*
X007752Y011439D01*
X007731Y011452D01*
X007712Y011468D01*
X007696Y011487D01*
X007683Y011508D01*
X007674Y011530D01*
X007668Y011554D01*
X007666Y011579D01*
X007194Y011579D02*
X007196Y011604D01*
X007202Y011628D01*
X007211Y011650D01*
X007224Y011671D01*
X007240Y011690D01*
X007259Y011706D01*
X007280Y011719D01*
X007302Y011728D01*
X007326Y011734D01*
X007351Y011736D01*
X007376Y011734D01*
X007400Y011728D01*
X007422Y011719D01*
X007443Y011706D01*
X007462Y011690D01*
X007478Y011671D01*
X007491Y011650D01*
X007500Y011628D01*
X007506Y011604D01*
X007508Y011579D01*
X007506Y011554D01*
X007500Y011530D01*
X007491Y011508D01*
X007478Y011487D01*
X007462Y011468D01*
X007443Y011452D01*
X007422Y011439D01*
X007400Y011430D01*
X007376Y011424D01*
X007351Y011422D01*
X007326Y011424D01*
X007302Y011430D01*
X007280Y011439D01*
X007259Y011452D01*
X007240Y011468D01*
X007224Y011487D01*
X007211Y011508D01*
X007202Y011530D01*
X007196Y011554D01*
X007194Y011579D01*
X006721Y011579D02*
X006723Y011604D01*
X006729Y011628D01*
X006738Y011650D01*
X006751Y011671D01*
X006767Y011690D01*
X006786Y011706D01*
X006807Y011719D01*
X006829Y011728D01*
X006853Y011734D01*
X006878Y011736D01*
X006903Y011734D01*
X006927Y011728D01*
X006949Y011719D01*
X006970Y011706D01*
X006989Y011690D01*
X007005Y011671D01*
X007018Y011650D01*
X007027Y011628D01*
X007033Y011604D01*
X007035Y011579D01*
X007033Y011554D01*
X007027Y011530D01*
X007018Y011508D01*
X007005Y011487D01*
X006989Y011468D01*
X006970Y011452D01*
X006949Y011439D01*
X006927Y011430D01*
X006903Y011424D01*
X006878Y011422D01*
X006853Y011424D01*
X006829Y011430D01*
X006807Y011439D01*
X006786Y011452D01*
X006767Y011468D01*
X006751Y011487D01*
X006738Y011508D01*
X006729Y011530D01*
X006723Y011554D01*
X006721Y011579D01*
X006249Y011579D02*
X006251Y011604D01*
X006257Y011628D01*
X006266Y011650D01*
X006279Y011671D01*
X006295Y011690D01*
X006314Y011706D01*
X006335Y011719D01*
X006357Y011728D01*
X006381Y011734D01*
X006406Y011736D01*
X006431Y011734D01*
X006455Y011728D01*
X006477Y011719D01*
X006498Y011706D01*
X006517Y011690D01*
X006533Y011671D01*
X006546Y011650D01*
X006555Y011628D01*
X006561Y011604D01*
X006563Y011579D01*
X006561Y011554D01*
X006555Y011530D01*
X006546Y011508D01*
X006533Y011487D01*
X006517Y011468D01*
X006498Y011452D01*
X006477Y011439D01*
X006455Y011430D01*
X006431Y011424D01*
X006406Y011422D01*
X006381Y011424D01*
X006357Y011430D01*
X006335Y011439D01*
X006314Y011452D01*
X006295Y011468D01*
X006279Y011487D01*
X006266Y011508D01*
X006257Y011530D01*
X006251Y011554D01*
X006249Y011579D01*
X006249Y010949D02*
X006251Y010974D01*
X006257Y010998D01*
X006266Y011020D01*
X006279Y011041D01*
X006295Y011060D01*
X006314Y011076D01*
X006335Y011089D01*
X006357Y011098D01*
X006381Y011104D01*
X006406Y011106D01*
X006431Y011104D01*
X006455Y011098D01*
X006477Y011089D01*
X006498Y011076D01*
X006517Y011060D01*
X006533Y011041D01*
X006546Y011020D01*
X006555Y010998D01*
X006561Y010974D01*
X006563Y010949D01*
X006561Y010924D01*
X006555Y010900D01*
X006546Y010878D01*
X006533Y010857D01*
X006517Y010838D01*
X006498Y010822D01*
X006477Y010809D01*
X006455Y010800D01*
X006431Y010794D01*
X006406Y010792D01*
X006381Y010794D01*
X006357Y010800D01*
X006335Y010809D01*
X006314Y010822D01*
X006295Y010838D01*
X006279Y010857D01*
X006266Y010878D01*
X006257Y010900D01*
X006251Y010924D01*
X006249Y010949D01*
X005776Y010949D02*
X005778Y010974D01*
X005784Y010998D01*
X005793Y011020D01*
X005806Y011041D01*
X005822Y011060D01*
X005841Y011076D01*
X005862Y011089D01*
X005884Y011098D01*
X005908Y011104D01*
X005933Y011106D01*
X005958Y011104D01*
X005982Y011098D01*
X006004Y011089D01*
X006025Y011076D01*
X006044Y011060D01*
X006060Y011041D01*
X006073Y011020D01*
X006082Y010998D01*
X006088Y010974D01*
X006090Y010949D01*
X006088Y010924D01*
X006082Y010900D01*
X006073Y010878D01*
X006060Y010857D01*
X006044Y010838D01*
X006025Y010822D01*
X006004Y010809D01*
X005982Y010800D01*
X005958Y010794D01*
X005933Y010792D01*
X005908Y010794D01*
X005884Y010800D01*
X005862Y010809D01*
X005841Y010822D01*
X005822Y010838D01*
X005806Y010857D01*
X005793Y010878D01*
X005784Y010900D01*
X005778Y010924D01*
X005776Y010949D01*
X005619Y011343D02*
X005617Y011381D01*
X005611Y011420D01*
X005602Y011457D01*
X005589Y011494D01*
X005573Y011529D01*
X005553Y011562D01*
X005530Y011593D01*
X005504Y011622D01*
X005475Y011648D01*
X005444Y011671D01*
X005411Y011690D01*
X005376Y011707D01*
X005339Y011720D01*
X005302Y011729D01*
X005264Y011735D01*
X005225Y011737D01*
X006721Y010949D02*
X006723Y010974D01*
X006729Y010998D01*
X006738Y011020D01*
X006751Y011041D01*
X006767Y011060D01*
X006786Y011076D01*
X006807Y011089D01*
X006829Y011098D01*
X006853Y011104D01*
X006878Y011106D01*
X006903Y011104D01*
X006927Y011098D01*
X006949Y011089D01*
X006970Y011076D01*
X006989Y011060D01*
X007005Y011041D01*
X007018Y011020D01*
X007027Y010998D01*
X007033Y010974D01*
X007035Y010949D01*
X007033Y010924D01*
X007027Y010900D01*
X007018Y010878D01*
X007005Y010857D01*
X006989Y010838D01*
X006970Y010822D01*
X006949Y010809D01*
X006927Y010800D01*
X006903Y010794D01*
X006878Y010792D01*
X006853Y010794D01*
X006829Y010800D01*
X006807Y010809D01*
X006786Y010822D01*
X006767Y010838D01*
X006751Y010857D01*
X006738Y010878D01*
X006729Y010900D01*
X006723Y010924D01*
X006721Y010949D01*
X007194Y010949D02*
X007196Y010974D01*
X007202Y010998D01*
X007211Y011020D01*
X007224Y011041D01*
X007240Y011060D01*
X007259Y011076D01*
X007280Y011089D01*
X007302Y011098D01*
X007326Y011104D01*
X007351Y011106D01*
X007376Y011104D01*
X007400Y011098D01*
X007422Y011089D01*
X007443Y011076D01*
X007462Y011060D01*
X007478Y011041D01*
X007491Y011020D01*
X007500Y010998D01*
X007506Y010974D01*
X007508Y010949D01*
X007506Y010924D01*
X007500Y010900D01*
X007491Y010878D01*
X007478Y010857D01*
X007462Y010838D01*
X007443Y010822D01*
X007422Y010809D01*
X007400Y010800D01*
X007376Y010794D01*
X007351Y010792D01*
X007326Y010794D01*
X007302Y010800D01*
X007280Y010809D01*
X007259Y010822D01*
X007240Y010838D01*
X007224Y010857D01*
X007211Y010878D01*
X007202Y010900D01*
X007196Y010924D01*
X007194Y010949D01*
X007666Y010949D02*
X007668Y010974D01*
X007674Y010998D01*
X007683Y011020D01*
X007696Y011041D01*
X007712Y011060D01*
X007731Y011076D01*
X007752Y011089D01*
X007774Y011098D01*
X007798Y011104D01*
X007823Y011106D01*
X007848Y011104D01*
X007872Y011098D01*
X007894Y011089D01*
X007915Y011076D01*
X007934Y011060D01*
X007950Y011041D01*
X007963Y011020D01*
X007972Y010998D01*
X007978Y010974D01*
X007980Y010949D01*
X007978Y010924D01*
X007972Y010900D01*
X007963Y010878D01*
X007950Y010857D01*
X007934Y010838D01*
X007915Y010822D01*
X007894Y010809D01*
X007872Y010800D01*
X007848Y010794D01*
X007823Y010792D01*
X007798Y010794D01*
X007774Y010800D01*
X007752Y010809D01*
X007731Y010822D01*
X007712Y010838D01*
X007696Y010857D01*
X007683Y010878D01*
X007674Y010900D01*
X007668Y010924D01*
X007666Y010949D01*
X008139Y010949D02*
X008141Y010974D01*
X008147Y010998D01*
X008156Y011020D01*
X008169Y011041D01*
X008185Y011060D01*
X008204Y011076D01*
X008225Y011089D01*
X008247Y011098D01*
X008271Y011104D01*
X008296Y011106D01*
X008321Y011104D01*
X008345Y011098D01*
X008367Y011089D01*
X008388Y011076D01*
X008407Y011060D01*
X008423Y011041D01*
X008436Y011020D01*
X008445Y010998D01*
X008451Y010974D01*
X008453Y010949D01*
X008451Y010924D01*
X008445Y010900D01*
X008436Y010878D01*
X008423Y010857D01*
X008407Y010838D01*
X008388Y010822D01*
X008367Y010809D01*
X008345Y010800D01*
X008321Y010794D01*
X008296Y010792D01*
X008271Y010794D01*
X008247Y010800D01*
X008225Y010809D01*
X008204Y010822D01*
X008185Y010838D01*
X008169Y010857D01*
X008156Y010878D01*
X008147Y010900D01*
X008141Y010924D01*
X008139Y010949D01*
X008611Y010949D02*
X008613Y010974D01*
X008619Y010998D01*
X008628Y011020D01*
X008641Y011041D01*
X008657Y011060D01*
X008676Y011076D01*
X008697Y011089D01*
X008719Y011098D01*
X008743Y011104D01*
X008768Y011106D01*
X008793Y011104D01*
X008817Y011098D01*
X008839Y011089D01*
X008860Y011076D01*
X008879Y011060D01*
X008895Y011041D01*
X008908Y011020D01*
X008917Y010998D01*
X008923Y010974D01*
X008925Y010949D01*
X008923Y010924D01*
X008917Y010900D01*
X008908Y010878D01*
X008895Y010857D01*
X008879Y010838D01*
X008860Y010822D01*
X008839Y010809D01*
X008817Y010800D01*
X008793Y010794D01*
X008768Y010792D01*
X008743Y010794D01*
X008719Y010800D01*
X008697Y010809D01*
X008676Y010822D01*
X008657Y010838D01*
X008641Y010857D01*
X008628Y010878D01*
X008619Y010900D01*
X008613Y010924D01*
X008611Y010949D01*
X009084Y010949D02*
X009086Y010974D01*
X009092Y010998D01*
X009101Y011020D01*
X009114Y011041D01*
X009130Y011060D01*
X009149Y011076D01*
X009170Y011089D01*
X009192Y011098D01*
X009216Y011104D01*
X009241Y011106D01*
X009266Y011104D01*
X009290Y011098D01*
X009312Y011089D01*
X009333Y011076D01*
X009352Y011060D01*
X009368Y011041D01*
X009381Y011020D01*
X009390Y010998D01*
X009396Y010974D01*
X009398Y010949D01*
X009396Y010924D01*
X009390Y010900D01*
X009381Y010878D01*
X009368Y010857D01*
X009352Y010838D01*
X009333Y010822D01*
X009312Y010809D01*
X009290Y010800D01*
X009266Y010794D01*
X009241Y010792D01*
X009216Y010794D01*
X009192Y010800D01*
X009170Y010809D01*
X009149Y010822D01*
X009130Y010838D01*
X009114Y010857D01*
X009101Y010878D01*
X009092Y010900D01*
X009086Y010924D01*
X009084Y010949D01*
X009949Y010831D02*
X016642Y010831D01*
X016681Y010833D01*
X016719Y010839D01*
X016756Y010848D01*
X016793Y010861D01*
X016828Y010878D01*
X016861Y010897D01*
X016892Y010920D01*
X016921Y010946D01*
X016947Y010975D01*
X016970Y011006D01*
X016989Y011039D01*
X017006Y011074D01*
X017019Y011111D01*
X017028Y011148D01*
X017034Y011186D01*
X017036Y011225D01*
X017194Y011579D02*
X017196Y011604D01*
X017202Y011628D01*
X017211Y011650D01*
X017224Y011671D01*
X017240Y011690D01*
X017259Y011706D01*
X017280Y011719D01*
X017302Y011728D01*
X017326Y011734D01*
X017351Y011736D01*
X017376Y011734D01*
X017400Y011728D01*
X017422Y011719D01*
X017443Y011706D01*
X017462Y011690D01*
X017478Y011671D01*
X017491Y011650D01*
X017500Y011628D01*
X017506Y011604D01*
X017508Y011579D01*
X017506Y011554D01*
X017500Y011530D01*
X017491Y011508D01*
X017478Y011487D01*
X017462Y011468D01*
X017443Y011452D01*
X017422Y011439D01*
X017400Y011430D01*
X017376Y011424D01*
X017351Y011422D01*
X017326Y011424D01*
X017302Y011430D01*
X017280Y011439D01*
X017259Y011452D01*
X017240Y011468D01*
X017224Y011487D01*
X017211Y011508D01*
X017202Y011530D01*
X017196Y011554D01*
X017194Y011579D01*
X017666Y011579D02*
X017668Y011604D01*
X017674Y011628D01*
X017683Y011650D01*
X017696Y011671D01*
X017712Y011690D01*
X017731Y011706D01*
X017752Y011719D01*
X017774Y011728D01*
X017798Y011734D01*
X017823Y011736D01*
X017848Y011734D01*
X017872Y011728D01*
X017894Y011719D01*
X017915Y011706D01*
X017934Y011690D01*
X017950Y011671D01*
X017963Y011650D01*
X017972Y011628D01*
X017978Y011604D01*
X017980Y011579D01*
X017978Y011554D01*
X017972Y011530D01*
X017963Y011508D01*
X017950Y011487D01*
X017934Y011468D01*
X017915Y011452D01*
X017894Y011439D01*
X017872Y011430D01*
X017848Y011424D01*
X017823Y011422D01*
X017798Y011424D01*
X017774Y011430D01*
X017752Y011439D01*
X017731Y011452D01*
X017712Y011468D01*
X017696Y011487D01*
X017683Y011508D01*
X017674Y011530D01*
X017668Y011554D01*
X017666Y011579D01*
X018139Y011579D02*
X018141Y011604D01*
X018147Y011628D01*
X018156Y011650D01*
X018169Y011671D01*
X018185Y011690D01*
X018204Y011706D01*
X018225Y011719D01*
X018247Y011728D01*
X018271Y011734D01*
X018296Y011736D01*
X018321Y011734D01*
X018345Y011728D01*
X018367Y011719D01*
X018388Y011706D01*
X018407Y011690D01*
X018423Y011671D01*
X018436Y011650D01*
X018445Y011628D01*
X018451Y011604D01*
X018453Y011579D01*
X018451Y011554D01*
X018445Y011530D01*
X018436Y011508D01*
X018423Y011487D01*
X018407Y011468D01*
X018388Y011452D01*
X018367Y011439D01*
X018345Y011430D01*
X018321Y011424D01*
X018296Y011422D01*
X018271Y011424D01*
X018247Y011430D01*
X018225Y011439D01*
X018204Y011452D01*
X018185Y011468D01*
X018169Y011487D01*
X018156Y011508D01*
X018147Y011530D01*
X018141Y011554D01*
X018139Y011579D01*
X018611Y011579D02*
X018613Y011604D01*
X018619Y011628D01*
X018628Y011650D01*
X018641Y011671D01*
X018657Y011690D01*
X018676Y011706D01*
X018697Y011719D01*
X018719Y011728D01*
X018743Y011734D01*
X018768Y011736D01*
X018793Y011734D01*
X018817Y011728D01*
X018839Y011719D01*
X018860Y011706D01*
X018879Y011690D01*
X018895Y011671D01*
X018908Y011650D01*
X018917Y011628D01*
X018923Y011604D01*
X018925Y011579D01*
X018923Y011554D01*
X018917Y011530D01*
X018908Y011508D01*
X018895Y011487D01*
X018879Y011468D01*
X018860Y011452D01*
X018839Y011439D01*
X018817Y011430D01*
X018793Y011424D01*
X018768Y011422D01*
X018743Y011424D01*
X018719Y011430D01*
X018697Y011439D01*
X018676Y011452D01*
X018657Y011468D01*
X018641Y011487D01*
X018628Y011508D01*
X018619Y011530D01*
X018613Y011554D01*
X018611Y011579D01*
X019084Y011579D02*
X019086Y011604D01*
X019092Y011628D01*
X019101Y011650D01*
X019114Y011671D01*
X019130Y011690D01*
X019149Y011706D01*
X019170Y011719D01*
X019192Y011728D01*
X019216Y011734D01*
X019241Y011736D01*
X019266Y011734D01*
X019290Y011728D01*
X019312Y011719D01*
X019333Y011706D01*
X019352Y011690D01*
X019368Y011671D01*
X019381Y011650D01*
X019390Y011628D01*
X019396Y011604D01*
X019398Y011579D01*
X019396Y011554D01*
X019390Y011530D01*
X019381Y011508D01*
X019368Y011487D01*
X019352Y011468D01*
X019333Y011452D01*
X019312Y011439D01*
X019290Y011430D01*
X019266Y011424D01*
X019241Y011422D01*
X019216Y011424D01*
X019192Y011430D01*
X019170Y011439D01*
X019149Y011452D01*
X019130Y011468D01*
X019114Y011487D01*
X019101Y011508D01*
X019092Y011530D01*
X019086Y011554D01*
X019084Y011579D01*
X019556Y011579D02*
X019558Y011604D01*
X019564Y011628D01*
X019573Y011650D01*
X019586Y011671D01*
X019602Y011690D01*
X019621Y011706D01*
X019642Y011719D01*
X019664Y011728D01*
X019688Y011734D01*
X019713Y011736D01*
X019738Y011734D01*
X019762Y011728D01*
X019784Y011719D01*
X019805Y011706D01*
X019824Y011690D01*
X019840Y011671D01*
X019853Y011650D01*
X019862Y011628D01*
X019868Y011604D01*
X019870Y011579D01*
X019868Y011554D01*
X019862Y011530D01*
X019853Y011508D01*
X019840Y011487D01*
X019824Y011468D01*
X019805Y011452D01*
X019784Y011439D01*
X019762Y011430D01*
X019738Y011424D01*
X019713Y011422D01*
X019688Y011424D01*
X019664Y011430D01*
X019642Y011439D01*
X019621Y011452D01*
X019602Y011468D01*
X019586Y011487D01*
X019573Y011508D01*
X019564Y011530D01*
X019558Y011554D01*
X019556Y011579D01*
X020028Y011579D02*
X020030Y011604D01*
X020036Y011628D01*
X020045Y011650D01*
X020058Y011671D01*
X020074Y011690D01*
X020093Y011706D01*
X020114Y011719D01*
X020136Y011728D01*
X020160Y011734D01*
X020185Y011736D01*
X020210Y011734D01*
X020234Y011728D01*
X020256Y011719D01*
X020277Y011706D01*
X020296Y011690D01*
X020312Y011671D01*
X020325Y011650D01*
X020334Y011628D01*
X020340Y011604D01*
X020342Y011579D01*
X020340Y011554D01*
X020334Y011530D01*
X020325Y011508D01*
X020312Y011487D01*
X020296Y011468D01*
X020277Y011452D01*
X020256Y011439D01*
X020234Y011430D01*
X020210Y011424D01*
X020185Y011422D01*
X020160Y011424D01*
X020136Y011430D01*
X020114Y011439D01*
X020093Y011452D01*
X020074Y011468D01*
X020058Y011487D01*
X020045Y011508D01*
X020036Y011530D01*
X020030Y011554D01*
X020028Y011579D01*
X020501Y011579D02*
X020503Y011604D01*
X020509Y011628D01*
X020518Y011650D01*
X020531Y011671D01*
X020547Y011690D01*
X020566Y011706D01*
X020587Y011719D01*
X020609Y011728D01*
X020633Y011734D01*
X020658Y011736D01*
X020683Y011734D01*
X020707Y011728D01*
X020729Y011719D01*
X020750Y011706D01*
X020769Y011690D01*
X020785Y011671D01*
X020798Y011650D01*
X020807Y011628D01*
X020813Y011604D01*
X020815Y011579D01*
X020813Y011554D01*
X020807Y011530D01*
X020798Y011508D01*
X020785Y011487D01*
X020769Y011468D01*
X020750Y011452D01*
X020729Y011439D01*
X020707Y011430D01*
X020683Y011424D01*
X020658Y011422D01*
X020633Y011424D01*
X020609Y011430D01*
X020587Y011439D01*
X020566Y011452D01*
X020547Y011468D01*
X020531Y011487D01*
X020518Y011508D01*
X020509Y011530D01*
X020503Y011554D01*
X020501Y011579D01*
X020973Y011185D02*
X020975Y011146D01*
X020981Y011108D01*
X020990Y011071D01*
X021003Y011034D01*
X021020Y010999D01*
X021039Y010966D01*
X021062Y010935D01*
X021088Y010906D01*
X021117Y010880D01*
X021148Y010857D01*
X021181Y010838D01*
X021216Y010821D01*
X021253Y010808D01*
X021290Y010799D01*
X021328Y010793D01*
X021367Y010791D01*
X021367Y010792D02*
X022626Y010792D01*
X023008Y010792D01*
X023047Y010790D01*
X023085Y010784D01*
X023122Y010775D01*
X023159Y010762D01*
X023194Y010745D01*
X023227Y010726D01*
X023258Y010703D01*
X023287Y010677D01*
X023313Y010648D01*
X023336Y010617D01*
X023355Y010584D01*
X023372Y010549D01*
X023385Y010512D01*
X023394Y010475D01*
X023400Y010437D01*
X023402Y010398D01*
X023402Y001725D01*
X023400Y001686D01*
X023394Y001648D01*
X023385Y001611D01*
X023372Y001574D01*
X023355Y001539D01*
X023336Y001506D01*
X023313Y001475D01*
X023287Y001446D01*
X023258Y001420D01*
X023227Y001397D01*
X023194Y001378D01*
X023159Y001361D01*
X023122Y001348D01*
X023085Y001339D01*
X023047Y001333D01*
X023008Y001331D01*
X004111Y001331D01*
X004072Y001333D01*
X004034Y001339D01*
X003997Y001348D01*
X003960Y001361D01*
X003925Y001378D01*
X003892Y001397D01*
X003861Y001420D01*
X003832Y001446D01*
X003806Y001475D01*
X003783Y001506D01*
X003764Y001539D01*
X003747Y001574D01*
X003734Y001611D01*
X003725Y001648D01*
X003719Y001686D01*
X003717Y001725D01*
X004126Y002331D02*
X004128Y002379D01*
X004134Y002427D01*
X004144Y002474D01*
X004157Y002520D01*
X004175Y002565D01*
X004195Y002609D01*
X004220Y002651D01*
X004248Y002690D01*
X004278Y002727D01*
X004312Y002761D01*
X004349Y002793D01*
X004387Y002822D01*
X004428Y002847D01*
X004471Y002869D01*
X004516Y002887D01*
X004562Y002901D01*
X004609Y002912D01*
X004657Y002919D01*
X004705Y002922D01*
X004753Y002921D01*
X004801Y002916D01*
X004849Y002907D01*
X004895Y002895D01*
X004940Y002878D01*
X004984Y002858D01*
X005026Y002835D01*
X005066Y002808D01*
X005104Y002778D01*
X005139Y002745D01*
X005171Y002709D01*
X005201Y002671D01*
X005227Y002630D01*
X005249Y002587D01*
X005269Y002543D01*
X005284Y002498D01*
X005296Y002451D01*
X005304Y002403D01*
X005308Y002355D01*
X005308Y002307D01*
X005304Y002259D01*
X005296Y002211D01*
X005284Y002164D01*
X005269Y002119D01*
X005249Y002075D01*
X005227Y002032D01*
X005201Y001991D01*
X005171Y001953D01*
X005139Y001917D01*
X005104Y001884D01*
X005066Y001854D01*
X005026Y001827D01*
X004984Y001804D01*
X004940Y001784D01*
X004895Y001767D01*
X004849Y001755D01*
X004801Y001746D01*
X004753Y001741D01*
X004705Y001740D01*
X004657Y001743D01*
X004609Y001750D01*
X004562Y001761D01*
X004516Y001775D01*
X004471Y001793D01*
X004428Y001815D01*
X004387Y001840D01*
X004349Y001869D01*
X004312Y001901D01*
X004278Y001935D01*
X004248Y001972D01*
X004220Y002011D01*
X004195Y002053D01*
X004175Y002097D01*
X004157Y002142D01*
X004144Y002188D01*
X004134Y002235D01*
X004128Y002283D01*
X004126Y002331D01*
X004126Y009731D02*
X004128Y009779D01*
X004134Y009827D01*
X004144Y009874D01*
X004157Y009920D01*
X004175Y009965D01*
X004195Y010009D01*
X004220Y010051D01*
X004248Y010090D01*
X004278Y010127D01*
X004312Y010161D01*
X004349Y010193D01*
X004387Y010222D01*
X004428Y010247D01*
X004471Y010269D01*
X004516Y010287D01*
X004562Y010301D01*
X004609Y010312D01*
X004657Y010319D01*
X004705Y010322D01*
X004753Y010321D01*
X004801Y010316D01*
X004849Y010307D01*
X004895Y010295D01*
X004940Y010278D01*
X004984Y010258D01*
X005026Y010235D01*
X005066Y010208D01*
X005104Y010178D01*
X005139Y010145D01*
X005171Y010109D01*
X005201Y010071D01*
X005227Y010030D01*
X005249Y009987D01*
X005269Y009943D01*
X005284Y009898D01*
X005296Y009851D01*
X005304Y009803D01*
X005308Y009755D01*
X005308Y009707D01*
X005304Y009659D01*
X005296Y009611D01*
X005284Y009564D01*
X005269Y009519D01*
X005249Y009475D01*
X005227Y009432D01*
X005201Y009391D01*
X005171Y009353D01*
X005139Y009317D01*
X005104Y009284D01*
X005066Y009254D01*
X005026Y009227D01*
X004984Y009204D01*
X004940Y009184D01*
X004895Y009167D01*
X004849Y009155D01*
X004801Y009146D01*
X004753Y009141D01*
X004705Y009140D01*
X004657Y009143D01*
X004609Y009150D01*
X004562Y009161D01*
X004516Y009175D01*
X004471Y009193D01*
X004428Y009215D01*
X004387Y009240D01*
X004349Y009269D01*
X004312Y009301D01*
X004278Y009335D01*
X004248Y009372D01*
X004220Y009411D01*
X004195Y009453D01*
X004175Y009497D01*
X004157Y009542D01*
X004144Y009588D01*
X004134Y009635D01*
X004128Y009683D01*
X004126Y009731D01*
X009555Y011225D02*
X009557Y011186D01*
X009563Y011148D01*
X009572Y011111D01*
X009585Y011074D01*
X009602Y011039D01*
X009621Y011006D01*
X009644Y010975D01*
X009670Y010946D01*
X009699Y010920D01*
X009730Y010897D01*
X009763Y010878D01*
X009798Y010861D01*
X009835Y010848D01*
X009872Y010839D01*
X009910Y010833D01*
X009949Y010831D01*
X012822Y015904D02*
X012824Y015943D01*
X012830Y015981D01*
X012839Y016018D01*
X012852Y016055D01*
X012869Y016090D01*
X012888Y016123D01*
X012911Y016154D01*
X012937Y016183D01*
X013611Y017445D02*
X013613Y017470D01*
X013619Y017494D01*
X013628Y017516D01*
X013641Y017537D01*
X013657Y017556D01*
X013676Y017572D01*
X013697Y017585D01*
X013719Y017594D01*
X013743Y017600D01*
X013768Y017602D01*
X013793Y017600D01*
X013817Y017594D01*
X013839Y017585D01*
X013860Y017572D01*
X013879Y017556D01*
X013895Y017537D01*
X013908Y017516D01*
X013917Y017494D01*
X013923Y017470D01*
X013925Y017445D01*
X013923Y017420D01*
X013917Y017396D01*
X013908Y017374D01*
X013895Y017353D01*
X013879Y017334D01*
X013860Y017318D01*
X013839Y017305D01*
X013817Y017296D01*
X013793Y017290D01*
X013768Y017288D01*
X013743Y017290D01*
X013719Y017296D01*
X013697Y017305D01*
X013676Y017318D01*
X013657Y017334D01*
X013641Y017353D01*
X013628Y017374D01*
X013619Y017396D01*
X013613Y017420D01*
X013611Y017445D01*
X013611Y017918D02*
X013613Y017943D01*
X013619Y017967D01*
X013628Y017989D01*
X013641Y018010D01*
X013657Y018029D01*
X013676Y018045D01*
X013697Y018058D01*
X013719Y018067D01*
X013743Y018073D01*
X013768Y018075D01*
X013793Y018073D01*
X013817Y018067D01*
X013839Y018058D01*
X013860Y018045D01*
X013879Y018029D01*
X013895Y018010D01*
X013908Y017989D01*
X013917Y017967D01*
X013923Y017943D01*
X013925Y017918D01*
X013923Y017893D01*
X013917Y017869D01*
X013908Y017847D01*
X013895Y017826D01*
X013879Y017807D01*
X013860Y017791D01*
X013839Y017778D01*
X013817Y017769D01*
X013793Y017763D01*
X013768Y017761D01*
X013743Y017763D01*
X013719Y017769D01*
X013697Y017778D01*
X013676Y017791D01*
X013657Y017807D01*
X013641Y017826D01*
X013628Y017847D01*
X013619Y017869D01*
X013613Y017893D01*
X013611Y017918D01*
X013611Y018390D02*
X013613Y018415D01*
X013619Y018439D01*
X013628Y018461D01*
X013641Y018482D01*
X013657Y018501D01*
X013676Y018517D01*
X013697Y018530D01*
X013719Y018539D01*
X013743Y018545D01*
X013768Y018547D01*
X013793Y018545D01*
X013817Y018539D01*
X013839Y018530D01*
X013860Y018517D01*
X013879Y018501D01*
X013895Y018482D01*
X013908Y018461D01*
X013917Y018439D01*
X013923Y018415D01*
X013925Y018390D01*
X013923Y018365D01*
X013917Y018341D01*
X013908Y018319D01*
X013895Y018298D01*
X013879Y018279D01*
X013860Y018263D01*
X013839Y018250D01*
X013817Y018241D01*
X013793Y018235D01*
X013768Y018233D01*
X013743Y018235D01*
X013719Y018241D01*
X013697Y018250D01*
X013676Y018263D01*
X013657Y018279D01*
X013641Y018298D01*
X013628Y018319D01*
X013619Y018341D01*
X013613Y018365D01*
X013611Y018390D01*
X014084Y018390D02*
X014086Y018415D01*
X014092Y018439D01*
X014101Y018461D01*
X014114Y018482D01*
X014130Y018501D01*
X014149Y018517D01*
X014170Y018530D01*
X014192Y018539D01*
X014216Y018545D01*
X014241Y018547D01*
X014266Y018545D01*
X014290Y018539D01*
X014312Y018530D01*
X014333Y018517D01*
X014352Y018501D01*
X014368Y018482D01*
X014381Y018461D01*
X014390Y018439D01*
X014396Y018415D01*
X014398Y018390D01*
X014396Y018365D01*
X014390Y018341D01*
X014381Y018319D01*
X014368Y018298D01*
X014352Y018279D01*
X014333Y018263D01*
X014312Y018250D01*
X014290Y018241D01*
X014266Y018235D01*
X014241Y018233D01*
X014216Y018235D01*
X014192Y018241D01*
X014170Y018250D01*
X014149Y018263D01*
X014130Y018279D01*
X014114Y018298D01*
X014101Y018319D01*
X014092Y018341D01*
X014086Y018365D01*
X014084Y018390D01*
X014084Y017918D02*
X014086Y017943D01*
X014092Y017967D01*
X014101Y017989D01*
X014114Y018010D01*
X014130Y018029D01*
X014149Y018045D01*
X014170Y018058D01*
X014192Y018067D01*
X014216Y018073D01*
X014241Y018075D01*
X014266Y018073D01*
X014290Y018067D01*
X014312Y018058D01*
X014333Y018045D01*
X014352Y018029D01*
X014368Y018010D01*
X014381Y017989D01*
X014390Y017967D01*
X014396Y017943D01*
X014398Y017918D01*
X014396Y017893D01*
X014390Y017869D01*
X014381Y017847D01*
X014368Y017826D01*
X014352Y017807D01*
X014333Y017791D01*
X014312Y017778D01*
X014290Y017769D01*
X014266Y017763D01*
X014241Y017761D01*
X014216Y017763D01*
X014192Y017769D01*
X014170Y017778D01*
X014149Y017791D01*
X014130Y017807D01*
X014114Y017826D01*
X014101Y017847D01*
X014092Y017869D01*
X014086Y017893D01*
X014084Y017918D01*
X014084Y017445D02*
X014086Y017470D01*
X014092Y017494D01*
X014101Y017516D01*
X014114Y017537D01*
X014130Y017556D01*
X014149Y017572D01*
X014170Y017585D01*
X014192Y017594D01*
X014216Y017600D01*
X014241Y017602D01*
X014266Y017600D01*
X014290Y017594D01*
X014312Y017585D01*
X014333Y017572D01*
X014352Y017556D01*
X014368Y017537D01*
X014381Y017516D01*
X014390Y017494D01*
X014396Y017470D01*
X014398Y017445D01*
X014396Y017420D01*
X014390Y017396D01*
X014381Y017374D01*
X014368Y017353D01*
X014352Y017334D01*
X014333Y017318D01*
X014312Y017305D01*
X014290Y017296D01*
X014266Y017290D01*
X014241Y017288D01*
X014216Y017290D01*
X014192Y017296D01*
X014170Y017305D01*
X014149Y017318D01*
X014130Y017334D01*
X014114Y017353D01*
X014101Y017374D01*
X014092Y017396D01*
X014086Y017420D01*
X014084Y017445D01*
X021826Y009731D02*
X021828Y009779D01*
X021834Y009827D01*
X021844Y009874D01*
X021857Y009920D01*
X021875Y009965D01*
X021895Y010009D01*
X021920Y010051D01*
X021948Y010090D01*
X021978Y010127D01*
X022012Y010161D01*
X022049Y010193D01*
X022087Y010222D01*
X022128Y010247D01*
X022171Y010269D01*
X022216Y010287D01*
X022262Y010301D01*
X022309Y010312D01*
X022357Y010319D01*
X022405Y010322D01*
X022453Y010321D01*
X022501Y010316D01*
X022549Y010307D01*
X022595Y010295D01*
X022640Y010278D01*
X022684Y010258D01*
X022726Y010235D01*
X022766Y010208D01*
X022804Y010178D01*
X022839Y010145D01*
X022871Y010109D01*
X022901Y010071D01*
X022927Y010030D01*
X022949Y009987D01*
X022969Y009943D01*
X022984Y009898D01*
X022996Y009851D01*
X023004Y009803D01*
X023008Y009755D01*
X023008Y009707D01*
X023004Y009659D01*
X022996Y009611D01*
X022984Y009564D01*
X022969Y009519D01*
X022949Y009475D01*
X022927Y009432D01*
X022901Y009391D01*
X022871Y009353D01*
X022839Y009317D01*
X022804Y009284D01*
X022766Y009254D01*
X022726Y009227D01*
X022684Y009204D01*
X022640Y009184D01*
X022595Y009167D01*
X022549Y009155D01*
X022501Y009146D01*
X022453Y009141D01*
X022405Y009140D01*
X022357Y009143D01*
X022309Y009150D01*
X022262Y009161D01*
X022216Y009175D01*
X022171Y009193D01*
X022128Y009215D01*
X022087Y009240D01*
X022049Y009269D01*
X022012Y009301D01*
X021978Y009335D01*
X021948Y009372D01*
X021920Y009411D01*
X021895Y009453D01*
X021875Y009497D01*
X021857Y009542D01*
X021844Y009588D01*
X021834Y009635D01*
X021828Y009683D01*
X021826Y009731D01*
X021826Y002331D02*
X021828Y002379D01*
X021834Y002427D01*
X021844Y002474D01*
X021857Y002520D01*
X021875Y002565D01*
X021895Y002609D01*
X021920Y002651D01*
X021948Y002690D01*
X021978Y002727D01*
X022012Y002761D01*
X022049Y002793D01*
X022087Y002822D01*
X022128Y002847D01*
X022171Y002869D01*
X022216Y002887D01*
X022262Y002901D01*
X022309Y002912D01*
X022357Y002919D01*
X022405Y002922D01*
X022453Y002921D01*
X022501Y002916D01*
X022549Y002907D01*
X022595Y002895D01*
X022640Y002878D01*
X022684Y002858D01*
X022726Y002835D01*
X022766Y002808D01*
X022804Y002778D01*
X022839Y002745D01*
X022871Y002709D01*
X022901Y002671D01*
X022927Y002630D01*
X022949Y002587D01*
X022969Y002543D01*
X022984Y002498D01*
X022996Y002451D01*
X023004Y002403D01*
X023008Y002355D01*
X023008Y002307D01*
X023004Y002259D01*
X022996Y002211D01*
X022984Y002164D01*
X022969Y002119D01*
X022949Y002075D01*
X022927Y002032D01*
X022901Y001991D01*
X022871Y001953D01*
X022839Y001917D01*
X022804Y001884D01*
X022766Y001854D01*
X022726Y001827D01*
X022684Y001804D01*
X022640Y001784D01*
X022595Y001767D01*
X022549Y001755D01*
X022501Y001746D01*
X022453Y001741D01*
X022405Y001740D01*
X022357Y001743D01*
X022309Y001750D01*
X022262Y001761D01*
X022216Y001775D01*
X022171Y001793D01*
X022128Y001815D01*
X022087Y001840D01*
X022049Y001869D01*
X022012Y001901D01*
X021978Y001935D01*
X021948Y001972D01*
X021920Y002011D01*
X021895Y002053D01*
X021875Y002097D01*
X021857Y002142D01*
X021844Y002188D01*
X021834Y002235D01*
X021828Y002283D01*
X021826Y002331D01*
D11*
X011768Y006682D03*
X011513Y006682D03*
X011257Y006682D03*
X011001Y006682D03*
X010745Y006682D03*
X010489Y006682D03*
X010233Y006682D03*
X009977Y006682D03*
X009721Y006682D03*
X009465Y006682D03*
X009465Y008980D03*
X009721Y008980D03*
X009977Y008980D03*
X010233Y008980D03*
X010489Y008980D03*
X010745Y008980D03*
X011001Y008980D03*
X011257Y008980D03*
X011513Y008980D03*
X011768Y008980D03*
D12*
X005360Y006543D03*
X005360Y006287D03*
X005360Y006031D03*
X005360Y005775D03*
X005360Y005519D03*
D13*
X004317Y004456D03*
X004317Y007606D03*
D14*
X004317Y006531D03*
X004317Y005531D03*
D15*
X007097Y005341D03*
X007097Y004431D03*
X007097Y003521D03*
D16*
X009537Y004431D03*
D17*
X022417Y005031D03*
X022417Y007031D03*
D18*
X020417Y008931D03*
X019417Y008931D03*
X018417Y008931D03*
X017417Y008931D03*
X017417Y009931D03*
X018417Y009931D03*
X019417Y009931D03*
X020417Y009931D03*
X019553Y012685D03*
X018553Y012585D03*
X018553Y013585D03*
X017553Y013685D03*
X017553Y012685D03*
X019553Y013685D03*
X010867Y019136D03*
X010867Y020136D03*
X009867Y020236D03*
X008867Y020136D03*
X008867Y019136D03*
X009867Y019236D03*
D19*
X008115Y010159D02*
X007019Y010159D01*
X008115Y010159D02*
X008115Y009903D01*
X007019Y009903D01*
X007019Y010159D01*
X007019Y010006D02*
X008115Y010006D01*
X008115Y010109D02*
X007019Y010109D01*
X007019Y009659D02*
X008115Y009659D01*
X008115Y009403D01*
X007019Y009403D01*
X007019Y009659D01*
X007019Y009506D02*
X008115Y009506D01*
X008115Y009609D02*
X007019Y009609D01*
X007019Y009159D02*
X008115Y009159D01*
X008115Y008903D01*
X007019Y008903D01*
X007019Y009159D01*
X007019Y009006D02*
X008115Y009006D01*
X008115Y009109D02*
X007019Y009109D01*
X007019Y008659D02*
X008115Y008659D01*
X008115Y008403D01*
X007019Y008403D01*
X007019Y008659D01*
X007019Y008506D02*
X008115Y008506D01*
X008115Y008609D02*
X007019Y008609D01*
X007019Y008159D02*
X008115Y008159D01*
X008115Y007903D01*
X007019Y007903D01*
X007019Y008159D01*
X007019Y008006D02*
X008115Y008006D01*
X008115Y008109D02*
X007019Y008109D01*
X006615Y008159D02*
X005519Y008159D01*
X006615Y008159D02*
X006615Y007903D01*
X005519Y007903D01*
X005519Y008159D01*
X005519Y008006D02*
X006615Y008006D01*
X006615Y008109D02*
X005519Y008109D01*
X005519Y008659D02*
X006615Y008659D01*
X006615Y008403D01*
X005519Y008403D01*
X005519Y008659D01*
X005519Y008506D02*
X006615Y008506D01*
X006615Y008609D02*
X005519Y008609D01*
X005519Y009159D02*
X006615Y009159D01*
X006615Y008903D01*
X005519Y008903D01*
X005519Y009159D01*
X005519Y009006D02*
X006615Y009006D01*
X006615Y009109D02*
X005519Y009109D01*
X005519Y009659D02*
X006615Y009659D01*
X006615Y009403D01*
X005519Y009403D01*
X005519Y009659D01*
X005519Y009506D02*
X006615Y009506D01*
X006615Y009609D02*
X005519Y009609D01*
X005519Y010159D02*
X006615Y010159D01*
X006615Y009903D01*
X005519Y009903D01*
X005519Y010159D01*
X005519Y010006D02*
X006615Y010006D01*
X006615Y010109D02*
X005519Y010109D01*
D20*
X009741Y006131D03*
X010293Y006131D03*
X010441Y004331D03*
X010993Y004331D03*
X010993Y003731D03*
X010441Y003731D03*
D21*
X011017Y010092D03*
X012017Y010092D03*
X013017Y010092D03*
X014017Y010092D03*
X015017Y010092D03*
X016017Y010092D03*
X020753Y012685D03*
X021753Y012685D03*
X022753Y012685D03*
X012867Y020436D03*
X007367Y020136D03*
X007367Y019136D03*
D22*
X008737Y014286D03*
X008737Y013786D03*
X008737Y013286D03*
X008737Y012786D03*
X010797Y012786D03*
X010797Y013286D03*
X010797Y013786D03*
X010797Y014286D03*
X016723Y015735D03*
X016723Y016235D03*
X016723Y016735D03*
X016723Y017235D03*
X018783Y017235D03*
X018783Y016735D03*
X018783Y016235D03*
X018783Y015735D03*
D23*
X006020Y016062D03*
X006020Y016436D03*
X006020Y016810D03*
X005114Y016810D03*
X005114Y016436D03*
X005114Y016062D03*
D24*
X006793Y014048D03*
X007167Y014048D03*
X007541Y014048D03*
X007541Y013024D03*
X006793Y013024D03*
D25*
X005876Y014236D03*
X004458Y014236D03*
D26*
X006667Y015202D03*
X007267Y015202D03*
X007267Y015871D03*
X006667Y015871D03*
X005802Y017536D03*
X005132Y017536D03*
D27*
X005067Y019343D03*
X005067Y020130D03*
D28*
X006419Y018136D03*
X007915Y018136D03*
D29*
X008365Y016136D03*
X010569Y016136D03*
D30*
X005702Y012736D03*
X005032Y012736D03*
D31*
X014203Y012735D03*
X016203Y012735D03*
D32*
X017253Y013985D02*
X017553Y013685D01*
X017253Y013985D02*
X017253Y015205D01*
X016723Y015735D01*
X011017Y010092D02*
X010489Y009564D01*
X010489Y008980D01*
X010489Y006682D01*
X010489Y006328D01*
X010293Y006131D01*
X010341Y006082D02*
X010341Y005731D01*
X008917Y005731D01*
X008217Y006431D01*
X008217Y007731D01*
X007917Y008031D01*
X007867Y008031D01*
X006017Y006431D02*
X005917Y006531D01*
X005372Y006531D01*
X006017Y006431D02*
X006017Y004031D01*
X006527Y003521D01*
X007097Y003521D01*
X007097Y003151D01*
X007217Y003031D01*
X010217Y003031D01*
X010417Y003231D01*
X010417Y003707D01*
X010441Y003731D01*
X010017Y003549D02*
X010017Y003431D01*
X007737Y003431D01*
X007737Y003844D01*
X007620Y003961D01*
X006717Y003961D01*
X006717Y004011D01*
X007057Y004011D01*
X007057Y004391D01*
X007137Y004391D01*
X007137Y004471D01*
X007717Y004471D01*
X007717Y004695D01*
X007705Y004741D01*
X007681Y004782D01*
X007647Y004815D01*
X007606Y004839D01*
X007561Y004851D01*
X007137Y004851D01*
X007137Y004471D01*
X007057Y004471D01*
X007057Y004851D01*
X006717Y004851D01*
X006717Y004901D01*
X007620Y004901D01*
X007737Y005018D01*
X007737Y005664D01*
X007620Y005781D01*
X006717Y005781D01*
X006717Y006031D01*
X008517Y006031D01*
X008517Y005431D01*
X010017Y005431D01*
X010017Y005314D01*
X009994Y005320D01*
X009617Y005320D01*
X009617Y004511D01*
X009457Y004511D01*
X009457Y004351D01*
X009617Y004351D01*
X009617Y003542D01*
X009994Y003542D01*
X010017Y003549D01*
X009617Y003561D02*
X009457Y003561D01*
X009457Y003542D02*
X009457Y004351D01*
X008924Y004351D01*
X008924Y003699D01*
X008936Y003653D01*
X008960Y003612D01*
X008993Y003578D01*
X009034Y003555D01*
X009080Y003542D01*
X009457Y003542D01*
X009457Y003719D02*
X009617Y003719D01*
X009617Y003878D02*
X009457Y003878D01*
X009457Y004036D02*
X009617Y004036D01*
X009617Y004195D02*
X009457Y004195D01*
X009457Y004353D02*
X007717Y004353D01*
X007717Y004391D02*
X007137Y004391D01*
X007137Y004011D01*
X007561Y004011D01*
X007606Y004023D01*
X007647Y004047D01*
X007681Y004081D01*
X007705Y004122D01*
X007717Y004167D01*
X007717Y004391D01*
X007717Y004512D02*
X008924Y004512D01*
X008924Y004511D02*
X009457Y004511D01*
X009457Y005320D01*
X009080Y005320D01*
X009034Y005307D01*
X008993Y005284D01*
X008960Y005250D01*
X008936Y005209D01*
X008924Y005163D01*
X008924Y004511D01*
X008924Y004670D02*
X007717Y004670D01*
X007624Y004829D02*
X008924Y004829D01*
X008924Y004987D02*
X007706Y004987D01*
X007737Y005146D02*
X008924Y005146D01*
X009029Y005304D02*
X007737Y005304D01*
X007737Y005463D02*
X008517Y005463D01*
X008517Y005621D02*
X007737Y005621D01*
X007621Y005780D02*
X008517Y005780D01*
X008517Y005938D02*
X006717Y005938D01*
X007097Y005341D02*
X006327Y005341D01*
X006317Y005331D01*
X007057Y004829D02*
X007137Y004829D01*
X007137Y004670D02*
X007057Y004670D01*
X007057Y004512D02*
X007137Y004512D01*
X007097Y004431D02*
X009537Y004431D01*
X010341Y004431D01*
X010341Y005731D01*
X009617Y005304D02*
X009457Y005304D01*
X009457Y005146D02*
X009617Y005146D01*
X009617Y004987D02*
X009457Y004987D01*
X009457Y004829D02*
X009617Y004829D01*
X009617Y004670D02*
X009457Y004670D01*
X009457Y004512D02*
X009617Y004512D01*
X010341Y004431D02*
X010441Y004331D01*
X008924Y004195D02*
X007717Y004195D01*
X007629Y004036D02*
X008924Y004036D01*
X008924Y003878D02*
X007703Y003878D01*
X007737Y003719D02*
X008924Y003719D01*
X009024Y003561D02*
X007737Y003561D01*
X007137Y004036D02*
X007057Y004036D01*
X007057Y004195D02*
X007137Y004195D01*
X007137Y004353D02*
X007057Y004353D01*
D33*
X006417Y004357D02*
X006247Y004357D01*
X006247Y004455D02*
X006417Y004455D01*
X006417Y004554D02*
X006247Y004554D01*
X006247Y004652D02*
X006417Y004652D01*
X006417Y004751D02*
X006247Y004751D01*
X006247Y004849D02*
X006417Y004849D01*
X006417Y004948D02*
X006247Y004948D01*
X006247Y005046D02*
X006417Y005046D01*
X006417Y005145D02*
X006247Y005145D01*
X006247Y005243D02*
X006417Y005243D01*
X006417Y005342D02*
X006247Y005342D01*
X006247Y005440D02*
X006417Y005440D01*
X006417Y005539D02*
X006247Y005539D01*
X006247Y005637D02*
X006417Y005637D01*
X006417Y005736D02*
X006247Y005736D01*
X006247Y005834D02*
X006417Y005834D01*
X006417Y005933D02*
X006247Y005933D01*
X006247Y006031D02*
X006417Y006031D01*
X006417Y006130D02*
X006247Y006130D01*
X006247Y006228D02*
X006417Y006228D01*
X006417Y006327D02*
X006247Y006327D01*
X006247Y006425D02*
X007987Y006425D01*
X007987Y006336D02*
X007992Y006331D01*
X006417Y006331D01*
X006417Y003956D01*
X006247Y004126D01*
X006247Y006526D01*
X006147Y006626D01*
X006012Y006761D01*
X005699Y006761D01*
X005698Y006762D01*
X005022Y006762D01*
X004935Y006674D01*
X004935Y005644D01*
X004942Y005637D01*
X004935Y005608D01*
X004935Y005519D01*
X004935Y005431D01*
X004945Y005392D01*
X004965Y005358D01*
X004993Y005330D01*
X005027Y005311D01*
X005065Y005300D01*
X005360Y005300D01*
X005360Y005519D01*
X005360Y005519D01*
X004935Y005519D01*
X005360Y005519D01*
X005360Y005519D01*
X005360Y005300D01*
X005656Y005300D01*
X005694Y005311D01*
X005728Y005330D01*
X005756Y005358D01*
X005776Y005392D01*
X005786Y005431D01*
X005786Y005519D01*
X005360Y005519D01*
X005360Y005519D01*
X005786Y005519D01*
X005786Y005608D01*
X005778Y005637D01*
X005786Y005644D01*
X005786Y006301D01*
X005787Y006301D01*
X005787Y003936D01*
X005922Y003801D01*
X006417Y003306D01*
X006417Y001481D01*
X004111Y001481D01*
X004063Y001486D01*
X003975Y001522D01*
X003908Y001589D01*
X003872Y001677D01*
X003867Y001725D01*
X003867Y003973D01*
X003885Y003962D01*
X003923Y003952D01*
X004267Y003952D01*
X004267Y004406D01*
X004367Y004406D01*
X004367Y003952D01*
X004711Y003952D01*
X004749Y003962D01*
X004783Y003982D01*
X004811Y004010D01*
X004831Y004044D01*
X004841Y004082D01*
X004841Y004406D01*
X004367Y004406D01*
X004367Y004506D01*
X004841Y004506D01*
X004841Y004830D01*
X004831Y004869D01*
X004811Y004903D01*
X004783Y004931D01*
X004749Y004950D01*
X004711Y004961D01*
X004367Y004961D01*
X004367Y004506D01*
X004267Y004506D01*
X004267Y004961D01*
X003923Y004961D01*
X003885Y004950D01*
X003867Y004940D01*
X003867Y005021D01*
X003881Y005007D01*
X004753Y005007D01*
X004841Y005095D01*
X004841Y005967D01*
X004777Y006031D01*
X004841Y006095D01*
X004841Y006967D01*
X004753Y007055D01*
X003881Y007055D01*
X003867Y007041D01*
X003867Y007122D01*
X003885Y007112D01*
X003923Y007102D01*
X004267Y007102D01*
X004267Y007556D01*
X004367Y007556D01*
X004367Y007656D01*
X004267Y007656D01*
X004267Y008110D01*
X003923Y008110D01*
X003885Y008100D01*
X003867Y008090D01*
X003867Y010398D01*
X003872Y010446D01*
X003908Y010533D01*
X003975Y010601D01*
X004063Y010637D01*
X004111Y010642D01*
X005333Y010642D01*
X005533Y010725D01*
X005639Y010831D01*
X005650Y010831D01*
X005673Y010775D01*
X005759Y010689D01*
X005872Y010642D01*
X005995Y010642D01*
X006108Y010689D01*
X006170Y010751D01*
X006232Y010689D01*
X006345Y010642D01*
X006467Y010642D01*
X006580Y010689D01*
X006642Y010751D01*
X006704Y010689D01*
X006817Y010642D01*
X006939Y010642D01*
X007053Y010689D01*
X007115Y010751D01*
X007177Y010689D01*
X007290Y010642D01*
X007412Y010642D01*
X007525Y010689D01*
X007587Y010751D01*
X007649Y010689D01*
X007762Y010642D01*
X007884Y010642D01*
X007997Y010689D01*
X008059Y010751D01*
X008121Y010689D01*
X008234Y010642D01*
X008357Y010642D01*
X008470Y010689D01*
X008532Y010751D01*
X008594Y010689D01*
X008707Y010642D01*
X008829Y010642D01*
X008942Y010689D01*
X009004Y010751D01*
X009066Y010689D01*
X009179Y010642D01*
X009302Y010642D01*
X009415Y010689D01*
X009501Y010775D01*
X009524Y010831D01*
X009574Y010831D01*
X009641Y010764D01*
X009641Y010764D01*
X009841Y010681D01*
X012584Y010681D01*
X012374Y010471D01*
X012356Y010488D01*
X012289Y010536D01*
X012217Y010574D01*
X012139Y010599D01*
X012067Y010610D01*
X012067Y010142D01*
X011967Y010142D01*
X011967Y010610D01*
X011895Y010599D01*
X011817Y010574D01*
X011744Y010536D01*
X011678Y010488D01*
X011620Y010430D01*
X011572Y010364D01*
X011535Y010291D01*
X011518Y010240D01*
X011458Y010386D01*
X011311Y010533D01*
X011120Y010612D01*
X010913Y010612D01*
X010722Y010533D01*
X010576Y010386D01*
X010497Y010195D01*
X010497Y009988D01*
X010524Y009924D01*
X010394Y009794D01*
X010293Y009693D01*
X010293Y009694D01*
X010179Y009741D01*
X010055Y009741D01*
X009941Y009694D01*
X009917Y009670D01*
X009893Y009694D01*
X009779Y009741D01*
X009655Y009741D01*
X009541Y009694D01*
X009454Y009607D01*
X009407Y009493D01*
X009407Y009404D01*
X009317Y009314D01*
X009317Y009914D01*
X009200Y010031D01*
X008600Y010631D01*
X006234Y010631D01*
X006117Y010514D01*
X005964Y010361D01*
X005435Y010361D01*
X005317Y010243D01*
X005317Y010178D01*
X005136Y010359D01*
X004864Y010472D01*
X004570Y010472D01*
X004297Y010359D01*
X004089Y010151D01*
X003976Y009878D01*
X003976Y009584D01*
X004089Y009312D01*
X004297Y009103D01*
X004570Y008991D01*
X004864Y008991D01*
X005136Y009103D01*
X005335Y009302D01*
X005355Y009281D01*
X005317Y009243D01*
X005317Y008820D01*
X005355Y008781D01*
X005317Y008743D01*
X005317Y008614D01*
X005234Y008531D01*
X005117Y008414D01*
X005117Y007748D01*
X005617Y007248D01*
X005734Y007131D01*
X006179Y007131D01*
X006241Y007068D01*
X006355Y007021D01*
X006479Y007021D01*
X006593Y007068D01*
X006680Y007156D01*
X006714Y007238D01*
X006755Y007221D01*
X006879Y007221D01*
X006993Y007268D01*
X007080Y007356D01*
X007127Y007469D01*
X007127Y007593D01*
X007082Y007701D01*
X007922Y007701D01*
X007987Y007636D01*
X007987Y006336D01*
X007987Y006524D02*
X006247Y006524D01*
X006151Y006622D02*
X007987Y006622D01*
X007987Y006721D02*
X006052Y006721D01*
X006195Y007115D02*
X004754Y007115D01*
X004749Y007112D02*
X004783Y007132D01*
X004811Y007159D01*
X004831Y007194D01*
X004841Y007232D01*
X004841Y007556D01*
X004367Y007556D01*
X004367Y007102D01*
X004711Y007102D01*
X004749Y007112D01*
X004792Y007016D02*
X007987Y007016D01*
X007987Y006918D02*
X004841Y006918D01*
X004841Y006819D02*
X007987Y006819D01*
X007987Y007115D02*
X006639Y007115D01*
X006704Y007213D02*
X007987Y007213D01*
X007987Y007312D02*
X007036Y007312D01*
X007102Y007410D02*
X007987Y007410D01*
X007987Y007509D02*
X007127Y007509D01*
X007121Y007607D02*
X007987Y007607D01*
X007867Y008031D02*
X007567Y008031D01*
X007607Y008491D02*
X007607Y008571D01*
X008317Y008571D01*
X008317Y008686D01*
X008303Y008737D01*
X008278Y008781D01*
X008303Y008825D01*
X008317Y008877D01*
X008317Y008991D01*
X007607Y008991D01*
X007607Y009071D01*
X008317Y009071D01*
X008317Y009186D01*
X008303Y009237D01*
X008278Y009281D01*
X008303Y009325D01*
X008317Y009377D01*
X008317Y009491D01*
X007607Y009491D01*
X007607Y009571D01*
X008317Y009571D01*
X008317Y009686D01*
X008303Y009737D01*
X008278Y009781D01*
X008303Y009825D01*
X008317Y009877D01*
X008317Y009991D01*
X007607Y009991D01*
X007607Y010071D01*
X008317Y010071D01*
X008317Y010186D01*
X008305Y010231D01*
X008434Y010231D01*
X008917Y009748D01*
X008917Y007348D01*
X009217Y007048D01*
X009291Y006975D01*
X009285Y006969D01*
X009266Y006935D01*
X009255Y006897D01*
X009255Y006682D01*
X009255Y006468D01*
X009266Y006429D01*
X009285Y006395D01*
X009313Y006367D01*
X009347Y006348D01*
X009386Y006337D01*
X009446Y006337D01*
X009445Y006331D01*
X008642Y006331D01*
X008447Y006526D01*
X008447Y007826D01*
X008317Y007956D01*
X008317Y008243D01*
X008278Y008282D01*
X008303Y008325D01*
X008317Y008377D01*
X008317Y008491D01*
X007607Y008491D01*
X007607Y008494D02*
X008917Y008494D01*
X008917Y008592D02*
X008317Y008592D01*
X008315Y008691D02*
X008917Y008691D01*
X008917Y008789D02*
X008282Y008789D01*
X008317Y008888D02*
X008917Y008888D01*
X008917Y008986D02*
X008317Y008986D01*
X008317Y009085D02*
X008917Y009085D01*
X008917Y009183D02*
X008317Y009183D01*
X008278Y009282D02*
X008917Y009282D01*
X008917Y009380D02*
X008317Y009380D01*
X008317Y009479D02*
X008917Y009479D01*
X008917Y009577D02*
X008317Y009577D01*
X008317Y009676D02*
X008917Y009676D01*
X008891Y009774D02*
X008282Y009774D01*
X008316Y009873D02*
X008792Y009873D01*
X008694Y009971D02*
X008317Y009971D01*
X008317Y010168D02*
X008497Y010168D01*
X008595Y010070D02*
X007607Y010070D01*
X007607Y009991D02*
X007607Y009701D01*
X007607Y009571D01*
X007527Y009571D01*
X007527Y009491D01*
X007607Y009491D01*
X007607Y009201D01*
X007607Y009071D01*
X007527Y009071D01*
X007527Y008991D01*
X007607Y008991D01*
X007607Y008701D01*
X007607Y008571D01*
X007527Y008571D01*
X007527Y008491D01*
X006817Y008491D01*
X006817Y008377D01*
X006831Y008325D01*
X006856Y008282D01*
X006817Y008243D01*
X006817Y007841D01*
X006817Y007841D01*
X006817Y008243D01*
X006778Y008281D01*
X006817Y008320D01*
X006817Y008743D01*
X006778Y008781D01*
X006817Y008820D01*
X006817Y009243D01*
X006778Y009281D01*
X006817Y009320D01*
X006817Y009743D01*
X006778Y009781D01*
X006817Y009820D01*
X006817Y010231D01*
X006829Y010231D01*
X006817Y010186D01*
X006817Y010071D01*
X007527Y010071D01*
X007527Y009991D01*
X007607Y009991D01*
X007607Y009971D02*
X007527Y009971D01*
X007527Y009991D02*
X007527Y009571D01*
X006817Y009571D01*
X006817Y009686D01*
X006831Y009737D01*
X006856Y009781D01*
X006831Y009825D01*
X006817Y009877D01*
X006817Y009991D01*
X007527Y009991D01*
X007527Y010070D02*
X006817Y010070D01*
X006817Y010168D02*
X006817Y010168D01*
X006817Y009971D02*
X006817Y009971D01*
X006817Y009873D02*
X006818Y009873D01*
X006785Y009774D02*
X006852Y009774D01*
X006817Y009676D02*
X006817Y009676D01*
X006817Y009577D02*
X006817Y009577D01*
X006817Y009491D02*
X006817Y009377D01*
X006831Y009325D01*
X006856Y009281D01*
X006831Y009237D01*
X006817Y009186D01*
X006817Y009071D01*
X007527Y009071D01*
X007527Y009491D01*
X006817Y009491D01*
X006817Y009479D02*
X006817Y009479D01*
X006817Y009380D02*
X006817Y009380D01*
X006779Y009282D02*
X006856Y009282D01*
X006817Y009183D02*
X006817Y009183D01*
X006817Y009085D02*
X006817Y009085D01*
X006817Y008991D02*
X006817Y008877D01*
X006831Y008825D01*
X006856Y008781D01*
X006831Y008737D01*
X006817Y008686D01*
X006817Y008571D01*
X007527Y008571D01*
X007527Y008991D01*
X006817Y008991D01*
X006817Y008986D02*
X006817Y008986D01*
X006817Y008888D02*
X006817Y008888D01*
X006787Y008789D02*
X006851Y008789D01*
X006817Y008691D02*
X006818Y008691D01*
X006817Y008592D02*
X006817Y008592D01*
X006817Y008494D02*
X007527Y008494D01*
X007527Y008592D02*
X007607Y008592D01*
X007607Y008691D02*
X007527Y008691D01*
X007527Y008789D02*
X007607Y008789D01*
X007607Y008888D02*
X007527Y008888D01*
X007527Y008986D02*
X007607Y008986D01*
X007607Y009085D02*
X007527Y009085D01*
X007527Y009183D02*
X007607Y009183D01*
X007607Y009282D02*
X007527Y009282D01*
X007527Y009380D02*
X007607Y009380D01*
X007607Y009479D02*
X007527Y009479D01*
X007527Y009577D02*
X007607Y009577D01*
X007607Y009676D02*
X007527Y009676D01*
X007527Y009774D02*
X007607Y009774D01*
X007607Y009873D02*
X007527Y009873D01*
X007458Y010661D02*
X007716Y010661D01*
X007931Y010661D02*
X008188Y010661D01*
X008403Y010661D02*
X008661Y010661D01*
X008668Y010562D02*
X010794Y010562D01*
X010654Y010464D02*
X008767Y010464D01*
X008865Y010365D02*
X010567Y010365D01*
X010527Y010267D02*
X008964Y010267D01*
X009062Y010168D02*
X010497Y010168D01*
X010497Y010070D02*
X009161Y010070D01*
X009259Y009971D02*
X010504Y009971D01*
X010473Y009873D02*
X009317Y009873D01*
X009317Y009774D02*
X010374Y009774D01*
X010117Y009431D02*
X010233Y009315D01*
X010233Y008980D01*
X009977Y008980D02*
X009977Y008291D01*
X009917Y008231D01*
X009809Y007940D02*
X009855Y007921D01*
X009979Y007921D01*
X010093Y007968D01*
X010180Y008056D01*
X010227Y008169D01*
X010227Y008293D01*
X010180Y008407D01*
X010177Y008409D01*
X010177Y008635D01*
X010259Y008635D01*
X010259Y007172D01*
X010100Y007331D01*
X009655Y007331D01*
X009680Y007356D01*
X009727Y007469D01*
X009727Y007593D01*
X009680Y007707D01*
X009628Y007759D01*
X009700Y007831D01*
X009809Y007940D01*
X009772Y007903D02*
X010259Y007903D01*
X010259Y008001D02*
X010126Y008001D01*
X010198Y008100D02*
X010259Y008100D01*
X010259Y008198D02*
X010227Y008198D01*
X010225Y008297D02*
X010259Y008297D01*
X010259Y008395D02*
X010184Y008395D01*
X010177Y008494D02*
X010259Y008494D01*
X010259Y008592D02*
X010177Y008592D01*
X009717Y008631D02*
X009717Y008976D01*
X009721Y008980D01*
X009465Y008980D02*
X009465Y009180D01*
X009717Y009431D01*
X009442Y009577D02*
X009317Y009577D01*
X009317Y009479D02*
X009407Y009479D01*
X009383Y009380D02*
X009317Y009380D01*
X009317Y009676D02*
X009523Y009676D01*
X009117Y009831D02*
X009117Y007431D01*
X009417Y007131D01*
X010017Y007131D01*
X010217Y006931D01*
X010217Y006699D01*
X010233Y006682D01*
X010745Y006682D02*
X010745Y006159D01*
X010617Y006031D01*
X010617Y005531D01*
X010817Y005331D01*
X010940Y005046D02*
X022367Y005046D01*
X022367Y005081D02*
X022367Y004981D01*
X022467Y004981D01*
X022467Y004581D01*
X023237Y004581D01*
X023252Y004585D01*
X023252Y001725D01*
X023247Y001677D01*
X023211Y001589D01*
X023144Y001522D01*
X023056Y001486D01*
X023008Y001481D01*
X006517Y001481D01*
X006517Y002931D01*
X006992Y002931D01*
X007122Y002801D01*
X010312Y002801D01*
X010442Y002931D01*
X010717Y002931D01*
X010717Y003470D01*
X010719Y003472D01*
X010725Y003462D01*
X010753Y003434D01*
X010787Y003414D01*
X010825Y003404D01*
X010969Y003404D01*
X010969Y003707D01*
X011016Y003707D01*
X011016Y003404D01*
X011160Y003404D01*
X011198Y003414D01*
X011232Y003434D01*
X011260Y003462D01*
X011280Y003496D01*
X011290Y003534D01*
X011290Y003707D01*
X011016Y003707D01*
X011016Y003755D01*
X010969Y003755D01*
X010969Y004307D01*
X011016Y004307D01*
X011016Y004058D01*
X011016Y003755D01*
X011290Y003755D01*
X011290Y003928D01*
X011280Y003966D01*
X011260Y004000D01*
X011232Y004028D01*
X011227Y004031D01*
X011232Y004034D01*
X011260Y004062D01*
X011280Y004096D01*
X011290Y004134D01*
X011290Y004307D01*
X011016Y004307D01*
X011016Y004355D01*
X010969Y004355D01*
X010969Y004658D01*
X010825Y004658D01*
X010787Y004648D01*
X010753Y004628D01*
X010725Y004600D01*
X010719Y004590D01*
X010717Y004592D01*
X010717Y005037D01*
X010755Y005021D01*
X010879Y005021D01*
X010993Y005068D01*
X011080Y005156D01*
X011127Y005269D01*
X011127Y005393D01*
X011080Y005507D01*
X010993Y005594D01*
X010879Y005641D01*
X010817Y005641D01*
X010817Y005693D01*
X010841Y005668D01*
X010955Y005621D01*
X011079Y005621D01*
X011193Y005668D01*
X011280Y005756D01*
X011327Y005869D01*
X011327Y005993D01*
X011280Y006107D01*
X011201Y006186D01*
X011201Y006337D01*
X011379Y006337D01*
X011385Y006343D01*
X011390Y006337D01*
X011635Y006337D01*
X011641Y006343D01*
X011646Y006337D01*
X011891Y006337D01*
X011978Y006425D01*
X011978Y006939D01*
X011968Y006949D01*
X011968Y007062D01*
X011917Y007114D01*
X011917Y007531D01*
X012400Y007531D01*
X012517Y007648D01*
X012517Y007648D01*
X012817Y007948D01*
X012817Y008948D01*
X013000Y009131D01*
X014500Y009131D01*
X014617Y009248D01*
X014940Y009572D01*
X015120Y009572D01*
X015311Y009651D01*
X015458Y009797D01*
X015517Y009940D01*
X015576Y009797D01*
X015722Y009651D01*
X015913Y009572D01*
X016120Y009572D01*
X016311Y009651D01*
X016458Y009797D01*
X016537Y009988D01*
X016537Y010195D01*
X016458Y010386D01*
X016311Y010533D01*
X016204Y010577D01*
X016100Y010681D01*
X016100Y010681D01*
X016704Y010681D01*
X016750Y010681D01*
X016950Y010764D01*
X016950Y010764D01*
X017017Y010831D01*
X017067Y010831D01*
X017090Y010775D01*
X017177Y010689D01*
X017290Y010642D01*
X017412Y010642D01*
X017525Y010689D01*
X017587Y010751D01*
X017649Y010689D01*
X017762Y010642D01*
X017884Y010642D01*
X017997Y010689D01*
X018059Y010751D01*
X018121Y010689D01*
X018234Y010642D01*
X018357Y010642D01*
X018470Y010689D01*
X018532Y010751D01*
X018594Y010689D01*
X018707Y010642D01*
X018829Y010642D01*
X018942Y010689D01*
X019004Y010751D01*
X019066Y010689D01*
X019179Y010642D01*
X019302Y010642D01*
X019415Y010689D01*
X019477Y010751D01*
X019539Y010689D01*
X019652Y010642D01*
X019774Y010642D01*
X019887Y010689D01*
X019949Y010751D01*
X020011Y010689D01*
X020124Y010642D01*
X020247Y010642D01*
X020360Y010689D01*
X020422Y010751D01*
X020484Y010689D01*
X020597Y010642D01*
X020719Y010642D01*
X020832Y010689D01*
X020919Y010775D01*
X020942Y010831D01*
X020952Y010831D01*
X021059Y010725D01*
X021258Y010642D01*
X023008Y010642D01*
X023056Y010637D01*
X023144Y010601D01*
X023211Y010533D01*
X023247Y010446D01*
X023252Y010398D01*
X023252Y007477D01*
X023237Y007481D01*
X022467Y007481D01*
X022467Y007081D01*
X022367Y007081D01*
X022367Y006981D01*
X022467Y006981D01*
X022467Y006581D01*
X023237Y006581D01*
X023252Y006585D01*
X023252Y005477D01*
X023237Y005481D01*
X022467Y005481D01*
X022467Y005081D01*
X022367Y005081D01*
X021467Y005081D01*
X021467Y005351D01*
X021477Y005389D01*
X021497Y005423D01*
X021525Y005451D01*
X021559Y005471D01*
X021597Y005481D01*
X022367Y005481D01*
X022367Y005081D01*
X022367Y005145D02*
X022467Y005145D01*
X022467Y005243D02*
X022367Y005243D01*
X022367Y005342D02*
X022467Y005342D01*
X022467Y005440D02*
X022367Y005440D01*
X022367Y004981D02*
X021467Y004981D01*
X021467Y004711D01*
X021477Y004673D01*
X021497Y004639D01*
X021525Y004611D01*
X021559Y004591D01*
X021597Y004581D01*
X022367Y004581D01*
X022367Y004981D01*
X022367Y004948D02*
X022467Y004948D01*
X022467Y004849D02*
X022367Y004849D01*
X022367Y004751D02*
X022467Y004751D01*
X022467Y004652D02*
X022367Y004652D01*
X021489Y004652D02*
X011182Y004652D01*
X011198Y004648D02*
X011160Y004658D01*
X011016Y004658D01*
X011016Y004355D01*
X011290Y004355D01*
X011290Y004528D01*
X011280Y004566D01*
X011260Y004600D01*
X011232Y004628D01*
X011198Y004648D01*
X011283Y004554D02*
X023252Y004554D01*
X023252Y004455D02*
X011290Y004455D01*
X011290Y004357D02*
X023252Y004357D01*
X023252Y004258D02*
X011290Y004258D01*
X011290Y004160D02*
X023252Y004160D01*
X023252Y004061D02*
X011260Y004061D01*
X011281Y003963D02*
X023252Y003963D01*
X023252Y003864D02*
X011290Y003864D01*
X011290Y003766D02*
X023252Y003766D01*
X023252Y003667D02*
X011290Y003667D01*
X011290Y003569D02*
X023252Y003569D01*
X023252Y003470D02*
X011265Y003470D01*
X011016Y003470D02*
X010969Y003470D01*
X010969Y003569D02*
X011016Y003569D01*
X011016Y003667D02*
X010969Y003667D01*
X010969Y003766D02*
X011016Y003766D01*
X011016Y003864D02*
X010969Y003864D01*
X010969Y003963D02*
X011016Y003963D01*
X011016Y004061D02*
X010969Y004061D01*
X010969Y004160D02*
X011016Y004160D01*
X011016Y004258D02*
X010969Y004258D01*
X010969Y004357D02*
X011016Y004357D01*
X011016Y004455D02*
X010969Y004455D01*
X010969Y004554D02*
X011016Y004554D01*
X011016Y004652D02*
X010969Y004652D01*
X010803Y004652D02*
X010717Y004652D01*
X010717Y004751D02*
X021467Y004751D01*
X021467Y004849D02*
X010717Y004849D01*
X010717Y004948D02*
X021467Y004948D01*
X021467Y005145D02*
X011069Y005145D01*
X011116Y005243D02*
X021467Y005243D01*
X021467Y005342D02*
X011127Y005342D01*
X011107Y005440D02*
X021514Y005440D01*
X021597Y006581D02*
X022367Y006581D01*
X022367Y006981D01*
X021467Y006981D01*
X021467Y006711D01*
X021477Y006673D01*
X021497Y006639D01*
X021525Y006611D01*
X021559Y006591D01*
X021597Y006581D01*
X021513Y006622D02*
X011978Y006622D01*
X011978Y006524D02*
X023252Y006524D01*
X023252Y006425D02*
X011978Y006425D01*
X011978Y006721D02*
X021467Y006721D01*
X021467Y006819D02*
X011978Y006819D01*
X011978Y006918D02*
X021467Y006918D01*
X021467Y007081D02*
X022367Y007081D01*
X022367Y007481D01*
X021597Y007481D01*
X021559Y007471D01*
X021525Y007451D01*
X021497Y007423D01*
X021477Y007389D01*
X021467Y007351D01*
X021467Y007081D01*
X021467Y007115D02*
X011917Y007115D01*
X011917Y007213D02*
X021467Y007213D01*
X021467Y007312D02*
X011917Y007312D01*
X011917Y007410D02*
X021489Y007410D01*
X022367Y007410D02*
X022467Y007410D01*
X022467Y007312D02*
X022367Y007312D01*
X022367Y007213D02*
X022467Y007213D01*
X022467Y007115D02*
X022367Y007115D01*
X022367Y007016D02*
X011968Y007016D01*
X011768Y006980D02*
X011717Y007031D01*
X011717Y007631D01*
X011817Y007731D01*
X012317Y007731D01*
X012617Y008031D01*
X012617Y009031D01*
X012917Y009331D01*
X014417Y009331D01*
X015017Y009931D01*
X015017Y010092D01*
X015336Y009676D02*
X015697Y009676D01*
X015599Y009774D02*
X015435Y009774D01*
X015489Y009873D02*
X015545Y009873D01*
X015900Y009577D02*
X015134Y009577D01*
X014848Y009479D02*
X016482Y009479D01*
X016580Y009577D02*
X016134Y009577D01*
X016336Y009676D02*
X016679Y009676D01*
X016777Y009774D02*
X016435Y009774D01*
X016489Y009873D02*
X016876Y009873D01*
X016897Y009894D02*
X016044Y009041D01*
X015955Y009041D01*
X015841Y008994D01*
X015754Y008907D01*
X015707Y008793D01*
X015707Y008669D01*
X015754Y008556D01*
X015841Y008468D01*
X015955Y008421D01*
X016079Y008421D01*
X016120Y008438D01*
X016154Y008356D01*
X016241Y008268D01*
X016355Y008221D01*
X016479Y008221D01*
X016593Y008268D01*
X016680Y008356D01*
X016727Y008469D01*
X016727Y008593D01*
X016680Y008707D01*
X016628Y008759D01*
X016897Y009028D01*
X016897Y008716D01*
X017202Y008411D01*
X017632Y008411D01*
X017917Y008696D01*
X018202Y008411D01*
X018632Y008411D01*
X018917Y008696D01*
X019202Y008411D01*
X019632Y008411D01*
X019917Y008696D01*
X020202Y008411D01*
X020632Y008411D01*
X020937Y008716D01*
X020937Y009146D01*
X020652Y009431D01*
X020937Y009716D01*
X020937Y009881D01*
X020467Y009881D01*
X020467Y009981D01*
X020937Y009981D01*
X020937Y010146D01*
X020632Y010451D01*
X020467Y010451D01*
X020467Y009981D01*
X020367Y009981D01*
X020367Y010451D01*
X020202Y010451D01*
X019917Y010166D01*
X019632Y010451D01*
X019202Y010451D01*
X018917Y010166D01*
X018632Y010451D01*
X018202Y010451D01*
X017917Y010166D01*
X017632Y010451D01*
X017202Y010451D01*
X016897Y010146D01*
X016897Y009894D01*
X016897Y009971D02*
X016530Y009971D01*
X016537Y010070D02*
X016897Y010070D01*
X016919Y010168D02*
X016537Y010168D01*
X016507Y010267D02*
X017017Y010267D01*
X017116Y010365D02*
X016466Y010365D01*
X016380Y010464D02*
X022251Y010464D01*
X022270Y010472D02*
X021997Y010359D01*
X021789Y010151D01*
X021676Y009878D01*
X021676Y009584D01*
X021789Y009312D01*
X021997Y009103D01*
X022270Y008991D01*
X022564Y008991D01*
X022836Y009103D01*
X023045Y009312D01*
X023157Y009584D01*
X023157Y009878D01*
X023045Y010151D01*
X022836Y010359D01*
X022564Y010472D01*
X022270Y010472D01*
X022013Y010365D02*
X020718Y010365D01*
X020816Y010267D02*
X021905Y010267D01*
X021807Y010168D02*
X020915Y010168D01*
X020937Y010070D02*
X021756Y010070D01*
X021715Y009971D02*
X020467Y009971D01*
X020467Y010070D02*
X020367Y010070D01*
X020367Y010168D02*
X020467Y010168D01*
X020467Y010267D02*
X020367Y010267D01*
X020367Y010365D02*
X020467Y010365D01*
X020550Y010661D02*
X020293Y010661D01*
X020078Y010661D02*
X019820Y010661D01*
X019605Y010661D02*
X019348Y010661D01*
X019133Y010661D02*
X018876Y010661D01*
X018661Y010661D02*
X018403Y010661D01*
X018188Y010661D02*
X017931Y010661D01*
X017716Y010661D02*
X017458Y010661D01*
X017243Y010661D02*
X016120Y010661D01*
X016239Y010562D02*
X023182Y010562D01*
X023240Y010464D02*
X022583Y010464D01*
X022821Y010365D02*
X023252Y010365D01*
X023252Y010267D02*
X022928Y010267D01*
X023027Y010168D02*
X023252Y010168D01*
X023252Y010070D02*
X023078Y010070D01*
X023119Y009971D02*
X023252Y009971D01*
X023252Y009873D02*
X023157Y009873D01*
X023157Y009774D02*
X023252Y009774D01*
X023252Y009676D02*
X023157Y009676D01*
X023155Y009577D02*
X023252Y009577D01*
X023252Y009479D02*
X023114Y009479D01*
X023073Y009380D02*
X023252Y009380D01*
X023252Y009282D02*
X023015Y009282D01*
X022917Y009183D02*
X023252Y009183D01*
X023252Y009085D02*
X022792Y009085D01*
X023252Y008986D02*
X020937Y008986D01*
X020937Y008888D02*
X023252Y008888D01*
X023252Y008789D02*
X020937Y008789D01*
X020912Y008691D02*
X023252Y008691D01*
X023252Y008592D02*
X020814Y008592D01*
X020715Y008494D02*
X023252Y008494D01*
X023252Y008395D02*
X016696Y008395D01*
X016727Y008494D02*
X017119Y008494D01*
X017020Y008592D02*
X016727Y008592D01*
X016686Y008691D02*
X016922Y008691D01*
X016897Y008789D02*
X016658Y008789D01*
X016757Y008888D02*
X016897Y008888D01*
X016897Y008986D02*
X016855Y008986D01*
X016417Y008831D02*
X016417Y008531D01*
X016417Y008831D02*
X017017Y009431D01*
X019917Y009431D01*
X020417Y008931D01*
X020020Y008592D02*
X019814Y008592D01*
X019715Y008494D02*
X020119Y008494D01*
X019922Y008691D02*
X019912Y008691D01*
X019119Y008494D02*
X018715Y008494D01*
X018814Y008592D02*
X019020Y008592D01*
X018922Y008691D02*
X018912Y008691D01*
X018119Y008494D02*
X017715Y008494D01*
X017814Y008592D02*
X018020Y008592D01*
X017922Y008691D02*
X017912Y008691D01*
X016621Y008297D02*
X023252Y008297D01*
X023252Y008198D02*
X012817Y008198D01*
X012817Y008100D02*
X023252Y008100D01*
X023252Y008001D02*
X012817Y008001D01*
X012772Y007903D02*
X023252Y007903D01*
X023252Y007804D02*
X012673Y007804D01*
X012575Y007706D02*
X023252Y007706D01*
X023252Y007607D02*
X012476Y007607D01*
X012217Y007931D02*
X012417Y008131D01*
X012417Y009131D01*
X012817Y009531D01*
X014317Y009531D01*
X014517Y009731D01*
X014517Y010481D01*
X014617Y010581D01*
X015917Y010581D01*
X016017Y010481D01*
X016017Y010092D01*
X016383Y009380D02*
X014749Y009380D01*
X014651Y009282D02*
X016285Y009282D01*
X016186Y009183D02*
X014552Y009183D01*
X014017Y010092D02*
X013956Y010092D01*
X013438Y010610D01*
X012796Y010610D01*
X012517Y010331D01*
X012517Y009831D01*
X012017Y009331D01*
X011417Y009331D01*
X011257Y009171D01*
X011257Y008980D01*
X011257Y008171D01*
X010817Y007731D01*
X011117Y007731D02*
X011517Y008131D01*
X011517Y008976D01*
X011513Y008980D01*
X011768Y008980D02*
X011966Y008980D01*
X012117Y008829D01*
X012117Y008231D01*
X012217Y007931D02*
X011717Y007931D01*
X011513Y007727D01*
X011513Y006682D01*
X011768Y006682D02*
X011768Y006980D01*
X011917Y007509D02*
X023252Y007509D01*
X022467Y006918D02*
X022367Y006918D01*
X022367Y006819D02*
X022467Y006819D01*
X022467Y006721D02*
X022367Y006721D01*
X022367Y006622D02*
X022467Y006622D01*
X023252Y006327D02*
X011201Y006327D01*
X011201Y006228D02*
X023252Y006228D01*
X023252Y006130D02*
X011257Y006130D01*
X011311Y006031D02*
X023252Y006031D01*
X023252Y005933D02*
X011327Y005933D01*
X011312Y005834D02*
X023252Y005834D01*
X023252Y005736D02*
X011260Y005736D01*
X011118Y005637D02*
X023252Y005637D01*
X023252Y005539D02*
X011048Y005539D01*
X010916Y005637D02*
X010888Y005637D01*
X011017Y005931D02*
X011001Y005947D01*
X011001Y006682D01*
X011117Y007331D02*
X011117Y007731D01*
X010844Y008041D02*
X010755Y008041D01*
X010719Y008026D01*
X010719Y008635D01*
X010745Y008635D01*
X010825Y008635D01*
X010863Y008645D01*
X010866Y008647D01*
X010879Y008635D01*
X011057Y008635D01*
X011057Y008254D01*
X010844Y008041D01*
X010903Y008100D02*
X010719Y008100D01*
X010719Y008198D02*
X011001Y008198D01*
X011057Y008297D02*
X010719Y008297D01*
X010719Y008395D02*
X011057Y008395D01*
X011057Y008494D02*
X010719Y008494D01*
X010719Y008592D02*
X011057Y008592D01*
X010745Y008635D02*
X010745Y008980D01*
X010745Y008980D01*
X010745Y009325D01*
X010825Y009325D01*
X010863Y009315D01*
X010866Y009313D01*
X010879Y009325D01*
X011123Y009325D01*
X011125Y009322D01*
X011217Y009414D01*
X011334Y009531D01*
X011934Y009531D01*
X012067Y009664D01*
X012067Y010042D01*
X011967Y010042D01*
X011967Y009573D01*
X011895Y009585D01*
X011817Y009610D01*
X011744Y009647D01*
X011678Y009695D01*
X011620Y009753D01*
X011572Y009819D01*
X011535Y009892D01*
X011518Y009943D01*
X011458Y009797D01*
X011311Y009651D01*
X011120Y009572D01*
X010913Y009572D01*
X010849Y009598D01*
X010719Y009469D01*
X010719Y009325D01*
X010745Y009325D01*
X010745Y008980D01*
X010745Y008980D01*
X010745Y008635D01*
X010745Y008691D02*
X010745Y008691D01*
X010745Y008789D02*
X010745Y008789D01*
X010745Y008888D02*
X010745Y008888D01*
X010745Y008986D02*
X010745Y008986D01*
X010745Y009085D02*
X010745Y009085D01*
X010745Y009183D02*
X010745Y009183D01*
X010745Y009282D02*
X010745Y009282D01*
X010719Y009380D02*
X011183Y009380D01*
X011282Y009479D02*
X010729Y009479D01*
X010828Y009577D02*
X010900Y009577D01*
X011134Y009577D02*
X011940Y009577D01*
X011967Y009577D02*
X011980Y009577D01*
X011967Y009676D02*
X012067Y009676D01*
X012067Y009774D02*
X011967Y009774D01*
X011967Y009873D02*
X012067Y009873D01*
X012067Y009971D02*
X011967Y009971D01*
X011967Y010168D02*
X012067Y010168D01*
X012067Y010267D02*
X011967Y010267D01*
X011967Y010365D02*
X012067Y010365D01*
X012067Y010464D02*
X011967Y010464D01*
X011967Y010562D02*
X012067Y010562D01*
X012239Y010562D02*
X012465Y010562D01*
X012564Y010661D02*
X009348Y010661D01*
X009486Y010759D02*
X009652Y010759D01*
X009133Y010661D02*
X008876Y010661D01*
X008517Y010431D02*
X009117Y009831D01*
X009911Y009676D02*
X009923Y009676D01*
X009717Y008631D02*
X009617Y008531D01*
X009617Y008031D01*
X009417Y007831D01*
X009417Y007531D01*
X009702Y007410D02*
X010259Y007410D01*
X010259Y007312D02*
X010119Y007312D01*
X010217Y007213D02*
X010259Y007213D01*
X010259Y007509D02*
X009727Y007509D01*
X009721Y007607D02*
X010259Y007607D01*
X010259Y007706D02*
X009680Y007706D01*
X009673Y007804D02*
X010259Y007804D01*
X009249Y007016D02*
X008447Y007016D01*
X008447Y006918D02*
X009261Y006918D01*
X009255Y006819D02*
X008447Y006819D01*
X008447Y006721D02*
X009255Y006721D01*
X009255Y006682D02*
X009465Y006682D01*
X009465Y006386D01*
X009465Y006386D01*
X009465Y006682D01*
X009465Y006682D01*
X009255Y006682D01*
X009255Y006622D02*
X008447Y006622D01*
X008449Y006524D02*
X009255Y006524D01*
X009268Y006425D02*
X008548Y006425D01*
X008447Y007115D02*
X009150Y007115D01*
X009052Y007213D02*
X008447Y007213D01*
X008447Y007312D02*
X008953Y007312D01*
X008917Y007410D02*
X008447Y007410D01*
X008447Y007509D02*
X008917Y007509D01*
X008917Y007607D02*
X008447Y007607D01*
X008447Y007706D02*
X008917Y007706D01*
X008917Y007804D02*
X008447Y007804D01*
X008370Y007903D02*
X008917Y007903D01*
X008917Y008001D02*
X008317Y008001D01*
X008317Y008100D02*
X008917Y008100D01*
X008917Y008198D02*
X008317Y008198D01*
X008287Y008297D02*
X008917Y008297D01*
X008917Y008395D02*
X008317Y008395D01*
X006847Y008297D02*
X006794Y008297D01*
X006817Y008395D02*
X006817Y008395D01*
X006817Y008198D02*
X006817Y008198D01*
X006817Y008100D02*
X006817Y008100D01*
X006817Y008001D02*
X006817Y008001D01*
X006817Y007903D02*
X006817Y007903D01*
X006817Y007531D02*
X006317Y008031D01*
X006067Y008031D01*
X005455Y007410D02*
X004841Y007410D01*
X004841Y007312D02*
X005553Y007312D01*
X005652Y007213D02*
X004836Y007213D01*
X004841Y007509D02*
X005356Y007509D01*
X005258Y007607D02*
X004367Y007607D01*
X004367Y007656D02*
X004841Y007656D01*
X004841Y007980D01*
X004831Y008018D01*
X004811Y008052D01*
X004783Y008080D01*
X004749Y008100D01*
X005117Y008100D01*
X005117Y008198D02*
X003867Y008198D01*
X003867Y008100D02*
X003885Y008100D01*
X003867Y008297D02*
X005117Y008297D01*
X005117Y008395D02*
X003867Y008395D01*
X003867Y008494D02*
X005197Y008494D01*
X005295Y008592D02*
X003867Y008592D01*
X003867Y008691D02*
X005317Y008691D01*
X005347Y008789D02*
X003867Y008789D01*
X003867Y008888D02*
X005317Y008888D01*
X005317Y008986D02*
X003867Y008986D01*
X003867Y009085D02*
X004342Y009085D01*
X004217Y009183D02*
X003867Y009183D01*
X003867Y009282D02*
X004119Y009282D01*
X004061Y009380D02*
X003867Y009380D01*
X003867Y009479D02*
X004020Y009479D01*
X003979Y009577D02*
X003867Y009577D01*
X003867Y009676D02*
X003976Y009676D01*
X003976Y009774D02*
X003867Y009774D01*
X003867Y009873D02*
X003976Y009873D01*
X004015Y009971D02*
X003867Y009971D01*
X003867Y010070D02*
X004056Y010070D01*
X004107Y010168D02*
X003867Y010168D01*
X003867Y010267D02*
X004205Y010267D01*
X004313Y010365D02*
X003867Y010365D01*
X003879Y010464D02*
X004551Y010464D01*
X004883Y010464D02*
X006067Y010464D01*
X006165Y010562D02*
X003937Y010562D01*
X005121Y010365D02*
X005968Y010365D01*
X006067Y010181D02*
X006317Y010431D01*
X008517Y010431D01*
X007243Y010661D02*
X006986Y010661D01*
X006771Y010661D02*
X006513Y010661D01*
X006298Y010661D02*
X006041Y010661D01*
X005826Y010661D02*
X005379Y010661D01*
X005533Y010725D02*
X005533Y010725D01*
X005568Y010759D02*
X005688Y010759D01*
X005341Y010267D02*
X005228Y010267D01*
X006067Y010181D02*
X006067Y010031D01*
X005355Y009282D02*
X005315Y009282D01*
X005317Y009183D02*
X005217Y009183D01*
X005317Y009085D02*
X005092Y009085D01*
X005517Y008531D02*
X005317Y008331D01*
X005317Y007831D01*
X005817Y007331D01*
X006417Y007331D01*
X005372Y006531D02*
X005360Y006543D01*
X004982Y006721D02*
X004841Y006721D01*
X004841Y006622D02*
X004935Y006622D01*
X004935Y006524D02*
X004841Y006524D01*
X004841Y006425D02*
X004935Y006425D01*
X004935Y006327D02*
X004841Y006327D01*
X004841Y006228D02*
X004935Y006228D01*
X004935Y006130D02*
X004841Y006130D01*
X004777Y006031D02*
X004935Y006031D01*
X004935Y005933D02*
X004841Y005933D01*
X004841Y005834D02*
X004935Y005834D01*
X004935Y005736D02*
X004841Y005736D01*
X004841Y005637D02*
X004941Y005637D01*
X004935Y005539D02*
X004841Y005539D01*
X004841Y005440D02*
X004935Y005440D01*
X004981Y005342D02*
X004841Y005342D01*
X004841Y005243D02*
X005787Y005243D01*
X005787Y005145D02*
X004841Y005145D01*
X004792Y005046D02*
X005787Y005046D01*
X005787Y004948D02*
X004753Y004948D01*
X004836Y004849D02*
X005787Y004849D01*
X005787Y004751D02*
X004841Y004751D01*
X004841Y004652D02*
X005787Y004652D01*
X005787Y004554D02*
X004841Y004554D01*
X004841Y004357D02*
X005787Y004357D01*
X005787Y004455D02*
X004367Y004455D01*
X004367Y004357D02*
X004267Y004357D01*
X004267Y004258D02*
X004367Y004258D01*
X004367Y004160D02*
X004267Y004160D01*
X004267Y004061D02*
X004367Y004061D01*
X004367Y003963D02*
X004267Y003963D01*
X003884Y003963D02*
X003867Y003963D01*
X003867Y003864D02*
X005858Y003864D01*
X005787Y003963D02*
X004750Y003963D01*
X004835Y004061D02*
X005787Y004061D01*
X005787Y004160D02*
X004841Y004160D01*
X004841Y004258D02*
X005787Y004258D01*
X006247Y004258D02*
X006417Y004258D01*
X006417Y004160D02*
X006247Y004160D01*
X006312Y004061D02*
X006417Y004061D01*
X006410Y003963D02*
X006417Y003963D01*
X006055Y003667D02*
X003867Y003667D01*
X003867Y003569D02*
X006154Y003569D01*
X006252Y003470D02*
X003867Y003470D01*
X003867Y003372D02*
X006351Y003372D01*
X006417Y003273D02*
X003867Y003273D01*
X003867Y003175D02*
X006417Y003175D01*
X006417Y003076D02*
X003867Y003076D01*
X003867Y002978D02*
X004343Y002978D01*
X004297Y002959D02*
X004089Y002751D01*
X003976Y002478D01*
X003976Y002184D01*
X004089Y001912D01*
X004297Y001703D01*
X004570Y001591D01*
X004864Y001591D01*
X005136Y001703D01*
X005345Y001912D01*
X005457Y002184D01*
X005457Y002478D01*
X005345Y002751D01*
X005136Y002959D01*
X004864Y003072D01*
X004570Y003072D01*
X004297Y002959D01*
X004218Y002879D02*
X003867Y002879D01*
X003867Y002781D02*
X004119Y002781D01*
X004061Y002682D02*
X003867Y002682D01*
X003867Y002584D02*
X004020Y002584D01*
X003979Y002485D02*
X003867Y002485D01*
X003867Y002387D02*
X003976Y002387D01*
X003976Y002288D02*
X003867Y002288D01*
X003867Y002190D02*
X003976Y002190D01*
X004015Y002091D02*
X003867Y002091D01*
X003867Y001993D02*
X004055Y001993D01*
X004106Y001894D02*
X003867Y001894D01*
X003867Y001796D02*
X004205Y001796D01*
X004312Y001697D02*
X003870Y001697D01*
X003904Y001599D02*
X004549Y001599D01*
X004884Y001599D02*
X006417Y001599D01*
X006417Y001697D02*
X005122Y001697D01*
X005229Y001796D02*
X006417Y001796D01*
X006417Y001894D02*
X005328Y001894D01*
X005378Y001993D02*
X006417Y001993D01*
X006417Y002091D02*
X005419Y002091D01*
X005457Y002190D02*
X006417Y002190D01*
X006417Y002288D02*
X005457Y002288D01*
X005457Y002387D02*
X006417Y002387D01*
X006417Y002485D02*
X005455Y002485D01*
X005414Y002584D02*
X006417Y002584D01*
X006417Y002682D02*
X005373Y002682D01*
X005314Y002781D02*
X006417Y002781D01*
X006417Y002879D02*
X005216Y002879D01*
X005091Y002978D02*
X006417Y002978D01*
X006517Y002879D02*
X007043Y002879D01*
X006517Y002781D02*
X021819Y002781D01*
X021789Y002751D02*
X021676Y002478D01*
X021676Y002184D01*
X021789Y001912D01*
X021997Y001703D01*
X022270Y001591D01*
X022564Y001591D01*
X022836Y001703D01*
X023045Y001912D01*
X023157Y002184D01*
X023157Y002478D01*
X023045Y002751D01*
X022836Y002959D01*
X022564Y003072D01*
X022270Y003072D01*
X021997Y002959D01*
X021789Y002751D01*
X021761Y002682D02*
X006517Y002682D01*
X006517Y002584D02*
X021720Y002584D01*
X021679Y002485D02*
X006517Y002485D01*
X006517Y002387D02*
X021676Y002387D01*
X021676Y002288D02*
X006517Y002288D01*
X006517Y002190D02*
X021676Y002190D01*
X021715Y002091D02*
X006517Y002091D01*
X006517Y001993D02*
X021755Y001993D01*
X021806Y001894D02*
X006517Y001894D01*
X006517Y001796D02*
X021905Y001796D01*
X022012Y001697D02*
X006517Y001697D01*
X006517Y001599D02*
X022249Y001599D01*
X022584Y001599D02*
X023215Y001599D01*
X023249Y001697D02*
X022822Y001697D01*
X022929Y001796D02*
X023252Y001796D01*
X023252Y001894D02*
X023028Y001894D01*
X023078Y001993D02*
X023252Y001993D01*
X023252Y002091D02*
X023119Y002091D01*
X023157Y002190D02*
X023252Y002190D01*
X023252Y002288D02*
X023157Y002288D01*
X023157Y002387D02*
X023252Y002387D01*
X023252Y002485D02*
X023155Y002485D01*
X023114Y002584D02*
X023252Y002584D01*
X023252Y002682D02*
X023073Y002682D01*
X023014Y002781D02*
X023252Y002781D01*
X023252Y002879D02*
X022916Y002879D01*
X022791Y002978D02*
X023252Y002978D01*
X023252Y003076D02*
X010717Y003076D01*
X010717Y002978D02*
X022043Y002978D01*
X021918Y002879D02*
X010390Y002879D01*
X010717Y003175D02*
X023252Y003175D01*
X023252Y003273D02*
X010717Y003273D01*
X010717Y003372D02*
X023252Y003372D01*
X023091Y001500D02*
X006517Y001500D01*
X006417Y001500D02*
X004028Y001500D01*
X003867Y003766D02*
X005957Y003766D01*
X004367Y004554D02*
X004267Y004554D01*
X004267Y004652D02*
X004367Y004652D01*
X004367Y004751D02*
X004267Y004751D01*
X004267Y004849D02*
X004367Y004849D01*
X004367Y004948D02*
X004267Y004948D01*
X003881Y004948D02*
X003867Y004948D01*
X005360Y005342D02*
X005360Y005342D01*
X005360Y005440D02*
X005360Y005440D01*
X005739Y005342D02*
X005787Y005342D01*
X005786Y005440D02*
X005787Y005440D01*
X005786Y005539D02*
X005787Y005539D01*
X005779Y005637D02*
X005787Y005637D01*
X005786Y005736D02*
X005787Y005736D01*
X005786Y005834D02*
X005787Y005834D01*
X005786Y005933D02*
X005787Y005933D01*
X005786Y006031D02*
X005787Y006031D01*
X005786Y006130D02*
X005787Y006130D01*
X005786Y006228D02*
X005787Y006228D01*
X004367Y007115D02*
X004267Y007115D01*
X004267Y007213D02*
X004367Y007213D01*
X004367Y007312D02*
X004267Y007312D01*
X004267Y007410D02*
X004367Y007410D01*
X004367Y007509D02*
X004267Y007509D01*
X004367Y007656D02*
X004367Y008110D01*
X004711Y008110D01*
X004749Y008100D01*
X004835Y008001D02*
X005117Y008001D01*
X005117Y007903D02*
X004841Y007903D01*
X004841Y007804D02*
X005117Y007804D01*
X005159Y007706D02*
X004841Y007706D01*
X004367Y007706D02*
X004267Y007706D01*
X004267Y007804D02*
X004367Y007804D01*
X004367Y007903D02*
X004267Y007903D01*
X004267Y008001D02*
X004367Y008001D01*
X004367Y008100D02*
X004267Y008100D01*
X003880Y007115D02*
X003867Y007115D01*
X005517Y008531D02*
X006067Y008531D01*
X009465Y006682D02*
X009465Y006682D01*
X009465Y006407D01*
X009741Y006131D01*
X009465Y006425D02*
X009465Y006425D01*
X009465Y006524D02*
X009465Y006524D01*
X009465Y006622D02*
X009465Y006622D01*
X010293Y006131D02*
X010341Y006082D01*
X012817Y008297D02*
X016213Y008297D01*
X016138Y008395D02*
X012817Y008395D01*
X012817Y008494D02*
X015816Y008494D01*
X015739Y008592D02*
X012817Y008592D01*
X012817Y008691D02*
X015707Y008691D01*
X015707Y008789D02*
X012817Y008789D01*
X012817Y008888D02*
X015746Y008888D01*
X015834Y008986D02*
X012855Y008986D01*
X012954Y009085D02*
X016088Y009085D01*
X016017Y008731D02*
X017217Y009931D01*
X017417Y009931D01*
X017816Y010267D02*
X018017Y010267D01*
X017919Y010168D02*
X017915Y010168D01*
X017718Y010365D02*
X018116Y010365D01*
X018718Y010365D02*
X019116Y010365D01*
X019017Y010267D02*
X018816Y010267D01*
X018915Y010168D02*
X018919Y010168D01*
X019718Y010365D02*
X020116Y010365D01*
X020017Y010267D02*
X019816Y010267D01*
X019915Y010168D02*
X019919Y010168D01*
X020765Y010661D02*
X021212Y010661D01*
X021059Y010725D02*
X021059Y010725D01*
X021024Y010759D02*
X020903Y010759D01*
X020937Y009873D02*
X021676Y009873D01*
X021676Y009774D02*
X020937Y009774D01*
X020897Y009676D02*
X021676Y009676D01*
X021679Y009577D02*
X020799Y009577D01*
X020700Y009479D02*
X021720Y009479D01*
X021761Y009380D02*
X020703Y009380D01*
X020801Y009282D02*
X021819Y009282D01*
X021917Y009183D02*
X020900Y009183D01*
X020937Y009085D02*
X022042Y009085D01*
X021012Y011785D02*
X020915Y011785D01*
X020843Y011857D01*
X020723Y011907D01*
X020593Y011907D01*
X020472Y011857D01*
X020422Y011806D01*
X020371Y011857D01*
X020251Y011907D01*
X020120Y011907D01*
X020000Y011857D01*
X019949Y011806D01*
X019898Y011857D01*
X019778Y011907D01*
X019648Y011907D01*
X019527Y011857D01*
X019477Y011806D01*
X019426Y011857D01*
X019306Y011907D01*
X019175Y011907D01*
X019055Y011857D01*
X019004Y011806D01*
X018954Y011857D01*
X018833Y011907D01*
X018703Y011907D01*
X018583Y011857D01*
X018532Y011806D01*
X018481Y011857D01*
X018361Y011907D01*
X018231Y011907D01*
X018110Y011857D01*
X018059Y011806D01*
X018009Y011857D01*
X017888Y011907D01*
X017758Y011907D01*
X017638Y011857D01*
X017587Y011806D01*
X017536Y011857D01*
X017416Y011907D01*
X017286Y011907D01*
X017165Y011857D01*
X017094Y011785D01*
X016997Y011785D01*
X016961Y011821D01*
X016754Y011907D01*
X016651Y011907D01*
X016653Y011916D01*
X016653Y012685D01*
X016253Y012685D01*
X016253Y012785D01*
X016653Y012785D01*
X016653Y013274D01*
X016662Y013265D01*
X017016Y012912D01*
X017013Y012909D01*
X017013Y012462D01*
X017329Y012145D01*
X017777Y012145D01*
X018013Y012382D01*
X018013Y012362D01*
X018329Y012045D01*
X018777Y012045D01*
X019093Y012362D01*
X019093Y012382D01*
X019329Y012145D01*
X019777Y012145D01*
X020093Y012462D01*
X020093Y012909D01*
X019803Y013200D01*
X019933Y013330D01*
X019933Y013194D01*
X020249Y012879D01*
X020213Y012793D01*
X020213Y012578D01*
X020295Y012380D01*
X020447Y012228D01*
X020646Y012145D01*
X020861Y012145D01*
X021059Y012228D01*
X021211Y012380D01*
X021264Y012508D01*
X021271Y012486D01*
X021308Y012413D01*
X021356Y012347D01*
X021414Y012289D01*
X021481Y012241D01*
X021554Y012204D01*
X021631Y012178D01*
X021703Y012167D01*
X021703Y012635D01*
X021803Y012635D01*
X021803Y012167D01*
X021875Y012178D01*
X021953Y012204D01*
X022026Y012241D01*
X022092Y012289D01*
X022150Y012347D01*
X022198Y012413D01*
X022235Y012486D01*
X022242Y012508D01*
X022295Y012380D01*
X022447Y012228D01*
X022646Y012145D01*
X022861Y012145D01*
X023059Y012228D01*
X023211Y012380D01*
X023283Y012554D01*
X023283Y012130D01*
X023279Y012087D01*
X023245Y012006D01*
X023184Y011944D01*
X023103Y011911D01*
X023059Y011907D01*
X021254Y011907D01*
X021047Y011821D01*
X021012Y011785D01*
X021047Y011821D02*
X021047Y011821D01*
X021101Y011843D02*
X020857Y011843D01*
X020459Y011843D02*
X020385Y011843D01*
X020438Y012237D02*
X019868Y012237D01*
X019967Y012335D02*
X020339Y012335D01*
X020273Y012434D02*
X020065Y012434D01*
X020093Y012532D02*
X020232Y012532D01*
X020213Y012631D02*
X020093Y012631D01*
X020093Y012729D02*
X020213Y012729D01*
X020228Y012828D02*
X020093Y012828D01*
X020076Y012926D02*
X020201Y012926D01*
X020103Y013025D02*
X019977Y013025D01*
X020004Y013123D02*
X019879Y013123D01*
X019825Y013222D02*
X019933Y013222D01*
X019924Y013320D02*
X019933Y013320D01*
X020153Y013285D02*
X020753Y012685D01*
X020560Y013190D02*
X020373Y013377D01*
X020373Y014777D01*
X020244Y014905D01*
X020017Y015132D01*
X019673Y015563D01*
X019673Y016177D01*
X023283Y016177D01*
X023283Y016275D02*
X019574Y016275D01*
X019573Y016277D02*
X019444Y016405D01*
X019388Y016405D01*
X019388Y016426D01*
X019329Y016485D01*
X019388Y016545D01*
X019388Y016926D01*
X019314Y017000D01*
X019338Y017023D01*
X019358Y017058D01*
X019368Y017096D01*
X019368Y017225D01*
X018793Y017225D01*
X018793Y017245D01*
X019368Y017245D01*
X019368Y017375D01*
X019358Y017413D01*
X019338Y017448D01*
X019310Y017475D01*
X019276Y017495D01*
X019238Y017505D01*
X018793Y017505D01*
X018793Y017245D01*
X018773Y017245D01*
X018773Y017225D01*
X018198Y017225D01*
X018198Y017096D01*
X018208Y017058D01*
X018228Y017023D01*
X018246Y017005D01*
X017944Y017005D01*
X017573Y017377D01*
X017573Y017577D01*
X017173Y017977D01*
X017173Y018377D01*
X016473Y019077D01*
X016473Y019777D01*
X016373Y019877D01*
X016244Y020005D01*
X016200Y020005D01*
X016140Y020065D01*
X016019Y020115D01*
X015887Y020115D01*
X015766Y020065D01*
X015673Y019972D01*
X015623Y019851D01*
X015623Y019720D01*
X015673Y019599D01*
X015766Y019506D01*
X015887Y019455D01*
X016019Y019455D01*
X016033Y019461D01*
X016033Y019309D01*
X016019Y019315D01*
X015887Y019315D01*
X015766Y019265D01*
X015673Y019172D01*
X015623Y019051D01*
X015623Y018920D01*
X015673Y018799D01*
X015766Y018706D01*
X015887Y018655D01*
X015972Y018655D01*
X016503Y018124D01*
X016503Y017525D01*
X016373Y017525D01*
X016373Y017977D01*
X016283Y018067D01*
X016283Y018151D01*
X016233Y018272D01*
X016140Y018365D01*
X016019Y018415D01*
X015887Y018415D01*
X015766Y018365D01*
X015673Y018272D01*
X015623Y018151D01*
X015623Y018020D01*
X015673Y017899D01*
X015766Y017806D01*
X015887Y017755D01*
X015933Y017755D01*
X015933Y017105D01*
X015862Y017105D01*
X015733Y016977D01*
X015533Y016777D01*
X015533Y015494D01*
X015662Y015365D01*
X016533Y014494D01*
X016533Y013683D01*
X016523Y013685D01*
X016253Y013685D01*
X016253Y012785D01*
X016153Y012785D01*
X016153Y012685D01*
X015753Y012685D01*
X015753Y011916D01*
X015756Y011907D01*
X014651Y011907D01*
X014653Y011916D01*
X014653Y012685D01*
X014253Y012685D01*
X014253Y012785D01*
X014653Y012785D01*
X014653Y013555D01*
X014643Y013593D01*
X014623Y013628D01*
X014595Y013655D01*
X014561Y013675D01*
X014523Y013685D01*
X014253Y013685D01*
X014253Y012785D01*
X014153Y012785D01*
X014153Y013685D01*
X013883Y013685D01*
X013845Y013675D01*
X013811Y013655D01*
X013783Y013628D01*
X013781Y013623D01*
X013781Y015997D01*
X014568Y016784D01*
X014568Y016974D01*
X014449Y017181D01*
X014449Y017181D01*
X014449Y017181D01*
X014443Y017184D01*
X014518Y017260D01*
X014568Y017380D01*
X014568Y017510D01*
X014518Y017631D01*
X014467Y017681D01*
X014518Y017732D01*
X014568Y017853D01*
X014568Y017983D01*
X014518Y018103D01*
X014467Y018154D01*
X014518Y018205D01*
X014568Y018325D01*
X014568Y018455D01*
X014518Y018576D01*
X014467Y018626D01*
X014518Y018677D01*
X014568Y018797D01*
X014568Y018928D01*
X014518Y019048D01*
X014467Y019099D01*
X014518Y019150D01*
X014568Y019270D01*
X014568Y019400D01*
X014518Y019521D01*
X014467Y019571D01*
X014518Y019622D01*
X014568Y019742D01*
X014568Y019873D01*
X014518Y019993D01*
X014426Y020085D01*
X014387Y020101D01*
X014482Y020197D01*
X014568Y020404D01*
X014568Y020792D01*
X014572Y020835D01*
X014606Y020916D01*
X014667Y020978D01*
X014748Y021011D01*
X014792Y021015D01*
X023059Y021015D01*
X023103Y021011D01*
X023184Y020978D01*
X023245Y020916D01*
X023279Y020835D01*
X023283Y020792D01*
X023283Y012817D01*
X023211Y012991D01*
X023059Y013143D01*
X022861Y013225D01*
X022646Y013225D01*
X022447Y013143D01*
X022295Y012991D01*
X022242Y012863D01*
X022235Y012885D01*
X022198Y012958D01*
X022150Y013024D01*
X022092Y013082D01*
X022026Y013130D01*
X021953Y013167D01*
X021875Y013193D01*
X021803Y013204D01*
X021803Y012735D01*
X021703Y012735D01*
X021703Y013204D01*
X021631Y013193D01*
X021554Y013167D01*
X021481Y013130D01*
X021414Y013082D01*
X021356Y013024D01*
X021308Y012958D01*
X021271Y012885D01*
X021264Y012863D01*
X021211Y012991D01*
X021059Y013143D01*
X020861Y013225D01*
X020646Y013225D01*
X020560Y013190D01*
X020528Y013222D02*
X020637Y013222D01*
X020429Y013320D02*
X023283Y013320D01*
X023283Y013222D02*
X022869Y013222D01*
X022637Y013222D02*
X020869Y013222D01*
X021079Y013123D02*
X021471Y013123D01*
X021357Y013025D02*
X021177Y013025D01*
X021238Y012926D02*
X021292Y012926D01*
X021703Y012926D02*
X021803Y012926D01*
X021803Y012828D02*
X021703Y012828D01*
X021703Y013025D02*
X021803Y013025D01*
X021803Y013123D02*
X021703Y013123D01*
X022035Y013123D02*
X022427Y013123D01*
X022329Y013025D02*
X022149Y013025D01*
X022214Y012926D02*
X022268Y012926D01*
X022273Y012434D02*
X022209Y012434D01*
X022139Y012335D02*
X022339Y012335D01*
X022438Y012237D02*
X022018Y012237D01*
X021803Y012237D02*
X021703Y012237D01*
X021703Y012335D02*
X021803Y012335D01*
X021803Y012434D02*
X021703Y012434D01*
X021703Y012532D02*
X021803Y012532D01*
X021803Y012631D02*
X021703Y012631D01*
X021368Y012335D02*
X021167Y012335D01*
X021233Y012434D02*
X021298Y012434D01*
X021488Y012237D02*
X021068Y012237D01*
X019986Y011843D02*
X019912Y011843D01*
X019514Y011843D02*
X019440Y011843D01*
X019041Y011843D02*
X018967Y011843D01*
X018870Y012138D02*
X023283Y012138D01*
X023283Y012237D02*
X023068Y012237D01*
X023167Y012335D02*
X023283Y012335D01*
X023283Y012434D02*
X023233Y012434D01*
X023274Y012532D02*
X023283Y012532D01*
X023279Y012828D02*
X023283Y012828D01*
X023283Y012926D02*
X023238Y012926D01*
X023283Y013025D02*
X023177Y013025D01*
X023079Y013123D02*
X023283Y013123D01*
X023283Y013419D02*
X020373Y013419D01*
X020373Y013517D02*
X023283Y013517D01*
X023283Y013616D02*
X020373Y013616D01*
X020373Y013714D02*
X023283Y013714D01*
X023283Y013813D02*
X020373Y013813D01*
X020373Y013911D02*
X023283Y013911D01*
X023283Y014010D02*
X020373Y014010D01*
X020373Y014108D02*
X023283Y014108D01*
X023283Y014207D02*
X020373Y014207D01*
X020373Y014305D02*
X023283Y014305D01*
X023283Y014404D02*
X020373Y014404D01*
X020373Y014502D02*
X023283Y014502D01*
X023283Y014601D02*
X020373Y014601D01*
X020373Y014699D02*
X023283Y014699D01*
X023283Y014798D02*
X020352Y014798D01*
X020253Y014896D02*
X023283Y014896D01*
X023283Y014995D02*
X020155Y014995D01*
X020056Y015093D02*
X023283Y015093D01*
X023283Y015192D02*
X019970Y015192D01*
X019891Y015290D02*
X023283Y015290D01*
X023283Y015389D02*
X019812Y015389D01*
X019733Y015487D02*
X023283Y015487D01*
X023283Y015586D02*
X019673Y015586D01*
X019673Y015684D02*
X023283Y015684D01*
X023283Y015783D02*
X019673Y015783D01*
X019673Y015881D02*
X023283Y015881D01*
X023283Y015980D02*
X019673Y015980D01*
X019673Y016078D02*
X023283Y016078D01*
X023283Y016374D02*
X019476Y016374D01*
X019573Y016277D02*
X019673Y016177D01*
X019453Y016085D02*
X019353Y016185D01*
X018833Y016185D01*
X018783Y016235D01*
X018733Y015785D02*
X018783Y015735D01*
X018853Y015665D01*
X018853Y014785D01*
X019053Y014585D01*
X019053Y013185D01*
X019553Y012685D01*
X019139Y012335D02*
X019067Y012335D01*
X018968Y012237D02*
X019238Y012237D01*
X018553Y012585D02*
X018353Y012585D01*
X017753Y013185D01*
X017353Y013185D01*
X016953Y013585D01*
X016953Y014685D01*
X016153Y015485D01*
X016153Y016085D01*
X016303Y016235D01*
X016053Y016485D01*
X016303Y016235D02*
X016353Y016285D01*
X016673Y016285D01*
X016723Y016235D01*
X016723Y016735D02*
X016303Y016735D01*
X016153Y016885D01*
X015953Y016885D01*
X015753Y016685D01*
X015753Y015585D01*
X016753Y014585D01*
X016753Y013485D01*
X017553Y012685D01*
X017139Y012335D02*
X016653Y012335D01*
X016653Y012237D02*
X017238Y012237D01*
X017041Y012434D02*
X016653Y012434D01*
X016653Y012532D02*
X017013Y012532D01*
X017013Y012631D02*
X016653Y012631D01*
X016653Y012828D02*
X017013Y012828D01*
X017013Y012729D02*
X016253Y012729D01*
X016253Y012828D02*
X016153Y012828D01*
X016153Y012785D02*
X016153Y013685D01*
X015883Y013685D01*
X015845Y013675D01*
X015811Y013655D01*
X015783Y013628D01*
X015763Y013593D01*
X015753Y013555D01*
X015753Y012785D01*
X016153Y012785D01*
X016153Y012729D02*
X014253Y012729D01*
X014253Y012828D02*
X014153Y012828D01*
X014153Y012926D02*
X014253Y012926D01*
X014253Y013025D02*
X014153Y013025D01*
X014153Y013123D02*
X014253Y013123D01*
X014253Y013222D02*
X014153Y013222D01*
X014153Y013320D02*
X014253Y013320D01*
X014253Y013419D02*
X014153Y013419D01*
X014153Y013517D02*
X014253Y013517D01*
X014253Y013616D02*
X014153Y013616D01*
X014630Y013616D02*
X015776Y013616D01*
X015753Y013517D02*
X014653Y013517D01*
X014653Y013419D02*
X015753Y013419D01*
X015753Y013320D02*
X014653Y013320D01*
X014653Y013222D02*
X015753Y013222D01*
X015753Y013123D02*
X014653Y013123D01*
X014653Y013025D02*
X015753Y013025D01*
X015753Y012926D02*
X014653Y012926D01*
X014653Y012828D02*
X015753Y012828D01*
X015753Y012631D02*
X014653Y012631D01*
X014653Y012532D02*
X015753Y012532D01*
X015753Y012434D02*
X014653Y012434D01*
X014653Y012335D02*
X015753Y012335D01*
X015753Y012237D02*
X014653Y012237D01*
X014653Y012138D02*
X015753Y012138D01*
X015753Y012040D02*
X014653Y012040D01*
X014653Y011941D02*
X015753Y011941D01*
X016653Y011941D02*
X023177Y011941D01*
X023259Y012040D02*
X016653Y012040D01*
X016653Y012138D02*
X018236Y012138D01*
X018138Y012237D02*
X017868Y012237D01*
X017967Y012335D02*
X018039Y012335D01*
X018023Y011843D02*
X018096Y011843D01*
X017624Y011843D02*
X017550Y011843D01*
X017151Y011843D02*
X016908Y011843D01*
X016961Y011821D02*
X016961Y011821D01*
X016939Y010759D02*
X017106Y010759D01*
X018495Y011843D02*
X018569Y011843D01*
X017001Y012926D02*
X016653Y012926D01*
X016653Y013025D02*
X016903Y013025D01*
X016804Y013123D02*
X016653Y013123D01*
X016653Y013222D02*
X016706Y013222D01*
X016253Y013222D02*
X016153Y013222D01*
X016153Y013320D02*
X016253Y013320D01*
X016253Y013419D02*
X016153Y013419D01*
X016153Y013517D02*
X016253Y013517D01*
X016253Y013616D02*
X016153Y013616D01*
X016533Y013714D02*
X013781Y013714D01*
X013781Y013813D02*
X016533Y013813D01*
X016533Y013911D02*
X013781Y013911D01*
X013781Y014010D02*
X016533Y014010D01*
X016533Y014108D02*
X013781Y014108D01*
X013781Y014207D02*
X016533Y014207D01*
X016533Y014305D02*
X013781Y014305D01*
X013781Y014404D02*
X016533Y014404D01*
X016525Y014502D02*
X013781Y014502D01*
X013781Y014601D02*
X016427Y014601D01*
X016328Y014699D02*
X013781Y014699D01*
X013781Y014798D02*
X016230Y014798D01*
X016131Y014896D02*
X013781Y014896D01*
X013781Y014995D02*
X016033Y014995D01*
X015934Y015093D02*
X013781Y015093D01*
X013781Y015192D02*
X015836Y015192D01*
X015737Y015290D02*
X013781Y015290D01*
X013781Y015389D02*
X015639Y015389D01*
X015540Y015487D02*
X013781Y015487D01*
X013781Y015586D02*
X015533Y015586D01*
X015533Y015684D02*
X013781Y015684D01*
X013781Y015783D02*
X015533Y015783D01*
X015533Y015881D02*
X013781Y015881D01*
X013781Y015980D02*
X015533Y015980D01*
X015533Y016078D02*
X013862Y016078D01*
X013961Y016177D02*
X015533Y016177D01*
X015533Y016275D02*
X014059Y016275D01*
X014158Y016374D02*
X015533Y016374D01*
X015533Y016472D02*
X014256Y016472D01*
X014355Y016571D02*
X015533Y016571D01*
X015533Y016669D02*
X014453Y016669D01*
X014552Y016768D02*
X015533Y016768D01*
X015623Y016866D02*
X014568Y016866D01*
X014568Y016965D02*
X015722Y016965D01*
X015820Y017063D02*
X014516Y017063D01*
X014460Y017162D02*
X015933Y017162D01*
X015933Y017260D02*
X014518Y017260D01*
X014559Y017359D02*
X015933Y017359D01*
X015933Y017457D02*
X014568Y017457D01*
X014549Y017556D02*
X015933Y017556D01*
X015933Y017654D02*
X014495Y017654D01*
X014527Y017753D02*
X015933Y017753D01*
X015720Y017851D02*
X014568Y017851D01*
X014568Y017950D02*
X015652Y017950D01*
X015623Y018048D02*
X014541Y018048D01*
X014474Y018147D02*
X015623Y018147D01*
X015662Y018245D02*
X014535Y018245D01*
X014568Y018344D02*
X015745Y018344D01*
X015953Y018085D02*
X016153Y017885D01*
X016153Y016885D01*
X016723Y017235D02*
X016723Y018215D01*
X015953Y018985D01*
X016253Y018985D02*
X016253Y019685D01*
X016153Y019785D01*
X015953Y019785D01*
X015652Y019920D02*
X014548Y019920D01*
X014568Y019821D02*
X015623Y019821D01*
X015623Y019723D02*
X014560Y019723D01*
X014519Y019624D02*
X015663Y019624D01*
X015746Y019526D02*
X014513Y019526D01*
X014557Y019427D02*
X016033Y019427D01*
X016033Y019329D02*
X014568Y019329D01*
X014552Y019230D02*
X015731Y019230D01*
X015657Y019132D02*
X014501Y019132D01*
X014524Y019033D02*
X015623Y019033D01*
X015623Y018935D02*
X014565Y018935D01*
X014568Y018836D02*
X015658Y018836D01*
X015734Y018738D02*
X014543Y018738D01*
X014480Y018639D02*
X015988Y018639D01*
X016087Y018541D02*
X014533Y018541D01*
X014568Y018442D02*
X016185Y018442D01*
X016161Y018344D02*
X016284Y018344D01*
X016244Y018245D02*
X016382Y018245D01*
X016283Y018147D02*
X016481Y018147D01*
X016503Y018048D02*
X016301Y018048D01*
X016373Y017950D02*
X016503Y017950D01*
X016503Y017851D02*
X016373Y017851D01*
X016373Y017753D02*
X016503Y017753D01*
X016503Y017654D02*
X016373Y017654D01*
X016373Y017556D02*
X016503Y017556D01*
X016723Y017235D02*
X016773Y017185D01*
X017153Y017185D01*
X017653Y016685D01*
X017653Y014485D01*
X018553Y013585D01*
X018833Y014069D02*
X018777Y014125D01*
X018329Y014125D01*
X018327Y014123D01*
X017873Y014577D01*
X017873Y016565D01*
X018178Y016565D01*
X018178Y016545D01*
X018238Y016485D01*
X018178Y016426D01*
X018178Y016045D01*
X018238Y015985D01*
X018178Y015926D01*
X018178Y015545D01*
X018278Y015445D01*
X018633Y015445D01*
X018633Y014694D01*
X018762Y014565D01*
X018833Y014494D01*
X018833Y014069D01*
X018833Y014108D02*
X018794Y014108D01*
X018833Y014207D02*
X018243Y014207D01*
X018144Y014305D02*
X018833Y014305D01*
X018833Y014404D02*
X018046Y014404D01*
X017947Y014502D02*
X018825Y014502D01*
X018727Y014601D02*
X017873Y014601D01*
X017873Y014699D02*
X018633Y014699D01*
X018633Y014798D02*
X017873Y014798D01*
X017873Y014896D02*
X018633Y014896D01*
X018633Y014995D02*
X017873Y014995D01*
X017873Y015093D02*
X018633Y015093D01*
X018633Y015192D02*
X017873Y015192D01*
X017873Y015290D02*
X018633Y015290D01*
X018633Y015389D02*
X017873Y015389D01*
X017873Y015487D02*
X018236Y015487D01*
X018178Y015586D02*
X017873Y015586D01*
X017873Y015684D02*
X018178Y015684D01*
X018178Y015783D02*
X017873Y015783D01*
X017873Y015881D02*
X018178Y015881D01*
X018232Y015980D02*
X017873Y015980D01*
X017873Y016078D02*
X018178Y016078D01*
X018178Y016177D02*
X017873Y016177D01*
X017873Y016275D02*
X018178Y016275D01*
X018178Y016374D02*
X017873Y016374D01*
X017873Y016472D02*
X018225Y016472D01*
X017853Y016785D02*
X017353Y017285D01*
X017353Y017485D01*
X016953Y017885D01*
X016953Y018285D01*
X016253Y018985D01*
X016473Y019132D02*
X023283Y019132D01*
X023283Y019230D02*
X016473Y019230D01*
X016473Y019329D02*
X023283Y019329D01*
X023283Y019427D02*
X016473Y019427D01*
X016473Y019526D02*
X023283Y019526D01*
X023283Y019624D02*
X016473Y019624D01*
X016473Y019723D02*
X023283Y019723D01*
X023283Y019821D02*
X016428Y019821D01*
X016330Y019920D02*
X023283Y019920D01*
X023283Y020018D02*
X016187Y020018D01*
X015719Y020018D02*
X014493Y020018D01*
X014402Y020117D02*
X023283Y020117D01*
X023283Y020215D02*
X014490Y020215D01*
X014482Y020197D02*
X014482Y020197D01*
X014531Y020314D02*
X023283Y020314D01*
X023283Y020412D02*
X014568Y020412D01*
X014568Y020511D02*
X023283Y020511D01*
X023283Y020609D02*
X014568Y020609D01*
X014568Y020708D02*
X023283Y020708D01*
X023282Y020806D02*
X014569Y020806D01*
X014601Y020905D02*
X023250Y020905D01*
X023122Y021003D02*
X014730Y021003D01*
X013435Y020835D02*
X013439Y020792D01*
X013439Y020791D01*
X013440Y020585D01*
X013440Y020585D01*
X013440Y020515D01*
X013440Y020444D01*
X013440Y020403D01*
X013440Y020403D01*
X013526Y020196D01*
X013567Y020155D01*
X013567Y020069D01*
X013490Y019993D01*
X013441Y019873D01*
X013441Y019742D01*
X013490Y019622D01*
X013541Y019571D01*
X013490Y019521D01*
X013441Y019400D01*
X013441Y019270D01*
X013490Y019150D01*
X013541Y019099D01*
X013490Y019048D01*
X013441Y018928D01*
X013441Y018797D01*
X013490Y018677D01*
X013541Y018626D01*
X013490Y018576D01*
X013441Y018455D01*
X013441Y018325D01*
X013490Y018205D01*
X013541Y018154D01*
X013490Y018103D01*
X013441Y017983D01*
X013441Y017853D01*
X013490Y017732D01*
X013541Y017681D01*
X013490Y017631D01*
X013441Y017510D01*
X013441Y017380D01*
X013490Y017260D01*
X012287Y017260D01*
X012287Y017162D02*
X013549Y017162D01*
X013560Y017181D02*
X013440Y016975D01*
X013440Y016975D01*
X013440Y016925D01*
X012767Y016253D01*
X012767Y016253D01*
X012738Y016223D01*
X012652Y016016D01*
X012652Y012131D01*
X012647Y012087D01*
X012614Y012006D01*
X012552Y011945D01*
X012471Y011911D01*
X012427Y011906D01*
X009879Y011907D01*
X009879Y011907D01*
X009837Y011907D01*
X009630Y011821D01*
X009545Y011736D01*
X009530Y011736D01*
X009518Y011765D01*
X009426Y011857D01*
X009306Y011907D01*
X009175Y011907D01*
X009055Y011857D01*
X009004Y011806D01*
X008954Y011857D01*
X008833Y011907D01*
X008703Y011907D01*
X008583Y011857D01*
X008532Y011806D01*
X008481Y011857D01*
X008361Y011907D01*
X008231Y011907D01*
X008110Y011857D01*
X008059Y011806D01*
X008009Y011857D01*
X007888Y011907D01*
X007758Y011907D01*
X007638Y011857D01*
X007587Y011806D01*
X007536Y011857D01*
X007416Y011907D01*
X007286Y011907D01*
X007165Y011857D01*
X007115Y011806D01*
X007064Y011857D01*
X006943Y011907D01*
X006813Y011907D01*
X006693Y011857D01*
X006642Y011806D01*
X006591Y011857D01*
X006471Y011907D01*
X006341Y011907D01*
X006220Y011857D01*
X006170Y011806D01*
X006119Y011857D01*
X005999Y011907D01*
X005868Y011907D01*
X005748Y011857D01*
X005656Y011765D01*
X005644Y011736D01*
X005628Y011736D01*
X005544Y011820D01*
X005337Y011906D01*
X004161Y011906D01*
X004117Y011911D01*
X004036Y011944D01*
X003975Y012006D01*
X003941Y012086D01*
X003937Y012130D01*
X003937Y020791D01*
X003941Y020835D01*
X003975Y020916D01*
X004036Y020977D01*
X004117Y021011D01*
X004161Y021015D01*
X004197Y021015D01*
X009135Y021015D01*
X008796Y020676D01*
X008643Y020676D01*
X008327Y020360D01*
X008327Y019913D01*
X008617Y019622D01*
X008347Y019352D01*
X008347Y019186D01*
X008817Y019186D01*
X008817Y019086D01*
X008917Y019086D01*
X008917Y018616D01*
X009082Y018616D01*
X009387Y018921D01*
X009387Y018953D01*
X009643Y018696D01*
X010091Y018696D01*
X010327Y018933D01*
X010327Y018913D01*
X010572Y018668D01*
X010572Y017958D01*
X009645Y017031D01*
X007089Y017031D01*
X006762Y017358D01*
X006762Y017451D01*
X006772Y017476D01*
X006772Y017597D01*
X006733Y017691D01*
X006765Y017691D01*
X006864Y017790D01*
X006864Y018482D01*
X006765Y018582D01*
X006390Y018582D01*
X005494Y019478D01*
X005494Y019520D01*
X005264Y019750D01*
X005474Y019961D01*
X005474Y020101D01*
X005096Y020101D01*
X005096Y020159D01*
X005474Y020159D01*
X005474Y020299D01*
X005236Y020537D01*
X005096Y020537D01*
X005096Y020159D01*
X005038Y020159D01*
X005038Y020537D01*
X004898Y020537D01*
X004659Y020299D01*
X004659Y020159D01*
X005038Y020159D01*
X005038Y020101D01*
X004659Y020101D01*
X004659Y019961D01*
X004870Y019750D01*
X004639Y019520D01*
X004639Y019165D01*
X004890Y018915D01*
X005223Y018915D01*
X005973Y018165D01*
X005973Y018125D01*
X005751Y017903D01*
X005515Y017903D01*
X005453Y017841D01*
X005441Y017853D01*
X005407Y017873D01*
X005369Y017883D01*
X005181Y017883D01*
X005181Y017585D01*
X005084Y017585D01*
X005084Y017883D01*
X004896Y017883D01*
X004858Y017873D01*
X004824Y017853D01*
X004796Y017825D01*
X004776Y017791D01*
X004766Y017753D01*
X003937Y017753D01*
X003937Y017851D02*
X004822Y017851D01*
X004766Y017753D02*
X004766Y017585D01*
X005084Y017585D01*
X005084Y017488D01*
X004766Y017488D01*
X004766Y017320D01*
X004776Y017281D01*
X004796Y017247D01*
X004824Y017219D01*
X004858Y017200D01*
X004896Y017189D01*
X005084Y017189D01*
X005084Y017488D01*
X005181Y017488D01*
X005181Y017189D01*
X005369Y017189D01*
X005407Y017200D01*
X005441Y017219D01*
X005453Y017231D01*
X005507Y017177D01*
X005507Y016993D01*
X005461Y016948D01*
X005461Y016999D01*
X005362Y017098D01*
X005189Y017098D01*
X005173Y017105D01*
X004582Y017105D01*
X004474Y017060D01*
X004391Y016977D01*
X004291Y016878D01*
X004208Y016795D01*
X004163Y016686D01*
X004163Y015194D01*
X004093Y015194D01*
X003993Y015094D01*
X003993Y013378D01*
X004093Y013279D01*
X004824Y013279D01*
X004924Y013378D01*
X004924Y015094D01*
X004824Y015194D01*
X004753Y015194D01*
X004753Y016505D01*
X004763Y016515D01*
X004787Y016515D01*
X004787Y016445D01*
X005105Y016445D01*
X005105Y016427D01*
X004787Y016427D01*
X004787Y016298D01*
X004793Y016277D01*
X004767Y016251D01*
X004767Y015874D01*
X004867Y015774D01*
X004991Y015774D01*
X005023Y015742D01*
X005197Y015568D01*
X005197Y013277D01*
X005042Y013123D01*
X004765Y013123D01*
X004665Y013023D01*
X004665Y012449D01*
X004765Y012350D01*
X004942Y012350D01*
X005047Y012245D01*
X005176Y012116D01*
X006158Y012116D01*
X006358Y012316D01*
X006487Y012445D01*
X006487Y013145D01*
X006515Y013173D01*
X006515Y012718D01*
X006614Y012618D01*
X006972Y012618D01*
X007071Y012718D01*
X007071Y013316D01*
X007263Y013316D01*
X007263Y012718D01*
X007362Y012618D01*
X007720Y012618D01*
X007819Y012718D01*
X007819Y013316D01*
X008132Y013316D01*
X008132Y013096D01*
X008206Y013022D01*
X008182Y012998D01*
X008162Y012964D01*
X008152Y012926D01*
X008152Y012796D01*
X008727Y012796D01*
X008727Y012776D01*
X008747Y012776D01*
X008747Y012516D01*
X009192Y012516D01*
X009230Y012526D01*
X009264Y012546D01*
X009292Y012574D01*
X009312Y012608D01*
X009322Y012646D01*
X009322Y012776D01*
X008747Y012776D01*
X008747Y012796D01*
X009322Y012796D01*
X009322Y012926D01*
X009312Y012964D01*
X009292Y012998D01*
X009268Y013022D01*
X009312Y013066D01*
X009426Y013066D01*
X009447Y013045D01*
X009447Y012645D01*
X009551Y012541D01*
X009506Y012541D01*
X009394Y012495D01*
X009308Y012409D01*
X009262Y012297D01*
X009262Y012176D01*
X009308Y012063D01*
X009394Y011978D01*
X009506Y011931D01*
X009628Y011931D01*
X009740Y011978D01*
X009778Y012016D01*
X011558Y012016D01*
X011687Y012145D01*
X012287Y012745D01*
X012287Y020427D01*
X012158Y020556D01*
X011699Y021015D01*
X013145Y021015D01*
X013145Y021015D01*
X013214Y021015D01*
X013216Y021015D01*
X013259Y021011D01*
X013340Y020977D01*
X013401Y020916D01*
X013435Y020835D01*
X013438Y020806D02*
X013260Y020806D01*
X013325Y020742D02*
X013173Y020894D01*
X012974Y020976D01*
X012759Y020976D01*
X012561Y020894D01*
X012409Y020742D01*
X012327Y020544D01*
X012327Y020329D01*
X012409Y020130D01*
X012561Y019978D01*
X012759Y019896D01*
X012974Y019896D01*
X013173Y019978D01*
X013325Y020130D01*
X013407Y020329D01*
X013407Y020544D01*
X013325Y020742D01*
X013339Y020708D02*
X013439Y020708D01*
X013440Y020609D02*
X013380Y020609D01*
X013407Y020511D02*
X013440Y020511D01*
X013440Y020444D02*
X013440Y020444D01*
X013440Y020412D02*
X013407Y020412D01*
X013401Y020314D02*
X013477Y020314D01*
X013518Y020215D02*
X013360Y020215D01*
X013311Y020117D02*
X013567Y020117D01*
X013526Y020196D02*
X013526Y020196D01*
X013516Y020018D02*
X013213Y020018D01*
X013032Y019920D02*
X013460Y019920D01*
X013441Y019821D02*
X012287Y019821D01*
X012287Y019723D02*
X013449Y019723D01*
X013489Y019624D02*
X012287Y019624D01*
X012287Y019526D02*
X013496Y019526D01*
X013452Y019427D02*
X012287Y019427D01*
X012287Y019329D02*
X013441Y019329D01*
X013457Y019230D02*
X012287Y019230D01*
X012287Y019132D02*
X013508Y019132D01*
X013484Y019033D02*
X012287Y019033D01*
X012287Y018935D02*
X013444Y018935D01*
X013441Y018836D02*
X012287Y018836D01*
X012287Y018738D02*
X013465Y018738D01*
X013528Y018639D02*
X012287Y018639D01*
X012287Y018541D02*
X013476Y018541D01*
X013441Y018442D02*
X012287Y018442D01*
X012287Y018344D02*
X013441Y018344D01*
X013474Y018245D02*
X012287Y018245D01*
X012287Y018147D02*
X013534Y018147D01*
X013468Y018048D02*
X012287Y018048D01*
X012287Y017950D02*
X013441Y017950D01*
X013441Y017851D02*
X012287Y017851D01*
X012287Y017753D02*
X013482Y017753D01*
X013514Y017654D02*
X012287Y017654D01*
X012287Y017556D02*
X013459Y017556D01*
X013441Y017457D02*
X012287Y017457D01*
X012287Y017359D02*
X013449Y017359D01*
X013490Y017260D02*
X013566Y017184D01*
X013560Y017181D01*
X013560Y017181D01*
X013492Y017063D02*
X012287Y017063D01*
X012287Y016965D02*
X013440Y016965D01*
X013381Y016866D02*
X012287Y016866D01*
X012287Y016768D02*
X013283Y016768D01*
X013184Y016669D02*
X012287Y016669D01*
X012287Y016571D02*
X013086Y016571D01*
X012987Y016472D02*
X012287Y016472D01*
X012287Y016374D02*
X012889Y016374D01*
X012790Y016275D02*
X012287Y016275D01*
X012287Y016177D02*
X012719Y016177D01*
X012738Y016223D02*
X012738Y016223D01*
X012678Y016078D02*
X012287Y016078D01*
X012287Y015980D02*
X012652Y015980D01*
X012652Y015881D02*
X012287Y015881D01*
X012287Y015783D02*
X012652Y015783D01*
X012652Y015684D02*
X012287Y015684D01*
X012287Y015586D02*
X012652Y015586D01*
X012652Y015487D02*
X012287Y015487D01*
X012287Y015389D02*
X012652Y015389D01*
X012652Y015290D02*
X012287Y015290D01*
X012287Y015192D02*
X012652Y015192D01*
X012652Y015093D02*
X012287Y015093D01*
X012287Y014995D02*
X012652Y014995D01*
X012652Y014896D02*
X012287Y014896D01*
X012287Y014798D02*
X012652Y014798D01*
X012652Y014699D02*
X012287Y014699D01*
X012287Y014601D02*
X012652Y014601D01*
X012652Y014502D02*
X012287Y014502D01*
X012287Y014404D02*
X012652Y014404D01*
X012652Y014305D02*
X012287Y014305D01*
X012287Y014207D02*
X012652Y014207D01*
X012652Y014108D02*
X012287Y014108D01*
X012287Y014010D02*
X012652Y014010D01*
X012652Y013911D02*
X012287Y013911D01*
X012287Y013813D02*
X012652Y013813D01*
X012652Y013714D02*
X012287Y013714D01*
X012287Y013616D02*
X012652Y013616D01*
X012652Y013517D02*
X012287Y013517D01*
X012287Y013419D02*
X012652Y013419D01*
X012652Y013320D02*
X012287Y013320D01*
X012287Y013222D02*
X012652Y013222D01*
X012652Y013123D02*
X012287Y013123D01*
X012287Y013025D02*
X012652Y013025D01*
X012652Y012926D02*
X012287Y012926D01*
X012287Y012828D02*
X012652Y012828D01*
X012652Y012729D02*
X012271Y012729D01*
X012173Y012631D02*
X012652Y012631D01*
X012652Y012532D02*
X012074Y012532D01*
X011976Y012434D02*
X012652Y012434D01*
X012652Y012335D02*
X011877Y012335D01*
X011779Y012237D02*
X012652Y012237D01*
X012652Y012138D02*
X011680Y012138D01*
X011582Y012040D02*
X012628Y012040D01*
X012544Y011941D02*
X009652Y011941D01*
X009683Y011843D02*
X009440Y011843D01*
X009482Y011941D02*
X004042Y011941D01*
X003960Y012040D02*
X009332Y012040D01*
X009277Y012138D02*
X006180Y012138D01*
X006279Y012237D02*
X009262Y012237D01*
X009278Y012335D02*
X006377Y012335D01*
X006476Y012434D02*
X009333Y012434D01*
X009240Y012532D02*
X009485Y012532D01*
X009461Y012631D02*
X009318Y012631D01*
X009322Y012729D02*
X009447Y012729D01*
X009447Y012828D02*
X009322Y012828D01*
X009322Y012926D02*
X009447Y012926D01*
X009447Y013025D02*
X009271Y013025D01*
X009517Y013286D02*
X008737Y013286D01*
X008417Y013286D01*
X008487Y013536D02*
X008737Y013786D01*
X008487Y013536D02*
X006567Y013536D01*
X006267Y013236D01*
X006267Y012536D01*
X006067Y012336D01*
X005267Y012336D01*
X005032Y012571D01*
X005032Y012736D01*
X005032Y012802D01*
X005417Y013186D01*
X005417Y015659D01*
X005114Y015962D01*
X005114Y016062D01*
X004858Y015783D02*
X004753Y015783D01*
X004753Y015881D02*
X004767Y015881D01*
X004753Y015980D02*
X004767Y015980D01*
X004753Y016078D02*
X004767Y016078D01*
X004753Y016177D02*
X004767Y016177D01*
X004753Y016275D02*
X004792Y016275D01*
X004787Y016374D02*
X004753Y016374D01*
X004753Y016472D02*
X004787Y016472D01*
X004163Y016472D02*
X003937Y016472D01*
X003937Y016374D02*
X004163Y016374D01*
X004163Y016275D02*
X003937Y016275D01*
X003937Y016177D02*
X004163Y016177D01*
X004163Y016078D02*
X003937Y016078D01*
X003937Y015980D02*
X004163Y015980D01*
X004163Y015881D02*
X003937Y015881D01*
X003937Y015783D02*
X004163Y015783D01*
X004163Y015684D02*
X003937Y015684D01*
X003937Y015586D02*
X004163Y015586D01*
X004163Y015487D02*
X003937Y015487D01*
X003937Y015389D02*
X004163Y015389D01*
X004163Y015290D02*
X003937Y015290D01*
X003937Y015192D02*
X004091Y015192D01*
X003993Y015093D02*
X003937Y015093D01*
X003937Y014995D02*
X003993Y014995D01*
X003993Y014896D02*
X003937Y014896D01*
X003937Y014798D02*
X003993Y014798D01*
X003993Y014699D02*
X003937Y014699D01*
X003937Y014601D02*
X003993Y014601D01*
X003993Y014502D02*
X003937Y014502D01*
X003937Y014404D02*
X003993Y014404D01*
X003993Y014305D02*
X003937Y014305D01*
X003937Y014207D02*
X003993Y014207D01*
X003993Y014108D02*
X003937Y014108D01*
X003937Y014010D02*
X003993Y014010D01*
X003993Y013911D02*
X003937Y013911D01*
X003937Y013813D02*
X003993Y013813D01*
X003993Y013714D02*
X003937Y013714D01*
X003937Y013616D02*
X003993Y013616D01*
X003993Y013517D02*
X003937Y013517D01*
X003937Y013419D02*
X003993Y013419D01*
X003937Y013320D02*
X004051Y013320D01*
X003937Y013222D02*
X005141Y013222D01*
X005197Y013320D02*
X004866Y013320D01*
X004924Y013419D02*
X005197Y013419D01*
X005197Y013517D02*
X004924Y013517D01*
X004924Y013616D02*
X005197Y013616D01*
X005197Y013714D02*
X004924Y013714D01*
X004924Y013813D02*
X005197Y013813D01*
X005197Y013911D02*
X004924Y013911D01*
X004924Y014010D02*
X005197Y014010D01*
X005197Y014108D02*
X004924Y014108D01*
X004924Y014207D02*
X005197Y014207D01*
X005197Y014305D02*
X004924Y014305D01*
X004924Y014404D02*
X005197Y014404D01*
X005197Y014502D02*
X004924Y014502D01*
X004924Y014601D02*
X005197Y014601D01*
X005197Y014699D02*
X004924Y014699D01*
X004924Y014798D02*
X005197Y014798D01*
X005197Y014896D02*
X004924Y014896D01*
X004924Y014995D02*
X005197Y014995D01*
X005197Y015093D02*
X004924Y015093D01*
X004826Y015192D02*
X005197Y015192D01*
X005197Y015290D02*
X004753Y015290D01*
X004753Y015389D02*
X005197Y015389D01*
X005197Y015487D02*
X004753Y015487D01*
X004753Y015586D02*
X005179Y015586D01*
X005081Y015684D02*
X004753Y015684D01*
X004163Y016571D02*
X003937Y016571D01*
X003937Y016669D02*
X004163Y016669D01*
X004197Y016768D02*
X003937Y016768D01*
X003937Y016866D02*
X004280Y016866D01*
X004378Y016965D02*
X003937Y016965D01*
X003937Y017063D02*
X004481Y017063D01*
X004788Y017260D02*
X003937Y017260D01*
X003937Y017162D02*
X005507Y017162D01*
X005507Y017063D02*
X005397Y017063D01*
X005461Y016965D02*
X005478Y016965D01*
X005181Y017260D02*
X005084Y017260D01*
X005084Y017359D02*
X005181Y017359D01*
X005181Y017457D02*
X005084Y017457D01*
X005084Y017556D02*
X003937Y017556D01*
X003937Y017654D02*
X004766Y017654D01*
X004766Y017457D02*
X003937Y017457D01*
X003937Y017359D02*
X004766Y017359D01*
X005084Y017654D02*
X005181Y017654D01*
X005181Y017753D02*
X005084Y017753D01*
X005084Y017851D02*
X005181Y017851D01*
X005443Y017851D02*
X005463Y017851D01*
X005798Y017950D02*
X003937Y017950D01*
X003937Y018048D02*
X005897Y018048D01*
X005973Y018147D02*
X003937Y018147D01*
X003937Y018245D02*
X005892Y018245D01*
X005794Y018344D02*
X003937Y018344D01*
X003937Y018442D02*
X005695Y018442D01*
X005597Y018541D02*
X003937Y018541D01*
X003937Y018639D02*
X005498Y018639D01*
X005400Y018738D02*
X003937Y018738D01*
X003937Y018836D02*
X005301Y018836D01*
X004870Y018935D02*
X003937Y018935D01*
X003937Y019033D02*
X004771Y019033D01*
X004673Y019132D02*
X003937Y019132D01*
X003937Y019230D02*
X004639Y019230D01*
X004639Y019329D02*
X003937Y019329D01*
X003937Y019427D02*
X004639Y019427D01*
X004646Y019526D02*
X003937Y019526D01*
X003937Y019624D02*
X004744Y019624D01*
X004843Y019723D02*
X003937Y019723D01*
X003937Y019821D02*
X004799Y019821D01*
X004701Y019920D02*
X003937Y019920D01*
X003937Y020018D02*
X004659Y020018D01*
X004659Y020215D02*
X003937Y020215D01*
X003937Y020117D02*
X005038Y020117D01*
X005096Y020117D02*
X007317Y020117D01*
X007317Y020086D02*
X006848Y020086D01*
X006860Y020014D01*
X006885Y019937D01*
X006922Y019864D01*
X006970Y019797D01*
X007028Y019740D01*
X007094Y019691D01*
X007167Y019654D01*
X007189Y019647D01*
X007061Y019594D01*
X006909Y019442D01*
X006827Y019244D01*
X006827Y019029D01*
X006909Y018830D01*
X007061Y018678D01*
X007259Y018596D01*
X007474Y018596D01*
X007485Y018601D01*
X007537Y018549D01*
X007469Y018482D01*
X007469Y017790D01*
X007569Y017691D01*
X008261Y017691D01*
X008361Y017790D01*
X008361Y018482D01*
X008261Y018582D01*
X008210Y018582D01*
X008210Y018647D01*
X008165Y018755D01*
X007902Y019018D01*
X007907Y019029D01*
X007907Y019244D01*
X007825Y019442D01*
X007673Y019594D01*
X007544Y019647D01*
X007567Y019654D01*
X007639Y019691D01*
X007706Y019740D01*
X007764Y019797D01*
X007812Y019864D01*
X007849Y019937D01*
X007874Y020014D01*
X007885Y020086D01*
X007417Y020086D01*
X007417Y020186D01*
X007885Y020186D01*
X007874Y020258D01*
X007849Y020336D01*
X007812Y020409D01*
X007764Y020475D01*
X007706Y020533D01*
X007639Y020581D01*
X007567Y020618D01*
X007489Y020643D01*
X007417Y020655D01*
X007417Y020186D01*
X007317Y020186D01*
X007317Y020086D01*
X007317Y020186D02*
X006848Y020186D01*
X006860Y020258D01*
X006885Y020336D01*
X006922Y020409D01*
X006970Y020475D01*
X007028Y020533D01*
X007094Y020581D01*
X007167Y020618D01*
X007245Y020643D01*
X007317Y020655D01*
X007317Y020186D01*
X007317Y020215D02*
X007417Y020215D01*
X007417Y020117D02*
X008327Y020117D01*
X008327Y020215D02*
X007881Y020215D01*
X007856Y020314D02*
X008327Y020314D01*
X008379Y020412D02*
X007809Y020412D01*
X007728Y020511D02*
X008478Y020511D01*
X008576Y020609D02*
X007584Y020609D01*
X007417Y020609D02*
X007317Y020609D01*
X007317Y020511D02*
X007417Y020511D01*
X007417Y020412D02*
X007317Y020412D01*
X007317Y020314D02*
X007417Y020314D01*
X007150Y020609D02*
X003937Y020609D01*
X003937Y020511D02*
X004872Y020511D01*
X004773Y020412D02*
X003937Y020412D01*
X003937Y020314D02*
X004675Y020314D01*
X005038Y020314D02*
X005096Y020314D01*
X005096Y020412D02*
X005038Y020412D01*
X005038Y020511D02*
X005096Y020511D01*
X005262Y020511D02*
X007006Y020511D01*
X006925Y020412D02*
X005361Y020412D01*
X005459Y020314D02*
X006878Y020314D01*
X006853Y020215D02*
X005474Y020215D01*
X005474Y020018D02*
X006859Y020018D01*
X006894Y019920D02*
X005433Y019920D01*
X005335Y019821D02*
X006953Y019821D01*
X007051Y019723D02*
X005291Y019723D01*
X005390Y019624D02*
X007134Y019624D01*
X006993Y019526D02*
X005488Y019526D01*
X005545Y019427D02*
X006903Y019427D01*
X006862Y019329D02*
X005643Y019329D01*
X005742Y019230D02*
X006827Y019230D01*
X006827Y019132D02*
X005840Y019132D01*
X005939Y019033D02*
X006827Y019033D01*
X006866Y018935D02*
X006037Y018935D01*
X006136Y018836D02*
X006907Y018836D01*
X007002Y018738D02*
X006234Y018738D01*
X006333Y018639D02*
X007155Y018639D01*
X006864Y018442D02*
X007469Y018442D01*
X007469Y018344D02*
X006864Y018344D01*
X006864Y018245D02*
X007469Y018245D01*
X007469Y018147D02*
X006864Y018147D01*
X006864Y018048D02*
X007469Y018048D01*
X007469Y017950D02*
X006864Y017950D01*
X006864Y017851D02*
X007469Y017851D01*
X007507Y017753D02*
X006827Y017753D01*
X006748Y017654D02*
X010268Y017654D01*
X010169Y017556D02*
X006772Y017556D01*
X006764Y017457D02*
X010071Y017457D01*
X009972Y017359D02*
X006762Y017359D01*
X006860Y017260D02*
X009874Y017260D01*
X009775Y017162D02*
X006958Y017162D01*
X007057Y017063D02*
X009677Y017063D01*
X009645Y016441D02*
X009204Y016441D01*
X009204Y016186D01*
X008415Y016186D01*
X008415Y016086D01*
X009204Y016086D01*
X009204Y015802D01*
X009193Y015763D01*
X009174Y015729D01*
X009146Y015701D01*
X009111Y015681D01*
X009073Y015671D01*
X008415Y015671D01*
X008415Y016086D01*
X008315Y016086D01*
X008315Y015671D01*
X007656Y015671D01*
X007633Y015677D01*
X007633Y015654D01*
X007623Y015616D01*
X007603Y015582D01*
X007576Y015554D01*
X007571Y015551D01*
X007653Y015469D01*
X007653Y014934D01*
X007650Y014931D01*
X007845Y014931D01*
X008317Y015403D01*
X008400Y015486D01*
X008508Y015531D01*
X009345Y015531D01*
X009710Y015897D01*
X009710Y016376D01*
X009645Y016441D01*
X009710Y016374D02*
X009204Y016374D01*
X009204Y016275D02*
X009710Y016275D01*
X009710Y016177D02*
X008415Y016177D01*
X008415Y016078D02*
X008315Y016078D01*
X008315Y015980D02*
X008415Y015980D01*
X008415Y015881D02*
X008315Y015881D01*
X008315Y015783D02*
X008415Y015783D01*
X008415Y015684D02*
X008315Y015684D01*
X008403Y015487D02*
X007635Y015487D01*
X007653Y015389D02*
X008302Y015389D01*
X008204Y015290D02*
X007653Y015290D01*
X007653Y015192D02*
X008105Y015192D01*
X008007Y015093D02*
X007653Y015093D01*
X007653Y014995D02*
X007908Y014995D01*
X007867Y015336D02*
X007802Y015336D01*
X007267Y015871D01*
X007315Y015919D02*
X007218Y015919D01*
X007218Y016218D01*
X007031Y016218D01*
X006992Y016207D01*
X006987Y016204D01*
X006962Y016230D01*
X006962Y016314D01*
X007089Y016441D01*
X007526Y016441D01*
X007526Y016212D01*
X007503Y016218D01*
X007315Y016218D01*
X007315Y015919D01*
X007315Y015980D02*
X007218Y015980D01*
X007218Y016078D02*
X007315Y016078D01*
X007315Y016177D02*
X007218Y016177D01*
X006962Y016275D02*
X007526Y016275D01*
X007526Y016374D02*
X007022Y016374D01*
X006267Y015815D02*
X006267Y015536D01*
X006602Y015202D01*
X006667Y015202D01*
X007267Y015202D01*
X006948Y014835D02*
X006917Y014803D01*
X006872Y014695D01*
X006872Y014578D01*
X006917Y014469D01*
X006947Y014439D01*
X006947Y014427D01*
X006921Y014434D01*
X006797Y014434D01*
X006797Y014052D01*
X006789Y014052D01*
X006789Y014044D01*
X006535Y014044D01*
X006535Y013792D01*
X006544Y013756D01*
X006476Y013756D01*
X006341Y013621D01*
X006341Y014874D01*
X006380Y014835D01*
X006948Y014835D01*
X006915Y014798D02*
X006341Y014798D01*
X006341Y014699D02*
X006874Y014699D01*
X006872Y014601D02*
X006341Y014601D01*
X006341Y014502D02*
X006903Y014502D01*
X006789Y014434D02*
X006665Y014434D01*
X006627Y014424D01*
X006593Y014404D01*
X006565Y014376D01*
X006545Y014342D01*
X006535Y014304D01*
X006535Y014052D01*
X006789Y014052D01*
X006789Y014434D01*
X006789Y014404D02*
X006797Y014404D01*
X006789Y014305D02*
X006797Y014305D01*
X006789Y014207D02*
X006797Y014207D01*
X006789Y014108D02*
X006797Y014108D01*
X006535Y014108D02*
X006341Y014108D01*
X006341Y014010D02*
X006535Y014010D01*
X006535Y013911D02*
X006341Y013911D01*
X006341Y013813D02*
X006535Y013813D01*
X006434Y013714D02*
X006341Y013714D01*
X006341Y014207D02*
X006535Y014207D01*
X006535Y014305D02*
X006341Y014305D01*
X006341Y014404D02*
X006592Y014404D01*
X007167Y014636D02*
X007167Y014048D01*
X007541Y014048D02*
X009255Y014048D01*
X009367Y013936D01*
X010647Y013936D01*
X010797Y013786D01*
X011217Y013786D01*
X011467Y014036D01*
X011467Y015236D01*
X011167Y015236D01*
X011467Y015236D02*
X011467Y019536D01*
X011367Y019636D01*
X010467Y019636D01*
X009867Y020236D01*
X009367Y020536D02*
X009367Y019736D01*
X009867Y019236D01*
X009405Y018935D02*
X009387Y018935D01*
X009303Y018836D02*
X009503Y018836D01*
X009602Y018738D02*
X009204Y018738D01*
X009106Y018639D02*
X010572Y018639D01*
X010572Y018541D02*
X008302Y018541D01*
X008361Y018442D02*
X010572Y018442D01*
X010572Y018344D02*
X008361Y018344D01*
X008361Y018245D02*
X010572Y018245D01*
X010572Y018147D02*
X008361Y018147D01*
X008361Y018048D02*
X010572Y018048D01*
X010563Y017950D02*
X008361Y017950D01*
X008361Y017851D02*
X010465Y017851D01*
X010366Y017753D02*
X008323Y017753D01*
X008652Y018616D02*
X008817Y018616D01*
X008817Y019086D01*
X008347Y019086D01*
X008347Y018921D01*
X008652Y018616D01*
X008628Y018639D02*
X008210Y018639D01*
X008172Y018738D02*
X008530Y018738D01*
X008431Y018836D02*
X008084Y018836D01*
X007985Y018935D02*
X008347Y018935D01*
X008347Y019033D02*
X007907Y019033D01*
X007907Y019132D02*
X008817Y019132D01*
X008817Y019033D02*
X008917Y019033D01*
X008917Y018935D02*
X008817Y018935D01*
X008817Y018836D02*
X008917Y018836D01*
X008917Y018738D02*
X008817Y018738D01*
X008817Y018639D02*
X008917Y018639D01*
X008347Y019230D02*
X007907Y019230D01*
X007872Y019329D02*
X008347Y019329D01*
X008423Y019427D02*
X007831Y019427D01*
X007741Y019526D02*
X008521Y019526D01*
X008615Y019624D02*
X007599Y019624D01*
X007683Y019723D02*
X008517Y019723D01*
X008418Y019821D02*
X007781Y019821D01*
X007840Y019920D02*
X008327Y019920D01*
X008327Y020018D02*
X007875Y020018D01*
X008867Y020136D02*
X008867Y020436D01*
X009367Y020936D01*
X011467Y020936D01*
X012067Y020336D01*
X012067Y012836D01*
X011467Y012236D01*
X009567Y012236D01*
X009837Y011907D02*
X009837Y011907D01*
X009630Y011821D02*
X009630Y011821D01*
X009554Y011744D02*
X009527Y011744D01*
X009041Y011843D02*
X008967Y011843D01*
X008569Y011843D02*
X008495Y011843D01*
X008096Y011843D02*
X008023Y011843D01*
X007624Y011843D02*
X007550Y011843D01*
X007151Y011843D02*
X007078Y011843D01*
X006679Y011843D02*
X006605Y011843D01*
X006207Y011843D02*
X006133Y011843D01*
X005734Y011843D02*
X005490Y011843D01*
X005544Y011820D02*
X005544Y011820D01*
X005620Y011744D02*
X005647Y011744D01*
X005154Y012138D02*
X003937Y012138D01*
X003937Y012237D02*
X005055Y012237D01*
X004957Y012335D02*
X003937Y012335D01*
X003937Y012434D02*
X004681Y012434D01*
X004665Y012532D02*
X003937Y012532D01*
X003937Y012631D02*
X004665Y012631D01*
X004665Y012729D02*
X003937Y012729D01*
X003937Y012828D02*
X004665Y012828D01*
X004665Y012926D02*
X003937Y012926D01*
X003937Y013025D02*
X004667Y013025D01*
X005043Y013123D02*
X003937Y013123D01*
X005014Y012754D02*
X005032Y012736D01*
X005702Y012736D02*
X005702Y014362D01*
X005776Y014436D01*
X005776Y014536D02*
X005710Y014602D01*
X006267Y015815D02*
X006020Y016062D01*
X007606Y015586D02*
X009399Y015586D01*
X009498Y015684D02*
X009117Y015684D01*
X009199Y015783D02*
X009596Y015783D01*
X009695Y015881D02*
X009204Y015881D01*
X009204Y015980D02*
X009710Y015980D01*
X009710Y016078D02*
X009204Y016078D01*
X009367Y014336D02*
X008787Y014336D01*
X008737Y014286D01*
X008687Y014336D01*
X009517Y013286D02*
X009667Y013136D01*
X009667Y012736D01*
X009967Y012436D01*
X011267Y012436D01*
X011567Y012736D01*
X011117Y012786D02*
X011867Y013536D01*
X011867Y020236D01*
X011367Y020736D01*
X009567Y020736D01*
X009367Y020536D01*
X009025Y020905D02*
X003970Y020905D01*
X003938Y020806D02*
X008926Y020806D01*
X008828Y020708D02*
X003937Y020708D01*
X004099Y021003D02*
X009123Y021003D01*
X010867Y020136D02*
X011367Y020136D01*
X011667Y019836D01*
X011667Y013836D01*
X011117Y013286D01*
X010797Y013286D01*
X010547Y013036D01*
X010217Y013036D01*
X009967Y013136D02*
X009967Y012836D01*
X010067Y012736D01*
X010747Y012736D01*
X010797Y012786D01*
X010747Y012836D01*
X010797Y012786D02*
X011117Y012786D01*
X010167Y013336D02*
X010167Y013536D01*
X010167Y013336D02*
X009967Y013136D01*
X008747Y012729D02*
X008727Y012729D01*
X008727Y012776D02*
X008727Y012516D01*
X008282Y012516D01*
X008244Y012526D01*
X008210Y012546D01*
X008182Y012574D01*
X008162Y012608D01*
X008152Y012646D01*
X008152Y012776D01*
X008727Y012776D01*
X008727Y012631D02*
X008747Y012631D01*
X008747Y012532D02*
X008727Y012532D01*
X008234Y012532D02*
X006487Y012532D01*
X006487Y012631D02*
X006601Y012631D01*
X006515Y012729D02*
X006487Y012729D01*
X006487Y012828D02*
X006515Y012828D01*
X006515Y012926D02*
X006487Y012926D01*
X006487Y013025D02*
X006515Y013025D01*
X006515Y013123D02*
X006487Y013123D01*
X007071Y013123D02*
X007263Y013123D01*
X007263Y013025D02*
X007071Y013025D01*
X007071Y012926D02*
X007263Y012926D01*
X007263Y012828D02*
X007071Y012828D01*
X007071Y012729D02*
X007263Y012729D01*
X007350Y012631D02*
X006984Y012631D01*
X007071Y013222D02*
X007263Y013222D01*
X007819Y013222D02*
X008132Y013222D01*
X008132Y013123D02*
X007819Y013123D01*
X007819Y013025D02*
X008203Y013025D01*
X008152Y012926D02*
X007819Y012926D01*
X007819Y012828D02*
X008152Y012828D01*
X008152Y012729D02*
X007819Y012729D01*
X007732Y012631D02*
X008156Y012631D01*
X011239Y010562D02*
X011795Y010562D01*
X011654Y010464D02*
X011380Y010464D01*
X011466Y010365D02*
X011573Y010365D01*
X011527Y010267D02*
X011507Y010267D01*
X011489Y009873D02*
X011545Y009873D01*
X011605Y009774D02*
X011435Y009774D01*
X011336Y009676D02*
X011705Y009676D01*
X011966Y008980D02*
X013017Y010031D01*
X013017Y010092D01*
X016153Y012926D02*
X016253Y012926D01*
X016253Y013025D02*
X016153Y013025D01*
X016153Y013123D02*
X016253Y013123D01*
X019073Y014877D02*
X019073Y015445D01*
X019227Y015445D01*
X019224Y015419D01*
X019233Y015408D01*
X019233Y015394D01*
X019289Y015338D01*
X019633Y014908D01*
X019633Y014894D01*
X019689Y014838D01*
X019738Y014777D01*
X019752Y014775D01*
X019933Y014594D01*
X019933Y014041D01*
X019769Y014205D01*
X019603Y014205D01*
X019603Y013735D01*
X019503Y013735D01*
X019503Y014205D01*
X019338Y014205D01*
X019273Y014141D01*
X019273Y014677D01*
X019073Y014877D01*
X019073Y014896D02*
X019633Y014896D01*
X019564Y014995D02*
X019073Y014995D01*
X019073Y015093D02*
X019485Y015093D01*
X019406Y015192D02*
X019073Y015192D01*
X019073Y015290D02*
X019327Y015290D01*
X019239Y015389D02*
X019073Y015389D01*
X019453Y015485D02*
X019453Y016085D01*
X019342Y016472D02*
X023283Y016472D01*
X023283Y016571D02*
X019388Y016571D01*
X019388Y016669D02*
X023283Y016669D01*
X023283Y016768D02*
X019388Y016768D01*
X019388Y016866D02*
X023283Y016866D01*
X023283Y016965D02*
X019349Y016965D01*
X019359Y017063D02*
X023283Y017063D01*
X023283Y017162D02*
X019368Y017162D01*
X019368Y017260D02*
X023283Y017260D01*
X023283Y017359D02*
X019368Y017359D01*
X019328Y017457D02*
X023283Y017457D01*
X023283Y017556D02*
X017573Y017556D01*
X017573Y017457D02*
X018238Y017457D01*
X018228Y017448D02*
X018208Y017413D01*
X018198Y017375D01*
X018198Y017245D01*
X018773Y017245D01*
X018773Y017505D01*
X018328Y017505D01*
X018290Y017495D01*
X018256Y017475D01*
X018228Y017448D01*
X018198Y017359D02*
X017591Y017359D01*
X017689Y017260D02*
X018198Y017260D01*
X018198Y017162D02*
X017788Y017162D01*
X017886Y017063D02*
X018207Y017063D01*
X017853Y016785D02*
X018733Y016785D01*
X018783Y016735D01*
X018773Y017260D02*
X018793Y017260D01*
X018793Y017359D02*
X018773Y017359D01*
X018773Y017457D02*
X018793Y017457D01*
X017495Y017654D02*
X023283Y017654D01*
X023283Y017753D02*
X017397Y017753D01*
X017298Y017851D02*
X023283Y017851D01*
X023283Y017950D02*
X017200Y017950D01*
X017173Y018048D02*
X023283Y018048D01*
X023283Y018147D02*
X017173Y018147D01*
X017173Y018245D02*
X023283Y018245D01*
X023283Y018344D02*
X017173Y018344D01*
X017107Y018442D02*
X023283Y018442D01*
X023283Y018541D02*
X017009Y018541D01*
X016910Y018639D02*
X023283Y018639D01*
X023283Y018738D02*
X016812Y018738D01*
X016713Y018836D02*
X023283Y018836D01*
X023283Y018935D02*
X016615Y018935D01*
X016516Y019033D02*
X023283Y019033D01*
X019453Y015485D02*
X019853Y014985D01*
X020153Y014685D01*
X020153Y013285D01*
X019603Y013813D02*
X019503Y013813D01*
X019503Y013911D02*
X019603Y013911D01*
X019603Y014010D02*
X019503Y014010D01*
X019503Y014108D02*
X019603Y014108D01*
X019866Y014108D02*
X019933Y014108D01*
X019933Y014207D02*
X019273Y014207D01*
X019273Y014305D02*
X019933Y014305D01*
X019933Y014404D02*
X019273Y014404D01*
X019273Y014502D02*
X019933Y014502D01*
X019927Y014601D02*
X019273Y014601D01*
X019250Y014699D02*
X019828Y014699D01*
X019721Y014798D02*
X019152Y014798D01*
X018753Y015705D02*
X018783Y015735D01*
X012702Y019920D02*
X012287Y019920D01*
X012287Y020018D02*
X012521Y020018D01*
X012423Y020117D02*
X012287Y020117D01*
X012287Y020215D02*
X012374Y020215D01*
X012333Y020314D02*
X012287Y020314D01*
X012287Y020412D02*
X012327Y020412D01*
X012327Y020511D02*
X012203Y020511D01*
X012105Y020609D02*
X012354Y020609D01*
X012395Y020708D02*
X012006Y020708D01*
X011908Y020806D02*
X012473Y020806D01*
X012587Y020905D02*
X011809Y020905D01*
X011711Y021003D02*
X013277Y021003D01*
X013406Y020905D02*
X013146Y020905D01*
X010502Y018738D02*
X010132Y018738D01*
X010231Y018836D02*
X010403Y018836D01*
X007528Y018541D02*
X006806Y018541D01*
X005096Y020215D02*
X005038Y020215D01*
X010718Y003470D02*
X010720Y003470D01*
D34*
X011017Y003131D03*
X009917Y002631D03*
X008817Y002631D03*
X007717Y002631D03*
X006617Y002631D03*
X005117Y004131D03*
X004317Y003631D03*
X006617Y006631D03*
X007117Y007131D03*
X006817Y007531D03*
X006417Y007331D03*
X007717Y006631D03*
X008817Y006731D03*
X009417Y007531D03*
X010117Y007731D03*
X009917Y008231D03*
X010817Y007731D03*
X011117Y007331D03*
X012117Y008231D03*
X013617Y007331D03*
X015017Y007331D03*
X016417Y007331D03*
X017817Y007331D03*
X016417Y008531D03*
X016017Y008731D03*
X016717Y010431D03*
X020417Y007431D03*
X021017Y007031D03*
X022017Y007731D03*
X022817Y007731D03*
X021317Y008931D03*
X021317Y009931D03*
X020417Y006031D03*
X021017Y005531D03*
X022017Y004331D03*
X022817Y004331D03*
X017817Y004831D03*
X016417Y004831D03*
X015017Y004831D03*
X013617Y004831D03*
X013617Y002531D03*
X015017Y002531D03*
X016417Y002531D03*
X017817Y002531D03*
X011017Y005931D03*
X010817Y005331D03*
X008617Y008731D03*
X008617Y009531D03*
X009717Y009431D03*
X010117Y009431D03*
X009717Y010231D03*
X013953Y013985D03*
X015253Y014285D03*
X015653Y013885D03*
X016153Y014185D03*
X015953Y014785D03*
X014253Y016285D03*
X016053Y016485D03*
X015953Y018085D03*
X015953Y018985D03*
X015953Y019785D03*
X018253Y014985D03*
X019253Y014985D03*
X004317Y008431D03*
D35*
X007167Y012436D03*
X007967Y012436D03*
X009567Y012236D03*
X010217Y013036D03*
X010167Y013536D03*
X009367Y014336D03*
X007867Y015336D03*
X006467Y014536D03*
X005167Y014736D03*
X005067Y015236D03*
X005167Y013736D03*
X009467Y016136D03*
X011167Y015236D03*
X012867Y016636D03*
X012367Y018536D03*
X012367Y019636D03*
X012067Y020836D03*
X008067Y020836D03*
X008067Y019936D03*
X008067Y019136D03*
X006467Y019936D03*
X005767Y019636D03*
X005767Y020436D03*
X006467Y020836D03*
X004167Y020836D03*
X004167Y018536D03*
X006467Y017536D03*
X011567Y012736D03*
D36*
X010797Y014286D02*
X010797Y015909D01*
X010569Y016136D01*
X010367Y016136D01*
X009467Y015236D01*
X008567Y015236D01*
X007967Y014636D01*
X007167Y014636D01*
X005876Y014236D02*
X005876Y015628D01*
X005567Y015936D01*
X005567Y016636D01*
X005741Y016810D01*
X006020Y016810D01*
X005802Y017028D01*
X005802Y017536D01*
X006402Y018136D01*
X006419Y018136D01*
X005213Y019343D01*
X005067Y019343D01*
X006467Y017536D02*
X006467Y017236D01*
X006967Y016736D01*
X006667Y016436D01*
X006667Y015871D01*
X006667Y016436D02*
X006020Y016436D01*
X005114Y016810D02*
X004641Y016810D01*
X004458Y016628D01*
X004458Y014236D01*
X004367Y014145D01*
X005776Y014436D02*
X005776Y014536D01*
X005776Y014436D02*
X005876Y014236D01*
X006967Y016736D02*
X009767Y016736D01*
X010867Y017836D01*
X010867Y019136D01*
X009767Y016736D02*
X010367Y016136D01*
X007915Y018136D02*
X007915Y018588D01*
X007367Y019136D01*
M02*
