G75*
%MOIN*%
%OFA0B0*%
%FSLAX24Y24*%
%IPPOS*%
%LPD*%
%AMOC8*
5,1,8,0,0,1.08239X$1,22.5*
%
%ADD10C,0.0000*%
%ADD11C,0.1221*%
%ADD12C,0.0355*%
%ADD13R,0.0160X0.0430*%
%ADD14R,0.0591X0.0178*%
%ADD15R,0.0788X0.0749*%
%ADD16R,0.0788X0.0788*%
%ADD17R,0.0920X0.0520*%
%ADD18R,0.0906X0.1457*%
%ADD19R,0.1640X0.0640*%
%ADD20OC8,0.0780*%
%ADD21C,0.0116*%
%ADD22R,0.0335X0.0394*%
%ADD23C,0.0780*%
%ADD24R,0.0910X0.0280*%
%ADD25R,0.0394X0.0276*%
%ADD26R,0.0257X0.0512*%
%ADD27R,0.0631X0.1615*%
%ADD28R,0.0473X0.0434*%
%ADD29OC8,0.0555*%
%ADD30R,0.0591X0.0591*%
%ADD31R,0.1418X0.0670*%
%ADD32R,0.0434X0.0473*%
%ADD33R,0.0640X0.1640*%
D10*
X003717Y001725D02*
X003717Y010398D01*
X003719Y010437D01*
X003725Y010475D01*
X003734Y010512D01*
X003747Y010549D01*
X003764Y010584D01*
X003783Y010617D01*
X003806Y010648D01*
X003832Y010677D01*
X003861Y010703D01*
X003892Y010726D01*
X003925Y010745D01*
X003960Y010762D01*
X003997Y010775D01*
X004034Y010784D01*
X004072Y010790D01*
X004111Y010792D01*
X005225Y010792D01*
X005225Y010791D02*
X005264Y010793D01*
X005302Y010799D01*
X005339Y010808D01*
X005376Y010821D01*
X005411Y010838D01*
X005444Y010857D01*
X005475Y010880D01*
X005504Y010906D01*
X005530Y010935D01*
X005553Y010966D01*
X005572Y010999D01*
X005589Y011034D01*
X005602Y011071D01*
X005611Y011108D01*
X005617Y011146D01*
X005619Y011185D01*
X005618Y011185D02*
X005618Y011264D01*
X005619Y011342D01*
X005776Y011579D02*
X005778Y011604D01*
X005784Y011628D01*
X005793Y011650D01*
X005806Y011671D01*
X005822Y011690D01*
X005841Y011706D01*
X005862Y011719D01*
X005884Y011728D01*
X005908Y011734D01*
X005933Y011736D01*
X005958Y011734D01*
X005982Y011728D01*
X006004Y011719D01*
X006025Y011706D01*
X006044Y011690D01*
X006060Y011671D01*
X006073Y011650D01*
X006082Y011628D01*
X006088Y011604D01*
X006090Y011579D01*
X006088Y011554D01*
X006082Y011530D01*
X006073Y011508D01*
X006060Y011487D01*
X006044Y011468D01*
X006025Y011452D01*
X006004Y011439D01*
X005982Y011430D01*
X005958Y011424D01*
X005933Y011422D01*
X005908Y011424D01*
X005884Y011430D01*
X005862Y011439D01*
X005841Y011452D01*
X005822Y011468D01*
X005806Y011487D01*
X005793Y011508D01*
X005784Y011530D01*
X005778Y011554D01*
X005776Y011579D01*
X005225Y011736D02*
X004161Y011736D01*
X004122Y011738D01*
X004084Y011744D01*
X004047Y011753D01*
X004010Y011766D01*
X003975Y011783D01*
X003942Y011802D01*
X003911Y011825D01*
X003882Y011851D01*
X003856Y011880D01*
X003833Y011911D01*
X003814Y011944D01*
X003797Y011979D01*
X003784Y012016D01*
X003775Y012053D01*
X003769Y012091D01*
X003767Y012130D01*
X003767Y020791D01*
X003769Y020830D01*
X003775Y020868D01*
X003784Y020905D01*
X003797Y020942D01*
X003814Y020977D01*
X003833Y021010D01*
X003856Y021041D01*
X003882Y021070D01*
X003911Y021096D01*
X003942Y021119D01*
X003975Y021138D01*
X004010Y021155D01*
X004047Y021168D01*
X004084Y021177D01*
X004122Y021183D01*
X004161Y021185D01*
X013216Y021185D01*
X013254Y021183D01*
X013293Y021177D01*
X013330Y021168D01*
X013366Y021155D01*
X013401Y021139D01*
X013435Y021119D01*
X013466Y021096D01*
X013494Y021070D01*
X013520Y021041D01*
X013543Y021010D01*
X013563Y020977D01*
X013580Y020942D01*
X013593Y020906D01*
X013602Y020869D01*
X013608Y020831D01*
X013610Y020792D01*
X013609Y020792D02*
X013610Y020515D01*
X013609Y020515D02*
X013611Y020476D01*
X013617Y020438D01*
X013626Y020401D01*
X013639Y020364D01*
X013656Y020330D01*
X013676Y020297D01*
X013699Y020266D01*
X013725Y020237D01*
X013753Y020211D01*
X013784Y020188D01*
X013818Y020168D01*
X013852Y020152D01*
X013889Y020139D01*
X013926Y020130D01*
X013964Y020124D01*
X014003Y020122D01*
X014004Y020122D01*
X013611Y019807D02*
X013613Y019832D01*
X013619Y019856D01*
X013628Y019878D01*
X013641Y019899D01*
X013657Y019918D01*
X013676Y019934D01*
X013697Y019947D01*
X013719Y019956D01*
X013743Y019962D01*
X013768Y019964D01*
X013793Y019962D01*
X013817Y019956D01*
X013839Y019947D01*
X013860Y019934D01*
X013879Y019918D01*
X013895Y019899D01*
X013908Y019878D01*
X013917Y019856D01*
X013923Y019832D01*
X013925Y019807D01*
X013923Y019782D01*
X013917Y019758D01*
X013908Y019736D01*
X013895Y019715D01*
X013879Y019696D01*
X013860Y019680D01*
X013839Y019667D01*
X013817Y019658D01*
X013793Y019652D01*
X013768Y019650D01*
X013743Y019652D01*
X013719Y019658D01*
X013697Y019667D01*
X013676Y019680D01*
X013657Y019696D01*
X013641Y019715D01*
X013628Y019736D01*
X013619Y019758D01*
X013613Y019782D01*
X013611Y019807D01*
X013611Y019335D02*
X013613Y019360D01*
X013619Y019384D01*
X013628Y019406D01*
X013641Y019427D01*
X013657Y019446D01*
X013676Y019462D01*
X013697Y019475D01*
X013719Y019484D01*
X013743Y019490D01*
X013768Y019492D01*
X013793Y019490D01*
X013817Y019484D01*
X013839Y019475D01*
X013860Y019462D01*
X013879Y019446D01*
X013895Y019427D01*
X013908Y019406D01*
X013917Y019384D01*
X013923Y019360D01*
X013925Y019335D01*
X013923Y019310D01*
X013917Y019286D01*
X013908Y019264D01*
X013895Y019243D01*
X013879Y019224D01*
X013860Y019208D01*
X013839Y019195D01*
X013817Y019186D01*
X013793Y019180D01*
X013768Y019178D01*
X013743Y019180D01*
X013719Y019186D01*
X013697Y019195D01*
X013676Y019208D01*
X013657Y019224D01*
X013641Y019243D01*
X013628Y019264D01*
X013619Y019286D01*
X013613Y019310D01*
X013611Y019335D01*
X013611Y018863D02*
X013613Y018888D01*
X013619Y018912D01*
X013628Y018934D01*
X013641Y018955D01*
X013657Y018974D01*
X013676Y018990D01*
X013697Y019003D01*
X013719Y019012D01*
X013743Y019018D01*
X013768Y019020D01*
X013793Y019018D01*
X013817Y019012D01*
X013839Y019003D01*
X013860Y018990D01*
X013879Y018974D01*
X013895Y018955D01*
X013908Y018934D01*
X013917Y018912D01*
X013923Y018888D01*
X013925Y018863D01*
X013923Y018838D01*
X013917Y018814D01*
X013908Y018792D01*
X013895Y018771D01*
X013879Y018752D01*
X013860Y018736D01*
X013839Y018723D01*
X013817Y018714D01*
X013793Y018708D01*
X013768Y018706D01*
X013743Y018708D01*
X013719Y018714D01*
X013697Y018723D01*
X013676Y018736D01*
X013657Y018752D01*
X013641Y018771D01*
X013628Y018792D01*
X013619Y018814D01*
X013613Y018838D01*
X013611Y018863D01*
X014084Y018863D02*
X014086Y018888D01*
X014092Y018912D01*
X014101Y018934D01*
X014114Y018955D01*
X014130Y018974D01*
X014149Y018990D01*
X014170Y019003D01*
X014192Y019012D01*
X014216Y019018D01*
X014241Y019020D01*
X014266Y019018D01*
X014290Y019012D01*
X014312Y019003D01*
X014333Y018990D01*
X014352Y018974D01*
X014368Y018955D01*
X014381Y018934D01*
X014390Y018912D01*
X014396Y018888D01*
X014398Y018863D01*
X014396Y018838D01*
X014390Y018814D01*
X014381Y018792D01*
X014368Y018771D01*
X014352Y018752D01*
X014333Y018736D01*
X014312Y018723D01*
X014290Y018714D01*
X014266Y018708D01*
X014241Y018706D01*
X014216Y018708D01*
X014192Y018714D01*
X014170Y018723D01*
X014149Y018736D01*
X014130Y018752D01*
X014114Y018771D01*
X014101Y018792D01*
X014092Y018814D01*
X014086Y018838D01*
X014084Y018863D01*
X014084Y019335D02*
X014086Y019360D01*
X014092Y019384D01*
X014101Y019406D01*
X014114Y019427D01*
X014130Y019446D01*
X014149Y019462D01*
X014170Y019475D01*
X014192Y019484D01*
X014216Y019490D01*
X014241Y019492D01*
X014266Y019490D01*
X014290Y019484D01*
X014312Y019475D01*
X014333Y019462D01*
X014352Y019446D01*
X014368Y019427D01*
X014381Y019406D01*
X014390Y019384D01*
X014396Y019360D01*
X014398Y019335D01*
X014396Y019310D01*
X014390Y019286D01*
X014381Y019264D01*
X014368Y019243D01*
X014352Y019224D01*
X014333Y019208D01*
X014312Y019195D01*
X014290Y019186D01*
X014266Y019180D01*
X014241Y019178D01*
X014216Y019180D01*
X014192Y019186D01*
X014170Y019195D01*
X014149Y019208D01*
X014130Y019224D01*
X014114Y019243D01*
X014101Y019264D01*
X014092Y019286D01*
X014086Y019310D01*
X014084Y019335D01*
X014084Y019807D02*
X014086Y019832D01*
X014092Y019856D01*
X014101Y019878D01*
X014114Y019899D01*
X014130Y019918D01*
X014149Y019934D01*
X014170Y019947D01*
X014192Y019956D01*
X014216Y019962D01*
X014241Y019964D01*
X014266Y019962D01*
X014290Y019956D01*
X014312Y019947D01*
X014333Y019934D01*
X014352Y019918D01*
X014368Y019899D01*
X014381Y019878D01*
X014390Y019856D01*
X014396Y019832D01*
X014398Y019807D01*
X014396Y019782D01*
X014390Y019758D01*
X014381Y019736D01*
X014368Y019715D01*
X014352Y019696D01*
X014333Y019680D01*
X014312Y019667D01*
X014290Y019658D01*
X014266Y019652D01*
X014241Y019650D01*
X014216Y019652D01*
X014192Y019658D01*
X014170Y019667D01*
X014149Y019680D01*
X014130Y019696D01*
X014114Y019715D01*
X014101Y019736D01*
X014092Y019758D01*
X014086Y019782D01*
X014084Y019807D01*
X014004Y020122D02*
X014043Y020124D01*
X014081Y020130D01*
X014118Y020139D01*
X014155Y020152D01*
X014190Y020169D01*
X014223Y020188D01*
X014254Y020211D01*
X014283Y020237D01*
X014309Y020266D01*
X014332Y020297D01*
X014351Y020330D01*
X014368Y020365D01*
X014381Y020402D01*
X014390Y020439D01*
X014396Y020477D01*
X014398Y020516D01*
X014398Y020792D01*
X014400Y020831D01*
X014406Y020869D01*
X014415Y020906D01*
X014428Y020943D01*
X014445Y020978D01*
X014464Y021011D01*
X014487Y021042D01*
X014513Y021071D01*
X014542Y021097D01*
X014573Y021120D01*
X014606Y021139D01*
X014641Y021156D01*
X014678Y021169D01*
X014715Y021178D01*
X014753Y021184D01*
X014792Y021186D01*
X014792Y021185D02*
X023059Y021185D01*
X023059Y021186D02*
X023098Y021184D01*
X023136Y021178D01*
X023173Y021169D01*
X023210Y021156D01*
X023245Y021139D01*
X023278Y021120D01*
X023309Y021097D01*
X023338Y021071D01*
X023364Y021042D01*
X023387Y021011D01*
X023406Y020978D01*
X023423Y020943D01*
X023436Y020906D01*
X023445Y020869D01*
X023451Y020831D01*
X023453Y020792D01*
X023453Y012130D01*
X023451Y012091D01*
X023445Y012053D01*
X023436Y012016D01*
X023423Y011979D01*
X023406Y011944D01*
X023387Y011911D01*
X023364Y011880D01*
X023338Y011851D01*
X023309Y011825D01*
X023278Y011802D01*
X023245Y011783D01*
X023210Y011766D01*
X023173Y011753D01*
X023136Y011744D01*
X023098Y011738D01*
X023059Y011736D01*
X023059Y011737D02*
X021367Y011737D01*
X021328Y011735D01*
X021290Y011729D01*
X021253Y011720D01*
X021216Y011707D01*
X021181Y011690D01*
X021148Y011671D01*
X021117Y011648D01*
X021088Y011622D01*
X021062Y011593D01*
X021039Y011562D01*
X021020Y011529D01*
X021003Y011494D01*
X020990Y011457D01*
X020981Y011420D01*
X020975Y011382D01*
X020973Y011343D01*
X020973Y011304D01*
X020973Y011185D01*
X020501Y010949D02*
X020503Y010974D01*
X020509Y010998D01*
X020518Y011020D01*
X020531Y011041D01*
X020547Y011060D01*
X020566Y011076D01*
X020587Y011089D01*
X020609Y011098D01*
X020633Y011104D01*
X020658Y011106D01*
X020683Y011104D01*
X020707Y011098D01*
X020729Y011089D01*
X020750Y011076D01*
X020769Y011060D01*
X020785Y011041D01*
X020798Y011020D01*
X020807Y010998D01*
X020813Y010974D01*
X020815Y010949D01*
X020813Y010924D01*
X020807Y010900D01*
X020798Y010878D01*
X020785Y010857D01*
X020769Y010838D01*
X020750Y010822D01*
X020729Y010809D01*
X020707Y010800D01*
X020683Y010794D01*
X020658Y010792D01*
X020633Y010794D01*
X020609Y010800D01*
X020587Y010809D01*
X020566Y010822D01*
X020547Y010838D01*
X020531Y010857D01*
X020518Y010878D01*
X020509Y010900D01*
X020503Y010924D01*
X020501Y010949D01*
X020028Y010949D02*
X020030Y010974D01*
X020036Y010998D01*
X020045Y011020D01*
X020058Y011041D01*
X020074Y011060D01*
X020093Y011076D01*
X020114Y011089D01*
X020136Y011098D01*
X020160Y011104D01*
X020185Y011106D01*
X020210Y011104D01*
X020234Y011098D01*
X020256Y011089D01*
X020277Y011076D01*
X020296Y011060D01*
X020312Y011041D01*
X020325Y011020D01*
X020334Y010998D01*
X020340Y010974D01*
X020342Y010949D01*
X020340Y010924D01*
X020334Y010900D01*
X020325Y010878D01*
X020312Y010857D01*
X020296Y010838D01*
X020277Y010822D01*
X020256Y010809D01*
X020234Y010800D01*
X020210Y010794D01*
X020185Y010792D01*
X020160Y010794D01*
X020136Y010800D01*
X020114Y010809D01*
X020093Y010822D01*
X020074Y010838D01*
X020058Y010857D01*
X020045Y010878D01*
X020036Y010900D01*
X020030Y010924D01*
X020028Y010949D01*
X019556Y010949D02*
X019558Y010974D01*
X019564Y010998D01*
X019573Y011020D01*
X019586Y011041D01*
X019602Y011060D01*
X019621Y011076D01*
X019642Y011089D01*
X019664Y011098D01*
X019688Y011104D01*
X019713Y011106D01*
X019738Y011104D01*
X019762Y011098D01*
X019784Y011089D01*
X019805Y011076D01*
X019824Y011060D01*
X019840Y011041D01*
X019853Y011020D01*
X019862Y010998D01*
X019868Y010974D01*
X019870Y010949D01*
X019868Y010924D01*
X019862Y010900D01*
X019853Y010878D01*
X019840Y010857D01*
X019824Y010838D01*
X019805Y010822D01*
X019784Y010809D01*
X019762Y010800D01*
X019738Y010794D01*
X019713Y010792D01*
X019688Y010794D01*
X019664Y010800D01*
X019642Y010809D01*
X019621Y010822D01*
X019602Y010838D01*
X019586Y010857D01*
X019573Y010878D01*
X019564Y010900D01*
X019558Y010924D01*
X019556Y010949D01*
X019084Y010949D02*
X019086Y010974D01*
X019092Y010998D01*
X019101Y011020D01*
X019114Y011041D01*
X019130Y011060D01*
X019149Y011076D01*
X019170Y011089D01*
X019192Y011098D01*
X019216Y011104D01*
X019241Y011106D01*
X019266Y011104D01*
X019290Y011098D01*
X019312Y011089D01*
X019333Y011076D01*
X019352Y011060D01*
X019368Y011041D01*
X019381Y011020D01*
X019390Y010998D01*
X019396Y010974D01*
X019398Y010949D01*
X019396Y010924D01*
X019390Y010900D01*
X019381Y010878D01*
X019368Y010857D01*
X019352Y010838D01*
X019333Y010822D01*
X019312Y010809D01*
X019290Y010800D01*
X019266Y010794D01*
X019241Y010792D01*
X019216Y010794D01*
X019192Y010800D01*
X019170Y010809D01*
X019149Y010822D01*
X019130Y010838D01*
X019114Y010857D01*
X019101Y010878D01*
X019092Y010900D01*
X019086Y010924D01*
X019084Y010949D01*
X018611Y010949D02*
X018613Y010974D01*
X018619Y010998D01*
X018628Y011020D01*
X018641Y011041D01*
X018657Y011060D01*
X018676Y011076D01*
X018697Y011089D01*
X018719Y011098D01*
X018743Y011104D01*
X018768Y011106D01*
X018793Y011104D01*
X018817Y011098D01*
X018839Y011089D01*
X018860Y011076D01*
X018879Y011060D01*
X018895Y011041D01*
X018908Y011020D01*
X018917Y010998D01*
X018923Y010974D01*
X018925Y010949D01*
X018923Y010924D01*
X018917Y010900D01*
X018908Y010878D01*
X018895Y010857D01*
X018879Y010838D01*
X018860Y010822D01*
X018839Y010809D01*
X018817Y010800D01*
X018793Y010794D01*
X018768Y010792D01*
X018743Y010794D01*
X018719Y010800D01*
X018697Y010809D01*
X018676Y010822D01*
X018657Y010838D01*
X018641Y010857D01*
X018628Y010878D01*
X018619Y010900D01*
X018613Y010924D01*
X018611Y010949D01*
X018139Y010949D02*
X018141Y010974D01*
X018147Y010998D01*
X018156Y011020D01*
X018169Y011041D01*
X018185Y011060D01*
X018204Y011076D01*
X018225Y011089D01*
X018247Y011098D01*
X018271Y011104D01*
X018296Y011106D01*
X018321Y011104D01*
X018345Y011098D01*
X018367Y011089D01*
X018388Y011076D01*
X018407Y011060D01*
X018423Y011041D01*
X018436Y011020D01*
X018445Y010998D01*
X018451Y010974D01*
X018453Y010949D01*
X018451Y010924D01*
X018445Y010900D01*
X018436Y010878D01*
X018423Y010857D01*
X018407Y010838D01*
X018388Y010822D01*
X018367Y010809D01*
X018345Y010800D01*
X018321Y010794D01*
X018296Y010792D01*
X018271Y010794D01*
X018247Y010800D01*
X018225Y010809D01*
X018204Y010822D01*
X018185Y010838D01*
X018169Y010857D01*
X018156Y010878D01*
X018147Y010900D01*
X018141Y010924D01*
X018139Y010949D01*
X017666Y010949D02*
X017668Y010974D01*
X017674Y010998D01*
X017683Y011020D01*
X017696Y011041D01*
X017712Y011060D01*
X017731Y011076D01*
X017752Y011089D01*
X017774Y011098D01*
X017798Y011104D01*
X017823Y011106D01*
X017848Y011104D01*
X017872Y011098D01*
X017894Y011089D01*
X017915Y011076D01*
X017934Y011060D01*
X017950Y011041D01*
X017963Y011020D01*
X017972Y010998D01*
X017978Y010974D01*
X017980Y010949D01*
X017978Y010924D01*
X017972Y010900D01*
X017963Y010878D01*
X017950Y010857D01*
X017934Y010838D01*
X017915Y010822D01*
X017894Y010809D01*
X017872Y010800D01*
X017848Y010794D01*
X017823Y010792D01*
X017798Y010794D01*
X017774Y010800D01*
X017752Y010809D01*
X017731Y010822D01*
X017712Y010838D01*
X017696Y010857D01*
X017683Y010878D01*
X017674Y010900D01*
X017668Y010924D01*
X017666Y010949D01*
X017194Y010949D02*
X017196Y010974D01*
X017202Y010998D01*
X017211Y011020D01*
X017224Y011041D01*
X017240Y011060D01*
X017259Y011076D01*
X017280Y011089D01*
X017302Y011098D01*
X017326Y011104D01*
X017351Y011106D01*
X017376Y011104D01*
X017400Y011098D01*
X017422Y011089D01*
X017443Y011076D01*
X017462Y011060D01*
X017478Y011041D01*
X017491Y011020D01*
X017500Y010998D01*
X017506Y010974D01*
X017508Y010949D01*
X017506Y010924D01*
X017500Y010900D01*
X017491Y010878D01*
X017478Y010857D01*
X017462Y010838D01*
X017443Y010822D01*
X017422Y010809D01*
X017400Y010800D01*
X017376Y010794D01*
X017351Y010792D01*
X017326Y010794D01*
X017302Y010800D01*
X017280Y010809D01*
X017259Y010822D01*
X017240Y010838D01*
X017224Y010857D01*
X017211Y010878D01*
X017202Y010900D01*
X017196Y010924D01*
X017194Y010949D01*
X017036Y011225D02*
X017036Y011304D01*
X017036Y011343D01*
X017034Y011382D01*
X017028Y011420D01*
X017019Y011457D01*
X017006Y011494D01*
X016989Y011529D01*
X016970Y011562D01*
X016947Y011593D01*
X016921Y011622D01*
X016892Y011648D01*
X016861Y011671D01*
X016828Y011690D01*
X016793Y011707D01*
X016756Y011720D01*
X016719Y011729D01*
X016681Y011735D01*
X016642Y011737D01*
X014004Y011737D01*
X014004Y011736D02*
X013965Y011738D01*
X013927Y011744D01*
X013890Y011753D01*
X013853Y011766D01*
X013818Y011783D01*
X013785Y011802D01*
X013754Y011825D01*
X013725Y011851D01*
X013699Y011880D01*
X013676Y011911D01*
X013657Y011944D01*
X013640Y011979D01*
X013627Y012016D01*
X013618Y012053D01*
X013612Y012091D01*
X013610Y012130D01*
X013611Y012130D02*
X013611Y016067D01*
X014398Y016855D01*
X014396Y016886D01*
X014391Y016916D01*
X014383Y016946D01*
X014371Y016975D01*
X014356Y017002D01*
X014338Y017027D01*
X014317Y017050D01*
X014294Y017071D01*
X014269Y017089D01*
X014242Y017104D01*
X014213Y017116D01*
X014183Y017124D01*
X014153Y017129D01*
X014122Y017131D01*
X014122Y017130D02*
X014004Y017130D01*
X013887Y017130D01*
X013856Y017128D01*
X013826Y017123D01*
X013796Y017115D01*
X013767Y017103D01*
X013740Y017088D01*
X013715Y017070D01*
X013692Y017049D01*
X013671Y017026D01*
X013653Y017001D01*
X013638Y016974D01*
X013626Y016945D01*
X013617Y016916D01*
X013612Y016885D01*
X013610Y016854D01*
X013609Y016854D02*
X012937Y016182D01*
X012822Y015904D02*
X012822Y012130D01*
X012822Y012129D02*
X012820Y012091D01*
X012814Y012053D01*
X012804Y012016D01*
X012791Y011979D01*
X012775Y011944D01*
X012755Y011911D01*
X012732Y011881D01*
X012706Y011852D01*
X012677Y011826D01*
X012647Y011803D01*
X012613Y011783D01*
X012579Y011767D01*
X012542Y011754D01*
X012505Y011744D01*
X012467Y011738D01*
X012428Y011736D01*
X009949Y011737D01*
X009910Y011735D01*
X009872Y011729D01*
X009835Y011720D01*
X009798Y011707D01*
X009763Y011690D01*
X009730Y011671D01*
X009699Y011648D01*
X009670Y011622D01*
X009644Y011593D01*
X009621Y011562D01*
X009602Y011529D01*
X009585Y011494D01*
X009572Y011457D01*
X009563Y011420D01*
X009557Y011382D01*
X009555Y011343D01*
X009555Y011225D01*
X009084Y011579D02*
X009086Y011604D01*
X009092Y011628D01*
X009101Y011650D01*
X009114Y011671D01*
X009130Y011690D01*
X009149Y011706D01*
X009170Y011719D01*
X009192Y011728D01*
X009216Y011734D01*
X009241Y011736D01*
X009266Y011734D01*
X009290Y011728D01*
X009312Y011719D01*
X009333Y011706D01*
X009352Y011690D01*
X009368Y011671D01*
X009381Y011650D01*
X009390Y011628D01*
X009396Y011604D01*
X009398Y011579D01*
X009396Y011554D01*
X009390Y011530D01*
X009381Y011508D01*
X009368Y011487D01*
X009352Y011468D01*
X009333Y011452D01*
X009312Y011439D01*
X009290Y011430D01*
X009266Y011424D01*
X009241Y011422D01*
X009216Y011424D01*
X009192Y011430D01*
X009170Y011439D01*
X009149Y011452D01*
X009130Y011468D01*
X009114Y011487D01*
X009101Y011508D01*
X009092Y011530D01*
X009086Y011554D01*
X009084Y011579D01*
X008611Y011579D02*
X008613Y011604D01*
X008619Y011628D01*
X008628Y011650D01*
X008641Y011671D01*
X008657Y011690D01*
X008676Y011706D01*
X008697Y011719D01*
X008719Y011728D01*
X008743Y011734D01*
X008768Y011736D01*
X008793Y011734D01*
X008817Y011728D01*
X008839Y011719D01*
X008860Y011706D01*
X008879Y011690D01*
X008895Y011671D01*
X008908Y011650D01*
X008917Y011628D01*
X008923Y011604D01*
X008925Y011579D01*
X008923Y011554D01*
X008917Y011530D01*
X008908Y011508D01*
X008895Y011487D01*
X008879Y011468D01*
X008860Y011452D01*
X008839Y011439D01*
X008817Y011430D01*
X008793Y011424D01*
X008768Y011422D01*
X008743Y011424D01*
X008719Y011430D01*
X008697Y011439D01*
X008676Y011452D01*
X008657Y011468D01*
X008641Y011487D01*
X008628Y011508D01*
X008619Y011530D01*
X008613Y011554D01*
X008611Y011579D01*
X008139Y011579D02*
X008141Y011604D01*
X008147Y011628D01*
X008156Y011650D01*
X008169Y011671D01*
X008185Y011690D01*
X008204Y011706D01*
X008225Y011719D01*
X008247Y011728D01*
X008271Y011734D01*
X008296Y011736D01*
X008321Y011734D01*
X008345Y011728D01*
X008367Y011719D01*
X008388Y011706D01*
X008407Y011690D01*
X008423Y011671D01*
X008436Y011650D01*
X008445Y011628D01*
X008451Y011604D01*
X008453Y011579D01*
X008451Y011554D01*
X008445Y011530D01*
X008436Y011508D01*
X008423Y011487D01*
X008407Y011468D01*
X008388Y011452D01*
X008367Y011439D01*
X008345Y011430D01*
X008321Y011424D01*
X008296Y011422D01*
X008271Y011424D01*
X008247Y011430D01*
X008225Y011439D01*
X008204Y011452D01*
X008185Y011468D01*
X008169Y011487D01*
X008156Y011508D01*
X008147Y011530D01*
X008141Y011554D01*
X008139Y011579D01*
X007666Y011579D02*
X007668Y011604D01*
X007674Y011628D01*
X007683Y011650D01*
X007696Y011671D01*
X007712Y011690D01*
X007731Y011706D01*
X007752Y011719D01*
X007774Y011728D01*
X007798Y011734D01*
X007823Y011736D01*
X007848Y011734D01*
X007872Y011728D01*
X007894Y011719D01*
X007915Y011706D01*
X007934Y011690D01*
X007950Y011671D01*
X007963Y011650D01*
X007972Y011628D01*
X007978Y011604D01*
X007980Y011579D01*
X007978Y011554D01*
X007972Y011530D01*
X007963Y011508D01*
X007950Y011487D01*
X007934Y011468D01*
X007915Y011452D01*
X007894Y011439D01*
X007872Y011430D01*
X007848Y011424D01*
X007823Y011422D01*
X007798Y011424D01*
X007774Y011430D01*
X007752Y011439D01*
X007731Y011452D01*
X007712Y011468D01*
X007696Y011487D01*
X007683Y011508D01*
X007674Y011530D01*
X007668Y011554D01*
X007666Y011579D01*
X007194Y011579D02*
X007196Y011604D01*
X007202Y011628D01*
X007211Y011650D01*
X007224Y011671D01*
X007240Y011690D01*
X007259Y011706D01*
X007280Y011719D01*
X007302Y011728D01*
X007326Y011734D01*
X007351Y011736D01*
X007376Y011734D01*
X007400Y011728D01*
X007422Y011719D01*
X007443Y011706D01*
X007462Y011690D01*
X007478Y011671D01*
X007491Y011650D01*
X007500Y011628D01*
X007506Y011604D01*
X007508Y011579D01*
X007506Y011554D01*
X007500Y011530D01*
X007491Y011508D01*
X007478Y011487D01*
X007462Y011468D01*
X007443Y011452D01*
X007422Y011439D01*
X007400Y011430D01*
X007376Y011424D01*
X007351Y011422D01*
X007326Y011424D01*
X007302Y011430D01*
X007280Y011439D01*
X007259Y011452D01*
X007240Y011468D01*
X007224Y011487D01*
X007211Y011508D01*
X007202Y011530D01*
X007196Y011554D01*
X007194Y011579D01*
X006721Y011579D02*
X006723Y011604D01*
X006729Y011628D01*
X006738Y011650D01*
X006751Y011671D01*
X006767Y011690D01*
X006786Y011706D01*
X006807Y011719D01*
X006829Y011728D01*
X006853Y011734D01*
X006878Y011736D01*
X006903Y011734D01*
X006927Y011728D01*
X006949Y011719D01*
X006970Y011706D01*
X006989Y011690D01*
X007005Y011671D01*
X007018Y011650D01*
X007027Y011628D01*
X007033Y011604D01*
X007035Y011579D01*
X007033Y011554D01*
X007027Y011530D01*
X007018Y011508D01*
X007005Y011487D01*
X006989Y011468D01*
X006970Y011452D01*
X006949Y011439D01*
X006927Y011430D01*
X006903Y011424D01*
X006878Y011422D01*
X006853Y011424D01*
X006829Y011430D01*
X006807Y011439D01*
X006786Y011452D01*
X006767Y011468D01*
X006751Y011487D01*
X006738Y011508D01*
X006729Y011530D01*
X006723Y011554D01*
X006721Y011579D01*
X006249Y011579D02*
X006251Y011604D01*
X006257Y011628D01*
X006266Y011650D01*
X006279Y011671D01*
X006295Y011690D01*
X006314Y011706D01*
X006335Y011719D01*
X006357Y011728D01*
X006381Y011734D01*
X006406Y011736D01*
X006431Y011734D01*
X006455Y011728D01*
X006477Y011719D01*
X006498Y011706D01*
X006517Y011690D01*
X006533Y011671D01*
X006546Y011650D01*
X006555Y011628D01*
X006561Y011604D01*
X006563Y011579D01*
X006561Y011554D01*
X006555Y011530D01*
X006546Y011508D01*
X006533Y011487D01*
X006517Y011468D01*
X006498Y011452D01*
X006477Y011439D01*
X006455Y011430D01*
X006431Y011424D01*
X006406Y011422D01*
X006381Y011424D01*
X006357Y011430D01*
X006335Y011439D01*
X006314Y011452D01*
X006295Y011468D01*
X006279Y011487D01*
X006266Y011508D01*
X006257Y011530D01*
X006251Y011554D01*
X006249Y011579D01*
X006249Y010949D02*
X006251Y010974D01*
X006257Y010998D01*
X006266Y011020D01*
X006279Y011041D01*
X006295Y011060D01*
X006314Y011076D01*
X006335Y011089D01*
X006357Y011098D01*
X006381Y011104D01*
X006406Y011106D01*
X006431Y011104D01*
X006455Y011098D01*
X006477Y011089D01*
X006498Y011076D01*
X006517Y011060D01*
X006533Y011041D01*
X006546Y011020D01*
X006555Y010998D01*
X006561Y010974D01*
X006563Y010949D01*
X006561Y010924D01*
X006555Y010900D01*
X006546Y010878D01*
X006533Y010857D01*
X006517Y010838D01*
X006498Y010822D01*
X006477Y010809D01*
X006455Y010800D01*
X006431Y010794D01*
X006406Y010792D01*
X006381Y010794D01*
X006357Y010800D01*
X006335Y010809D01*
X006314Y010822D01*
X006295Y010838D01*
X006279Y010857D01*
X006266Y010878D01*
X006257Y010900D01*
X006251Y010924D01*
X006249Y010949D01*
X005776Y010949D02*
X005778Y010974D01*
X005784Y010998D01*
X005793Y011020D01*
X005806Y011041D01*
X005822Y011060D01*
X005841Y011076D01*
X005862Y011089D01*
X005884Y011098D01*
X005908Y011104D01*
X005933Y011106D01*
X005958Y011104D01*
X005982Y011098D01*
X006004Y011089D01*
X006025Y011076D01*
X006044Y011060D01*
X006060Y011041D01*
X006073Y011020D01*
X006082Y010998D01*
X006088Y010974D01*
X006090Y010949D01*
X006088Y010924D01*
X006082Y010900D01*
X006073Y010878D01*
X006060Y010857D01*
X006044Y010838D01*
X006025Y010822D01*
X006004Y010809D01*
X005982Y010800D01*
X005958Y010794D01*
X005933Y010792D01*
X005908Y010794D01*
X005884Y010800D01*
X005862Y010809D01*
X005841Y010822D01*
X005822Y010838D01*
X005806Y010857D01*
X005793Y010878D01*
X005784Y010900D01*
X005778Y010924D01*
X005776Y010949D01*
X005619Y011343D02*
X005617Y011381D01*
X005611Y011420D01*
X005602Y011457D01*
X005589Y011494D01*
X005573Y011529D01*
X005553Y011562D01*
X005530Y011593D01*
X005504Y011622D01*
X005475Y011648D01*
X005444Y011671D01*
X005411Y011690D01*
X005376Y011707D01*
X005339Y011720D01*
X005302Y011729D01*
X005264Y011735D01*
X005225Y011737D01*
X006721Y010949D02*
X006723Y010974D01*
X006729Y010998D01*
X006738Y011020D01*
X006751Y011041D01*
X006767Y011060D01*
X006786Y011076D01*
X006807Y011089D01*
X006829Y011098D01*
X006853Y011104D01*
X006878Y011106D01*
X006903Y011104D01*
X006927Y011098D01*
X006949Y011089D01*
X006970Y011076D01*
X006989Y011060D01*
X007005Y011041D01*
X007018Y011020D01*
X007027Y010998D01*
X007033Y010974D01*
X007035Y010949D01*
X007033Y010924D01*
X007027Y010900D01*
X007018Y010878D01*
X007005Y010857D01*
X006989Y010838D01*
X006970Y010822D01*
X006949Y010809D01*
X006927Y010800D01*
X006903Y010794D01*
X006878Y010792D01*
X006853Y010794D01*
X006829Y010800D01*
X006807Y010809D01*
X006786Y010822D01*
X006767Y010838D01*
X006751Y010857D01*
X006738Y010878D01*
X006729Y010900D01*
X006723Y010924D01*
X006721Y010949D01*
X007194Y010949D02*
X007196Y010974D01*
X007202Y010998D01*
X007211Y011020D01*
X007224Y011041D01*
X007240Y011060D01*
X007259Y011076D01*
X007280Y011089D01*
X007302Y011098D01*
X007326Y011104D01*
X007351Y011106D01*
X007376Y011104D01*
X007400Y011098D01*
X007422Y011089D01*
X007443Y011076D01*
X007462Y011060D01*
X007478Y011041D01*
X007491Y011020D01*
X007500Y010998D01*
X007506Y010974D01*
X007508Y010949D01*
X007506Y010924D01*
X007500Y010900D01*
X007491Y010878D01*
X007478Y010857D01*
X007462Y010838D01*
X007443Y010822D01*
X007422Y010809D01*
X007400Y010800D01*
X007376Y010794D01*
X007351Y010792D01*
X007326Y010794D01*
X007302Y010800D01*
X007280Y010809D01*
X007259Y010822D01*
X007240Y010838D01*
X007224Y010857D01*
X007211Y010878D01*
X007202Y010900D01*
X007196Y010924D01*
X007194Y010949D01*
X007666Y010949D02*
X007668Y010974D01*
X007674Y010998D01*
X007683Y011020D01*
X007696Y011041D01*
X007712Y011060D01*
X007731Y011076D01*
X007752Y011089D01*
X007774Y011098D01*
X007798Y011104D01*
X007823Y011106D01*
X007848Y011104D01*
X007872Y011098D01*
X007894Y011089D01*
X007915Y011076D01*
X007934Y011060D01*
X007950Y011041D01*
X007963Y011020D01*
X007972Y010998D01*
X007978Y010974D01*
X007980Y010949D01*
X007978Y010924D01*
X007972Y010900D01*
X007963Y010878D01*
X007950Y010857D01*
X007934Y010838D01*
X007915Y010822D01*
X007894Y010809D01*
X007872Y010800D01*
X007848Y010794D01*
X007823Y010792D01*
X007798Y010794D01*
X007774Y010800D01*
X007752Y010809D01*
X007731Y010822D01*
X007712Y010838D01*
X007696Y010857D01*
X007683Y010878D01*
X007674Y010900D01*
X007668Y010924D01*
X007666Y010949D01*
X008139Y010949D02*
X008141Y010974D01*
X008147Y010998D01*
X008156Y011020D01*
X008169Y011041D01*
X008185Y011060D01*
X008204Y011076D01*
X008225Y011089D01*
X008247Y011098D01*
X008271Y011104D01*
X008296Y011106D01*
X008321Y011104D01*
X008345Y011098D01*
X008367Y011089D01*
X008388Y011076D01*
X008407Y011060D01*
X008423Y011041D01*
X008436Y011020D01*
X008445Y010998D01*
X008451Y010974D01*
X008453Y010949D01*
X008451Y010924D01*
X008445Y010900D01*
X008436Y010878D01*
X008423Y010857D01*
X008407Y010838D01*
X008388Y010822D01*
X008367Y010809D01*
X008345Y010800D01*
X008321Y010794D01*
X008296Y010792D01*
X008271Y010794D01*
X008247Y010800D01*
X008225Y010809D01*
X008204Y010822D01*
X008185Y010838D01*
X008169Y010857D01*
X008156Y010878D01*
X008147Y010900D01*
X008141Y010924D01*
X008139Y010949D01*
X008611Y010949D02*
X008613Y010974D01*
X008619Y010998D01*
X008628Y011020D01*
X008641Y011041D01*
X008657Y011060D01*
X008676Y011076D01*
X008697Y011089D01*
X008719Y011098D01*
X008743Y011104D01*
X008768Y011106D01*
X008793Y011104D01*
X008817Y011098D01*
X008839Y011089D01*
X008860Y011076D01*
X008879Y011060D01*
X008895Y011041D01*
X008908Y011020D01*
X008917Y010998D01*
X008923Y010974D01*
X008925Y010949D01*
X008923Y010924D01*
X008917Y010900D01*
X008908Y010878D01*
X008895Y010857D01*
X008879Y010838D01*
X008860Y010822D01*
X008839Y010809D01*
X008817Y010800D01*
X008793Y010794D01*
X008768Y010792D01*
X008743Y010794D01*
X008719Y010800D01*
X008697Y010809D01*
X008676Y010822D01*
X008657Y010838D01*
X008641Y010857D01*
X008628Y010878D01*
X008619Y010900D01*
X008613Y010924D01*
X008611Y010949D01*
X009084Y010949D02*
X009086Y010974D01*
X009092Y010998D01*
X009101Y011020D01*
X009114Y011041D01*
X009130Y011060D01*
X009149Y011076D01*
X009170Y011089D01*
X009192Y011098D01*
X009216Y011104D01*
X009241Y011106D01*
X009266Y011104D01*
X009290Y011098D01*
X009312Y011089D01*
X009333Y011076D01*
X009352Y011060D01*
X009368Y011041D01*
X009381Y011020D01*
X009390Y010998D01*
X009396Y010974D01*
X009398Y010949D01*
X009396Y010924D01*
X009390Y010900D01*
X009381Y010878D01*
X009368Y010857D01*
X009352Y010838D01*
X009333Y010822D01*
X009312Y010809D01*
X009290Y010800D01*
X009266Y010794D01*
X009241Y010792D01*
X009216Y010794D01*
X009192Y010800D01*
X009170Y010809D01*
X009149Y010822D01*
X009130Y010838D01*
X009114Y010857D01*
X009101Y010878D01*
X009092Y010900D01*
X009086Y010924D01*
X009084Y010949D01*
X009949Y010831D02*
X016642Y010831D01*
X016681Y010833D01*
X016719Y010839D01*
X016756Y010848D01*
X016793Y010861D01*
X016828Y010878D01*
X016861Y010897D01*
X016892Y010920D01*
X016921Y010946D01*
X016947Y010975D01*
X016970Y011006D01*
X016989Y011039D01*
X017006Y011074D01*
X017019Y011111D01*
X017028Y011148D01*
X017034Y011186D01*
X017036Y011225D01*
X017194Y011579D02*
X017196Y011604D01*
X017202Y011628D01*
X017211Y011650D01*
X017224Y011671D01*
X017240Y011690D01*
X017259Y011706D01*
X017280Y011719D01*
X017302Y011728D01*
X017326Y011734D01*
X017351Y011736D01*
X017376Y011734D01*
X017400Y011728D01*
X017422Y011719D01*
X017443Y011706D01*
X017462Y011690D01*
X017478Y011671D01*
X017491Y011650D01*
X017500Y011628D01*
X017506Y011604D01*
X017508Y011579D01*
X017506Y011554D01*
X017500Y011530D01*
X017491Y011508D01*
X017478Y011487D01*
X017462Y011468D01*
X017443Y011452D01*
X017422Y011439D01*
X017400Y011430D01*
X017376Y011424D01*
X017351Y011422D01*
X017326Y011424D01*
X017302Y011430D01*
X017280Y011439D01*
X017259Y011452D01*
X017240Y011468D01*
X017224Y011487D01*
X017211Y011508D01*
X017202Y011530D01*
X017196Y011554D01*
X017194Y011579D01*
X017666Y011579D02*
X017668Y011604D01*
X017674Y011628D01*
X017683Y011650D01*
X017696Y011671D01*
X017712Y011690D01*
X017731Y011706D01*
X017752Y011719D01*
X017774Y011728D01*
X017798Y011734D01*
X017823Y011736D01*
X017848Y011734D01*
X017872Y011728D01*
X017894Y011719D01*
X017915Y011706D01*
X017934Y011690D01*
X017950Y011671D01*
X017963Y011650D01*
X017972Y011628D01*
X017978Y011604D01*
X017980Y011579D01*
X017978Y011554D01*
X017972Y011530D01*
X017963Y011508D01*
X017950Y011487D01*
X017934Y011468D01*
X017915Y011452D01*
X017894Y011439D01*
X017872Y011430D01*
X017848Y011424D01*
X017823Y011422D01*
X017798Y011424D01*
X017774Y011430D01*
X017752Y011439D01*
X017731Y011452D01*
X017712Y011468D01*
X017696Y011487D01*
X017683Y011508D01*
X017674Y011530D01*
X017668Y011554D01*
X017666Y011579D01*
X018139Y011579D02*
X018141Y011604D01*
X018147Y011628D01*
X018156Y011650D01*
X018169Y011671D01*
X018185Y011690D01*
X018204Y011706D01*
X018225Y011719D01*
X018247Y011728D01*
X018271Y011734D01*
X018296Y011736D01*
X018321Y011734D01*
X018345Y011728D01*
X018367Y011719D01*
X018388Y011706D01*
X018407Y011690D01*
X018423Y011671D01*
X018436Y011650D01*
X018445Y011628D01*
X018451Y011604D01*
X018453Y011579D01*
X018451Y011554D01*
X018445Y011530D01*
X018436Y011508D01*
X018423Y011487D01*
X018407Y011468D01*
X018388Y011452D01*
X018367Y011439D01*
X018345Y011430D01*
X018321Y011424D01*
X018296Y011422D01*
X018271Y011424D01*
X018247Y011430D01*
X018225Y011439D01*
X018204Y011452D01*
X018185Y011468D01*
X018169Y011487D01*
X018156Y011508D01*
X018147Y011530D01*
X018141Y011554D01*
X018139Y011579D01*
X018611Y011579D02*
X018613Y011604D01*
X018619Y011628D01*
X018628Y011650D01*
X018641Y011671D01*
X018657Y011690D01*
X018676Y011706D01*
X018697Y011719D01*
X018719Y011728D01*
X018743Y011734D01*
X018768Y011736D01*
X018793Y011734D01*
X018817Y011728D01*
X018839Y011719D01*
X018860Y011706D01*
X018879Y011690D01*
X018895Y011671D01*
X018908Y011650D01*
X018917Y011628D01*
X018923Y011604D01*
X018925Y011579D01*
X018923Y011554D01*
X018917Y011530D01*
X018908Y011508D01*
X018895Y011487D01*
X018879Y011468D01*
X018860Y011452D01*
X018839Y011439D01*
X018817Y011430D01*
X018793Y011424D01*
X018768Y011422D01*
X018743Y011424D01*
X018719Y011430D01*
X018697Y011439D01*
X018676Y011452D01*
X018657Y011468D01*
X018641Y011487D01*
X018628Y011508D01*
X018619Y011530D01*
X018613Y011554D01*
X018611Y011579D01*
X019084Y011579D02*
X019086Y011604D01*
X019092Y011628D01*
X019101Y011650D01*
X019114Y011671D01*
X019130Y011690D01*
X019149Y011706D01*
X019170Y011719D01*
X019192Y011728D01*
X019216Y011734D01*
X019241Y011736D01*
X019266Y011734D01*
X019290Y011728D01*
X019312Y011719D01*
X019333Y011706D01*
X019352Y011690D01*
X019368Y011671D01*
X019381Y011650D01*
X019390Y011628D01*
X019396Y011604D01*
X019398Y011579D01*
X019396Y011554D01*
X019390Y011530D01*
X019381Y011508D01*
X019368Y011487D01*
X019352Y011468D01*
X019333Y011452D01*
X019312Y011439D01*
X019290Y011430D01*
X019266Y011424D01*
X019241Y011422D01*
X019216Y011424D01*
X019192Y011430D01*
X019170Y011439D01*
X019149Y011452D01*
X019130Y011468D01*
X019114Y011487D01*
X019101Y011508D01*
X019092Y011530D01*
X019086Y011554D01*
X019084Y011579D01*
X019556Y011579D02*
X019558Y011604D01*
X019564Y011628D01*
X019573Y011650D01*
X019586Y011671D01*
X019602Y011690D01*
X019621Y011706D01*
X019642Y011719D01*
X019664Y011728D01*
X019688Y011734D01*
X019713Y011736D01*
X019738Y011734D01*
X019762Y011728D01*
X019784Y011719D01*
X019805Y011706D01*
X019824Y011690D01*
X019840Y011671D01*
X019853Y011650D01*
X019862Y011628D01*
X019868Y011604D01*
X019870Y011579D01*
X019868Y011554D01*
X019862Y011530D01*
X019853Y011508D01*
X019840Y011487D01*
X019824Y011468D01*
X019805Y011452D01*
X019784Y011439D01*
X019762Y011430D01*
X019738Y011424D01*
X019713Y011422D01*
X019688Y011424D01*
X019664Y011430D01*
X019642Y011439D01*
X019621Y011452D01*
X019602Y011468D01*
X019586Y011487D01*
X019573Y011508D01*
X019564Y011530D01*
X019558Y011554D01*
X019556Y011579D01*
X020028Y011579D02*
X020030Y011604D01*
X020036Y011628D01*
X020045Y011650D01*
X020058Y011671D01*
X020074Y011690D01*
X020093Y011706D01*
X020114Y011719D01*
X020136Y011728D01*
X020160Y011734D01*
X020185Y011736D01*
X020210Y011734D01*
X020234Y011728D01*
X020256Y011719D01*
X020277Y011706D01*
X020296Y011690D01*
X020312Y011671D01*
X020325Y011650D01*
X020334Y011628D01*
X020340Y011604D01*
X020342Y011579D01*
X020340Y011554D01*
X020334Y011530D01*
X020325Y011508D01*
X020312Y011487D01*
X020296Y011468D01*
X020277Y011452D01*
X020256Y011439D01*
X020234Y011430D01*
X020210Y011424D01*
X020185Y011422D01*
X020160Y011424D01*
X020136Y011430D01*
X020114Y011439D01*
X020093Y011452D01*
X020074Y011468D01*
X020058Y011487D01*
X020045Y011508D01*
X020036Y011530D01*
X020030Y011554D01*
X020028Y011579D01*
X020501Y011579D02*
X020503Y011604D01*
X020509Y011628D01*
X020518Y011650D01*
X020531Y011671D01*
X020547Y011690D01*
X020566Y011706D01*
X020587Y011719D01*
X020609Y011728D01*
X020633Y011734D01*
X020658Y011736D01*
X020683Y011734D01*
X020707Y011728D01*
X020729Y011719D01*
X020750Y011706D01*
X020769Y011690D01*
X020785Y011671D01*
X020798Y011650D01*
X020807Y011628D01*
X020813Y011604D01*
X020815Y011579D01*
X020813Y011554D01*
X020807Y011530D01*
X020798Y011508D01*
X020785Y011487D01*
X020769Y011468D01*
X020750Y011452D01*
X020729Y011439D01*
X020707Y011430D01*
X020683Y011424D01*
X020658Y011422D01*
X020633Y011424D01*
X020609Y011430D01*
X020587Y011439D01*
X020566Y011452D01*
X020547Y011468D01*
X020531Y011487D01*
X020518Y011508D01*
X020509Y011530D01*
X020503Y011554D01*
X020501Y011579D01*
X020973Y011185D02*
X020975Y011146D01*
X020981Y011108D01*
X020990Y011071D01*
X021003Y011034D01*
X021020Y010999D01*
X021039Y010966D01*
X021062Y010935D01*
X021088Y010906D01*
X021117Y010880D01*
X021148Y010857D01*
X021181Y010838D01*
X021216Y010821D01*
X021253Y010808D01*
X021290Y010799D01*
X021328Y010793D01*
X021367Y010791D01*
X021367Y010792D02*
X022626Y010792D01*
X023008Y010792D01*
X023047Y010790D01*
X023085Y010784D01*
X023122Y010775D01*
X023159Y010762D01*
X023194Y010745D01*
X023227Y010726D01*
X023258Y010703D01*
X023287Y010677D01*
X023313Y010648D01*
X023336Y010617D01*
X023355Y010584D01*
X023372Y010549D01*
X023385Y010512D01*
X023394Y010475D01*
X023400Y010437D01*
X023402Y010398D01*
X023402Y001725D01*
X023400Y001686D01*
X023394Y001648D01*
X023385Y001611D01*
X023372Y001574D01*
X023355Y001539D01*
X023336Y001506D01*
X023313Y001475D01*
X023287Y001446D01*
X023258Y001420D01*
X023227Y001397D01*
X023194Y001378D01*
X023159Y001361D01*
X023122Y001348D01*
X023085Y001339D01*
X023047Y001333D01*
X023008Y001331D01*
X004111Y001331D01*
X004072Y001333D01*
X004034Y001339D01*
X003997Y001348D01*
X003960Y001361D01*
X003925Y001378D01*
X003892Y001397D01*
X003861Y001420D01*
X003832Y001446D01*
X003806Y001475D01*
X003783Y001506D01*
X003764Y001539D01*
X003747Y001574D01*
X003734Y001611D01*
X003725Y001648D01*
X003719Y001686D01*
X003717Y001725D01*
X004126Y002331D02*
X004128Y002379D01*
X004134Y002427D01*
X004144Y002474D01*
X004157Y002520D01*
X004175Y002565D01*
X004195Y002609D01*
X004220Y002651D01*
X004248Y002690D01*
X004278Y002727D01*
X004312Y002761D01*
X004349Y002793D01*
X004387Y002822D01*
X004428Y002847D01*
X004471Y002869D01*
X004516Y002887D01*
X004562Y002901D01*
X004609Y002912D01*
X004657Y002919D01*
X004705Y002922D01*
X004753Y002921D01*
X004801Y002916D01*
X004849Y002907D01*
X004895Y002895D01*
X004940Y002878D01*
X004984Y002858D01*
X005026Y002835D01*
X005066Y002808D01*
X005104Y002778D01*
X005139Y002745D01*
X005171Y002709D01*
X005201Y002671D01*
X005227Y002630D01*
X005249Y002587D01*
X005269Y002543D01*
X005284Y002498D01*
X005296Y002451D01*
X005304Y002403D01*
X005308Y002355D01*
X005308Y002307D01*
X005304Y002259D01*
X005296Y002211D01*
X005284Y002164D01*
X005269Y002119D01*
X005249Y002075D01*
X005227Y002032D01*
X005201Y001991D01*
X005171Y001953D01*
X005139Y001917D01*
X005104Y001884D01*
X005066Y001854D01*
X005026Y001827D01*
X004984Y001804D01*
X004940Y001784D01*
X004895Y001767D01*
X004849Y001755D01*
X004801Y001746D01*
X004753Y001741D01*
X004705Y001740D01*
X004657Y001743D01*
X004609Y001750D01*
X004562Y001761D01*
X004516Y001775D01*
X004471Y001793D01*
X004428Y001815D01*
X004387Y001840D01*
X004349Y001869D01*
X004312Y001901D01*
X004278Y001935D01*
X004248Y001972D01*
X004220Y002011D01*
X004195Y002053D01*
X004175Y002097D01*
X004157Y002142D01*
X004144Y002188D01*
X004134Y002235D01*
X004128Y002283D01*
X004126Y002331D01*
X004126Y009731D02*
X004128Y009779D01*
X004134Y009827D01*
X004144Y009874D01*
X004157Y009920D01*
X004175Y009965D01*
X004195Y010009D01*
X004220Y010051D01*
X004248Y010090D01*
X004278Y010127D01*
X004312Y010161D01*
X004349Y010193D01*
X004387Y010222D01*
X004428Y010247D01*
X004471Y010269D01*
X004516Y010287D01*
X004562Y010301D01*
X004609Y010312D01*
X004657Y010319D01*
X004705Y010322D01*
X004753Y010321D01*
X004801Y010316D01*
X004849Y010307D01*
X004895Y010295D01*
X004940Y010278D01*
X004984Y010258D01*
X005026Y010235D01*
X005066Y010208D01*
X005104Y010178D01*
X005139Y010145D01*
X005171Y010109D01*
X005201Y010071D01*
X005227Y010030D01*
X005249Y009987D01*
X005269Y009943D01*
X005284Y009898D01*
X005296Y009851D01*
X005304Y009803D01*
X005308Y009755D01*
X005308Y009707D01*
X005304Y009659D01*
X005296Y009611D01*
X005284Y009564D01*
X005269Y009519D01*
X005249Y009475D01*
X005227Y009432D01*
X005201Y009391D01*
X005171Y009353D01*
X005139Y009317D01*
X005104Y009284D01*
X005066Y009254D01*
X005026Y009227D01*
X004984Y009204D01*
X004940Y009184D01*
X004895Y009167D01*
X004849Y009155D01*
X004801Y009146D01*
X004753Y009141D01*
X004705Y009140D01*
X004657Y009143D01*
X004609Y009150D01*
X004562Y009161D01*
X004516Y009175D01*
X004471Y009193D01*
X004428Y009215D01*
X004387Y009240D01*
X004349Y009269D01*
X004312Y009301D01*
X004278Y009335D01*
X004248Y009372D01*
X004220Y009411D01*
X004195Y009453D01*
X004175Y009497D01*
X004157Y009542D01*
X004144Y009588D01*
X004134Y009635D01*
X004128Y009683D01*
X004126Y009731D01*
X009555Y011225D02*
X009557Y011186D01*
X009563Y011148D01*
X009572Y011111D01*
X009585Y011074D01*
X009602Y011039D01*
X009621Y011006D01*
X009644Y010975D01*
X009670Y010946D01*
X009699Y010920D01*
X009730Y010897D01*
X009763Y010878D01*
X009798Y010861D01*
X009835Y010848D01*
X009872Y010839D01*
X009910Y010833D01*
X009949Y010831D01*
X012822Y015904D02*
X012824Y015943D01*
X012830Y015981D01*
X012839Y016018D01*
X012852Y016055D01*
X012869Y016090D01*
X012888Y016123D01*
X012911Y016154D01*
X012937Y016183D01*
X013611Y017445D02*
X013613Y017470D01*
X013619Y017494D01*
X013628Y017516D01*
X013641Y017537D01*
X013657Y017556D01*
X013676Y017572D01*
X013697Y017585D01*
X013719Y017594D01*
X013743Y017600D01*
X013768Y017602D01*
X013793Y017600D01*
X013817Y017594D01*
X013839Y017585D01*
X013860Y017572D01*
X013879Y017556D01*
X013895Y017537D01*
X013908Y017516D01*
X013917Y017494D01*
X013923Y017470D01*
X013925Y017445D01*
X013923Y017420D01*
X013917Y017396D01*
X013908Y017374D01*
X013895Y017353D01*
X013879Y017334D01*
X013860Y017318D01*
X013839Y017305D01*
X013817Y017296D01*
X013793Y017290D01*
X013768Y017288D01*
X013743Y017290D01*
X013719Y017296D01*
X013697Y017305D01*
X013676Y017318D01*
X013657Y017334D01*
X013641Y017353D01*
X013628Y017374D01*
X013619Y017396D01*
X013613Y017420D01*
X013611Y017445D01*
X013611Y017918D02*
X013613Y017943D01*
X013619Y017967D01*
X013628Y017989D01*
X013641Y018010D01*
X013657Y018029D01*
X013676Y018045D01*
X013697Y018058D01*
X013719Y018067D01*
X013743Y018073D01*
X013768Y018075D01*
X013793Y018073D01*
X013817Y018067D01*
X013839Y018058D01*
X013860Y018045D01*
X013879Y018029D01*
X013895Y018010D01*
X013908Y017989D01*
X013917Y017967D01*
X013923Y017943D01*
X013925Y017918D01*
X013923Y017893D01*
X013917Y017869D01*
X013908Y017847D01*
X013895Y017826D01*
X013879Y017807D01*
X013860Y017791D01*
X013839Y017778D01*
X013817Y017769D01*
X013793Y017763D01*
X013768Y017761D01*
X013743Y017763D01*
X013719Y017769D01*
X013697Y017778D01*
X013676Y017791D01*
X013657Y017807D01*
X013641Y017826D01*
X013628Y017847D01*
X013619Y017869D01*
X013613Y017893D01*
X013611Y017918D01*
X013611Y018390D02*
X013613Y018415D01*
X013619Y018439D01*
X013628Y018461D01*
X013641Y018482D01*
X013657Y018501D01*
X013676Y018517D01*
X013697Y018530D01*
X013719Y018539D01*
X013743Y018545D01*
X013768Y018547D01*
X013793Y018545D01*
X013817Y018539D01*
X013839Y018530D01*
X013860Y018517D01*
X013879Y018501D01*
X013895Y018482D01*
X013908Y018461D01*
X013917Y018439D01*
X013923Y018415D01*
X013925Y018390D01*
X013923Y018365D01*
X013917Y018341D01*
X013908Y018319D01*
X013895Y018298D01*
X013879Y018279D01*
X013860Y018263D01*
X013839Y018250D01*
X013817Y018241D01*
X013793Y018235D01*
X013768Y018233D01*
X013743Y018235D01*
X013719Y018241D01*
X013697Y018250D01*
X013676Y018263D01*
X013657Y018279D01*
X013641Y018298D01*
X013628Y018319D01*
X013619Y018341D01*
X013613Y018365D01*
X013611Y018390D01*
X014084Y018390D02*
X014086Y018415D01*
X014092Y018439D01*
X014101Y018461D01*
X014114Y018482D01*
X014130Y018501D01*
X014149Y018517D01*
X014170Y018530D01*
X014192Y018539D01*
X014216Y018545D01*
X014241Y018547D01*
X014266Y018545D01*
X014290Y018539D01*
X014312Y018530D01*
X014333Y018517D01*
X014352Y018501D01*
X014368Y018482D01*
X014381Y018461D01*
X014390Y018439D01*
X014396Y018415D01*
X014398Y018390D01*
X014396Y018365D01*
X014390Y018341D01*
X014381Y018319D01*
X014368Y018298D01*
X014352Y018279D01*
X014333Y018263D01*
X014312Y018250D01*
X014290Y018241D01*
X014266Y018235D01*
X014241Y018233D01*
X014216Y018235D01*
X014192Y018241D01*
X014170Y018250D01*
X014149Y018263D01*
X014130Y018279D01*
X014114Y018298D01*
X014101Y018319D01*
X014092Y018341D01*
X014086Y018365D01*
X014084Y018390D01*
X014084Y017918D02*
X014086Y017943D01*
X014092Y017967D01*
X014101Y017989D01*
X014114Y018010D01*
X014130Y018029D01*
X014149Y018045D01*
X014170Y018058D01*
X014192Y018067D01*
X014216Y018073D01*
X014241Y018075D01*
X014266Y018073D01*
X014290Y018067D01*
X014312Y018058D01*
X014333Y018045D01*
X014352Y018029D01*
X014368Y018010D01*
X014381Y017989D01*
X014390Y017967D01*
X014396Y017943D01*
X014398Y017918D01*
X014396Y017893D01*
X014390Y017869D01*
X014381Y017847D01*
X014368Y017826D01*
X014352Y017807D01*
X014333Y017791D01*
X014312Y017778D01*
X014290Y017769D01*
X014266Y017763D01*
X014241Y017761D01*
X014216Y017763D01*
X014192Y017769D01*
X014170Y017778D01*
X014149Y017791D01*
X014130Y017807D01*
X014114Y017826D01*
X014101Y017847D01*
X014092Y017869D01*
X014086Y017893D01*
X014084Y017918D01*
X014084Y017445D02*
X014086Y017470D01*
X014092Y017494D01*
X014101Y017516D01*
X014114Y017537D01*
X014130Y017556D01*
X014149Y017572D01*
X014170Y017585D01*
X014192Y017594D01*
X014216Y017600D01*
X014241Y017602D01*
X014266Y017600D01*
X014290Y017594D01*
X014312Y017585D01*
X014333Y017572D01*
X014352Y017556D01*
X014368Y017537D01*
X014381Y017516D01*
X014390Y017494D01*
X014396Y017470D01*
X014398Y017445D01*
X014396Y017420D01*
X014390Y017396D01*
X014381Y017374D01*
X014368Y017353D01*
X014352Y017334D01*
X014333Y017318D01*
X014312Y017305D01*
X014290Y017296D01*
X014266Y017290D01*
X014241Y017288D01*
X014216Y017290D01*
X014192Y017296D01*
X014170Y017305D01*
X014149Y017318D01*
X014130Y017334D01*
X014114Y017353D01*
X014101Y017374D01*
X014092Y017396D01*
X014086Y017420D01*
X014084Y017445D01*
X021826Y009731D02*
X021828Y009779D01*
X021834Y009827D01*
X021844Y009874D01*
X021857Y009920D01*
X021875Y009965D01*
X021895Y010009D01*
X021920Y010051D01*
X021948Y010090D01*
X021978Y010127D01*
X022012Y010161D01*
X022049Y010193D01*
X022087Y010222D01*
X022128Y010247D01*
X022171Y010269D01*
X022216Y010287D01*
X022262Y010301D01*
X022309Y010312D01*
X022357Y010319D01*
X022405Y010322D01*
X022453Y010321D01*
X022501Y010316D01*
X022549Y010307D01*
X022595Y010295D01*
X022640Y010278D01*
X022684Y010258D01*
X022726Y010235D01*
X022766Y010208D01*
X022804Y010178D01*
X022839Y010145D01*
X022871Y010109D01*
X022901Y010071D01*
X022927Y010030D01*
X022949Y009987D01*
X022969Y009943D01*
X022984Y009898D01*
X022996Y009851D01*
X023004Y009803D01*
X023008Y009755D01*
X023008Y009707D01*
X023004Y009659D01*
X022996Y009611D01*
X022984Y009564D01*
X022969Y009519D01*
X022949Y009475D01*
X022927Y009432D01*
X022901Y009391D01*
X022871Y009353D01*
X022839Y009317D01*
X022804Y009284D01*
X022766Y009254D01*
X022726Y009227D01*
X022684Y009204D01*
X022640Y009184D01*
X022595Y009167D01*
X022549Y009155D01*
X022501Y009146D01*
X022453Y009141D01*
X022405Y009140D01*
X022357Y009143D01*
X022309Y009150D01*
X022262Y009161D01*
X022216Y009175D01*
X022171Y009193D01*
X022128Y009215D01*
X022087Y009240D01*
X022049Y009269D01*
X022012Y009301D01*
X021978Y009335D01*
X021948Y009372D01*
X021920Y009411D01*
X021895Y009453D01*
X021875Y009497D01*
X021857Y009542D01*
X021844Y009588D01*
X021834Y009635D01*
X021828Y009683D01*
X021826Y009731D01*
X021826Y002331D02*
X021828Y002379D01*
X021834Y002427D01*
X021844Y002474D01*
X021857Y002520D01*
X021875Y002565D01*
X021895Y002609D01*
X021920Y002651D01*
X021948Y002690D01*
X021978Y002727D01*
X022012Y002761D01*
X022049Y002793D01*
X022087Y002822D01*
X022128Y002847D01*
X022171Y002869D01*
X022216Y002887D01*
X022262Y002901D01*
X022309Y002912D01*
X022357Y002919D01*
X022405Y002922D01*
X022453Y002921D01*
X022501Y002916D01*
X022549Y002907D01*
X022595Y002895D01*
X022640Y002878D01*
X022684Y002858D01*
X022726Y002835D01*
X022766Y002808D01*
X022804Y002778D01*
X022839Y002745D01*
X022871Y002709D01*
X022901Y002671D01*
X022927Y002630D01*
X022949Y002587D01*
X022969Y002543D01*
X022984Y002498D01*
X022996Y002451D01*
X023004Y002403D01*
X023008Y002355D01*
X023008Y002307D01*
X023004Y002259D01*
X022996Y002211D01*
X022984Y002164D01*
X022969Y002119D01*
X022949Y002075D01*
X022927Y002032D01*
X022901Y001991D01*
X022871Y001953D01*
X022839Y001917D01*
X022804Y001884D01*
X022766Y001854D01*
X022726Y001827D01*
X022684Y001804D01*
X022640Y001784D01*
X022595Y001767D01*
X022549Y001755D01*
X022501Y001746D01*
X022453Y001741D01*
X022405Y001740D01*
X022357Y001743D01*
X022309Y001750D01*
X022262Y001761D01*
X022216Y001775D01*
X022171Y001793D01*
X022128Y001815D01*
X022087Y001840D01*
X022049Y001869D01*
X022012Y001901D01*
X021978Y001935D01*
X021948Y001972D01*
X021920Y002011D01*
X021895Y002053D01*
X021875Y002097D01*
X021857Y002142D01*
X021844Y002188D01*
X021834Y002235D01*
X021828Y002283D01*
X021826Y002331D01*
D11*
X022417Y002331D03*
X022417Y009731D03*
X004717Y009731D03*
X004717Y002331D03*
D12*
X005933Y010949D03*
X006406Y010949D03*
X006878Y010949D03*
X007351Y010949D03*
X007823Y010949D03*
X008296Y010949D03*
X008768Y010949D03*
X009241Y010949D03*
X009241Y011579D03*
X008768Y011579D03*
X008296Y011579D03*
X007823Y011579D03*
X007351Y011579D03*
X006878Y011579D03*
X006406Y011579D03*
X005933Y011579D03*
X013768Y017445D03*
X014241Y017445D03*
X014241Y017918D03*
X014241Y018390D03*
X013768Y018390D03*
X013768Y017918D03*
X013768Y018863D03*
X013768Y019335D03*
X013768Y019807D03*
X014241Y019807D03*
X014241Y019335D03*
X014241Y018863D03*
X017351Y011579D03*
X017823Y011579D03*
X018296Y011579D03*
X018768Y011579D03*
X019241Y011579D03*
X019713Y011579D03*
X020185Y011579D03*
X020658Y011579D03*
X020658Y010949D03*
X020185Y010949D03*
X019713Y010949D03*
X019241Y010949D03*
X018768Y010949D03*
X018296Y010949D03*
X017823Y010949D03*
X017351Y010949D03*
D13*
X011768Y008980D03*
X011513Y008980D03*
X011257Y008980D03*
X011001Y008980D03*
X010745Y008980D03*
X010489Y008980D03*
X010233Y008980D03*
X009977Y008980D03*
X009721Y008980D03*
X009465Y008980D03*
X009465Y006682D03*
X009721Y006682D03*
X009977Y006682D03*
X010233Y006682D03*
X010489Y006682D03*
X010745Y006682D03*
X011001Y006682D03*
X011257Y006682D03*
X011513Y006682D03*
X011768Y006682D03*
D14*
X005360Y006543D03*
X005360Y006287D03*
X005360Y006031D03*
X005360Y005775D03*
X005360Y005519D03*
D15*
X004317Y004456D03*
X004317Y007606D03*
D16*
X004317Y006531D03*
X004317Y005531D03*
D17*
X007097Y005341D03*
X007097Y004431D03*
X007097Y003521D03*
D18*
X009537Y004431D03*
D19*
X022417Y005031D03*
X022417Y007031D03*
D20*
X020417Y008931D03*
X019417Y008931D03*
X018417Y008931D03*
X017417Y008931D03*
X017417Y009931D03*
X018417Y009931D03*
X019417Y009931D03*
X020417Y009931D03*
X019553Y012685D03*
X018553Y012585D03*
X018553Y013585D03*
X017553Y013685D03*
X017553Y012685D03*
X019553Y013685D03*
X010867Y019136D03*
X010867Y020136D03*
X009867Y020236D03*
X008867Y020136D03*
X008867Y019136D03*
X009867Y019236D03*
D21*
X008129Y010173D02*
X007005Y010173D01*
X008129Y010173D02*
X008129Y009889D01*
X007005Y009889D01*
X007005Y010173D01*
X007005Y010004D02*
X008129Y010004D01*
X008129Y010119D02*
X007005Y010119D01*
X007005Y009673D02*
X008129Y009673D01*
X008129Y009389D01*
X007005Y009389D01*
X007005Y009673D01*
X007005Y009504D02*
X008129Y009504D01*
X008129Y009619D02*
X007005Y009619D01*
X007005Y009173D02*
X008129Y009173D01*
X008129Y008889D01*
X007005Y008889D01*
X007005Y009173D01*
X007005Y009004D02*
X008129Y009004D01*
X008129Y009119D02*
X007005Y009119D01*
X007005Y008673D02*
X008129Y008673D01*
X008129Y008389D01*
X007005Y008389D01*
X007005Y008673D01*
X007005Y008504D02*
X008129Y008504D01*
X008129Y008619D02*
X007005Y008619D01*
X007005Y008173D02*
X008129Y008173D01*
X008129Y007889D01*
X007005Y007889D01*
X007005Y008173D01*
X007005Y008004D02*
X008129Y008004D01*
X008129Y008119D02*
X007005Y008119D01*
X006629Y008173D02*
X005505Y008173D01*
X006629Y008173D02*
X006629Y007889D01*
X005505Y007889D01*
X005505Y008173D01*
X005505Y008004D02*
X006629Y008004D01*
X006629Y008119D02*
X005505Y008119D01*
X005505Y008673D02*
X006629Y008673D01*
X006629Y008389D01*
X005505Y008389D01*
X005505Y008673D01*
X005505Y008504D02*
X006629Y008504D01*
X006629Y008619D02*
X005505Y008619D01*
X005505Y009173D02*
X006629Y009173D01*
X006629Y008889D01*
X005505Y008889D01*
X005505Y009173D01*
X005505Y009004D02*
X006629Y009004D01*
X006629Y009119D02*
X005505Y009119D01*
X005505Y009673D02*
X006629Y009673D01*
X006629Y009389D01*
X005505Y009389D01*
X005505Y009673D01*
X005505Y009504D02*
X006629Y009504D01*
X006629Y009619D02*
X005505Y009619D01*
X005505Y010173D02*
X006629Y010173D01*
X006629Y009889D01*
X005505Y009889D01*
X005505Y010173D01*
X005505Y010004D02*
X006629Y010004D01*
X006629Y010119D02*
X005505Y010119D01*
D22*
X009741Y006131D03*
X010293Y006131D03*
X010441Y004331D03*
X010993Y004331D03*
X010993Y003731D03*
X010441Y003731D03*
D23*
X011017Y010092D03*
X012017Y010092D03*
X013017Y010092D03*
X014017Y010092D03*
X015017Y010092D03*
X016017Y010092D03*
X020753Y012685D03*
X021753Y012685D03*
X022753Y012685D03*
X012867Y020436D03*
X007367Y020136D03*
X007367Y019136D03*
D24*
X008737Y014286D03*
X008737Y013786D03*
X008737Y013286D03*
X008737Y012786D03*
X010797Y012786D03*
X010797Y013286D03*
X010797Y013786D03*
X010797Y014286D03*
X016723Y015735D03*
X016723Y016235D03*
X016723Y016735D03*
X016723Y017235D03*
X018783Y017235D03*
X018783Y016735D03*
X018783Y016235D03*
X018783Y015735D03*
D25*
X006020Y016062D03*
X006020Y016436D03*
X006020Y016810D03*
X005114Y016810D03*
X005114Y016436D03*
X005114Y016062D03*
D26*
X006793Y014048D03*
X007167Y014048D03*
X007541Y014048D03*
X007541Y013024D03*
X006793Y013024D03*
D27*
X005876Y014236D03*
X004458Y014236D03*
D28*
X006667Y015202D03*
X007267Y015202D03*
X007267Y015871D03*
X006667Y015871D03*
X005802Y017536D03*
X005132Y017536D03*
D29*
X005067Y019343D03*
X005067Y020130D03*
D30*
X006419Y018136D03*
X007915Y018136D03*
D31*
X008365Y016136D03*
X010569Y016136D03*
D32*
X005702Y012736D03*
X005032Y012736D03*
D33*
X014203Y012735D03*
X016203Y012735D03*
M02*
