G75*
%MOIN*%
%OFA0B0*%
%FSLAX24Y24*%
%IPPOS*%
%LPD*%
%AMOC8*
5,1,8,0,0,1.08239X$1,22.5*
%
%ADD10C,0.0000*%
%ADD11C,0.0080*%
%ADD12C,0.0070*%
%ADD13C,0.0110*%
%ADD14C,0.0060*%
%ADD15C,0.0079*%
%ADD16C,0.0050*%
%ADD17C,0.0020*%
%ADD18C,0.0160*%
D10*
X003717Y001725D02*
X003717Y010398D01*
X003719Y010437D01*
X003725Y010475D01*
X003734Y010512D01*
X003747Y010549D01*
X003764Y010584D01*
X003783Y010617D01*
X003806Y010648D01*
X003832Y010677D01*
X003861Y010703D01*
X003892Y010726D01*
X003925Y010745D01*
X003960Y010762D01*
X003997Y010775D01*
X004034Y010784D01*
X004072Y010790D01*
X004111Y010792D01*
X005225Y010792D01*
X005225Y010791D02*
X005264Y010793D01*
X005302Y010799D01*
X005339Y010808D01*
X005376Y010821D01*
X005411Y010838D01*
X005444Y010857D01*
X005475Y010880D01*
X005504Y010906D01*
X005530Y010935D01*
X005553Y010966D01*
X005572Y010999D01*
X005589Y011034D01*
X005602Y011071D01*
X005611Y011108D01*
X005617Y011146D01*
X005619Y011185D01*
X005618Y011185D02*
X005618Y011264D01*
X005619Y011342D01*
X005776Y011579D02*
X005778Y011604D01*
X005784Y011628D01*
X005793Y011650D01*
X005806Y011671D01*
X005822Y011690D01*
X005841Y011706D01*
X005862Y011719D01*
X005884Y011728D01*
X005908Y011734D01*
X005933Y011736D01*
X005958Y011734D01*
X005982Y011728D01*
X006004Y011719D01*
X006025Y011706D01*
X006044Y011690D01*
X006060Y011671D01*
X006073Y011650D01*
X006082Y011628D01*
X006088Y011604D01*
X006090Y011579D01*
X006088Y011554D01*
X006082Y011530D01*
X006073Y011508D01*
X006060Y011487D01*
X006044Y011468D01*
X006025Y011452D01*
X006004Y011439D01*
X005982Y011430D01*
X005958Y011424D01*
X005933Y011422D01*
X005908Y011424D01*
X005884Y011430D01*
X005862Y011439D01*
X005841Y011452D01*
X005822Y011468D01*
X005806Y011487D01*
X005793Y011508D01*
X005784Y011530D01*
X005778Y011554D01*
X005776Y011579D01*
X005225Y011736D02*
X004161Y011736D01*
X004122Y011738D01*
X004084Y011744D01*
X004047Y011753D01*
X004010Y011766D01*
X003975Y011783D01*
X003942Y011802D01*
X003911Y011825D01*
X003882Y011851D01*
X003856Y011880D01*
X003833Y011911D01*
X003814Y011944D01*
X003797Y011979D01*
X003784Y012016D01*
X003775Y012053D01*
X003769Y012091D01*
X003767Y012130D01*
X003767Y020791D01*
X003769Y020830D01*
X003775Y020868D01*
X003784Y020905D01*
X003797Y020942D01*
X003814Y020977D01*
X003833Y021010D01*
X003856Y021041D01*
X003882Y021070D01*
X003911Y021096D01*
X003942Y021119D01*
X003975Y021138D01*
X004010Y021155D01*
X004047Y021168D01*
X004084Y021177D01*
X004122Y021183D01*
X004161Y021185D01*
X013216Y021185D01*
X013254Y021183D01*
X013293Y021177D01*
X013330Y021168D01*
X013366Y021155D01*
X013401Y021139D01*
X013435Y021119D01*
X013466Y021096D01*
X013494Y021070D01*
X013520Y021041D01*
X013543Y021010D01*
X013563Y020977D01*
X013580Y020942D01*
X013593Y020906D01*
X013602Y020869D01*
X013608Y020831D01*
X013610Y020792D01*
X013609Y020792D02*
X013611Y017017D01*
X013495Y016739D02*
X012939Y016183D01*
X012823Y015904D02*
X012823Y015004D01*
X012822Y012130D01*
X012822Y012129D02*
X012820Y012091D01*
X012814Y012053D01*
X012804Y012016D01*
X012791Y011979D01*
X012775Y011944D01*
X012755Y011911D01*
X012732Y011881D01*
X012706Y011852D01*
X012677Y011826D01*
X012647Y011803D01*
X012613Y011783D01*
X012579Y011767D01*
X012542Y011754D01*
X012505Y011744D01*
X012467Y011738D01*
X012428Y011736D01*
X009949Y011737D01*
X009910Y011735D01*
X009872Y011729D01*
X009835Y011720D01*
X009798Y011707D01*
X009763Y011690D01*
X009730Y011671D01*
X009699Y011648D01*
X009670Y011622D01*
X009644Y011593D01*
X009621Y011562D01*
X009602Y011529D01*
X009585Y011494D01*
X009572Y011457D01*
X009563Y011420D01*
X009557Y011382D01*
X009555Y011343D01*
X009555Y011225D01*
X009555Y011185D01*
X009084Y010949D02*
X009086Y010974D01*
X009092Y010998D01*
X009101Y011020D01*
X009114Y011041D01*
X009130Y011060D01*
X009149Y011076D01*
X009170Y011089D01*
X009192Y011098D01*
X009216Y011104D01*
X009241Y011106D01*
X009266Y011104D01*
X009290Y011098D01*
X009312Y011089D01*
X009333Y011076D01*
X009352Y011060D01*
X009368Y011041D01*
X009381Y011020D01*
X009390Y010998D01*
X009396Y010974D01*
X009398Y010949D01*
X009396Y010924D01*
X009390Y010900D01*
X009381Y010878D01*
X009368Y010857D01*
X009352Y010838D01*
X009333Y010822D01*
X009312Y010809D01*
X009290Y010800D01*
X009266Y010794D01*
X009241Y010792D01*
X009216Y010794D01*
X009192Y010800D01*
X009170Y010809D01*
X009149Y010822D01*
X009130Y010838D01*
X009114Y010857D01*
X009101Y010878D01*
X009092Y010900D01*
X009086Y010924D01*
X009084Y010949D01*
X008611Y010949D02*
X008613Y010974D01*
X008619Y010998D01*
X008628Y011020D01*
X008641Y011041D01*
X008657Y011060D01*
X008676Y011076D01*
X008697Y011089D01*
X008719Y011098D01*
X008743Y011104D01*
X008768Y011106D01*
X008793Y011104D01*
X008817Y011098D01*
X008839Y011089D01*
X008860Y011076D01*
X008879Y011060D01*
X008895Y011041D01*
X008908Y011020D01*
X008917Y010998D01*
X008923Y010974D01*
X008925Y010949D01*
X008923Y010924D01*
X008917Y010900D01*
X008908Y010878D01*
X008895Y010857D01*
X008879Y010838D01*
X008860Y010822D01*
X008839Y010809D01*
X008817Y010800D01*
X008793Y010794D01*
X008768Y010792D01*
X008743Y010794D01*
X008719Y010800D01*
X008697Y010809D01*
X008676Y010822D01*
X008657Y010838D01*
X008641Y010857D01*
X008628Y010878D01*
X008619Y010900D01*
X008613Y010924D01*
X008611Y010949D01*
X008139Y010949D02*
X008141Y010974D01*
X008147Y010998D01*
X008156Y011020D01*
X008169Y011041D01*
X008185Y011060D01*
X008204Y011076D01*
X008225Y011089D01*
X008247Y011098D01*
X008271Y011104D01*
X008296Y011106D01*
X008321Y011104D01*
X008345Y011098D01*
X008367Y011089D01*
X008388Y011076D01*
X008407Y011060D01*
X008423Y011041D01*
X008436Y011020D01*
X008445Y010998D01*
X008451Y010974D01*
X008453Y010949D01*
X008451Y010924D01*
X008445Y010900D01*
X008436Y010878D01*
X008423Y010857D01*
X008407Y010838D01*
X008388Y010822D01*
X008367Y010809D01*
X008345Y010800D01*
X008321Y010794D01*
X008296Y010792D01*
X008271Y010794D01*
X008247Y010800D01*
X008225Y010809D01*
X008204Y010822D01*
X008185Y010838D01*
X008169Y010857D01*
X008156Y010878D01*
X008147Y010900D01*
X008141Y010924D01*
X008139Y010949D01*
X007666Y010949D02*
X007668Y010974D01*
X007674Y010998D01*
X007683Y011020D01*
X007696Y011041D01*
X007712Y011060D01*
X007731Y011076D01*
X007752Y011089D01*
X007774Y011098D01*
X007798Y011104D01*
X007823Y011106D01*
X007848Y011104D01*
X007872Y011098D01*
X007894Y011089D01*
X007915Y011076D01*
X007934Y011060D01*
X007950Y011041D01*
X007963Y011020D01*
X007972Y010998D01*
X007978Y010974D01*
X007980Y010949D01*
X007978Y010924D01*
X007972Y010900D01*
X007963Y010878D01*
X007950Y010857D01*
X007934Y010838D01*
X007915Y010822D01*
X007894Y010809D01*
X007872Y010800D01*
X007848Y010794D01*
X007823Y010792D01*
X007798Y010794D01*
X007774Y010800D01*
X007752Y010809D01*
X007731Y010822D01*
X007712Y010838D01*
X007696Y010857D01*
X007683Y010878D01*
X007674Y010900D01*
X007668Y010924D01*
X007666Y010949D01*
X007194Y010949D02*
X007196Y010974D01*
X007202Y010998D01*
X007211Y011020D01*
X007224Y011041D01*
X007240Y011060D01*
X007259Y011076D01*
X007280Y011089D01*
X007302Y011098D01*
X007326Y011104D01*
X007351Y011106D01*
X007376Y011104D01*
X007400Y011098D01*
X007422Y011089D01*
X007443Y011076D01*
X007462Y011060D01*
X007478Y011041D01*
X007491Y011020D01*
X007500Y010998D01*
X007506Y010974D01*
X007508Y010949D01*
X007506Y010924D01*
X007500Y010900D01*
X007491Y010878D01*
X007478Y010857D01*
X007462Y010838D01*
X007443Y010822D01*
X007422Y010809D01*
X007400Y010800D01*
X007376Y010794D01*
X007351Y010792D01*
X007326Y010794D01*
X007302Y010800D01*
X007280Y010809D01*
X007259Y010822D01*
X007240Y010838D01*
X007224Y010857D01*
X007211Y010878D01*
X007202Y010900D01*
X007196Y010924D01*
X007194Y010949D01*
X006721Y010949D02*
X006723Y010974D01*
X006729Y010998D01*
X006738Y011020D01*
X006751Y011041D01*
X006767Y011060D01*
X006786Y011076D01*
X006807Y011089D01*
X006829Y011098D01*
X006853Y011104D01*
X006878Y011106D01*
X006903Y011104D01*
X006927Y011098D01*
X006949Y011089D01*
X006970Y011076D01*
X006989Y011060D01*
X007005Y011041D01*
X007018Y011020D01*
X007027Y010998D01*
X007033Y010974D01*
X007035Y010949D01*
X007033Y010924D01*
X007027Y010900D01*
X007018Y010878D01*
X007005Y010857D01*
X006989Y010838D01*
X006970Y010822D01*
X006949Y010809D01*
X006927Y010800D01*
X006903Y010794D01*
X006878Y010792D01*
X006853Y010794D01*
X006829Y010800D01*
X006807Y010809D01*
X006786Y010822D01*
X006767Y010838D01*
X006751Y010857D01*
X006738Y010878D01*
X006729Y010900D01*
X006723Y010924D01*
X006721Y010949D01*
X006249Y010949D02*
X006251Y010974D01*
X006257Y010998D01*
X006266Y011020D01*
X006279Y011041D01*
X006295Y011060D01*
X006314Y011076D01*
X006335Y011089D01*
X006357Y011098D01*
X006381Y011104D01*
X006406Y011106D01*
X006431Y011104D01*
X006455Y011098D01*
X006477Y011089D01*
X006498Y011076D01*
X006517Y011060D01*
X006533Y011041D01*
X006546Y011020D01*
X006555Y010998D01*
X006561Y010974D01*
X006563Y010949D01*
X006561Y010924D01*
X006555Y010900D01*
X006546Y010878D01*
X006533Y010857D01*
X006517Y010838D01*
X006498Y010822D01*
X006477Y010809D01*
X006455Y010800D01*
X006431Y010794D01*
X006406Y010792D01*
X006381Y010794D01*
X006357Y010800D01*
X006335Y010809D01*
X006314Y010822D01*
X006295Y010838D01*
X006279Y010857D01*
X006266Y010878D01*
X006257Y010900D01*
X006251Y010924D01*
X006249Y010949D01*
X005776Y010949D02*
X005778Y010974D01*
X005784Y010998D01*
X005793Y011020D01*
X005806Y011041D01*
X005822Y011060D01*
X005841Y011076D01*
X005862Y011089D01*
X005884Y011098D01*
X005908Y011104D01*
X005933Y011106D01*
X005958Y011104D01*
X005982Y011098D01*
X006004Y011089D01*
X006025Y011076D01*
X006044Y011060D01*
X006060Y011041D01*
X006073Y011020D01*
X006082Y010998D01*
X006088Y010974D01*
X006090Y010949D01*
X006088Y010924D01*
X006082Y010900D01*
X006073Y010878D01*
X006060Y010857D01*
X006044Y010838D01*
X006025Y010822D01*
X006004Y010809D01*
X005982Y010800D01*
X005958Y010794D01*
X005933Y010792D01*
X005908Y010794D01*
X005884Y010800D01*
X005862Y010809D01*
X005841Y010822D01*
X005822Y010838D01*
X005806Y010857D01*
X005793Y010878D01*
X005784Y010900D01*
X005778Y010924D01*
X005776Y010949D01*
X005619Y011343D02*
X005617Y011381D01*
X005611Y011420D01*
X005602Y011457D01*
X005589Y011494D01*
X005573Y011529D01*
X005553Y011562D01*
X005530Y011593D01*
X005504Y011622D01*
X005475Y011648D01*
X005444Y011671D01*
X005411Y011690D01*
X005376Y011707D01*
X005339Y011720D01*
X005302Y011729D01*
X005264Y011735D01*
X005225Y011737D01*
X006249Y011579D02*
X006251Y011604D01*
X006257Y011628D01*
X006266Y011650D01*
X006279Y011671D01*
X006295Y011690D01*
X006314Y011706D01*
X006335Y011719D01*
X006357Y011728D01*
X006381Y011734D01*
X006406Y011736D01*
X006431Y011734D01*
X006455Y011728D01*
X006477Y011719D01*
X006498Y011706D01*
X006517Y011690D01*
X006533Y011671D01*
X006546Y011650D01*
X006555Y011628D01*
X006561Y011604D01*
X006563Y011579D01*
X006561Y011554D01*
X006555Y011530D01*
X006546Y011508D01*
X006533Y011487D01*
X006517Y011468D01*
X006498Y011452D01*
X006477Y011439D01*
X006455Y011430D01*
X006431Y011424D01*
X006406Y011422D01*
X006381Y011424D01*
X006357Y011430D01*
X006335Y011439D01*
X006314Y011452D01*
X006295Y011468D01*
X006279Y011487D01*
X006266Y011508D01*
X006257Y011530D01*
X006251Y011554D01*
X006249Y011579D01*
X006721Y011579D02*
X006723Y011604D01*
X006729Y011628D01*
X006738Y011650D01*
X006751Y011671D01*
X006767Y011690D01*
X006786Y011706D01*
X006807Y011719D01*
X006829Y011728D01*
X006853Y011734D01*
X006878Y011736D01*
X006903Y011734D01*
X006927Y011728D01*
X006949Y011719D01*
X006970Y011706D01*
X006989Y011690D01*
X007005Y011671D01*
X007018Y011650D01*
X007027Y011628D01*
X007033Y011604D01*
X007035Y011579D01*
X007033Y011554D01*
X007027Y011530D01*
X007018Y011508D01*
X007005Y011487D01*
X006989Y011468D01*
X006970Y011452D01*
X006949Y011439D01*
X006927Y011430D01*
X006903Y011424D01*
X006878Y011422D01*
X006853Y011424D01*
X006829Y011430D01*
X006807Y011439D01*
X006786Y011452D01*
X006767Y011468D01*
X006751Y011487D01*
X006738Y011508D01*
X006729Y011530D01*
X006723Y011554D01*
X006721Y011579D01*
X007194Y011579D02*
X007196Y011604D01*
X007202Y011628D01*
X007211Y011650D01*
X007224Y011671D01*
X007240Y011690D01*
X007259Y011706D01*
X007280Y011719D01*
X007302Y011728D01*
X007326Y011734D01*
X007351Y011736D01*
X007376Y011734D01*
X007400Y011728D01*
X007422Y011719D01*
X007443Y011706D01*
X007462Y011690D01*
X007478Y011671D01*
X007491Y011650D01*
X007500Y011628D01*
X007506Y011604D01*
X007508Y011579D01*
X007506Y011554D01*
X007500Y011530D01*
X007491Y011508D01*
X007478Y011487D01*
X007462Y011468D01*
X007443Y011452D01*
X007422Y011439D01*
X007400Y011430D01*
X007376Y011424D01*
X007351Y011422D01*
X007326Y011424D01*
X007302Y011430D01*
X007280Y011439D01*
X007259Y011452D01*
X007240Y011468D01*
X007224Y011487D01*
X007211Y011508D01*
X007202Y011530D01*
X007196Y011554D01*
X007194Y011579D01*
X007666Y011579D02*
X007668Y011604D01*
X007674Y011628D01*
X007683Y011650D01*
X007696Y011671D01*
X007712Y011690D01*
X007731Y011706D01*
X007752Y011719D01*
X007774Y011728D01*
X007798Y011734D01*
X007823Y011736D01*
X007848Y011734D01*
X007872Y011728D01*
X007894Y011719D01*
X007915Y011706D01*
X007934Y011690D01*
X007950Y011671D01*
X007963Y011650D01*
X007972Y011628D01*
X007978Y011604D01*
X007980Y011579D01*
X007978Y011554D01*
X007972Y011530D01*
X007963Y011508D01*
X007950Y011487D01*
X007934Y011468D01*
X007915Y011452D01*
X007894Y011439D01*
X007872Y011430D01*
X007848Y011424D01*
X007823Y011422D01*
X007798Y011424D01*
X007774Y011430D01*
X007752Y011439D01*
X007731Y011452D01*
X007712Y011468D01*
X007696Y011487D01*
X007683Y011508D01*
X007674Y011530D01*
X007668Y011554D01*
X007666Y011579D01*
X008139Y011579D02*
X008141Y011604D01*
X008147Y011628D01*
X008156Y011650D01*
X008169Y011671D01*
X008185Y011690D01*
X008204Y011706D01*
X008225Y011719D01*
X008247Y011728D01*
X008271Y011734D01*
X008296Y011736D01*
X008321Y011734D01*
X008345Y011728D01*
X008367Y011719D01*
X008388Y011706D01*
X008407Y011690D01*
X008423Y011671D01*
X008436Y011650D01*
X008445Y011628D01*
X008451Y011604D01*
X008453Y011579D01*
X008451Y011554D01*
X008445Y011530D01*
X008436Y011508D01*
X008423Y011487D01*
X008407Y011468D01*
X008388Y011452D01*
X008367Y011439D01*
X008345Y011430D01*
X008321Y011424D01*
X008296Y011422D01*
X008271Y011424D01*
X008247Y011430D01*
X008225Y011439D01*
X008204Y011452D01*
X008185Y011468D01*
X008169Y011487D01*
X008156Y011508D01*
X008147Y011530D01*
X008141Y011554D01*
X008139Y011579D01*
X008611Y011579D02*
X008613Y011604D01*
X008619Y011628D01*
X008628Y011650D01*
X008641Y011671D01*
X008657Y011690D01*
X008676Y011706D01*
X008697Y011719D01*
X008719Y011728D01*
X008743Y011734D01*
X008768Y011736D01*
X008793Y011734D01*
X008817Y011728D01*
X008839Y011719D01*
X008860Y011706D01*
X008879Y011690D01*
X008895Y011671D01*
X008908Y011650D01*
X008917Y011628D01*
X008923Y011604D01*
X008925Y011579D01*
X008923Y011554D01*
X008917Y011530D01*
X008908Y011508D01*
X008895Y011487D01*
X008879Y011468D01*
X008860Y011452D01*
X008839Y011439D01*
X008817Y011430D01*
X008793Y011424D01*
X008768Y011422D01*
X008743Y011424D01*
X008719Y011430D01*
X008697Y011439D01*
X008676Y011452D01*
X008657Y011468D01*
X008641Y011487D01*
X008628Y011508D01*
X008619Y011530D01*
X008613Y011554D01*
X008611Y011579D01*
X009084Y011579D02*
X009086Y011604D01*
X009092Y011628D01*
X009101Y011650D01*
X009114Y011671D01*
X009130Y011690D01*
X009149Y011706D01*
X009170Y011719D01*
X009192Y011728D01*
X009216Y011734D01*
X009241Y011736D01*
X009266Y011734D01*
X009290Y011728D01*
X009312Y011719D01*
X009333Y011706D01*
X009352Y011690D01*
X009368Y011671D01*
X009381Y011650D01*
X009390Y011628D01*
X009396Y011604D01*
X009398Y011579D01*
X009396Y011554D01*
X009390Y011530D01*
X009381Y011508D01*
X009368Y011487D01*
X009352Y011468D01*
X009333Y011452D01*
X009312Y011439D01*
X009290Y011430D01*
X009266Y011424D01*
X009241Y011422D01*
X009216Y011424D01*
X009192Y011430D01*
X009170Y011439D01*
X009149Y011452D01*
X009130Y011468D01*
X009114Y011487D01*
X009101Y011508D01*
X009092Y011530D01*
X009086Y011554D01*
X009084Y011579D01*
X009555Y011185D02*
X009557Y011146D01*
X009563Y011108D01*
X009572Y011071D01*
X009585Y011034D01*
X009602Y010999D01*
X009621Y010966D01*
X009644Y010935D01*
X009670Y010906D01*
X009699Y010880D01*
X009730Y010857D01*
X009763Y010838D01*
X009798Y010821D01*
X009835Y010808D01*
X009872Y010799D01*
X009910Y010793D01*
X009949Y010791D01*
X009949Y010792D02*
X016642Y010792D01*
X016642Y010791D02*
X016681Y010793D01*
X016719Y010799D01*
X016756Y010808D01*
X016793Y010821D01*
X016828Y010838D01*
X016861Y010857D01*
X016892Y010880D01*
X016921Y010906D01*
X016947Y010935D01*
X016970Y010966D01*
X016989Y010999D01*
X017006Y011034D01*
X017019Y011071D01*
X017028Y011108D01*
X017034Y011146D01*
X017036Y011185D01*
X017036Y011225D01*
X017036Y011304D01*
X017036Y011343D01*
X017034Y011382D01*
X017028Y011420D01*
X017019Y011457D01*
X017006Y011494D01*
X016989Y011529D01*
X016970Y011562D01*
X016947Y011593D01*
X016921Y011622D01*
X016892Y011648D01*
X016861Y011671D01*
X016828Y011690D01*
X016793Y011707D01*
X016756Y011720D01*
X016719Y011729D01*
X016681Y011735D01*
X016642Y011737D01*
X014004Y011737D01*
X014004Y011736D02*
X013965Y011738D01*
X013927Y011744D01*
X013890Y011753D01*
X013853Y011766D01*
X013818Y011783D01*
X013785Y011802D01*
X013754Y011825D01*
X013725Y011851D01*
X013699Y011880D01*
X013676Y011911D01*
X013657Y011944D01*
X013640Y011979D01*
X013627Y012016D01*
X013618Y012053D01*
X013612Y012091D01*
X013610Y012130D01*
X013611Y012130D02*
X013611Y015904D01*
X013610Y015904D02*
X013612Y015943D01*
X013618Y015981D01*
X013627Y016018D01*
X013640Y016055D01*
X013657Y016090D01*
X013676Y016123D01*
X013699Y016154D01*
X013725Y016183D01*
X013726Y016183D02*
X014283Y016739D01*
X014398Y017018D02*
X014398Y020792D01*
X014400Y020831D01*
X014406Y020869D01*
X014415Y020906D01*
X014428Y020943D01*
X014445Y020978D01*
X014464Y021011D01*
X014487Y021042D01*
X014513Y021071D01*
X014542Y021097D01*
X014573Y021120D01*
X014606Y021139D01*
X014641Y021156D01*
X014678Y021169D01*
X014715Y021178D01*
X014753Y021184D01*
X014792Y021186D01*
X014792Y021185D02*
X023059Y021185D01*
X023059Y021186D02*
X023098Y021184D01*
X023136Y021178D01*
X023173Y021169D01*
X023210Y021156D01*
X023245Y021139D01*
X023278Y021120D01*
X023309Y021097D01*
X023338Y021071D01*
X023364Y021042D01*
X023387Y021011D01*
X023406Y020978D01*
X023423Y020943D01*
X023436Y020906D01*
X023445Y020869D01*
X023451Y020831D01*
X023453Y020792D01*
X023453Y012130D01*
X023451Y012091D01*
X023445Y012053D01*
X023436Y012016D01*
X023423Y011979D01*
X023406Y011944D01*
X023387Y011911D01*
X023364Y011880D01*
X023338Y011851D01*
X023309Y011825D01*
X023278Y011802D01*
X023245Y011783D01*
X023210Y011766D01*
X023173Y011753D01*
X023136Y011744D01*
X023098Y011738D01*
X023059Y011736D01*
X023059Y011737D02*
X021367Y011737D01*
X021328Y011735D01*
X021290Y011729D01*
X021253Y011720D01*
X021216Y011707D01*
X021181Y011690D01*
X021148Y011671D01*
X021117Y011648D01*
X021088Y011622D01*
X021062Y011593D01*
X021039Y011562D01*
X021020Y011529D01*
X021003Y011494D01*
X020990Y011457D01*
X020981Y011420D01*
X020975Y011382D01*
X020973Y011343D01*
X020973Y011304D01*
X020973Y011185D01*
X020501Y010949D02*
X020503Y010974D01*
X020509Y010998D01*
X020518Y011020D01*
X020531Y011041D01*
X020547Y011060D01*
X020566Y011076D01*
X020587Y011089D01*
X020609Y011098D01*
X020633Y011104D01*
X020658Y011106D01*
X020683Y011104D01*
X020707Y011098D01*
X020729Y011089D01*
X020750Y011076D01*
X020769Y011060D01*
X020785Y011041D01*
X020798Y011020D01*
X020807Y010998D01*
X020813Y010974D01*
X020815Y010949D01*
X020813Y010924D01*
X020807Y010900D01*
X020798Y010878D01*
X020785Y010857D01*
X020769Y010838D01*
X020750Y010822D01*
X020729Y010809D01*
X020707Y010800D01*
X020683Y010794D01*
X020658Y010792D01*
X020633Y010794D01*
X020609Y010800D01*
X020587Y010809D01*
X020566Y010822D01*
X020547Y010838D01*
X020531Y010857D01*
X020518Y010878D01*
X020509Y010900D01*
X020503Y010924D01*
X020501Y010949D01*
X020028Y010949D02*
X020030Y010974D01*
X020036Y010998D01*
X020045Y011020D01*
X020058Y011041D01*
X020074Y011060D01*
X020093Y011076D01*
X020114Y011089D01*
X020136Y011098D01*
X020160Y011104D01*
X020185Y011106D01*
X020210Y011104D01*
X020234Y011098D01*
X020256Y011089D01*
X020277Y011076D01*
X020296Y011060D01*
X020312Y011041D01*
X020325Y011020D01*
X020334Y010998D01*
X020340Y010974D01*
X020342Y010949D01*
X020340Y010924D01*
X020334Y010900D01*
X020325Y010878D01*
X020312Y010857D01*
X020296Y010838D01*
X020277Y010822D01*
X020256Y010809D01*
X020234Y010800D01*
X020210Y010794D01*
X020185Y010792D01*
X020160Y010794D01*
X020136Y010800D01*
X020114Y010809D01*
X020093Y010822D01*
X020074Y010838D01*
X020058Y010857D01*
X020045Y010878D01*
X020036Y010900D01*
X020030Y010924D01*
X020028Y010949D01*
X019556Y010949D02*
X019558Y010974D01*
X019564Y010998D01*
X019573Y011020D01*
X019586Y011041D01*
X019602Y011060D01*
X019621Y011076D01*
X019642Y011089D01*
X019664Y011098D01*
X019688Y011104D01*
X019713Y011106D01*
X019738Y011104D01*
X019762Y011098D01*
X019784Y011089D01*
X019805Y011076D01*
X019824Y011060D01*
X019840Y011041D01*
X019853Y011020D01*
X019862Y010998D01*
X019868Y010974D01*
X019870Y010949D01*
X019868Y010924D01*
X019862Y010900D01*
X019853Y010878D01*
X019840Y010857D01*
X019824Y010838D01*
X019805Y010822D01*
X019784Y010809D01*
X019762Y010800D01*
X019738Y010794D01*
X019713Y010792D01*
X019688Y010794D01*
X019664Y010800D01*
X019642Y010809D01*
X019621Y010822D01*
X019602Y010838D01*
X019586Y010857D01*
X019573Y010878D01*
X019564Y010900D01*
X019558Y010924D01*
X019556Y010949D01*
X019084Y010949D02*
X019086Y010974D01*
X019092Y010998D01*
X019101Y011020D01*
X019114Y011041D01*
X019130Y011060D01*
X019149Y011076D01*
X019170Y011089D01*
X019192Y011098D01*
X019216Y011104D01*
X019241Y011106D01*
X019266Y011104D01*
X019290Y011098D01*
X019312Y011089D01*
X019333Y011076D01*
X019352Y011060D01*
X019368Y011041D01*
X019381Y011020D01*
X019390Y010998D01*
X019396Y010974D01*
X019398Y010949D01*
X019396Y010924D01*
X019390Y010900D01*
X019381Y010878D01*
X019368Y010857D01*
X019352Y010838D01*
X019333Y010822D01*
X019312Y010809D01*
X019290Y010800D01*
X019266Y010794D01*
X019241Y010792D01*
X019216Y010794D01*
X019192Y010800D01*
X019170Y010809D01*
X019149Y010822D01*
X019130Y010838D01*
X019114Y010857D01*
X019101Y010878D01*
X019092Y010900D01*
X019086Y010924D01*
X019084Y010949D01*
X018611Y010949D02*
X018613Y010974D01*
X018619Y010998D01*
X018628Y011020D01*
X018641Y011041D01*
X018657Y011060D01*
X018676Y011076D01*
X018697Y011089D01*
X018719Y011098D01*
X018743Y011104D01*
X018768Y011106D01*
X018793Y011104D01*
X018817Y011098D01*
X018839Y011089D01*
X018860Y011076D01*
X018879Y011060D01*
X018895Y011041D01*
X018908Y011020D01*
X018917Y010998D01*
X018923Y010974D01*
X018925Y010949D01*
X018923Y010924D01*
X018917Y010900D01*
X018908Y010878D01*
X018895Y010857D01*
X018879Y010838D01*
X018860Y010822D01*
X018839Y010809D01*
X018817Y010800D01*
X018793Y010794D01*
X018768Y010792D01*
X018743Y010794D01*
X018719Y010800D01*
X018697Y010809D01*
X018676Y010822D01*
X018657Y010838D01*
X018641Y010857D01*
X018628Y010878D01*
X018619Y010900D01*
X018613Y010924D01*
X018611Y010949D01*
X018139Y010949D02*
X018141Y010974D01*
X018147Y010998D01*
X018156Y011020D01*
X018169Y011041D01*
X018185Y011060D01*
X018204Y011076D01*
X018225Y011089D01*
X018247Y011098D01*
X018271Y011104D01*
X018296Y011106D01*
X018321Y011104D01*
X018345Y011098D01*
X018367Y011089D01*
X018388Y011076D01*
X018407Y011060D01*
X018423Y011041D01*
X018436Y011020D01*
X018445Y010998D01*
X018451Y010974D01*
X018453Y010949D01*
X018451Y010924D01*
X018445Y010900D01*
X018436Y010878D01*
X018423Y010857D01*
X018407Y010838D01*
X018388Y010822D01*
X018367Y010809D01*
X018345Y010800D01*
X018321Y010794D01*
X018296Y010792D01*
X018271Y010794D01*
X018247Y010800D01*
X018225Y010809D01*
X018204Y010822D01*
X018185Y010838D01*
X018169Y010857D01*
X018156Y010878D01*
X018147Y010900D01*
X018141Y010924D01*
X018139Y010949D01*
X017666Y010949D02*
X017668Y010974D01*
X017674Y010998D01*
X017683Y011020D01*
X017696Y011041D01*
X017712Y011060D01*
X017731Y011076D01*
X017752Y011089D01*
X017774Y011098D01*
X017798Y011104D01*
X017823Y011106D01*
X017848Y011104D01*
X017872Y011098D01*
X017894Y011089D01*
X017915Y011076D01*
X017934Y011060D01*
X017950Y011041D01*
X017963Y011020D01*
X017972Y010998D01*
X017978Y010974D01*
X017980Y010949D01*
X017978Y010924D01*
X017972Y010900D01*
X017963Y010878D01*
X017950Y010857D01*
X017934Y010838D01*
X017915Y010822D01*
X017894Y010809D01*
X017872Y010800D01*
X017848Y010794D01*
X017823Y010792D01*
X017798Y010794D01*
X017774Y010800D01*
X017752Y010809D01*
X017731Y010822D01*
X017712Y010838D01*
X017696Y010857D01*
X017683Y010878D01*
X017674Y010900D01*
X017668Y010924D01*
X017666Y010949D01*
X017194Y010949D02*
X017196Y010974D01*
X017202Y010998D01*
X017211Y011020D01*
X017224Y011041D01*
X017240Y011060D01*
X017259Y011076D01*
X017280Y011089D01*
X017302Y011098D01*
X017326Y011104D01*
X017351Y011106D01*
X017376Y011104D01*
X017400Y011098D01*
X017422Y011089D01*
X017443Y011076D01*
X017462Y011060D01*
X017478Y011041D01*
X017491Y011020D01*
X017500Y010998D01*
X017506Y010974D01*
X017508Y010949D01*
X017506Y010924D01*
X017500Y010900D01*
X017491Y010878D01*
X017478Y010857D01*
X017462Y010838D01*
X017443Y010822D01*
X017422Y010809D01*
X017400Y010800D01*
X017376Y010794D01*
X017351Y010792D01*
X017326Y010794D01*
X017302Y010800D01*
X017280Y010809D01*
X017259Y010822D01*
X017240Y010838D01*
X017224Y010857D01*
X017211Y010878D01*
X017202Y010900D01*
X017196Y010924D01*
X017194Y010949D01*
X017194Y011579D02*
X017196Y011604D01*
X017202Y011628D01*
X017211Y011650D01*
X017224Y011671D01*
X017240Y011690D01*
X017259Y011706D01*
X017280Y011719D01*
X017302Y011728D01*
X017326Y011734D01*
X017351Y011736D01*
X017376Y011734D01*
X017400Y011728D01*
X017422Y011719D01*
X017443Y011706D01*
X017462Y011690D01*
X017478Y011671D01*
X017491Y011650D01*
X017500Y011628D01*
X017506Y011604D01*
X017508Y011579D01*
X017506Y011554D01*
X017500Y011530D01*
X017491Y011508D01*
X017478Y011487D01*
X017462Y011468D01*
X017443Y011452D01*
X017422Y011439D01*
X017400Y011430D01*
X017376Y011424D01*
X017351Y011422D01*
X017326Y011424D01*
X017302Y011430D01*
X017280Y011439D01*
X017259Y011452D01*
X017240Y011468D01*
X017224Y011487D01*
X017211Y011508D01*
X017202Y011530D01*
X017196Y011554D01*
X017194Y011579D01*
X017666Y011579D02*
X017668Y011604D01*
X017674Y011628D01*
X017683Y011650D01*
X017696Y011671D01*
X017712Y011690D01*
X017731Y011706D01*
X017752Y011719D01*
X017774Y011728D01*
X017798Y011734D01*
X017823Y011736D01*
X017848Y011734D01*
X017872Y011728D01*
X017894Y011719D01*
X017915Y011706D01*
X017934Y011690D01*
X017950Y011671D01*
X017963Y011650D01*
X017972Y011628D01*
X017978Y011604D01*
X017980Y011579D01*
X017978Y011554D01*
X017972Y011530D01*
X017963Y011508D01*
X017950Y011487D01*
X017934Y011468D01*
X017915Y011452D01*
X017894Y011439D01*
X017872Y011430D01*
X017848Y011424D01*
X017823Y011422D01*
X017798Y011424D01*
X017774Y011430D01*
X017752Y011439D01*
X017731Y011452D01*
X017712Y011468D01*
X017696Y011487D01*
X017683Y011508D01*
X017674Y011530D01*
X017668Y011554D01*
X017666Y011579D01*
X018139Y011579D02*
X018141Y011604D01*
X018147Y011628D01*
X018156Y011650D01*
X018169Y011671D01*
X018185Y011690D01*
X018204Y011706D01*
X018225Y011719D01*
X018247Y011728D01*
X018271Y011734D01*
X018296Y011736D01*
X018321Y011734D01*
X018345Y011728D01*
X018367Y011719D01*
X018388Y011706D01*
X018407Y011690D01*
X018423Y011671D01*
X018436Y011650D01*
X018445Y011628D01*
X018451Y011604D01*
X018453Y011579D01*
X018451Y011554D01*
X018445Y011530D01*
X018436Y011508D01*
X018423Y011487D01*
X018407Y011468D01*
X018388Y011452D01*
X018367Y011439D01*
X018345Y011430D01*
X018321Y011424D01*
X018296Y011422D01*
X018271Y011424D01*
X018247Y011430D01*
X018225Y011439D01*
X018204Y011452D01*
X018185Y011468D01*
X018169Y011487D01*
X018156Y011508D01*
X018147Y011530D01*
X018141Y011554D01*
X018139Y011579D01*
X018611Y011579D02*
X018613Y011604D01*
X018619Y011628D01*
X018628Y011650D01*
X018641Y011671D01*
X018657Y011690D01*
X018676Y011706D01*
X018697Y011719D01*
X018719Y011728D01*
X018743Y011734D01*
X018768Y011736D01*
X018793Y011734D01*
X018817Y011728D01*
X018839Y011719D01*
X018860Y011706D01*
X018879Y011690D01*
X018895Y011671D01*
X018908Y011650D01*
X018917Y011628D01*
X018923Y011604D01*
X018925Y011579D01*
X018923Y011554D01*
X018917Y011530D01*
X018908Y011508D01*
X018895Y011487D01*
X018879Y011468D01*
X018860Y011452D01*
X018839Y011439D01*
X018817Y011430D01*
X018793Y011424D01*
X018768Y011422D01*
X018743Y011424D01*
X018719Y011430D01*
X018697Y011439D01*
X018676Y011452D01*
X018657Y011468D01*
X018641Y011487D01*
X018628Y011508D01*
X018619Y011530D01*
X018613Y011554D01*
X018611Y011579D01*
X019084Y011579D02*
X019086Y011604D01*
X019092Y011628D01*
X019101Y011650D01*
X019114Y011671D01*
X019130Y011690D01*
X019149Y011706D01*
X019170Y011719D01*
X019192Y011728D01*
X019216Y011734D01*
X019241Y011736D01*
X019266Y011734D01*
X019290Y011728D01*
X019312Y011719D01*
X019333Y011706D01*
X019352Y011690D01*
X019368Y011671D01*
X019381Y011650D01*
X019390Y011628D01*
X019396Y011604D01*
X019398Y011579D01*
X019396Y011554D01*
X019390Y011530D01*
X019381Y011508D01*
X019368Y011487D01*
X019352Y011468D01*
X019333Y011452D01*
X019312Y011439D01*
X019290Y011430D01*
X019266Y011424D01*
X019241Y011422D01*
X019216Y011424D01*
X019192Y011430D01*
X019170Y011439D01*
X019149Y011452D01*
X019130Y011468D01*
X019114Y011487D01*
X019101Y011508D01*
X019092Y011530D01*
X019086Y011554D01*
X019084Y011579D01*
X019556Y011579D02*
X019558Y011604D01*
X019564Y011628D01*
X019573Y011650D01*
X019586Y011671D01*
X019602Y011690D01*
X019621Y011706D01*
X019642Y011719D01*
X019664Y011728D01*
X019688Y011734D01*
X019713Y011736D01*
X019738Y011734D01*
X019762Y011728D01*
X019784Y011719D01*
X019805Y011706D01*
X019824Y011690D01*
X019840Y011671D01*
X019853Y011650D01*
X019862Y011628D01*
X019868Y011604D01*
X019870Y011579D01*
X019868Y011554D01*
X019862Y011530D01*
X019853Y011508D01*
X019840Y011487D01*
X019824Y011468D01*
X019805Y011452D01*
X019784Y011439D01*
X019762Y011430D01*
X019738Y011424D01*
X019713Y011422D01*
X019688Y011424D01*
X019664Y011430D01*
X019642Y011439D01*
X019621Y011452D01*
X019602Y011468D01*
X019586Y011487D01*
X019573Y011508D01*
X019564Y011530D01*
X019558Y011554D01*
X019556Y011579D01*
X020028Y011579D02*
X020030Y011604D01*
X020036Y011628D01*
X020045Y011650D01*
X020058Y011671D01*
X020074Y011690D01*
X020093Y011706D01*
X020114Y011719D01*
X020136Y011728D01*
X020160Y011734D01*
X020185Y011736D01*
X020210Y011734D01*
X020234Y011728D01*
X020256Y011719D01*
X020277Y011706D01*
X020296Y011690D01*
X020312Y011671D01*
X020325Y011650D01*
X020334Y011628D01*
X020340Y011604D01*
X020342Y011579D01*
X020340Y011554D01*
X020334Y011530D01*
X020325Y011508D01*
X020312Y011487D01*
X020296Y011468D01*
X020277Y011452D01*
X020256Y011439D01*
X020234Y011430D01*
X020210Y011424D01*
X020185Y011422D01*
X020160Y011424D01*
X020136Y011430D01*
X020114Y011439D01*
X020093Y011452D01*
X020074Y011468D01*
X020058Y011487D01*
X020045Y011508D01*
X020036Y011530D01*
X020030Y011554D01*
X020028Y011579D01*
X020501Y011579D02*
X020503Y011604D01*
X020509Y011628D01*
X020518Y011650D01*
X020531Y011671D01*
X020547Y011690D01*
X020566Y011706D01*
X020587Y011719D01*
X020609Y011728D01*
X020633Y011734D01*
X020658Y011736D01*
X020683Y011734D01*
X020707Y011728D01*
X020729Y011719D01*
X020750Y011706D01*
X020769Y011690D01*
X020785Y011671D01*
X020798Y011650D01*
X020807Y011628D01*
X020813Y011604D01*
X020815Y011579D01*
X020813Y011554D01*
X020807Y011530D01*
X020798Y011508D01*
X020785Y011487D01*
X020769Y011468D01*
X020750Y011452D01*
X020729Y011439D01*
X020707Y011430D01*
X020683Y011424D01*
X020658Y011422D01*
X020633Y011424D01*
X020609Y011430D01*
X020587Y011439D01*
X020566Y011452D01*
X020547Y011468D01*
X020531Y011487D01*
X020518Y011508D01*
X020509Y011530D01*
X020503Y011554D01*
X020501Y011579D01*
X020973Y011185D02*
X020975Y011146D01*
X020981Y011108D01*
X020990Y011071D01*
X021003Y011034D01*
X021020Y010999D01*
X021039Y010966D01*
X021062Y010935D01*
X021088Y010906D01*
X021117Y010880D01*
X021148Y010857D01*
X021181Y010838D01*
X021216Y010821D01*
X021253Y010808D01*
X021290Y010799D01*
X021328Y010793D01*
X021367Y010791D01*
X021367Y010792D02*
X023008Y010792D01*
X023047Y010790D01*
X023085Y010784D01*
X023122Y010775D01*
X023159Y010762D01*
X023194Y010745D01*
X023227Y010726D01*
X023258Y010703D01*
X023287Y010677D01*
X023313Y010648D01*
X023336Y010617D01*
X023355Y010584D01*
X023372Y010549D01*
X023385Y010512D01*
X023394Y010475D01*
X023400Y010437D01*
X023402Y010398D01*
X023402Y001725D01*
X023400Y001686D01*
X023394Y001648D01*
X023385Y001611D01*
X023372Y001574D01*
X023355Y001539D01*
X023336Y001506D01*
X023313Y001475D01*
X023287Y001446D01*
X023258Y001420D01*
X023227Y001397D01*
X023194Y001378D01*
X023159Y001361D01*
X023122Y001348D01*
X023085Y001339D01*
X023047Y001333D01*
X023008Y001331D01*
X004111Y001331D01*
X004072Y001333D01*
X004034Y001339D01*
X003997Y001348D01*
X003960Y001361D01*
X003925Y001378D01*
X003892Y001397D01*
X003861Y001420D01*
X003832Y001446D01*
X003806Y001475D01*
X003783Y001506D01*
X003764Y001539D01*
X003747Y001574D01*
X003734Y001611D01*
X003725Y001648D01*
X003719Y001686D01*
X003717Y001725D01*
X004126Y002331D02*
X004128Y002379D01*
X004134Y002427D01*
X004144Y002474D01*
X004157Y002520D01*
X004175Y002565D01*
X004195Y002609D01*
X004220Y002651D01*
X004248Y002690D01*
X004278Y002727D01*
X004312Y002761D01*
X004349Y002793D01*
X004387Y002822D01*
X004428Y002847D01*
X004471Y002869D01*
X004516Y002887D01*
X004562Y002901D01*
X004609Y002912D01*
X004657Y002919D01*
X004705Y002922D01*
X004753Y002921D01*
X004801Y002916D01*
X004849Y002907D01*
X004895Y002895D01*
X004940Y002878D01*
X004984Y002858D01*
X005026Y002835D01*
X005066Y002808D01*
X005104Y002778D01*
X005139Y002745D01*
X005171Y002709D01*
X005201Y002671D01*
X005227Y002630D01*
X005249Y002587D01*
X005269Y002543D01*
X005284Y002498D01*
X005296Y002451D01*
X005304Y002403D01*
X005308Y002355D01*
X005308Y002307D01*
X005304Y002259D01*
X005296Y002211D01*
X005284Y002164D01*
X005269Y002119D01*
X005249Y002075D01*
X005227Y002032D01*
X005201Y001991D01*
X005171Y001953D01*
X005139Y001917D01*
X005104Y001884D01*
X005066Y001854D01*
X005026Y001827D01*
X004984Y001804D01*
X004940Y001784D01*
X004895Y001767D01*
X004849Y001755D01*
X004801Y001746D01*
X004753Y001741D01*
X004705Y001740D01*
X004657Y001743D01*
X004609Y001750D01*
X004562Y001761D01*
X004516Y001775D01*
X004471Y001793D01*
X004428Y001815D01*
X004387Y001840D01*
X004349Y001869D01*
X004312Y001901D01*
X004278Y001935D01*
X004248Y001972D01*
X004220Y002011D01*
X004195Y002053D01*
X004175Y002097D01*
X004157Y002142D01*
X004144Y002188D01*
X004134Y002235D01*
X004128Y002283D01*
X004126Y002331D01*
X004126Y009731D02*
X004128Y009779D01*
X004134Y009827D01*
X004144Y009874D01*
X004157Y009920D01*
X004175Y009965D01*
X004195Y010009D01*
X004220Y010051D01*
X004248Y010090D01*
X004278Y010127D01*
X004312Y010161D01*
X004349Y010193D01*
X004387Y010222D01*
X004428Y010247D01*
X004471Y010269D01*
X004516Y010287D01*
X004562Y010301D01*
X004609Y010312D01*
X004657Y010319D01*
X004705Y010322D01*
X004753Y010321D01*
X004801Y010316D01*
X004849Y010307D01*
X004895Y010295D01*
X004940Y010278D01*
X004984Y010258D01*
X005026Y010235D01*
X005066Y010208D01*
X005104Y010178D01*
X005139Y010145D01*
X005171Y010109D01*
X005201Y010071D01*
X005227Y010030D01*
X005249Y009987D01*
X005269Y009943D01*
X005284Y009898D01*
X005296Y009851D01*
X005304Y009803D01*
X005308Y009755D01*
X005308Y009707D01*
X005304Y009659D01*
X005296Y009611D01*
X005284Y009564D01*
X005269Y009519D01*
X005249Y009475D01*
X005227Y009432D01*
X005201Y009391D01*
X005171Y009353D01*
X005139Y009317D01*
X005104Y009284D01*
X005066Y009254D01*
X005026Y009227D01*
X004984Y009204D01*
X004940Y009184D01*
X004895Y009167D01*
X004849Y009155D01*
X004801Y009146D01*
X004753Y009141D01*
X004705Y009140D01*
X004657Y009143D01*
X004609Y009150D01*
X004562Y009161D01*
X004516Y009175D01*
X004471Y009193D01*
X004428Y009215D01*
X004387Y009240D01*
X004349Y009269D01*
X004312Y009301D01*
X004278Y009335D01*
X004248Y009372D01*
X004220Y009411D01*
X004195Y009453D01*
X004175Y009497D01*
X004157Y009542D01*
X004144Y009588D01*
X004134Y009635D01*
X004128Y009683D01*
X004126Y009731D01*
X012823Y015904D02*
X012825Y015943D01*
X012831Y015981D01*
X012840Y016018D01*
X012853Y016055D01*
X012870Y016090D01*
X012889Y016123D01*
X012912Y016154D01*
X012938Y016183D01*
X013496Y016739D02*
X013521Y016768D01*
X013544Y016799D01*
X013564Y016832D01*
X013581Y016867D01*
X013594Y016903D01*
X013603Y016940D01*
X013609Y016978D01*
X013611Y017017D01*
X014283Y016739D02*
X014309Y016768D01*
X014332Y016799D01*
X014351Y016832D01*
X014368Y016867D01*
X014381Y016904D01*
X014390Y016941D01*
X014396Y016979D01*
X014398Y017018D01*
X014004Y020122D02*
X014003Y020122D01*
X021826Y009731D02*
X021828Y009779D01*
X021834Y009827D01*
X021844Y009874D01*
X021857Y009920D01*
X021875Y009965D01*
X021895Y010009D01*
X021920Y010051D01*
X021948Y010090D01*
X021978Y010127D01*
X022012Y010161D01*
X022049Y010193D01*
X022087Y010222D01*
X022128Y010247D01*
X022171Y010269D01*
X022216Y010287D01*
X022262Y010301D01*
X022309Y010312D01*
X022357Y010319D01*
X022405Y010322D01*
X022453Y010321D01*
X022501Y010316D01*
X022549Y010307D01*
X022595Y010295D01*
X022640Y010278D01*
X022684Y010258D01*
X022726Y010235D01*
X022766Y010208D01*
X022804Y010178D01*
X022839Y010145D01*
X022871Y010109D01*
X022901Y010071D01*
X022927Y010030D01*
X022949Y009987D01*
X022969Y009943D01*
X022984Y009898D01*
X022996Y009851D01*
X023004Y009803D01*
X023008Y009755D01*
X023008Y009707D01*
X023004Y009659D01*
X022996Y009611D01*
X022984Y009564D01*
X022969Y009519D01*
X022949Y009475D01*
X022927Y009432D01*
X022901Y009391D01*
X022871Y009353D01*
X022839Y009317D01*
X022804Y009284D01*
X022766Y009254D01*
X022726Y009227D01*
X022684Y009204D01*
X022640Y009184D01*
X022595Y009167D01*
X022549Y009155D01*
X022501Y009146D01*
X022453Y009141D01*
X022405Y009140D01*
X022357Y009143D01*
X022309Y009150D01*
X022262Y009161D01*
X022216Y009175D01*
X022171Y009193D01*
X022128Y009215D01*
X022087Y009240D01*
X022049Y009269D01*
X022012Y009301D01*
X021978Y009335D01*
X021948Y009372D01*
X021920Y009411D01*
X021895Y009453D01*
X021875Y009497D01*
X021857Y009542D01*
X021844Y009588D01*
X021834Y009635D01*
X021828Y009683D01*
X021826Y009731D01*
X021826Y002331D02*
X021828Y002379D01*
X021834Y002427D01*
X021844Y002474D01*
X021857Y002520D01*
X021875Y002565D01*
X021895Y002609D01*
X021920Y002651D01*
X021948Y002690D01*
X021978Y002727D01*
X022012Y002761D01*
X022049Y002793D01*
X022087Y002822D01*
X022128Y002847D01*
X022171Y002869D01*
X022216Y002887D01*
X022262Y002901D01*
X022309Y002912D01*
X022357Y002919D01*
X022405Y002922D01*
X022453Y002921D01*
X022501Y002916D01*
X022549Y002907D01*
X022595Y002895D01*
X022640Y002878D01*
X022684Y002858D01*
X022726Y002835D01*
X022766Y002808D01*
X022804Y002778D01*
X022839Y002745D01*
X022871Y002709D01*
X022901Y002671D01*
X022927Y002630D01*
X022949Y002587D01*
X022969Y002543D01*
X022984Y002498D01*
X022996Y002451D01*
X023004Y002403D01*
X023008Y002355D01*
X023008Y002307D01*
X023004Y002259D01*
X022996Y002211D01*
X022984Y002164D01*
X022969Y002119D01*
X022949Y002075D01*
X022927Y002032D01*
X022901Y001991D01*
X022871Y001953D01*
X022839Y001917D01*
X022804Y001884D01*
X022766Y001854D01*
X022726Y001827D01*
X022684Y001804D01*
X022640Y001784D01*
X022595Y001767D01*
X022549Y001755D01*
X022501Y001746D01*
X022453Y001741D01*
X022405Y001740D01*
X022357Y001743D01*
X022309Y001750D01*
X022262Y001761D01*
X022216Y001775D01*
X022171Y001793D01*
X022128Y001815D01*
X022087Y001840D01*
X022049Y001869D01*
X022012Y001901D01*
X021978Y001935D01*
X021948Y001972D01*
X021920Y002011D01*
X021895Y002053D01*
X021875Y002097D01*
X021857Y002142D01*
X021844Y002188D01*
X021834Y002235D01*
X021828Y002283D01*
X021826Y002331D01*
D11*
X016267Y009592D02*
X015767Y009592D01*
X015517Y009842D01*
X015267Y009592D01*
X014767Y009592D01*
X014517Y009842D01*
X014267Y009592D01*
X013767Y009592D01*
X013517Y009842D01*
X013267Y009592D01*
X012767Y009592D01*
X012517Y009842D01*
X012267Y009592D01*
X011767Y009592D01*
X011517Y009842D01*
X011267Y009592D01*
X010767Y009592D01*
X010517Y009842D01*
X010517Y010342D01*
X010767Y010592D01*
X011267Y010592D01*
X011517Y010342D01*
X011767Y010592D01*
X012267Y010592D01*
X012517Y010342D01*
X012767Y010592D01*
X013267Y010592D01*
X013517Y010342D01*
X013767Y010592D01*
X014267Y010592D01*
X014517Y010342D01*
X014767Y010592D01*
X015267Y010592D01*
X015517Y010342D01*
X015767Y010592D01*
X016267Y010592D01*
X016517Y010342D01*
X016517Y009842D01*
X016267Y009592D01*
X017303Y012054D02*
X017803Y012054D01*
X017803Y012185D02*
X017303Y012185D01*
X017053Y012435D01*
X017053Y013935D01*
X017303Y014185D01*
X017803Y014185D01*
X018053Y013935D01*
X018053Y012435D01*
X018303Y012185D01*
X018803Y012185D01*
X019053Y012435D01*
X019053Y013935D01*
X019303Y014185D01*
X019803Y014185D01*
X020053Y013935D01*
X020053Y012435D01*
X019803Y012185D01*
X019303Y012185D01*
X019053Y012435D01*
X018053Y012435D02*
X017803Y012185D01*
X018053Y013935D02*
X018303Y014185D01*
X018803Y014185D01*
X019053Y013935D01*
X020253Y012935D02*
X020253Y012435D01*
X020503Y012185D01*
X021003Y012185D01*
X021253Y012435D01*
X021503Y012185D01*
X022003Y012185D01*
X022253Y012435D01*
X022503Y012185D01*
X023003Y012185D01*
X023253Y012435D01*
X023253Y012935D01*
X023003Y013185D01*
X022503Y013185D01*
X022253Y012935D01*
X022003Y013185D01*
X021503Y013185D01*
X021253Y012935D01*
X021003Y013185D01*
X020503Y013185D01*
X020253Y012935D01*
X018461Y015400D02*
X018463Y015415D01*
X018469Y015428D01*
X018478Y015440D01*
X018489Y015449D01*
X018503Y015455D01*
X018518Y015457D01*
X018533Y015455D01*
X018546Y015449D01*
X018558Y015440D01*
X018567Y015429D01*
X018573Y015415D01*
X018575Y015400D01*
X018573Y015385D01*
X018567Y015372D01*
X018558Y015360D01*
X018547Y015351D01*
X018533Y015345D01*
X018518Y015343D01*
X018503Y015345D01*
X018490Y015351D01*
X018478Y015360D01*
X018469Y015371D01*
X018463Y015385D01*
X018461Y015400D01*
X018801Y019525D02*
X018731Y019595D01*
X018801Y019525D02*
X018941Y019525D01*
X019011Y019595D01*
X019011Y019666D01*
X018941Y019736D01*
X018801Y019736D01*
X018731Y019806D01*
X018731Y019876D01*
X018801Y019946D01*
X018941Y019946D01*
X019011Y019876D01*
X019191Y019876D02*
X019191Y019595D01*
X019261Y019525D01*
X019401Y019525D01*
X019471Y019595D01*
X019471Y019876D01*
X019401Y019946D01*
X019261Y019946D01*
X019191Y019876D01*
X019011Y020225D02*
X019011Y020646D01*
X019011Y020436D02*
X018731Y020436D01*
X018731Y020646D02*
X018731Y020225D01*
X018551Y020295D02*
X018481Y020225D01*
X018340Y020225D01*
X018270Y020295D01*
X018270Y020576D01*
X018340Y020646D01*
X018481Y020646D01*
X018551Y020576D01*
X018090Y020576D02*
X018090Y020436D01*
X018020Y020366D01*
X017810Y020366D01*
X017950Y020366D02*
X018090Y020225D01*
X017810Y020225D02*
X017810Y020646D01*
X018020Y020646D01*
X018090Y020576D01*
X017630Y020506D02*
X017630Y020225D01*
X017630Y020436D02*
X017350Y020436D01*
X017350Y020506D02*
X017490Y020646D01*
X017630Y020506D01*
X017350Y020506D02*
X017350Y020225D01*
X017169Y020225D02*
X017169Y020646D01*
X017029Y020506D01*
X016889Y020646D01*
X016889Y020225D01*
X017029Y019946D02*
X017169Y019946D01*
X017099Y019946D02*
X017099Y019595D01*
X017029Y019525D01*
X016959Y019525D01*
X016889Y019595D01*
X017350Y019595D02*
X017420Y019525D01*
X017560Y019525D01*
X017630Y019595D01*
X017630Y019876D01*
X017560Y019946D01*
X017420Y019946D01*
X017350Y019876D01*
X017350Y019595D01*
X017810Y019525D02*
X017810Y019946D01*
X018090Y019525D01*
X018090Y019946D01*
X019652Y019946D02*
X019652Y019525D01*
X019792Y019666D01*
X019932Y019525D01*
X019932Y019946D01*
X020112Y019946D02*
X020112Y019525D01*
X020392Y019525D02*
X020392Y019946D01*
X020252Y019806D01*
X020112Y019946D01*
X020182Y020225D02*
X020112Y020295D01*
X020392Y020576D01*
X020392Y020295D01*
X020322Y020225D01*
X020182Y020225D01*
X020112Y020295D02*
X020112Y020576D01*
X020182Y020646D01*
X020322Y020646D01*
X020392Y020576D01*
X020572Y020506D02*
X020712Y020646D01*
X020712Y020225D01*
X020572Y020225D02*
X020853Y020225D01*
X021033Y020295D02*
X021103Y020225D01*
X021243Y020225D01*
X021313Y020295D01*
X021313Y020436D01*
X021243Y020506D01*
X021173Y020506D01*
X021033Y020436D01*
X021033Y020646D01*
X021313Y020646D01*
X021313Y019946D02*
X021313Y019525D01*
X021033Y019946D01*
X021033Y019525D01*
X020853Y019525D02*
X020853Y019806D01*
X020712Y019946D01*
X020572Y019806D01*
X020572Y019525D01*
X020572Y019736D02*
X020853Y019736D01*
X019932Y020225D02*
X019652Y020225D01*
X019932Y020506D01*
X019932Y020576D01*
X019862Y020646D01*
X019722Y020646D01*
X019652Y020576D01*
X013367Y020686D02*
X013367Y020186D01*
X013117Y019936D01*
X012617Y019936D01*
X012367Y020186D01*
X012367Y020686D01*
X012617Y020936D01*
X013117Y020936D01*
X013367Y020686D01*
X011367Y020386D02*
X011367Y018886D01*
X011117Y018636D01*
X010617Y018636D01*
X010367Y018886D01*
X010367Y020386D01*
X010117Y020636D01*
X009617Y020636D01*
X009367Y020386D01*
X009367Y018886D01*
X009117Y018636D01*
X008617Y018636D01*
X008367Y018886D01*
X008367Y020386D01*
X008617Y020636D01*
X009117Y020636D01*
X009367Y020386D01*
X010367Y020386D02*
X010617Y020636D01*
X011117Y020636D01*
X011367Y020386D01*
X011117Y020768D02*
X010617Y020768D01*
X010367Y018886D02*
X010117Y018636D01*
X009617Y018636D01*
X009367Y018886D01*
X009428Y018297D02*
X009428Y017876D01*
X009248Y017876D02*
X009037Y018086D01*
X008967Y018016D02*
X009248Y018297D01*
X009428Y018086D02*
X009708Y018086D01*
X009888Y018086D02*
X010168Y018086D01*
X010168Y018156D02*
X010168Y017876D01*
X010348Y017946D02*
X010419Y017876D01*
X010559Y017876D01*
X010629Y017946D01*
X010629Y018016D01*
X010559Y018086D01*
X010419Y018086D01*
X010348Y018156D01*
X010348Y018227D01*
X010419Y018297D01*
X010559Y018297D01*
X010629Y018227D01*
X010809Y018156D02*
X011019Y018156D01*
X011089Y018086D01*
X011089Y017876D01*
X011269Y017946D02*
X011269Y018086D01*
X011339Y018156D01*
X011479Y018156D01*
X011550Y018086D01*
X011550Y018016D01*
X011269Y018016D01*
X011269Y017946D02*
X011339Y017876D01*
X011479Y017876D01*
X011800Y017946D02*
X011870Y017876D01*
X011800Y017946D02*
X011800Y018227D01*
X011730Y018156D02*
X011870Y018156D01*
X010809Y018156D02*
X010809Y017876D01*
X010412Y017396D02*
X010727Y017081D01*
X010412Y017396D02*
X008207Y017396D01*
X008577Y017876D02*
X008717Y017876D01*
X008787Y017946D01*
X008787Y018297D01*
X008967Y018297D02*
X008967Y017876D01*
X008577Y017876D02*
X008507Y017946D01*
X008507Y018297D01*
X007867Y018886D02*
X007867Y019386D01*
X007617Y019636D01*
X007867Y019886D01*
X007867Y020386D01*
X007617Y020636D01*
X007117Y020636D01*
X006867Y020386D01*
X006867Y019886D01*
X007117Y019636D01*
X006867Y019386D01*
X006867Y018886D01*
X007117Y018636D01*
X007617Y018636D01*
X007867Y018886D01*
X009708Y018297D02*
X009708Y017876D01*
X009888Y017876D02*
X009888Y018156D01*
X010028Y018297D01*
X010168Y018156D01*
X010727Y015191D02*
X010412Y014876D01*
X008207Y014876D01*
X008945Y014621D02*
X008947Y014636D01*
X008953Y014649D01*
X008962Y014661D01*
X008973Y014670D01*
X008987Y014676D01*
X009002Y014678D01*
X009017Y014676D01*
X009030Y014670D01*
X009042Y014661D01*
X009051Y014650D01*
X009057Y014636D01*
X009059Y014621D01*
X009057Y014606D01*
X009051Y014593D01*
X009042Y014581D01*
X009031Y014572D01*
X009017Y014566D01*
X009002Y014564D01*
X008987Y014566D01*
X008974Y014572D01*
X008962Y014581D01*
X008953Y014592D01*
X008947Y014606D01*
X008945Y014621D01*
X005439Y007370D02*
X004809Y007370D01*
X004888Y006897D02*
X004888Y005165D01*
X005439Y005165D01*
X005439Y004693D01*
X004809Y004693D01*
X003746Y004693D02*
X003746Y007370D01*
X004888Y006897D02*
X005439Y006897D01*
X005439Y007370D01*
X007667Y005721D02*
X008967Y005721D01*
X008967Y003141D01*
X007667Y003141D01*
X007667Y005721D01*
X008227Y005072D02*
X008297Y005072D01*
X008367Y005002D01*
X008437Y005072D01*
X008507Y005072D01*
X008577Y005002D01*
X008577Y004862D01*
X008507Y004792D01*
X008437Y004612D02*
X008157Y004612D01*
X008227Y004792D02*
X008157Y004862D01*
X008157Y005002D01*
X008227Y005072D01*
X008367Y005002D02*
X008367Y004932D01*
X008437Y004612D02*
X008577Y004472D01*
X008437Y004331D01*
X008157Y004331D01*
X008227Y004151D02*
X008297Y004151D01*
X008367Y004081D01*
X008437Y004151D01*
X008507Y004151D01*
X008577Y004081D01*
X008577Y003941D01*
X008507Y003871D01*
X008367Y004011D02*
X008367Y004081D01*
X008227Y004151D02*
X008157Y004081D01*
X008157Y003941D01*
X008227Y003871D01*
D12*
X013019Y016656D02*
X013082Y016720D01*
X013082Y016783D01*
X013019Y016847D01*
X012702Y016847D01*
X012702Y016910D02*
X012702Y016783D01*
X012765Y017485D02*
X012828Y017485D01*
X012892Y017548D01*
X012892Y017675D01*
X012955Y017739D01*
X013019Y017739D01*
X013082Y017675D01*
X013082Y017548D01*
X013019Y017485D01*
X012765Y017485D02*
X012702Y017548D01*
X012702Y017675D01*
X012765Y017739D01*
X012765Y017899D02*
X013019Y017899D01*
X013082Y017963D01*
X013082Y018090D01*
X013019Y018153D01*
X012765Y018153D01*
X012702Y018090D01*
X012702Y017963D01*
X012765Y017899D01*
X012702Y018314D02*
X013082Y018314D01*
X012955Y018441D01*
X013082Y018567D01*
X012702Y018567D01*
X012702Y018728D02*
X012828Y018855D01*
X012702Y018982D01*
X013082Y018982D01*
X013082Y019143D02*
X012828Y019143D01*
X012702Y019269D01*
X012828Y019396D01*
X013082Y019396D01*
X013082Y019557D02*
X012702Y019557D01*
X013082Y019810D01*
X012702Y019810D01*
X012892Y019396D02*
X012892Y019143D01*
X013082Y018728D02*
X012702Y018728D01*
D13*
X016667Y018831D02*
X016667Y018339D01*
X016765Y018240D01*
X016962Y018240D01*
X017060Y018339D01*
X017060Y018831D01*
X017311Y018831D02*
X017311Y018240D01*
X017311Y018437D02*
X017705Y018831D01*
X017956Y018831D02*
X017956Y018240D01*
X017705Y018240D02*
X017410Y018536D01*
X017956Y018536D02*
X018349Y018536D01*
X018600Y018536D02*
X018994Y018536D01*
X018994Y018634D02*
X018797Y018831D01*
X018600Y018634D01*
X018600Y018240D01*
X018349Y018240D02*
X018349Y018831D01*
X018994Y018634D02*
X018994Y018240D01*
X019245Y018339D02*
X019343Y018240D01*
X019540Y018240D01*
X019638Y018339D01*
X019638Y018437D01*
X019540Y018536D01*
X019343Y018536D01*
X019245Y018634D01*
X019245Y018733D01*
X019343Y018831D01*
X019540Y018831D01*
X019638Y018733D01*
X019889Y018634D02*
X020185Y018634D01*
X020283Y018536D01*
X020283Y018240D01*
X020534Y018339D02*
X020534Y018536D01*
X020632Y018634D01*
X020829Y018634D01*
X020928Y018536D01*
X020928Y018437D01*
X020534Y018437D01*
X020534Y018339D02*
X020632Y018240D01*
X020829Y018240D01*
X021277Y018339D02*
X021375Y018240D01*
X021277Y018339D02*
X021277Y018733D01*
X021375Y018634D02*
X021178Y018634D01*
X019889Y018634D02*
X019889Y018240D01*
X020408Y015190D02*
X020408Y014796D01*
X020408Y014993D02*
X020998Y014993D01*
X021408Y015091D02*
X021408Y014796D01*
X021998Y014796D01*
X021998Y015091D01*
X021900Y015190D01*
X021506Y015190D01*
X021408Y015091D01*
X021408Y014545D02*
X021998Y014545D01*
X021408Y014151D01*
X021998Y014151D01*
X021900Y013900D02*
X021703Y013900D01*
X021703Y013704D01*
X021900Y013900D02*
X021998Y013802D01*
X021998Y013605D01*
X021900Y013507D01*
X021506Y013507D01*
X021408Y013605D01*
X021408Y013802D01*
X021506Y013900D01*
X020998Y013802D02*
X020998Y013507D01*
X020408Y013507D01*
X020408Y013802D01*
X020506Y013900D01*
X020900Y013900D01*
X020998Y013802D01*
X020998Y014151D02*
X020604Y014151D01*
X020408Y014348D01*
X020604Y014545D01*
X020998Y014545D01*
X020703Y014545D02*
X020703Y014151D01*
X022408Y014151D02*
X022801Y014151D01*
X022998Y014348D01*
X022801Y014545D01*
X022408Y014545D01*
X022506Y014796D02*
X022408Y014894D01*
X022408Y015091D01*
X022506Y015190D01*
X022900Y014796D01*
X022998Y014894D01*
X022998Y015091D01*
X022900Y015190D01*
X022506Y015190D01*
X022506Y014796D02*
X022900Y014796D01*
X022900Y013900D02*
X022998Y013802D01*
X022998Y013605D01*
X022900Y013507D01*
X022703Y013704D02*
X022703Y013802D01*
X022801Y013900D01*
X022900Y013900D01*
X022703Y013802D02*
X022604Y013900D01*
X022506Y013900D01*
X022408Y013802D01*
X022408Y013605D01*
X022506Y013507D01*
X019862Y008035D02*
X019271Y008035D01*
X019271Y007642D02*
X019862Y008035D01*
X019862Y007642D02*
X019271Y007642D01*
X019468Y007391D02*
X019862Y007391D01*
X019567Y007391D02*
X019567Y006997D01*
X019468Y006997D02*
X019271Y007194D01*
X019468Y007391D01*
X019468Y006997D02*
X019862Y006997D01*
X019862Y006746D02*
X019271Y006746D01*
X019468Y006549D01*
X019271Y006352D01*
X019862Y006352D01*
X019862Y006102D02*
X019271Y006102D01*
X019665Y005905D02*
X019862Y006102D01*
X019665Y005905D02*
X019862Y005708D01*
X019271Y005708D01*
X019370Y005457D02*
X019271Y005359D01*
X019271Y005162D01*
X019370Y005063D01*
X019763Y005063D01*
X019862Y005162D01*
X019862Y005359D01*
X019763Y005457D01*
X019370Y005457D01*
X019370Y004812D02*
X019271Y004714D01*
X019271Y004517D01*
X019370Y004419D01*
X019468Y004419D01*
X019567Y004517D01*
X019567Y004714D01*
X019665Y004812D01*
X019763Y004812D01*
X019862Y004714D01*
X019862Y004517D01*
X019763Y004419D01*
X019862Y003523D02*
X019271Y003523D01*
X019271Y003130D02*
X019862Y003523D01*
X019862Y003130D02*
X019271Y003130D01*
X019370Y002879D02*
X019271Y002780D01*
X019271Y002584D01*
X019370Y002485D01*
X019763Y002485D01*
X019862Y002584D01*
X019862Y002780D01*
X019763Y002879D01*
X019370Y002879D01*
X019271Y002234D02*
X019271Y002037D01*
X019271Y002136D02*
X019763Y002136D01*
X019862Y002037D01*
X019862Y001939D01*
X019763Y001841D01*
X018121Y003485D02*
X018023Y003386D01*
X017826Y003386D01*
X017727Y003485D01*
X017727Y003681D02*
X017924Y003780D01*
X018023Y003780D01*
X018121Y003681D01*
X018121Y003485D01*
X017727Y003681D02*
X017727Y003977D01*
X018121Y003977D01*
X017476Y003386D02*
X017083Y003386D01*
X017280Y003386D02*
X017280Y003977D01*
X017083Y003780D01*
X016832Y003878D02*
X016832Y003485D01*
X016734Y003386D01*
X016537Y003386D01*
X016438Y003485D01*
X016832Y003878D01*
X016734Y003977D01*
X016537Y003977D01*
X016438Y003878D01*
X016438Y003485D01*
X016187Y003386D02*
X015794Y003386D01*
X016187Y003780D01*
X016187Y003878D01*
X016089Y003977D01*
X015892Y003977D01*
X015794Y003878D01*
X014898Y003878D02*
X014898Y003681D01*
X014800Y003583D01*
X014505Y003583D01*
X014701Y003583D02*
X014898Y003386D01*
X014505Y003386D02*
X014505Y003977D01*
X014800Y003977D01*
X014898Y003878D01*
X014254Y003780D02*
X014254Y003386D01*
X014254Y003681D02*
X013860Y003681D01*
X013860Y003780D02*
X014057Y003977D01*
X014254Y003780D01*
X013860Y003780D02*
X013860Y003386D01*
X013609Y003386D02*
X013609Y003977D01*
X013412Y003780D01*
X013216Y003977D01*
X013216Y003386D01*
X010881Y002080D02*
X010684Y002080D01*
X010782Y002178D02*
X010782Y001785D01*
X010881Y001686D01*
X010433Y001883D02*
X010039Y001883D01*
X010039Y001981D02*
X010138Y002080D01*
X010334Y002080D01*
X010433Y001981D01*
X010433Y001883D01*
X010334Y001686D02*
X010138Y001686D01*
X010039Y001785D01*
X010039Y001981D01*
X009788Y001981D02*
X009788Y001686D01*
X009788Y001981D02*
X009690Y002080D01*
X009395Y002080D01*
X009395Y001686D01*
X009144Y001785D02*
X009144Y001883D01*
X009045Y001981D01*
X008849Y001981D01*
X008750Y002080D01*
X008750Y002178D01*
X008849Y002277D01*
X009045Y002277D01*
X009144Y002178D01*
X009144Y001785D02*
X009045Y001686D01*
X008849Y001686D01*
X008750Y001785D01*
X008499Y001686D02*
X008499Y002080D01*
X008302Y002277D01*
X008106Y002080D01*
X008106Y001686D01*
X007855Y001686D02*
X007855Y002277D01*
X007855Y001981D02*
X007461Y001981D01*
X007461Y001686D02*
X007461Y002277D01*
X007210Y002277D02*
X006816Y001883D01*
X006915Y001981D02*
X007210Y001686D01*
X006816Y001686D02*
X006816Y002277D01*
X006566Y002277D02*
X006566Y001785D01*
X006467Y001686D01*
X006270Y001686D01*
X006172Y001785D01*
X006172Y002277D01*
X008106Y001981D02*
X008499Y001981D01*
X012470Y008786D02*
X012667Y008786D01*
X012766Y008885D01*
X012766Y009278D01*
X012667Y009377D01*
X012470Y009377D01*
X012372Y009278D01*
X012372Y008885D01*
X012470Y008786D01*
X013016Y008786D02*
X013016Y009377D01*
X013016Y008786D02*
X013410Y008786D01*
X013661Y008786D02*
X014055Y008786D01*
X014306Y008786D02*
X014601Y008786D01*
X014699Y008885D01*
X014699Y009278D01*
X014601Y009377D01*
X014306Y009377D01*
X014306Y008786D01*
X013858Y009081D02*
X013661Y009081D01*
X013661Y008786D02*
X013661Y009377D01*
X014055Y009377D01*
D14*
X011863Y008730D02*
X009371Y008730D01*
X009371Y006932D01*
X011863Y006932D01*
X011863Y008730D01*
X009541Y007351D02*
X009543Y007377D01*
X009549Y007403D01*
X009558Y007427D01*
X009571Y007450D01*
X009587Y007471D01*
X009606Y007489D01*
X009627Y007505D01*
X009651Y007517D01*
X009675Y007525D01*
X009701Y007530D01*
X009728Y007531D01*
X009754Y007528D01*
X009779Y007521D01*
X009803Y007511D01*
X009826Y007497D01*
X009846Y007481D01*
X009863Y007461D01*
X009878Y007439D01*
X009889Y007415D01*
X009897Y007390D01*
X009901Y007364D01*
X009901Y007338D01*
X009897Y007312D01*
X009889Y007287D01*
X009878Y007263D01*
X009863Y007241D01*
X009846Y007221D01*
X009826Y007205D01*
X009803Y007191D01*
X009779Y007181D01*
X009754Y007174D01*
X009728Y007171D01*
X009701Y007172D01*
X009675Y007177D01*
X009651Y007185D01*
X009627Y007197D01*
X009606Y007213D01*
X009587Y007231D01*
X009571Y007252D01*
X009558Y007275D01*
X009549Y007299D01*
X009543Y007325D01*
X009541Y007351D01*
X009057Y012606D02*
X010477Y012606D01*
X010477Y014466D02*
X009057Y014466D01*
X007727Y013855D02*
X007690Y013855D01*
X007727Y013855D02*
X007727Y013217D01*
X007690Y013217D01*
X007372Y013217D02*
X006961Y013217D01*
X006644Y013217D02*
X006607Y013217D01*
X006607Y013855D01*
X006644Y013855D01*
X006961Y013855D02*
X006998Y013855D01*
X007335Y013855D02*
X007372Y013855D01*
X005874Y015876D02*
X005259Y015876D01*
X005259Y016996D02*
X005874Y016996D01*
X004136Y019109D02*
X004136Y019403D01*
X003989Y019256D02*
X004282Y019256D01*
X004136Y019896D02*
X004136Y020190D01*
X017043Y017415D02*
X018463Y017415D01*
X018463Y015556D02*
X017043Y015556D01*
D15*
X005370Y016889D03*
D16*
X005264Y018555D02*
X005067Y018555D01*
X004673Y018752D02*
X006051Y018752D01*
X006051Y019736D01*
X005854Y019736D01*
X006051Y019736D02*
X006051Y020720D01*
X004673Y020720D01*
X004673Y019933D01*
X004476Y019933D01*
X004476Y020917D01*
X006248Y020917D01*
X006248Y018555D01*
X004476Y018555D01*
X004476Y019539D01*
X004673Y019539D01*
X004673Y018752D01*
X004183Y015220D02*
X004183Y015142D01*
X004183Y015220D02*
X006151Y015220D01*
X006151Y015142D01*
X006151Y013331D02*
X006151Y013252D01*
X004183Y013252D01*
X004183Y013331D01*
X006128Y010371D02*
X007506Y010371D01*
X007506Y007691D02*
X006128Y007691D01*
D17*
X009461Y007022D02*
X009461Y008640D01*
X011773Y008640D01*
X011773Y007022D01*
X009461Y007022D01*
D18*
X007717Y007531D02*
X007719Y007551D01*
X007725Y007569D01*
X007734Y007587D01*
X007746Y007602D01*
X007761Y007614D01*
X007779Y007623D01*
X007797Y007629D01*
X007817Y007631D01*
X007837Y007629D01*
X007855Y007623D01*
X007873Y007614D01*
X007888Y007602D01*
X007900Y007587D01*
X007909Y007569D01*
X007915Y007551D01*
X007917Y007531D01*
X007915Y007511D01*
X007909Y007493D01*
X007900Y007475D01*
X007888Y007460D01*
X007873Y007448D01*
X007855Y007439D01*
X007837Y007433D01*
X007817Y007431D01*
X007797Y007433D01*
X007779Y007439D01*
X007761Y007448D01*
X007746Y007460D01*
X007734Y007475D01*
X007725Y007493D01*
X007719Y007511D01*
X007717Y007531D01*
M02*
