G75*
%MOIN*%
%OFA0B0*%
%FSLAX24Y24*%
%IPPOS*%
%LPD*%
%AMOC8*
5,1,8,0,0,1.08239X$1,22.5*
%
%ADD10C,0.0000*%
%ADD11OC8,0.0740*%
%ADD12OC8,0.0515*%
%ADD13R,0.0860X0.0420*%
%ADD14C,0.0740*%
%ADD15R,0.0600X0.1600*%
%ADD16R,0.1600X0.0600*%
%ADD17R,0.0500X0.0250*%
%ADD18C,0.0100*%
%ADD19C,0.0270*%
%ADD20C,0.0250*%
%ADD21C,0.0500*%
%ADD22C,0.0320*%
%ADD23C,0.0160*%
%ADD24C,0.0300*%
%ADD25C,0.0420*%
D10*
X003717Y001725D02*
X003717Y010398D01*
X003719Y010437D01*
X003725Y010475D01*
X003734Y010512D01*
X003747Y010549D01*
X003764Y010584D01*
X003783Y010617D01*
X003806Y010648D01*
X003832Y010677D01*
X003861Y010703D01*
X003892Y010726D01*
X003925Y010745D01*
X003960Y010762D01*
X003997Y010775D01*
X004034Y010784D01*
X004072Y010790D01*
X004111Y010792D01*
X005225Y010792D01*
X005225Y010791D02*
X005264Y010793D01*
X005302Y010799D01*
X005339Y010808D01*
X005376Y010821D01*
X005411Y010838D01*
X005444Y010857D01*
X005475Y010880D01*
X005504Y010906D01*
X005530Y010935D01*
X005553Y010966D01*
X005572Y010999D01*
X005589Y011034D01*
X005602Y011071D01*
X005611Y011108D01*
X005617Y011146D01*
X005619Y011185D01*
X005618Y011185D02*
X005618Y011264D01*
X005619Y011342D01*
X005776Y011579D02*
X005778Y011604D01*
X005784Y011628D01*
X005793Y011650D01*
X005806Y011671D01*
X005822Y011690D01*
X005841Y011706D01*
X005862Y011719D01*
X005884Y011728D01*
X005908Y011734D01*
X005933Y011736D01*
X005958Y011734D01*
X005982Y011728D01*
X006004Y011719D01*
X006025Y011706D01*
X006044Y011690D01*
X006060Y011671D01*
X006073Y011650D01*
X006082Y011628D01*
X006088Y011604D01*
X006090Y011579D01*
X006088Y011554D01*
X006082Y011530D01*
X006073Y011508D01*
X006060Y011487D01*
X006044Y011468D01*
X006025Y011452D01*
X006004Y011439D01*
X005982Y011430D01*
X005958Y011424D01*
X005933Y011422D01*
X005908Y011424D01*
X005884Y011430D01*
X005862Y011439D01*
X005841Y011452D01*
X005822Y011468D01*
X005806Y011487D01*
X005793Y011508D01*
X005784Y011530D01*
X005778Y011554D01*
X005776Y011579D01*
X005225Y011736D02*
X004161Y011736D01*
X004122Y011738D01*
X004084Y011744D01*
X004047Y011753D01*
X004010Y011766D01*
X003975Y011783D01*
X003942Y011802D01*
X003911Y011825D01*
X003882Y011851D01*
X003856Y011880D01*
X003833Y011911D01*
X003814Y011944D01*
X003797Y011979D01*
X003784Y012016D01*
X003775Y012053D01*
X003769Y012091D01*
X003767Y012130D01*
X003767Y020791D01*
X003769Y020830D01*
X003775Y020868D01*
X003784Y020905D01*
X003797Y020942D01*
X003814Y020977D01*
X003833Y021010D01*
X003856Y021041D01*
X003882Y021070D01*
X003911Y021096D01*
X003942Y021119D01*
X003975Y021138D01*
X004010Y021155D01*
X004047Y021168D01*
X004084Y021177D01*
X004122Y021183D01*
X004161Y021185D01*
X013216Y021185D01*
X013254Y021183D01*
X013293Y021177D01*
X013330Y021168D01*
X013366Y021155D01*
X013401Y021139D01*
X013435Y021119D01*
X013466Y021096D01*
X013494Y021070D01*
X013520Y021041D01*
X013543Y021010D01*
X013563Y020977D01*
X013580Y020942D01*
X013593Y020906D01*
X013602Y020869D01*
X013608Y020831D01*
X013610Y020792D01*
X013609Y020792D02*
X013611Y017017D01*
X013495Y016739D02*
X012939Y016183D01*
X012823Y015904D02*
X012823Y015004D01*
X012822Y012130D01*
X012822Y012129D02*
X012820Y012091D01*
X012814Y012053D01*
X012804Y012016D01*
X012791Y011979D01*
X012775Y011944D01*
X012755Y011911D01*
X012732Y011881D01*
X012706Y011852D01*
X012677Y011826D01*
X012647Y011803D01*
X012613Y011783D01*
X012579Y011767D01*
X012542Y011754D01*
X012505Y011744D01*
X012467Y011738D01*
X012428Y011736D01*
X009949Y011737D01*
X009910Y011735D01*
X009872Y011729D01*
X009835Y011720D01*
X009798Y011707D01*
X009763Y011690D01*
X009730Y011671D01*
X009699Y011648D01*
X009670Y011622D01*
X009644Y011593D01*
X009621Y011562D01*
X009602Y011529D01*
X009585Y011494D01*
X009572Y011457D01*
X009563Y011420D01*
X009557Y011382D01*
X009555Y011343D01*
X009555Y011225D01*
X009555Y011185D01*
X009084Y010949D02*
X009086Y010974D01*
X009092Y010998D01*
X009101Y011020D01*
X009114Y011041D01*
X009130Y011060D01*
X009149Y011076D01*
X009170Y011089D01*
X009192Y011098D01*
X009216Y011104D01*
X009241Y011106D01*
X009266Y011104D01*
X009290Y011098D01*
X009312Y011089D01*
X009333Y011076D01*
X009352Y011060D01*
X009368Y011041D01*
X009381Y011020D01*
X009390Y010998D01*
X009396Y010974D01*
X009398Y010949D01*
X009396Y010924D01*
X009390Y010900D01*
X009381Y010878D01*
X009368Y010857D01*
X009352Y010838D01*
X009333Y010822D01*
X009312Y010809D01*
X009290Y010800D01*
X009266Y010794D01*
X009241Y010792D01*
X009216Y010794D01*
X009192Y010800D01*
X009170Y010809D01*
X009149Y010822D01*
X009130Y010838D01*
X009114Y010857D01*
X009101Y010878D01*
X009092Y010900D01*
X009086Y010924D01*
X009084Y010949D01*
X008611Y010949D02*
X008613Y010974D01*
X008619Y010998D01*
X008628Y011020D01*
X008641Y011041D01*
X008657Y011060D01*
X008676Y011076D01*
X008697Y011089D01*
X008719Y011098D01*
X008743Y011104D01*
X008768Y011106D01*
X008793Y011104D01*
X008817Y011098D01*
X008839Y011089D01*
X008860Y011076D01*
X008879Y011060D01*
X008895Y011041D01*
X008908Y011020D01*
X008917Y010998D01*
X008923Y010974D01*
X008925Y010949D01*
X008923Y010924D01*
X008917Y010900D01*
X008908Y010878D01*
X008895Y010857D01*
X008879Y010838D01*
X008860Y010822D01*
X008839Y010809D01*
X008817Y010800D01*
X008793Y010794D01*
X008768Y010792D01*
X008743Y010794D01*
X008719Y010800D01*
X008697Y010809D01*
X008676Y010822D01*
X008657Y010838D01*
X008641Y010857D01*
X008628Y010878D01*
X008619Y010900D01*
X008613Y010924D01*
X008611Y010949D01*
X008139Y010949D02*
X008141Y010974D01*
X008147Y010998D01*
X008156Y011020D01*
X008169Y011041D01*
X008185Y011060D01*
X008204Y011076D01*
X008225Y011089D01*
X008247Y011098D01*
X008271Y011104D01*
X008296Y011106D01*
X008321Y011104D01*
X008345Y011098D01*
X008367Y011089D01*
X008388Y011076D01*
X008407Y011060D01*
X008423Y011041D01*
X008436Y011020D01*
X008445Y010998D01*
X008451Y010974D01*
X008453Y010949D01*
X008451Y010924D01*
X008445Y010900D01*
X008436Y010878D01*
X008423Y010857D01*
X008407Y010838D01*
X008388Y010822D01*
X008367Y010809D01*
X008345Y010800D01*
X008321Y010794D01*
X008296Y010792D01*
X008271Y010794D01*
X008247Y010800D01*
X008225Y010809D01*
X008204Y010822D01*
X008185Y010838D01*
X008169Y010857D01*
X008156Y010878D01*
X008147Y010900D01*
X008141Y010924D01*
X008139Y010949D01*
X007666Y010949D02*
X007668Y010974D01*
X007674Y010998D01*
X007683Y011020D01*
X007696Y011041D01*
X007712Y011060D01*
X007731Y011076D01*
X007752Y011089D01*
X007774Y011098D01*
X007798Y011104D01*
X007823Y011106D01*
X007848Y011104D01*
X007872Y011098D01*
X007894Y011089D01*
X007915Y011076D01*
X007934Y011060D01*
X007950Y011041D01*
X007963Y011020D01*
X007972Y010998D01*
X007978Y010974D01*
X007980Y010949D01*
X007978Y010924D01*
X007972Y010900D01*
X007963Y010878D01*
X007950Y010857D01*
X007934Y010838D01*
X007915Y010822D01*
X007894Y010809D01*
X007872Y010800D01*
X007848Y010794D01*
X007823Y010792D01*
X007798Y010794D01*
X007774Y010800D01*
X007752Y010809D01*
X007731Y010822D01*
X007712Y010838D01*
X007696Y010857D01*
X007683Y010878D01*
X007674Y010900D01*
X007668Y010924D01*
X007666Y010949D01*
X007194Y010949D02*
X007196Y010974D01*
X007202Y010998D01*
X007211Y011020D01*
X007224Y011041D01*
X007240Y011060D01*
X007259Y011076D01*
X007280Y011089D01*
X007302Y011098D01*
X007326Y011104D01*
X007351Y011106D01*
X007376Y011104D01*
X007400Y011098D01*
X007422Y011089D01*
X007443Y011076D01*
X007462Y011060D01*
X007478Y011041D01*
X007491Y011020D01*
X007500Y010998D01*
X007506Y010974D01*
X007508Y010949D01*
X007506Y010924D01*
X007500Y010900D01*
X007491Y010878D01*
X007478Y010857D01*
X007462Y010838D01*
X007443Y010822D01*
X007422Y010809D01*
X007400Y010800D01*
X007376Y010794D01*
X007351Y010792D01*
X007326Y010794D01*
X007302Y010800D01*
X007280Y010809D01*
X007259Y010822D01*
X007240Y010838D01*
X007224Y010857D01*
X007211Y010878D01*
X007202Y010900D01*
X007196Y010924D01*
X007194Y010949D01*
X006721Y010949D02*
X006723Y010974D01*
X006729Y010998D01*
X006738Y011020D01*
X006751Y011041D01*
X006767Y011060D01*
X006786Y011076D01*
X006807Y011089D01*
X006829Y011098D01*
X006853Y011104D01*
X006878Y011106D01*
X006903Y011104D01*
X006927Y011098D01*
X006949Y011089D01*
X006970Y011076D01*
X006989Y011060D01*
X007005Y011041D01*
X007018Y011020D01*
X007027Y010998D01*
X007033Y010974D01*
X007035Y010949D01*
X007033Y010924D01*
X007027Y010900D01*
X007018Y010878D01*
X007005Y010857D01*
X006989Y010838D01*
X006970Y010822D01*
X006949Y010809D01*
X006927Y010800D01*
X006903Y010794D01*
X006878Y010792D01*
X006853Y010794D01*
X006829Y010800D01*
X006807Y010809D01*
X006786Y010822D01*
X006767Y010838D01*
X006751Y010857D01*
X006738Y010878D01*
X006729Y010900D01*
X006723Y010924D01*
X006721Y010949D01*
X006249Y010949D02*
X006251Y010974D01*
X006257Y010998D01*
X006266Y011020D01*
X006279Y011041D01*
X006295Y011060D01*
X006314Y011076D01*
X006335Y011089D01*
X006357Y011098D01*
X006381Y011104D01*
X006406Y011106D01*
X006431Y011104D01*
X006455Y011098D01*
X006477Y011089D01*
X006498Y011076D01*
X006517Y011060D01*
X006533Y011041D01*
X006546Y011020D01*
X006555Y010998D01*
X006561Y010974D01*
X006563Y010949D01*
X006561Y010924D01*
X006555Y010900D01*
X006546Y010878D01*
X006533Y010857D01*
X006517Y010838D01*
X006498Y010822D01*
X006477Y010809D01*
X006455Y010800D01*
X006431Y010794D01*
X006406Y010792D01*
X006381Y010794D01*
X006357Y010800D01*
X006335Y010809D01*
X006314Y010822D01*
X006295Y010838D01*
X006279Y010857D01*
X006266Y010878D01*
X006257Y010900D01*
X006251Y010924D01*
X006249Y010949D01*
X005776Y010949D02*
X005778Y010974D01*
X005784Y010998D01*
X005793Y011020D01*
X005806Y011041D01*
X005822Y011060D01*
X005841Y011076D01*
X005862Y011089D01*
X005884Y011098D01*
X005908Y011104D01*
X005933Y011106D01*
X005958Y011104D01*
X005982Y011098D01*
X006004Y011089D01*
X006025Y011076D01*
X006044Y011060D01*
X006060Y011041D01*
X006073Y011020D01*
X006082Y010998D01*
X006088Y010974D01*
X006090Y010949D01*
X006088Y010924D01*
X006082Y010900D01*
X006073Y010878D01*
X006060Y010857D01*
X006044Y010838D01*
X006025Y010822D01*
X006004Y010809D01*
X005982Y010800D01*
X005958Y010794D01*
X005933Y010792D01*
X005908Y010794D01*
X005884Y010800D01*
X005862Y010809D01*
X005841Y010822D01*
X005822Y010838D01*
X005806Y010857D01*
X005793Y010878D01*
X005784Y010900D01*
X005778Y010924D01*
X005776Y010949D01*
X005619Y011343D02*
X005617Y011381D01*
X005611Y011420D01*
X005602Y011457D01*
X005589Y011494D01*
X005573Y011529D01*
X005553Y011562D01*
X005530Y011593D01*
X005504Y011622D01*
X005475Y011648D01*
X005444Y011671D01*
X005411Y011690D01*
X005376Y011707D01*
X005339Y011720D01*
X005302Y011729D01*
X005264Y011735D01*
X005225Y011737D01*
X006249Y011579D02*
X006251Y011604D01*
X006257Y011628D01*
X006266Y011650D01*
X006279Y011671D01*
X006295Y011690D01*
X006314Y011706D01*
X006335Y011719D01*
X006357Y011728D01*
X006381Y011734D01*
X006406Y011736D01*
X006431Y011734D01*
X006455Y011728D01*
X006477Y011719D01*
X006498Y011706D01*
X006517Y011690D01*
X006533Y011671D01*
X006546Y011650D01*
X006555Y011628D01*
X006561Y011604D01*
X006563Y011579D01*
X006561Y011554D01*
X006555Y011530D01*
X006546Y011508D01*
X006533Y011487D01*
X006517Y011468D01*
X006498Y011452D01*
X006477Y011439D01*
X006455Y011430D01*
X006431Y011424D01*
X006406Y011422D01*
X006381Y011424D01*
X006357Y011430D01*
X006335Y011439D01*
X006314Y011452D01*
X006295Y011468D01*
X006279Y011487D01*
X006266Y011508D01*
X006257Y011530D01*
X006251Y011554D01*
X006249Y011579D01*
X006721Y011579D02*
X006723Y011604D01*
X006729Y011628D01*
X006738Y011650D01*
X006751Y011671D01*
X006767Y011690D01*
X006786Y011706D01*
X006807Y011719D01*
X006829Y011728D01*
X006853Y011734D01*
X006878Y011736D01*
X006903Y011734D01*
X006927Y011728D01*
X006949Y011719D01*
X006970Y011706D01*
X006989Y011690D01*
X007005Y011671D01*
X007018Y011650D01*
X007027Y011628D01*
X007033Y011604D01*
X007035Y011579D01*
X007033Y011554D01*
X007027Y011530D01*
X007018Y011508D01*
X007005Y011487D01*
X006989Y011468D01*
X006970Y011452D01*
X006949Y011439D01*
X006927Y011430D01*
X006903Y011424D01*
X006878Y011422D01*
X006853Y011424D01*
X006829Y011430D01*
X006807Y011439D01*
X006786Y011452D01*
X006767Y011468D01*
X006751Y011487D01*
X006738Y011508D01*
X006729Y011530D01*
X006723Y011554D01*
X006721Y011579D01*
X007194Y011579D02*
X007196Y011604D01*
X007202Y011628D01*
X007211Y011650D01*
X007224Y011671D01*
X007240Y011690D01*
X007259Y011706D01*
X007280Y011719D01*
X007302Y011728D01*
X007326Y011734D01*
X007351Y011736D01*
X007376Y011734D01*
X007400Y011728D01*
X007422Y011719D01*
X007443Y011706D01*
X007462Y011690D01*
X007478Y011671D01*
X007491Y011650D01*
X007500Y011628D01*
X007506Y011604D01*
X007508Y011579D01*
X007506Y011554D01*
X007500Y011530D01*
X007491Y011508D01*
X007478Y011487D01*
X007462Y011468D01*
X007443Y011452D01*
X007422Y011439D01*
X007400Y011430D01*
X007376Y011424D01*
X007351Y011422D01*
X007326Y011424D01*
X007302Y011430D01*
X007280Y011439D01*
X007259Y011452D01*
X007240Y011468D01*
X007224Y011487D01*
X007211Y011508D01*
X007202Y011530D01*
X007196Y011554D01*
X007194Y011579D01*
X007666Y011579D02*
X007668Y011604D01*
X007674Y011628D01*
X007683Y011650D01*
X007696Y011671D01*
X007712Y011690D01*
X007731Y011706D01*
X007752Y011719D01*
X007774Y011728D01*
X007798Y011734D01*
X007823Y011736D01*
X007848Y011734D01*
X007872Y011728D01*
X007894Y011719D01*
X007915Y011706D01*
X007934Y011690D01*
X007950Y011671D01*
X007963Y011650D01*
X007972Y011628D01*
X007978Y011604D01*
X007980Y011579D01*
X007978Y011554D01*
X007972Y011530D01*
X007963Y011508D01*
X007950Y011487D01*
X007934Y011468D01*
X007915Y011452D01*
X007894Y011439D01*
X007872Y011430D01*
X007848Y011424D01*
X007823Y011422D01*
X007798Y011424D01*
X007774Y011430D01*
X007752Y011439D01*
X007731Y011452D01*
X007712Y011468D01*
X007696Y011487D01*
X007683Y011508D01*
X007674Y011530D01*
X007668Y011554D01*
X007666Y011579D01*
X008139Y011579D02*
X008141Y011604D01*
X008147Y011628D01*
X008156Y011650D01*
X008169Y011671D01*
X008185Y011690D01*
X008204Y011706D01*
X008225Y011719D01*
X008247Y011728D01*
X008271Y011734D01*
X008296Y011736D01*
X008321Y011734D01*
X008345Y011728D01*
X008367Y011719D01*
X008388Y011706D01*
X008407Y011690D01*
X008423Y011671D01*
X008436Y011650D01*
X008445Y011628D01*
X008451Y011604D01*
X008453Y011579D01*
X008451Y011554D01*
X008445Y011530D01*
X008436Y011508D01*
X008423Y011487D01*
X008407Y011468D01*
X008388Y011452D01*
X008367Y011439D01*
X008345Y011430D01*
X008321Y011424D01*
X008296Y011422D01*
X008271Y011424D01*
X008247Y011430D01*
X008225Y011439D01*
X008204Y011452D01*
X008185Y011468D01*
X008169Y011487D01*
X008156Y011508D01*
X008147Y011530D01*
X008141Y011554D01*
X008139Y011579D01*
X008611Y011579D02*
X008613Y011604D01*
X008619Y011628D01*
X008628Y011650D01*
X008641Y011671D01*
X008657Y011690D01*
X008676Y011706D01*
X008697Y011719D01*
X008719Y011728D01*
X008743Y011734D01*
X008768Y011736D01*
X008793Y011734D01*
X008817Y011728D01*
X008839Y011719D01*
X008860Y011706D01*
X008879Y011690D01*
X008895Y011671D01*
X008908Y011650D01*
X008917Y011628D01*
X008923Y011604D01*
X008925Y011579D01*
X008923Y011554D01*
X008917Y011530D01*
X008908Y011508D01*
X008895Y011487D01*
X008879Y011468D01*
X008860Y011452D01*
X008839Y011439D01*
X008817Y011430D01*
X008793Y011424D01*
X008768Y011422D01*
X008743Y011424D01*
X008719Y011430D01*
X008697Y011439D01*
X008676Y011452D01*
X008657Y011468D01*
X008641Y011487D01*
X008628Y011508D01*
X008619Y011530D01*
X008613Y011554D01*
X008611Y011579D01*
X009084Y011579D02*
X009086Y011604D01*
X009092Y011628D01*
X009101Y011650D01*
X009114Y011671D01*
X009130Y011690D01*
X009149Y011706D01*
X009170Y011719D01*
X009192Y011728D01*
X009216Y011734D01*
X009241Y011736D01*
X009266Y011734D01*
X009290Y011728D01*
X009312Y011719D01*
X009333Y011706D01*
X009352Y011690D01*
X009368Y011671D01*
X009381Y011650D01*
X009390Y011628D01*
X009396Y011604D01*
X009398Y011579D01*
X009396Y011554D01*
X009390Y011530D01*
X009381Y011508D01*
X009368Y011487D01*
X009352Y011468D01*
X009333Y011452D01*
X009312Y011439D01*
X009290Y011430D01*
X009266Y011424D01*
X009241Y011422D01*
X009216Y011424D01*
X009192Y011430D01*
X009170Y011439D01*
X009149Y011452D01*
X009130Y011468D01*
X009114Y011487D01*
X009101Y011508D01*
X009092Y011530D01*
X009086Y011554D01*
X009084Y011579D01*
X009555Y011185D02*
X009557Y011146D01*
X009563Y011108D01*
X009572Y011071D01*
X009585Y011034D01*
X009602Y010999D01*
X009621Y010966D01*
X009644Y010935D01*
X009670Y010906D01*
X009699Y010880D01*
X009730Y010857D01*
X009763Y010838D01*
X009798Y010821D01*
X009835Y010808D01*
X009872Y010799D01*
X009910Y010793D01*
X009949Y010791D01*
X009949Y010792D02*
X016642Y010792D01*
X016642Y010791D02*
X016681Y010793D01*
X016719Y010799D01*
X016756Y010808D01*
X016793Y010821D01*
X016828Y010838D01*
X016861Y010857D01*
X016892Y010880D01*
X016921Y010906D01*
X016947Y010935D01*
X016970Y010966D01*
X016989Y010999D01*
X017006Y011034D01*
X017019Y011071D01*
X017028Y011108D01*
X017034Y011146D01*
X017036Y011185D01*
X017036Y011225D01*
X017036Y011304D01*
X017036Y011343D01*
X017034Y011382D01*
X017028Y011420D01*
X017019Y011457D01*
X017006Y011494D01*
X016989Y011529D01*
X016970Y011562D01*
X016947Y011593D01*
X016921Y011622D01*
X016892Y011648D01*
X016861Y011671D01*
X016828Y011690D01*
X016793Y011707D01*
X016756Y011720D01*
X016719Y011729D01*
X016681Y011735D01*
X016642Y011737D01*
X014004Y011737D01*
X014004Y011736D02*
X013965Y011738D01*
X013927Y011744D01*
X013890Y011753D01*
X013853Y011766D01*
X013818Y011783D01*
X013785Y011802D01*
X013754Y011825D01*
X013725Y011851D01*
X013699Y011880D01*
X013676Y011911D01*
X013657Y011944D01*
X013640Y011979D01*
X013627Y012016D01*
X013618Y012053D01*
X013612Y012091D01*
X013610Y012130D01*
X013611Y012130D02*
X013611Y015904D01*
X013610Y015904D02*
X013612Y015943D01*
X013618Y015981D01*
X013627Y016018D01*
X013640Y016055D01*
X013657Y016090D01*
X013676Y016123D01*
X013699Y016154D01*
X013725Y016183D01*
X013726Y016183D02*
X014283Y016739D01*
X014398Y017018D02*
X014398Y020792D01*
X014400Y020831D01*
X014406Y020869D01*
X014415Y020906D01*
X014428Y020943D01*
X014445Y020978D01*
X014464Y021011D01*
X014487Y021042D01*
X014513Y021071D01*
X014542Y021097D01*
X014573Y021120D01*
X014606Y021139D01*
X014641Y021156D01*
X014678Y021169D01*
X014715Y021178D01*
X014753Y021184D01*
X014792Y021186D01*
X014792Y021185D02*
X023059Y021185D01*
X023059Y021186D02*
X023098Y021184D01*
X023136Y021178D01*
X023173Y021169D01*
X023210Y021156D01*
X023245Y021139D01*
X023278Y021120D01*
X023309Y021097D01*
X023338Y021071D01*
X023364Y021042D01*
X023387Y021011D01*
X023406Y020978D01*
X023423Y020943D01*
X023436Y020906D01*
X023445Y020869D01*
X023451Y020831D01*
X023453Y020792D01*
X023453Y012130D01*
X023451Y012091D01*
X023445Y012053D01*
X023436Y012016D01*
X023423Y011979D01*
X023406Y011944D01*
X023387Y011911D01*
X023364Y011880D01*
X023338Y011851D01*
X023309Y011825D01*
X023278Y011802D01*
X023245Y011783D01*
X023210Y011766D01*
X023173Y011753D01*
X023136Y011744D01*
X023098Y011738D01*
X023059Y011736D01*
X023059Y011737D02*
X021367Y011737D01*
X021328Y011735D01*
X021290Y011729D01*
X021253Y011720D01*
X021216Y011707D01*
X021181Y011690D01*
X021148Y011671D01*
X021117Y011648D01*
X021088Y011622D01*
X021062Y011593D01*
X021039Y011562D01*
X021020Y011529D01*
X021003Y011494D01*
X020990Y011457D01*
X020981Y011420D01*
X020975Y011382D01*
X020973Y011343D01*
X020973Y011304D01*
X020973Y011185D01*
X020501Y010949D02*
X020503Y010974D01*
X020509Y010998D01*
X020518Y011020D01*
X020531Y011041D01*
X020547Y011060D01*
X020566Y011076D01*
X020587Y011089D01*
X020609Y011098D01*
X020633Y011104D01*
X020658Y011106D01*
X020683Y011104D01*
X020707Y011098D01*
X020729Y011089D01*
X020750Y011076D01*
X020769Y011060D01*
X020785Y011041D01*
X020798Y011020D01*
X020807Y010998D01*
X020813Y010974D01*
X020815Y010949D01*
X020813Y010924D01*
X020807Y010900D01*
X020798Y010878D01*
X020785Y010857D01*
X020769Y010838D01*
X020750Y010822D01*
X020729Y010809D01*
X020707Y010800D01*
X020683Y010794D01*
X020658Y010792D01*
X020633Y010794D01*
X020609Y010800D01*
X020587Y010809D01*
X020566Y010822D01*
X020547Y010838D01*
X020531Y010857D01*
X020518Y010878D01*
X020509Y010900D01*
X020503Y010924D01*
X020501Y010949D01*
X020028Y010949D02*
X020030Y010974D01*
X020036Y010998D01*
X020045Y011020D01*
X020058Y011041D01*
X020074Y011060D01*
X020093Y011076D01*
X020114Y011089D01*
X020136Y011098D01*
X020160Y011104D01*
X020185Y011106D01*
X020210Y011104D01*
X020234Y011098D01*
X020256Y011089D01*
X020277Y011076D01*
X020296Y011060D01*
X020312Y011041D01*
X020325Y011020D01*
X020334Y010998D01*
X020340Y010974D01*
X020342Y010949D01*
X020340Y010924D01*
X020334Y010900D01*
X020325Y010878D01*
X020312Y010857D01*
X020296Y010838D01*
X020277Y010822D01*
X020256Y010809D01*
X020234Y010800D01*
X020210Y010794D01*
X020185Y010792D01*
X020160Y010794D01*
X020136Y010800D01*
X020114Y010809D01*
X020093Y010822D01*
X020074Y010838D01*
X020058Y010857D01*
X020045Y010878D01*
X020036Y010900D01*
X020030Y010924D01*
X020028Y010949D01*
X019556Y010949D02*
X019558Y010974D01*
X019564Y010998D01*
X019573Y011020D01*
X019586Y011041D01*
X019602Y011060D01*
X019621Y011076D01*
X019642Y011089D01*
X019664Y011098D01*
X019688Y011104D01*
X019713Y011106D01*
X019738Y011104D01*
X019762Y011098D01*
X019784Y011089D01*
X019805Y011076D01*
X019824Y011060D01*
X019840Y011041D01*
X019853Y011020D01*
X019862Y010998D01*
X019868Y010974D01*
X019870Y010949D01*
X019868Y010924D01*
X019862Y010900D01*
X019853Y010878D01*
X019840Y010857D01*
X019824Y010838D01*
X019805Y010822D01*
X019784Y010809D01*
X019762Y010800D01*
X019738Y010794D01*
X019713Y010792D01*
X019688Y010794D01*
X019664Y010800D01*
X019642Y010809D01*
X019621Y010822D01*
X019602Y010838D01*
X019586Y010857D01*
X019573Y010878D01*
X019564Y010900D01*
X019558Y010924D01*
X019556Y010949D01*
X019084Y010949D02*
X019086Y010974D01*
X019092Y010998D01*
X019101Y011020D01*
X019114Y011041D01*
X019130Y011060D01*
X019149Y011076D01*
X019170Y011089D01*
X019192Y011098D01*
X019216Y011104D01*
X019241Y011106D01*
X019266Y011104D01*
X019290Y011098D01*
X019312Y011089D01*
X019333Y011076D01*
X019352Y011060D01*
X019368Y011041D01*
X019381Y011020D01*
X019390Y010998D01*
X019396Y010974D01*
X019398Y010949D01*
X019396Y010924D01*
X019390Y010900D01*
X019381Y010878D01*
X019368Y010857D01*
X019352Y010838D01*
X019333Y010822D01*
X019312Y010809D01*
X019290Y010800D01*
X019266Y010794D01*
X019241Y010792D01*
X019216Y010794D01*
X019192Y010800D01*
X019170Y010809D01*
X019149Y010822D01*
X019130Y010838D01*
X019114Y010857D01*
X019101Y010878D01*
X019092Y010900D01*
X019086Y010924D01*
X019084Y010949D01*
X018611Y010949D02*
X018613Y010974D01*
X018619Y010998D01*
X018628Y011020D01*
X018641Y011041D01*
X018657Y011060D01*
X018676Y011076D01*
X018697Y011089D01*
X018719Y011098D01*
X018743Y011104D01*
X018768Y011106D01*
X018793Y011104D01*
X018817Y011098D01*
X018839Y011089D01*
X018860Y011076D01*
X018879Y011060D01*
X018895Y011041D01*
X018908Y011020D01*
X018917Y010998D01*
X018923Y010974D01*
X018925Y010949D01*
X018923Y010924D01*
X018917Y010900D01*
X018908Y010878D01*
X018895Y010857D01*
X018879Y010838D01*
X018860Y010822D01*
X018839Y010809D01*
X018817Y010800D01*
X018793Y010794D01*
X018768Y010792D01*
X018743Y010794D01*
X018719Y010800D01*
X018697Y010809D01*
X018676Y010822D01*
X018657Y010838D01*
X018641Y010857D01*
X018628Y010878D01*
X018619Y010900D01*
X018613Y010924D01*
X018611Y010949D01*
X018139Y010949D02*
X018141Y010974D01*
X018147Y010998D01*
X018156Y011020D01*
X018169Y011041D01*
X018185Y011060D01*
X018204Y011076D01*
X018225Y011089D01*
X018247Y011098D01*
X018271Y011104D01*
X018296Y011106D01*
X018321Y011104D01*
X018345Y011098D01*
X018367Y011089D01*
X018388Y011076D01*
X018407Y011060D01*
X018423Y011041D01*
X018436Y011020D01*
X018445Y010998D01*
X018451Y010974D01*
X018453Y010949D01*
X018451Y010924D01*
X018445Y010900D01*
X018436Y010878D01*
X018423Y010857D01*
X018407Y010838D01*
X018388Y010822D01*
X018367Y010809D01*
X018345Y010800D01*
X018321Y010794D01*
X018296Y010792D01*
X018271Y010794D01*
X018247Y010800D01*
X018225Y010809D01*
X018204Y010822D01*
X018185Y010838D01*
X018169Y010857D01*
X018156Y010878D01*
X018147Y010900D01*
X018141Y010924D01*
X018139Y010949D01*
X017666Y010949D02*
X017668Y010974D01*
X017674Y010998D01*
X017683Y011020D01*
X017696Y011041D01*
X017712Y011060D01*
X017731Y011076D01*
X017752Y011089D01*
X017774Y011098D01*
X017798Y011104D01*
X017823Y011106D01*
X017848Y011104D01*
X017872Y011098D01*
X017894Y011089D01*
X017915Y011076D01*
X017934Y011060D01*
X017950Y011041D01*
X017963Y011020D01*
X017972Y010998D01*
X017978Y010974D01*
X017980Y010949D01*
X017978Y010924D01*
X017972Y010900D01*
X017963Y010878D01*
X017950Y010857D01*
X017934Y010838D01*
X017915Y010822D01*
X017894Y010809D01*
X017872Y010800D01*
X017848Y010794D01*
X017823Y010792D01*
X017798Y010794D01*
X017774Y010800D01*
X017752Y010809D01*
X017731Y010822D01*
X017712Y010838D01*
X017696Y010857D01*
X017683Y010878D01*
X017674Y010900D01*
X017668Y010924D01*
X017666Y010949D01*
X017194Y010949D02*
X017196Y010974D01*
X017202Y010998D01*
X017211Y011020D01*
X017224Y011041D01*
X017240Y011060D01*
X017259Y011076D01*
X017280Y011089D01*
X017302Y011098D01*
X017326Y011104D01*
X017351Y011106D01*
X017376Y011104D01*
X017400Y011098D01*
X017422Y011089D01*
X017443Y011076D01*
X017462Y011060D01*
X017478Y011041D01*
X017491Y011020D01*
X017500Y010998D01*
X017506Y010974D01*
X017508Y010949D01*
X017506Y010924D01*
X017500Y010900D01*
X017491Y010878D01*
X017478Y010857D01*
X017462Y010838D01*
X017443Y010822D01*
X017422Y010809D01*
X017400Y010800D01*
X017376Y010794D01*
X017351Y010792D01*
X017326Y010794D01*
X017302Y010800D01*
X017280Y010809D01*
X017259Y010822D01*
X017240Y010838D01*
X017224Y010857D01*
X017211Y010878D01*
X017202Y010900D01*
X017196Y010924D01*
X017194Y010949D01*
X017194Y011579D02*
X017196Y011604D01*
X017202Y011628D01*
X017211Y011650D01*
X017224Y011671D01*
X017240Y011690D01*
X017259Y011706D01*
X017280Y011719D01*
X017302Y011728D01*
X017326Y011734D01*
X017351Y011736D01*
X017376Y011734D01*
X017400Y011728D01*
X017422Y011719D01*
X017443Y011706D01*
X017462Y011690D01*
X017478Y011671D01*
X017491Y011650D01*
X017500Y011628D01*
X017506Y011604D01*
X017508Y011579D01*
X017506Y011554D01*
X017500Y011530D01*
X017491Y011508D01*
X017478Y011487D01*
X017462Y011468D01*
X017443Y011452D01*
X017422Y011439D01*
X017400Y011430D01*
X017376Y011424D01*
X017351Y011422D01*
X017326Y011424D01*
X017302Y011430D01*
X017280Y011439D01*
X017259Y011452D01*
X017240Y011468D01*
X017224Y011487D01*
X017211Y011508D01*
X017202Y011530D01*
X017196Y011554D01*
X017194Y011579D01*
X017666Y011579D02*
X017668Y011604D01*
X017674Y011628D01*
X017683Y011650D01*
X017696Y011671D01*
X017712Y011690D01*
X017731Y011706D01*
X017752Y011719D01*
X017774Y011728D01*
X017798Y011734D01*
X017823Y011736D01*
X017848Y011734D01*
X017872Y011728D01*
X017894Y011719D01*
X017915Y011706D01*
X017934Y011690D01*
X017950Y011671D01*
X017963Y011650D01*
X017972Y011628D01*
X017978Y011604D01*
X017980Y011579D01*
X017978Y011554D01*
X017972Y011530D01*
X017963Y011508D01*
X017950Y011487D01*
X017934Y011468D01*
X017915Y011452D01*
X017894Y011439D01*
X017872Y011430D01*
X017848Y011424D01*
X017823Y011422D01*
X017798Y011424D01*
X017774Y011430D01*
X017752Y011439D01*
X017731Y011452D01*
X017712Y011468D01*
X017696Y011487D01*
X017683Y011508D01*
X017674Y011530D01*
X017668Y011554D01*
X017666Y011579D01*
X018139Y011579D02*
X018141Y011604D01*
X018147Y011628D01*
X018156Y011650D01*
X018169Y011671D01*
X018185Y011690D01*
X018204Y011706D01*
X018225Y011719D01*
X018247Y011728D01*
X018271Y011734D01*
X018296Y011736D01*
X018321Y011734D01*
X018345Y011728D01*
X018367Y011719D01*
X018388Y011706D01*
X018407Y011690D01*
X018423Y011671D01*
X018436Y011650D01*
X018445Y011628D01*
X018451Y011604D01*
X018453Y011579D01*
X018451Y011554D01*
X018445Y011530D01*
X018436Y011508D01*
X018423Y011487D01*
X018407Y011468D01*
X018388Y011452D01*
X018367Y011439D01*
X018345Y011430D01*
X018321Y011424D01*
X018296Y011422D01*
X018271Y011424D01*
X018247Y011430D01*
X018225Y011439D01*
X018204Y011452D01*
X018185Y011468D01*
X018169Y011487D01*
X018156Y011508D01*
X018147Y011530D01*
X018141Y011554D01*
X018139Y011579D01*
X018611Y011579D02*
X018613Y011604D01*
X018619Y011628D01*
X018628Y011650D01*
X018641Y011671D01*
X018657Y011690D01*
X018676Y011706D01*
X018697Y011719D01*
X018719Y011728D01*
X018743Y011734D01*
X018768Y011736D01*
X018793Y011734D01*
X018817Y011728D01*
X018839Y011719D01*
X018860Y011706D01*
X018879Y011690D01*
X018895Y011671D01*
X018908Y011650D01*
X018917Y011628D01*
X018923Y011604D01*
X018925Y011579D01*
X018923Y011554D01*
X018917Y011530D01*
X018908Y011508D01*
X018895Y011487D01*
X018879Y011468D01*
X018860Y011452D01*
X018839Y011439D01*
X018817Y011430D01*
X018793Y011424D01*
X018768Y011422D01*
X018743Y011424D01*
X018719Y011430D01*
X018697Y011439D01*
X018676Y011452D01*
X018657Y011468D01*
X018641Y011487D01*
X018628Y011508D01*
X018619Y011530D01*
X018613Y011554D01*
X018611Y011579D01*
X019084Y011579D02*
X019086Y011604D01*
X019092Y011628D01*
X019101Y011650D01*
X019114Y011671D01*
X019130Y011690D01*
X019149Y011706D01*
X019170Y011719D01*
X019192Y011728D01*
X019216Y011734D01*
X019241Y011736D01*
X019266Y011734D01*
X019290Y011728D01*
X019312Y011719D01*
X019333Y011706D01*
X019352Y011690D01*
X019368Y011671D01*
X019381Y011650D01*
X019390Y011628D01*
X019396Y011604D01*
X019398Y011579D01*
X019396Y011554D01*
X019390Y011530D01*
X019381Y011508D01*
X019368Y011487D01*
X019352Y011468D01*
X019333Y011452D01*
X019312Y011439D01*
X019290Y011430D01*
X019266Y011424D01*
X019241Y011422D01*
X019216Y011424D01*
X019192Y011430D01*
X019170Y011439D01*
X019149Y011452D01*
X019130Y011468D01*
X019114Y011487D01*
X019101Y011508D01*
X019092Y011530D01*
X019086Y011554D01*
X019084Y011579D01*
X019556Y011579D02*
X019558Y011604D01*
X019564Y011628D01*
X019573Y011650D01*
X019586Y011671D01*
X019602Y011690D01*
X019621Y011706D01*
X019642Y011719D01*
X019664Y011728D01*
X019688Y011734D01*
X019713Y011736D01*
X019738Y011734D01*
X019762Y011728D01*
X019784Y011719D01*
X019805Y011706D01*
X019824Y011690D01*
X019840Y011671D01*
X019853Y011650D01*
X019862Y011628D01*
X019868Y011604D01*
X019870Y011579D01*
X019868Y011554D01*
X019862Y011530D01*
X019853Y011508D01*
X019840Y011487D01*
X019824Y011468D01*
X019805Y011452D01*
X019784Y011439D01*
X019762Y011430D01*
X019738Y011424D01*
X019713Y011422D01*
X019688Y011424D01*
X019664Y011430D01*
X019642Y011439D01*
X019621Y011452D01*
X019602Y011468D01*
X019586Y011487D01*
X019573Y011508D01*
X019564Y011530D01*
X019558Y011554D01*
X019556Y011579D01*
X020028Y011579D02*
X020030Y011604D01*
X020036Y011628D01*
X020045Y011650D01*
X020058Y011671D01*
X020074Y011690D01*
X020093Y011706D01*
X020114Y011719D01*
X020136Y011728D01*
X020160Y011734D01*
X020185Y011736D01*
X020210Y011734D01*
X020234Y011728D01*
X020256Y011719D01*
X020277Y011706D01*
X020296Y011690D01*
X020312Y011671D01*
X020325Y011650D01*
X020334Y011628D01*
X020340Y011604D01*
X020342Y011579D01*
X020340Y011554D01*
X020334Y011530D01*
X020325Y011508D01*
X020312Y011487D01*
X020296Y011468D01*
X020277Y011452D01*
X020256Y011439D01*
X020234Y011430D01*
X020210Y011424D01*
X020185Y011422D01*
X020160Y011424D01*
X020136Y011430D01*
X020114Y011439D01*
X020093Y011452D01*
X020074Y011468D01*
X020058Y011487D01*
X020045Y011508D01*
X020036Y011530D01*
X020030Y011554D01*
X020028Y011579D01*
X020501Y011579D02*
X020503Y011604D01*
X020509Y011628D01*
X020518Y011650D01*
X020531Y011671D01*
X020547Y011690D01*
X020566Y011706D01*
X020587Y011719D01*
X020609Y011728D01*
X020633Y011734D01*
X020658Y011736D01*
X020683Y011734D01*
X020707Y011728D01*
X020729Y011719D01*
X020750Y011706D01*
X020769Y011690D01*
X020785Y011671D01*
X020798Y011650D01*
X020807Y011628D01*
X020813Y011604D01*
X020815Y011579D01*
X020813Y011554D01*
X020807Y011530D01*
X020798Y011508D01*
X020785Y011487D01*
X020769Y011468D01*
X020750Y011452D01*
X020729Y011439D01*
X020707Y011430D01*
X020683Y011424D01*
X020658Y011422D01*
X020633Y011424D01*
X020609Y011430D01*
X020587Y011439D01*
X020566Y011452D01*
X020547Y011468D01*
X020531Y011487D01*
X020518Y011508D01*
X020509Y011530D01*
X020503Y011554D01*
X020501Y011579D01*
X020973Y011185D02*
X020975Y011146D01*
X020981Y011108D01*
X020990Y011071D01*
X021003Y011034D01*
X021020Y010999D01*
X021039Y010966D01*
X021062Y010935D01*
X021088Y010906D01*
X021117Y010880D01*
X021148Y010857D01*
X021181Y010838D01*
X021216Y010821D01*
X021253Y010808D01*
X021290Y010799D01*
X021328Y010793D01*
X021367Y010791D01*
X021367Y010792D02*
X023008Y010792D01*
X023047Y010790D01*
X023085Y010784D01*
X023122Y010775D01*
X023159Y010762D01*
X023194Y010745D01*
X023227Y010726D01*
X023258Y010703D01*
X023287Y010677D01*
X023313Y010648D01*
X023336Y010617D01*
X023355Y010584D01*
X023372Y010549D01*
X023385Y010512D01*
X023394Y010475D01*
X023400Y010437D01*
X023402Y010398D01*
X023402Y001725D01*
X023400Y001686D01*
X023394Y001648D01*
X023385Y001611D01*
X023372Y001574D01*
X023355Y001539D01*
X023336Y001506D01*
X023313Y001475D01*
X023287Y001446D01*
X023258Y001420D01*
X023227Y001397D01*
X023194Y001378D01*
X023159Y001361D01*
X023122Y001348D01*
X023085Y001339D01*
X023047Y001333D01*
X023008Y001331D01*
X004111Y001331D01*
X004072Y001333D01*
X004034Y001339D01*
X003997Y001348D01*
X003960Y001361D01*
X003925Y001378D01*
X003892Y001397D01*
X003861Y001420D01*
X003832Y001446D01*
X003806Y001475D01*
X003783Y001506D01*
X003764Y001539D01*
X003747Y001574D01*
X003734Y001611D01*
X003725Y001648D01*
X003719Y001686D01*
X003717Y001725D01*
X004126Y002331D02*
X004128Y002379D01*
X004134Y002427D01*
X004144Y002474D01*
X004157Y002520D01*
X004175Y002565D01*
X004195Y002609D01*
X004220Y002651D01*
X004248Y002690D01*
X004278Y002727D01*
X004312Y002761D01*
X004349Y002793D01*
X004387Y002822D01*
X004428Y002847D01*
X004471Y002869D01*
X004516Y002887D01*
X004562Y002901D01*
X004609Y002912D01*
X004657Y002919D01*
X004705Y002922D01*
X004753Y002921D01*
X004801Y002916D01*
X004849Y002907D01*
X004895Y002895D01*
X004940Y002878D01*
X004984Y002858D01*
X005026Y002835D01*
X005066Y002808D01*
X005104Y002778D01*
X005139Y002745D01*
X005171Y002709D01*
X005201Y002671D01*
X005227Y002630D01*
X005249Y002587D01*
X005269Y002543D01*
X005284Y002498D01*
X005296Y002451D01*
X005304Y002403D01*
X005308Y002355D01*
X005308Y002307D01*
X005304Y002259D01*
X005296Y002211D01*
X005284Y002164D01*
X005269Y002119D01*
X005249Y002075D01*
X005227Y002032D01*
X005201Y001991D01*
X005171Y001953D01*
X005139Y001917D01*
X005104Y001884D01*
X005066Y001854D01*
X005026Y001827D01*
X004984Y001804D01*
X004940Y001784D01*
X004895Y001767D01*
X004849Y001755D01*
X004801Y001746D01*
X004753Y001741D01*
X004705Y001740D01*
X004657Y001743D01*
X004609Y001750D01*
X004562Y001761D01*
X004516Y001775D01*
X004471Y001793D01*
X004428Y001815D01*
X004387Y001840D01*
X004349Y001869D01*
X004312Y001901D01*
X004278Y001935D01*
X004248Y001972D01*
X004220Y002011D01*
X004195Y002053D01*
X004175Y002097D01*
X004157Y002142D01*
X004144Y002188D01*
X004134Y002235D01*
X004128Y002283D01*
X004126Y002331D01*
X004126Y009731D02*
X004128Y009779D01*
X004134Y009827D01*
X004144Y009874D01*
X004157Y009920D01*
X004175Y009965D01*
X004195Y010009D01*
X004220Y010051D01*
X004248Y010090D01*
X004278Y010127D01*
X004312Y010161D01*
X004349Y010193D01*
X004387Y010222D01*
X004428Y010247D01*
X004471Y010269D01*
X004516Y010287D01*
X004562Y010301D01*
X004609Y010312D01*
X004657Y010319D01*
X004705Y010322D01*
X004753Y010321D01*
X004801Y010316D01*
X004849Y010307D01*
X004895Y010295D01*
X004940Y010278D01*
X004984Y010258D01*
X005026Y010235D01*
X005066Y010208D01*
X005104Y010178D01*
X005139Y010145D01*
X005171Y010109D01*
X005201Y010071D01*
X005227Y010030D01*
X005249Y009987D01*
X005269Y009943D01*
X005284Y009898D01*
X005296Y009851D01*
X005304Y009803D01*
X005308Y009755D01*
X005308Y009707D01*
X005304Y009659D01*
X005296Y009611D01*
X005284Y009564D01*
X005269Y009519D01*
X005249Y009475D01*
X005227Y009432D01*
X005201Y009391D01*
X005171Y009353D01*
X005139Y009317D01*
X005104Y009284D01*
X005066Y009254D01*
X005026Y009227D01*
X004984Y009204D01*
X004940Y009184D01*
X004895Y009167D01*
X004849Y009155D01*
X004801Y009146D01*
X004753Y009141D01*
X004705Y009140D01*
X004657Y009143D01*
X004609Y009150D01*
X004562Y009161D01*
X004516Y009175D01*
X004471Y009193D01*
X004428Y009215D01*
X004387Y009240D01*
X004349Y009269D01*
X004312Y009301D01*
X004278Y009335D01*
X004248Y009372D01*
X004220Y009411D01*
X004195Y009453D01*
X004175Y009497D01*
X004157Y009542D01*
X004144Y009588D01*
X004134Y009635D01*
X004128Y009683D01*
X004126Y009731D01*
X012823Y015904D02*
X012825Y015943D01*
X012831Y015981D01*
X012840Y016018D01*
X012853Y016055D01*
X012870Y016090D01*
X012889Y016123D01*
X012912Y016154D01*
X012938Y016183D01*
X013496Y016739D02*
X013521Y016768D01*
X013544Y016799D01*
X013564Y016832D01*
X013581Y016867D01*
X013594Y016903D01*
X013603Y016940D01*
X013609Y016978D01*
X013611Y017017D01*
X014283Y016739D02*
X014309Y016768D01*
X014332Y016799D01*
X014351Y016832D01*
X014368Y016867D01*
X014381Y016904D01*
X014390Y016941D01*
X014396Y016979D01*
X014398Y017018D01*
X014004Y020122D02*
X014003Y020122D01*
X021826Y009731D02*
X021828Y009779D01*
X021834Y009827D01*
X021844Y009874D01*
X021857Y009920D01*
X021875Y009965D01*
X021895Y010009D01*
X021920Y010051D01*
X021948Y010090D01*
X021978Y010127D01*
X022012Y010161D01*
X022049Y010193D01*
X022087Y010222D01*
X022128Y010247D01*
X022171Y010269D01*
X022216Y010287D01*
X022262Y010301D01*
X022309Y010312D01*
X022357Y010319D01*
X022405Y010322D01*
X022453Y010321D01*
X022501Y010316D01*
X022549Y010307D01*
X022595Y010295D01*
X022640Y010278D01*
X022684Y010258D01*
X022726Y010235D01*
X022766Y010208D01*
X022804Y010178D01*
X022839Y010145D01*
X022871Y010109D01*
X022901Y010071D01*
X022927Y010030D01*
X022949Y009987D01*
X022969Y009943D01*
X022984Y009898D01*
X022996Y009851D01*
X023004Y009803D01*
X023008Y009755D01*
X023008Y009707D01*
X023004Y009659D01*
X022996Y009611D01*
X022984Y009564D01*
X022969Y009519D01*
X022949Y009475D01*
X022927Y009432D01*
X022901Y009391D01*
X022871Y009353D01*
X022839Y009317D01*
X022804Y009284D01*
X022766Y009254D01*
X022726Y009227D01*
X022684Y009204D01*
X022640Y009184D01*
X022595Y009167D01*
X022549Y009155D01*
X022501Y009146D01*
X022453Y009141D01*
X022405Y009140D01*
X022357Y009143D01*
X022309Y009150D01*
X022262Y009161D01*
X022216Y009175D01*
X022171Y009193D01*
X022128Y009215D01*
X022087Y009240D01*
X022049Y009269D01*
X022012Y009301D01*
X021978Y009335D01*
X021948Y009372D01*
X021920Y009411D01*
X021895Y009453D01*
X021875Y009497D01*
X021857Y009542D01*
X021844Y009588D01*
X021834Y009635D01*
X021828Y009683D01*
X021826Y009731D01*
X021826Y002331D02*
X021828Y002379D01*
X021834Y002427D01*
X021844Y002474D01*
X021857Y002520D01*
X021875Y002565D01*
X021895Y002609D01*
X021920Y002651D01*
X021948Y002690D01*
X021978Y002727D01*
X022012Y002761D01*
X022049Y002793D01*
X022087Y002822D01*
X022128Y002847D01*
X022171Y002869D01*
X022216Y002887D01*
X022262Y002901D01*
X022309Y002912D01*
X022357Y002919D01*
X022405Y002922D01*
X022453Y002921D01*
X022501Y002916D01*
X022549Y002907D01*
X022595Y002895D01*
X022640Y002878D01*
X022684Y002858D01*
X022726Y002835D01*
X022766Y002808D01*
X022804Y002778D01*
X022839Y002745D01*
X022871Y002709D01*
X022901Y002671D01*
X022927Y002630D01*
X022949Y002587D01*
X022969Y002543D01*
X022984Y002498D01*
X022996Y002451D01*
X023004Y002403D01*
X023008Y002355D01*
X023008Y002307D01*
X023004Y002259D01*
X022996Y002211D01*
X022984Y002164D01*
X022969Y002119D01*
X022949Y002075D01*
X022927Y002032D01*
X022901Y001991D01*
X022871Y001953D01*
X022839Y001917D01*
X022804Y001884D01*
X022766Y001854D01*
X022726Y001827D01*
X022684Y001804D01*
X022640Y001784D01*
X022595Y001767D01*
X022549Y001755D01*
X022501Y001746D01*
X022453Y001741D01*
X022405Y001740D01*
X022357Y001743D01*
X022309Y001750D01*
X022262Y001761D01*
X022216Y001775D01*
X022171Y001793D01*
X022128Y001815D01*
X022087Y001840D01*
X022049Y001869D01*
X022012Y001901D01*
X021978Y001935D01*
X021948Y001972D01*
X021920Y002011D01*
X021895Y002053D01*
X021875Y002097D01*
X021857Y002142D01*
X021844Y002188D01*
X021834Y002235D01*
X021828Y002283D01*
X021826Y002331D01*
D11*
X020417Y008931D03*
X019417Y008931D03*
X018417Y008931D03*
X017417Y008931D03*
X017417Y009931D03*
X018417Y009931D03*
X019417Y009931D03*
X020417Y009931D03*
X019553Y012685D03*
X018553Y012585D03*
X018553Y013585D03*
X017553Y013685D03*
X017553Y012685D03*
X019553Y013685D03*
X010867Y019136D03*
X010867Y020136D03*
X009867Y020236D03*
X008867Y020136D03*
X008867Y019136D03*
X009867Y019236D03*
D12*
X005067Y019343D03*
X005067Y020130D03*
D13*
X004417Y017924D03*
X004417Y017199D03*
X004417Y016412D03*
X004417Y015624D03*
X004417Y014774D03*
X004417Y013949D03*
X004417Y013112D03*
X004417Y012324D03*
X011817Y007619D03*
X011817Y006894D03*
X011817Y006106D03*
X011817Y005319D03*
X011817Y004469D03*
X011817Y003644D03*
X011817Y002807D03*
X011817Y002019D03*
X019554Y001994D03*
X019554Y002832D03*
X019554Y003682D03*
X019554Y004469D03*
X019554Y005256D03*
X019554Y006106D03*
X019554Y006894D03*
X019554Y007619D03*
X012154Y012299D03*
X012154Y013137D03*
X012154Y013987D03*
X012154Y014774D03*
X012154Y015562D03*
X012154Y016412D03*
X012154Y017199D03*
X012154Y017924D03*
X015066Y018147D03*
X015066Y017360D03*
X015066Y016510D03*
X015066Y015723D03*
X015066Y014998D03*
X015066Y018935D03*
X015066Y019785D03*
X015066Y020622D03*
X022803Y020597D03*
X022803Y019810D03*
X022803Y018972D03*
X022803Y018147D03*
X022803Y017298D03*
X022803Y016510D03*
X022803Y015723D03*
X022803Y014998D03*
D14*
X022753Y012685D03*
X021753Y012685D03*
X020753Y012685D03*
X016017Y010092D03*
X015017Y010092D03*
X014017Y010092D03*
X013017Y010092D03*
X012017Y010092D03*
X011017Y010092D03*
X007367Y019136D03*
X007367Y020136D03*
X012867Y020436D03*
D15*
X014203Y012735D03*
X015203Y012735D03*
X016203Y012735D03*
D16*
X022417Y007031D03*
X022417Y006031D03*
X022417Y005031D03*
D17*
X008617Y009181D03*
X008617Y009531D03*
X008617Y009881D03*
X006717Y009881D03*
X006717Y009531D03*
X006717Y009181D03*
D18*
X006405Y008906D02*
X007029Y008906D01*
X007074Y008951D01*
X007662Y008951D01*
X007797Y009086D01*
X008217Y009506D01*
X008217Y009344D01*
X008221Y009340D01*
X008217Y009326D01*
X008217Y009194D01*
X008604Y009194D01*
X008604Y009169D01*
X008217Y009169D01*
X008217Y009036D01*
X008227Y008998D01*
X008247Y008964D01*
X008275Y008936D01*
X008309Y008916D01*
X008347Y008906D01*
X008604Y008906D01*
X008604Y009169D01*
X008629Y009169D01*
X008629Y008906D01*
X008887Y008906D01*
X008925Y008916D01*
X008959Y008936D01*
X008987Y008964D01*
X009007Y008998D01*
X009017Y009036D01*
X009017Y009169D01*
X008629Y009169D01*
X008629Y009194D01*
X009017Y009194D01*
X009017Y009326D01*
X009016Y009331D01*
X009100Y009331D01*
X009200Y009431D01*
X009317Y009548D01*
X009317Y009731D01*
X009631Y009731D01*
X009541Y009694D01*
X009454Y009607D01*
X009407Y009493D01*
X009407Y009404D01*
X009317Y009314D01*
X009317Y008314D01*
X008934Y007931D01*
X007100Y007931D01*
X007000Y008031D01*
X006634Y008031D01*
X006517Y007914D01*
X006217Y007614D01*
X006217Y007570D01*
X006154Y007507D01*
X006107Y007393D01*
X006107Y007269D01*
X006154Y007156D01*
X006241Y007068D01*
X006355Y007021D01*
X006479Y007021D01*
X006593Y007068D01*
X006680Y007156D01*
X006714Y007238D01*
X006755Y007221D01*
X006879Y007221D01*
X006993Y007268D01*
X007055Y007331D01*
X009179Y007331D01*
X009241Y007268D01*
X009355Y007221D01*
X009479Y007221D01*
X009593Y007268D01*
X009680Y007356D01*
X009727Y007469D01*
X009727Y007593D01*
X009680Y007707D01*
X009593Y007794D01*
X009479Y007841D01*
X009410Y007841D01*
X009600Y008031D01*
X009645Y008077D01*
X009654Y008056D01*
X009741Y007968D01*
X009855Y007921D01*
X009979Y007921D01*
X010093Y007968D01*
X010180Y008056D01*
X010227Y008169D01*
X010227Y008293D01*
X010180Y008407D01*
X010117Y008470D01*
X010117Y008731D01*
X011692Y008731D01*
X011587Y008626D01*
X011587Y007979D01*
X011325Y007979D01*
X011237Y007891D01*
X011237Y007617D01*
X011179Y007641D01*
X011115Y007641D01*
X011127Y007669D01*
X011127Y007793D01*
X011080Y007907D01*
X010993Y007994D01*
X010879Y008041D01*
X010755Y008041D01*
X010641Y007994D01*
X010554Y007907D01*
X010507Y007793D01*
X010507Y007669D01*
X010554Y007556D01*
X010617Y007493D01*
X010617Y006898D01*
X010734Y006781D01*
X011234Y006281D01*
X011237Y006281D01*
X011237Y006150D01*
X011193Y006194D01*
X011079Y006241D01*
X010955Y006241D01*
X010841Y006194D01*
X010754Y006107D01*
X010707Y005993D01*
X010707Y005869D01*
X010754Y005756D01*
X010841Y005668D01*
X010955Y005621D01*
X011044Y005621D01*
X011134Y005531D01*
X011237Y005531D01*
X011237Y005194D01*
X011127Y005304D01*
X011127Y005393D01*
X011080Y005507D01*
X010993Y005594D01*
X010879Y005641D01*
X010755Y005641D01*
X010641Y005594D01*
X010554Y005507D01*
X010507Y005393D01*
X010507Y005269D01*
X010554Y005156D01*
X010641Y005068D01*
X010755Y005021D01*
X010844Y005021D01*
X011067Y004798D01*
X011184Y004681D01*
X011237Y004681D01*
X011237Y004197D01*
X011325Y004109D01*
X012217Y004109D01*
X012217Y004004D01*
X011325Y004004D01*
X011237Y003916D01*
X011237Y003372D01*
X011325Y003284D01*
X012217Y003284D01*
X012217Y003167D01*
X011325Y003167D01*
X011237Y003079D01*
X011237Y002535D01*
X011325Y002447D01*
X012309Y002447D01*
X012397Y002535D01*
X012397Y002728D01*
X012417Y002748D01*
X012417Y001848D01*
X012784Y001481D01*
X004111Y001481D01*
X004063Y001486D01*
X003975Y001522D01*
X003908Y001589D01*
X003872Y001677D01*
X003867Y001725D01*
X003867Y010398D01*
X003872Y010446D01*
X003908Y010533D01*
X003975Y010601D01*
X004063Y010637D01*
X004111Y010642D01*
X005333Y010642D01*
X005533Y010725D01*
X005539Y010731D01*
X005717Y010731D01*
X005759Y010689D01*
X005872Y010642D01*
X005995Y010642D01*
X006108Y010689D01*
X006150Y010731D01*
X006189Y010731D01*
X006232Y010689D01*
X006345Y010642D01*
X006467Y010642D01*
X006580Y010689D01*
X006623Y010731D01*
X006662Y010731D01*
X006704Y010689D01*
X006817Y010642D01*
X006939Y010642D01*
X007053Y010689D01*
X007095Y010731D01*
X007134Y010731D01*
X007177Y010689D01*
X007290Y010642D01*
X007412Y010642D01*
X007525Y010689D01*
X007568Y010731D01*
X007606Y010731D01*
X007649Y010689D01*
X007762Y010642D01*
X007884Y010642D01*
X007997Y010689D01*
X008040Y010731D01*
X008079Y010731D01*
X008121Y010689D01*
X008234Y010642D01*
X008357Y010642D01*
X008470Y010689D01*
X008512Y010731D01*
X008551Y010731D01*
X008594Y010689D01*
X008707Y010642D01*
X008829Y010642D01*
X008942Y010689D01*
X008985Y010731D01*
X009024Y010731D01*
X009066Y010689D01*
X009179Y010642D01*
X009302Y010642D01*
X009415Y010689D01*
X009457Y010731D01*
X009635Y010731D01*
X009641Y010725D01*
X009841Y010642D01*
X011545Y010642D01*
X011434Y010531D01*
X011374Y010471D01*
X011311Y010533D01*
X011120Y010612D01*
X010913Y010612D01*
X010849Y010585D01*
X010823Y010611D01*
X007972Y010611D01*
X007222Y009861D01*
X007122Y009761D01*
X007117Y009761D01*
X007117Y009869D01*
X006729Y009869D01*
X006729Y009894D01*
X006704Y009894D01*
X006704Y010156D01*
X006447Y010156D01*
X006409Y010146D01*
X006375Y010126D01*
X006347Y010098D01*
X006327Y010064D01*
X006317Y010026D01*
X006317Y009894D01*
X006704Y009894D01*
X006704Y009869D01*
X006317Y009869D01*
X006317Y009736D01*
X006321Y009722D01*
X006317Y009718D01*
X006317Y008994D01*
X006405Y008906D01*
X006324Y008986D02*
X003867Y008986D01*
X003867Y008888D02*
X009317Y008888D01*
X009317Y008986D02*
X009000Y008986D01*
X009017Y009085D02*
X009317Y009085D01*
X009317Y009183D02*
X008629Y009183D01*
X008604Y009183D02*
X007894Y009183D01*
X007797Y009086D02*
X007797Y009086D01*
X007796Y009085D02*
X008217Y009085D01*
X008234Y008986D02*
X007697Y008986D01*
X007993Y009282D02*
X008217Y009282D01*
X008217Y009380D02*
X008091Y009380D01*
X008190Y009479D02*
X008217Y009479D01*
X008167Y009781D02*
X008267Y009881D01*
X008617Y009531D02*
X009017Y009531D01*
X009117Y009631D01*
X009117Y009831D01*
X009217Y009931D01*
X009917Y009931D01*
X010017Y009931D01*
X010617Y009331D01*
X011517Y009331D01*
X012017Y009831D01*
X012017Y010092D01*
X012517Y010331D02*
X012517Y009831D01*
X012017Y009231D02*
X011717Y009231D01*
X011617Y009131D01*
X010917Y009131D01*
X010417Y009131D01*
X010117Y009431D01*
X009717Y009431D02*
X009517Y009231D01*
X009517Y008231D01*
X009017Y007731D01*
X007017Y007731D01*
X006917Y007831D01*
X006717Y007831D01*
X006417Y007531D01*
X006417Y007331D01*
X006704Y007213D02*
X010617Y007213D01*
X010617Y007115D02*
X006639Y007115D01*
X006195Y007115D02*
X003867Y007115D01*
X003867Y007213D02*
X006130Y007213D01*
X006107Y007312D02*
X003867Y007312D01*
X003867Y007410D02*
X006114Y007410D01*
X006156Y007509D02*
X003867Y007509D01*
X003867Y007607D02*
X006217Y007607D01*
X006309Y007706D02*
X003867Y007706D01*
X003867Y007804D02*
X006407Y007804D01*
X006506Y007903D02*
X003867Y007903D01*
X003867Y008001D02*
X006604Y008001D01*
X007029Y008001D02*
X009004Y008001D01*
X009103Y008100D02*
X003867Y008100D01*
X003867Y008198D02*
X009201Y008198D01*
X009300Y008297D02*
X003867Y008297D01*
X003867Y008395D02*
X009317Y008395D01*
X009317Y008494D02*
X003867Y008494D01*
X003867Y008592D02*
X009317Y008592D01*
X009317Y008691D02*
X003867Y008691D01*
X003867Y008789D02*
X009317Y008789D01*
X009317Y009282D02*
X009017Y009282D01*
X009149Y009380D02*
X009383Y009380D01*
X009407Y009479D02*
X009248Y009479D01*
X009317Y009577D02*
X009442Y009577D01*
X009523Y009676D02*
X009317Y009676D01*
X008629Y009085D02*
X008604Y009085D01*
X008604Y008986D02*
X008629Y008986D01*
X009917Y008831D02*
X009917Y008231D01*
X010198Y008100D02*
X011587Y008100D01*
X011587Y008198D02*
X010227Y008198D01*
X010225Y008297D02*
X011587Y008297D01*
X011587Y008395D02*
X010184Y008395D01*
X010117Y008494D02*
X011587Y008494D01*
X011587Y008592D02*
X010117Y008592D01*
X010117Y008691D02*
X011651Y008691D01*
X011817Y008931D02*
X010417Y008931D01*
X010017Y008931D01*
X009917Y008831D01*
X010126Y008001D02*
X010659Y008001D01*
X010553Y007903D02*
X009472Y007903D01*
X009567Y007804D02*
X010512Y007804D01*
X010507Y007706D02*
X009680Y007706D01*
X009721Y007607D02*
X010533Y007607D01*
X010601Y007509D02*
X009727Y007509D01*
X009702Y007410D02*
X010617Y007410D01*
X010617Y007312D02*
X009636Y007312D01*
X009417Y007531D02*
X006817Y007531D01*
X007036Y007312D02*
X009198Y007312D01*
X009570Y008001D02*
X009708Y008001D01*
X010817Y007731D02*
X010817Y006981D01*
X011317Y006481D01*
X012367Y006481D01*
X012417Y006431D01*
X012417Y005831D01*
X012617Y005631D01*
X012617Y005131D01*
X012817Y004931D01*
X012817Y002031D01*
X013117Y001731D01*
X018417Y001731D01*
X018617Y001931D01*
X018617Y003331D01*
X018968Y003682D01*
X019554Y003682D01*
X019210Y004042D02*
X019278Y004109D01*
X020046Y004109D01*
X020134Y004197D01*
X020134Y004741D01*
X020046Y004829D01*
X019061Y004829D01*
X018974Y004741D01*
X018974Y004371D01*
X018417Y003814D01*
X018417Y004748D01*
X018725Y005056D01*
X018974Y005056D01*
X018974Y004984D01*
X019061Y004896D01*
X020046Y004896D01*
X020134Y004984D01*
X020134Y005529D01*
X020046Y005616D01*
X019061Y005616D01*
X018974Y005529D01*
X018974Y005456D01*
X018559Y005456D01*
X018134Y005031D01*
X018017Y004914D01*
X018017Y002414D01*
X017934Y002331D01*
X013417Y002331D01*
X013417Y005214D01*
X013217Y005414D01*
X013217Y005914D01*
X013100Y006031D01*
X013017Y006114D01*
X013017Y006714D01*
X012900Y006831D01*
X012817Y006914D01*
X012817Y007314D01*
X012700Y007431D01*
X012617Y007514D01*
X012617Y008014D01*
X012500Y008131D01*
X012427Y008204D01*
X012427Y008293D01*
X012380Y008407D01*
X012293Y008494D01*
X012179Y008541D01*
X012152Y008541D01*
X012212Y008601D01*
X015122Y008601D01*
X015761Y007962D01*
X016561Y007962D01*
X016572Y007951D01*
X016762Y007951D01*
X016773Y007962D01*
X016908Y008096D01*
X016908Y008096D01*
X017222Y008411D01*
X017632Y008411D01*
X017917Y008696D01*
X018202Y008411D01*
X018632Y008411D01*
X018917Y008696D01*
X019202Y008411D01*
X019632Y008411D01*
X019917Y008696D01*
X020202Y008411D01*
X020632Y008411D01*
X020937Y008716D01*
X020937Y009146D01*
X020652Y009431D01*
X020937Y009716D01*
X020937Y009881D01*
X020467Y009881D01*
X020467Y009981D01*
X020937Y009981D01*
X020937Y010146D01*
X020632Y010451D01*
X020467Y010451D01*
X020467Y009981D01*
X020367Y009981D01*
X020367Y010451D01*
X020202Y010451D01*
X019917Y010166D01*
X019632Y010451D01*
X019202Y010451D01*
X018917Y010166D01*
X018632Y010451D01*
X018202Y010451D01*
X017917Y010166D01*
X017632Y010451D01*
X017202Y010451D01*
X016897Y010146D01*
X016897Y009716D01*
X017182Y009431D01*
X017112Y009361D01*
X016012Y009361D01*
X015722Y009651D01*
X015913Y009572D01*
X016120Y009572D01*
X016311Y009651D01*
X016458Y009797D01*
X016537Y009988D01*
X016537Y010195D01*
X016458Y010386D01*
X016311Y010533D01*
X016120Y010612D01*
X015913Y010612D01*
X015722Y010533D01*
X015576Y010386D01*
X015517Y010243D01*
X015458Y010386D01*
X015311Y010533D01*
X015120Y010612D01*
X014913Y010612D01*
X014722Y010533D01*
X014576Y010386D01*
X014517Y010243D01*
X014458Y010386D01*
X014311Y010533D01*
X014120Y010612D01*
X013913Y010612D01*
X013722Y010533D01*
X013576Y010386D01*
X013517Y010243D01*
X013458Y010386D01*
X013311Y010533D01*
X013120Y010612D01*
X012913Y010612D01*
X012722Y010533D01*
X012660Y010471D01*
X012489Y010642D01*
X016750Y010642D01*
X016950Y010725D01*
X016957Y010731D01*
X017134Y010731D01*
X017177Y010689D01*
X017290Y010642D01*
X017412Y010642D01*
X017525Y010689D01*
X017568Y010731D01*
X017606Y010731D01*
X017649Y010689D01*
X017762Y010642D01*
X017884Y010642D01*
X017997Y010689D01*
X018040Y010731D01*
X018079Y010731D01*
X018121Y010689D01*
X018234Y010642D01*
X018357Y010642D01*
X018470Y010689D01*
X018512Y010731D01*
X018551Y010731D01*
X018594Y010689D01*
X018707Y010642D01*
X018829Y010642D01*
X018942Y010689D01*
X018985Y010731D01*
X019024Y010731D01*
X019066Y010689D01*
X019179Y010642D01*
X019302Y010642D01*
X019415Y010689D01*
X019457Y010731D01*
X019496Y010731D01*
X019539Y010689D01*
X019652Y010642D01*
X019774Y010642D01*
X019887Y010689D01*
X019930Y010731D01*
X019969Y010731D01*
X020011Y010689D01*
X020124Y010642D01*
X020247Y010642D01*
X020360Y010689D01*
X020402Y010731D01*
X020441Y010731D01*
X020484Y010689D01*
X020597Y010642D01*
X020719Y010642D01*
X020832Y010689D01*
X020875Y010731D01*
X021052Y010731D01*
X021059Y010725D01*
X021258Y010642D01*
X023008Y010642D01*
X023056Y010637D01*
X023144Y010601D01*
X023211Y010533D01*
X023247Y010446D01*
X023252Y010398D01*
X023252Y007477D01*
X023237Y007481D01*
X022467Y007481D01*
X022467Y007081D01*
X022367Y007081D01*
X022367Y006981D01*
X022467Y006981D01*
X022467Y006581D01*
X023237Y006581D01*
X023252Y006585D01*
X023252Y006481D01*
X021555Y006481D01*
X021467Y006393D01*
X021467Y006391D01*
X021366Y006391D01*
X020558Y007199D01*
X020426Y007254D01*
X019061Y007254D01*
X018974Y007166D01*
X018974Y006622D01*
X019061Y006534D01*
X020205Y006534D01*
X020912Y005827D01*
X021013Y005726D01*
X021145Y005671D01*
X021467Y005671D01*
X021467Y005669D01*
X021555Y005581D01*
X023252Y005581D01*
X023252Y005477D01*
X023237Y005481D01*
X022467Y005481D01*
X022467Y005081D01*
X022367Y005081D01*
X022367Y004981D01*
X022467Y004981D01*
X022467Y004581D01*
X023237Y004581D01*
X023252Y004585D01*
X023252Y001725D01*
X023247Y001677D01*
X023211Y001589D01*
X023144Y001522D01*
X023056Y001486D01*
X023008Y001481D01*
X018750Y001481D01*
X018900Y001631D01*
X018982Y001714D01*
X019061Y001634D01*
X020046Y001634D01*
X020134Y001722D01*
X020134Y002266D01*
X020046Y002354D01*
X019061Y002354D01*
X019017Y002310D01*
X019017Y002516D01*
X019061Y002472D01*
X020046Y002472D01*
X020134Y002560D01*
X020134Y003104D01*
X020046Y003192D01*
X019061Y003192D01*
X018974Y003104D01*
X018974Y003031D01*
X018934Y003031D01*
X018817Y002914D01*
X018817Y002914D01*
X018817Y003248D01*
X018976Y003407D01*
X019061Y003322D01*
X020046Y003322D01*
X020134Y003410D01*
X020134Y003954D01*
X020046Y004042D01*
X019210Y004042D01*
X019230Y004061D02*
X023252Y004061D01*
X023252Y003963D02*
X020125Y003963D01*
X020134Y003864D02*
X023252Y003864D01*
X023252Y003766D02*
X020134Y003766D01*
X020134Y003667D02*
X023252Y003667D01*
X023252Y003569D02*
X020134Y003569D01*
X020134Y003470D02*
X023252Y003470D01*
X023252Y003372D02*
X020096Y003372D01*
X020063Y003175D02*
X023252Y003175D01*
X023252Y003273D02*
X018842Y003273D01*
X018817Y003175D02*
X019045Y003175D01*
X018974Y003076D02*
X018817Y003076D01*
X018817Y002978D02*
X018881Y002978D01*
X019017Y002831D02*
X019553Y002831D01*
X019554Y002832D01*
X019017Y002831D02*
X018817Y002631D01*
X018817Y001831D01*
X018517Y001531D01*
X013017Y001531D01*
X012617Y001931D01*
X012617Y004831D01*
X012417Y005031D01*
X012417Y005531D01*
X012217Y005731D01*
X011217Y005731D01*
X011017Y005931D01*
X010707Y005933D02*
X003867Y005933D01*
X003867Y006031D02*
X010723Y006031D01*
X010777Y006130D02*
X003867Y006130D01*
X003867Y006228D02*
X010925Y006228D01*
X011109Y006228D02*
X011237Y006228D01*
X011188Y006327D02*
X003867Y006327D01*
X003867Y006425D02*
X011090Y006425D01*
X010991Y006524D02*
X003867Y006524D01*
X003867Y006622D02*
X010893Y006622D01*
X010794Y006721D02*
X003867Y006721D01*
X003867Y006819D02*
X010696Y006819D01*
X010617Y006918D02*
X003867Y006918D01*
X003867Y007016D02*
X010617Y007016D01*
X011117Y007331D02*
X011217Y007231D01*
X012317Y007231D01*
X012417Y007131D01*
X012417Y006731D01*
X012617Y006531D01*
X012617Y005931D01*
X012817Y005731D01*
X012817Y005231D01*
X013017Y005031D01*
X013017Y002131D01*
X013217Y001931D01*
X018317Y001931D01*
X018417Y002031D01*
X018417Y003531D01*
X019355Y004469D01*
X019554Y004469D01*
X020134Y004455D02*
X023252Y004455D01*
X023252Y004357D02*
X020134Y004357D01*
X020134Y004258D02*
X023252Y004258D01*
X023252Y004160D02*
X020097Y004160D01*
X020134Y004554D02*
X023252Y004554D01*
X022467Y004652D02*
X022367Y004652D01*
X022367Y004581D02*
X022367Y004981D01*
X021467Y004981D01*
X021467Y004711D01*
X021477Y004673D01*
X021497Y004639D01*
X021525Y004611D01*
X021559Y004591D01*
X021597Y004581D01*
X022367Y004581D01*
X022367Y004751D02*
X022467Y004751D01*
X022467Y004849D02*
X022367Y004849D01*
X022367Y004948D02*
X022467Y004948D01*
X022367Y005046D02*
X020134Y005046D01*
X020134Y005145D02*
X021467Y005145D01*
X021467Y005081D02*
X022367Y005081D01*
X022367Y005481D01*
X021597Y005481D01*
X021559Y005471D01*
X021525Y005451D01*
X021497Y005423D01*
X021477Y005389D01*
X021467Y005351D01*
X021467Y005081D01*
X021467Y004948D02*
X020097Y004948D01*
X020124Y004751D02*
X021467Y004751D01*
X021467Y004849D02*
X018518Y004849D01*
X018420Y004751D02*
X018983Y004751D01*
X018974Y004652D02*
X018417Y004652D01*
X018417Y004554D02*
X018974Y004554D01*
X018974Y004455D02*
X018417Y004455D01*
X018417Y004357D02*
X018960Y004357D01*
X018861Y004258D02*
X018417Y004258D01*
X018417Y004160D02*
X018763Y004160D01*
X018664Y004061D02*
X018417Y004061D01*
X018417Y003963D02*
X018566Y003963D01*
X018467Y003864D02*
X018417Y003864D01*
X018017Y003864D02*
X013417Y003864D01*
X013417Y003766D02*
X018017Y003766D01*
X018017Y003667D02*
X013417Y003667D01*
X013417Y003569D02*
X018017Y003569D01*
X018017Y003470D02*
X013417Y003470D01*
X013417Y003372D02*
X018017Y003372D01*
X018017Y003273D02*
X013417Y003273D01*
X013417Y003175D02*
X018017Y003175D01*
X018017Y003076D02*
X013417Y003076D01*
X013417Y002978D02*
X018017Y002978D01*
X018017Y002879D02*
X013417Y002879D01*
X013417Y002781D02*
X018017Y002781D01*
X018017Y002682D02*
X013417Y002682D01*
X013417Y002584D02*
X018017Y002584D01*
X018017Y002485D02*
X013417Y002485D01*
X013417Y002387D02*
X017990Y002387D01*
X018217Y002331D02*
X018017Y002131D01*
X013317Y002131D01*
X013217Y002231D01*
X013217Y005131D01*
X013017Y005331D01*
X013017Y005831D01*
X012817Y006031D01*
X012817Y006631D01*
X012617Y006831D01*
X012617Y007231D01*
X012417Y007431D01*
X012417Y007931D01*
X012117Y008231D01*
X012384Y008395D02*
X015327Y008395D01*
X015426Y008297D02*
X012425Y008297D01*
X012432Y008198D02*
X015524Y008198D01*
X015623Y008100D02*
X012531Y008100D01*
X012617Y008001D02*
X015721Y008001D01*
X015917Y008431D02*
X015617Y008731D01*
X015617Y008831D01*
X015417Y009031D01*
X011917Y009031D01*
X011817Y008931D01*
X012203Y008592D02*
X015130Y008592D01*
X015229Y008494D02*
X012293Y008494D01*
X012617Y007903D02*
X018993Y007903D01*
X018984Y007887D02*
X018974Y007848D01*
X018974Y007669D01*
X019504Y007669D01*
X019504Y007979D01*
X019104Y007979D01*
X019066Y007968D01*
X019032Y007949D01*
X019004Y007921D01*
X018984Y007887D01*
X018974Y007804D02*
X012617Y007804D01*
X012617Y007706D02*
X018974Y007706D01*
X018974Y007569D02*
X018974Y007389D01*
X018984Y007351D01*
X019004Y007317D01*
X019032Y007289D01*
X019066Y007269D01*
X019104Y007259D01*
X019504Y007259D01*
X019504Y007569D01*
X019604Y007569D01*
X019604Y007669D01*
X020134Y007669D01*
X020134Y007848D01*
X020123Y007887D01*
X020104Y007921D01*
X020076Y007949D01*
X020042Y007968D01*
X020003Y007979D01*
X019604Y007979D01*
X019604Y007669D01*
X019504Y007669D01*
X019504Y007569D01*
X018974Y007569D01*
X018974Y007509D02*
X012622Y007509D01*
X012617Y007607D02*
X019504Y007607D01*
X019504Y007509D02*
X019604Y007509D01*
X019604Y007569D02*
X019604Y007259D01*
X020003Y007259D01*
X020042Y007269D01*
X020076Y007289D01*
X020104Y007317D01*
X020123Y007351D01*
X020134Y007389D01*
X020134Y007569D01*
X019604Y007569D01*
X019604Y007607D02*
X023252Y007607D01*
X023252Y007509D02*
X020134Y007509D01*
X020134Y007410D02*
X021489Y007410D01*
X021497Y007423D02*
X021477Y007389D01*
X021467Y007351D01*
X021467Y007081D01*
X022367Y007081D01*
X022367Y007481D01*
X021597Y007481D01*
X021559Y007471D01*
X021525Y007451D01*
X021497Y007423D01*
X021467Y007312D02*
X020099Y007312D01*
X020523Y007213D02*
X021467Y007213D01*
X021467Y007115D02*
X020642Y007115D01*
X020741Y007016D02*
X022367Y007016D01*
X022367Y006981D02*
X021467Y006981D01*
X021467Y006711D01*
X021477Y006673D01*
X021497Y006639D01*
X021525Y006611D01*
X021559Y006591D01*
X021597Y006581D01*
X022367Y006581D01*
X022367Y006981D01*
X022367Y006918D02*
X022467Y006918D01*
X022467Y006819D02*
X022367Y006819D01*
X022367Y006721D02*
X022467Y006721D01*
X022467Y006622D02*
X022367Y006622D01*
X022367Y007115D02*
X022467Y007115D01*
X022467Y007213D02*
X022367Y007213D01*
X022367Y007312D02*
X022467Y007312D01*
X022467Y007410D02*
X022367Y007410D01*
X021467Y006918D02*
X020839Y006918D01*
X020938Y006819D02*
X021467Y006819D01*
X021467Y006721D02*
X021036Y006721D01*
X021135Y006622D02*
X021513Y006622D01*
X021499Y006425D02*
X021332Y006425D01*
X021233Y006524D02*
X023252Y006524D01*
X023252Y005539D02*
X020123Y005539D01*
X020134Y005440D02*
X021514Y005440D01*
X021467Y005342D02*
X020134Y005342D01*
X020134Y005243D02*
X021467Y005243D01*
X021498Y005637D02*
X013217Y005637D01*
X013217Y005539D02*
X018984Y005539D01*
X019066Y005757D02*
X019104Y005746D01*
X019504Y005746D01*
X019504Y006056D01*
X019604Y006056D01*
X019604Y006156D01*
X020134Y006156D01*
X020134Y006336D01*
X020123Y006374D01*
X020104Y006408D01*
X020076Y006436D01*
X020042Y006456D01*
X020003Y006466D01*
X019604Y006466D01*
X019604Y006156D01*
X019504Y006156D01*
X019504Y006056D01*
X018974Y006056D01*
X018974Y005877D01*
X018984Y005838D01*
X019004Y005804D01*
X019032Y005776D01*
X019066Y005757D01*
X018986Y005834D02*
X013217Y005834D01*
X013217Y005736D02*
X021003Y005736D01*
X020904Y005834D02*
X020121Y005834D01*
X020123Y005838D02*
X020134Y005877D01*
X020134Y006056D01*
X019604Y006056D01*
X019604Y005746D01*
X020003Y005746D01*
X020042Y005757D01*
X020076Y005776D01*
X020104Y005804D01*
X020123Y005838D01*
X020134Y005933D02*
X020806Y005933D01*
X020707Y006031D02*
X020134Y006031D01*
X020134Y006228D02*
X020510Y006228D01*
X020412Y006327D02*
X020134Y006327D01*
X020087Y006425D02*
X020313Y006425D01*
X020215Y006524D02*
X013017Y006524D01*
X013017Y006622D02*
X018974Y006622D01*
X018974Y006721D02*
X013010Y006721D01*
X012911Y006819D02*
X018974Y006819D01*
X018974Y006918D02*
X012817Y006918D01*
X012817Y007016D02*
X018974Y007016D01*
X018974Y007115D02*
X012817Y007115D01*
X012817Y007213D02*
X019021Y007213D01*
X019008Y007312D02*
X012817Y007312D01*
X012720Y007410D02*
X018974Y007410D01*
X019504Y007410D02*
X019604Y007410D01*
X019604Y007312D02*
X019504Y007312D01*
X019504Y007706D02*
X019604Y007706D01*
X019604Y007804D02*
X019504Y007804D01*
X019504Y007903D02*
X019604Y007903D01*
X020114Y007903D02*
X023252Y007903D01*
X023252Y008001D02*
X016812Y008001D01*
X016773Y007962D02*
X016773Y007962D01*
X016911Y008100D02*
X023252Y008100D01*
X023252Y008198D02*
X017009Y008198D01*
X017108Y008297D02*
X023252Y008297D01*
X023252Y008395D02*
X017206Y008395D01*
X017715Y008494D02*
X018119Y008494D01*
X018020Y008592D02*
X017814Y008592D01*
X017912Y008691D02*
X017922Y008691D01*
X017417Y008931D02*
X017917Y009431D01*
X018418Y009431D01*
X018418Y009150D01*
X018418Y008950D01*
X018814Y008592D02*
X019020Y008592D01*
X019119Y008494D02*
X018715Y008494D01*
X018912Y008691D02*
X018922Y008691D01*
X019417Y008931D02*
X018917Y009431D01*
X018418Y009431D01*
X018915Y010168D02*
X018919Y010168D01*
X019017Y010267D02*
X018816Y010267D01*
X018718Y010365D02*
X019116Y010365D01*
X019133Y010661D02*
X018876Y010661D01*
X018661Y010661D02*
X018403Y010661D01*
X018188Y010661D02*
X017931Y010661D01*
X017716Y010661D02*
X017458Y010661D01*
X017243Y010661D02*
X016797Y010661D01*
X016950Y010725D02*
X016950Y010725D01*
X017116Y010365D02*
X016466Y010365D01*
X016507Y010267D02*
X017017Y010267D01*
X016919Y010168D02*
X016537Y010168D01*
X016537Y010070D02*
X016897Y010070D01*
X016897Y009971D02*
X016530Y009971D01*
X016489Y009873D02*
X016897Y009873D01*
X016897Y009774D02*
X016435Y009774D01*
X016336Y009676D02*
X016937Y009676D01*
X017035Y009577D02*
X016134Y009577D01*
X015900Y009577D02*
X015796Y009577D01*
X015894Y009479D02*
X017134Y009479D01*
X017131Y009380D02*
X015993Y009380D01*
X015517Y009231D02*
X012017Y009231D01*
X011517Y009781D02*
X011517Y010331D01*
X011767Y010581D01*
X012267Y010581D01*
X012517Y010331D01*
X012568Y010562D02*
X012794Y010562D01*
X013239Y010562D02*
X013794Y010562D01*
X013654Y010464D02*
X013380Y010464D01*
X013466Y010365D02*
X013567Y010365D01*
X013527Y010267D02*
X013507Y010267D01*
X014239Y010562D02*
X014794Y010562D01*
X014654Y010464D02*
X014380Y010464D01*
X014466Y010365D02*
X014567Y010365D01*
X014527Y010267D02*
X014507Y010267D01*
X015239Y010562D02*
X015794Y010562D01*
X015654Y010464D02*
X015380Y010464D01*
X015466Y010365D02*
X015567Y010365D01*
X015527Y010267D02*
X015507Y010267D01*
X016239Y010562D02*
X023182Y010562D01*
X023240Y010464D02*
X022583Y010464D01*
X022564Y010472D02*
X022270Y010472D01*
X021997Y010359D01*
X021789Y010151D01*
X021676Y009878D01*
X021676Y009584D01*
X021789Y009312D01*
X021997Y009103D01*
X022270Y008991D01*
X022564Y008991D01*
X022836Y009103D01*
X023045Y009312D01*
X023157Y009584D01*
X023157Y009878D01*
X023045Y010151D01*
X022836Y010359D01*
X022564Y010472D01*
X022821Y010365D02*
X023252Y010365D01*
X023252Y010267D02*
X022928Y010267D01*
X023027Y010168D02*
X023252Y010168D01*
X023252Y010070D02*
X023078Y010070D01*
X023119Y009971D02*
X023252Y009971D01*
X023252Y009873D02*
X023157Y009873D01*
X023157Y009774D02*
X023252Y009774D01*
X023252Y009676D02*
X023157Y009676D01*
X023155Y009577D02*
X023252Y009577D01*
X023252Y009479D02*
X023114Y009479D01*
X023073Y009380D02*
X023252Y009380D01*
X023252Y009282D02*
X023015Y009282D01*
X022917Y009183D02*
X023252Y009183D01*
X023252Y009085D02*
X022792Y009085D01*
X023252Y008986D02*
X020937Y008986D01*
X020937Y008888D02*
X023252Y008888D01*
X023252Y008789D02*
X020937Y008789D01*
X020912Y008691D02*
X023252Y008691D01*
X023252Y008592D02*
X020814Y008592D01*
X020715Y008494D02*
X023252Y008494D01*
X023252Y007804D02*
X020134Y007804D01*
X020134Y007706D02*
X023252Y007706D01*
X022042Y009085D02*
X020937Y009085D01*
X020900Y009183D02*
X021917Y009183D01*
X021819Y009282D02*
X020801Y009282D01*
X020703Y009380D02*
X021761Y009380D01*
X021720Y009479D02*
X020700Y009479D01*
X020799Y009577D02*
X021679Y009577D01*
X021676Y009676D02*
X020897Y009676D01*
X020937Y009774D02*
X021676Y009774D01*
X021676Y009873D02*
X020937Y009873D01*
X020937Y010070D02*
X021756Y010070D01*
X021715Y009971D02*
X020467Y009971D01*
X020467Y010070D02*
X020367Y010070D01*
X020367Y010168D02*
X020467Y010168D01*
X020467Y010267D02*
X020367Y010267D01*
X020367Y010365D02*
X020467Y010365D01*
X020718Y010365D02*
X022013Y010365D01*
X021905Y010267D02*
X020816Y010267D01*
X020915Y010168D02*
X021807Y010168D01*
X022251Y010464D02*
X016380Y010464D01*
X017718Y010365D02*
X018116Y010365D01*
X018017Y010267D02*
X017816Y010267D01*
X017915Y010168D02*
X017919Y010168D01*
X019348Y010661D02*
X019605Y010661D01*
X019820Y010661D02*
X020078Y010661D01*
X020293Y010661D02*
X020550Y010661D01*
X020765Y010661D02*
X021212Y010661D01*
X021059Y010725D02*
X021059Y010725D01*
X020116Y010365D02*
X019718Y010365D01*
X019816Y010267D02*
X020017Y010267D01*
X019919Y010168D02*
X019915Y010168D01*
X019912Y008691D02*
X019922Y008691D01*
X020020Y008592D02*
X019814Y008592D01*
X019715Y008494D02*
X020119Y008494D01*
X019504Y006466D02*
X019104Y006466D01*
X019066Y006456D01*
X019032Y006436D01*
X019004Y006408D01*
X018984Y006374D01*
X018974Y006336D01*
X018974Y006156D01*
X019504Y006156D01*
X019504Y006466D01*
X019504Y006425D02*
X019604Y006425D01*
X019604Y006327D02*
X019504Y006327D01*
X019504Y006228D02*
X019604Y006228D01*
X019604Y006130D02*
X020609Y006130D01*
X019604Y006031D02*
X019504Y006031D01*
X019504Y005933D02*
X019604Y005933D01*
X019604Y005834D02*
X019504Y005834D01*
X019504Y006130D02*
X013017Y006130D01*
X013017Y006228D02*
X018974Y006228D01*
X018974Y006327D02*
X013017Y006327D01*
X013017Y006425D02*
X019021Y006425D01*
X018974Y006031D02*
X013099Y006031D01*
X013198Y005933D02*
X018974Y005933D01*
X018543Y005440D02*
X013217Y005440D01*
X013289Y005342D02*
X018445Y005342D01*
X018346Y005243D02*
X013387Y005243D01*
X013417Y005145D02*
X018248Y005145D01*
X018149Y005046D02*
X013417Y005046D01*
X013417Y004948D02*
X018051Y004948D01*
X018017Y004849D02*
X013417Y004849D01*
X013417Y004751D02*
X018017Y004751D01*
X018017Y004652D02*
X013417Y004652D01*
X013417Y004554D02*
X018017Y004554D01*
X018017Y004455D02*
X013417Y004455D01*
X013417Y004357D02*
X018017Y004357D01*
X018017Y004258D02*
X013417Y004258D01*
X013417Y004160D02*
X018017Y004160D01*
X018017Y004061D02*
X013417Y004061D01*
X013417Y003963D02*
X018017Y003963D01*
X018217Y004831D02*
X018217Y002331D01*
X019017Y002387D02*
X021676Y002387D01*
X021676Y002478D02*
X021676Y002184D01*
X021789Y001912D01*
X021997Y001703D01*
X022270Y001591D01*
X022564Y001591D01*
X022836Y001703D01*
X023045Y001912D01*
X023157Y002184D01*
X023157Y002478D01*
X023045Y002751D01*
X022836Y002959D01*
X022564Y003072D01*
X022270Y003072D01*
X021997Y002959D01*
X021789Y002751D01*
X021676Y002478D01*
X021679Y002485D02*
X020059Y002485D01*
X020134Y002584D02*
X021720Y002584D01*
X021761Y002682D02*
X020134Y002682D01*
X020134Y002781D02*
X021819Y002781D01*
X021918Y002879D02*
X020134Y002879D01*
X020134Y002978D02*
X022043Y002978D01*
X022791Y002978D02*
X023252Y002978D01*
X023252Y003076D02*
X020134Y003076D01*
X020112Y002288D02*
X021676Y002288D01*
X021676Y002190D02*
X020134Y002190D01*
X020134Y002091D02*
X021715Y002091D01*
X021755Y001993D02*
X020134Y001993D01*
X020134Y001894D02*
X021806Y001894D01*
X021905Y001796D02*
X020134Y001796D01*
X020109Y001697D02*
X022012Y001697D01*
X022249Y001599D02*
X018868Y001599D01*
X018966Y001697D02*
X018998Y001697D01*
X018769Y001500D02*
X023091Y001500D01*
X023215Y001599D02*
X022584Y001599D01*
X022822Y001697D02*
X023249Y001697D01*
X023252Y001796D02*
X022929Y001796D01*
X023028Y001894D02*
X023252Y001894D01*
X023252Y001993D02*
X023078Y001993D01*
X023119Y002091D02*
X023252Y002091D01*
X023252Y002190D02*
X023157Y002190D01*
X023157Y002288D02*
X023252Y002288D01*
X023252Y002387D02*
X023157Y002387D01*
X023155Y002485D02*
X023252Y002485D01*
X023252Y002584D02*
X023114Y002584D01*
X023073Y002682D02*
X023252Y002682D01*
X023252Y002781D02*
X023014Y002781D01*
X022916Y002879D02*
X023252Y002879D01*
X021489Y004652D02*
X020134Y004652D01*
X019554Y005256D02*
X018642Y005256D01*
X018217Y004831D01*
X018617Y004948D02*
X019010Y004948D01*
X018974Y005046D02*
X018715Y005046D01*
X018941Y003372D02*
X019011Y003372D01*
X019017Y002485D02*
X019048Y002485D01*
X022367Y005145D02*
X022467Y005145D01*
X022467Y005243D02*
X022367Y005243D01*
X022367Y005342D02*
X022467Y005342D01*
X022467Y005440D02*
X022367Y005440D01*
X016417Y008531D02*
X016317Y008431D01*
X015917Y008431D01*
X016017Y008731D02*
X015517Y009231D01*
X015653Y011887D02*
X015653Y013598D01*
X015565Y013685D01*
X015436Y013685D01*
X015407Y013755D01*
X015323Y013840D01*
X014453Y014710D01*
X014453Y015361D01*
X014514Y015423D01*
X014574Y015363D01*
X015559Y015363D01*
X015646Y015451D01*
X015646Y015995D01*
X015559Y016083D01*
X014574Y016083D01*
X014514Y016023D01*
X014331Y016023D01*
X014220Y015977D01*
X013983Y015740D01*
X013899Y015655D01*
X013853Y015545D01*
X013853Y014526D01*
X013899Y014415D01*
X014753Y013561D01*
X014753Y011887D01*
X014645Y011887D01*
X014653Y011916D01*
X014653Y012685D01*
X014253Y012685D01*
X014253Y012785D01*
X014653Y012785D01*
X014653Y013555D01*
X014643Y013593D01*
X014623Y013628D01*
X014595Y013655D01*
X014561Y013675D01*
X014523Y013685D01*
X014253Y013685D01*
X014253Y012785D01*
X014153Y012785D01*
X014153Y013685D01*
X013883Y013685D01*
X013845Y013675D01*
X013811Y013655D01*
X013783Y013628D01*
X013763Y013593D01*
X013761Y013583D01*
X013761Y015904D01*
X013765Y015952D01*
X013802Y016040D01*
X013832Y016077D01*
X013869Y016114D01*
X013876Y016121D01*
X014433Y016677D01*
X014465Y016710D01*
X014548Y016910D01*
X014548Y017026D01*
X014574Y017000D01*
X015556Y017000D01*
X015653Y016903D01*
X015653Y016603D01*
X015743Y016513D01*
X015743Y016424D01*
X015790Y016310D01*
X015878Y016223D01*
X015991Y016175D01*
X016115Y016175D01*
X016229Y016223D01*
X016316Y016310D01*
X016363Y016424D01*
X016363Y016547D01*
X016316Y016661D01*
X016229Y016748D01*
X016115Y016795D01*
X016053Y016795D01*
X016053Y017068D01*
X015936Y017185D01*
X015646Y017475D01*
X015646Y017632D01*
X015559Y017720D01*
X014574Y017720D01*
X014548Y017694D01*
X014548Y017814D01*
X014574Y017787D01*
X015559Y017787D01*
X015646Y017875D01*
X015646Y017947D01*
X015675Y017947D01*
X015690Y017910D01*
X015778Y017823D01*
X015891Y017775D01*
X016015Y017775D01*
X016129Y017823D01*
X016216Y017910D01*
X016263Y018024D01*
X016263Y018147D01*
X022223Y018147D01*
X022223Y018245D02*
X016222Y018245D01*
X016216Y018261D02*
X016129Y018348D01*
X016015Y018395D01*
X015891Y018395D01*
X015778Y018348D01*
X015777Y018347D01*
X015646Y018347D01*
X015646Y018420D01*
X015559Y018507D01*
X014574Y018507D01*
X014548Y018481D01*
X014548Y018601D01*
X014574Y018575D01*
X015559Y018575D01*
X015646Y018663D01*
X015646Y018785D01*
X015715Y018785D01*
X015778Y018723D01*
X015891Y018675D01*
X016015Y018675D01*
X016129Y018723D01*
X016216Y018810D01*
X016263Y018924D01*
X016263Y019047D01*
X016216Y019161D01*
X016129Y019248D01*
X016015Y019295D01*
X015891Y019295D01*
X015778Y019248D01*
X015715Y019185D01*
X015646Y019185D01*
X015646Y019207D01*
X015559Y019295D01*
X014574Y019295D01*
X014548Y019269D01*
X014548Y019451D01*
X014574Y019425D01*
X015559Y019425D01*
X015646Y019513D01*
X015646Y019585D01*
X015715Y019585D01*
X015778Y019523D01*
X015891Y019475D01*
X016015Y019475D01*
X016129Y019523D01*
X016216Y019610D01*
X016263Y019724D01*
X016263Y019847D01*
X016216Y019961D01*
X016129Y020048D01*
X016015Y020095D01*
X015891Y020095D01*
X015778Y020048D01*
X015714Y019985D01*
X015646Y019985D01*
X015646Y020057D01*
X015559Y020145D01*
X014574Y020145D01*
X014548Y020118D01*
X014548Y020289D01*
X014574Y020262D01*
X015559Y020262D01*
X015646Y020350D01*
X015646Y020894D01*
X015559Y020982D01*
X014644Y020982D01*
X014656Y020994D01*
X014744Y021031D01*
X014792Y021035D01*
X023059Y021035D01*
X023107Y021031D01*
X023195Y020994D01*
X023232Y020957D01*
X022311Y020957D01*
X022223Y020869D01*
X022223Y020325D01*
X022311Y020237D01*
X023295Y020237D01*
X023303Y020245D01*
X023303Y020162D01*
X023295Y020170D01*
X022311Y020170D01*
X022223Y020082D01*
X022223Y019538D01*
X022311Y019450D01*
X023295Y019450D01*
X023303Y019458D01*
X023303Y019324D01*
X023295Y019332D01*
X022311Y019332D01*
X022223Y019244D01*
X022223Y018700D01*
X022311Y018612D01*
X023295Y018612D01*
X023303Y018620D01*
X023303Y018500D01*
X023295Y018507D01*
X022311Y018507D01*
X022223Y018420D01*
X022223Y017875D01*
X022311Y017787D01*
X023295Y017787D01*
X023303Y017795D01*
X023303Y017650D01*
X023295Y017658D01*
X022311Y017658D01*
X022223Y017570D01*
X022223Y017025D01*
X022311Y016938D01*
X023295Y016938D01*
X023303Y016945D01*
X023303Y016862D01*
X023295Y016870D01*
X022311Y016870D01*
X022223Y016782D01*
X022223Y016238D01*
X022311Y016150D01*
X023295Y016150D01*
X023303Y016158D01*
X023303Y016075D01*
X023295Y016083D01*
X022311Y016083D01*
X022223Y015995D01*
X022223Y015451D01*
X022311Y015363D01*
X023295Y015363D01*
X023303Y015371D01*
X023303Y015350D01*
X023295Y015358D01*
X022311Y015358D01*
X022223Y015270D01*
X022223Y014726D01*
X022311Y014638D01*
X022528Y014638D01*
X022528Y013155D01*
X022459Y013126D01*
X022312Y012980D01*
X022252Y012834D01*
X022235Y012885D01*
X022198Y012958D01*
X022150Y013024D01*
X022092Y013082D01*
X022026Y013130D01*
X021953Y013167D01*
X021875Y013193D01*
X021803Y013204D01*
X021803Y012735D01*
X021703Y012735D01*
X021703Y013204D01*
X021631Y013193D01*
X021554Y013167D01*
X021481Y013130D01*
X021414Y013082D01*
X021356Y013024D01*
X021308Y012958D01*
X021271Y012885D01*
X021255Y012834D01*
X021194Y012980D01*
X021048Y013126D01*
X020857Y013205D01*
X020650Y013205D01*
X020459Y013126D01*
X020312Y012980D01*
X020233Y012789D01*
X020233Y012582D01*
X020312Y012391D01*
X020438Y012265D01*
X019869Y012265D01*
X020073Y012470D01*
X020073Y012901D01*
X019789Y013185D01*
X020073Y013470D01*
X020073Y013635D01*
X019603Y013635D01*
X019603Y013735D01*
X020073Y013735D01*
X020073Y013901D01*
X019769Y014205D01*
X019603Y014205D01*
X019603Y013735D01*
X019503Y013735D01*
X019503Y014205D01*
X019338Y014205D01*
X019033Y013901D01*
X019033Y013841D01*
X018769Y014105D01*
X018338Y014105D01*
X018073Y013841D01*
X018073Y013901D01*
X017769Y014205D01*
X017338Y014205D01*
X017033Y013901D01*
X017033Y013543D01*
X016768Y013315D01*
X016758Y013315D01*
X016697Y013254D01*
X016653Y013217D01*
X016653Y013555D01*
X016643Y013593D01*
X016623Y013628D01*
X016595Y013655D01*
X016561Y013675D01*
X016523Y013685D01*
X016253Y013685D01*
X016253Y012785D01*
X016153Y012785D01*
X016153Y012685D01*
X015753Y012685D01*
X015753Y011916D01*
X015761Y011887D01*
X015653Y011887D01*
X015653Y011941D02*
X015753Y011941D01*
X015753Y012040D02*
X015653Y012040D01*
X015653Y012138D02*
X015753Y012138D01*
X015753Y012237D02*
X015653Y012237D01*
X015653Y012335D02*
X015753Y012335D01*
X015753Y012434D02*
X015653Y012434D01*
X015653Y012532D02*
X015753Y012532D01*
X015753Y012631D02*
X015653Y012631D01*
X015653Y012729D02*
X016153Y012729D01*
X016153Y012785D02*
X015753Y012785D01*
X015753Y013555D01*
X015763Y013593D01*
X015783Y013628D01*
X015811Y013655D01*
X015845Y013675D01*
X015883Y013685D01*
X016153Y013685D01*
X016153Y012785D01*
X016153Y012828D02*
X016253Y012828D01*
X016253Y012926D02*
X016153Y012926D01*
X016153Y013025D02*
X016253Y013025D01*
X016253Y013123D02*
X016153Y013123D01*
X016153Y013222D02*
X016253Y013222D01*
X016253Y013320D02*
X016153Y013320D01*
X016153Y013419D02*
X016253Y013419D01*
X016253Y013517D02*
X016153Y013517D01*
X016153Y013616D02*
X016253Y013616D01*
X015776Y013616D02*
X015635Y013616D01*
X015653Y013517D02*
X015753Y013517D01*
X015753Y013419D02*
X015653Y013419D01*
X015653Y013320D02*
X015753Y013320D01*
X015753Y013222D02*
X015653Y013222D01*
X015653Y013123D02*
X015753Y013123D01*
X015753Y013025D02*
X015653Y013025D01*
X015653Y012926D02*
X015753Y012926D01*
X015753Y012828D02*
X015653Y012828D01*
X014753Y012828D02*
X014653Y012828D01*
X014653Y012926D02*
X014753Y012926D01*
X014753Y013025D02*
X014653Y013025D01*
X014653Y013123D02*
X014753Y013123D01*
X014753Y013222D02*
X014653Y013222D01*
X014653Y013320D02*
X014753Y013320D01*
X014753Y013419D02*
X014653Y013419D01*
X014653Y013517D02*
X014753Y013517D01*
X014698Y013616D02*
X014630Y013616D01*
X014600Y013714D02*
X013761Y013714D01*
X013761Y013616D02*
X013776Y013616D01*
X013761Y013813D02*
X014501Y013813D01*
X014403Y013911D02*
X013761Y013911D01*
X013761Y014010D02*
X014304Y014010D01*
X014206Y014108D02*
X013761Y014108D01*
X013761Y014207D02*
X014107Y014207D01*
X014009Y014305D02*
X013761Y014305D01*
X013761Y014404D02*
X013910Y014404D01*
X013863Y014502D02*
X013761Y014502D01*
X013761Y014601D02*
X013853Y014601D01*
X013853Y014699D02*
X013761Y014699D01*
X013761Y014798D02*
X013853Y014798D01*
X013853Y014896D02*
X013761Y014896D01*
X013761Y014995D02*
X013853Y014995D01*
X013853Y015093D02*
X013761Y015093D01*
X013761Y015192D02*
X013853Y015192D01*
X013853Y015290D02*
X013761Y015290D01*
X013761Y015389D02*
X013853Y015389D01*
X013853Y015487D02*
X013761Y015487D01*
X013761Y015586D02*
X013870Y015586D01*
X013928Y015684D02*
X013761Y015684D01*
X013761Y015783D02*
X014026Y015783D01*
X014125Y015881D02*
X013761Y015881D01*
X013777Y015980D02*
X014227Y015980D01*
X013932Y016177D02*
X014550Y016177D01*
X014544Y016180D02*
X014579Y016160D01*
X014617Y016150D01*
X015016Y016150D01*
X015016Y016460D01*
X014486Y016460D01*
X014486Y016280D01*
X014497Y016242D01*
X014516Y016208D01*
X014544Y016180D01*
X014570Y016078D02*
X013834Y016078D01*
X013802Y016040D02*
X013802Y016040D01*
X014031Y016275D02*
X014488Y016275D01*
X014486Y016374D02*
X014129Y016374D01*
X014228Y016472D02*
X015016Y016472D01*
X015016Y016460D02*
X015016Y016560D01*
X014486Y016560D01*
X014486Y016740D01*
X014497Y016778D01*
X014516Y016812D01*
X014544Y016840D01*
X014579Y016860D01*
X014617Y016870D01*
X015016Y016870D01*
X015016Y016560D01*
X015116Y016560D01*
X015116Y016870D01*
X015516Y016870D01*
X015554Y016860D01*
X015589Y016840D01*
X015616Y016812D01*
X015636Y016778D01*
X015646Y016740D01*
X015646Y016560D01*
X015116Y016560D01*
X015116Y016460D01*
X015116Y016150D01*
X015516Y016150D01*
X015554Y016160D01*
X015589Y016180D01*
X015616Y016208D01*
X015636Y016242D01*
X015646Y016280D01*
X015646Y016460D01*
X015116Y016460D01*
X015016Y016460D01*
X015016Y016374D02*
X015116Y016374D01*
X015116Y016472D02*
X015743Y016472D01*
X015764Y016374D02*
X015646Y016374D01*
X015645Y016275D02*
X015825Y016275D01*
X015988Y016177D02*
X015583Y016177D01*
X015563Y016078D02*
X022307Y016078D01*
X022284Y016177D02*
X016118Y016177D01*
X016282Y016275D02*
X022223Y016275D01*
X022223Y016374D02*
X016342Y016374D01*
X016363Y016472D02*
X022223Y016472D01*
X022223Y016571D02*
X016353Y016571D01*
X016308Y016669D02*
X022223Y016669D01*
X022223Y016768D02*
X016181Y016768D01*
X016053Y016866D02*
X022307Y016866D01*
X022284Y016965D02*
X016053Y016965D01*
X016053Y017063D02*
X022223Y017063D01*
X022223Y017162D02*
X015959Y017162D01*
X015861Y017260D02*
X022223Y017260D01*
X022223Y017359D02*
X015762Y017359D01*
X015664Y017457D02*
X022223Y017457D01*
X022223Y017556D02*
X015646Y017556D01*
X015624Y017654D02*
X022308Y017654D01*
X022247Y017851D02*
X016158Y017851D01*
X016233Y017950D02*
X022223Y017950D01*
X022223Y018048D02*
X016263Y018048D01*
X016263Y018147D02*
X016216Y018261D01*
X016133Y018344D02*
X022223Y018344D01*
X022246Y018442D02*
X015624Y018442D01*
X015623Y018639D02*
X022284Y018639D01*
X022223Y018738D02*
X016144Y018738D01*
X016227Y018836D02*
X022223Y018836D01*
X022223Y018935D02*
X016263Y018935D01*
X016263Y019033D02*
X022223Y019033D01*
X022223Y019132D02*
X016228Y019132D01*
X016147Y019230D02*
X022223Y019230D01*
X022308Y019329D02*
X014548Y019329D01*
X014548Y019427D02*
X014572Y019427D01*
X015066Y019785D02*
X015952Y019785D01*
X015953Y019785D01*
X016233Y019920D02*
X022223Y019920D01*
X022223Y020018D02*
X016159Y020018D01*
X016263Y019821D02*
X022223Y019821D01*
X022223Y019723D02*
X016263Y019723D01*
X016222Y019624D02*
X022223Y019624D01*
X022235Y019526D02*
X016132Y019526D01*
X015774Y019526D02*
X015646Y019526D01*
X015561Y019427D02*
X023303Y019427D01*
X023299Y019329D02*
X023303Y019329D01*
X023303Y018541D02*
X014548Y018541D01*
X015066Y018147D02*
X015891Y018147D01*
X015953Y018085D01*
X015749Y017851D02*
X015623Y017851D01*
X015479Y017360D02*
X015066Y017360D01*
X015479Y017360D02*
X015853Y016985D01*
X015853Y016685D01*
X016053Y016485D01*
X015685Y016571D02*
X015646Y016571D01*
X015646Y016669D02*
X015653Y016669D01*
X015639Y016768D02*
X015653Y016768D01*
X015653Y016866D02*
X015530Y016866D01*
X015591Y016965D02*
X014548Y016965D01*
X014530Y016866D02*
X014603Y016866D01*
X014494Y016768D02*
X014489Y016768D01*
X014465Y016710D02*
X014465Y016710D01*
X014486Y016669D02*
X014425Y016669D01*
X014433Y016677D02*
X014433Y016677D01*
X014486Y016571D02*
X014326Y016571D01*
X015016Y016571D02*
X015116Y016571D01*
X015116Y016669D02*
X015016Y016669D01*
X015016Y016768D02*
X015116Y016768D01*
X015116Y016866D02*
X015016Y016866D01*
X015016Y016275D02*
X015116Y016275D01*
X015116Y016177D02*
X015016Y016177D01*
X015646Y015980D02*
X022223Y015980D01*
X022223Y015881D02*
X015646Y015881D01*
X015646Y015783D02*
X022223Y015783D01*
X022223Y015684D02*
X015646Y015684D01*
X015646Y015586D02*
X022223Y015586D01*
X022223Y015487D02*
X015646Y015487D01*
X015585Y015389D02*
X022285Y015389D01*
X022244Y015290D02*
X015622Y015290D01*
X015616Y015300D02*
X015589Y015328D01*
X015554Y015348D01*
X015516Y015358D01*
X015116Y015358D01*
X015116Y015048D01*
X015016Y015048D01*
X015016Y014948D01*
X014486Y014948D01*
X014486Y014768D01*
X014497Y014730D01*
X014516Y014696D01*
X014544Y014668D01*
X014579Y014648D01*
X014617Y014638D01*
X015016Y014638D01*
X015016Y014948D01*
X015116Y014948D01*
X015116Y014638D01*
X015516Y014638D01*
X015554Y014648D01*
X015589Y014668D01*
X015616Y014696D01*
X015636Y014730D01*
X015646Y014768D01*
X015646Y014948D01*
X015116Y014948D01*
X015116Y015048D01*
X015646Y015048D01*
X015646Y015228D01*
X015636Y015266D01*
X015616Y015300D01*
X015646Y015192D02*
X022223Y015192D01*
X022223Y015093D02*
X015646Y015093D01*
X015646Y014896D02*
X022223Y014896D01*
X022223Y014798D02*
X015646Y014798D01*
X015619Y014699D02*
X022249Y014699D01*
X022528Y014601D02*
X014562Y014601D01*
X014514Y014699D02*
X014463Y014699D01*
X014453Y014798D02*
X014486Y014798D01*
X014486Y014896D02*
X014453Y014896D01*
X014453Y014995D02*
X015016Y014995D01*
X015016Y015048D02*
X014486Y015048D01*
X014486Y015228D01*
X014497Y015266D01*
X014516Y015300D01*
X014544Y015328D01*
X014579Y015348D01*
X014617Y015358D01*
X015016Y015358D01*
X015016Y015048D01*
X015016Y015093D02*
X015116Y015093D01*
X015116Y014995D02*
X022223Y014995D01*
X022528Y014502D02*
X014660Y014502D01*
X014759Y014404D02*
X022528Y014404D01*
X022528Y014305D02*
X014857Y014305D01*
X014956Y014207D02*
X022528Y014207D01*
X022528Y014108D02*
X019866Y014108D01*
X019964Y014010D02*
X022528Y014010D01*
X022528Y013911D02*
X020063Y013911D01*
X020073Y013813D02*
X022528Y013813D01*
X022528Y013714D02*
X019603Y013714D01*
X019603Y013813D02*
X019503Y013813D01*
X019503Y013911D02*
X019603Y013911D01*
X019603Y014010D02*
X019503Y014010D01*
X019503Y014108D02*
X019603Y014108D01*
X019241Y014108D02*
X017866Y014108D01*
X017964Y014010D02*
X018242Y014010D01*
X018144Y013911D02*
X018063Y013911D01*
X018864Y014010D02*
X019142Y014010D01*
X019044Y013911D02*
X018963Y013911D01*
X019924Y013320D02*
X022528Y013320D01*
X022528Y013222D02*
X019825Y013222D01*
X019851Y013123D02*
X020456Y013123D01*
X020357Y013025D02*
X019949Y013025D01*
X020048Y012926D02*
X020290Y012926D01*
X020249Y012828D02*
X020073Y012828D01*
X020073Y012729D02*
X020233Y012729D01*
X020233Y012631D02*
X020073Y012631D01*
X020073Y012532D02*
X020254Y012532D01*
X020294Y012434D02*
X020037Y012434D01*
X019939Y012335D02*
X020368Y012335D01*
X021216Y012926D02*
X021292Y012926D01*
X021357Y013025D02*
X021149Y013025D01*
X021051Y013123D02*
X021471Y013123D01*
X021703Y013123D02*
X021803Y013123D01*
X021803Y013025D02*
X021703Y013025D01*
X021703Y012926D02*
X021803Y012926D01*
X021803Y012828D02*
X021703Y012828D01*
X022035Y013123D02*
X022456Y013123D01*
X022357Y013025D02*
X022149Y013025D01*
X022214Y012926D02*
X022290Y012926D01*
X022528Y013419D02*
X020022Y013419D01*
X020073Y013517D02*
X022528Y013517D01*
X022528Y013616D02*
X020073Y013616D01*
X017241Y014108D02*
X015054Y014108D01*
X015153Y014010D02*
X017142Y014010D01*
X017044Y013911D02*
X015251Y013911D01*
X015350Y013813D02*
X017033Y013813D01*
X017033Y013714D02*
X015424Y013714D01*
X015116Y014699D02*
X015016Y014699D01*
X015016Y014798D02*
X015116Y014798D01*
X015116Y014896D02*
X015016Y014896D01*
X015016Y015192D02*
X015116Y015192D01*
X015116Y015290D02*
X015016Y015290D01*
X014548Y015389D02*
X014481Y015389D01*
X014453Y015290D02*
X014511Y015290D01*
X014486Y015192D02*
X014453Y015192D01*
X014453Y015093D02*
X014486Y015093D01*
X013016Y016472D02*
X012734Y016472D01*
X012734Y016462D02*
X012734Y016641D01*
X012723Y016679D01*
X012704Y016714D01*
X012676Y016742D01*
X012642Y016761D01*
X012603Y016772D01*
X012204Y016772D01*
X012204Y016462D01*
X012104Y016462D01*
X012104Y016772D01*
X011704Y016772D01*
X011666Y016761D01*
X011632Y016742D01*
X011604Y016714D01*
X011584Y016679D01*
X011574Y016641D01*
X011574Y016462D01*
X012104Y016462D01*
X012104Y016362D01*
X011574Y016362D01*
X011574Y016182D01*
X011584Y016144D01*
X011604Y016109D01*
X011632Y016081D01*
X011666Y016062D01*
X011704Y016052D01*
X012104Y016052D01*
X012104Y016362D01*
X012204Y016362D01*
X012204Y016462D01*
X012734Y016462D01*
X012734Y016362D02*
X012204Y016362D01*
X012204Y016052D01*
X012603Y016052D01*
X012642Y016062D01*
X012676Y016081D01*
X012704Y016109D01*
X012723Y016144D01*
X012734Y016182D01*
X012734Y016362D01*
X012734Y016275D02*
X012819Y016275D01*
X012832Y016289D02*
X012756Y016212D01*
X012673Y016012D01*
X012673Y015894D01*
X012646Y015922D01*
X011661Y015922D01*
X011574Y015834D01*
X011574Y015762D01*
X011409Y015762D01*
X011169Y015521D01*
X011110Y015521D01*
X011005Y015478D01*
X010925Y015398D01*
X010882Y015293D01*
X010882Y015180D01*
X010925Y015075D01*
X011005Y014995D01*
X004997Y014995D01*
X004997Y015046D02*
X004909Y015134D01*
X003925Y015134D01*
X003917Y015126D01*
X003917Y015272D01*
X003925Y015264D01*
X004909Y015264D01*
X004997Y015352D01*
X004997Y015896D01*
X004909Y015984D01*
X003925Y015984D01*
X003917Y015976D01*
X003917Y016059D01*
X003925Y016052D01*
X004909Y016052D01*
X004997Y016139D01*
X004997Y016684D01*
X004909Y016772D01*
X003925Y016772D01*
X003917Y016764D01*
X003917Y016847D01*
X003925Y016839D01*
X004909Y016839D01*
X004997Y016927D01*
X004997Y017471D01*
X004909Y017559D01*
X003925Y017559D01*
X003917Y017551D01*
X003917Y017572D01*
X003925Y017564D01*
X004909Y017564D01*
X004994Y017649D01*
X005965Y017649D01*
X006215Y017399D01*
X006225Y017375D01*
X006305Y017295D01*
X006410Y017251D01*
X006524Y017251D01*
X006628Y017295D01*
X006709Y017375D01*
X006752Y017480D01*
X006752Y017593D01*
X006709Y017698D01*
X006628Y017778D01*
X006604Y017788D01*
X006235Y018157D01*
X006134Y018199D01*
X004994Y018199D01*
X004909Y018284D01*
X003925Y018284D01*
X003917Y018276D01*
X003917Y020791D01*
X003922Y020839D01*
X003958Y020927D01*
X004025Y020994D01*
X004113Y021030D01*
X004161Y021035D01*
X004206Y021035D01*
X013153Y021035D01*
X013153Y021035D01*
X013214Y021035D01*
X013216Y021035D01*
X013279Y021027D01*
X013388Y020964D01*
X013451Y020855D01*
X013459Y020792D01*
X013459Y020792D01*
X013461Y017017D01*
X013456Y016970D01*
X013419Y016882D01*
X013389Y016845D01*
X013346Y016802D01*
X013345Y016801D01*
X012836Y016293D01*
X012832Y016289D01*
X012756Y016212D02*
X012756Y016212D01*
X012741Y016177D02*
X012732Y016177D01*
X012701Y016078D02*
X012670Y016078D01*
X012673Y015980D02*
X004913Y015980D01*
X004936Y016078D02*
X011637Y016078D01*
X011575Y016177D02*
X004997Y016177D01*
X004997Y016275D02*
X011574Y016275D01*
X011574Y016472D02*
X004997Y016472D01*
X004997Y016374D02*
X012104Y016374D01*
X012104Y016472D02*
X012204Y016472D01*
X012204Y016374D02*
X012918Y016374D01*
X012734Y016571D02*
X013115Y016571D01*
X013213Y016669D02*
X012726Y016669D01*
X012617Y016768D02*
X013312Y016768D01*
X013406Y016866D02*
X012963Y016866D01*
X012956Y016860D02*
X013193Y017097D01*
X013306Y017210D01*
X013367Y017357D01*
X013367Y020285D01*
X013387Y020333D01*
X013387Y020540D01*
X013308Y020731D01*
X013161Y020877D01*
X012970Y020956D01*
X012763Y020956D01*
X012572Y020877D01*
X012426Y020731D01*
X012347Y020540D01*
X012347Y020333D01*
X012426Y020142D01*
X012567Y020001D01*
X012567Y018284D01*
X012204Y018284D01*
X012204Y017974D01*
X012104Y017974D01*
X012104Y018284D01*
X011704Y018284D01*
X011666Y018274D01*
X011632Y018254D01*
X011604Y018226D01*
X011584Y018192D01*
X011574Y018154D01*
X011574Y017974D01*
X012104Y017974D01*
X012104Y017874D01*
X011574Y017874D01*
X011574Y017694D01*
X011584Y017656D01*
X011604Y017622D01*
X011632Y017594D01*
X011666Y017574D01*
X011704Y017564D01*
X011989Y017564D01*
X011977Y017559D01*
X011661Y017559D01*
X011574Y017471D01*
X011574Y016927D01*
X011661Y016839D01*
X011977Y016839D01*
X012074Y016799D01*
X012809Y016799D01*
X012956Y016860D01*
X013061Y016965D02*
X013454Y016965D01*
X013461Y017063D02*
X013160Y017063D01*
X013258Y017162D02*
X013461Y017162D01*
X013460Y017260D02*
X013327Y017260D01*
X013367Y017359D02*
X013460Y017359D01*
X013460Y017457D02*
X013367Y017457D01*
X013367Y017556D02*
X013460Y017556D01*
X013460Y017654D02*
X013367Y017654D01*
X013367Y017753D02*
X013460Y017753D01*
X013460Y017851D02*
X013367Y017851D01*
X013367Y017950D02*
X013460Y017950D01*
X013460Y018048D02*
X013367Y018048D01*
X013367Y018147D02*
X013460Y018147D01*
X013460Y018245D02*
X013367Y018245D01*
X013367Y018344D02*
X013460Y018344D01*
X013460Y018442D02*
X013367Y018442D01*
X013367Y018541D02*
X013460Y018541D01*
X013460Y018639D02*
X013367Y018639D01*
X013367Y018738D02*
X013460Y018738D01*
X013460Y018836D02*
X013367Y018836D01*
X013367Y018935D02*
X013460Y018935D01*
X013460Y019033D02*
X013367Y019033D01*
X013367Y019132D02*
X013460Y019132D01*
X013460Y019230D02*
X013367Y019230D01*
X013367Y019329D02*
X013460Y019329D01*
X013460Y019427D02*
X013367Y019427D01*
X013367Y019526D02*
X013460Y019526D01*
X013460Y019624D02*
X013367Y019624D01*
X013367Y019723D02*
X013460Y019723D01*
X013460Y019821D02*
X013367Y019821D01*
X013367Y019920D02*
X013460Y019920D01*
X013459Y020018D02*
X013367Y020018D01*
X013367Y020117D02*
X013459Y020117D01*
X013459Y020215D02*
X013367Y020215D01*
X013379Y020314D02*
X013459Y020314D01*
X013459Y020412D02*
X013387Y020412D01*
X013387Y020511D02*
X013459Y020511D01*
X013459Y020609D02*
X013358Y020609D01*
X013317Y020708D02*
X013459Y020708D01*
X013457Y020806D02*
X013232Y020806D01*
X013094Y020905D02*
X013422Y020905D01*
X013319Y021003D02*
X004048Y021003D01*
X003949Y020905D02*
X012640Y020905D01*
X012502Y020806D02*
X003918Y020806D01*
X003917Y020708D02*
X009603Y020708D01*
X009652Y020756D02*
X009347Y020452D01*
X009347Y020392D01*
X009082Y020656D01*
X008652Y020656D01*
X008347Y020352D01*
X008347Y019921D01*
X008632Y019636D01*
X008347Y019352D01*
X008347Y019186D01*
X008817Y019186D01*
X008817Y019086D01*
X008917Y019086D01*
X008917Y018616D01*
X009082Y018616D01*
X009387Y018921D01*
X009387Y018981D01*
X009652Y018716D01*
X010082Y018716D01*
X010347Y018981D01*
X010347Y018921D01*
X010652Y018616D01*
X011082Y018616D01*
X011387Y018921D01*
X011387Y019352D01*
X011102Y019636D01*
X011387Y019921D01*
X011387Y020352D01*
X011082Y020656D01*
X010652Y020656D01*
X010387Y020392D01*
X010387Y020452D01*
X010082Y020756D01*
X009652Y020756D01*
X009505Y020609D02*
X009129Y020609D01*
X009228Y020511D02*
X009406Y020511D01*
X009347Y020412D02*
X009326Y020412D01*
X008605Y020609D02*
X007584Y020609D01*
X007567Y020618D02*
X007489Y020643D01*
X007417Y020655D01*
X007417Y020186D01*
X007885Y020186D01*
X007874Y020258D01*
X007849Y020336D01*
X007812Y020409D01*
X007764Y020475D01*
X007706Y020533D01*
X007639Y020581D01*
X007567Y020618D01*
X007417Y020609D02*
X007317Y020609D01*
X007317Y020655D02*
X007245Y020643D01*
X007167Y020618D01*
X007094Y020581D01*
X007028Y020533D01*
X006970Y020475D01*
X006922Y020409D01*
X006885Y020336D01*
X006860Y020258D01*
X006848Y020186D01*
X007317Y020186D01*
X007317Y020086D01*
X006848Y020086D01*
X006860Y020014D01*
X006885Y019937D01*
X006922Y019864D01*
X006970Y019797D01*
X007028Y019740D01*
X007094Y019691D01*
X007167Y019654D01*
X007219Y019638D01*
X007072Y019577D01*
X006926Y019431D01*
X006847Y019240D01*
X006847Y019033D01*
X006926Y018842D01*
X007072Y018695D01*
X007263Y018616D01*
X007470Y018616D01*
X007661Y018695D01*
X007808Y018842D01*
X007887Y019033D01*
X007887Y019240D01*
X007808Y019431D01*
X007661Y019577D01*
X007515Y019638D01*
X007567Y019654D01*
X007639Y019691D01*
X007706Y019740D01*
X007764Y019797D01*
X007812Y019864D01*
X007849Y019937D01*
X007874Y020014D01*
X007885Y020086D01*
X007417Y020086D01*
X007417Y020186D01*
X007317Y020186D01*
X007317Y020655D01*
X007317Y020511D02*
X007417Y020511D01*
X007417Y020412D02*
X007317Y020412D01*
X007317Y020314D02*
X007417Y020314D01*
X007417Y020215D02*
X007317Y020215D01*
X007317Y020117D02*
X005096Y020117D01*
X005096Y020101D02*
X005096Y020159D01*
X005474Y020159D01*
X005474Y020299D01*
X005236Y020537D01*
X005096Y020537D01*
X005096Y020159D01*
X005038Y020159D01*
X005038Y020537D01*
X004898Y020537D01*
X004659Y020299D01*
X004659Y020159D01*
X005038Y020159D01*
X005038Y020101D01*
X004659Y020101D01*
X004659Y019961D01*
X004884Y019736D01*
X004659Y019511D01*
X004659Y019174D01*
X004898Y018935D01*
X005236Y018935D01*
X005474Y019174D01*
X005474Y019511D01*
X005249Y019736D01*
X005474Y019961D01*
X005474Y020101D01*
X005096Y020101D01*
X005038Y020117D02*
X003917Y020117D01*
X003917Y020215D02*
X004659Y020215D01*
X004675Y020314D02*
X003917Y020314D01*
X003917Y020412D02*
X004773Y020412D01*
X004872Y020511D02*
X003917Y020511D01*
X003917Y020609D02*
X007150Y020609D01*
X007006Y020511D02*
X005262Y020511D01*
X005361Y020412D02*
X006925Y020412D01*
X006878Y020314D02*
X005459Y020314D01*
X005474Y020215D02*
X006853Y020215D01*
X006859Y020018D02*
X005474Y020018D01*
X005433Y019920D02*
X006894Y019920D01*
X006953Y019821D02*
X005335Y019821D01*
X005263Y019723D02*
X007051Y019723D01*
X007187Y019624D02*
X005361Y019624D01*
X005460Y019526D02*
X007021Y019526D01*
X006925Y019427D02*
X005474Y019427D01*
X005474Y019329D02*
X006884Y019329D01*
X006847Y019230D02*
X005474Y019230D01*
X005433Y019132D02*
X006847Y019132D01*
X006847Y019033D02*
X005334Y019033D01*
X004800Y019033D02*
X003917Y019033D01*
X003917Y018935D02*
X006887Y018935D01*
X006931Y018836D02*
X003917Y018836D01*
X003917Y018738D02*
X007030Y018738D01*
X007207Y018639D02*
X003917Y018639D01*
X003917Y018541D02*
X012567Y018541D01*
X012567Y018639D02*
X011106Y018639D01*
X011204Y018738D02*
X012567Y018738D01*
X012567Y018836D02*
X011303Y018836D01*
X011387Y018935D02*
X012567Y018935D01*
X012567Y019033D02*
X011387Y019033D01*
X011387Y019132D02*
X012567Y019132D01*
X012567Y019230D02*
X011387Y019230D01*
X011387Y019329D02*
X012567Y019329D01*
X012567Y019427D02*
X011311Y019427D01*
X011213Y019526D02*
X012567Y019526D01*
X012567Y019624D02*
X011114Y019624D01*
X011189Y019723D02*
X012567Y019723D01*
X012567Y019821D02*
X011288Y019821D01*
X011386Y019920D02*
X012567Y019920D01*
X012549Y020018D02*
X011387Y020018D01*
X011387Y020117D02*
X012451Y020117D01*
X012396Y020215D02*
X011387Y020215D01*
X011387Y020314D02*
X012355Y020314D01*
X012347Y020412D02*
X011326Y020412D01*
X011228Y020511D02*
X012347Y020511D01*
X012376Y020609D02*
X011129Y020609D01*
X010605Y020609D02*
X010229Y020609D01*
X010328Y020511D02*
X010506Y020511D01*
X010408Y020412D02*
X010387Y020412D01*
X010131Y020708D02*
X012417Y020708D01*
X014548Y020215D02*
X023303Y020215D01*
X023173Y021003D02*
X014678Y021003D01*
X015636Y020905D02*
X022259Y020905D01*
X022223Y020806D02*
X015646Y020806D01*
X015646Y020708D02*
X022223Y020708D01*
X022223Y020609D02*
X015646Y020609D01*
X015646Y020511D02*
X022223Y020511D01*
X022223Y020412D02*
X015646Y020412D01*
X015610Y020314D02*
X022234Y020314D01*
X022258Y020117D02*
X015586Y020117D01*
X015646Y020018D02*
X015748Y020018D01*
X015760Y019230D02*
X015623Y019230D01*
X015953Y018985D02*
X015117Y018985D01*
X015066Y018935D01*
X015646Y018738D02*
X015762Y018738D01*
X014548Y017753D02*
X023303Y017753D01*
X023298Y017654D02*
X023303Y017654D01*
X023299Y016866D02*
X023303Y016866D01*
X023300Y016078D02*
X023303Y016078D01*
X017033Y013616D02*
X016630Y013616D01*
X016653Y013517D02*
X017004Y013517D01*
X016889Y013419D02*
X016653Y013419D01*
X016653Y013320D02*
X016774Y013320D01*
X016659Y013222D02*
X016653Y013222D01*
X014753Y012729D02*
X014253Y012729D01*
X014253Y012828D02*
X014153Y012828D01*
X014153Y012926D02*
X014253Y012926D01*
X014253Y013025D02*
X014153Y013025D01*
X014153Y013123D02*
X014253Y013123D01*
X014253Y013222D02*
X014153Y013222D01*
X014153Y013320D02*
X014253Y013320D01*
X014253Y013419D02*
X014153Y013419D01*
X014153Y013517D02*
X014253Y013517D01*
X014253Y013616D02*
X014153Y013616D01*
X014653Y012631D02*
X014753Y012631D01*
X014753Y012532D02*
X014653Y012532D01*
X014653Y012434D02*
X014753Y012434D01*
X014753Y012335D02*
X014653Y012335D01*
X014653Y012237D02*
X014753Y012237D01*
X014753Y012138D02*
X014653Y012138D01*
X014653Y012040D02*
X014753Y012040D01*
X014753Y011941D02*
X014653Y011941D01*
X012567Y011939D02*
X012491Y011895D01*
X012427Y011886D01*
X010011Y011887D01*
X009964Y011887D01*
X009887Y011887D01*
X009887Y011887D01*
X009841Y011887D01*
X009641Y011804D01*
X009574Y011736D01*
X009508Y011736D01*
X009501Y011753D01*
X009415Y011840D01*
X009302Y011887D01*
X009179Y011887D01*
X009066Y011840D01*
X009004Y011778D01*
X008942Y011840D01*
X008829Y011887D01*
X008707Y011887D01*
X008594Y011840D01*
X008532Y011778D01*
X008470Y011840D01*
X008357Y011887D01*
X008234Y011887D01*
X008121Y011840D01*
X008059Y011778D01*
X007997Y011840D01*
X007884Y011887D01*
X007762Y011887D01*
X007649Y011840D01*
X007587Y011778D01*
X007525Y011840D01*
X007412Y011887D01*
X007290Y011887D01*
X007177Y011840D01*
X007115Y011778D01*
X007053Y011840D01*
X006939Y011887D01*
X006817Y011887D01*
X006704Y011840D01*
X006642Y011778D01*
X006580Y011840D01*
X006467Y011887D01*
X006345Y011887D01*
X006232Y011840D01*
X006170Y011778D01*
X006108Y011840D01*
X005995Y011887D01*
X005872Y011887D01*
X005759Y011840D01*
X005673Y011753D01*
X005666Y011736D01*
X005600Y011736D01*
X005533Y011803D01*
X005333Y011886D01*
X004161Y011886D01*
X004113Y011891D01*
X004025Y011927D01*
X003988Y011964D01*
X004909Y011964D01*
X004997Y012052D01*
X004997Y012597D01*
X004909Y012684D01*
X003925Y012684D01*
X003917Y012677D01*
X003917Y012760D01*
X003925Y012752D01*
X004909Y012752D01*
X004997Y012840D01*
X004997Y013384D01*
X004909Y013472D01*
X003925Y013472D01*
X003917Y013464D01*
X003917Y013597D01*
X003925Y013589D01*
X004909Y013589D01*
X004997Y013677D01*
X004997Y014222D01*
X004909Y014309D01*
X003925Y014309D01*
X003917Y014302D01*
X003917Y014422D01*
X003925Y014414D01*
X004909Y014414D01*
X004997Y014502D01*
X004997Y015046D01*
X004950Y015093D02*
X010918Y015093D01*
X010882Y015192D02*
X003917Y015192D01*
X003917Y014404D02*
X009086Y014404D01*
X009082Y014393D02*
X009082Y014334D01*
X008967Y014219D01*
X008967Y012253D01*
X009084Y012136D01*
X009184Y012036D01*
X009364Y012036D01*
X009405Y011995D01*
X009510Y011951D01*
X009624Y011951D01*
X009728Y011995D01*
X009809Y012075D01*
X009852Y012180D01*
X009852Y012293D01*
X009809Y012398D01*
X009728Y012478D01*
X009624Y012521D01*
X009510Y012521D01*
X009405Y012478D01*
X009367Y012439D01*
X009367Y014051D01*
X009424Y014051D01*
X009528Y014095D01*
X009609Y014175D01*
X009652Y014280D01*
X009652Y014393D01*
X009609Y014498D01*
X009528Y014578D01*
X009424Y014621D01*
X009310Y014621D01*
X009205Y014578D01*
X009125Y014498D01*
X009082Y014393D01*
X009053Y014305D02*
X004913Y014305D01*
X004997Y014207D02*
X008967Y014207D01*
X008967Y014108D02*
X004997Y014108D01*
X004997Y014010D02*
X008967Y014010D01*
X008967Y013911D02*
X004997Y013911D01*
X004997Y013813D02*
X008967Y013813D01*
X008967Y013714D02*
X004997Y013714D01*
X004936Y013616D02*
X008967Y013616D01*
X008967Y013517D02*
X003917Y013517D01*
X003917Y014305D02*
X003921Y014305D01*
X004997Y014502D02*
X009130Y014502D01*
X009261Y014601D02*
X004997Y014601D01*
X004997Y014699D02*
X011447Y014699D01*
X011349Y014601D02*
X009473Y014601D01*
X009604Y014502D02*
X011250Y014502D01*
X011184Y014436D02*
X010084Y014436D01*
X009884Y014236D01*
X009767Y014119D01*
X009767Y013819D01*
X009717Y013769D01*
X009717Y013253D01*
X009834Y013136D01*
X009932Y013038D01*
X009932Y012980D01*
X009975Y012875D01*
X010055Y012795D01*
X010160Y012751D01*
X010274Y012751D01*
X010378Y012795D01*
X010459Y012875D01*
X010502Y012980D01*
X010502Y013093D01*
X010459Y013198D01*
X010378Y013278D01*
X010331Y013297D01*
X010409Y013375D01*
X010452Y013480D01*
X010452Y013593D01*
X010409Y013698D01*
X010367Y013739D01*
X010367Y013787D01*
X011574Y013787D01*
X011574Y013715D01*
X011661Y013627D01*
X012646Y013627D01*
X012673Y013654D01*
X012673Y013470D01*
X012646Y013497D01*
X011661Y013497D01*
X011574Y013409D01*
X011574Y013021D01*
X011510Y013021D01*
X011405Y012978D01*
X011325Y012898D01*
X011282Y012793D01*
X011282Y012680D01*
X011325Y012575D01*
X011405Y012495D01*
X011510Y012451D01*
X011574Y012451D01*
X011574Y012027D01*
X011661Y011939D01*
X012567Y011939D01*
X011753Y012736D02*
X012154Y013137D01*
X011753Y012736D02*
X011567Y012736D01*
X011368Y012532D02*
X009367Y012532D01*
X009367Y012631D02*
X011302Y012631D01*
X011282Y012729D02*
X009367Y012729D01*
X009367Y012828D02*
X010022Y012828D01*
X009954Y012926D02*
X009367Y012926D01*
X009367Y013025D02*
X009932Y013025D01*
X009847Y013123D02*
X009367Y013123D01*
X009367Y013222D02*
X009748Y013222D01*
X009717Y013320D02*
X009367Y013320D01*
X009367Y013419D02*
X009717Y013419D01*
X009717Y013517D02*
X009367Y013517D01*
X009367Y013616D02*
X009717Y013616D01*
X009717Y013714D02*
X009367Y013714D01*
X009367Y013813D02*
X009761Y013813D01*
X009767Y013911D02*
X009367Y013911D01*
X009367Y014010D02*
X009767Y014010D01*
X009767Y014108D02*
X009542Y014108D01*
X009622Y014207D02*
X009855Y014207D01*
X009953Y014305D02*
X009652Y014305D01*
X009647Y014404D02*
X010052Y014404D01*
X010167Y014236D02*
X009967Y014036D01*
X009967Y013736D01*
X009917Y013686D01*
X009917Y013336D01*
X010217Y013036D01*
X010480Y012926D02*
X011354Y012926D01*
X011296Y012828D02*
X010412Y012828D01*
X010502Y013025D02*
X011574Y013025D01*
X011574Y013123D02*
X010489Y013123D01*
X010434Y013222D02*
X011574Y013222D01*
X011574Y013320D02*
X010354Y013320D01*
X010427Y013419D02*
X011584Y013419D01*
X011574Y013714D02*
X010392Y013714D01*
X010442Y013616D02*
X012673Y013616D01*
X012673Y013517D02*
X010452Y013517D01*
X010167Y013536D02*
X010167Y013936D01*
X010218Y013987D01*
X012154Y013987D01*
X012154Y014774D02*
X011805Y014774D01*
X011267Y014236D01*
X010167Y014236D01*
X009367Y014336D02*
X009167Y014136D01*
X009167Y012336D01*
X009267Y012236D01*
X009567Y012236D01*
X009774Y012040D02*
X011574Y012040D01*
X011574Y012138D02*
X009835Y012138D01*
X009852Y012237D02*
X011574Y012237D01*
X011574Y012335D02*
X009834Y012335D01*
X009772Y012434D02*
X011574Y012434D01*
X011659Y011941D02*
X004011Y011941D01*
X003917Y012729D02*
X008967Y012729D01*
X008967Y012631D02*
X004963Y012631D01*
X004997Y012532D02*
X008967Y012532D01*
X008967Y012434D02*
X004997Y012434D01*
X004997Y012335D02*
X008967Y012335D01*
X008983Y012237D02*
X004997Y012237D01*
X004997Y012138D02*
X009082Y012138D01*
X009180Y012040D02*
X004985Y012040D01*
X005438Y011843D02*
X005767Y011843D01*
X005669Y011744D02*
X005592Y011744D01*
X005533Y011803D02*
X005533Y011803D01*
X006100Y011843D02*
X006239Y011843D01*
X006573Y011843D02*
X006712Y011843D01*
X007045Y011843D02*
X007184Y011843D01*
X007517Y011843D02*
X007657Y011843D01*
X007990Y011843D02*
X008129Y011843D01*
X008462Y011843D02*
X008601Y011843D01*
X008935Y011843D02*
X009074Y011843D01*
X009407Y011843D02*
X009736Y011843D01*
X009641Y011804D02*
X009641Y011804D01*
X009582Y011744D02*
X009505Y011744D01*
X009841Y011887D02*
X009841Y011887D01*
X010011Y011887D02*
X010011Y011887D01*
X009641Y010725D02*
X009641Y010725D01*
X009795Y010661D02*
X009348Y010661D01*
X009133Y010661D02*
X008876Y010661D01*
X008661Y010661D02*
X008403Y010661D01*
X008188Y010661D02*
X007931Y010661D01*
X007923Y010562D02*
X003937Y010562D01*
X003879Y010464D02*
X004551Y010464D01*
X004570Y010472D02*
X004297Y010359D01*
X004089Y010151D01*
X003976Y009878D01*
X003976Y009584D01*
X004089Y009312D01*
X004297Y009103D01*
X004570Y008991D01*
X004864Y008991D01*
X005136Y009103D01*
X005345Y009312D01*
X005457Y009584D01*
X005457Y009878D01*
X005345Y010151D01*
X005136Y010359D01*
X004864Y010472D01*
X004570Y010472D01*
X004313Y010365D02*
X003867Y010365D01*
X003867Y010267D02*
X004205Y010267D01*
X004107Y010168D02*
X003867Y010168D01*
X003867Y010070D02*
X004056Y010070D01*
X004015Y009971D02*
X003867Y009971D01*
X003867Y009873D02*
X003976Y009873D01*
X003976Y009774D02*
X003867Y009774D01*
X003867Y009676D02*
X003976Y009676D01*
X003979Y009577D02*
X003867Y009577D01*
X003867Y009479D02*
X004020Y009479D01*
X004061Y009380D02*
X003867Y009380D01*
X003867Y009282D02*
X004119Y009282D01*
X004217Y009183D02*
X003867Y009183D01*
X003867Y009085D02*
X004342Y009085D01*
X005092Y009085D02*
X006317Y009085D01*
X006317Y009183D02*
X005217Y009183D01*
X005315Y009282D02*
X006317Y009282D01*
X006317Y009380D02*
X005373Y009380D01*
X005414Y009479D02*
X006317Y009479D01*
X006317Y009577D02*
X005455Y009577D01*
X005457Y009676D02*
X006317Y009676D01*
X006317Y009774D02*
X005457Y009774D01*
X005457Y009873D02*
X006704Y009873D01*
X006729Y009873D02*
X007233Y009873D01*
X007117Y009894D02*
X007117Y010026D01*
X007107Y010064D01*
X007087Y010098D01*
X007059Y010126D01*
X007025Y010146D01*
X006987Y010156D01*
X006729Y010156D01*
X006729Y009894D01*
X007117Y009894D01*
X007117Y009971D02*
X007332Y009971D01*
X007430Y010070D02*
X007103Y010070D01*
X007117Y009774D02*
X007135Y009774D01*
X006729Y009971D02*
X006704Y009971D01*
X006704Y010070D02*
X006729Y010070D01*
X006331Y010070D02*
X005378Y010070D01*
X005419Y009971D02*
X006317Y009971D01*
X006298Y010661D02*
X006041Y010661D01*
X005826Y010661D02*
X005379Y010661D01*
X005533Y010725D02*
X005533Y010725D01*
X005121Y010365D02*
X007726Y010365D01*
X007627Y010267D02*
X005228Y010267D01*
X005327Y010168D02*
X007529Y010168D01*
X007824Y010464D02*
X004883Y010464D01*
X006513Y010661D02*
X006771Y010661D01*
X006986Y010661D02*
X007243Y010661D01*
X007458Y010661D02*
X007716Y010661D01*
X008967Y012828D02*
X004985Y012828D01*
X004997Y012926D02*
X008967Y012926D01*
X008967Y013025D02*
X004997Y013025D01*
X004997Y013123D02*
X008967Y013123D01*
X008967Y013222D02*
X004997Y013222D01*
X004997Y013320D02*
X008967Y013320D01*
X008967Y013419D02*
X004962Y013419D01*
X004997Y014798D02*
X011546Y014798D01*
X011574Y014826D02*
X011184Y014436D01*
X011224Y014951D02*
X011110Y014951D01*
X011005Y014995D01*
X011224Y014951D02*
X011328Y014995D01*
X011409Y015075D01*
X011452Y015180D01*
X011452Y015238D01*
X011574Y015360D01*
X011574Y015289D01*
X011661Y015202D01*
X012646Y015202D01*
X012673Y015229D01*
X012673Y015107D01*
X012646Y015134D01*
X011661Y015134D01*
X011574Y015046D01*
X011574Y014826D01*
X011574Y014896D02*
X004997Y014896D01*
X004935Y015290D02*
X010882Y015290D01*
X010922Y015389D02*
X004997Y015389D01*
X004997Y015487D02*
X011029Y015487D01*
X011234Y015586D02*
X004997Y015586D01*
X004997Y015684D02*
X011332Y015684D01*
X011492Y015562D02*
X011167Y015236D01*
X011416Y015093D02*
X011621Y015093D01*
X011574Y014995D02*
X011329Y014995D01*
X011452Y015192D02*
X012673Y015192D01*
X012154Y015562D02*
X011492Y015562D01*
X011574Y015783D02*
X004997Y015783D01*
X004997Y015881D02*
X011621Y015881D01*
X012104Y016078D02*
X012204Y016078D01*
X012204Y016177D02*
X012104Y016177D01*
X012104Y016275D02*
X012204Y016275D01*
X012204Y016571D02*
X012104Y016571D01*
X012104Y016669D02*
X012204Y016669D01*
X012204Y016768D02*
X012104Y016768D01*
X011691Y016768D02*
X004913Y016768D01*
X004937Y016866D02*
X011634Y016866D01*
X011574Y016965D02*
X004997Y016965D01*
X004997Y017063D02*
X011574Y017063D01*
X011574Y017162D02*
X004997Y017162D01*
X004997Y017260D02*
X006388Y017260D01*
X006546Y017260D02*
X011574Y017260D01*
X011574Y017359D02*
X006693Y017359D01*
X006743Y017457D02*
X011574Y017457D01*
X011659Y017556D02*
X006752Y017556D01*
X006726Y017654D02*
X011585Y017654D01*
X011574Y017753D02*
X006653Y017753D01*
X006541Y017851D02*
X011574Y017851D01*
X011574Y018048D02*
X006344Y018048D01*
X006442Y017950D02*
X012104Y017950D01*
X012104Y018048D02*
X012204Y018048D01*
X012204Y018147D02*
X012104Y018147D01*
X012104Y018245D02*
X012204Y018245D01*
X012567Y018344D02*
X003917Y018344D01*
X003917Y018442D02*
X012567Y018442D01*
X011623Y018245D02*
X004947Y018245D01*
X004912Y017556D02*
X006058Y017556D01*
X006157Y017457D02*
X004997Y017457D01*
X004997Y017359D02*
X006241Y017359D01*
X006245Y018147D02*
X011574Y018147D01*
X010628Y018639D02*
X009106Y018639D01*
X009204Y018738D02*
X009630Y018738D01*
X009531Y018836D02*
X009303Y018836D01*
X009387Y018935D02*
X009433Y018935D01*
X008917Y018935D02*
X008817Y018935D01*
X008817Y019033D02*
X008917Y019033D01*
X008817Y019086D02*
X008817Y018616D01*
X008652Y018616D01*
X008347Y018921D01*
X008347Y019086D01*
X008817Y019086D01*
X008817Y019132D02*
X007887Y019132D01*
X007887Y019230D02*
X008347Y019230D01*
X008347Y019329D02*
X007850Y019329D01*
X007809Y019427D02*
X008423Y019427D01*
X008521Y019526D02*
X007713Y019526D01*
X007547Y019624D02*
X008620Y019624D01*
X008545Y019723D02*
X007683Y019723D01*
X007781Y019821D02*
X008446Y019821D01*
X008348Y019920D02*
X007840Y019920D01*
X007875Y020018D02*
X008347Y020018D01*
X008347Y020117D02*
X007417Y020117D01*
X007881Y020215D02*
X008347Y020215D01*
X008347Y020314D02*
X007856Y020314D01*
X007809Y020412D02*
X008408Y020412D01*
X008506Y020511D02*
X007728Y020511D01*
X007887Y019033D02*
X008347Y019033D01*
X008347Y018935D02*
X007846Y018935D01*
X007803Y018836D02*
X008431Y018836D01*
X008530Y018738D02*
X007704Y018738D01*
X007526Y018639D02*
X008628Y018639D01*
X008817Y018639D02*
X008917Y018639D01*
X008917Y018738D02*
X008817Y018738D01*
X008817Y018836D02*
X008917Y018836D01*
X010104Y018738D02*
X010530Y018738D01*
X010431Y018836D02*
X010203Y018836D01*
X010301Y018935D02*
X010347Y018935D01*
X011581Y016669D02*
X004997Y016669D01*
X004997Y016571D02*
X011574Y016571D01*
X011574Y015290D02*
X011504Y015290D01*
X011465Y010562D02*
X011239Y010562D01*
X010974Y008001D02*
X011587Y008001D01*
X011249Y007903D02*
X011081Y007903D01*
X011122Y007804D02*
X011237Y007804D01*
X011237Y007706D02*
X011127Y007706D01*
X010721Y005834D02*
X003867Y005834D01*
X003867Y005736D02*
X010774Y005736D01*
X010746Y005637D02*
X003867Y005637D01*
X003867Y005539D02*
X010586Y005539D01*
X010527Y005440D02*
X003867Y005440D01*
X003867Y005342D02*
X010507Y005342D01*
X010518Y005243D02*
X003867Y005243D01*
X003867Y005145D02*
X010565Y005145D01*
X010694Y005046D02*
X003867Y005046D01*
X003867Y004948D02*
X010917Y004948D01*
X011016Y004849D02*
X003867Y004849D01*
X003867Y004751D02*
X011114Y004751D01*
X011237Y004652D02*
X003867Y004652D01*
X003867Y004554D02*
X011237Y004554D01*
X011237Y004455D02*
X003867Y004455D01*
X003867Y004357D02*
X011237Y004357D01*
X011237Y004258D02*
X003867Y004258D01*
X003867Y004160D02*
X011274Y004160D01*
X011283Y003963D02*
X003867Y003963D01*
X003867Y004061D02*
X012217Y004061D01*
X012417Y004731D02*
X012267Y004881D01*
X011267Y004881D01*
X010817Y005331D01*
X011127Y005342D02*
X011237Y005342D01*
X011237Y005440D02*
X011107Y005440D01*
X011126Y005539D02*
X011048Y005539D01*
X010916Y005637D02*
X010888Y005637D01*
X011187Y005243D02*
X011237Y005243D01*
X012417Y004731D02*
X012417Y003031D01*
X012217Y002831D01*
X011841Y002831D01*
X011817Y002807D01*
X012217Y003175D02*
X003867Y003175D01*
X003867Y003273D02*
X012217Y003273D01*
X012397Y002682D02*
X012417Y002682D01*
X012417Y002584D02*
X012397Y002584D01*
X012417Y002485D02*
X012348Y002485D01*
X012309Y002379D02*
X011325Y002379D01*
X011237Y002291D01*
X011237Y001747D01*
X011325Y001659D01*
X012309Y001659D01*
X012397Y001747D01*
X012397Y002291D01*
X012309Y002379D01*
X012417Y002387D02*
X005457Y002387D01*
X005457Y002478D02*
X005457Y002184D01*
X005345Y001912D01*
X005136Y001703D01*
X004864Y001591D01*
X004570Y001591D01*
X004297Y001703D01*
X004089Y001912D01*
X003976Y002184D01*
X003976Y002478D01*
X004089Y002751D01*
X004297Y002959D01*
X004570Y003072D01*
X004864Y003072D01*
X005136Y002959D01*
X005345Y002751D01*
X005457Y002478D01*
X005455Y002485D02*
X011286Y002485D01*
X011237Y002584D02*
X005414Y002584D01*
X005373Y002682D02*
X011237Y002682D01*
X011237Y002781D02*
X005314Y002781D01*
X005216Y002879D02*
X011237Y002879D01*
X011237Y002978D02*
X005091Y002978D01*
X004343Y002978D02*
X003867Y002978D01*
X003867Y003076D02*
X011237Y003076D01*
X011237Y003372D02*
X003867Y003372D01*
X003867Y003470D02*
X011237Y003470D01*
X011237Y003569D02*
X003867Y003569D01*
X003867Y003667D02*
X011237Y003667D01*
X011237Y003766D02*
X003867Y003766D01*
X003867Y003864D02*
X011237Y003864D01*
X011237Y002288D02*
X005457Y002288D01*
X005457Y002190D02*
X011237Y002190D01*
X011237Y002091D02*
X005419Y002091D01*
X005378Y001993D02*
X011237Y001993D01*
X011237Y001894D02*
X005328Y001894D01*
X005229Y001796D02*
X011237Y001796D01*
X011287Y001697D02*
X005122Y001697D01*
X004884Y001599D02*
X012666Y001599D01*
X012568Y001697D02*
X012347Y001697D01*
X012397Y001796D02*
X012469Y001796D01*
X012417Y001894D02*
X012397Y001894D01*
X012397Y001993D02*
X012417Y001993D01*
X012417Y002091D02*
X012397Y002091D01*
X012397Y002190D02*
X012417Y002190D01*
X012417Y002288D02*
X012397Y002288D01*
X012765Y001500D02*
X004028Y001500D01*
X003904Y001599D02*
X004549Y001599D01*
X004312Y001697D02*
X003870Y001697D01*
X003867Y001796D02*
X004205Y001796D01*
X004106Y001894D02*
X003867Y001894D01*
X003867Y001993D02*
X004055Y001993D01*
X004015Y002091D02*
X003867Y002091D01*
X003867Y002190D02*
X003976Y002190D01*
X003976Y002288D02*
X003867Y002288D01*
X003867Y002387D02*
X003976Y002387D01*
X003979Y002485D02*
X003867Y002485D01*
X003867Y002584D02*
X004020Y002584D01*
X004061Y002682D02*
X003867Y002682D01*
X003867Y002781D02*
X004119Y002781D01*
X004218Y002879D02*
X003867Y002879D01*
X003917Y015980D02*
X003921Y015980D01*
X003917Y016768D02*
X003921Y016768D01*
X003917Y017556D02*
X003922Y017556D01*
X003917Y019132D02*
X004701Y019132D01*
X004659Y019230D02*
X003917Y019230D01*
X003917Y019329D02*
X004659Y019329D01*
X004659Y019427D02*
X003917Y019427D01*
X003917Y019526D02*
X004674Y019526D01*
X004773Y019624D02*
X003917Y019624D01*
X003917Y019723D02*
X004871Y019723D01*
X004799Y019821D02*
X003917Y019821D01*
X003917Y019920D02*
X004701Y019920D01*
X004659Y020018D02*
X003917Y020018D01*
X005038Y020215D02*
X005096Y020215D01*
X005096Y020314D02*
X005038Y020314D01*
X005038Y020412D02*
X005096Y020412D01*
X005096Y020511D02*
X005038Y020511D01*
D19*
X005767Y020436D03*
X006467Y020836D03*
X006467Y019936D03*
X005767Y019636D03*
X004167Y018536D03*
X006467Y017536D03*
X008067Y019136D03*
X008067Y019936D03*
X008067Y020836D03*
X004167Y020836D03*
X009467Y016136D03*
X007867Y015336D03*
X006467Y014536D03*
X005167Y014736D03*
X005067Y015236D03*
X005167Y013736D03*
X007167Y012436D03*
X007967Y012436D03*
X009567Y012236D03*
X010217Y013036D03*
X010167Y013536D03*
X009367Y014336D03*
X011167Y015236D03*
X012867Y016636D03*
X012367Y018536D03*
X012367Y019636D03*
X012067Y020836D03*
X011567Y012736D03*
D20*
X006467Y017536D02*
X006079Y017924D01*
X004417Y017924D01*
X022803Y014998D02*
X022803Y013035D01*
X022753Y012685D01*
D21*
X012967Y017436D02*
X012967Y020336D01*
X012867Y020436D01*
X012967Y017436D02*
X012730Y017199D01*
X012154Y017199D01*
D22*
X014253Y016285D03*
X016053Y016485D03*
X015953Y018085D03*
X015953Y018985D03*
X015953Y019785D03*
X018253Y014985D03*
X019253Y014985D03*
X016153Y014185D03*
X015653Y013885D03*
X015253Y014285D03*
X015953Y014785D03*
X013953Y013985D03*
X016717Y010431D03*
X016017Y008731D03*
X016417Y008531D03*
X016417Y007331D03*
X017817Y007331D03*
X020417Y007431D03*
X021017Y007031D03*
X022017Y007731D03*
X022817Y007731D03*
X021317Y008931D03*
X021317Y009931D03*
X020417Y006031D03*
X021017Y005531D03*
X022017Y004331D03*
X022817Y004331D03*
X017817Y004831D03*
X016417Y004831D03*
X015017Y004831D03*
X013617Y004831D03*
X013617Y002531D03*
X015017Y002531D03*
X016417Y002531D03*
X017817Y002531D03*
X015017Y007331D03*
X013617Y007331D03*
X012117Y008231D03*
X011117Y007331D03*
X010817Y007731D03*
X010918Y008332D03*
X010117Y007731D03*
X009917Y008231D03*
X009417Y007531D03*
X008817Y006731D03*
X007717Y006631D03*
X007117Y007131D03*
X006817Y007531D03*
X006417Y007331D03*
X006617Y006631D03*
X008517Y008431D03*
X009717Y009431D03*
X010117Y009431D03*
X011017Y005931D03*
X010817Y005331D03*
X011017Y003131D03*
X009917Y002631D03*
X008817Y002631D03*
X007717Y002631D03*
X006617Y002631D03*
X005117Y004131D03*
X004317Y003631D03*
X004317Y008431D03*
D23*
X006717Y009181D02*
X007567Y009181D01*
X008167Y009781D01*
X008267Y009881D02*
X008617Y009881D01*
X008867Y010131D01*
X009217Y010131D01*
X010117Y010131D01*
X010667Y009581D01*
X011317Y009581D01*
X011517Y009781D01*
X011017Y010092D02*
X010728Y010381D01*
X008067Y010381D01*
X007317Y009631D01*
X007217Y009531D01*
X006717Y009531D01*
X011817Y008531D02*
X011817Y007619D01*
X011817Y008531D02*
X012117Y008831D01*
X015217Y008831D01*
X015856Y008192D01*
X016678Y008192D01*
X017417Y008931D01*
X017217Y009131D01*
X015917Y009131D01*
X015567Y009481D01*
X012967Y009481D01*
X012867Y009481D01*
X012517Y009831D01*
X016667Y008181D02*
X016678Y008192D01*
X017103Y012035D02*
X016853Y012285D01*
X016853Y013085D01*
X017553Y013685D01*
X017103Y012035D02*
X022103Y012035D01*
X022753Y012685D01*
D24*
X015203Y012735D02*
X015153Y012785D01*
X015153Y013585D01*
X014153Y014585D01*
X014153Y015485D01*
X014390Y015723D01*
X015066Y015723D01*
D25*
X019554Y006894D02*
X020354Y006894D01*
X021217Y006031D01*
X022417Y006031D01*
M02*
